<svg width="18" height="19" viewBox="0 0 18 19" fill="none" xmlns="http://www.w3.org/2000/svg">
<path d="M15 0.257812H3C1.3 0.257812 0 1.5496 0 3.23885V15.163C0 16.8523 1.3 18.144 3 18.144H15C16.7 18.144 18 16.8523 18 15.163V3.23885C18 1.5496 16.7 0.257812 15 0.257812ZM9 6.21989C10.7 6.21989 12 7.51167 12 9.20093C12 10.8902 10.7 12.182 9 12.182C7.3 12.182 6 10.8902 6 9.20093C6 7.51167 7.3 6.21989 9 6.21989ZM12.8 4.23253C12.8 3.53695 13.4 3.04012 14 3.04012C14.6 3.04012 15.2 3.63632 15.2 4.23253C15.2 4.82874 14.7 5.42495 14 5.42495C13.3 5.42495 12.8 4.92811 12.8 4.23253ZM15 16.1567H3C2.4 16.1567 2 15.7592 2 15.163V9.20093H4C4 11.9832 6.2 14.1693 9 14.1693C11.8 14.1693 14 11.9832 14 9.20093H16V15.163C16 15.7592 15.6 16.1567 15 16.1567Z" fill="#4F4F4F"/>
</svg>
