<svg width="22" height="18" viewBox="0 0 22 18" fill="none" xmlns="http://www.w3.org/2000/svg">
<path d="M19.4213 2.93383C20.4088 2.35998 21.0626 1.57673 21.3828 0.580601C20.4809 1.04235 19.5131 1.37788 18.5095 1.57673C17.6504 0.70208 16.5626 0.257812 15.2586 0.257812C13.9839 0.257812 12.9072 0.681255 12.0284 1.505C11.6041 1.89617 11.2686 2.36524 11.0424 2.88348C10.8163 3.40172 10.7044 3.95821 10.7134 4.51885C10.7134 4.87634 10.7611 5.19566 10.8564 5.46639C7.09705 5.34491 3.98545 3.86864 1.5338 1.02718C1.11827 1.72251 0.910505 2.43056 0.910505 3.16291C0.910505 4.66809 1.58147 5.8609 2.92095 6.73671C2.1571 6.6754 1.4837 6.4926 0.910505 6.19295C0.910505 7.26775 1.24415 8.16554 1.91267 8.95574C2.56207 9.72573 3.47725 10.2545 4.49753 10.4494C4.11622 10.5419 3.71413 10.5859 3.30104 10.5859C2.91973 10.5859 2.64963 10.5558 2.48953 10.4898C2.77062 11.3657 3.30104 12.076 4.06733 12.6198C4.82487 13.1643 5.74635 13.4655 6.69741 13.4794C5.0695 14.6884 3.20816 15.2865 1.10238 15.2865C0.586634 15.2865 0.22121 15.2796 0 15.2426C2.074 16.5175 4.38265 17.1504 6.93695 17.1504C9.55114 17.1504 11.861 16.5233 13.8715 15.2692C15.8819 14.022 17.3656 12.4833 18.3189 10.6715C19.2616 8.91838 19.7524 6.97888 19.7512 5.01171V4.47026C20.6299 3.85699 21.3906 3.10519 22 2.24776C21.177 2.58543 20.3096 2.81621 19.4213 2.93383Z" fill="#4F4F4F"/>
</svg>
