<svg width="70" height="50" viewBox="0 0 70 50" fill="none" xmlns="http://www.w3.org/2000/svg">
<path d="M35 13.112C28.7868 13.112 23.7313 18.4282 23.7313 24.962C23.7313 31.4957 28.7868 36.8112 35 36.8112C41.2132 36.8112 46.2687 31.4957 46.2687 24.962C46.2687 18.4282 41.2132 13.112 35 13.112Z" fill="#4F4F4F"/>
<path d="M35.0002 11.1327C35.3899 11.1327 35.7061 10.8001 35.7061 10.3903V2.56929C35.7061 2.15949 35.3899 1.8269 35.0002 1.8269C34.6105 1.8269 34.2942 2.15949 34.2942 2.56929V10.3903C34.2942 10.8001 34.6105 11.1327 35.0002 11.1327Z" fill="#4F4F4F"/>
<path d="M35.0002 38.7896C34.6105 38.7896 34.2942 39.1222 34.2942 39.532V47.3531C34.2942 47.7629 34.6105 48.0955 35.0002 48.0955C35.3899 48.0955 35.7061 47.7629 35.7061 47.3531V39.532C35.7061 39.1222 35.3899 38.7896 35.0002 38.7896Z" fill="#4F4F4F"/>
<path d="M24.7038 15.1832C24.8415 15.3279 25.0222 15.4007 25.2029 15.4007C25.3837 15.4007 25.5644 15.3279 25.7021 15.1832C25.9781 14.8929 25.9781 14.4237 25.7021 14.1334L20.4426 8.60338C20.1666 8.31311 19.7204 8.31311 19.4443 8.60338C19.1683 8.89366 19.1683 9.36285 19.4443 9.65312L24.7038 15.1832Z" fill="#4F4F4F"/>
<path d="M45.2978 34.7399C45.0217 34.4496 44.5756 34.4496 44.2995 34.7399C44.0235 35.0301 44.0235 35.4993 44.2995 35.7896L49.559 41.3196C49.6967 41.4644 49.8774 41.5372 50.0581 41.5372C50.2388 41.5372 50.4196 41.4644 50.5572 41.3196C50.8333 41.0294 50.8333 40.5602 50.5572 40.2699L45.2978 34.7399Z" fill="#4F4F4F"/>
<path d="M44.798 15.4007C44.9787 15.4007 45.1594 15.3279 45.2971 15.1832L50.5565 9.65312C50.8326 9.36285 50.8326 8.89366 50.5565 8.60338C50.2805 8.31311 49.8343 8.31311 49.5583 8.60338L44.2988 14.1334C44.0228 14.4237 44.0228 14.8929 44.2988 15.1832C44.4372 15.3279 44.6179 15.4007 44.798 15.4007Z" fill="#4F4F4F"/>
<path d="M24.7038 34.7399L19.4443 40.2699C19.1683 40.5602 19.1683 41.0294 19.4443 41.3196C19.582 41.4644 19.7627 41.5372 19.9435 41.5372C20.1242 41.5372 20.3049 41.4644 20.4426 41.3196L25.7021 35.7896C25.9781 35.4993 25.9781 35.0301 25.7021 34.7399C25.426 34.4496 24.9791 34.4496 24.7038 34.7399Z" fill="#4F4F4F"/>
<path d="M56.294 24.2188H48.8567C48.467 24.2188 48.1507 24.5513 48.1507 24.9611C48.1507 25.3709 48.467 25.7035 48.8567 25.7035H56.294C56.6837 25.7035 57 25.3709 57 24.9611C57 24.5513 56.6837 24.2188 56.294 24.2188Z" fill="#4F4F4F"/>
<path d="M21.85 24.9611C21.85 24.5513 21.5338 24.2188 21.1441 24.2188H13.706C13.3163 24.2188 13 24.5513 13 24.9611C13 25.3709 13.3163 25.7035 13.706 25.7035H21.1434C21.5338 25.7035 21.85 25.3717 21.85 24.9611Z" fill="#4F4F4F"/>
</svg>
