<svg width="46" height="38" viewBox="0 0 46 38" fill="none" xmlns="http://www.w3.org/2000/svg">
<path d="M23 0.812988C14.4222 0.812988 6.55119 3.81179 0.411638 8.65168C0.190719 8.82756 0.0459588 9.0876 0.00920269 9.37459C-0.0275534 9.66158 0.0467058 9.95202 0.215644 10.182C0.384582 10.412 0.634361 10.5627 0.910032 10.601C1.1857 10.6392 1.46468 10.5619 1.6856 10.3861C7.47142 5.82503 14.8902 2.98946 23 2.98946C31.1098 2.98946 38.5286 5.82503 44.3144 10.3861C44.5353 10.5619 44.8143 10.6392 45.09 10.601C45.3656 10.5627 45.6154 10.412 45.7844 10.182C45.9533 9.95202 46.0276 9.66158 45.9908 9.37459C45.954 9.0876 45.8093 8.82756 45.5884 8.65168C39.4488 3.81179 31.5778 0.812988 23 0.812988ZM23 11.1512C16.8533 11.1512 11.1223 13.0882 6.66713 16.8305C6.54386 16.9132 6.4387 17.0221 6.35848 17.1499C6.27827 17.2778 6.22481 17.4218 6.20156 17.5726C6.17831 17.7234 6.1858 17.8775 6.22355 18.0251C6.26129 18.1727 6.32844 18.3103 6.42064 18.4291C6.51284 18.5479 6.62801 18.6451 6.75868 18.7145C6.88934 18.7839 7.03257 18.8239 7.17906 18.8319C7.32555 18.8399 7.47201 18.8157 7.60893 18.7609C7.74584 18.7061 7.87015 18.6219 7.97376 18.5138C12.0217 15.1136 17.2751 13.3277 23 13.3277C28.7249 13.3277 33.9783 15.1136 38.0262 18.5138C38.1299 18.6219 38.2542 18.7061 38.3911 18.7609C38.528 18.8157 38.6745 18.8399 38.8209 18.8319C38.9674 18.8239 39.1107 18.7839 39.2413 18.7145C39.372 18.6451 39.4872 18.5479 39.5794 18.4291C39.6716 18.3103 39.7387 18.1727 39.7765 18.0251C39.8142 17.8775 39.8217 17.7234 39.7984 17.5726C39.7752 17.4218 39.7217 17.2778 39.6415 17.1499C39.5613 17.0221 39.4561 16.9132 39.3329 16.8305C34.8777 13.0882 29.1467 11.1512 23 11.1512ZM23 20.9453C19.2465 20.9453 15.6812 22.1691 12.939 24.4311C12.7216 24.612 12.5819 24.8751 12.5504 25.1629C12.519 25.4508 12.5983 25.7398 12.7711 25.9669C12.9439 26.194 13.196 26.3406 13.4723 26.3746C13.7487 26.4086 14.0267 26.3273 14.2456 26.1485C16.5865 24.2174 19.6893 23.1218 23 23.1218C26.3107 23.1218 29.4135 24.2174 31.7544 26.1485C31.9733 26.3273 32.2513 26.4086 32.5277 26.3746C32.804 26.3406 33.0561 26.194 33.2289 25.9669C33.4017 25.7398 33.481 25.4508 33.4496 25.1629C33.4181 24.8751 33.2784 24.612 33.0611 24.4311C30.3188 22.1691 26.7535 20.9453 23 20.9453ZM23 31.2836C21.2681 31.2836 19.8641 32.7452 19.8641 34.5483C19.8641 36.3513 21.2681 37.813 23 37.813C24.7319 37.813 26.1359 36.3513 26.1359 34.5483C26.1359 32.7452 24.7319 31.2836 23 31.2836Z" fill="#4F4F4F"/>
</svg>
