<svg width="44" height="45" viewBox="0 0 44 45" fill="none" xmlns="http://www.w3.org/2000/svg">
<path d="M22 10.9664C15.7868 10.9664 10.7313 16.022 10.7313 22.2354C10.7313 28.4488 15.7868 33.5036 22 33.5036C28.2132 33.5036 33.2687 28.4488 33.2687 22.2354C33.2687 16.022 28.2132 10.9664 22 10.9664Z" fill="#4F4F4F"/>
<path d="M22.0002 9.08417C22.3899 9.08417 22.7061 8.76789 22.7061 8.37818V0.940606C22.7061 0.550901 22.3899 0.234619 22.0002 0.234619C21.6105 0.234619 21.2942 0.550901 21.2942 0.940606V8.37818C21.2942 8.76789 21.6105 9.08417 22.0002 9.08417Z" fill="#4F4F4F"/>
<path d="M22.0002 35.3851C21.6105 35.3851 21.2942 35.7013 21.2942 36.0911V43.5286C21.2942 43.9183 21.6105 44.2346 22.0002 44.2346C22.3899 44.2346 22.7061 43.9183 22.7061 43.5286V36.0911C22.7061 35.7013 22.3899 35.3851 22.0002 35.3851Z" fill="#4F4F4F"/>
<path d="M11.7038 12.936C11.8415 13.0737 12.0222 13.1429 12.2029 13.1429C12.3837 13.1429 12.5644 13.0737 12.7021 12.936C12.9781 12.66 12.9781 12.2138 12.7021 11.9377L7.44259 6.67885C7.16656 6.40281 6.72038 6.40281 6.44435 6.67885C6.16832 6.95489 6.16832 7.40107 6.44435 7.67711L11.7038 12.936Z" fill="#4F4F4F"/>
<path d="M32.2978 31.5339C32.0217 31.2578 31.5756 31.2578 31.2995 31.5339C31.0235 31.8099 31.0235 32.2561 31.2995 32.5321L36.559 37.791C36.6967 37.9287 36.8774 37.9979 37.0581 37.9979C37.2388 37.9979 37.4196 37.9287 37.5572 37.791C37.8333 37.515 37.8333 37.0688 37.5572 36.7928L32.2978 31.5339Z" fill="#4F4F4F"/>
<path d="M31.798 13.1429C31.9787 13.1429 32.1594 13.0737 32.2971 12.936L37.5565 7.67711C37.8326 7.40107 37.8326 6.95489 37.5565 6.67885C37.2805 6.40281 36.8343 6.40281 36.5583 6.67885L31.2988 11.9377C31.0228 12.2138 31.0228 12.66 31.2988 12.936C31.4372 13.0737 31.6179 13.1429 31.798 13.1429Z" fill="#4F4F4F"/>
<path d="M11.7038 31.5339L6.44435 36.7928C6.16832 37.0688 6.16832 37.515 6.44435 37.791C6.58201 37.9287 6.76274 37.9979 6.94347 37.9979C7.1242 37.9979 7.30493 37.9287 7.44259 37.791L12.7021 32.5321C12.9781 32.2561 12.9781 31.8099 12.7021 31.5339C12.426 31.2578 11.9791 31.2578 11.7038 31.5339Z" fill="#4F4F4F"/>
<path d="M43.294 21.5286H35.8567C35.467 21.5286 35.1507 21.8449 35.1507 22.2346C35.1507 22.6243 35.467 22.9406 35.8567 22.9406H43.294C43.6837 22.9406 44 22.6243 44 22.2346C44 21.8449 43.6837 21.5286 43.294 21.5286Z" fill="#4F4F4F"/>
<path d="M8.85003 22.2346C8.85003 21.8449 8.53376 21.5286 8.14406 21.5286H0.705969C0.316274 21.5286 0 21.8449 0 22.2346C0 22.6243 0.316274 22.9406 0.705969 22.9406H8.14335C8.53376 22.9406 8.85003 22.625 8.85003 22.2346Z" fill="#4F4F4F"/>
</svg>
