<svg width="50" height="41" viewBox="0 0 50 41" fill="none" xmlns="http://www.w3.org/2000/svg">
<path d="M49.7822 38.538L38.4062 23.673C40.008 21.9264 41.2966 19.8392 42.1386 17.4644C42.2484 17.154 42.3364 16.842 42.4234 16.53L42.4814 16.3223C42.6396 15.7636 42.3197 15.1808 41.7663 15.0209C41.2154 14.8601 40.6361 15.1839 40.4784 15.7436L40.4179 15.9595C40.3442 16.2247 40.2709 16.4899 40.1773 16.7536C39.4745 18.7357 38.4135 20.485 37.1068 21.9752L30.6827 13.5809C31.2284 12.1979 31.2755 10.6889 30.7664 9.28136C30.3433 8.08097 29.5626 7.0771 28.5399 6.35953L30.695 1.73617C30.9402 1.21037 30.7169 0.582807 30.1966 0.33507C29.6778 0.0878471 29.0552 0.312455 28.8101 0.838768L26.6533 5.46546C26.1368 5.322 25.6074 5.23925 25.0685 5.23925C22.7247 5.23925 20.5685 6.61819 19.5685 8.75505C18.881 10.2287 18.8081 11.8813 19.3602 13.4182C19.3793 13.4722 19.4115 13.5183 19.432 13.5715L0.220737 38.4228C-0.133266 38.8813 -0.0529032 39.5428 0.400282 39.9005C0.591017 40.0506 0.816846 40.1236 1.04115 40.1236C1.35039 40.1236 1.6571 39.9848 1.86258 39.7191L13.1913 25.0644C14.9073 26.5723 16.8406 27.7445 18.9809 28.5103C20.9843 29.2278 23.0316 29.568 25.0462 29.568C29.4143 29.568 33.6197 27.9583 36.8904 25.1338L48.1343 39.826C48.3397 40.0943 48.6475 40.2346 48.9587 40.2346C49.1815 40.2346 49.4058 40.1627 49.5955 40.0146C50.0508 39.659 50.1342 38.998 49.7822 38.538ZM19.6767 26.5263C17.7507 25.8366 16.0128 24.7751 14.4741 23.4051L20.5996 15.4813C21.1269 16.055 21.7658 16.528 22.4956 16.8708C23.3081 17.2602 24.1727 17.4497 25.0581 17.4497C26.7674 17.4497 28.3714 16.7101 29.5055 15.4841L35.6166 23.4694C31.3825 27.1755 25.3345 28.5513 19.6767 26.5263Z" fill="#4F4F4F"/>
</svg>
