<svg width="50" height="40" viewBox="0 0 50 40" fill="none" xmlns="http://www.w3.org/2000/svg">
<path d="M49.7822 38.3034L38.4062 23.4384C40.008 21.6917 41.2966 19.6045 42.1386 17.2298C42.2484 16.9193 42.3364 16.6073 42.4234 16.2954L42.4814 16.0877C42.6396 15.529 42.3197 14.9462 41.7663 14.7863C41.2154 14.6255 40.6361 14.9493 40.4784 15.509L40.4179 15.7248C40.3442 15.9901 40.2709 16.2553 40.1773 16.5189C39.4745 18.5011 38.4135 20.2504 37.1068 21.7406L30.6827 13.3463C31.2284 11.9633 31.2755 10.4543 30.7664 9.04674C30.3433 7.84635 29.5626 6.84248 28.5399 6.12491L30.695 1.50155C30.9402 0.975755 30.7169 0.348188 30.1966 0.100451C29.6778 -0.146772 29.0552 0.0778361 28.8101 0.604149L26.6533 5.23084C26.1368 5.08738 25.6074 5.00463 25.0685 5.00463C22.7247 5.00463 20.5685 6.38357 19.5685 8.52043C18.881 9.99407 18.8081 11.6467 19.3602 13.1836C19.3793 13.2376 19.4115 13.2836 19.432 13.3369L0.220737 38.1882C-0.133266 38.6467 -0.0529032 39.3082 0.400282 39.6659C0.591017 39.816 0.816846 39.889 1.04115 39.889C1.35039 39.889 1.6571 39.7502 1.86258 39.4845L13.1913 24.8298C14.9073 26.3377 16.8406 27.5098 18.9809 28.2757C20.9843 28.9932 23.0316 29.3334 25.0462 29.3334C29.4143 29.3334 33.6197 27.7236 36.8904 24.8992L48.1343 39.5914C48.3397 39.8597 48.6475 40 48.9587 40C49.1815 40 49.4058 39.928 49.5955 39.78C50.0508 39.4243 50.1342 38.7634 49.7822 38.3034ZM19.6767 26.2917C17.7507 25.602 16.0128 24.5405 14.4741 23.1705L20.5996 15.2467C21.1269 15.8204 21.7658 16.2934 22.4956 16.6361C23.3081 17.0256 24.1727 17.2151 25.0581 17.2151C26.7674 17.2151 28.3714 16.4755 29.5055 15.2495L35.6166 23.2348C31.3825 26.9409 25.3345 28.3167 19.6767 26.2917Z" fill="#4F4F4F"/>
</svg>
