<svg width="44" height="45" viewBox="0 0 44 45" fill="none" xmlns="http://www.w3.org/2000/svg">
<path d="M22 11.3368C15.7868 11.3368 10.7313 16.3245 10.7313 22.4543C10.7313 28.5842 15.7868 33.5712 22 33.5712C28.2132 33.5712 33.2687 28.5842 33.2687 22.4543C33.2687 16.3245 28.2132 11.3368 22 11.3368Z" fill="#4F4F4F"/>
<path d="M22.0002 9.47989C22.3899 9.47989 22.7061 9.16786 22.7061 8.78339V1.44577C22.7061 1.0613 22.3899 0.749268 22.0002 0.749268C21.6105 0.749268 21.2942 1.0613 21.2942 1.44577V8.78339C21.2942 9.16786 21.6105 9.47989 22.0002 9.47989Z" fill="#4F4F4F"/>
<path d="M22.0002 35.4273C21.6105 35.4273 21.2942 35.7394 21.2942 36.1238V43.4615C21.2942 43.8459 21.6105 44.158 22.0002 44.158C22.3899 44.158 22.7061 43.8459 22.7061 43.4615V36.1238C22.7061 35.7394 22.3899 35.4273 22.0002 35.4273Z" fill="#4F4F4F"/>
<path d="M11.7038 13.28C11.8415 13.4158 12.0222 13.484 12.2029 13.484C12.3837 13.484 12.5644 13.4158 12.7021 13.28C12.9781 13.0076 12.9781 12.5675 12.7021 12.2951L7.44259 7.10689C7.16656 6.83456 6.72038 6.83456 6.44435 7.10689C6.16832 7.37922 6.16832 7.81941 6.44435 8.09174L11.7038 13.28Z" fill="#4F4F4F"/>
<path d="M32.2978 31.6279C32.0217 31.3555 31.5756 31.3555 31.2995 31.6279C31.0235 31.9002 31.0235 32.3404 31.2995 32.6127L36.559 37.801C36.6967 37.9368 36.8774 38.005 37.0581 38.005C37.2388 38.005 37.4196 37.9368 37.5572 37.801C37.8333 37.5286 37.8333 37.0884 37.5572 36.8161L32.2978 31.6279Z" fill="#4F4F4F"/>
<path d="M31.798 13.484C31.9787 13.484 32.1594 13.4158 32.2971 13.28L37.5565 8.09174C37.8326 7.81941 37.8326 7.37922 37.5565 7.10689C37.2805 6.83456 36.8343 6.83456 36.5583 7.10689L31.2988 12.2951C31.0228 12.5675 31.0228 13.0076 31.2988 13.28C31.4372 13.4158 31.6179 13.484 31.798 13.484Z" fill="#4F4F4F"/>
<path d="M11.7038 31.6279L6.44435 36.8161C6.16832 37.0884 6.16832 37.5286 6.44435 37.801C6.58201 37.9368 6.76274 38.005 6.94347 38.005C7.1242 38.005 7.30493 37.9368 7.44259 37.801L12.7021 32.6127C12.9781 32.3404 12.9781 31.9002 12.7021 31.6279C12.426 31.3555 11.9791 31.3555 11.7038 31.6279Z" fill="#4F4F4F"/>
<path d="M43.294 21.7571H35.8567C35.467 21.7571 35.1507 22.0691 35.1507 22.4536C35.1507 22.838 35.467 23.1501 35.8567 23.1501H43.294C43.6837 23.1501 44 22.838 44 22.4536C44 22.0691 43.6837 21.7571 43.294 21.7571Z" fill="#4F4F4F"/>
<path d="M8.85003 22.4536C8.85003 22.0691 8.53376 21.7571 8.14406 21.7571H0.705969C0.316274 21.7571 0 22.0691 0 22.4536C0 22.838 0.316274 23.1501 0.705969 23.1501H8.14335C8.53376 23.1501 8.85003 22.8387 8.85003 22.4536Z" fill="#4F4F4F"/>
</svg>
