<svg width="46.000000" height="37.000000" viewBox="0 0 46 37" fill="none" xmlns="http://www.w3.org/2000/svg" xmlns:xlink="http://www.w3.org/1999/xlink">
	<desc>
			Created with Pixso.
	</desc>
	<defs/>
	<path id="Vector" d="M23 0C14.4221 0 6.55127 2.99878 0.411621 7.83875C0.190674 8.01453 0.0458984 8.27466 0.00927734 8.56165C-0.0275879 8.84863 0.0466309 9.13904 0.215576 9.36902C0.384521 9.599 0.634277 9.74976 0.909912 9.78796C1.18579 9.82629 1.4646 9.7489 1.68555 9.57312C7.47144 5.01208 14.8901 2.17651 23 2.17651C31.1099 2.17651 38.5286 5.01208 44.3145 9.57312C44.5354 9.7489 44.8142 9.82629 45.0901 9.78796C45.3657 9.74976 45.6155 9.599 45.7844 9.36902C45.9534 9.13904 46.0276 8.84863 45.9907 8.56165C45.9541 8.27466 45.8093 8.01453 45.5884 7.83875C39.4487 2.99878 31.5779 0 23 0ZM23 10.3383C16.8533 10.3383 11.1223 12.2753 6.66724 16.0175C6.54395 16.1002 6.43872 16.2091 6.3584 16.3369C6.27832 16.4648 6.22485 16.6088 6.20166 16.7596C6.17822 16.9104 6.18579 17.0646 6.22363 17.2122C6.26123 17.3597 6.32837 17.4973 6.42065 17.6161C6.51294 17.7349 6.62793 17.8322 6.75879 17.9015C6.8894 17.9709 7.03247 18.011 7.17896 18.0189C7.32544 18.027 7.47192 18.0027 7.60889 17.9479C7.74585 17.8931 7.87012 17.809 7.97388 17.7008C12.0217 14.3007 17.2751 12.5146 23 12.5146C28.7249 12.5146 33.9783 14.3007 38.0264 17.7008C38.1299 17.809 38.2542 17.8931 38.3911 17.9479C38.5281 18.0027 38.6746 18.027 38.821 18.0189C38.9675 18.011 39.1106 17.9709 39.2412 17.9015C39.3721 17.8322 39.4871 17.7349 39.5793 17.6161C39.6716 17.4973 39.7388 17.3597 39.7764 17.2122C39.8142 17.0646 39.8218 16.9104 39.7983 16.7596C39.7751 16.6088 39.7217 16.4648 39.6416 16.3369C39.5613 16.2091 39.4561 16.1002 39.3328 16.0175C34.8777 12.2753 29.1467 10.3383 23 10.3383ZM23 20.1323C19.2466 20.1323 15.6812 21.3561 12.939 23.6182C12.7217 23.799 12.5818 24.0621 12.5505 24.35C12.519 24.6378 12.5984 24.9269 12.771 25.1539C12.9438 25.381 13.196 25.5276 13.4724 25.5616C13.7488 25.5957 14.0266 25.5143 14.2456 25.3354C16.5864 23.4044 19.6892 22.3088 23 22.3088C26.3108 22.3088 29.4136 23.4044 31.7544 25.3354C31.9734 25.5143 32.2512 25.5957 32.5276 25.5616C32.804 25.5276 33.0562 25.381 33.229 25.1539C33.4016 24.9269 33.481 24.6378 33.4495 24.35C33.4182 24.0621 33.2783 23.799 33.061 23.6182C30.3188 21.3561 26.7534 20.1323 23 20.1323ZM23 30.4706C21.2681 30.4706 19.864 31.9323 19.864 33.7354C19.864 35.5383 21.2681 37 23 37C24.7319 37 26.136 35.5383 26.136 33.7354C26.136 31.9323 24.7319 30.4706 23 30.4706Z" fill="#4F4F4F" fill-opacity="1.000000" fill-rule="nonzero"/>
</svg>
