<svg width="54.000000" height="48.000000" viewBox="0 0 54 48" fill="none" xmlns="http://www.w3.org/2000/svg" xmlns:xlink="http://www.w3.org/1999/xlink">
	<desc>
			Created with Pixso.
	</desc>
	<defs>
		<filter id="filter_41498_119_dd" x="0.000000" y="0.000000" width="54.000000" height="48.000000" filterUnits="userSpaceOnUse" color-interpolation-filters="sRGB">
			<feFlood flood-opacity="0" result="BackgroundImageFix"/>
			<feColorMatrix in="SourceAlpha" type="matrix" values="0 0 0 0 0 0 0 0 0 0 0 0 0 0 0 0 0 0 127 0" result="hardAlpha"/>
			<feOffset dx="0" dy="4"/>
			<feGaussianBlur stdDeviation="1.33333"/>
			<feComposite in2="hardAlpha" operator="out" k2="-1" k3="1"/>
			<feColorMatrix type="matrix" values="0 0 0 0 0 0 0 0 0 0 0 0 0 0 0 0 0 0 0.25 0"/>
			<feBlend mode="normal" in2="BackgroundImageFix" result="effect_dropShadow_1"/>
			<feBlend mode="normal" in="SourceGraphic" in2="effect_dropShadow_1" result="shape"/>
		</filter>
	</defs>
	<g filter="url(#filter_41498_119_dd)">
		<path id="Vector" d="M31.2791 0L15.7007 11.0526L4 11.0526L4 28.9474L15.7007 28.9474L31.2791 40L31.2791 0ZM42.428 5.2467C42.1965 5.26025 41.9756 5.34753 41.7988 5.49548C41.6218 5.64331 41.4988 5.84375 41.4478 6.06653C41.397 6.28931 41.4209 6.52222 41.5164 6.73035C41.6118 6.93848 41.7734 7.11047 41.9768 7.22034C45.24 9.04846 47.8604 14.0237 47.8604 20C47.8606 25.9763 45.24 30.9351 41.9768 32.7632C41.7322 32.9034 41.554 33.1333 41.4812 33.4026C41.4082 33.6719 41.4468 33.9585 41.5881 34.1998C41.7297 34.4413 41.9624 34.6177 42.2358 34.6906C42.509 34.7634 42.8005 34.7268 43.0466 34.5889C47.2788 32.2178 50 26.5646 50 20C50 13.4354 47.2788 7.76575 43.0466 5.39478C42.8604 5.28479 42.6448 5.23315 42.428 5.2467ZM36.8452 9.45728C36.6123 9.46765 36.3892 9.55261 36.2097 9.69922C36.0303 9.84595 35.9045 10.0463 35.8516 10.2697C35.7986 10.4932 35.8213 10.7275 35.9163 10.9371C36.011 11.1469 36.1729 11.3202 36.3772 11.4309C38.3867 12.6 40.1382 15.9421 40.1382 20C40.1382 24.0579 38.3867 27.3837 36.3772 28.5526C36.2546 28.6224 36.1475 28.7155 36.0615 28.8262C35.9756 28.937 35.9128 29.0634 35.8767 29.1981C35.8406 29.3328 35.8318 29.4733 35.8511 29.6112C35.8701 29.7493 35.917 29.8822 35.9885 30.0024C36.0601 30.1227 36.155 30.2279 36.2678 30.3119C36.3809 30.3959 36.5095 30.457 36.6467 30.4921C36.7837 30.527 36.9265 30.5349 37.0667 30.5154C37.2068 30.4958 37.3418 30.4492 37.4636 30.3783C40.4512 28.6403 42.2776 24.6243 42.2776 20C42.2776 15.3757 40.4512 11.3434 37.4636 9.60522C37.2776 9.49536 37.0618 9.44373 36.8452 9.45728Z" fill="#4F4F4F" fill-opacity="1.000000" fill-rule="nonzero"/>
	</g>
</svg>
