<svg width="44.000000" height="44.000000" viewBox="0 0 44 44" fill="none" xmlns="http://www.w3.org/2000/svg" xmlns:xlink="http://www.w3.org/1999/xlink">
	<desc>
			Created with Pixso.
	</desc>
	<defs/>
	<path id="Vector" d="M22.0002 8.84961C22.3899 8.84961 22.7061 8.53333 22.7061 8.14355L22.7061 0.705933C22.7061 0.316284 22.3899 0 22.0002 0C21.6106 0 21.2942 0.316284 21.2942 0.705933L21.2942 8.14355C21.2942 8.53333 21.6106 8.84961 22.0002 8.84961ZM11.7039 12.7014C11.8416 12.8391 12.0222 12.9082 12.2029 12.9082C12.3838 12.9082 12.5645 12.8391 12.7021 12.7014C12.8401 12.5634 12.9092 12.3828 12.9092 12.2023C12.9092 12.0217 12.8401 11.8412 12.7021 11.7031L7.44263 6.44421C7.1665 6.16821 6.72046 6.16821 6.44434 6.44421C6.3064 6.58228 6.2373 6.76282 6.2373 6.94336C6.2373 7.1239 6.3064 7.30444 6.44434 7.4425L11.7039 12.7014ZM31.7979 12.9082C31.9788 12.9082 32.1594 12.8391 32.2971 12.7014L37.5566 7.4425C37.6946 7.30444 37.7637 7.1239 37.7637 6.94336C37.7637 6.76282 37.6946 6.58228 37.5566 6.44421C37.2805 6.16821 36.8342 6.16821 36.5583 6.44421L31.2988 11.7031C31.1609 11.8412 31.0918 12.0217 31.0918 12.2023C31.0918 12.3828 31.1609 12.5634 31.2988 12.7014C31.4373 12.8391 31.6179 12.9082 31.7979 12.9082ZM22 10.7318C15.7869 10.7318 10.7314 15.7874 10.7314 22.0007C10.7314 28.2141 15.7869 33.269 22 33.269C28.2131 33.269 33.2688 28.2141 33.2688 22.0007C33.2688 15.7874 28.2131 10.7318 22 10.7318ZM8.8501 22C8.8501 21.6102 8.53369 21.2939 8.14404 21.2939L0.706055 21.2939C0.316162 21.2939 0 21.6102 0 22C0 22.3896 0.316162 22.7059 0.706055 22.7059L8.14331 22.7059C8.53369 22.7059 8.8501 22.3904 8.8501 22ZM43.2939 21.2939L35.8567 21.2939C35.467 21.2939 35.1506 21.6102 35.1506 22C35.1506 22.3896 35.467 22.7059 35.8567 22.7059L43.2939 22.7059C43.6838 22.7059 44 22.3896 44 22C44 21.6102 43.6838 21.2939 43.2939 21.2939ZM11.7039 31.2992L6.44434 36.5581C6.3064 36.6962 6.2373 36.8767 6.2373 37.0573C6.2373 37.2378 6.3064 37.4183 6.44434 37.5564C6.58203 37.6941 6.7627 37.7633 6.94336 37.7633C7.12427 37.7633 7.30493 37.6941 7.44263 37.5564L12.7021 32.2975C12.8401 32.1594 12.9092 31.9789 12.9092 31.7983C12.9092 31.6178 12.8401 31.4373 12.7021 31.2992C12.426 31.0232 11.9792 31.0232 11.7039 31.2992ZM32.2979 31.2992C32.0217 31.0232 31.5754 31.0232 31.2996 31.2992C31.1616 31.4373 31.0925 31.6178 31.0925 31.7983C31.0925 31.9789 31.1616 32.1594 31.2996 32.2975L36.5591 37.5564C36.6968 37.6941 36.8774 37.7633 37.0581 37.7633C37.2388 37.7633 37.4197 37.6941 37.5571 37.5564C37.6953 37.4183 37.7642 37.2378 37.7642 37.0573C37.7642 36.8767 37.6953 36.6962 37.5571 36.5581L32.2979 31.2992ZM22.0002 35.1504C21.6106 35.1504 21.2942 35.4667 21.2942 35.8564L21.2942 43.2941C21.2942 43.6837 21.6106 44 22.0002 44C22.3899 44 22.7061 43.6837 22.7061 43.2941L22.7061 35.8564C22.7061 35.4667 22.3899 35.1504 22.0002 35.1504Z" fill="#4F4F4F" fill-opacity="1.000000" fill-rule="evenodd"/>
</svg>
