<svg width="50.000000" height="40.000000" viewBox="0 0 50 40" fill="none" xmlns="http://www.w3.org/2000/svg" xmlns:xlink="http://www.w3.org/1999/xlink">
	<desc>
			Created with Pixso.
	</desc>
	<defs/>
	<path id="Vector" d="M49.7822 38.3033L38.4062 23.4385C40.0081 21.6918 41.2966 19.6045 42.1387 17.2297C42.2485 16.9193 42.3364 16.6073 42.4233 16.2954L42.4814 16.0878C42.6396 15.5291 42.3196 14.9462 41.7664 14.7864C41.2153 14.6255 40.636 14.9492 40.4785 15.509L40.418 15.7249C40.3442 15.9901 40.271 16.2552 40.1772 16.5189C39.4744 18.5011 38.4136 20.2504 37.1067 21.7406L30.6826 13.3463C31.2283 11.9633 31.2754 10.4542 30.7664 9.04675C30.3433 7.84631 29.5627 6.84253 28.5398 6.12488L30.6951 1.50159C30.9402 0.975708 30.7168 0.348145 30.1965 0.100464C29.6777 -0.146729 29.0552 0.0778809 28.8101 0.604126L26.6533 5.23083C26.137 5.0874 25.6074 5.00464 25.0686 5.00464C22.7249 5.00464 20.5686 6.38354 19.5686 8.52039C18.8811 9.99402 18.8081 11.6467 19.3601 13.1836C19.3792 13.2375 19.4114 13.2837 19.4319 13.3369L0.220703 38.1882C-0.133301 38.6467 -0.0529785 39.3082 0.400391 39.6659C0.591064 39.816 0.816895 39.889 1.04126 39.889C1.35034 39.889 1.65698 39.7502 1.86255 39.4845L13.1914 24.8298C14.9072 26.3378 16.8406 27.5099 18.981 28.2756C20.9844 28.9932 23.0315 29.3334 25.0461 29.3334C29.4143 29.3334 33.6196 27.7236 36.8904 24.8992L48.1343 39.5914C48.3398 39.8597 48.6475 40 48.9587 40C49.1816 40 49.4058 39.9281 49.5955 39.78C50.0508 39.4243 50.1343 38.7634 49.7822 38.3033ZM19.6768 26.2917C17.7507 25.6019 16.0127 24.5404 14.4741 23.1704L20.5996 15.2467C21.127 15.8204 21.7659 16.2933 22.4956 16.6361C23.3081 17.0256 24.1726 17.2151 25.0581 17.2151C26.7673 17.2151 28.3713 16.4755 29.5054 15.2495L35.6167 23.2349C31.3826 26.9409 25.3345 28.3167 19.6768 26.2917Z" fill="#4F4F4F" fill-opacity="1.000000" fill-rule="nonzero"/>
</svg>
