<svg width="46" height="38" viewBox="0 0 46 38" fill="none" xmlns="http://www.w3.org/2000/svg">
<path d="M23 0.0476074C14.4222 0.0476074 6.55119 3.04641 0.411638 7.8863C0.190719 8.06218 0.0459588 8.32222 0.00920269 8.60921C-0.0275534 8.8962 0.0467058 9.18664 0.215644 9.41663C0.384582 9.64663 0.634361 9.79733 0.910032 9.8356C1.1857 9.87386 1.46468 9.79655 1.6856 9.62068C7.47142 5.05964 14.8902 2.22408 23 2.22408C31.1098 2.22408 38.5286 5.05964 44.3144 9.62068C44.5353 9.79655 44.8143 9.87386 45.09 9.8356C45.3656 9.79733 45.6154 9.64663 45.7844 9.41663C45.9533 9.18664 46.0276 8.8962 45.9908 8.60921C45.954 8.32222 45.8093 8.06218 45.5884 7.8863C39.4488 3.04641 31.5778 0.0476074 23 0.0476074ZM23 10.3858C16.8533 10.3858 11.1223 12.3228 6.66713 16.0651C6.54386 16.1478 6.4387 16.2567 6.35848 16.3846C6.27827 16.5124 6.22481 16.6564 6.20156 16.8072C6.17831 16.958 6.1858 17.1122 6.22355 17.2597C6.26129 17.4073 6.32844 17.545 6.42064 17.6637C6.51284 17.7825 6.62801 17.8798 6.75868 17.9492C6.88934 18.0186 7.03257 18.0585 7.17906 18.0665C7.32555 18.0745 7.47201 18.0503 7.60893 17.9955C7.74584 17.9407 7.87015 17.8565 7.97376 17.7484C12.0217 14.3482 17.2751 12.5623 23 12.5623C28.7249 12.5623 33.9783 14.3482 38.0262 17.7484C38.1299 17.8565 38.2542 17.9407 38.3911 17.9955C38.528 18.0503 38.6745 18.0745 38.8209 18.0665C38.9674 18.0585 39.1107 18.0186 39.2413 17.9492C39.372 17.8798 39.4872 17.7825 39.5794 17.6637C39.6716 17.545 39.7387 17.4073 39.7765 17.2597C39.8142 17.1122 39.8217 16.958 39.7984 16.8072C39.7752 16.6564 39.7217 16.5124 39.6415 16.3846C39.5613 16.2567 39.4561 16.1478 39.3329 16.0651C34.8777 12.3228 29.1467 10.3858 23 10.3858ZM23 20.18C19.2465 20.18 15.6812 21.4037 12.939 23.6657C12.7216 23.8466 12.5819 24.1097 12.5504 24.3976C12.519 24.6854 12.5983 24.9745 12.7711 25.2016C12.9439 25.4286 13.196 25.5752 13.4723 25.6092C13.7487 25.6433 14.0267 25.5619 14.2456 25.3831C16.5865 23.4521 19.6893 22.3564 23 22.3564C26.3107 22.3564 29.4135 23.4521 31.7544 25.3831C31.9733 25.5619 32.2513 25.6433 32.5277 25.6092C32.804 25.5752 33.0561 25.4286 33.2289 25.2016C33.4017 24.9745 33.481 24.6854 33.4496 24.3976C33.4181 24.1097 33.2784 23.8466 33.0611 23.6657C30.3188 21.4037 26.7535 20.18 23 20.18ZM23 30.5182C21.2681 30.5182 19.8641 31.9799 19.8641 33.7829C19.8641 35.586 21.2681 37.0476 23 37.0476C24.7319 37.0476 26.1359 35.586 26.1359 33.7829C26.1359 31.9799 24.7319 30.5182 23 30.5182Z" fill="#4F4F4F"/>
</svg>
