<svg width="13" height="13" viewBox="0 0 13 13" fill="none" xmlns="http://www.w3.org/2000/svg">
<path d="M6.296 8.96C6.296 9.888 5.99733 10.6453 5.4 11.232C4.81333 11.808 4.072 12.096 3.176 12.096C2.26933 12.096 1.52267 11.808 0.936 11.232C0.349333 10.656 0.056 9.89867 0.056 8.96V3.648C0.056 2.70933 0.349333 1.952 0.936 1.376C1.52267 0.799999 2.26933 0.511999 3.176 0.511999C4.072 0.511999 4.81333 0.805333 5.4 1.392C5.99733 1.968 6.296 2.72 6.296 3.648V8.96ZM5.144 8.896V3.712C5.144 3.072 4.968 2.54933 4.616 2.144C4.27467 1.73867 3.79467 1.536 3.176 1.536C2.55733 1.536 2.072 1.73867 1.72 2.144C1.37867 2.54933 1.208 3.072 1.208 3.712V8.896C1.208 9.536 1.37867 10.0587 1.72 10.464C2.072 10.8693 2.55733 11.072 3.176 11.072C3.79467 11.072 4.27467 10.8693 4.616 10.464C4.968 10.0587 5.144 9.536 5.144 8.896ZM12.6394 12H11.4874V1.888L9.35938 3.76V2.448L11.4874 0.608H12.6394V12Z" fill="#333333"/>
</svg>
