<svg width="11" height="9" viewBox="0 0 11 9" fill="none" xmlns="http://www.w3.org/2000/svg">
<path d="M5.016 5.90988C5.016 6.54788 4.81067 7.06854 4.4 7.47188C3.99667 7.86788 3.487 8.06588 2.871 8.06588C2.24767 8.06588 1.73433 7.86788 1.331 7.47188C0.927667 7.07588 0.726 6.55521 0.726 5.90988V2.25788C0.726 1.61254 0.927667 1.09188 1.331 0.695878C1.73433 0.299877 2.24767 0.101877 2.871 0.101877C3.487 0.101877 3.99667 0.303544 4.4 0.706877C4.81067 1.10288 5.016 1.61988 5.016 2.25788V5.90988ZM4.224 5.86588V2.30188C4.224 1.86188 4.103 1.50254 3.861 1.22388C3.62633 0.945211 3.29633 0.805877 2.871 0.805877C2.44567 0.805877 2.112 0.945211 1.87 1.22388C1.63533 1.50254 1.518 1.86188 1.518 2.30188V5.86588C1.518 6.30588 1.63533 6.66521 1.87 6.94388C2.112 7.22254 2.44567 7.36188 2.871 7.36188C3.29633 7.36188 3.62633 7.22254 3.861 6.94388C4.103 6.66521 4.224 6.30588 4.224 5.86588ZM10.8181 7.99988H6.49507V7.29588L9.58607 3.36888C9.8794 2.98754 10.0261 2.60254 10.0261 2.21388C10.0261 1.78854 9.90507 1.44754 9.66307 1.19088C9.42107 0.934211 9.0874 0.805877 8.66207 0.805877C8.26607 0.805877 7.93974 0.923211 7.68307 1.15788C7.4264 1.39254 7.29807 1.74821 7.29807 2.22488H6.50607C6.50607 1.60154 6.70407 1.09188 7.10007 0.695878C7.49607 0.299877 8.01674 0.101877 8.66207 0.101877C9.3074 0.101877 9.82807 0.296211 10.2241 0.684878C10.6201 1.06621 10.8181 1.57588 10.8181 2.21388C10.8181 2.51454 10.7704 2.78221 10.6751 3.01688C10.5797 3.25154 10.4184 3.51188 10.1911 3.79788L7.45207 7.29588H10.8181V7.99988Z" fill="#BDBDBD"/>
</svg>
