<svg width="70" height="50" viewBox="0 0 70 50" fill="none" xmlns="http://www.w3.org/2000/svg">
<path d="M59.7822 44.4532L48.4062 28.7539C50.008 26.9092 51.2966 24.7049 52.1386 22.1968C52.2484 21.869 52.3364 21.5395 52.4234 21.21L52.4814 20.9907C52.6396 20.4006 52.3197 19.785 51.7663 19.6162C51.2154 19.4463 50.6361 19.7883 50.4784 20.3794L50.4179 20.6074C50.3442 20.8875 50.2709 21.1676 50.1773 21.4461C49.4745 23.5395 48.4135 25.3869 47.1068 26.9608L40.6827 18.0954C41.2284 16.6348 41.2755 15.041 40.7664 13.5545C40.3433 12.2867 39.5626 11.2265 38.5399 10.4687L40.695 5.58583C40.9402 5.03052 40.7169 4.36773 40.1966 4.10609C39.6778 3.84499 39.0552 4.0822 38.8101 4.63806L36.6533 9.52443C36.1368 9.37292 35.6074 9.28552 35.0685 9.28552C32.7247 9.28552 30.5685 10.7419 29.5685 12.9986C28.881 14.555 28.8081 16.3004 29.3602 17.9235C29.3793 17.9806 29.4115 18.0292 29.432 18.0855L10.2207 44.3316C9.86673 44.8158 9.9471 45.5144 10.4003 45.8922C10.591 46.0507 10.8168 46.1278 11.0411 46.1278C11.3504 46.1278 11.6571 45.9812 11.8626 45.7006L23.1913 30.2234C24.9073 31.816 26.8406 33.0539 28.9809 33.8627C30.9843 34.6205 33.0316 34.9798 35.0462 34.9798C39.4143 34.9798 43.6197 33.2797 46.8904 30.2967L58.1343 45.8135C58.3397 46.0969 58.6475 46.2451 58.9587 46.2451C59.1815 46.2451 59.4058 46.1691 59.5955 46.0127C60.0508 45.6371 60.1342 44.939 59.7822 44.4532ZM29.6767 31.7674C27.7507 31.0389 26.0128 29.9178 24.4741 28.4709L30.5996 20.1024C31.1269 20.7083 31.7658 21.2079 32.4956 21.5699C33.3081 21.9812 34.1727 22.1813 35.0581 22.1813C36.7674 22.1813 38.3714 21.4002 39.5055 20.1054L45.6166 28.5389C41.3825 32.453 35.3345 33.906 29.6767 31.7674Z" fill="#4F4F4F"/>
</svg>
