<svg width="13" height="13" viewBox="0 0 13 13" fill="none" xmlns="http://www.w3.org/2000/svg">
<path d="M11.995 0.335006C12.18 0.149988 12.48 0.149992 12.665 0.335013C12.85 0.520032 12.85 0.820002 12.665 1.00501L1.00477 12.6648C0.81986 12.8497 0.520084 12.8497 0.335114 12.6649C0.150054 12.4799 0.150004 12.18 0.335002 11.995L11.995 0.335006Z" fill="#828282"/>
<path d="M0.33488 0.335365C0.519941 0.150167 0.82011 0.150108 1.00524 0.335234L12.665 11.9945C12.85 12.1795 12.8501 12.4795 12.6651 12.6646C12.4801 12.8498 12.1799 12.8499 11.9948 12.6648L0.335012 1.00549C0.149971 0.820459 0.149912 0.520471 0.33488 0.335365Z" fill="#828282"/>
</svg>
