<svg width="70" height="50" viewBox="0 0 70 50" fill="none" xmlns="http://www.w3.org/2000/svg">
<path d="M35 5.76855C26.4221 5.76855 18.5512 8.86637 12.4116 13.8661C12.1907 14.0477 12.046 14.3164 12.0092 14.6128C11.9724 14.9093 12.0467 15.2093 12.2156 15.4469C12.3846 15.6845 12.6344 15.8402 12.91 15.8797C13.1857 15.9192 13.4647 15.8394 13.6856 15.6577C19.4714 10.9461 26.8902 8.01689 35 8.01689C43.1098 8.01689 50.5286 10.9461 56.3144 15.6577C56.5353 15.8394 56.8143 15.9192 57.09 15.8797C57.3656 15.8402 57.6154 15.6845 57.7844 15.4469C57.9533 15.2093 58.0275 14.9093 57.9908 14.6128C57.954 14.3164 57.8093 14.0477 57.5884 13.8661C51.4488 8.86637 43.5778 5.76855 35 5.76855ZM35 16.4481C28.8533 16.4481 23.1223 18.4491 18.6671 22.3149C18.5439 22.4004 18.4387 22.5128 18.3585 22.6449C18.2783 22.777 18.2248 22.9257 18.2016 23.0815C18.1783 23.2372 18.1858 23.3965 18.2235 23.549C18.2613 23.7014 18.3284 23.8436 18.4206 23.9663C18.5128 24.089 18.628 24.1895 18.7587 24.2612C18.8893 24.3328 19.0326 24.3742 19.1791 24.3824C19.3255 24.3907 19.472 24.3657 19.6089 24.3091C19.7458 24.2524 19.8701 24.1655 19.9738 24.0538C24.0217 20.5414 29.2751 18.6965 35 18.6965C40.7249 18.6965 45.9783 20.5414 50.0262 24.0538C50.1299 24.1655 50.2542 24.2524 50.3911 24.3091C50.528 24.3657 50.6744 24.3907 50.8209 24.3824C50.9674 24.3742 51.1107 24.3328 51.2413 24.2612C51.372 24.1895 51.4872 24.089 51.5794 23.9663C51.6716 23.8436 51.7387 23.7014 51.7765 23.549C51.8142 23.3965 51.8217 23.2372 51.7984 23.0815C51.7752 22.9257 51.7217 22.777 51.6415 22.6449C51.5613 22.5128 51.4561 22.4004 51.3329 22.3149C46.8777 18.4491 41.1467 16.4481 35 16.4481ZM35 26.5656C31.2465 26.5656 27.6812 27.8298 24.9389 30.1665C24.7216 30.3533 24.5819 30.6251 24.5504 30.9225C24.519 31.2198 24.5983 31.5184 24.7711 31.753C24.9439 31.9876 25.196 32.139 25.4723 32.1742C25.7487 32.2093 26.0267 32.1253 26.2456 31.9405C28.5865 29.9458 31.6893 28.8139 35 28.8139C38.3107 28.8139 41.4135 29.9458 43.7544 31.9405C43.9733 32.1253 44.2513 32.2093 44.5277 32.1742C44.804 32.139 45.0561 31.9876 45.2289 31.753C45.4017 31.5184 45.481 31.2198 45.4496 30.9225C45.4181 30.6251 45.2784 30.3533 45.061 30.1665C42.3188 27.8298 38.7535 26.5656 35 26.5656ZM35 37.2452C33.2681 37.2452 31.8641 38.7551 31.8641 40.6177C31.8641 42.4803 33.2681 43.9902 35 43.9902C36.7319 43.9902 38.1359 42.4803 38.1359 40.6177C38.1359 38.7551 36.7319 37.2452 35 37.2452Z" fill="#4F4F4F"/>
</svg>
