<?xml version="1.0" encoding="UTF-8"?>
<svg viewBox="0 0 600 600" xmlns="http://www.w3.org/2000/svg">
  <!-- Background -->
  <rect width="600" height="600" fill="#f8f8f8"/>
  
  <!-- Hair -->
  <path d="M320 120 C 380 120, 390 180, 390 230 C 390 270, 370 310, 360 330 C 350 350, 340 370, 340 400 L 260 400 C 260 370, 250 350, 240 330 C 230 310, 210 270, 210 230 C 210 180, 220 120, 280 120 Z" fill="#5b3a29"/>
  
  <!-- Face -->
  <ellipse cx="300" cy="230" rx="70" ry="85" fill="#fedcbd"/>
  
  <!-- Eyes -->
  <ellipse cx="270" cy="215" rx="8" ry="5" fill="#333"/>
  <ellipse cx="330" cy="215" rx="8" ry="5" fill="#333"/>
  
  <!-- Eyebrows -->
  <path d="M260 205 C 270 200, 280 200, 290 205" stroke="#5b3a29" stroke-width="2" fill="none"/>
  <path d="M320 205 C 330 200, 340 200, 350 205" stroke="#5b3a29" stroke-width="2" fill="none"/>
  
  <!-- Nose -->
  <path d="M300 225 C 302 235, 305 240, 300 245" stroke="#e6b8a2" stroke-width="2" fill="none"/>
  
  <!-- Mouth -->
  <path d="M280 260 C 290 270, 310 270, 320 260" stroke="#d35f5f" stroke-width="3" fill="none"/>
  
  <!-- Neck -->
  <path d="M280 310 C 280 330, 290 350, 290 380 L 310 380 C 310 350, 320 330, 320 310" fill="#fedcbd"/>
  
  <!-- Body/Dress -->
  <path d="M230 400 C 230 450, 240 500, 250 550 L 350 550 C 360 500, 370 450, 370 400 L 320 380 L 280 380 Z" fill="#a1c7e0"/>
  
  <!-- Left arm (holding wine glass) -->
  <path d="M230 400 C 210 410, 190 420, 170 440 C 160 450, 150 470, 160 480 C 170 490, 180 470, 185 460" fill="#fedcbd"/>
  <path d="M185 460 C 190 450, 195 440, 200 450" fill="#fedcbd"/>
  
  <!-- Right arm -->
  <path d="M370 400 C 390 420, 400 440, 410 470" stroke="#fedcbd" stroke-width="30" stroke-linecap="round"/>
  
  <!-- Wine Glass -->
  <path d="M160 430 L 140 500 L 180 500 Z" fill="none" stroke="#dddddd" stroke-width="2"/>
  <ellipse cx="160" cy="430" rx="20" ry="10" fill="none" stroke="#dddddd" stroke-width="2"/>
  <path d="M140 500 L 180 500" stroke="#dddddd" stroke-width="2"/>
  <rect x="155" y="500" width="10" height="20" fill="#dddddd"/>
  <ellipse cx="160" cy="520" rx="10" ry="3" fill="#dddddd"/>
  
  <!-- Wine in glass -->
  <path d="M145 450 L 175 450" stroke="#9e2b25" stroke-width="15" stroke-linecap="round"/>
</svg>