<svg width="24" height="24" viewBox="0 0 24 24" fill="none" xmlns="http://www.w3.org/2000/svg">
<path d="M18 3H6C4.3 3 3 4.29178 3 5.98104V17.9052C3 19.5944 4.3 20.8862 6 20.8862H18C19.7 20.8862 21 19.5944 21 17.9052V5.98104C21 4.29178 19.7 3 18 3ZM12 8.96208C13.7 8.96208 15 10.2539 15 11.9431C15 13.6324 13.7 14.9242 12 14.9242C10.3 14.9242 9 13.6324 9 11.9431C9 10.2539 10.3 8.96208 12 8.96208ZM15.8 6.97472C15.8 6.27914 16.4 5.7823 17 5.7823C17.6 5.7823 18.2 6.37851 18.2 6.97472C18.2 7.57093 17.7 8.16713 17 8.16713C16.3 8.16713 15.8 7.67029 15.8 6.97472ZM18 18.8989H6C5.4 18.8989 5 18.5014 5 17.9052V11.9431H7C7 14.7254 9.2 16.9115 12 16.9115C14.8 16.9115 17 14.7254 17 11.9431H19V17.9052C19 18.5014 18.6 18.8989 18 18.8989Z" fill="#4F4F4F"/>
</svg>
