<?xml version="1.0" encoding="UTF-8"?>
<svg xmlns="http://www.w3.org/2000/svg" xmlns:xlink="http://www.w3.org/1999/xlink" viewBox="0 0 24 24" width="24px" height="24px">
<g id="surface43159097">
<path style=" stroke:none;fill-rule:nonzero;fill:rgb(48.627451%,48.627451%,48.627451%);fill-opacity:1;" d="M 16.402344 9 L 14 9 L 14 7 C 14 5.96875 14.085938 5.316406 15.5625 5.316406 L 16.429688 5.316406 C 16.984375 5.316406 17.429688 4.871094 17.429688 4.316406 L 17.429688 3.0625 C 17.429688 2.539062 17.03125 2.09375 16.507812 2.058594 C 15.902344 2.019531 15.300781 2 14.691406 2 C 11.980469 2 10 3.65625 10 6.699219 L 10 9 L 8 9 C 7.449219 9 7 9.449219 7 10 L 7 12 C 7 12.550781 7.449219 13 8 13 L 10 13 L 10 21 C 10 21.550781 10.449219 22 11 22 L 13 22 C 13.550781 22 14 21.550781 14 21 L 14 12.996094 L 16.175781 12.996094 C 16.683594 12.996094 17.109375 12.613281 17.167969 12.109375 L 17.394531 10.113281 C 17.464844 9.519531 17 9 16.402344 9 Z M 16.402344 9 "/>
</g>
</svg>
