<svg width="24" height="27" viewBox="0 0 24 27" fill="none" xmlns="http://www.w3.org/2000/svg">
<path d="M15.6344 4.50027L16.2291 4.70091L16.2307 4.68499C18.5393 5.52605 20.5064 7.10649 21.815 9.18372C23.2318 11.4328 23.7816 14.1134 23.3639 16.7321C22.9461 19.3508 21.5887 21.7326 19.5402 23.4386C17.4917 25.1446 14.8902 26.0597 12.2145 26.0144C9.53884 25.9692 6.97031 24.9667 4.98167 23.1925C2.99312 21.4184 1.71828 18.9922 1.39073 16.3609C1.06319 13.7296 1.70479 11.0691 3.19812 8.86915C4.69152 6.66906 6.9365 5.07723 9.52048 4.38781L9.52052 4.38796L9.5322 4.38453C10.9916 3.95685 11.9691 2.59832 11.9726 1.13899C12.5413 1.4669 13.0357 1.9128 13.42 2.44956C13.4866 2.54271 13.5525 2.63854 13.6194 2.73569C14.0839 3.41024 14.5924 4.14872 15.6344 4.50027ZM8.37139 21.3122C9.44411 22.3763 10.8982 22.9734 12.4135 22.9734C13.9288 22.9734 15.3829 22.3763 16.4556 21.3122C17.5284 20.248 18.1319 18.8038 18.1319 17.297C18.1319 15.7902 17.5284 14.346 16.4556 13.2817C15.3829 12.2177 13.9288 11.6206 12.4135 11.6206C10.8982 11.6206 9.44411 12.2177 8.37139 13.2817C7.29853 14.346 6.69508 15.7902 6.69508 17.297C6.69508 18.8038 7.29853 20.248 8.37139 21.3122Z" fill="black" stroke="black"/>
</svg>
