<svg width="24" height="25" viewBox="0 0 24 25" fill="none" xmlns="http://www.w3.org/2000/svg">
<g id="Frame 2">
<path id="Vector" d="M18 3.25781H6C4.3 3.25781 3 4.5496 3 6.23885V18.163C3 19.8523 4.3 21.144 6 21.144H18C19.7 21.144 21 19.8523 21 18.163V6.23885C21 4.5496 19.7 3.25781 18 3.25781ZM12 9.21989C13.7 9.21989 15 10.5117 15 12.2009C15 13.8902 13.7 15.182 12 15.182C10.3 15.182 9 13.8902 9 12.2009C9 10.5117 10.3 9.21989 12 9.21989ZM15.8 7.23253C15.8 6.53695 16.4 6.04012 17 6.04012C17.6 6.04012 18.2 6.63632 18.2 7.23253C18.2 7.82874 17.7 8.42495 17 8.42495C16.3 8.42495 15.8 7.92811 15.8 7.23253ZM18 19.1567H6C5.4 19.1567 5 18.7592 5 18.163V12.2009H7C7 14.9832 9.2 17.1693 12 17.1693C14.8 17.1693 17 14.9832 17 12.2009H19V18.163C19 18.7592 18.6 19.1567 18 19.1567Z" fill="#4F4F4F"/>
</g>
</svg>
