<svg width="24.000000" height="24.000000" viewBox="0 0 24 24" fill="none" xmlns="http://www.w3.org/2000/svg" xmlns:xlink="http://www.w3.org/1999/xlink">
	<desc>
			Created with Pixso.
	</desc>
	<defs>
		<clipPath id="clip41497_463">
			<rect id="Icon-Close" width="24.000000" height="24.000000" fill="white" fill-opacity="0"/>
		</clipPath>
	</defs>
	<rect id="Icon-Close" width="24.000000" height="24.000000" fill="#FFFFFF" fill-opacity="0"/>
	<g clip-path="url(#clip41497_463)">
		<path id="Vector" d="M19.1943 6.41724C19.6393 5.97217 19.6393 5.25073 19.1943 4.80566C18.7493 4.36084 18.0278 4.36084 17.5829 4.80566L12 10.3887L6.41711 4.80566C5.97217 4.36084 5.25073 4.36084 4.80566 4.80566C4.36072 5.25073 4.36072 5.97217 4.80566 6.41724L10.3885 12L4.80566 17.5828C4.36072 18.0278 4.36072 18.7493 4.80566 19.1943C5.25073 19.6392 5.97217 19.6392 6.41711 19.1943L12 13.6113L17.5829 19.1943C18.0278 19.6392 18.7493 19.6392 19.1943 19.1943C19.6393 18.7493 19.6393 18.0278 19.1943 17.5828L13.6115 12L19.1943 6.41724Z" fill="#1B2129" fill-opacity="1.000000" fill-rule="nonzero"/>
	</g>
</svg>
