<svg width="162" height="25" viewBox="0 0 162 25" fill="none" xmlns="http://www.w3.org/2000/svg">
<mask id="path-1-inside-1_41498_96" fill="white">
<path fill-rule="evenodd" clip-rule="evenodd" d="M7.28345 19.1783C4.53576 19.1783 2.65849 16.9504 2.65849 14.0513C2.65849 11.1213 4.58624 8.88179 7.32847 8.88179C8.53723 8.88179 9.81148 9.31549 10.7883 10.037L11.8879 8.38485C10.6137 7.33287 8.82919 6.75202 7.13747 6.75202C3.14964 6.75202 0.125 9.92086 0.125 14.1055C0.125 18.2102 3.05414 21.3377 7.05015 21.3377C8.75552 21.3377 10.6519 20.762 11.907 19.7281L10.7883 18.0334C9.85787 18.7136 8.53723 19.1783 7.28208 19.1783H7.28345ZM25.7969 11.3588C25.7969 8.80435 24.0001 6.94564 20.91 6.94564H15.9876V21.1312H18.4434V15.8132H20.483L23.438 21.1364H26.3467L22.9906 15.4699C24.7573 14.8155 25.7983 13.2924 25.7983 11.3588H25.7969ZM34.1873 6.94564L29.2076 21.126H31.7698L32.9267 17.5635H38.2229L39.3935 21.126H42.0893L37.0414 6.94822H34.1764L34.1873 6.94564ZM55.207 8.70109V6.95467H45.324V9.01733H52.0705L45.0798 19.4184V21.1377H55.312V19.0505H48.1904L55.2302 8.70496L55.207 8.70109ZM64.7093 12.8871L61.2985 6.95338H58.4472L63.4132 15.2311V21.1299H65.8826V15.2182L70.9455 6.94564H68.2769L64.7106 12.8832L64.7093 12.8871ZM81.8585 13.628C82.9362 13.06 83.5502 12.0313 83.5502 10.6334C83.5502 8.30998 81.8721 6.95467 79.0753 6.95467H74.4367V21.1338H79.8529C82.5952 21.1338 84.4233 19.4687 84.4233 17.1195C84.4233 15.3227 83.3319 14.0436 81.8312 13.628H81.8585ZM92.8969 6.95467L87.9173 21.1338H90.4767L91.6363 17.5713H96.9298L98.1031 21.1338H100.804L95.7661 6.95467H92.9106H92.8969ZM112.657 13.628C113.738 13.06 114.359 12.0313 114.359 10.6334C114.359 8.30998 112.694 6.95467 109.884 6.95467H105.245V21.1338H110.675C113.417 21.1338 115.259 19.4687 115.259 17.1195C115.259 15.3227 114.168 14.0436 112.681 13.628H112.657ZM124.295 12.8871L120.898 6.95467H118.033L122.999 15.2324V21.1351H125.475V15.2195L130.523 6.95467H127.862L124.288 12.8883L124.295 12.8871ZM107.702 9.03411H109.585C110.963 9.03411 111.9 9.5659 111.9 10.8696C111.9 12.221 110.932 12.8574 109.704 12.8574H107.698V9.03411H107.702ZM110.315 19.0427H107.7V14.8477H110.138C111.702 14.8477 112.73 15.5189 112.73 16.9517C112.73 18.3844 111.702 19.0427 110.312 19.0427H110.315ZM92.283 15.5615L94.2749 9.46135L96.294 15.5538H92.283V15.5615ZM76.902 9.03411H78.7847C80.1626 9.03411 81.0985 9.5659 81.0985 10.8696C81.0985 12.221 80.1299 12.8574 78.9075 12.8574H76.902V9.03411ZM79.5146 19.0427H76.9088V14.8477H79.3509C80.9198 14.8477 81.943 15.5189 81.943 16.9517C81.943 18.3844 80.9198 19.0427 79.5282 19.0427H79.5146ZM33.5788 15.5615L35.5707 9.46135L37.5899 15.5538H33.5788V15.5615ZM20.5894 13.7157H18.4475V9.04314H20.5894C22.2361 9.04314 23.3043 9.83438 23.3043 11.3923C23.3043 12.8806 22.3357 13.7131 20.5894 13.7131V13.7157ZM152.919 3.54962C151.916 3.22693 151.522 2.52991 150.952 1.76836C150.338 0.950591 149.471 0.332819 148.471 0C148.943 1.44566 148.04 3.0075 146.516 3.43345C143.817 4.12041 141.471 5.70683 139.909 7.90067C138.348 10.0945 137.677 12.7481 138.019 15.373C138.362 17.9978 139.695 20.4173 141.774 22.1859C143.852 23.9546 146.536 24.9533 149.331 24.9984C152.126 25.0435 154.844 24.1318 156.985 22.4312C159.126 20.7306 160.546 18.3555 160.982 15.7432C161.419 13.131 160.844 10.4573 159.363 8.21435C157.881 5.97145 155.594 4.3103 152.92 3.53671L152.919 3.54962ZM149.538 21.1441C148.154 21.1441 146.827 20.624 145.848 19.698C144.87 18.7721 144.32 17.5163 144.32 16.2069C144.32 14.8975 144.87 13.6417 145.848 12.7158C146.827 11.7899 148.154 11.2697 149.538 11.2697C150.922 11.2697 152.25 11.7899 153.228 12.7158C154.207 13.6417 154.757 14.8975 154.757 16.2069C154.757 17.5163 154.207 18.7721 153.228 19.698C152.25 20.624 150.922 21.1441 149.538 21.1441Z"/>
</mask>
<path fill-rule="evenodd" clip-rule="evenodd" d="M7.28345 19.1783C4.53576 19.1783 2.65849 16.9504 2.65849 14.0513C2.65849 11.1213 4.58624 8.88179 7.32847 8.88179C8.53723 8.88179 9.81148 9.31549 10.7883 10.037L11.8879 8.38485C10.6137 7.33287 8.82919 6.75202 7.13747 6.75202C3.14964 6.75202 0.125 9.92086 0.125 14.1055C0.125 18.2102 3.05414 21.3377 7.05015 21.3377C8.75552 21.3377 10.6519 20.762 11.907 19.7281L10.7883 18.0334C9.85787 18.7136 8.53723 19.1783 7.28208 19.1783H7.28345ZM25.7969 11.3588C25.7969 8.80435 24.0001 6.94564 20.91 6.94564H15.9876V21.1312H18.4434V15.8132H20.483L23.438 21.1364H26.3467L22.9906 15.4699C24.7573 14.8155 25.7983 13.2924 25.7983 11.3588H25.7969ZM34.1873 6.94564L29.2076 21.126H31.7698L32.9267 17.5635H38.2229L39.3935 21.126H42.0893L37.0414 6.94822H34.1764L34.1873 6.94564ZM55.207 8.70109V6.95467H45.324V9.01733H52.0705L45.0798 19.4184V21.1377H55.312V19.0505H48.1904L55.2302 8.70496L55.207 8.70109ZM64.7093 12.8871L61.2985 6.95338H58.4472L63.4132 15.2311V21.1299H65.8826V15.2182L70.9455 6.94564H68.2769L64.7106 12.8832L64.7093 12.8871ZM81.8585 13.628C82.9362 13.06 83.5502 12.0313 83.5502 10.6334C83.5502 8.30998 81.8721 6.95467 79.0753 6.95467H74.4367V21.1338H79.8529C82.5952 21.1338 84.4233 19.4687 84.4233 17.1195C84.4233 15.3227 83.3319 14.0436 81.8312 13.628H81.8585ZM92.8969 6.95467L87.9173 21.1338H90.4767L91.6363 17.5713H96.9298L98.1031 21.1338H100.804L95.7661 6.95467H92.9106H92.8969ZM112.657 13.628C113.738 13.06 114.359 12.0313 114.359 10.6334C114.359 8.30998 112.694 6.95467 109.884 6.95467H105.245V21.1338H110.675C113.417 21.1338 115.259 19.4687 115.259 17.1195C115.259 15.3227 114.168 14.0436 112.681 13.628H112.657ZM124.295 12.8871L120.898 6.95467H118.033L122.999 15.2324V21.1351H125.475V15.2195L130.523 6.95467H127.862L124.288 12.8883L124.295 12.8871ZM107.702 9.03411H109.585C110.963 9.03411 111.9 9.5659 111.9 10.8696C111.9 12.221 110.932 12.8574 109.704 12.8574H107.698V9.03411H107.702ZM110.315 19.0427H107.7V14.8477H110.138C111.702 14.8477 112.73 15.5189 112.73 16.9517C112.73 18.3844 111.702 19.0427 110.312 19.0427H110.315ZM92.283 15.5615L94.2749 9.46135L96.294 15.5538H92.283V15.5615ZM76.902 9.03411H78.7847C80.1626 9.03411 81.0985 9.5659 81.0985 10.8696C81.0985 12.221 80.1299 12.8574 78.9075 12.8574H76.902V9.03411ZM79.5146 19.0427H76.9088V14.8477H79.3509C80.9198 14.8477 81.943 15.5189 81.943 16.9517C81.943 18.3844 80.9198 19.0427 79.5282 19.0427H79.5146ZM33.5788 15.5615L35.5707 9.46135L37.5899 15.5538H33.5788V15.5615ZM20.5894 13.7157H18.4475V9.04314H20.5894C22.2361 9.04314 23.3043 9.83438 23.3043 11.3923C23.3043 12.8806 22.3357 13.7131 20.5894 13.7131V13.7157ZM152.919 3.54962C151.916 3.22693 151.522 2.52991 150.952 1.76836C150.338 0.950591 149.471 0.332819 148.471 0C148.943 1.44566 148.04 3.0075 146.516 3.43345C143.817 4.12041 141.471 5.70683 139.909 7.90067C138.348 10.0945 137.677 12.7481 138.019 15.373C138.362 17.9978 139.695 20.4173 141.774 22.1859C143.852 23.9546 146.536 24.9533 149.331 24.9984C152.126 25.0435 154.844 24.1318 156.985 22.4312C159.126 20.7306 160.546 18.3555 160.982 15.7432C161.419 13.131 160.844 10.4573 159.363 8.21435C157.881 5.97145 155.594 4.3103 152.92 3.53671L152.919 3.54962ZM149.538 21.1441C148.154 21.1441 146.827 20.624 145.848 19.698C144.87 18.7721 144.32 17.5163 144.32 16.2069C144.32 14.8975 144.87 13.6417 145.848 12.7158C146.827 11.7899 148.154 11.2697 149.538 11.2697C150.922 11.2697 152.25 11.7899 153.228 12.7158C154.207 13.6417 154.757 14.8975 154.757 16.2069C154.757 17.5163 154.207 18.7721 153.228 19.698C152.25 20.624 150.922 21.1441 149.538 21.1441Z" fill="black" stroke="black" stroke-width="2" mask="url(#path-1-inside-1_41498_96)"/>
</svg>
