<svg width="161.000000" height="26.000000" viewBox="0 0 161 26" fill="none" xmlns="http://www.w3.org/2000/svg" xmlns:xlink="http://www.w3.org/1999/xlink">
	<desc>
			Created with Pixso.
	</desc>
	<defs/>
	<path id="Vector" d="M7.15845 19.9453C4.41077 19.9453 2.53351 17.6284 2.53351 14.6133C2.53351 11.5662 4.46124 9.23706 7.20349 9.23706C8.41223 9.23706 9.68646 9.68823 10.6633 10.4385L11.7629 8.72021C10.4887 7.62622 8.70416 7.02222 7.01245 7.02222C3.02466 7.02222 0 10.3176 0 14.6697C0 18.9387 2.92914 22.1912 6.92517 22.1912C8.63049 22.1912 10.5269 21.5925 11.782 20.5173L10.6633 18.7546C9.73285 19.4622 8.41223 19.9453 7.1571 19.9453L7.15845 19.9453ZM25.6719 11.8132C25.6719 9.15649 23.8751 7.22339 20.785 7.22339L15.8626 7.22339L15.8626 21.9766L18.3184 21.9766L18.3184 16.4458L20.358 16.4458L23.313 21.9819L26.2217 21.9819L22.8655 16.0886C24.6323 15.4082 25.6733 13.824 25.6733 11.8132L25.6719 11.8132ZM34.0623 7.22339L29.0826 21.9712L31.6448 21.9712L32.8017 18.2661L38.0979 18.2661L39.2684 21.9712L41.9643 21.9712L36.9164 7.22607L34.0514 7.22607L34.0623 7.22339ZM55.082 9.04907L55.082 7.23291L45.199 7.23291L45.199 9.37793L51.9455 9.37793L44.9548 20.1951L44.9548 21.9832L55.187 21.9832L55.187 19.8125L48.0654 19.8125L55.1052 9.05322L55.082 9.04907ZM64.5843 13.4026L61.1735 7.23145L58.3222 7.23145L63.2882 15.8403L63.2882 21.9751L65.7576 21.9751L65.7576 15.8269L70.8204 7.22339L68.1519 7.22339L64.5856 13.3984L64.5843 13.4026ZM81.7335 14.1731C82.8112 13.5825 83.4252 12.5125 83.4252 11.0586C83.4252 8.64233 81.7471 7.23291 78.9503 7.23291L74.3117 7.23291L74.3117 21.9792L79.7279 21.9792C82.4702 21.9792 84.2983 20.2476 84.2983 17.8042C84.2983 15.9355 83.2069 14.6052 81.7062 14.1731L81.7335 14.1731ZM92.772 7.23291L87.7923 21.9792L90.3517 21.9792L91.5114 18.2742L96.8048 18.2742L97.9781 21.9792L100.679 21.9792L95.6411 7.23291L92.7856 7.23291L92.772 7.23291ZM112.532 14.1731C113.613 13.5825 114.234 12.5125 114.234 11.0586C114.234 8.64233 112.569 7.23291 109.759 7.23291L105.12 7.23291L105.12 21.9792L110.55 21.9792C113.292 21.9792 115.134 20.2476 115.134 17.8042C115.134 15.9355 114.043 14.6052 112.556 14.1731L112.532 14.1731ZM124.17 13.4026L120.773 7.23291L117.908 7.23291L122.874 15.8418L122.874 21.9805L125.35 21.9805L125.35 15.8284L130.398 7.23291L127.737 7.23291L124.163 13.4038L124.17 13.4026ZM107.577 9.39551L109.46 9.39551C110.838 9.39551 111.775 9.94849 111.775 11.3044C111.775 12.71 110.807 13.3716 109.579 13.3716L107.573 13.3716L107.573 9.39551L107.577 9.39551ZM110.19 19.8044L107.575 19.8044L107.575 15.4417L110.013 15.4417C111.577 15.4417 112.605 16.1396 112.605 17.6299C112.605 19.1199 111.577 19.8044 110.187 19.8044L110.19 19.8044ZM92.158 16.1841L94.1499 9.83984L96.1691 16.176L92.158 16.176L92.158 16.1841ZM76.777 9.39551L78.6597 9.39551C80.0376 9.39551 80.9735 9.94849 80.9735 11.3044C80.9735 12.71 80.0049 13.3716 78.7825 13.3716L76.777 13.3716L76.777 9.39551ZM79.3896 19.8044L76.7838 19.8044L76.7838 15.4417L79.2259 15.4417C80.7948 15.4417 81.8181 16.1396 81.8181 17.6299C81.8181 19.1199 80.7948 19.8044 79.4033 19.8044L79.3896 19.8044ZM33.4539 16.1841L35.4457 9.83984L37.4648 16.176L33.4539 16.176L33.4539 16.1841ZM20.4644 14.2644L18.3224 14.2644L18.3224 9.40479L20.4644 9.40479C22.1111 9.40479 23.1793 10.2278 23.1793 11.8481C23.1793 13.3958 22.2107 14.2617 20.4644 14.2617L20.4644 14.2644ZM152.794 3.69165C151.791 3.35596 151.397 2.6311 150.827 1.83911C150.213 0.988525 149.346 0.346191 148.346 0C148.818 1.50342 147.915 3.12769 146.391 3.5708C143.692 4.28516 141.346 5.93506 139.784 8.2168C138.223 10.4983 137.552 13.2581 137.894 15.9878C138.237 18.7178 139.57 21.2339 141.649 23.0732C143.727 24.9128 146.411 25.9514 149.206 25.9983C152.001 26.0452 154.719 25.0972 156.86 23.3284C159.001 21.5598 160.421 19.0898 160.857 16.373C161.294 13.6562 160.719 10.8755 159.238 8.54297C157.756 6.21021 155.469 4.48267 152.795 3.67822L152.794 3.69165ZM149.413 21.99C148.029 21.99 146.702 21.449 145.723 20.4861C144.745 19.5229 144.195 18.217 144.195 16.8552C144.195 15.4934 144.745 14.1873 145.723 13.2244C146.702 12.2615 148.029 11.7205 149.413 11.7205C150.797 11.7205 152.125 12.2615 153.103 13.2244C154.082 14.1873 154.632 15.4934 154.632 16.8552C154.632 18.217 154.082 19.5229 153.103 20.4861C152.125 21.449 150.797 21.99 149.413 21.99Z" fill="#000000" fill-opacity="1.000000" fill-rule="evenodd"/>
	<path id="Vector" d="M151.845 3.13428C151.454 2.77515 151.173 2.31958 150.827 1.83911C150.457 1.32739 149.997 0.890869 149.47 0.549072C149.122 0.322754 148.745 0.137939 148.346 0C148.464 0.373291 148.496 0.753906 148.455 1.12207C148.332 2.23706 147.537 3.23779 146.391 3.5708C143.692 4.28516 141.346 5.93506 139.784 8.2168C138.223 10.4983 137.552 13.2581 137.894 15.9878C138.237 18.7178 139.57 21.2339 141.649 23.0732C143.727 24.9128 146.411 25.9514 149.206 25.9983C152.001 26.0452 154.719 25.0972 156.86 23.3284C159.001 21.5598 160.421 19.0898 160.857 16.373C161.294 13.6562 160.719 10.8755 159.238 8.54297C157.939 6.49805 156.021 4.91821 153.766 4.01733C153.45 3.89111 153.127 3.77808 152.798 3.67896L152.795 3.67822L152.794 3.69165L152.792 3.69067C152.398 3.55884 152.099 3.3667 151.845 3.13428ZM153.486 4.97778L152.477 4.63989Q151.289 4.24243 150.219 2.71191Q150.085 2.52026 150.016 2.42432L150.015 2.42334Q149.728 2.02637 149.373 1.71802Q149.251 2.19702 148.994 2.66504Q148.595 3.38965 147.997 3.86108Q147.425 4.31177 146.671 4.53101L146.659 4.53442L146.647 4.5376Q144.648 5.06665 143.089 6.20166Q141.665 7.23877 140.609 8.78149Q139.483 10.4282 139.057 12.2397Q138.65 13.9758 138.887 15.8633Q139.119 17.7183 139.92 19.283Q140.784 20.9731 142.311 22.3245Q143.736 23.5857 145.4 24.2524Q147.175 24.9641 149.223 24.9985Q151.265 25.0327 153.061 24.384Q154.751 23.7732 156.223 22.5574Q157.799 21.2559 158.722 19.592Q159.574 18.0571 159.87 16.2141Q160.173 14.3301 159.823 12.5764Q159.46 10.7576 158.394 9.0791Q157.393 7.50342 156.008 6.41992Q154.875 5.53467 153.486 4.97778ZM30.1381 21.9712L29.0826 21.9712L29.4203 20.9712L33.9648 7.51196L34.0556 7.24341L34.0614 7.22607L36.9164 7.22607L41.6219 20.9712L41.9643 21.9712L39.2684 21.9712L38.0979 18.2661L32.8017 18.2661L31.6448 21.9712L30.1381 21.9712ZM30.4758 20.9712L30.9094 20.9712L32.0663 17.2661L38.8307 17.2661L40.0012 20.9712L40.5649 20.9712L36.2018 8.22607L35.981 8.22607L36.3985 9.53613L38.8331 17.176L33.4539 17.176L33.4539 16.3374L32.4539 16.1841L32.4539 15.176L32.7222 15.176L34.9042 8.22607L34.7792 8.22607L30.4758 20.9712ZM33.7703 15.176L33.4564 16.176L33.4539 16.176L33.4539 16.1841L33.4564 16.176L34.4539 16.176L34.5045 16.176L37.4648 16.176L37.1462 15.176L35.9737 11.4966L35.4457 9.83984L34.9248 11.4988L33.7703 15.176ZM34.0514 7.22607L34.0614 7.22607L34.0623 7.22339L34.0514 7.22607ZM20.358 16.4458L23.313 21.9819L26.2217 21.9819L25.6522 20.9819L23.3653 16.9661L22.8655 16.0886C23.1868 15.9648 23.4841 15.8113 23.7555 15.6306C24.7191 14.9893 25.3562 14.0073 25.582 12.8132C25.6423 12.4941 25.6733 12.1599 25.6733 11.8132L25.6719 11.8132C25.6719 9.15649 23.8751 7.22339 20.785 7.22339L15.8626 7.22339L15.8626 21.9766L16.8626 21.9766L17.3184 21.9766L18.3184 21.9766L18.3184 16.4458L19.3184 16.4458L20.358 16.4458ZM17.3184 20.9766L17.3184 15.4458L20.9578 15.4458L23.9128 20.9819L24.5014 20.9819L21.4213 15.5735L22.5061 15.1555Q23.4604 14.7878 23.9945 14.0959Q24.6428 13.2559 24.6719 11.938L24.6719 11.8132Q24.6719 10.5864 24.1053 9.73779Q23.9255 9.46875 23.6888 9.23779Q23.5848 9.13623 23.4725 9.04492Q22.4629 8.22339 20.785 8.22339L16.8626 8.22339L16.8626 20.9766L17.3184 20.9766ZM7.1571 20.9453L7.15845 20.9453Q8.23022 20.9453 9.20386 20.636Q9.79993 20.4468 10.3593 20.1416L10.4388 20.2671Q10.3956 20.2939 10.352 20.3201Q8.89984 21.1912 6.92517 21.1912Q5.56177 21.1912 4.44714 20.6648Q3.48114 20.2083 2.70197 19.3564Q2.2124 18.821 1.86365 18.2061Q1 16.6826 1 14.6697Q1 12.6653 1.84998 11.1321Q2.21881 10.4666 2.74774 9.88989Q3.58636 8.97559 4.62598 8.50879Q5.70996 8.02222 7.01245 8.02222Q8.56622 8.02222 9.82489 8.63159Q10.131 8.77979 10.4197 8.96411L10.3656 9.04858Q9.70941 8.68506 9.00677 8.48438Q8.14044 8.23706 7.20349 8.23706Q5.9455 8.23706 4.90967 8.7168Q3.88678 9.19043 3.08057 10.1321Q2.67456 10.6062 2.37512 11.1401Q1.53351 12.6406 1.53351 14.6133Q1.53351 16.6113 2.39368 18.1182Q2.677 18.6145 3.05365 19.0576Q3.83539 19.9773 4.82965 20.449Q5.87573 20.9451 7.1571 20.9453ZM11.2041 9.59351L10.6633 10.4385C10.4098 10.2439 10.1363 10.0691 9.84906 9.91748C9.02954 9.48438 8.09851 9.23706 7.20349 9.23706C4.46124 9.23706 2.53351 11.5662 2.53351 14.6133C2.53351 17.6279 4.41016 19.9446 7.1571 19.9453L7.15845 19.9453C8.10059 19.9451 9.07959 19.6726 9.90265 19.2375C10.1757 19.0933 10.4316 18.9309 10.6633 18.7546L11.2009 19.6016L11.782 20.5173C10.5269 21.5925 8.63049 22.1912 6.92517 22.1912C2.92914 22.1912 0 18.9387 0 14.6697C0 10.3176 3.02466 7.02222 7.01245 7.02222C8.70416 7.02222 10.4887 7.62622 11.7629 8.72021L11.2041 9.59351ZM64.0191 12.3799L61.1735 7.23145L58.3222 7.23145L58.899 8.23145L63.2882 15.8403L63.2882 21.9751L64.2882 21.9751L64.7576 21.9751L65.7576 21.9751L65.7576 15.8269L70.232 8.22339L70.8204 7.22339L68.1519 7.22339L65.1677 12.3909L64.5856 13.3984L64.5843 13.4026L64.0191 12.3799ZM65.501 13.8132L65.1182 14.9417L69.0717 8.22339L68.7292 8.22339L65.501 13.8132ZM64.7576 15.7834L60.5837 8.23145L60.0535 8.23145L64.2882 15.5725L64.2882 20.9751L64.7576 20.9751L64.7576 15.7834ZM82.6389 13.4407C83.1479 12.8394 83.4252 12.0356 83.4252 11.0586C83.4252 8.64233 81.7471 7.23291 78.9503 7.23291L74.3117 7.23291L74.3117 21.9792L75.3117 21.9792L79.7279 21.9792C82.4702 21.9792 84.2983 20.2476 84.2983 17.8042C84.2983 16.4214 83.7007 15.3335 82.7817 14.686C82.4589 14.4585 82.0964 14.2854 81.7062 14.1731L81.7335 14.1731C82.0869 13.9795 82.3905 13.7341 82.6389 13.4407ZM81.5995 13.9287L81.3312 13.4392Q81.286 13.4927 81.2376 13.543Q80.4411 14.3716 78.7825 14.3716L75.777 14.3716L75.777 8.39551L78.6597 8.39551Q80.5314 8.39551 81.3459 9.32349Q81.9735 10.0383 81.9735 11.3044Q81.9735 12.3816 81.5799 13.0806Q81.7623 12.9365 81.9054 12.7605Q82.4252 12.1208 82.4252 11.0586Q82.4252 9.93384 81.8745 9.25684Q81.0419 8.23291 78.9503 8.23291L75.3117 8.23291L75.3117 20.9792L79.7279 20.9792Q81.7217 20.9792 82.6022 19.989Q83.2983 19.2063 83.2983 17.8042Q83.2983 16.6035 82.7055 15.9084Q82.4525 15.6116 82.0914 15.407Q82.1062 15.4231 82.1206 15.4392Q82.8181 16.2251 82.8181 17.6299Q82.8181 18.6692 82.3446 19.4031Q82.1143 19.76 81.7719 20.0447Q81.6855 20.1167 81.5942 20.1816Q80.7208 20.8044 79.4033 20.8044L75.7838 20.8044L75.7838 14.4417L79.2259 14.4417Q80.6096 14.4417 81.4603 14.9148L81.5995 13.9287ZM113.453 13.4277C113.957 12.8276 114.234 12.0286 114.234 11.0586C114.234 8.64233 112.569 7.23291 109.759 7.23291L105.12 7.23291L105.12 21.9792L106.12 21.9792L110.55 21.9792C113.292 21.9792 115.134 20.2476 115.134 17.8042C115.134 16.4109 114.527 15.3169 113.602 14.6711C113.286 14.4509 112.934 14.283 112.556 14.1731L112.532 14.1731C112.892 13.9766 113.201 13.7268 113.453 13.4277ZM112.407 14.6833L112.099 13.4771Q112.07 13.5093 112.041 13.5403Q111.243 14.3716 109.579 14.3716L106.573 14.3716L106.573 8.39551L109.46 8.39551Q111.333 8.39551 112.148 9.32397Q112.775 10.0391 112.775 11.3044Q112.775 12.3813 112.381 13.0801Q112.574 12.9287 112.723 12.7424Q113.234 12.105 113.234 11.0586Q113.234 9.93384 112.683 9.25684Q111.85 8.23291 109.759 8.23291L106.12 8.23291L106.12 20.9792L110.55 20.9792Q112.558 20.9792 113.441 19.9824Q114.134 19.2002 114.134 17.8042Q114.134 16.5964 113.537 15.8999Q113.165 15.4656 112.562 15.23Q112.903 15.5122 113.133 15.8669Q113.605 16.5957 113.605 17.6299Q113.605 19.1003 112.871 19.8896Q112.022 20.8037 110.19 20.8044L106.575 20.8044L106.575 14.4417L110.013 14.4417Q111.403 14.4417 112.304 15.0388L112.407 14.6833ZM110.187 19.8044L110.19 19.8044C111.579 19.8035 112.605 19.1189 112.605 17.6299C112.605 16.1396 111.577 15.4417 110.013 15.4417L108.575 15.4417L107.575 15.4417L107.575 19.8044L110.187 19.8044ZM55.082 9.03809L55.082 7.23291L45.199 7.23291L45.199 9.37793L46.199 9.37793L50.7548 9.37793L51.9455 9.37793L51.2992 10.3779L44.9548 20.1951L44.9548 21.9832L45.9548 21.9832L54.187 21.9832L55.187 21.9832L55.187 19.8125L48.0654 19.8125L48.7197 18.8125L54.5089 9.9646L55.1052 9.05322L55.082 9.04907L55.082 9.03809ZM54.187 20.8125L46.2161 20.8125L54.082 8.79053L54.082 8.23291L46.199 8.23291L46.199 8.37793L53.7824 8.37793L45.9548 20.49L45.9548 20.9832L54.187 20.9832L54.187 20.8125ZM96.8048 18.2742L97.9781 21.9792L100.679 21.9792L100.338 20.9792L95.6411 7.23291L92.772 7.23291L88.1299 20.9792L87.7923 21.9792L90.3517 21.9792L91.5114 18.2742L96.8048 18.2742ZM89.6168 20.9792L90.7765 17.2742L97.537 17.2742L98.7104 20.9792L99.2809 20.9792L94.926 8.23291L94.6874 8.23291L95.1027 9.53613L97.5372 17.176L92.158 17.176L92.158 16.3374L91.158 16.1841L91.158 15.176L91.4264 15.176L93.6063 8.23291L93.4897 8.23291L89.1854 20.9792L89.6168 20.9792ZM92.4745 15.176L92.1605 16.176L92.158 16.176L92.158 16.1841L92.1605 16.176L93.158 16.176L93.2087 16.176L96.1691 16.176L95.8503 15.176L94.6779 11.4966L94.1499 9.83984L93.629 11.4988L92.4745 15.176ZM123.604 12.3743L120.773 7.23291L117.908 7.23291L118.485 8.23291L122.236 14.7358L122.271 14.7961L122.874 15.8418L122.874 21.9805L123.874 21.9805L124.35 21.9805L125.35 21.9805L125.35 15.8284L129.811 8.23291L130.398 7.23291L127.737 7.23291L124.752 12.3867L124.168 13.3948L124.167 13.3972L124.159 13.3826L123.604 12.3743ZM123.018 13.3848L120.182 8.23291L119.639 8.23291L122.814 13.7373L123.018 13.3848ZM125.315 13.4097L125.458 13.6692L128.651 8.23291L128.314 8.23291L125.315 13.4097ZM125.127 14.2332L123.307 14.5918L123.874 15.574L123.874 20.9805L124.35 20.9805L124.35 15.5564L125.127 14.2332ZM124.163 13.4038L124.17 13.4026L124.167 13.3972L124.163 13.4038ZM17.3224 8.40479L17.3224 15.2644L21.4644 15.2644L21.4644 15.1897Q22.7254 14.9932 23.4008 14.2581Q24.1793 13.4109 24.1793 11.8481Q24.1793 10.2571 23.3861 9.40112Q22.4627 8.40479 20.4644 8.40479L17.3224 8.40479ZM20.4644 14.2644L20.4644 14.2617C22.2107 14.2617 23.1793 13.3958 23.1793 11.8481C23.1793 10.2278 22.1111 9.40479 20.4644 9.40479L19.3224 9.40479L18.3224 9.40479L18.3224 14.2644L20.4644 14.2644ZM77.777 9.39551L78.6597 9.39551C80.0376 9.39551 80.9735 9.94849 80.9735 11.3044C80.9735 12.71 80.0049 13.3716 78.7825 13.3716L76.777 13.3716L76.777 9.39551L77.777 9.39551ZM108.573 9.39551L109.46 9.39551C110.838 9.39551 111.775 9.94849 111.775 11.3044C111.775 12.71 110.807 13.3716 109.579 13.3716L107.573 13.3716L107.573 9.39551L108.573 9.39551ZM143.631 19.1643Q144.088 20.2793 145.022 21.1987Q145.911 22.0732 146.978 22.5208Q148.098 22.99 149.413 22.99Q150.729 22.99 151.848 22.5208Q152.916 22.0732 153.805 21.1987Q154.739 20.2793 155.196 19.1641Q155.632 18.0989 155.632 16.8552Q155.632 15.6116 155.196 14.5461Q154.739 13.4312 153.805 12.5117Q152.916 11.6372 151.848 11.1897Q150.729 10.7205 149.413 10.7205Q148.098 10.7205 146.978 11.1897Q145.911 11.6372 145.022 12.5117Q144.088 13.4309 143.631 14.5461Q143.195 15.6113 143.195 16.8552Q143.195 18.0991 143.631 19.1643ZM149.413 21.99C148.029 21.99 146.702 21.449 145.723 20.4861C144.745 19.5229 144.195 18.217 144.195 16.8552C144.195 15.4934 144.745 14.1873 145.723 13.2244C146.702 12.2615 148.029 11.7205 149.413 11.7205C150.797 11.7205 152.125 12.2615 153.103 13.2244C154.082 14.1873 154.632 15.4934 154.632 16.8552C154.632 18.217 154.082 19.5229 153.103 20.4861C152.125 21.449 150.797 21.99 149.413 21.99ZM77.7838 19.8044L76.7838 19.8044L76.7838 15.4417L77.7838 15.4417L79.2259 15.4417C80.7948 15.4417 81.8181 16.1396 81.8181 17.6299C81.8181 19.1199 80.7948 19.8044 79.4033 19.8044L77.7838 19.8044Z" fill="#000000" fill-opacity="1.000000" fill-rule="evenodd"/>
</svg>
