<svg width="32.000000" height="32.000000" viewBox="0 0 32 32" fill="none" xmlns="http://www.w3.org/2000/svg" xmlns:xlink="http://www.w3.org/1999/xlink">
	<desc>
			Created with Pixso.
	</desc>
	<defs>
		<clipPath id="clip41497_113">
			<rect id="Icon-Burger-menu" width="32.000000" height="32.000000" fill="white" fill-opacity="0"/>
		</clipPath>
	</defs>
	<rect id="Icon-Burger-menu" width="32.000000" height="32.000000" fill="#FFFFFF" fill-opacity="0"/>
	<g clip-path="url(#clip41497_113)">
		<path id="Vector" d="M5.33331 24L26.6667 24C27.4031 24 28 23.4031 28 22.6667C28 21.9302 27.4031 21.3333 26.6667 21.3333L5.33331 21.3333C4.59692 21.3333 4 21.9302 4 22.6667C4 23.4031 4.59692 24 5.33331 24ZM5.33331 17.3333L26.6667 17.3333C27.4031 17.3333 28 16.7363 28 16C28 15.2637 27.4031 14.6667 26.6667 14.6667L5.33331 14.6667C4.59692 14.6667 4 15.2637 4 16C4 16.7363 4.59692 17.3333 5.33331 17.3333ZM5.33331 8C4.59692 8 4 8.59692 4 9.33325C4 10.0698 4.59692 10.6667 5.33331 10.6667L26.6667 10.6667C27.4031 10.6667 28 10.0698 28 9.33325C28 8.59692 27.4031 8 26.6667 8L5.33331 8Z" fill="#292929" fill-opacity="1.000000" fill-rule="nonzero"/>
	</g>
</svg>
