<svg width="46" height="41" viewBox="0 0 46 41" fill="none" xmlns="http://www.w3.org/2000/svg">
<path d="M27.2791 0.669434L11.7006 11.7221H0V29.6168H11.7006L27.2791 40.6694V0.669434ZM38.4281 5.91614C38.1964 5.92971 37.9756 6.01701 37.7987 6.16488C37.6219 6.31275 37.4988 6.51318 37.4478 6.73593C37.3969 6.95869 37.421 7.1917 37.5164 7.39984C37.6118 7.60797 37.7733 7.77995 37.9767 7.88983C41.2399 9.71787 43.8605 14.6931 43.8605 20.6694C43.8605 26.6458 41.24 31.6045 37.9767 33.4326C37.7321 33.5729 37.5539 33.8028 37.4811 34.072C37.4083 34.3413 37.4468 34.6279 37.5882 34.8693C37.7297 35.1107 37.9625 35.2871 38.2358 35.36C38.5091 35.4329 38.8006 35.3963 39.0465 35.2583C43.2789 32.8872 46 27.234 46 20.6694C46 14.1049 43.2789 8.43516 39.0465 6.06417C38.8604 5.95423 38.6447 5.90261 38.4281 5.91614ZM32.8452 10.1267C32.6122 10.137 32.3891 10.222 32.2097 10.3687C32.0304 10.5153 31.9046 10.7157 31.8516 10.9391C31.7986 11.1626 31.8213 11.397 31.9162 11.6066C32.0111 11.8162 32.1729 11.9896 32.3772 12.1004C34.3866 13.2694 36.1381 16.6116 36.1381 20.6694C36.1381 24.7273 34.3866 28.0531 32.3772 29.2221C32.2547 29.2919 32.1474 29.3849 32.0615 29.4957C31.9756 29.6064 31.9128 29.7328 31.8766 29.8675C31.8405 30.0022 31.8318 30.1426 31.851 30.2807C31.8702 30.4187 31.9169 30.5517 31.9884 30.6719C32.06 30.7921 32.155 30.8973 32.2679 30.9813C32.3809 31.0653 32.5096 31.1265 32.6467 31.1614C32.7838 31.1964 32.9265 31.2043 33.0667 31.1848C33.2069 31.1653 33.3418 31.1187 33.4637 31.0477C36.4513 29.3097 38.2776 25.2937 38.2776 20.6694C38.2776 16.0452 36.4513 12.0128 33.4637 10.2747C33.2775 10.1648 33.0618 10.1131 32.8452 10.1267Z" fill="#4F4F4F"/>
</svg>
