<svg width="133" height="62" viewBox="0 0 133 62" fill="none" xmlns="http://www.w3.org/2000/svg">
<path fill-rule="evenodd" clip-rule="evenodd" d="M52.0235 9.58056L60.4211 0.916404C60.4997 0.83533 60.6297 0.83533 60.7083 0.916404L69.1059 9.58056H131C131.552 9.58056 132 10.0283 132 10.5806V59.8523C132 60.4046 131.552 60.8523 131 60.8523H2.55294C2.00065 60.8523 1.55294 60.4046 1.55294 59.8523V10.5806C1.55294 10.0283 2.00066 9.58056 2.55294 9.58056H52.0235Z" fill="#565656"/>
<path d="M60.4211 0.916404L60.7801 1.26439L60.7801 1.26439L60.4211 0.916404ZM52.0235 9.58056V10.0806H52.2352L52.3826 9.92855L52.0235 9.58056ZM60.7083 0.916404L60.3493 1.26439L60.3493 1.26439L60.7083 0.916404ZM69.1059 9.58056L68.7468 9.92855L68.8942 10.0806H69.1059V9.58056ZM60.0621 0.568418L51.6645 9.23258L52.3826 9.92855L60.7801 1.26439L60.0621 0.568418ZM61.0674 0.568418C60.7923 0.284657 60.3371 0.28466 60.0621 0.568418L60.7801 1.26439C60.6623 1.386 60.4672 1.386 60.3493 1.26439L61.0674 0.568418ZM69.4649 9.23258L61.0674 0.568417L60.3493 1.26439L68.7468 9.92855L69.4649 9.23258ZM69.1059 10.0806H131V9.08056H69.1059V10.0806ZM131 10.0806C131.276 10.0806 131.5 10.3044 131.5 10.5806H132.5C132.5 9.75214 131.828 9.08056 131 9.08056V10.0806ZM131.5 10.5806V59.8523H132.5V10.5806H131.5ZM131.5 59.8523C131.5 60.1285 131.276 60.3523 131 60.3523V61.3523C131.828 61.3523 132.5 60.6807 132.5 59.8523H131.5ZM131 60.3523H2.55294V61.3523H131V60.3523ZM2.55294 60.3523C2.2768 60.3523 2.05294 60.1285 2.05294 59.8523H1.05294C1.05294 60.6807 1.72451 61.3523 2.55294 61.3523V60.3523ZM2.05294 59.8523V10.5806H1.05294V59.8523H2.05294ZM2.05294 10.5806C2.05294 10.3044 2.2768 10.0806 2.55294 10.0806V9.08056C1.72451 9.08056 1.05294 9.75214 1.05294 10.5806H2.05294ZM2.55294 10.0806H52.0235V9.08056H2.55294V10.0806Z" fill="#565656"/>
<path d="M34.9357 32.1555H36.0021V33.9074H37.0041V34.7687H36.0021V38.8644C36.0021 39.0832 36.0763 39.2297 36.2248 39.3039C36.3068 39.3469 36.4435 39.3684 36.6349 39.3684C36.6857 39.3684 36.7404 39.3684 36.799 39.3684C36.8576 39.3644 36.9259 39.3586 37.0041 39.3508V40.1828C36.883 40.218 36.756 40.2434 36.6232 40.259C36.4943 40.2746 36.3537 40.2824 36.2013 40.2824C35.7091 40.2824 35.3752 40.1574 35.1994 39.9074C35.0236 39.6535 34.9357 39.3254 34.9357 38.923V34.7687H34.0861V33.9074H34.9357V32.1555ZM40.7979 33.7668C41.2432 33.7668 41.6748 33.8723 42.0928 34.0832C42.5108 34.2902 42.8291 34.5598 43.0479 34.8918C43.2588 35.2082 43.3995 35.5773 43.4698 35.9992C43.5323 36.2883 43.5635 36.7492 43.5635 37.382H38.9639C38.9834 38.0187 39.1338 38.5305 39.4151 38.9172C39.6963 39.3 40.1319 39.4914 40.7217 39.4914C41.2725 39.4914 41.712 39.3098 42.0401 38.9465C42.2276 38.7355 42.3604 38.4914 42.4385 38.2141H43.4756C43.4483 38.4445 43.3565 38.7023 43.2002 38.9875C43.0479 39.2687 42.876 39.4992 42.6846 39.6789C42.3643 39.9914 41.9678 40.2023 41.4952 40.3117C41.2412 40.3742 40.9541 40.4055 40.6338 40.4055C39.8526 40.4055 39.1905 40.1223 38.6475 39.5559C38.1045 38.9855 37.833 38.1887 37.833 37.1652C37.833 36.1574 38.1065 35.3391 38.6534 34.7102C39.2002 34.0812 39.9151 33.7668 40.7979 33.7668ZM42.4795 36.5441C42.4366 36.0871 42.337 35.7219 42.1807 35.4484C41.8916 34.9406 41.4092 34.6867 40.7334 34.6867C40.2491 34.6867 39.8428 34.8625 39.5147 35.2141C39.1866 35.5617 39.0127 36.0051 38.9932 36.5441H42.4795ZM47.5976 33.7668C48.0429 33.7668 48.4745 33.8723 48.8925 34.0832C49.3105 34.2902 49.6288 34.5598 49.8476 34.8918C50.0585 35.2082 50.1991 35.5773 50.2695 35.9992C50.332 36.2883 50.3632 36.7492 50.3632 37.382H45.7636C45.7831 38.0187 45.9335 38.5305 46.2148 38.9172C46.496 39.3 46.9316 39.4914 47.5214 39.4914C48.0722 39.4914 48.5116 39.3098 48.8398 38.9465C49.0273 38.7355 49.1601 38.4914 49.2382 38.2141H50.2753C50.248 38.4445 50.1562 38.7023 49.9999 38.9875C49.8476 39.2687 49.6757 39.4992 49.4843 39.6789C49.164 39.9914 48.7675 40.2023 48.2948 40.3117C48.0409 40.3742 47.7538 40.4055 47.4335 40.4055C46.6523 40.4055 45.9902 40.1223 45.4472 39.5559C44.9042 38.9855 44.6327 38.1887 44.6327 37.1652C44.6327 36.1574 44.9062 35.3391 45.453 34.7102C45.9999 34.0812 46.7148 33.7668 47.5976 33.7668ZM49.2792 36.5441C49.2363 36.0871 49.1366 35.7219 48.9804 35.4484C48.6913 34.9406 48.2089 34.6867 47.5331 34.6867C47.0488 34.6867 46.6425 34.8625 46.3144 35.2141C45.9863 35.5617 45.8124 36.0051 45.7929 36.5441H49.2792ZM51.9949 32.1555H53.0613V33.9074H54.0633V34.7687H53.0613V38.8644C53.0613 39.0832 53.1355 39.2297 53.284 39.3039C53.366 39.3469 53.5027 39.3684 53.6941 39.3684C53.7449 39.3684 53.7996 39.3684 53.8582 39.3684C53.9168 39.3644 53.9852 39.3586 54.0633 39.3508V40.1828C53.9422 40.218 53.8152 40.2434 53.6824 40.259C53.5535 40.2746 53.4129 40.2824 53.2605 40.2824C52.7684 40.2824 52.4344 40.1574 52.2586 39.9074C52.0828 39.6535 51.9949 39.3254 51.9949 38.923V34.7687H51.1453V33.9074H51.9949V32.1555ZM55.2438 31.5461H56.2985V34.757C56.5485 34.4406 56.7731 34.218 56.9723 34.0891C57.3122 33.8664 57.736 33.7551 58.2438 33.7551C59.154 33.7551 59.7712 34.0734 60.0954 34.7102C60.2712 35.0578 60.3591 35.5402 60.3591 36.1574V40.1828H59.2751V36.2277C59.2751 35.7668 59.2165 35.4289 59.0993 35.2141C58.9079 34.8703 58.5485 34.6984 58.0212 34.6984C57.5837 34.6984 57.1872 34.8488 56.8317 35.1496C56.4762 35.4504 56.2985 36.0187 56.2985 36.8547V40.1828H55.2438V31.5461ZM62.0435 33.9367H63.1158V40.1828H62.0435V33.9367ZM62.0435 31.5754H63.1158V32.7707H62.0435V31.5754ZM64.8354 33.9074H65.8373V34.798C66.1342 34.4309 66.4487 34.1672 66.7807 34.007C67.1127 33.8469 67.4819 33.7668 67.8881 33.7668C68.7787 33.7668 69.3803 34.0773 69.6928 34.6984C69.8647 35.0383 69.9506 35.5246 69.9506 36.1574V40.1828H68.8784V36.2277C68.8784 35.8449 68.8217 35.5363 68.7084 35.3019C68.5209 34.9113 68.1811 34.716 67.6889 34.716C67.4389 34.716 67.2338 34.7414 67.0737 34.7922C66.7846 34.8781 66.5307 35.05 66.312 35.3078C66.1362 35.5148 66.0209 35.7297 65.9662 35.9523C65.9155 36.1711 65.8901 36.4855 65.8901 36.8957V40.1828H64.8354V33.9074ZM73.8499 33.7961C74.3421 33.7961 74.7718 33.9172 75.139 34.1594C75.3382 34.2961 75.5413 34.4953 75.7484 34.757V33.966H76.721V39.673C76.721 40.4699 76.6038 41.0988 76.3695 41.5598C75.932 42.4113 75.1058 42.8371 73.8909 42.8371C73.2152 42.8371 72.6468 42.6848 72.1859 42.3801C71.7249 42.0793 71.4671 41.6066 71.4124 40.9621H72.4847C72.5355 41.2434 72.637 41.4602 72.7894 41.6125C73.0277 41.8469 73.4027 41.9641 73.9144 41.9641C74.723 41.9641 75.2523 41.6789 75.5023 41.1086C75.6507 40.7727 75.7191 40.173 75.7073 39.3098C75.4964 39.6301 75.2425 39.8684 74.9456 40.0246C74.6488 40.1809 74.2562 40.259 73.7679 40.259C73.0882 40.259 72.4925 40.0187 71.9808 39.5383C71.473 39.0539 71.2191 38.2551 71.2191 37.1418C71.2191 36.091 71.4749 35.2707 71.9866 34.6809C72.5023 34.091 73.1234 33.7961 73.8499 33.7961ZM75.7484 37.0187C75.7484 36.2414 75.5882 35.6652 75.2679 35.2902C74.9476 34.9152 74.5394 34.7277 74.0433 34.7277C73.3011 34.7277 72.7933 35.0754 72.5198 35.7707C72.3753 36.1418 72.303 36.6281 72.303 37.2297C72.303 37.9367 72.4456 38.4758 72.7308 38.8469C73.0198 39.2141 73.4066 39.3977 73.8909 39.3977C74.6488 39.3977 75.182 39.0559 75.4905 38.3723C75.6624 37.9855 75.7484 37.5344 75.7484 37.0187ZM81.9239 33.9074H82.9259V34.9914C83.0079 34.7805 83.2091 34.5246 83.5294 34.2238C83.8497 33.9191 84.2188 33.7668 84.6368 33.7668C84.6563 33.7668 84.6895 33.7687 84.7364 33.7727C84.7833 33.7766 84.8634 33.7844 84.9766 33.7961V34.9094C84.9141 34.8977 84.8555 34.8898 84.8009 34.8859C84.7501 34.882 84.6934 34.8801 84.6309 34.8801C84.0997 34.8801 83.6915 35.0519 83.4063 35.3957C83.1212 35.7355 82.9786 36.1281 82.9786 36.5734V40.1828H81.9239V33.9074ZM86.0107 33.9367H87.083V40.1828H86.0107V33.9367ZM86.0107 31.5754H87.083V32.7707H86.0107V31.5754ZM88.8026 33.9074H89.8045V34.798C90.1014 34.4309 90.4159 34.1672 90.7479 34.007C91.0799 33.8469 91.4491 33.7668 91.8553 33.7668C92.7459 33.7668 93.3475 34.0773 93.66 34.6984C93.8319 35.0383 93.9178 35.5246 93.9178 36.1574V40.1828H92.8456V36.2277C92.8456 35.8449 92.7889 35.5363 92.6756 35.3019C92.4881 34.9113 92.1483 34.716 91.6561 34.716C91.4061 34.716 91.201 34.7414 91.0409 34.7922C90.7518 34.8781 90.4979 35.05 90.2791 35.3078C90.1034 35.5148 89.9881 35.7297 89.9334 35.9523C89.8827 36.1711 89.8573 36.4855 89.8573 36.8957V40.1828H88.8026V33.9074ZM97.8171 33.7961C98.3093 33.7961 98.739 33.9172 99.1062 34.1594C99.3054 34.2961 99.5085 34.4953 99.7155 34.757V33.966H100.688V39.673C100.688 40.4699 100.571 41.0988 100.337 41.5598C99.8991 42.4113 99.073 42.8371 97.8581 42.8371C97.1823 42.8371 96.614 42.6848 96.153 42.3801C95.6921 42.0793 95.4343 41.6066 95.3796 40.9621H96.4519C96.5027 41.2434 96.6042 41.4602 96.7566 41.6125C96.9948 41.8469 97.3698 41.9641 97.8816 41.9641C98.6902 41.9641 99.2195 41.6789 99.4695 41.1086C99.6179 40.7727 99.6862 40.173 99.6745 39.3098C99.4636 39.6301 99.2097 39.8684 98.9128 40.0246C98.6159 40.1809 98.2234 40.259 97.7351 40.259C97.0554 40.259 96.4597 40.0187 95.948 39.5383C95.4402 39.0539 95.1862 38.2551 95.1862 37.1418C95.1862 36.091 95.4421 35.2707 95.9538 34.6809C96.4695 34.091 97.0905 33.7961 97.8171 33.7961ZM99.7155 37.0187C99.7155 36.2414 99.5554 35.6652 99.2351 35.2902C98.9148 34.9152 98.5066 34.7277 98.0105 34.7277C97.2683 34.7277 96.7605 35.0754 96.487 35.7707C96.3425 36.1418 96.2702 36.6281 96.2702 37.2297C96.2702 37.9367 96.4128 38.4758 96.698 38.8469C96.987 39.2141 97.3737 39.3977 97.8581 39.3977C98.6159 39.3977 99.1491 39.0559 99.4577 38.3723C99.6296 37.9855 99.7155 37.5344 99.7155 37.0187Z" fill="#DBDBDB"/>
</svg>
