<svg width="133" height="62" viewBox="0 0 133 62" fill="none" xmlns="http://www.w3.org/2000/svg">
<path fill-rule="evenodd" clip-rule="evenodd" d="M52.0235 9.58056L60.4211 0.916404C60.4997 0.83533 60.6297 0.83533 60.7083 0.916404L69.1059 9.58056H131C131.552 9.58056 132 10.0283 132 10.5806V59.8523C132 60.4046 131.552 60.8523 131 60.8523H2.55294C2.00065 60.8523 1.55294 60.4046 1.55294 59.8523V10.5806C1.55294 10.0283 2.00066 9.58056 2.55294 9.58056H52.0235Z" fill="#565656"/>
<path d="M60.4211 0.916404L60.7801 1.26439L60.7801 1.26439L60.4211 0.916404ZM52.0235 9.58056V10.0806H52.2352L52.3826 9.92855L52.0235 9.58056ZM60.7083 0.916404L60.3493 1.26439L60.3493 1.26439L60.7083 0.916404ZM69.1059 9.58056L68.7468 9.92855L68.8942 10.0806H69.1059V9.58056ZM60.0621 0.568418L51.6645 9.23257L52.3826 9.92855L60.7801 1.26439L60.0621 0.568418ZM61.0674 0.568418C60.7923 0.284657 60.3371 0.28466 60.0621 0.568418L60.7801 1.26439C60.6623 1.386 60.4672 1.386 60.3493 1.26439L61.0674 0.568418ZM69.4649 9.23257L61.0674 0.568417L60.3493 1.26439L68.7468 9.92855L69.4649 9.23257ZM69.1059 10.0806H131V9.08056H69.1059V10.0806ZM131 10.0806C131.276 10.0806 131.5 10.3044 131.5 10.5806H132.5C132.5 9.75214 131.828 9.08056 131 9.08056V10.0806ZM131.5 10.5806V59.8523H132.5V10.5806H131.5ZM131.5 59.8523C131.5 60.1285 131.276 60.3523 131 60.3523V61.3523C131.828 61.3523 132.5 60.6807 132.5 59.8523H131.5ZM131 60.3523H2.55294V61.3523H131V60.3523ZM2.55294 60.3523C2.2768 60.3523 2.05294 60.1285 2.05294 59.8523H1.05294C1.05294 60.6807 1.72451 61.3523 2.55294 61.3523V60.3523ZM2.05294 59.8523V10.5806H1.05294V59.8523H2.05294ZM2.05294 10.5806C2.05294 10.3044 2.2768 10.0806 2.55294 10.0806V9.08056C1.72451 9.08056 1.05294 9.75214 1.05294 10.5806H2.05294ZM2.55294 10.0806H52.0235V9.08056H2.55294V10.0806Z" fill="#565656"/>
<path d="M19.0908 33.9367H20.163V40.1828H19.0908V33.9367ZM19.0908 31.5754H20.163V32.7707H19.0908V31.5754ZM21.8827 33.9074H22.8846V34.798C23.1815 34.4309 23.4959 34.1672 23.828 34.007C24.16 33.8469 24.5291 33.7668 24.9354 33.7668C25.826 33.7668 26.4276 34.0773 26.7401 34.6984C26.912 35.0383 26.9979 35.5246 26.9979 36.1574V40.1828H25.9256V36.2277C25.9256 35.8449 25.869 35.5363 25.7557 35.3019C25.5682 34.9113 25.2284 34.716 24.7362 34.716C24.4862 34.716 24.2811 34.7414 24.1209 34.7922C23.8319 34.8781 23.578 35.05 23.3592 35.3078C23.1834 35.5148 23.0682 35.7297 23.0135 35.9523C22.9627 36.1711 22.9373 36.4855 22.9373 36.8957V40.1828H21.8827V33.9074ZM28.8933 32.1555H29.9597V33.9074H30.9616V34.7687H29.9597V38.8644C29.9597 39.0832 30.0339 39.2297 30.1823 39.3039C30.2644 39.3469 30.4011 39.3684 30.5925 39.3684C30.6433 39.3684 30.698 39.3684 30.7566 39.3684C30.8152 39.3644 30.8835 39.3586 30.9616 39.3508V40.1828C30.8405 40.218 30.7136 40.2434 30.5808 40.259C30.4519 40.2746 30.3113 40.2824 30.1589 40.2824C29.6667 40.2824 29.3327 40.1574 29.157 39.9074C28.9812 39.6535 28.8933 39.3254 28.8933 38.923V34.7687H28.0437V33.9074H28.8933V32.1555ZM34.7555 33.7668C35.2008 33.7668 35.6324 33.8723 36.0504 34.0832C36.4684 34.2902 36.7867 34.5598 37.0055 34.8918C37.2164 35.2082 37.357 35.5773 37.4273 35.9992C37.4898 36.2883 37.5211 36.7492 37.5211 37.382H32.9215C32.941 38.0187 33.0914 38.5305 33.3727 38.9172C33.6539 39.3 34.0895 39.4914 34.6793 39.4914C35.2301 39.4914 35.6695 39.3098 35.9977 38.9465C36.1852 38.7355 36.318 38.4914 36.3961 38.2141H37.4332C37.4059 38.4445 37.3141 38.7023 37.1578 38.9875C37.0055 39.2687 36.8336 39.4992 36.6422 39.6789C36.3219 39.9914 35.9254 40.2023 35.4527 40.3117C35.1988 40.3742 34.9117 40.4055 34.5914 40.4055C33.8102 40.4055 33.148 40.1223 32.6051 39.5559C32.0621 38.9855 31.7906 38.1887 31.7906 37.1652C31.7906 36.1574 32.0641 35.3391 32.6109 34.7102C33.1578 34.0812 33.8727 33.7668 34.7555 33.7668ZM36.4371 36.5441C36.3941 36.0871 36.2945 35.7219 36.1383 35.4484C35.8492 34.9406 35.3668 34.6867 34.691 34.6867C34.2066 34.6867 33.8004 34.8625 33.4723 35.2141C33.1441 35.5617 32.9703 36.0051 32.9508 36.5441H36.4371ZM38.9712 33.9074H39.9731V34.9914C40.0552 34.7805 40.2563 34.5246 40.5766 34.2238C40.897 33.9191 41.2661 33.7668 41.6841 33.7668C41.7036 33.7668 41.7368 33.7687 41.7837 33.7727C41.8305 33.7766 41.9106 33.7844 42.0239 33.7961V34.9094C41.9614 34.8977 41.9028 34.8898 41.8481 34.8859C41.7973 34.882 41.7407 34.8801 41.6782 34.8801C41.147 34.8801 40.7388 35.0519 40.4536 35.3957C40.1684 35.7355 40.0259 36.1281 40.0259 36.5734V40.1828H38.9712V33.9074ZM43.058 33.9074H44.0599V34.798C44.3568 34.4309 44.6712 34.1672 45.0033 34.007C45.3353 33.8469 45.7045 33.7668 46.1107 33.7668C47.0013 33.7668 47.6029 34.0773 47.9154 34.6984C48.0873 35.0383 48.1732 35.5246 48.1732 36.1574V40.1828H47.1009V36.2277C47.1009 35.8449 47.0443 35.5363 46.931 35.3019C46.7435 34.9113 46.4037 34.716 45.9115 34.716C45.6615 34.716 45.4564 34.7414 45.2962 34.7922C45.0072 34.8781 44.7533 35.05 44.5345 35.3078C44.3587 35.5148 44.2435 35.7297 44.1888 35.9523C44.138 36.1711 44.1127 36.4855 44.1127 36.8957V40.1828H43.058V33.9074ZM50.6663 38.5129C50.6663 38.8176 50.7776 39.0578 51.0002 39.2336C51.2229 39.4094 51.4866 39.4973 51.7913 39.4973C52.1623 39.4973 52.5217 39.4113 52.8694 39.2394C53.4553 38.9543 53.7483 38.4875 53.7483 37.8391V36.9894C53.6194 37.0715 53.4534 37.1398 53.2502 37.1945C53.0471 37.2492 52.8479 37.2883 52.6526 37.3117L52.0139 37.3937C51.6311 37.4445 51.344 37.5246 51.1526 37.634C50.8284 37.8176 50.6663 38.1105 50.6663 38.5129ZM53.2209 36.3801C53.4631 36.3488 53.6252 36.2473 53.7073 36.0754C53.7541 35.9816 53.7776 35.8469 53.7776 35.6711C53.7776 35.3117 53.6487 35.0519 53.3909 34.8918C53.137 34.7277 52.7717 34.6457 52.2952 34.6457C51.7444 34.6457 51.3538 34.7941 51.1233 35.091C50.9944 35.2551 50.9104 35.4992 50.8713 35.8234H49.887C49.9065 35.05 50.1565 34.5129 50.637 34.2121C51.1213 33.9074 51.6819 33.7551 52.3186 33.7551C53.0569 33.7551 53.6565 33.8957 54.1174 34.1769C54.5745 34.4582 54.803 34.8957 54.803 35.4894V39.1047C54.803 39.2141 54.8245 39.3019 54.8674 39.3684C54.9143 39.4348 55.01 39.468 55.1545 39.468C55.2014 39.468 55.2541 39.466 55.3127 39.4621C55.3713 39.4543 55.4338 39.4445 55.5002 39.4328V40.2121C55.3362 40.259 55.2112 40.2883 55.1252 40.3C55.0393 40.3117 54.9221 40.3176 54.7737 40.3176C54.4104 40.3176 54.1467 40.1887 53.9827 39.9309C53.8967 39.7941 53.8362 39.6008 53.801 39.3508C53.5862 39.632 53.2776 39.8762 52.8752 40.0832C52.4729 40.2902 52.0295 40.3937 51.5452 40.3937C50.9631 40.3937 50.4866 40.218 50.1155 39.8664C49.7483 39.5109 49.5647 39.0676 49.5647 38.5363C49.5647 37.9543 49.7463 37.5031 50.1096 37.1828C50.4729 36.8625 50.9495 36.6652 51.5393 36.591L53.2209 36.3801ZM56.6866 31.5754H57.7413V40.1828H56.6866V31.5754ZM63.577 37.1184C63.577 37.7902 63.7196 38.3527 64.0048 38.8059C64.2899 39.259 64.747 39.4855 65.3759 39.4855C65.8641 39.4855 66.2645 39.2766 66.577 38.8586C66.8934 38.4367 67.0516 37.8332 67.0516 37.048C67.0516 36.2551 66.8895 35.6691 66.5653 35.2902C66.2411 34.9074 65.8407 34.716 65.3641 34.716C64.8329 34.716 64.4013 34.9191 64.0692 35.3254C63.7411 35.7316 63.577 36.3293 63.577 37.1184ZM65.1649 33.7961C65.6454 33.7961 66.0477 33.8977 66.372 34.1008C66.5595 34.218 66.7723 34.423 67.0106 34.716V31.5461H68.0243V40.1828H67.0751V39.3098C66.829 39.6965 66.538 39.9758 66.202 40.1477C65.8661 40.3195 65.4813 40.4055 65.0477 40.4055C64.3485 40.4055 63.743 40.1125 63.2313 39.5266C62.7196 38.9367 62.4638 38.1535 62.4638 37.1769C62.4638 36.2629 62.6962 35.4719 63.161 34.8039C63.6298 34.132 64.2977 33.7961 65.1649 33.7961ZM73.6287 33.9074H74.7947C74.6463 34.3098 74.3162 35.2277 73.8045 36.6613C73.4216 37.7394 73.1013 38.6184 72.8435 39.298C72.2341 40.8996 71.8045 41.8762 71.5545 42.2277C71.3045 42.5793 70.8748 42.7551 70.2654 42.7551C70.117 42.7551 70.0017 42.7492 69.9197 42.7375C69.8416 42.7258 69.7439 42.7043 69.6267 42.673V41.7121C69.8103 41.7629 69.9431 41.7941 70.0252 41.8059C70.1072 41.8176 70.1795 41.8234 70.242 41.8234C70.4373 41.8234 70.5798 41.7902 70.6697 41.7238C70.7634 41.6613 70.8416 41.5832 70.9041 41.4894C70.9236 41.4582 70.9939 41.298 71.115 41.009C71.2361 40.7199 71.324 40.5051 71.3787 40.3644L69.0584 33.9074H70.2537L71.9353 39.0168L73.6287 33.9074ZM75.8288 33.9074H76.8307V34.798C77.1276 34.4309 77.442 34.1672 77.7741 34.007C78.1061 33.8469 78.4752 33.7668 78.8815 33.7668C79.7721 33.7668 80.3737 34.0773 80.6862 34.6984C80.858 35.0383 80.944 35.5246 80.944 36.1574V40.1828H79.8717V36.2277C79.8717 35.8449 79.8151 35.5363 79.7018 35.3019C79.5143 34.9113 79.1745 34.716 78.6823 34.716C78.4323 34.716 78.2272 34.7414 78.067 34.7922C77.778 34.8781 77.5241 35.05 77.3053 35.3078C77.1295 35.5148 77.0143 35.7297 76.9596 35.9523C76.9088 36.1711 76.8834 36.4855 76.8834 36.8957V40.1828H75.8288V33.9074ZM83.437 38.5129C83.437 38.8176 83.5484 39.0578 83.771 39.2336C83.9937 39.4094 84.2573 39.4973 84.562 39.4973C84.9331 39.4973 85.2925 39.4113 85.6402 39.2394C86.2261 38.9543 86.5191 38.4875 86.5191 37.8391V36.9894C86.3902 37.0715 86.2241 37.1398 86.021 37.1945C85.8179 37.2492 85.6187 37.2883 85.4234 37.3117L84.7847 37.3937C84.4019 37.4445 84.1148 37.5246 83.9234 37.634C83.5991 37.8176 83.437 38.1105 83.437 38.5129ZM85.9917 36.3801C86.2339 36.3488 86.396 36.2473 86.478 36.0754C86.5249 35.9816 86.5484 35.8469 86.5484 35.6711C86.5484 35.3117 86.4194 35.0519 86.1616 34.8918C85.9077 34.7277 85.5425 34.6457 85.0659 34.6457C84.5152 34.6457 84.1245 34.7941 83.8941 35.091C83.7652 35.2551 83.6812 35.4992 83.6421 35.8234H82.6577C82.6773 35.05 82.9273 34.5129 83.4077 34.2121C83.8921 33.9074 84.4527 33.7551 85.0894 33.7551C85.8277 33.7551 86.4273 33.8957 86.8882 34.1769C87.3452 34.4582 87.5737 34.8957 87.5737 35.4894V39.1047C87.5737 39.2141 87.5952 39.3019 87.6382 39.3684C87.6851 39.4348 87.7808 39.468 87.9253 39.468C87.9722 39.468 88.0249 39.466 88.0835 39.4621C88.1421 39.4543 88.2046 39.4445 88.271 39.4328V40.2121C88.1069 40.259 87.9819 40.2883 87.896 40.3C87.8101 40.3117 87.6929 40.3176 87.5444 40.3176C87.1812 40.3176 86.9175 40.1887 86.7534 39.9309C86.6675 39.7941 86.6069 39.6008 86.5718 39.3508C86.3569 39.632 86.0484 39.8762 85.646 40.0832C85.2437 40.2902 84.8003 40.3937 84.3159 40.3937C83.7339 40.3937 83.2573 40.218 82.8862 39.8664C82.5191 39.5109 82.3355 39.0676 82.3355 38.5363C82.3355 37.9543 82.5171 37.5031 82.8804 37.1828C83.2437 36.8625 83.7202 36.6652 84.3101 36.591L85.9917 36.3801ZM89.4281 33.9074H90.4711V34.798C90.7211 34.4894 90.9477 34.2648 91.1508 34.1242C91.4984 33.8859 91.893 33.7668 92.3344 33.7668C92.8344 33.7668 93.2367 33.8898 93.5414 34.1359C93.7133 34.2766 93.8695 34.4836 94.0102 34.757C94.2445 34.4211 94.5199 34.173 94.8363 34.0129C95.1527 33.8488 95.5082 33.7668 95.9027 33.7668C96.7465 33.7668 97.3207 34.0715 97.6254 34.6809C97.7895 35.009 97.8715 35.4504 97.8715 36.0051V40.1828H96.7758V35.8234C96.7758 35.4055 96.6703 35.1184 96.4594 34.9621C96.2523 34.8059 95.9984 34.7277 95.6977 34.7277C95.2836 34.7277 94.9262 34.8664 94.6254 35.1437C94.3285 35.4211 94.1801 35.884 94.1801 36.5324V40.1828H93.1078V36.0871C93.1078 35.6613 93.057 35.3508 92.9555 35.1555C92.7953 34.8625 92.4965 34.716 92.059 34.716C91.6605 34.716 91.2973 34.8703 90.9691 35.1789C90.6449 35.4875 90.4828 36.0461 90.4828 36.8547V40.1828H89.4281V33.9074ZM99.5442 33.9367H100.616V40.1828H99.5442V33.9367ZM99.5442 31.5754H100.616V32.7707H99.5442V31.5754ZM104.756 33.7258C105.463 33.7258 106.037 33.8977 106.479 34.2414C106.924 34.5852 107.192 35.1769 107.281 36.0168H106.256C106.194 35.6301 106.051 35.3098 105.828 35.0559C105.606 34.798 105.248 34.6691 104.756 34.6691C104.084 34.6691 103.604 34.9973 103.315 35.6535C103.127 36.0793 103.033 36.6047 103.033 37.2297C103.033 37.8586 103.166 38.3879 103.432 38.8176C103.697 39.2473 104.115 39.4621 104.686 39.4621C105.123 39.4621 105.469 39.3293 105.723 39.0637C105.981 38.7941 106.158 38.4269 106.256 37.9621H107.281C107.164 38.7941 106.871 39.4035 106.403 39.7902C105.934 40.173 105.334 40.3644 104.604 40.3644C103.783 40.3644 103.129 40.0656 102.641 39.468C102.153 38.8664 101.908 38.1164 101.908 37.218C101.908 36.1164 102.176 35.259 102.711 34.6457C103.246 34.0324 103.928 33.7258 104.756 33.7258ZM109.083 38.2141C109.114 38.5656 109.202 38.8352 109.347 39.0227C109.612 39.3625 110.073 39.5324 110.73 39.5324C111.12 39.5324 111.464 39.4484 111.761 39.2805C112.058 39.1086 112.206 38.8449 112.206 38.4894C112.206 38.2199 112.087 38.0148 111.849 37.8742C111.696 37.7883 111.396 37.6887 110.946 37.5754L110.108 37.3644C109.573 37.2316 109.179 37.0832 108.925 36.9191C108.472 36.634 108.245 36.2394 108.245 35.7355C108.245 35.1418 108.458 34.6613 108.884 34.2941C109.314 33.9269 109.89 33.7434 110.612 33.7434C111.558 33.7434 112.239 34.0207 112.657 34.5754C112.919 34.9269 113.046 35.3059 113.038 35.7121H112.042C112.022 35.4738 111.939 35.257 111.79 35.0617C111.548 34.7844 111.128 34.6457 110.53 34.6457C110.132 34.6457 109.829 34.7219 109.622 34.8742C109.419 35.0266 109.317 35.2277 109.317 35.4777C109.317 35.7512 109.452 35.9699 109.722 36.134C109.878 36.2316 110.108 36.3176 110.413 36.3918L111.11 36.5617C111.868 36.7453 112.376 36.923 112.634 37.0949C113.044 37.3644 113.249 37.7883 113.249 38.3664C113.249 38.925 113.036 39.4074 112.61 39.8137C112.189 40.2199 111.544 40.423 110.677 40.423C109.743 40.423 109.081 40.2121 108.69 39.7902C108.304 39.3644 108.097 38.8391 108.069 38.2141H109.083Z" fill="#DBDBDB"/>
</svg>
