<svg width="133" height="62" viewBox="0 0 133 62" fill="none" xmlns="http://www.w3.org/2000/svg">
<path fill-rule="evenodd" clip-rule="evenodd" d="M52.0235 9.58056L60.4211 0.916404C60.4997 0.83533 60.6297 0.83533 60.7083 0.916404L69.1059 9.58056H131C131.552 9.58056 132 10.0283 132 10.5806V59.8523C132 60.4046 131.552 60.8523 131 60.8523H2.55294C2.00065 60.8523 1.55294 60.4046 1.55294 59.8523V10.5806C1.55294 10.0283 2.00066 9.58056 2.55294 9.58056H52.0235Z" fill="#565656"/>
<path d="M60.4211 0.916404L60.7801 1.26439L60.7801 1.26439L60.4211 0.916404ZM52.0235 9.58056V10.0806H52.2352L52.3826 9.92855L52.0235 9.58056ZM60.7083 0.916404L60.3493 1.26439L60.3493 1.26439L60.7083 0.916404ZM69.1059 9.58056L68.7468 9.92855L68.8942 10.0806H69.1059V9.58056ZM60.0621 0.568418L51.6645 9.23257L52.3826 9.92855L60.7801 1.26439L60.0621 0.568418ZM61.0674 0.568418C60.7923 0.284657 60.3371 0.28466 60.0621 0.568418L60.7801 1.26439C60.6623 1.386 60.4672 1.386 60.3493 1.26439L61.0674 0.568418ZM69.4649 9.23257L61.0674 0.568417L60.3493 1.26439L68.7468 9.92855L69.4649 9.23257ZM69.1059 10.0806H131V9.08056H69.1059V10.0806ZM131 10.0806C131.276 10.0806 131.5 10.3044 131.5 10.5806H132.5C132.5 9.75214 131.828 9.08056 131 9.08056V10.0806ZM131.5 10.5806V59.8523H132.5V10.5806H131.5ZM131.5 59.8523C131.5 60.1285 131.276 60.3523 131 60.3523V61.3523C131.828 61.3523 132.5 60.6807 132.5 59.8523H131.5ZM131 60.3523H2.55294V61.3523H131V60.3523ZM2.55294 60.3523C2.2768 60.3523 2.05294 60.1285 2.05294 59.8523H1.05294C1.05294 60.6807 1.72451 61.3523 2.55294 61.3523V60.3523ZM2.05294 59.8523V10.5806H1.05294V59.8523H2.05294ZM2.05294 10.5806C2.05294 10.3044 2.2768 10.0806 2.55294 10.0806V9.08056C1.72451 9.08056 1.05294 9.75214 1.05294 10.5806H2.05294ZM2.55294 10.0806H52.0235V9.08056H2.55294V10.0806Z" fill="#565656"/>
<path d="M37.1637 33.9074H38.1656V34.9914C38.2477 34.7805 38.4488 34.5246 38.7691 34.2238C39.0895 33.9191 39.4586 33.7668 39.8766 33.7668C39.8961 33.7668 39.9293 33.7687 39.9762 33.7727C40.023 33.7766 40.1031 33.7844 40.2164 33.7961V34.9094C40.1539 34.8977 40.0953 34.8898 40.0406 34.8859C39.9898 34.882 39.9332 34.8801 39.8707 34.8801C39.3395 34.8801 38.9313 35.0519 38.6461 35.3957C38.3609 35.7355 38.2184 36.1281 38.2184 36.5734V40.1828H37.1637V33.9074ZM42.3052 33.9074V38.0734C42.3052 38.3937 42.3559 38.6555 42.4575 38.8586C42.645 39.2336 42.9946 39.4211 43.5063 39.4211C44.2407 39.4211 44.7407 39.093 45.0063 38.4367C45.1509 38.0852 45.2231 37.6027 45.2231 36.9894V33.9074H46.2778V40.1828H45.2817L45.2934 39.257C45.1567 39.4953 44.9868 39.6965 44.7837 39.8605C44.3813 40.1887 43.893 40.3527 43.3188 40.3527C42.4243 40.3527 41.8149 40.0539 41.4907 39.4562C41.3149 39.1359 41.227 38.7082 41.227 38.173V33.9074H42.3052ZM47.9681 31.5461H48.9935V34.6691C49.224 34.3684 49.4994 34.1398 49.8197 33.9836C50.14 33.8234 50.4877 33.7434 50.8627 33.7434C51.6439 33.7434 52.2767 34.0129 52.7611 34.5519C53.2494 35.0871 53.4935 35.8781 53.4935 36.925C53.4935 37.9172 53.2533 38.7414 52.7728 39.3977C52.2923 40.0539 51.6263 40.382 50.7748 40.382C50.2982 40.382 49.8959 40.2668 49.5677 40.0363C49.3724 39.8996 49.1634 39.6809 48.9408 39.3801V40.1828H47.9681V31.5461ZM50.7103 39.4504C51.2806 39.4504 51.7064 39.2238 51.9877 38.7707C52.2728 38.3176 52.4154 37.7199 52.4154 36.9777C52.4154 36.3176 52.2728 35.7707 51.9877 35.3371C51.7064 34.9035 51.2904 34.6867 50.7396 34.6867C50.2591 34.6867 49.8373 34.8644 49.474 35.2199C49.1146 35.5754 48.9349 36.1613 48.9349 36.9777C48.9349 37.5676 49.0091 38.0461 49.1576 38.4133C49.4349 39.1047 49.9525 39.4504 50.7103 39.4504ZM54.7678 31.5461H55.7932V34.6691C56.0237 34.3684 56.2991 34.1398 56.6194 33.9836C56.9397 33.8234 57.2873 33.7434 57.6623 33.7434C58.4436 33.7434 59.0764 34.0129 59.5608 34.5519C60.0491 35.0871 60.2932 35.8781 60.2932 36.925C60.2932 37.9172 60.053 38.7414 59.5725 39.3977C59.092 40.0539 58.426 40.382 57.5745 40.382C57.0979 40.382 56.6955 40.2668 56.3674 40.0363C56.1721 39.8996 55.9631 39.6809 55.7405 39.3801V40.1828H54.7678V31.5461ZM57.51 39.4504C58.0803 39.4504 58.5061 39.2238 58.7873 38.7707C59.0725 38.3176 59.2151 37.7199 59.2151 36.9777C59.2151 36.3176 59.0725 35.7707 58.7873 35.3371C58.5061 34.9035 58.0901 34.6867 57.5393 34.6867C57.0588 34.6867 56.637 34.8644 56.2737 35.2199C55.9143 35.5754 55.7346 36.1613 55.7346 36.9777C55.7346 37.5676 55.8088 38.0461 55.9573 38.4133C56.2346 39.1047 56.7522 39.4504 57.51 39.4504ZM64.2628 33.7668C64.7081 33.7668 65.1398 33.8723 65.5577 34.0832C65.9757 34.2902 66.2941 34.5598 66.5128 34.8918C66.7238 35.2082 66.8644 35.5773 66.9347 35.9992C66.9972 36.2883 67.0284 36.7492 67.0284 37.382H62.4288C62.4484 38.0187 62.5988 38.5305 62.88 38.9172C63.1613 39.3 63.5968 39.4914 64.1866 39.4914C64.7374 39.4914 65.1769 39.3098 65.505 38.9465C65.6925 38.7355 65.8253 38.4914 65.9034 38.2141H66.9405C66.9132 38.4445 66.8214 38.7023 66.6652 38.9875C66.5128 39.2687 66.3409 39.4992 66.1495 39.6789C65.8292 39.9914 65.4327 40.2023 64.9601 40.3117C64.7062 40.3742 64.4191 40.4055 64.0988 40.4055C63.3175 40.4055 62.6554 40.1223 62.1124 39.5559C61.5695 38.9855 61.298 38.1887 61.298 37.1652C61.298 36.1574 61.5714 35.3391 62.1183 34.7102C62.6652 34.0812 63.38 33.7668 64.2628 33.7668ZM65.9445 36.5441C65.9015 36.0871 65.8019 35.7219 65.6456 35.4484C65.3566 34.9406 64.8741 34.6867 64.1984 34.6867C63.714 34.6867 63.3077 34.8625 62.9796 35.2141C62.6515 35.5617 62.4777 36.0051 62.4581 36.5441H65.9445ZM68.4785 33.9074H69.4805V34.9914C69.5625 34.7805 69.7637 34.5246 70.084 34.2238C70.4043 33.9191 70.7734 33.7668 71.1914 33.7668C71.2109 33.7668 71.2441 33.7687 71.291 33.7727C71.3379 33.7766 71.418 33.7844 71.5312 33.7961V34.9094C71.4688 34.8977 71.4102 34.8898 71.3555 34.8859C71.3047 34.882 71.248 34.8801 71.1855 34.8801C70.6543 34.8801 70.2461 35.0519 69.9609 35.3957C69.6758 35.7355 69.5332 36.1281 69.5332 36.5734V40.1828H68.4785V33.9074ZM76.0545 33.9074H77.0564V34.9914C77.1384 34.7805 77.3396 34.5246 77.6599 34.2238C77.9802 33.9191 78.3494 33.7668 78.7673 33.7668C78.7869 33.7668 78.8201 33.7687 78.867 33.7727C78.9138 33.7766 78.9939 33.7844 79.1072 33.7961V34.9094C79.0447 34.8977 78.9861 34.8898 78.9314 34.8859C78.8806 34.882 78.824 34.8801 78.7615 34.8801C78.2302 34.8801 77.822 35.0519 77.5369 35.3957C77.2517 35.7355 77.1091 36.1281 77.1091 36.5734V40.1828H76.0545V33.9074ZM80.1413 33.9367H81.2135V40.1828H80.1413V33.9367ZM80.1413 31.5754H81.2135V32.7707H80.1413V31.5754ZM82.9331 33.9074H83.9351V34.798C84.232 34.4309 84.5464 34.1672 84.8784 34.007C85.2105 33.8469 85.5796 33.7668 85.9859 33.7668C86.8765 33.7668 87.4781 34.0773 87.7906 34.6984C87.9624 35.0383 88.0484 35.5246 88.0484 36.1574V40.1828H86.9761V36.2277C86.9761 35.8449 86.9195 35.5363 86.8062 35.3019C86.6187 34.9113 86.2788 34.716 85.7866 34.716C85.5366 34.716 85.3316 34.7414 85.1714 34.7922C84.8823 34.8781 84.6284 35.05 84.4097 35.3078C84.2339 35.5148 84.1187 35.7297 84.064 35.9523C84.0132 36.1711 83.9878 36.4855 83.9878 36.8957V40.1828H82.9331V33.9074ZM91.9477 33.7961C92.4398 33.7961 92.8695 33.9172 93.2367 34.1594C93.4359 34.2961 93.6391 34.4953 93.8461 34.757V33.966H94.8188V39.673C94.8188 40.4699 94.7016 41.0988 94.4672 41.5598C94.0297 42.4113 93.2035 42.8371 91.9887 42.8371C91.3129 42.8371 90.7445 42.6848 90.2836 42.3801C89.8227 42.0793 89.5648 41.6066 89.5102 40.9621H90.5824C90.6332 41.2434 90.7348 41.4602 90.8871 41.6125C91.1254 41.8469 91.5004 41.9641 92.0121 41.9641C92.8207 41.9641 93.35 41.6789 93.6 41.1086C93.7484 40.7727 93.8168 40.173 93.8051 39.3098C93.5941 39.6301 93.3402 39.8684 93.0434 40.0246C92.7465 40.1809 92.3539 40.259 91.8656 40.259C91.1859 40.259 90.5902 40.0187 90.0785 39.5383C89.5707 39.0539 89.3168 38.2551 89.3168 37.1418C89.3168 36.091 89.5727 35.2707 90.0844 34.6809C90.6 34.091 91.2211 33.7961 91.9477 33.7961ZM93.8461 37.0187C93.8461 36.2414 93.6859 35.6652 93.3656 35.2902C93.0453 34.9152 92.6371 34.7277 92.141 34.7277C91.3988 34.7277 90.891 35.0754 90.6176 35.7707C90.4731 36.1418 90.4008 36.6281 90.4008 37.2297C90.4008 37.9367 90.5434 38.4758 90.8285 38.8469C91.1176 39.2141 91.5043 39.3977 91.9887 39.3977C92.7465 39.3977 93.2797 39.0559 93.5883 38.3723C93.7602 37.9855 93.8461 37.5344 93.8461 37.0187Z" fill="#DBDBDB"/>
</svg>
