<svg width="133" height="62" viewBox="0 0 133 62" fill="none" xmlns="http://www.w3.org/2000/svg">
<path fill-rule="evenodd" clip-rule="evenodd" d="M52.0235 9.58056L60.4211 0.916404C60.4997 0.83533 60.6297 0.83533 60.7083 0.916404L69.1059 9.58056H131C131.552 9.58056 132 10.0283 132 10.5806V59.8523C132 60.4046 131.552 60.8523 131 60.8523H2.55294C2.00065 60.8523 1.55294 60.4046 1.55294 59.8523V10.5806C1.55294 10.0283 2.00066 9.58056 2.55294 9.58056H52.0235Z" fill="#565656"/>
<path d="M60.4211 0.916404L60.7801 1.26439L60.7801 1.26439L60.4211 0.916404ZM52.0235 9.58056V10.0806H52.2352L52.3826 9.92855L52.0235 9.58056ZM60.7083 0.916404L60.3493 1.26439L60.3493 1.26439L60.7083 0.916404ZM69.1059 9.58056L68.7468 9.92855L68.8942 10.0806H69.1059V9.58056ZM60.0621 0.568418L51.6645 9.23257L52.3826 9.92855L60.7801 1.26439L60.0621 0.568418ZM61.0674 0.568418C60.7923 0.284657 60.3371 0.28466 60.0621 0.568418L60.7801 1.26439C60.6623 1.386 60.4672 1.386 60.3493 1.26439L61.0674 0.568418ZM69.4649 9.23257L61.0674 0.568417L60.3493 1.26439L68.7468 9.92855L69.4649 9.23257ZM69.1059 10.0806H131V9.08056H69.1059V10.0806ZM131 10.0806C131.276 10.0806 131.5 10.3044 131.5 10.5806H132.5C132.5 9.75214 131.828 9.08056 131 9.08056V10.0806ZM131.5 10.5806V59.8523H132.5V10.5806H131.5ZM131.5 59.8523C131.5 60.1285 131.276 60.3523 131 60.3523V61.3523C131.828 61.3523 132.5 60.6807 132.5 59.8523H131.5ZM131 60.3523H2.55294V61.3523H131V60.3523ZM2.55294 60.3523C2.2768 60.3523 2.05294 60.1285 2.05294 59.8523H1.05294C1.05294 60.6807 1.72451 61.3523 2.55294 61.3523V60.3523ZM2.05294 59.8523V10.5806H1.05294V59.8523H2.05294ZM2.05294 10.5806C2.05294 10.3044 2.2768 10.0806 2.55294 10.0806V9.08056C1.72451 9.08056 1.05294 9.75214 1.05294 10.5806H2.05294ZM2.55294 10.0806H52.0235V9.08056H2.55294V10.0806Z" fill="#565656"/>
<path d="M27.4901 33.7668C27.9354 33.7668 28.367 33.8723 28.785 34.0832C29.203 34.2902 29.5213 34.5598 29.7401 34.8918C29.951 35.2082 30.0916 35.5773 30.162 35.9992C30.2245 36.2883 30.2557 36.7492 30.2557 37.382H25.6561C25.6756 38.0187 25.826 38.5305 26.1073 38.9172C26.3885 39.3 26.8241 39.4914 27.4139 39.4914C27.9647 39.4914 28.4041 39.3098 28.7323 38.9465C28.9198 38.7355 29.0526 38.4914 29.1307 38.2141H30.1678C30.1405 38.4445 30.0487 38.7023 29.8924 38.9875C29.7401 39.2687 29.5682 39.4992 29.3768 39.6789C29.0565 39.9914 28.66 40.2023 28.1873 40.3117C27.9334 40.3742 27.6463 40.4055 27.326 40.4055C26.5448 40.4055 25.8827 40.1223 25.3397 39.5559C24.7967 38.9855 24.5252 38.1887 24.5252 37.1652C24.5252 36.1574 24.7987 35.3391 25.3455 34.7102C25.8924 34.0812 26.6073 33.7668 27.4901 33.7668ZM29.1717 36.5441C29.1287 36.0871 29.0291 35.7219 28.8729 35.4484C28.5838 34.9406 28.1014 34.6867 27.4256 34.6867C26.9412 34.6867 26.535 34.8625 26.2069 35.2141C25.8787 35.5617 25.7049 36.0051 25.6854 36.5441H29.1717ZM31.7058 31.5754H32.7605V40.1828H31.7058V31.5754ZM37.0816 33.7668C37.527 33.7668 37.9586 33.8723 38.3766 34.0832C38.7945 34.2902 39.1129 34.5598 39.3316 34.8918C39.5426 35.2082 39.6832 35.5773 39.7535 35.9992C39.816 36.2883 39.8473 36.7492 39.8473 37.382H35.2477C35.2672 38.0187 35.4176 38.5305 35.6988 38.9172C35.9801 39.3 36.4156 39.4914 37.0055 39.4914C37.5563 39.4914 37.9957 39.3098 38.3238 38.9465C38.5113 38.7355 38.6441 38.4914 38.7223 38.2141H39.7594C39.732 38.4445 39.6402 38.7023 39.484 38.9875C39.3316 39.2687 39.1598 39.4992 38.9684 39.6789C38.648 39.9914 38.2516 40.2023 37.7789 40.3117C37.525 40.3742 37.2379 40.4055 36.9176 40.4055C36.1363 40.4055 35.4742 40.1223 34.9313 39.5559C34.3883 38.9855 34.1168 38.1887 34.1168 37.1652C34.1168 36.1574 34.3902 35.3391 34.9371 34.7102C35.484 34.0812 36.1988 33.7668 37.0816 33.7668ZM38.7633 36.5441C38.7203 36.0871 38.6207 35.7219 38.4645 35.4484C38.1754 34.9406 37.693 34.6867 37.0172 34.6867C36.5328 34.6867 36.1266 34.8625 35.7984 35.2141C35.4703 35.5617 35.2965 36.0051 35.277 36.5441H38.7633ZM43.688 33.7258C44.395 33.7258 44.9692 33.8977 45.4106 34.2414C45.8559 34.5852 46.1235 35.1769 46.2134 36.0168H45.188C45.1255 35.6301 44.9829 35.3098 44.7602 35.0559C44.5376 34.798 44.1802 34.6691 43.688 34.6691C43.0161 34.6691 42.5356 34.9973 42.2466 35.6535C42.0591 36.0793 41.9653 36.6047 41.9653 37.2297C41.9653 37.8586 42.0981 38.3879 42.3638 38.8176C42.6294 39.2473 43.0473 39.4621 43.6177 39.4621C44.0552 39.4621 44.4009 39.3293 44.6548 39.0637C44.9126 38.7941 45.0903 38.4269 45.188 37.9621H46.2134C46.0962 38.7941 45.8032 39.4035 45.3345 39.7902C44.8657 40.173 44.2661 40.3644 43.5356 40.3644C42.7153 40.3644 42.061 40.0656 41.5727 39.468C41.0845 38.8664 40.8403 38.1164 40.8403 37.218C40.8403 36.1164 41.1079 35.259 41.643 34.6457C42.1782 34.0324 42.8598 33.7258 43.688 33.7258ZM47.599 32.1555H48.6654V33.9074H49.6673V34.7687H48.6654V38.8644C48.6654 39.0832 48.7396 39.2297 48.888 39.3039C48.9701 39.3469 49.1068 39.3684 49.2982 39.3684C49.349 39.3684 49.4037 39.3684 49.4623 39.3684C49.5209 39.3644 49.5892 39.3586 49.6673 39.3508V40.1828C49.5462 40.218 49.4193 40.2434 49.2865 40.259C49.1576 40.2746 49.017 40.2824 48.8646 40.2824C48.3724 40.2824 48.0384 40.1574 47.8627 39.9074C47.6869 39.6535 47.599 39.3254 47.599 38.923V34.7687H46.7494V33.9074H47.599V32.1555ZM50.8772 33.9074H51.8791V34.9914C51.9612 34.7805 52.1623 34.5246 52.4827 34.2238C52.803 33.9191 53.1721 33.7668 53.5901 33.7668C53.6096 33.7668 53.6428 33.7687 53.6897 33.7727C53.7366 33.7766 53.8166 33.7844 53.9299 33.7961V34.9094C53.8674 34.8977 53.8088 34.8898 53.7541 34.8859C53.7034 34.882 53.6467 34.8801 53.5842 34.8801C53.053 34.8801 52.6448 35.0519 52.3596 35.3957C52.0745 35.7355 51.9319 36.1281 51.9319 36.5734V40.1828H50.8772V33.9074ZM57.4542 39.5031C58.1534 39.5031 58.632 39.2394 58.8898 38.7121C59.1515 38.1809 59.2823 37.591 59.2823 36.9426C59.2823 36.3566 59.1886 35.8801 59.0011 35.5129C58.7042 34.9348 58.1925 34.6457 57.4659 34.6457C56.8214 34.6457 56.3527 34.8918 56.0597 35.384C55.7667 35.8762 55.6202 36.4699 55.6202 37.1652C55.6202 37.8332 55.7667 38.3898 56.0597 38.8352C56.3527 39.2805 56.8175 39.5031 57.4542 39.5031ZM57.4952 33.7258C58.3038 33.7258 58.9874 33.9953 59.546 34.5344C60.1046 35.0734 60.3839 35.8664 60.3839 36.9133C60.3839 37.925 60.1378 38.7609 59.6456 39.4211C59.1534 40.0812 58.3898 40.4113 57.3546 40.4113C56.4913 40.4113 55.8058 40.1203 55.298 39.5383C54.7902 38.9523 54.5363 38.1672 54.5363 37.1828C54.5363 36.1281 54.8038 35.2883 55.339 34.6633C55.8741 34.0383 56.5929 33.7258 57.4952 33.7258ZM61.7637 33.9074H62.7656V34.798C63.0625 34.4309 63.377 34.1672 63.709 34.007C64.041 33.8469 64.4102 33.7668 64.8164 33.7668C65.707 33.7668 66.3086 34.0773 66.6211 34.6984C66.793 35.0383 66.8789 35.5246 66.8789 36.1574V40.1828H65.8066V36.2277C65.8066 35.8449 65.75 35.5363 65.6367 35.3019C65.4492 34.9113 65.1094 34.716 64.6172 34.716C64.3672 34.716 64.1621 34.7414 64.002 34.7922C63.7129 34.8781 63.459 35.05 63.2402 35.3078C63.0645 35.5148 62.9492 35.7297 62.8945 35.9523C62.8438 36.1711 62.8184 36.4855 62.8184 36.8957V40.1828H61.7637V33.9074ZM68.5634 33.9367H69.6356V40.1828H68.5634V33.9367ZM68.5634 31.5754H69.6356V32.7707H68.5634V31.5754ZM73.7752 33.7258C74.4822 33.7258 75.0564 33.8977 75.4978 34.2414C75.9431 34.5852 76.2107 35.1769 76.3006 36.0168H75.2752C75.2127 35.6301 75.0701 35.3098 74.8474 35.0559C74.6248 34.798 74.2673 34.6691 73.7752 34.6691C73.1033 34.6691 72.6228 34.9973 72.3338 35.6535C72.1463 36.0793 72.0525 36.6047 72.0525 37.2297C72.0525 37.8586 72.1853 38.3879 72.4509 38.8176C72.7166 39.2473 73.1345 39.4621 73.7048 39.4621C74.1423 39.4621 74.4881 39.3293 74.742 39.0637C74.9998 38.7941 75.1775 38.4269 75.2752 37.9621H76.3006C76.1834 38.7941 75.8904 39.4035 75.4216 39.7902C74.9529 40.173 74.3533 40.3644 73.6228 40.3644C72.8025 40.3644 72.1482 40.0656 71.6599 39.468C71.1716 38.8664 70.9275 38.1164 70.9275 37.218C70.9275 36.1164 71.1951 35.259 71.7302 34.6457C72.2654 34.0324 72.947 33.7258 73.7752 33.7258ZM80.853 31.5461H81.8784V34.6691C82.1089 34.3684 82.3843 34.1398 82.7046 33.9836C83.0249 33.8234 83.3726 33.7434 83.7476 33.7434C84.5288 33.7434 85.1616 34.0129 85.646 34.5519C86.1343 35.0871 86.3784 35.8781 86.3784 36.925C86.3784 37.9172 86.1382 38.7414 85.6577 39.3977C85.1773 40.0539 84.5112 40.382 83.6597 40.382C83.1831 40.382 82.7808 40.2668 82.4527 40.0363C82.2573 39.8996 82.0484 39.6809 81.8257 39.3801V40.1828H80.853V31.5461ZM83.5952 39.4504C84.1655 39.4504 84.5913 39.2238 84.8726 38.7707C85.1577 38.3176 85.3003 37.7199 85.3003 36.9777C85.3003 36.3176 85.1577 35.7707 84.8726 35.3371C84.5913 34.9035 84.1753 34.6867 83.6245 34.6867C83.1441 34.6867 82.7222 34.8644 82.3589 35.2199C81.9995 35.5754 81.8198 36.1613 81.8198 36.9777C81.8198 37.5676 81.8941 38.0461 82.0425 38.4133C82.3198 39.1047 82.8374 39.4504 83.5952 39.4504ZM90.225 39.5031C90.9242 39.5031 91.4027 39.2394 91.6605 38.7121C91.9223 38.1809 92.0531 37.591 92.0531 36.9426C92.0531 36.3566 91.9594 35.8801 91.7719 35.5129C91.475 34.9348 90.9633 34.6457 90.2367 34.6457C89.5922 34.6457 89.1234 34.8918 88.8305 35.384C88.5375 35.8762 88.391 36.4699 88.391 37.1652C88.391 37.8332 88.5375 38.3898 88.8305 38.8352C89.1234 39.2805 89.5883 39.5031 90.225 39.5031ZM90.266 33.7258C91.0746 33.7258 91.7582 33.9953 92.3168 34.5344C92.8754 35.0734 93.1547 35.8664 93.1547 36.9133C93.1547 37.925 92.9086 38.7609 92.4164 39.4211C91.9242 40.0812 91.1605 40.4113 90.1254 40.4113C89.2621 40.4113 88.5766 40.1203 88.0687 39.5383C87.5609 38.9523 87.307 38.1672 87.307 37.1828C87.307 36.1281 87.5746 35.2883 88.1098 34.6633C88.6449 34.0383 89.3637 33.7258 90.266 33.7258ZM95.343 38.5129C95.343 38.8176 95.4544 39.0578 95.677 39.2336C95.8997 39.4094 96.1634 39.4973 96.468 39.4973C96.8391 39.4973 97.1985 39.4113 97.5462 39.2394C98.1321 38.9543 98.4251 38.4875 98.4251 37.8391V36.9894C98.2962 37.0715 98.1302 37.1398 97.927 37.1945C97.7239 37.2492 97.5247 37.2883 97.3294 37.3117L96.6907 37.3937C96.3079 37.4445 96.0208 37.5246 95.8294 37.634C95.5052 37.8176 95.343 38.1105 95.343 38.5129ZM97.8977 36.3801C98.1399 36.3488 98.302 36.2473 98.3841 36.0754C98.4309 35.9816 98.4544 35.8469 98.4544 35.6711C98.4544 35.3117 98.3255 35.0519 98.0677 34.8918C97.8138 34.7277 97.4485 34.6457 96.972 34.6457C96.4212 34.6457 96.0305 34.7941 95.8001 35.091C95.6712 35.2551 95.5872 35.4992 95.5481 35.8234H94.5638C94.5833 35.05 94.8333 34.5129 95.3138 34.2121C95.7981 33.9074 96.3587 33.7551 96.9954 33.7551C97.7337 33.7551 98.3333 33.8957 98.7942 34.1769C99.2513 34.4582 99.4798 34.8957 99.4798 35.4894V39.1047C99.4798 39.2141 99.5013 39.3019 99.5442 39.3684C99.5911 39.4348 99.6868 39.468 99.8313 39.468C99.8782 39.468 99.9309 39.466 99.9895 39.4621C100.048 39.4543 100.111 39.4445 100.177 39.4328V40.2121C100.013 40.259 99.888 40.2883 99.802 40.3C99.7161 40.3117 99.5989 40.3176 99.4505 40.3176C99.0872 40.3176 98.8235 40.1887 98.6595 39.9309C98.5735 39.7941 98.513 39.6008 98.4778 39.3508C98.263 39.632 97.9544 39.8762 97.552 40.0832C97.1497 40.2902 96.7063 40.3937 96.222 40.3937C95.6399 40.3937 95.1634 40.218 94.7923 39.8664C94.4251 39.5109 94.2415 39.0676 94.2415 38.5363C94.2415 37.9543 94.4231 37.5031 94.7864 37.1828C95.1497 36.8625 95.6263 36.6652 96.2161 36.591L97.8977 36.3801ZM101.363 33.9074H102.365V34.9914C102.447 34.7805 102.649 34.5246 102.969 34.2238C103.289 33.9191 103.658 33.7668 104.076 33.7668C104.096 33.7668 104.129 33.7687 104.176 33.7727C104.223 33.7766 104.303 33.7844 104.416 33.7961V34.9094C104.354 34.8977 104.295 34.8898 104.24 34.8859C104.19 34.882 104.133 34.8801 104.07 34.8801C103.539 34.8801 103.131 35.0519 102.846 35.3957C102.561 35.7355 102.418 36.1281 102.418 36.5734V40.1828H101.363V33.9074ZM106.118 37.1184C106.118 37.7902 106.261 38.3527 106.546 38.8059C106.831 39.259 107.288 39.4855 107.917 39.4855C108.405 39.4855 108.806 39.2766 109.118 38.8586C109.435 38.4367 109.593 37.8332 109.593 37.048C109.593 36.2551 109.431 35.6691 109.106 35.2902C108.782 34.9074 108.382 34.716 107.905 34.716C107.374 34.716 106.942 34.9191 106.61 35.3254C106.282 35.7316 106.118 36.3293 106.118 37.1184ZM107.706 33.7961C108.187 33.7961 108.589 33.8977 108.913 34.1008C109.101 34.218 109.314 34.423 109.552 34.716V31.5461H110.565V40.1828H109.616V39.3098C109.37 39.6965 109.079 39.9758 108.743 40.1477C108.407 40.3195 108.022 40.4055 107.589 40.4055C106.89 40.4055 106.284 40.1125 105.772 39.5266C105.261 38.9367 105.005 38.1535 105.005 37.1769C105.005 36.2629 105.237 35.4719 105.702 34.8039C106.171 34.132 106.839 33.7961 107.706 33.7961Z" fill="#DBDBDB"/>
</svg>
