<svg width="133" height="62" viewBox="0 0 133 62" fill="none" xmlns="http://www.w3.org/2000/svg">
<path fill-rule="evenodd" clip-rule="evenodd" d="M52.0235 9.58056L60.4211 0.916404C60.4997 0.83533 60.6297 0.83533 60.7083 0.916404L69.1059 9.58056H131C131.552 9.58056 132 10.0283 132 10.5806V59.8523C132 60.4046 131.552 60.8523 131 60.8523H2.55294C2.00065 60.8523 1.55294 60.4046 1.55294 59.8523V10.5806C1.55294 10.0283 2.00066 9.58056 2.55294 9.58056H52.0235Z" fill="#565656"/>
<path d="M60.4211 0.916404L60.7801 1.26439L60.7801 1.26439L60.4211 0.916404ZM52.0235 9.58056V10.0806H52.2352L52.3826 9.92855L52.0235 9.58056ZM60.7083 0.916404L60.3493 1.26439L60.3493 1.26439L60.7083 0.916404ZM69.1059 9.58056L68.7468 9.92855L68.8942 10.0806H69.1059V9.58056ZM60.0621 0.568418L51.6645 9.23257L52.3826 9.92855L60.7801 1.26439L60.0621 0.568418ZM61.0674 0.568418C60.7923 0.284657 60.3371 0.28466 60.0621 0.568418L60.7801 1.26439C60.6623 1.386 60.4672 1.386 60.3493 1.26439L61.0674 0.568418ZM69.4649 9.23257L61.0674 0.568417L60.3493 1.26439L68.7468 9.92855L69.4649 9.23257ZM69.1059 10.0806H131V9.08056H69.1059V10.0806ZM131 10.0806C131.276 10.0806 131.5 10.3044 131.5 10.5806H132.5C132.5 9.75214 131.828 9.08056 131 9.08056V10.0806ZM131.5 10.5806V59.8523H132.5V10.5806H131.5ZM131.5 59.8523C131.5 60.1285 131.276 60.3523 131 60.3523V61.3523C131.828 61.3523 132.5 60.6807 132.5 59.8523H131.5ZM131 60.3523H2.55294V61.3523H131V60.3523ZM2.55294 60.3523C2.2768 60.3523 2.05294 60.1285 2.05294 59.8523H1.05294C1.05294 60.6807 1.72451 61.3523 2.55294 61.3523V60.3523ZM2.05294 59.8523V10.5806H1.05294V59.8523H2.05294ZM2.05294 10.5806C2.05294 10.3044 2.2768 10.0806 2.55294 10.0806V9.08056C1.72451 9.08056 1.05294 9.75214 1.05294 10.5806H2.05294ZM2.55294 10.0806H52.0235V9.08056H2.55294V10.0806Z" fill="#565656"/>
<path d="M45.9335 33.7668C46.3788 33.7668 46.8105 33.8723 47.2284 34.0832C47.6464 34.2902 47.9648 34.5598 48.1835 34.8918C48.3945 35.2082 48.5351 35.5773 48.6054 35.9992C48.6679 36.2883 48.6991 36.7492 48.6991 37.382H44.0995C44.1191 38.0187 44.2695 38.5305 44.5507 38.9172C44.832 39.3 45.2675 39.4914 45.8573 39.4914C46.4081 39.4914 46.8476 39.3098 47.1757 38.9465C47.3632 38.7355 47.496 38.4914 47.5741 38.2141H48.6113C48.5839 38.4445 48.4921 38.7023 48.3359 38.9875C48.1835 39.2687 48.0116 39.4992 47.8202 39.6789C47.4999 39.9914 47.1034 40.2023 46.6308 40.3117C46.3769 40.3742 46.0898 40.4055 45.7695 40.4055C44.9882 40.4055 44.3261 40.1223 43.7831 39.5559C43.2402 38.9855 42.9687 38.1887 42.9687 37.1652C42.9687 36.1574 43.2421 35.3391 43.789 34.7102C44.3359 34.0812 45.0507 33.7668 45.9335 33.7668ZM47.6152 36.5441C47.5722 36.0871 47.4726 35.7219 47.3163 35.4484C47.0273 34.9406 46.5448 34.6867 45.8691 34.6867C45.3847 34.6867 44.9784 34.8625 44.6503 35.2141C44.3222 35.5617 44.1484 36.0051 44.1288 36.5441H47.6152ZM50.9285 38.5129C50.9285 38.8176 51.0398 39.0578 51.2625 39.2336C51.4852 39.4094 51.7488 39.4973 52.0535 39.4973C52.4246 39.4973 52.784 39.4113 53.1316 39.2394C53.7176 38.9543 54.0105 38.4875 54.0105 37.8391V36.9894C53.8816 37.0715 53.7156 37.1398 53.5125 37.1945C53.3094 37.2492 53.1102 37.2883 52.9148 37.3117L52.2762 37.3937C51.8934 37.4445 51.6063 37.5246 51.4148 37.634C51.0906 37.8176 50.9285 38.1105 50.9285 38.5129ZM53.4832 36.3801C53.7254 36.3488 53.8875 36.2473 53.9695 36.0754C54.0164 35.9816 54.0398 35.8469 54.0398 35.6711C54.0398 35.3117 53.9109 35.0519 53.6531 34.8918C53.3992 34.7277 53.034 34.6457 52.5574 34.6457C52.0066 34.6457 51.616 34.7941 51.3855 35.091C51.2566 35.2551 51.1727 35.4992 51.1336 35.8234H50.1492C50.1688 35.05 50.4188 34.5129 50.8992 34.2121C51.3836 33.9074 51.9441 33.7551 52.5809 33.7551C53.3191 33.7551 53.9188 33.8957 54.3797 34.1769C54.8367 34.4582 55.0652 34.8957 55.0652 35.4894V39.1047C55.0652 39.2141 55.0867 39.3019 55.1297 39.3684C55.1766 39.4348 55.2723 39.468 55.4168 39.468C55.4637 39.468 55.5164 39.466 55.575 39.4621C55.6336 39.4543 55.6961 39.4445 55.7625 39.4328V40.2121C55.5984 40.259 55.4734 40.2883 55.3875 40.3C55.3016 40.3117 55.1844 40.3176 55.0359 40.3176C54.6727 40.3176 54.409 40.1887 54.2449 39.9309C54.159 39.7941 54.0984 39.6008 54.0633 39.3508C53.8484 39.632 53.5398 39.8762 53.1375 40.0832C52.7352 40.2902 52.2918 40.3937 51.8074 40.3937C51.2254 40.3937 50.7488 40.218 50.3777 39.8664C50.0105 39.5109 49.827 39.0676 49.827 38.5363C49.827 37.9543 50.0086 37.5031 50.3719 37.1828C50.7352 36.8625 51.2117 36.6652 51.8016 36.591L53.4832 36.3801ZM56.9489 33.9074H57.9509V34.9914C58.0329 34.7805 58.2341 34.5246 58.5544 34.2238C58.8747 33.9191 59.2438 33.7668 59.6618 33.7668C59.6813 33.7668 59.7145 33.7687 59.7614 33.7727C59.8083 33.7766 59.8884 33.7844 60.0016 33.7961V34.9094C59.9391 34.8977 59.8805 34.8898 59.8259 34.8859C59.7751 34.882 59.7184 34.8801 59.6559 34.8801C59.1247 34.8801 58.7165 35.0519 58.4313 35.3957C58.1462 35.7355 58.0036 36.1281 58.0036 36.5734V40.1828H56.9489V33.9074ZM63.6841 39.4738C64.1763 39.4738 64.5845 39.2687 64.9088 38.8586C65.2369 38.4445 65.4009 37.8273 65.4009 37.007C65.4009 36.507 65.3287 36.0773 65.1841 35.718C64.9107 35.0266 64.4107 34.6809 63.6841 34.6809C62.9537 34.6809 62.4537 35.0461 62.1841 35.7766C62.0396 36.1672 61.9673 36.6633 61.9673 37.2648C61.9673 37.7492 62.0396 38.1613 62.1841 38.5012C62.4576 39.1496 62.9576 39.4738 63.6841 39.4738ZM60.9537 33.9367H61.9791V34.7687C62.19 34.4836 62.4205 34.2629 62.6705 34.1066C63.0259 33.8723 63.4439 33.7551 63.9244 33.7551C64.6353 33.7551 65.2388 34.0285 65.7349 34.5754C66.231 35.1184 66.4791 35.8957 66.4791 36.9074C66.4791 38.2746 66.1216 39.2512 65.4068 39.8371C64.9537 40.2082 64.4263 40.3937 63.8248 40.3937C63.3521 40.3937 62.9556 40.2902 62.6353 40.0832C62.4478 39.966 62.2388 39.7648 62.0084 39.4797V42.6848H60.9537V33.9367ZM67.8354 33.9367H68.9077V40.1828H67.8354V33.9367ZM67.8354 31.5754H68.9077V32.7707H67.8354V31.5754ZM73.2405 33.7668C73.6859 33.7668 74.1175 33.8723 74.5355 34.0832C74.9534 34.2902 75.2718 34.5598 75.4905 34.8918C75.7015 35.2082 75.8421 35.5773 75.9124 35.9992C75.9749 36.2883 76.0062 36.7492 76.0062 37.382H71.4066C71.4261 38.0187 71.5765 38.5305 71.8577 38.9172C72.139 39.3 72.5745 39.4914 73.1644 39.4914C73.7152 39.4914 74.1546 39.3098 74.4827 38.9465C74.6702 38.7355 74.803 38.4914 74.8812 38.2141H75.9183C75.8909 38.4445 75.7991 38.7023 75.6429 38.9875C75.4905 39.2687 75.3187 39.4992 75.1273 39.6789C74.807 39.9914 74.4105 40.2023 73.9378 40.3117C73.6839 40.3742 73.3968 40.4055 73.0765 40.4055C72.2952 40.4055 71.6331 40.1223 71.0902 39.5559C70.5472 38.9855 70.2757 38.1887 70.2757 37.1652C70.2757 36.1574 70.5491 35.3391 71.096 34.7102C71.6429 34.0812 72.3577 33.7668 73.2405 33.7668ZM74.9222 36.5441C74.8792 36.0871 74.7796 35.7219 74.6234 35.4484C74.3343 34.9406 73.8519 34.6867 73.1761 34.6867C72.6917 34.6867 72.2855 34.8625 71.9573 35.2141C71.6292 35.5617 71.4554 36.0051 71.4359 36.5441H74.9222ZM79.8469 33.7258C80.5539 33.7258 81.1281 33.8977 81.5695 34.2414C82.0148 34.5852 82.2824 35.1769 82.3723 36.0168H81.3469C81.2844 35.6301 81.1418 35.3098 80.9191 35.0559C80.6965 34.798 80.3391 34.6691 79.8469 34.6691C79.175 34.6691 78.6945 34.9973 78.4055 35.6535C78.218 36.0793 78.1242 36.6047 78.1242 37.2297C78.1242 37.8586 78.257 38.3879 78.5227 38.8176C78.7883 39.2473 79.2063 39.4621 79.7766 39.4621C80.2141 39.4621 80.5598 39.3293 80.8137 39.0637C81.0715 38.7941 81.2492 38.4269 81.3469 37.9621H82.3723C82.2551 38.7941 81.9621 39.4035 81.4934 39.7902C81.0246 40.173 80.425 40.3644 79.6945 40.3644C78.8742 40.3644 78.2199 40.0656 77.7316 39.468C77.2434 38.8664 76.9992 38.1164 76.9992 37.218C76.9992 36.1164 77.2668 35.259 77.802 34.6457C78.3371 34.0324 79.0188 33.7258 79.8469 33.7258ZM86.1602 33.7668C86.6055 33.7668 87.0372 33.8723 87.4552 34.0832C87.8731 34.2902 88.1915 34.5598 88.4102 34.8918C88.6212 35.2082 88.7618 35.5773 88.8321 35.9992C88.8946 36.2883 88.9259 36.7492 88.9259 37.382H84.3262C84.3458 38.0187 84.4962 38.5305 84.7774 38.9172C85.0587 39.3 85.4942 39.4914 86.0841 39.4914C86.6348 39.4914 87.0743 39.3098 87.4024 38.9465C87.5899 38.7355 87.7227 38.4914 87.8009 38.2141H88.838C88.8106 38.4445 88.7188 38.7023 88.5626 38.9875C88.4102 39.2687 88.2384 39.4992 88.047 39.6789C87.7266 39.9914 87.3302 40.2023 86.8575 40.3117C86.6036 40.3742 86.3165 40.4055 85.9962 40.4055C85.2149 40.4055 84.5528 40.1223 84.0098 39.5559C83.4669 38.9855 83.1954 38.1887 83.1954 37.1652C83.1954 36.1574 83.4688 35.3391 84.0157 34.7102C84.5626 34.0812 85.2774 33.7668 86.1602 33.7668ZM87.8419 36.5441C87.7989 36.0871 87.6993 35.7219 87.543 35.4484C87.254 34.9406 86.7716 34.6867 86.0958 34.6867C85.6114 34.6867 85.2052 34.8625 84.877 35.2141C84.5489 35.5617 84.3751 36.0051 84.3555 36.5441H87.8419Z" fill="#DBDBDB"/>
</svg>
