<svg width="46" height="37" viewBox="0 0 46 37" fill="none" xmlns="http://www.w3.org/2000/svg">
<path d="M23 0.531494C14.4221 0.531494 6.55119 3.43078 0.411638 8.11006C0.190719 8.2801 0.0459588 8.53151 0.00920269 8.80898C-0.0275534 9.08645 0.0467058 9.36725 0.215644 9.58961C0.384582 9.81197 0.634361 9.95767 0.910031 9.99467C1.1857 10.0317 1.46468 9.95692 1.6856 9.78688C7.47142 5.37721 14.8902 2.63574 23 2.63574C31.1098 2.63574 38.5286 5.37721 44.3144 9.78688C44.5353 9.95692 44.8143 10.0317 45.09 9.99467C45.3656 9.95767 45.6154 9.81197 45.7844 9.58961C45.9533 9.36725 46.0275 9.08645 45.9908 8.80898C45.954 8.53151 45.8093 8.2801 45.5884 8.11006C39.4488 3.43078 31.5778 0.531494 23 0.531494ZM23 10.5267C16.8533 10.5267 11.1223 12.3994 6.66713 16.0174C6.54386 16.0974 6.4387 16.2027 6.35848 16.3263C6.27827 16.4499 6.2248 16.5891 6.20156 16.7349C6.17831 16.8807 6.1858 17.0298 6.22355 17.1724C6.26129 17.3151 6.32844 17.4482 6.42064 17.563C6.51284 17.6779 6.62801 17.7719 6.75868 17.839C6.88934 17.9061 7.03257 17.9447 7.17906 17.9525C7.32555 17.9602 7.47201 17.9368 7.60892 17.8838C7.74584 17.8308 7.87014 17.7494 7.97376 17.6449C12.0217 14.3576 17.2751 12.6309 23 12.6309C28.7249 12.6309 33.9783 14.3576 38.0262 17.6449C38.1299 17.7494 38.2542 17.8308 38.3911 17.8838C38.528 17.9368 38.6744 17.9602 38.8209 17.9525C38.9674 17.9447 39.1107 17.9061 39.2413 17.839C39.372 17.7719 39.4872 17.6779 39.5794 17.563C39.6716 17.4482 39.7387 17.3151 39.7765 17.1724C39.8142 17.0298 39.8217 16.8807 39.7984 16.7349C39.7752 16.5891 39.7217 16.4499 39.6415 16.3263C39.5613 16.2027 39.4561 16.0974 39.3329 16.0174C34.8777 12.3994 29.1467 10.5267 23 10.5267ZM23 19.9958C19.2465 19.9958 15.6812 21.1789 12.9389 23.3658C12.7216 23.5407 12.5819 23.7951 12.5504 24.0734C12.519 24.3517 12.5983 24.6312 12.7711 24.8507C12.9439 25.0702 13.196 25.212 13.4723 25.2449C13.7487 25.2778 14.0267 25.1991 14.2456 25.0262C16.5865 23.1593 19.6893 22.1 23 22.1C26.3107 22.1 29.4135 23.1593 31.7544 25.0262C31.9733 25.1991 32.2513 25.2778 32.5277 25.2449C32.804 25.212 33.0561 25.0702 33.2289 24.8507C33.4017 24.6312 33.481 24.3517 33.4496 24.0734C33.4181 23.7951 33.2784 23.5407 33.061 23.3658C30.3188 21.1789 26.7535 19.9958 23 19.9958ZM23 29.9909C21.2681 29.9909 19.8641 31.4041 19.8641 33.1473C19.8641 34.8905 21.2681 36.3036 23 36.3036C24.7319 36.3036 26.1359 34.8905 26.1359 33.1473C26.1359 31.4041 24.7319 29.9909 23 29.9909Z" fill="#4F4F4F"/>
</svg>
