<svg width="18" height="18" viewBox="0 0 18 18" fill="none" xmlns="http://www.w3.org/2000/svg">
<path d="M15 0H3C1.3 0 0 1.3 0 3V15C0 16.7 1.3 18 3 18H15C16.7 18 18 16.7 18 15V3C18 1.3 16.7 0 15 0ZM9 6C10.7 6 12 7.3 12 9C12 10.7 10.7 12 9 12C7.3 12 6 10.7 6 9C6 7.3 7.3 6 9 6ZM12.8 4C12.8 3.3 13.4 2.8 14 2.8C14.6 2.8 15.2 3.4 15.2 4C15.2 4.6 14.7 5.2 14 5.2C13.3 5.2 12.8 4.7 12.8 4ZM15 16H3C2.4 16 2 15.6 2 15V9H4C4 11.8 6.2 14 9 14C11.8 14 14 11.8 14 9H16V15C16 15.6 15.6 16 15 16Z" fill="url(#paint0_linear)"/>
<defs>
<linearGradient id="paint0_linear" x1="17" y1="0.5" x2="1" y2="16.5" gradientUnits="userSpaceOnUse">
<stop offset="0.0523704" stop-color="#75429D"/>
<stop offset="0.338542" stop-color="#B63282"/>
<stop offset="0.543874" stop-color="#E2102D"/>
<stop offset="0.775583" stop-color="#F46802"/>
<stop offset="0.984375" stop-color="#EFC300"/>
</linearGradient>
</defs>
</svg>
