<svg width="24" height="24" viewBox="0 0 24 24" fill="none" xmlns="http://www.w3.org/2000/svg">
<path d="M18 2.99902H6C4.3 2.99902 3 4.29081 3 5.98006V17.9042C3 19.5935 4.3 20.8853 6 20.8853H18C19.7 20.8853 21 19.5935 21 17.9042V5.98006C21 4.29081 19.7 2.99902 18 2.99902ZM12 8.9611C13.7 8.9611 15 10.2529 15 11.9421C15 13.6314 13.7 14.9232 12 14.9232C10.3 14.9232 9 13.6314 9 11.9421C9 10.2529 10.3 8.9611 12 8.9611ZM15.8 6.97374C15.8 6.27817 16.4 5.78133 17 5.78133C17.6 5.78133 18.2 6.37753 18.2 6.97374C18.2 7.56995 17.7 8.16616 17 8.16616C16.3 8.16616 15.8 7.66932 15.8 6.97374ZM18 18.8979H6C5.4 18.8979 5 18.5004 5 17.9042V11.9421H7C7 14.7244 9.2 16.9105 12 16.9105C14.8 16.9105 17 14.7244 17 11.9421H19V17.9042C19 18.5004 18.6 18.8979 18 18.8979Z" fill="#4F4F4F"/>
</svg>
