<svg width="161" height="27" viewBox="0 0 161 27" fill="none" xmlns="http://www.w3.org/2000/svg">
<mask id="path-1-inside-1_225_11" fill="white">
<path fill-rule="evenodd" clip-rule="evenodd" d="M7.15845 20.1263C4.41076 20.1263 2.53349 17.8405 2.53349 14.866C2.53349 11.8597 4.46124 9.56191 7.20347 9.56191C8.41223 9.56191 9.68648 10.0069 10.6633 10.7472L11.7629 9.05203C10.4887 7.97267 8.70419 7.37671 7.01247 7.37671C3.02464 7.37671 0 10.628 0 14.9216C0 19.1331 2.92914 22.342 6.92515 22.342C8.63052 22.342 10.5269 21.7513 11.782 20.6905L10.6633 18.9516C9.73287 19.6496 8.41223 20.1263 7.15708 20.1263H7.15845ZM25.6719 12.1034C25.6719 9.48244 23.8751 7.57536 20.785 7.57536H15.8626V22.1301H18.3184V16.6737H20.358L23.313 22.1354H26.2217L22.8656 16.3214C24.6323 15.65 25.6733 14.0872 25.6733 12.1034H25.6719ZM34.0623 7.57536L29.0826 22.1248H31.6448L32.8017 18.4696H38.0979L39.2685 22.1248H41.9643L36.9164 7.57801H34.0514L34.0623 7.57536ZM55.082 9.3765V7.58463H45.199V9.70096H51.9455L44.9548 20.3727V22.1367H55.187V19.9952H48.0654L55.1052 9.38047L55.082 9.3765ZM64.5843 13.6714L61.1735 7.58331H58.3222L63.2882 16.0764V22.1288H65.7576V16.0632L70.8205 7.57536H68.1519L64.5856 13.6674L64.5843 13.6714ZM81.7335 14.4316C82.8112 13.8489 83.4252 12.7933 83.4252 11.3591C83.4252 8.97521 81.7471 7.58463 78.9503 7.58463H74.3117V22.1327H79.7279C82.4702 22.1327 84.2983 20.4243 84.2983 18.014C84.2983 16.1705 83.2069 14.858 81.7062 14.4316H81.7335ZM92.7719 7.58463L87.7923 22.1327H90.3517L91.5113 18.4775H96.8048L97.9781 22.1327H100.679L95.6411 7.58463H92.7856H92.7719ZM112.532 14.4316C113.613 13.8489 114.234 12.7933 114.234 11.3591C114.234 8.97521 112.569 7.58463 109.759 7.58463H105.12V22.1327H110.55C113.292 22.1327 115.134 20.4243 115.134 18.014C115.134 16.1705 114.043 14.858 112.556 14.4316H112.532ZM124.17 13.6714L120.773 7.58463H117.908L122.874 16.0778V22.1341H125.35V16.0645L130.398 7.58463H127.737L124.163 13.6727L124.17 13.6714ZM107.577 9.71818H109.46C110.838 9.71818 111.775 10.2638 111.775 11.6014C111.775 12.988 110.807 13.6409 109.579 13.6409H107.573V9.71818H107.577ZM110.19 19.9873H107.575V15.6831H110.013C111.577 15.6831 112.605 16.3718 112.605 17.8418C112.605 19.3119 111.577 19.9873 110.187 19.9873H110.19ZM92.158 16.4155L94.1499 10.1565L96.169 16.4075H92.158V16.4155ZM76.777 9.71818H78.6597C80.0376 9.71818 80.9735 10.2638 80.9735 11.6014C80.9735 12.988 80.0049 13.6409 78.7825 13.6409H76.777V9.71818ZM79.3896 19.9873H76.7838V15.6831H79.2259C80.7948 15.6831 81.818 16.3718 81.818 17.8418C81.818 19.3119 80.7948 19.9873 79.4032 19.9873H79.3896ZM33.4538 16.4155L35.4457 10.1565L37.4649 16.4075H33.4538V16.4155ZM20.4644 14.5216H18.3225V9.72745H20.4644C22.1111 9.72745 23.1793 10.5393 23.1793 12.1378C23.1793 13.6648 22.2107 14.519 20.4644 14.519V14.5216ZM152.794 4.09097C151.791 3.75988 151.397 3.04472 150.827 2.26335C150.213 1.4243 149.346 0.790455 148.346 0.448975C148.818 1.93226 147.915 3.53474 146.391 3.97178C143.692 4.67661 141.346 6.30432 139.784 8.55525C138.223 10.8062 137.552 13.5288 137.894 16.222C138.237 18.9152 139.57 21.3976 141.649 23.2122C143.727 25.0269 146.411 26.0517 149.206 26.0979C152.001 26.1442 154.719 25.2088 156.86 23.4639C159.001 21.7191 160.421 19.2822 160.857 16.6019C161.294 13.9216 160.719 11.1784 159.238 8.8771C157.756 6.57582 155.469 4.87145 152.795 4.07773L152.794 4.09097ZM149.413 22.1433C148.029 22.1433 146.702 21.6096 145.723 20.6596C144.745 19.7096 144.195 18.4212 144.195 17.0777C144.195 15.7342 144.745 14.4457 145.723 13.4957C146.702 12.5457 148.029 12.012 149.413 12.012C150.797 12.012 152.125 12.5457 153.103 13.4957C154.082 14.4457 154.632 15.7342 154.632 17.0777C154.632 18.4212 154.082 19.7096 153.103 20.6596C152.125 21.6096 150.797 22.1433 149.413 22.1433Z"/>
</mask>
<path fill-rule="evenodd" clip-rule="evenodd" d="M7.15845 20.1263C4.41076 20.1263 2.53349 17.8405 2.53349 14.866C2.53349 11.8597 4.46124 9.56191 7.20347 9.56191C8.41223 9.56191 9.68648 10.0069 10.6633 10.7472L11.7629 9.05203C10.4887 7.97267 8.70419 7.37671 7.01247 7.37671C3.02464 7.37671 0 10.628 0 14.9216C0 19.1331 2.92914 22.342 6.92515 22.342C8.63052 22.342 10.5269 21.7513 11.782 20.6905L10.6633 18.9516C9.73287 19.6496 8.41223 20.1263 7.15708 20.1263H7.15845ZM25.6719 12.1034C25.6719 9.48244 23.8751 7.57536 20.785 7.57536H15.8626V22.1301H18.3184V16.6737H20.358L23.313 22.1354H26.2217L22.8656 16.3214C24.6323 15.65 25.6733 14.0872 25.6733 12.1034H25.6719ZM34.0623 7.57536L29.0826 22.1248H31.6448L32.8017 18.4696H38.0979L39.2685 22.1248H41.9643L36.9164 7.57801H34.0514L34.0623 7.57536ZM55.082 9.3765V7.58463H45.199V9.70096H51.9455L44.9548 20.3727V22.1367H55.187V19.9952H48.0654L55.1052 9.38047L55.082 9.3765ZM64.5843 13.6714L61.1735 7.58331H58.3222L63.2882 16.0764V22.1288H65.7576V16.0632L70.8205 7.57536H68.1519L64.5856 13.6674L64.5843 13.6714ZM81.7335 14.4316C82.8112 13.8489 83.4252 12.7933 83.4252 11.3591C83.4252 8.97521 81.7471 7.58463 78.9503 7.58463H74.3117V22.1327H79.7279C82.4702 22.1327 84.2983 20.4243 84.2983 18.014C84.2983 16.1705 83.2069 14.858 81.7062 14.4316H81.7335ZM92.7719 7.58463L87.7923 22.1327H90.3517L91.5113 18.4775H96.8048L97.9781 22.1327H100.679L95.6411 7.58463H92.7856H92.7719ZM112.532 14.4316C113.613 13.8489 114.234 12.7933 114.234 11.3591C114.234 8.97521 112.569 7.58463 109.759 7.58463H105.12V22.1327H110.55C113.292 22.1327 115.134 20.4243 115.134 18.014C115.134 16.1705 114.043 14.858 112.556 14.4316H112.532ZM124.17 13.6714L120.773 7.58463H117.908L122.874 16.0778V22.1341H125.35V16.0645L130.398 7.58463H127.737L124.163 13.6727L124.17 13.6714ZM107.577 9.71818H109.46C110.838 9.71818 111.775 10.2638 111.775 11.6014C111.775 12.988 110.807 13.6409 109.579 13.6409H107.573V9.71818H107.577ZM110.19 19.9873H107.575V15.6831H110.013C111.577 15.6831 112.605 16.3718 112.605 17.8418C112.605 19.3119 111.577 19.9873 110.187 19.9873H110.19ZM92.158 16.4155L94.1499 10.1565L96.169 16.4075H92.158V16.4155ZM76.777 9.71818H78.6597C80.0376 9.71818 80.9735 10.2638 80.9735 11.6014C80.9735 12.988 80.0049 13.6409 78.7825 13.6409H76.777V9.71818ZM79.3896 19.9873H76.7838V15.6831H79.2259C80.7948 15.6831 81.818 16.3718 81.818 17.8418C81.818 19.3119 80.7948 19.9873 79.4032 19.9873H79.3896ZM33.4538 16.4155L35.4457 10.1565L37.4649 16.4075H33.4538V16.4155ZM20.4644 14.5216H18.3225V9.72745H20.4644C22.1111 9.72745 23.1793 10.5393 23.1793 12.1378C23.1793 13.6648 22.2107 14.519 20.4644 14.519V14.5216ZM152.794 4.09097C151.791 3.75988 151.397 3.04472 150.827 2.26335C150.213 1.4243 149.346 0.790455 148.346 0.448975C148.818 1.93226 147.915 3.53474 146.391 3.97178C143.692 4.67661 141.346 6.30432 139.784 8.55525C138.223 10.8062 137.552 13.5288 137.894 16.222C138.237 18.9152 139.57 21.3976 141.649 23.2122C143.727 25.0269 146.411 26.0517 149.206 26.0979C152.001 26.1442 154.719 25.2088 156.86 23.4639C159.001 21.7191 160.421 19.2822 160.857 16.6019C161.294 13.9216 160.719 11.1784 159.238 8.8771C157.756 6.57582 155.469 4.87145 152.795 4.07773L152.794 4.09097ZM149.413 22.1433C148.029 22.1433 146.702 21.6096 145.723 20.6596C144.745 19.7096 144.195 18.4212 144.195 17.0777C144.195 15.7342 144.745 14.4457 145.723 13.4957C146.702 12.5457 148.029 12.012 149.413 12.012C150.797 12.012 152.125 12.5457 153.103 13.4957C154.082 14.4457 154.632 15.7342 154.632 17.0777C154.632 18.4212 154.082 19.7096 153.103 20.6596C152.125 21.6096 150.797 22.1433 149.413 22.1433Z" fill="black" stroke="black" stroke-width="2" mask="url(#path-1-inside-1_225_11)"/>
</svg>
