<svg version="1.2" xmlns="http://www.w3.org/2000/svg" viewBox="0 0 23 26" width="23" height="26">
	<title>logo-svg</title>
	<defs>
		<clipPath clipPathUnits="userSpaceOnUse" id="cp1">
			<path d="m-130.84 19.95c1.25 0 2.57-0.49 3.5-1.2l1.12 1.77c-1.25 1.07-3.15 1.67-4.85 1.67-4 0-6.93-3.25-6.93-7.52 0-4.35 3.02-7.65 7.01-7.65 1.69 0 3.48 0.61 4.75 1.7l-1.1 1.72c-0.97-0.75-2.25-1.2-3.46-1.2-2.74 0-4.67 2.33-4.67 5.37 0 3.02 1.88 5.34 4.63 5.34zm18.51-8.14c0 2.01-1.04 3.6-2.8 4.28l3.35 5.89h-2.91l-2.95-5.53h-2.04v5.53h-2.46v-14.76h4.92c3.1 0 4.89 1.94 4.89 4.59zm8.39-4.59v0.01h-0.01zm0 0h2.85l5.05 14.74h-2.69l-1.17-3.7h-5.3l-1.16 3.7h-2.56zm21.04 1.83l-7.04 10.76h7.13v2.17h-10.24v-1.79l6.99-10.81h-6.74v-2.15h9.88v1.82zm9.48 4.34l3.57-6.17h2.67l-5.07 8.6v6.15h-2.47v-6.14l-4.96-8.6h2.85l3.41 6.17zm17.12 0.77c1.5 0.43 2.59 1.76 2.59 3.63 0 2.45-1.83 4.18-4.57 4.18h-5.41v-14.75h4.63c2.8 0 4.48 1.41 4.48 3.83 0 1.45-0.61 2.52-1.69 3.11zm13.93-6.94l5.04 14.75h-2.7l-1.17-3.71h-5.3l-1.16 3.71h-2.56l4.98-14.75zm16.92 6.94c1.49 0.43 2.58 1.76 2.58 3.63 0 2.45-1.85 4.18-4.59 4.18h-5.43v-14.75h4.64c2.81 0 4.48 1.41 4.48 3.83 0 1.45-0.62 2.52-1.71 3.11zm11.62-0.77v-0.01l-0.01 0.01zm0 0l3.57-6.17h2.66l-5.05 8.6v6.15h-2.47v-6.14l-4.97-8.61h2.86zm-16.59-4v3.98h2.01c1.22 0 2.19-0.67 2.19-2.07 0-1.36-0.93-1.91-2.31-1.91zm2.61 10.41c1.39 0 2.42-0.69 2.42-2.18 0-1.49-1.03-2.18-2.59-2.18h-2.44v4.36zm-18.03-3.62v-0.01zm0-0.01h4.01l-2.02-6.33zm-15.38-2.81h2c1.23 0 2.2-0.66 2.2-2.06 0-1.36-0.94-1.91-2.32-1.91h-1.88zm2.63 6.43c1.39 0 2.41-0.69 2.41-2.18 0-1.49-1.02-2.18-2.59-2.18h-2.44v4.36zm-45.95-3.62v-0.01zm0-0.01h4.01l-2.02-6.33zm-12.99-1.92c1.74 0 2.71-0.86 2.71-2.41 0-1.62-1.07-2.44-2.71-2.44h-2.15v4.85h2.15zm132.33-10.58c2.67 0.81 4.96 2.53 6.44 4.87 1.48 2.33 2.06 5.11 1.62 7.83-0.44 2.71-1.86 5.18-4 6.95-2.14 1.77-4.86 2.72-7.65 2.67-2.8-0.05-5.48-1.08-7.56-2.92-2.08-1.84-3.41-4.36-3.75-7.09-0.35-2.73 0.32-5.49 1.89-7.77 1.56-2.28 3.9-3.93 6.6-4.65 1.53-0.44 2.43-2.06 1.96-3.57 1 0.35 1.86 0.99 2.48 1.84 0.57 0.79 0.96 1.52 1.97 1.85zm0.3 16.81c0.98-0.96 1.53-2.27 1.53-3.63 0-1.36-0.55-2.67-1.53-3.63-0.97-0.96-2.3-1.5-3.69-1.5-1.38 0-2.71 0.54-3.69 1.5-0.97 0.96-1.52 2.27-1.52 3.63 0 1.36 0.55 2.67 1.52 3.63 0.98 0.97 2.31 1.51 3.69 1.51 1.39 0 2.72-0.54 3.69-1.51z"/>
		</clipPath>
	</defs>
	<style>
		.s0 { fill: #000000;stroke: #000000;stroke-width: 2 } 
	</style>
	<g id="Clip-Path" clip-path="url(#cp1)">
		<path id="Layer" fill-rule="evenodd" class="s0" d="m-130.8 19.9c1.2 0 2.5-0.4 3.5-1.1l1.1 1.7c-1.3 1.1-3.2 1.7-4.9 1.7-4 0-6.9-3.3-6.9-7.5 0-4.4 3-7.7 7-7.7 1.7 0 3.5 0.6 4.8 1.7l-1.1 1.7c-1-0.7-2.3-1.2-3.5-1.2-2.7 0-4.7 2.4-4.7 5.4 0 3 1.9 5.3 4.7 5.3zm18.5-8.1c0 2-1.1 3.6-2.8 4.3l3.3 5.9h-2.9l-2.9-5.6h-2.1v5.6h-2.4v-14.8h4.9c3.1 0 4.9 2 4.9 4.6zm8.4-4.6zm-0.1 0h2.9l5.1 14.8h-2.7l-1.2-3.7h-5.3l-1.2 3.7h-2.5zm21 1.8l-7 10.8h7.1v2.1h-10.2v-1.8l7-10.8h-6.8v-2.1h9.9v1.8zm9.5 4.3l3.5-6.1h2.7l-5.1 8.6v6.1h-2.4v-6.1l-5-8.6h2.9l3.4 6.1zm17.1 0.8c1.5 0.5 2.6 1.8 2.6 3.7 0 2.4-1.8 4.1-4.6 4.1h-5.4v-14.7h4.6c2.8 0 4.5 1.4 4.5 3.8 0 1.5-0.6 2.5-1.7 3.1zm14-6.9l5 14.7h-2.7l-1.2-3.7h-5.3l-1.1 3.7h-2.6l5-14.7zm16.9 6.9c1.5 0.5 2.6 1.8 2.6 3.7 0 2.4-1.9 4.1-4.6 4.1h-5.4v-14.7h4.6c2.8 0 4.5 1.4 4.5 3.8 0 1.5-0.6 2.5-1.7 3.1zm11.6-0.7v-0.1 0.1zm0-0.1l3.5-6.1h2.7l-5 8.6v6.1h-2.5v-6.1l-5-8.6h2.9zm-16.6-4v4h2c1.2 0 2.2-0.7 2.2-2.1 0-1.4-0.9-1.9-2.3-1.9zm2.6 10.4c1.4 0 2.4-0.7 2.4-2.2 0-1.5-1-2.2-2.6-2.2h-2.4v4.4zm-18-3.6zm0 0h4l-2.1-6.4zm-15.3-2.8h2c1.2 0 2.2-0.6 2.2-2.1 0-1.3-1-1.9-2.4-1.9h-1.8zm2.6 6.5c1.4 0 2.4-0.7 2.4-2.2 0-1.5-1-2.2-2.6-2.2h-2.4v4.4zm-46-3.7zm0 0h4l-2-6.3zm-13-1.9c1.8 0 2.7-0.9 2.7-2.4 0-1.7-1-2.5-2.7-2.5h-2.1v4.9h2.1zm132.3-10.6c2.7 0.8 5 2.5 6.5 4.9 1.5 2.3 2 5.1 1.6 7.8-0.4 2.7-1.8 5.2-4 7-2.1 1.7-4.8 2.7-7.6 2.6-2.8 0-5.5-1.1-7.6-2.9-2.1-1.8-3.4-4.4-3.8-7.1-0.3-2.7 0.4-5.5 1.9-7.8 1.6-2.2 3.9-3.9 6.6-4.6 1.6-0.4 2.5-2.1 2-3.6 1 0.4 1.9 1 2.5 1.9 0.5 0.8 0.9 1.5 1.9 1.8zm0.4 16.8c0.9-0.9 1.5-2.2 1.5-3.6 0-1.4-0.6-2.7-1.5-3.6-1-1-2.4-1.5-3.7-1.5-1.4 0-2.7 0.5-3.7 1.5-1 0.9-1.6 2.2-1.6 3.6 0 1.4 0.6 2.7 1.6 3.6 1 1 2.3 1.5 3.7 1.5 1.3 0 2.7-0.5 3.7-1.5z"/>
	</g>
</svg>