<svg width="16" height="13" viewBox="0 0 16 13" fill="none" xmlns="http://www.w3.org/2000/svg">
<path d="M4.94849 12.5502C4.09243 12.5502 3.36326 12.3172 2.76099 11.8513C2.15871 11.3816 1.69849 10.7017 1.3803 9.81157C1.06212 8.91763 0.903032 7.83808 0.903032 6.57293C0.903032 5.31536 1.06212 4.24149 1.3803 3.35134C1.70227 2.4574 2.1644 1.77558 2.76667 1.30589C3.37273 0.832401 4.1 0.595658 4.94849 0.595658C5.79697 0.595658 6.52235 0.832401 7.12462 1.30589C7.73068 1.77558 8.1928 2.4574 8.51099 3.35134C8.83296 4.24149 8.99394 5.31536 8.99394 6.57293C8.99394 7.83808 8.83485 8.91763 8.51667 9.81157C8.19849 10.7017 7.73826 11.3816 7.13599 11.8513C6.53371 12.3172 5.80455 12.5502 4.94849 12.5502ZM4.94849 11.3002C5.79697 11.3002 6.45606 10.8911 6.92576 10.0729C7.39546 9.25475 7.6303 8.08808 7.6303 6.57293C7.6303 5.56536 7.52235 4.7074 7.30644 3.99907C7.09432 3.29073 6.7875 2.75096 6.38599 2.37975C5.98826 2.00854 5.50909 1.82293 4.94849 1.82293C4.10758 1.82293 3.45038 2.2377 2.9769 3.06725C2.50341 3.89301 2.26667 5.06157 2.26667 6.57293C2.26667 7.58051 2.37273 8.43657 2.58485 9.14111C2.79697 9.84566 3.1019 10.3816 3.49962 10.7491C3.90114 11.1165 4.38409 11.3002 4.94849 11.3002ZM15.2439 0.754749V12.3911H13.8349V2.23202H13.7667L10.9258 4.11839V2.68657L13.8349 0.754749H15.2439Z" fill="#333333"/>
</svg>
