<svg width="14" height="9" viewBox="0 0 14 9" fill="none" xmlns="http://www.w3.org/2000/svg">
<path d="M3.38599 8.50049C2.79744 8.50049 2.29614 8.34033 1.88208 8.02002C1.46802 7.6971 1.15161 7.22965 0.932861 6.61768C0.714111 6.00309 0.604736 5.2609 0.604736 4.39111C0.604736 3.52653 0.714111 2.78825 0.932861 2.17627C1.15422 1.56169 1.47192 1.09294 1.88599 0.770019C2.30265 0.444498 2.80265 0.281738 3.38599 0.281738C3.96932 0.281738 4.46802 0.444498 4.88208 0.770019C5.29875 1.09294 5.61646 1.56169 5.83521 2.17627C6.05656 2.78825 6.16724 3.52653 6.16724 4.39111C6.16724 5.2609 6.05786 6.00309 5.83911 6.61768C5.62036 7.22965 5.30396 7.6971 4.88989 8.02002C4.47583 8.34033 3.97453 8.50049 3.38599 8.50049ZM3.38599 7.64111C3.96932 7.64111 4.42244 7.35986 4.74536 6.79736C5.06828 6.23486 5.22974 5.43278 5.22974 4.39111C5.22974 3.6984 5.15552 3.10856 5.00708 2.62158C4.86125 2.1346 4.65031 1.76351 4.37427 1.5083C4.10083 1.25309 3.7714 1.12549 3.38599 1.12549C2.80786 1.12549 2.35604 1.41064 2.03052 1.98096C1.705 2.54866 1.54224 3.35205 1.54224 4.39111C1.54224 5.08382 1.61515 5.67236 1.76099 6.15674C1.90682 6.64111 2.11646 7.0096 2.38989 7.26221C2.66593 7.51481 2.99797 7.64111 3.38599 7.64111ZM10.3547 8.50049C9.83911 8.50049 9.37948 8.41195 8.97583 8.23486C8.57479 8.05778 8.25578 7.81169 8.0188 7.49658C7.78442 7.17887 7.65682 6.81038 7.63599 6.39111H8.62036C8.64119 6.64893 8.72974 6.87158 8.88599 7.05908C9.04224 7.24398 9.24666 7.38721 9.49927 7.48877C9.75187 7.59033 10.0318 7.64111 10.3391 7.64111C10.6829 7.64111 10.9875 7.58122 11.2532 7.46143C11.5188 7.34163 11.7271 7.17497 11.8782 6.96143C12.0292 6.74788 12.1047 6.50049 12.1047 6.21924C12.1047 5.92497 12.0318 5.66585 11.886 5.44189C11.7402 5.21533 11.5266 5.03825 11.2454 4.91064C10.9641 4.78304 10.6204 4.71924 10.2141 4.71924H9.57349V3.85986H10.2141C10.5318 3.85986 10.8105 3.80257 11.05 3.68799C11.2922 3.5734 11.481 3.41195 11.6165 3.20361C11.7545 2.99528 11.8235 2.75049 11.8235 2.46924C11.8235 2.1984 11.7636 1.96273 11.6438 1.76221C11.524 1.56169 11.3547 1.40544 11.136 1.29346C10.9198 1.18148 10.6646 1.12549 10.3704 1.12549C10.0943 1.12549 9.8339 1.17627 9.58911 1.27783C9.34692 1.37679 9.14901 1.52132 8.99536 1.71143C8.84172 1.89893 8.75838 2.12549 8.74536 2.39111H7.80786C7.82349 1.97184 7.94979 1.60465 8.18677 1.28955C8.42375 0.971842 8.73364 0.724446 9.11646 0.547363C9.50187 0.37028 9.92505 0.281738 10.386 0.281738C10.8808 0.281738 11.3053 0.381998 11.6594 0.582519C12.0136 0.780436 12.2857 1.04215 12.4758 1.36768C12.6659 1.6932 12.761 2.04476 12.761 2.42236C12.761 2.87288 12.6425 3.257 12.4055 3.57471C12.1711 3.89242 11.8521 4.11247 11.4485 4.23486V4.29736C11.9537 4.3807 12.3482 4.59554 12.6321 4.94189C12.9159 5.28564 13.0579 5.71143 13.0579 6.21924C13.0579 6.65413 12.9394 7.04476 12.7024 7.39111C12.468 7.73486 12.1477 8.0057 11.7415 8.20361C11.3352 8.40153 10.873 8.50049 10.3547 8.50049Z" fill="#0C797A"/>
</svg>
