<svg width="94" height="47" viewBox="0 0 94 47" fill="none" xmlns="http://www.w3.org/2000/svg">
<path d="M45.5 13H93.1707V12H45.5V13Z" fill="#333333"/>
<path d="M75.2978 1.19533L93.0595 12.9999L93.5 11.8045L75.7384 0L75.2978 1.19533Z" fill="#333333"/>
<path d="M48.5 1L0.829261 1L0.829261 2.07692L48.5 2.07693V1Z" fill="#0C797A"/>
<path d="M18.7022 13.7127L0.940509 1.00016L0.5 2.28744L18.2616 15L18.7022 13.7127Z" fill="#0C797A"/>
<path d="M49.1719 35.625L46.5938 45.2031H45.75L48.3281 35.625H49.1719Z" fill="#0C797A"/>
<path d="M29.5 41.1591C28.6439 41.1591 27.9148 40.9261 27.3125 40.4602C26.7102 39.9905 26.25 39.3106 25.9318 38.4205C25.6136 37.5265 25.4545 36.447 25.4545 35.1818C25.4545 33.9242 25.6136 32.8504 25.9318 31.9602C26.2538 31.0663 26.7159 30.3845 27.3182 29.9148C27.9242 29.4413 28.6515 29.2045 29.5 29.2045C30.3485 29.2045 31.0739 29.4413 31.6761 29.9148C32.2822 30.3845 32.7443 31.0663 33.0625 31.9602C33.3845 32.8504 33.5455 33.9242 33.5455 35.1818C33.5455 36.447 33.3864 37.5265 33.0682 38.4205C32.75 39.3106 32.2898 39.9905 31.6875 40.4602C31.0852 40.9261 30.3561 41.1591 29.5 41.1591ZM29.5 39.9091C30.3485 39.9091 31.0076 39.5 31.4773 38.6818C31.947 37.8636 32.1818 36.697 32.1818 35.1818C32.1818 34.1742 32.0739 33.3163 31.858 32.608C31.6458 31.8996 31.339 31.3598 30.9375 30.9886C30.5398 30.6174 30.0606 30.4318 29.5 30.4318C28.6591 30.4318 28.0019 30.8466 27.5284 31.6761C27.0549 32.5019 26.8182 33.6705 26.8182 35.1818C26.8182 36.1894 26.9242 37.0455 27.1364 37.75C27.3485 38.4545 27.6534 38.9905 28.0511 39.358C28.4527 39.7254 28.9356 39.9091 29.5 39.9091ZM39.7955 29.3636V41H38.3864V30.8409H38.3182L35.4773 32.7273V31.2955L38.3864 29.3636H39.7955Z" fill="#333333"/>
<path d="M56.9375 45.1094C56.349 45.1094 55.8477 44.9492 55.4336 44.6289C55.0195 44.306 54.7031 43.8385 54.4844 43.2266C54.2656 42.612 54.1563 41.8698 54.1563 41C54.1563 40.1354 54.2656 39.3971 54.4844 38.7852C54.7057 38.1706 55.0234 37.7018 55.4375 37.3789C55.8542 37.0534 56.3542 36.8906 56.9375 36.8906C57.5208 36.8906 58.0195 37.0534 58.4336 37.3789C58.8503 37.7018 59.168 38.1706 59.3867 38.7852C59.6081 39.3971 59.7188 40.1354 59.7188 41C59.7188 41.8698 59.6094 42.612 59.3906 43.2266C59.1719 43.8385 58.8555 44.306 58.4414 44.6289C58.0273 44.9492 57.526 45.1094 56.9375 45.1094ZM56.9375 44.25C57.5208 44.25 57.974 43.9687 58.2969 43.4062C58.6198 42.8437 58.7813 42.0417 58.7813 41C58.7813 40.3073 58.707 39.7174 58.5586 39.2305C58.4128 38.7435 58.2018 38.3724 57.9258 38.1172C57.6523 37.862 57.3229 37.7344 56.9375 37.7344C56.3594 37.7344 55.9076 38.0195 55.582 38.5898C55.2565 39.1576 55.0938 39.9609 55.0938 41C55.0938 41.6927 55.1667 42.2812 55.3125 42.7656C55.4583 43.25 55.668 43.6185 55.9414 43.8711C56.2174 44.1237 56.5495 44.25 56.9375 44.25ZM63.9063 45.1094C63.3906 45.1094 62.931 45.0208 62.5273 44.8437C62.1263 44.6667 61.8073 44.4206 61.5703 44.1055C61.3359 43.7878 61.2083 43.4193 61.1875 43H62.1719C62.1927 43.2578 62.2813 43.4805 62.4375 43.668C62.5938 43.8529 62.7982 43.9961 63.0508 44.0977C63.3034 44.1992 63.5833 44.25 63.8906 44.25C64.2344 44.25 64.5391 44.1901 64.8047 44.0703C65.0703 43.9505 65.2786 43.7839 65.4297 43.5703C65.5807 43.3568 65.6563 43.1094 65.6563 42.8281C65.6563 42.5339 65.5833 42.2747 65.4375 42.0508C65.2917 41.8242 65.0781 41.6471 64.7969 41.5195C64.5156 41.3919 64.1719 41.3281 63.7656 41.3281H63.125V40.4687H63.7656C64.0833 40.4687 64.362 40.4115 64.6016 40.2969C64.8438 40.1823 65.0326 40.0208 65.168 39.8125C65.306 39.6042 65.375 39.3594 65.375 39.0781C65.375 38.8073 65.3151 38.5716 65.1953 38.3711C65.0755 38.1706 64.9063 38.0143 64.6875 37.9023C64.4714 37.7904 64.2161 37.7344 63.9219 37.7344C63.6458 37.7344 63.3854 37.7852 63.1406 37.8867C62.8984 37.9857 62.7005 38.1302 62.5469 38.3203C62.3932 38.5078 62.3099 38.7344 62.2969 39H61.3594C61.375 38.5807 61.5013 38.2135 61.7383 37.8984C61.9753 37.5807 62.2852 37.3333 62.668 37.1562C63.0534 36.9792 63.4766 36.8906 63.9375 36.8906C64.4323 36.8906 64.8568 36.9909 65.2109 37.1914C65.5651 37.3893 65.8372 37.651 66.0273 37.9766C66.2174 38.3021 66.3125 38.6536 66.3125 39.0313C66.3125 39.4818 66.194 39.8659 65.957 40.1836C65.7227 40.5013 65.4036 40.7214 65 40.8438V40.9062C65.5052 40.9896 65.8997 41.2044 66.1836 41.5508C66.4674 41.8945 66.6094 42.3203 66.6094 42.8281C66.6094 43.263 66.4909 43.6536 66.2539 44C66.0195 44.3437 65.6992 44.6146 65.293 44.8125C64.8867 45.0104 64.4245 45.1094 63.9063 45.1094Z" fill="#0C797A"/>
</svg>
