<svg width="64" height="64" viewBox="0 0 64 64" fill="none" xmlns="http://www.w3.org/2000/svg">
<g filter="url(#filter0_d)">
<circle cx="32" cy="27" r="24" fill="#0DB2B3"/>
</g>
<path d="M22.4883 21.6868H42.0009L40.0584 30.9247H27.6891L22.4883 21.6868Z" fill="white"/>
<path d="M38.1683 34.9999C39.1954 34.9999 40.028 34.1918 40.028 33.1949C40.028 32.198 39.1954 31.3899 38.1683 31.3899C37.1412 31.3899 36.3086 32.198 36.3086 33.1949C36.3086 34.1918 37.1412 34.9999 38.1683 34.9999Z" fill="white"/>
<path d="M29.4261 34.9999C30.4532 34.9999 31.2858 34.1918 31.2858 33.1949C31.2858 32.198 30.4532 31.3899 29.4261 31.3899C28.399 31.3899 27.5664 32.198 27.5664 33.1949C27.5664 34.1918 28.399 34.9999 29.4261 34.9999Z" fill="white"/>
<path d="M18.9998 19C18.4476 19 18 19.4476 18 19.9998C18 20.552 18.4476 20.9997 18.9998 20.9997H20.8612C21.1213 20.9997 21.3711 21.101 21.5577 21.2821L28.2601 27.7875C28.6479 28.164 29.2648 28.1641 29.6528 27.7877L29.6736 27.7675C30.0785 27.3748 30.0786 26.7251 29.6739 26.3322L22.4114 19.2825C22.2248 19.1013 21.975 19 21.7149 19H18.9998Z" fill="white"/>
<defs>
<filter id="filter0_d" x="0" y="0" width="64" height="64" filterUnits="userSpaceOnUse" color-interpolation-filters="sRGB">
<feFlood flood-opacity="0" result="BackgroundImageFix"/>
<feColorMatrix in="SourceAlpha" type="matrix" values="0 0 0 0 0 0 0 0 0 0 0 0 0 0 0 0 0 0 127 0"/>
<feOffset dy="5"/>
<feGaussianBlur stdDeviation="4"/>
<feColorMatrix type="matrix" values="0 0 0 0 0.604167 0 0 0 0 0.604167 0 0 0 0 0.604167 0 0 0 0.61 0"/>
<feBlend mode="normal" in2="BackgroundImageFix" result="effect1_dropShadow"/>
<feBlend mode="normal" in="SourceGraphic" in2="effect1_dropShadow" result="shape"/>
</filter>
</defs>
</svg>
