<svg width="24" height="16" viewBox="0 0 24 16" fill="none" xmlns="http://www.w3.org/2000/svg">
<path d="M4.48779 2.68677H24.0004L22.0579 11.9247H9.68865L4.48779 2.68677Z" fill="white"/>
<path d="M20.1676 15.9999C21.1946 15.9999 22.0272 15.1918 22.0272 14.1949C22.0272 13.198 21.1946 12.3899 20.1676 12.3899C19.1405 12.3899 18.3079 13.198 18.3079 14.1949C18.3079 15.1918 19.1405 15.9999 20.1676 15.9999Z" fill="white"/>
<path d="M11.4263 15.9999C12.4534 15.9999 13.286 15.1918 13.286 14.1949C13.286 13.198 12.4534 12.3899 11.4263 12.3899C10.3993 12.3899 9.56665 13.198 9.56665 14.1949C9.56665 15.1918 10.3993 15.9999 11.4263 15.9999Z" fill="white"/>
<path d="M0.999842 0C0.447645 0 0 0.447644 0 0.999841C0 1.55204 0.447644 1.99968 0.999841 1.99968H2.8612C3.12125 1.99968 3.37108 2.10099 3.55768 2.28211L10.2601 8.78747C10.6479 9.16396 11.2648 9.16405 11.6528 8.78768L11.6736 8.76751C12.0785 8.37477 12.0786 7.72508 11.6739 7.33219L4.41142 0.282464C4.22481 0.101319 3.97497 0 3.7149 0H0.999842Z" fill="white"/>
</svg>
