<svg width="24" height="24" viewBox="0 0 24 24" fill="none" xmlns="http://www.w3.org/2000/svg">
<rect x="0.5" y="0.5" width="23" height="23" stroke="#828282"/>
<path d="M17.0723 6.30924C17.2431 6.13845 17.52 6.13845 17.6908 6.30924C17.8616 6.48003 17.8615 6.75693 17.6908 6.92771L6.92748 17.6906C6.75679 17.8612 6.48008 17.8613 6.30934 17.6906C6.13851 17.5199 6.13847 17.2431 6.30923 17.0723L11.6908 11.6908L17.0723 6.30924Z" fill="#828282"/>
<path d="M6.30912 6.30957C6.47995 6.13862 6.75702 6.13856 6.92792 6.30945L17.6908 17.0719C17.8616 17.2427 17.8616 17.5196 17.6909 17.6904C17.5201 17.8614 17.243 17.8614 17.0721 17.6906L6.30924 6.92815C6.13843 6.75735 6.13838 6.48043 6.30912 6.30957Z" fill="#828282"/>
</svg>
