<svg width="162" height="26" viewBox="0 0 162 26" fill="none" xmlns="http://www.w3.org/2000/svg">
<mask id="path-1-inside-1_24223_3358" fill="white">
<path fill-rule="evenodd" clip-rule="evenodd" d="M7.65845 19.9444C4.91076 19.9444 3.03349 17.6274 3.03349 14.6124C3.03349 11.5652 4.96124 9.23609 7.70347 9.23609C8.91223 9.23609 10.1865 9.68714 11.1633 10.4375L12.2629 8.71927C10.9887 7.62521 9.20419 7.02113 7.51247 7.02113C3.52464 7.02113 0.5 10.3167 0.5 14.6688C0.5 18.9376 3.42914 22.1903 7.42515 22.1903C9.13052 22.1903 11.0269 21.5916 12.282 20.5163L11.1633 18.7537C10.2329 19.4612 8.91223 19.9444 7.65708 19.9444H7.65845ZM26.1719 11.8122C26.1719 9.15555 24.3751 7.22249 21.285 7.22249H16.3626V21.9755H18.8184V16.4448H20.858L23.813 21.9809H26.7217L23.3656 16.0877C25.1323 15.4071 26.1733 13.8231 26.1733 11.8122H26.1719ZM34.5623 7.22249L29.5826 21.9701H32.1448L33.3017 18.2651H38.5979L39.7685 21.9701H42.4643L37.4164 7.22517H34.5514L34.5623 7.22249ZM55.582 9.04815V7.23188H45.699V9.37704H52.4455L45.4548 20.1941V21.9822H55.687V19.8115H48.5654L55.6052 9.05218L55.582 9.04815ZM65.0843 13.4016L61.6735 7.23054H58.8222L63.7882 15.8394V21.9741H66.2576V15.8259L71.3205 7.22249H68.6519L65.0856 13.3975L65.0843 13.4016ZM82.2335 14.1721C83.3112 13.5814 83.9252 12.5116 83.9252 11.0577C83.9252 8.64141 82.2471 7.23188 79.4503 7.23188H74.8117V21.9782H80.2279C82.9702 21.9782 84.7983 20.2465 84.7983 17.8033C84.7983 15.9347 83.7069 14.6044 82.2062 14.1721H82.2335ZM93.2719 7.23188L88.2923 21.9782H90.8517L92.0113 18.2731H97.3048L98.4781 21.9782H101.179L96.1411 7.23188H93.2856H93.2719ZM113.032 14.1721C114.113 13.5814 114.734 12.5116 114.734 11.0577C114.734 8.64141 113.069 7.23188 110.259 7.23188H105.62V21.9782H111.05C113.792 21.9782 115.634 20.2465 115.634 17.8033C115.634 15.9347 114.543 14.6044 113.056 14.1721H113.032ZM124.67 13.4016L121.273 7.23188H118.408L123.374 15.8407V21.9795H125.85V15.8273L130.898 7.23188H128.237L124.663 13.4029L124.67 13.4016ZM108.077 9.39449H109.96C111.338 9.39449 112.275 9.94756 112.275 11.3034C112.275 12.7089 111.307 13.3707 110.079 13.3707H108.073V9.39449H108.077ZM110.69 19.8035H108.075V15.4407H110.513C112.077 15.4407 113.105 16.1387 113.105 17.6288C113.105 19.1189 112.077 19.8035 110.687 19.8035H110.69ZM92.658 16.183L94.6499 9.83883L96.669 16.175H92.658V16.183ZM77.277 9.39449H79.1597C80.5376 9.39449 81.4735 9.94756 81.4735 11.3034C81.4735 12.7089 80.5049 13.3707 79.2825 13.3707H77.277V9.39449ZM79.8896 19.8035H77.2838V15.4407H79.7259C81.2948 15.4407 82.318 16.1387 82.318 17.6288C82.318 19.1189 81.2948 19.8035 79.9032 19.8035H79.8896ZM33.9538 16.183L35.9457 9.83883L37.9649 16.175H33.9538V16.183ZM20.9644 14.2634H18.8225V9.40389H20.9644C22.6111 9.40389 23.6793 10.2268 23.6793 11.8471C23.6793 13.3949 22.7107 14.2607 20.9644 14.2607V14.2634ZM153.294 3.69063C152.291 3.35503 151.897 2.63013 151.327 1.83811C150.713 0.987638 149.846 0.345155 148.846 -0.000976562C149.318 1.50251 148.415 3.12682 146.891 3.56981C144.192 4.28425 141.846 5.93413 140.284 8.21572C138.723 10.4973 138.052 13.2571 138.394 15.9869C138.737 18.7168 140.07 21.233 142.149 23.0724C144.227 24.9118 146.911 25.9505 149.706 25.9974C152.501 26.0442 155.219 25.0961 157.36 23.3275C159.501 21.5588 160.921 19.0888 161.357 16.372C161.794 13.6552 161.219 10.8746 159.738 8.54195C158.256 6.20933 155.969 4.48174 153.295 3.6772L153.294 3.69063ZM149.913 21.9889C148.529 21.9889 147.202 21.4479 146.223 20.485C145.245 19.5221 144.695 18.216 144.695 16.8542C144.695 15.4924 145.245 14.1864 146.223 13.2234C147.202 12.2605 148.529 11.7195 149.913 11.7195C151.297 11.7195 152.625 12.2605 153.603 13.2234C154.582 14.1864 155.132 15.4924 155.132 16.8542C155.132 18.216 154.582 19.5221 153.603 20.485C152.625 21.4479 151.297 21.9889 149.913 21.9889Z"/>
</mask>
<path fill-rule="evenodd" clip-rule="evenodd" d="M7.65845 19.9444C4.91076 19.9444 3.03349 17.6274 3.03349 14.6124C3.03349 11.5652 4.96124 9.23609 7.70347 9.23609C8.91223 9.23609 10.1865 9.68714 11.1633 10.4375L12.2629 8.71927C10.9887 7.62521 9.20419 7.02113 7.51247 7.02113C3.52464 7.02113 0.5 10.3167 0.5 14.6688C0.5 18.9376 3.42914 22.1903 7.42515 22.1903C9.13052 22.1903 11.0269 21.5916 12.282 20.5163L11.1633 18.7537C10.2329 19.4612 8.91223 19.9444 7.65708 19.9444H7.65845ZM26.1719 11.8122C26.1719 9.15555 24.3751 7.22249 21.285 7.22249H16.3626V21.9755H18.8184V16.4448H20.858L23.813 21.9809H26.7217L23.3656 16.0877C25.1323 15.4071 26.1733 13.8231 26.1733 11.8122H26.1719ZM34.5623 7.22249L29.5826 21.9701H32.1448L33.3017 18.2651H38.5979L39.7685 21.9701H42.4643L37.4164 7.22517H34.5514L34.5623 7.22249ZM55.582 9.04815V7.23188H45.699V9.37704H52.4455L45.4548 20.1941V21.9822H55.687V19.8115H48.5654L55.6052 9.05218L55.582 9.04815ZM65.0843 13.4016L61.6735 7.23054H58.8222L63.7882 15.8394V21.9741H66.2576V15.8259L71.3205 7.22249H68.6519L65.0856 13.3975L65.0843 13.4016ZM82.2335 14.1721C83.3112 13.5814 83.9252 12.5116 83.9252 11.0577C83.9252 8.64141 82.2471 7.23188 79.4503 7.23188H74.8117V21.9782H80.2279C82.9702 21.9782 84.7983 20.2465 84.7983 17.8033C84.7983 15.9347 83.7069 14.6044 82.2062 14.1721H82.2335ZM93.2719 7.23188L88.2923 21.9782H90.8517L92.0113 18.2731H97.3048L98.4781 21.9782H101.179L96.1411 7.23188H93.2856H93.2719ZM113.032 14.1721C114.113 13.5814 114.734 12.5116 114.734 11.0577C114.734 8.64141 113.069 7.23188 110.259 7.23188H105.62V21.9782H111.05C113.792 21.9782 115.634 20.2465 115.634 17.8033C115.634 15.9347 114.543 14.6044 113.056 14.1721H113.032ZM124.67 13.4016L121.273 7.23188H118.408L123.374 15.8407V21.9795H125.85V15.8273L130.898 7.23188H128.237L124.663 13.4029L124.67 13.4016ZM108.077 9.39449H109.96C111.338 9.39449 112.275 9.94756 112.275 11.3034C112.275 12.7089 111.307 13.3707 110.079 13.3707H108.073V9.39449H108.077ZM110.69 19.8035H108.075V15.4407H110.513C112.077 15.4407 113.105 16.1387 113.105 17.6288C113.105 19.1189 112.077 19.8035 110.687 19.8035H110.69ZM92.658 16.183L94.6499 9.83883L96.669 16.175H92.658V16.183ZM77.277 9.39449H79.1597C80.5376 9.39449 81.4735 9.94756 81.4735 11.3034C81.4735 12.7089 80.5049 13.3707 79.2825 13.3707H77.277V9.39449ZM79.8896 19.8035H77.2838V15.4407H79.7259C81.2948 15.4407 82.318 16.1387 82.318 17.6288C82.318 19.1189 81.2948 19.8035 79.9032 19.8035H79.8896ZM33.9538 16.183L35.9457 9.83883L37.9649 16.175H33.9538V16.183ZM20.9644 14.2634H18.8225V9.40389H20.9644C22.6111 9.40389 23.6793 10.2268 23.6793 11.8471C23.6793 13.3949 22.7107 14.2607 20.9644 14.2607V14.2634ZM153.294 3.69063C152.291 3.35503 151.897 2.63013 151.327 1.83811C150.713 0.987638 149.846 0.345155 148.846 -0.000976562C149.318 1.50251 148.415 3.12682 146.891 3.56981C144.192 4.28425 141.846 5.93413 140.284 8.21572C138.723 10.4973 138.052 13.2571 138.394 15.9869C138.737 18.7168 140.07 21.233 142.149 23.0724C144.227 24.9118 146.911 25.9505 149.706 25.9974C152.501 26.0442 155.219 25.0961 157.36 23.3275C159.501 21.5588 160.921 19.0888 161.357 16.372C161.794 13.6552 161.219 10.8746 159.738 8.54195C158.256 6.20933 155.969 4.48174 153.295 3.6772L153.294 3.69063ZM149.913 21.9889C148.529 21.9889 147.202 21.4479 146.223 20.485C145.245 19.5221 144.695 18.216 144.695 16.8542C144.695 15.4924 145.245 14.1864 146.223 13.2234C147.202 12.2605 148.529 11.7195 149.913 11.7195C151.297 11.7195 152.625 12.2605 153.603 13.2234C154.582 14.1864 155.132 15.4924 155.132 16.8542C155.132 18.216 154.582 19.5221 153.603 20.485C152.625 21.4479 151.297 21.9889 149.913 21.9889Z" fill="black" stroke="black" stroke-width="2" mask="url(#path-1-inside-1_24223_3358)"/>
</svg>
