<svg width="12" height="12" viewBox="0 0 12 12" fill="none" xmlns="http://www.w3.org/2000/svg">
<path d="M11.0723 0.309237C11.2431 0.138451 11.52 0.138454 11.6908 0.309243C11.8616 0.48003 11.8615 0.756925 11.6908 0.927706L0.927482 11.6906C0.756795 11.8612 0.480077 11.8613 0.309336 11.6906C0.138511 11.5199 0.138465 11.2431 0.309233 11.0723L11.0723 0.309237Z" fill="#828282"/>
<path d="M0.30912 0.309567C0.479945 0.138616 0.757025 0.138561 0.927916 0.309446L11.6908 11.0719C11.8616 11.2427 11.8616 11.5196 11.6909 11.6904C11.5201 11.8614 11.243 11.8614 11.0721 11.6906L0.309241 0.928146C0.138434 0.757346 0.13838 0.480434 0.30912 0.309567Z" fill="#828282"/>
</svg>
