<svg width="13" height="13" viewBox="0 0 13 13" fill="none" xmlns="http://www.w3.org/2000/svg">
<path d="M11.9957 0.268865C12.1805 0.0845284 12.4796 0.0845317 12.6643 0.268872C12.8496 0.453774 12.8496 0.753978 12.6643 0.938872L1.00405 12.5735C0.819421 12.7577 0.520524 12.7578 0.335837 12.5736C0.150495 12.3888 0.150445 12.0886 0.335725 11.9037L11.9957 0.268865Z" fill="#828282"/>
<path d="M0.335603 0.269223C0.520381 0.0847064 0.819669 0.0846477 1.00452 0.269092L12.6643 11.9032C12.8496 12.0882 12.8496 12.3884 12.6644 12.5734C12.4796 12.7579 12.1803 12.7579 11.9955 12.5735L0.335734 0.939348C0.150411 0.754432 0.150353 0.454211 0.335603 0.269223Z" fill="#828282"/>
</svg>
