<?xml version="1.0" standalone="no"?>
<!DOCTYPE svg PUBLIC "-//W3C//DTD SVG 20010904//EN"
 "http://www.w3.org/TR/2001/REC-SVG-20010904/DTD/svg10.dtd">
<svg version="1.0" xmlns="http://www.w3.org/2000/svg"
 width="1279.000000pt" height="720.000000pt" viewBox="0 0 1279.000000 720.000000"
 preserveAspectRatio="xMidYMid meet">
<metadata>
Created by potrace 1.16, written by Peter Selinger 2001-2019
</metadata>
<g transform="translate(0.000000,720.000000) scale(0.100000,-0.100000)"
fill="#000000" stroke="none">
<path d="M5620 7189 c-691 -71 -1321 -216 -1926 -444 -363 -137 -806 -351
-1064 -514 -36 -22 -81 -49 -101 -60 -65 -36 -322 -213 -474 -327 -248 -186
-266 -203 -303 -274 -31 -61 -33 -71 -29 -145 4 -100 38 -170 110 -226 57 -46
100 -59 187 -59 71 0 143 27 191 71 14 13 41 35 59 49 18 14 45 34 59 46 267
216 664 463 1041 648 178 87 173 85 395 176 859 354 1897 528 2906 490 867
-33 1661 -199 2399 -503 215 -88 547 -251 739 -363 205 -119 464 -294 656
-444 60 -47 118 -93 128 -104 11 -10 44 -29 74 -43 48 -22 65 -25 137 -21 118
7 186 49 242 151 36 66 45 181 20 242 -38 91 -57 110 -300 295 -986 751 -2211
1218 -3554 1355 -123 12 -283 15 -830 14 -372 -1 -715 -6 -762 -10z"/>
<path d="M6085 4564 c-552 -41 -1056 -160 -1520 -359 -199 -86 -253 -113 -466
-233 -159 -89 -481 -314 -536 -374 -66 -72 -94 -219 -59 -312 61 -160 244
-237 398 -168 24 11 93 57 153 102 545 410 1228 667 1954 735 212 19 583 19
782 0 384 -38 761 -126 1094 -257 188 -73 445 -200 575 -282 109 -70 246 -164
320 -221 132 -101 218 -125 326 -89 91 31 157 93 190 180 24 62 16 185 -14
244 -32 60 -51 80 -157 159 -296 223 -523 354 -910 526 -343 152 -823 275
-1295 331 -128 15 -706 27 -835 18z"/>
<path d="M6247 1760 c-533 -96 -852 -653 -672 -1173 99 -288 348 -510 642
-572 87 -19 279 -19 364 -1 85 18 228 77 298 124 67 44 184 158 233 227 111
156 163 325 161 525 -1 99 -6 145 -26 221 -80 304 -307 540 -607 629 -84 24
-305 36 -393 20z"/>
</g>
</svg>
