<?xml version="1.0" standalone="no"?>
<!DOCTYPE svg PUBLIC "-//W3C//DTD SVG 20010904//EN"
 "http://www.w3.org/TR/2001/REC-SVG-20010904/DTD/svg10.dtd">
<svg version="1.0" xmlns="http://www.w3.org/2000/svg"
 width="1280.000000pt" height="454.000000pt" viewBox="0 0 1280.000000 454.000000"
 preserveAspectRatio="xMidYMid meet">
<metadata>
Created by potrace 1.16, written by Peter Selinger 2001-2019
</metadata>
<g transform="translate(0.000000,454.000000) scale(0.100000,-0.100000)"
fill="#000000" stroke="none">
<path d="M5820 4529 c-483 -66 -868 -168 -1255 -334 -199 -86 -253 -113 -466
-233 -159 -89 -481 -314 -536 -374 -66 -72 -94 -219 -59 -312 61 -160 244
-237 398 -168 24 11 93 57 153 102 545 410 1228 667 1954 735 212 19 583 19
782 0 384 -38 761 -126 1094 -257 188 -73 445 -200 575 -282 109 -70 246 -164
320 -221 132 -101 218 -125 326 -89 91 31 157 93 190 180 24 62 16 185 -14
244 -32 60 -51 80 -157 159 -296 223 -523 354 -910 526 -275 122 -682 236
-1073 302 -155 26 -164 27 -707 29 -302 1 -579 -2 -615 -7z"/>
<path d="M6247 1750 c-227 -41 -445 -184 -572 -374 -337 -509 -88 -1191 498
-1361 47 -13 93 -16 250 -13 l192 3 103 42 c128 53 197 98 288 188 137 136
208 265 255 465 22 93 15 289 -14 401 -80 304 -307 540 -607 629 -84 24 -305
36 -393 20z"/>
</g>
</svg>
