<?xml version="1.0" standalone="no"?>
<!DOCTYPE svg PUBLIC "-//W3C//DTD SVG 20010904//EN"
 "http://www.w3.org/TR/2001/REC-SVG-20010904/DTD/svg10.dtd">
<svg version="1.0" xmlns="http://www.w3.org/2000/svg"
 width="1280.000000pt" height="176.000000pt" viewBox="0 0 1280.000000 176.000000"
 preserveAspectRatio="xMidYMid meet">
<metadata>
Created by potrace 1.16, written by Peter Selinger 2001-2019
</metadata>
<g transform="translate(0.000000,176.000000) scale(0.100000,-0.100000)"
fill="#000000" stroke="none">
<path d="M6161 1740 c-490 -145 -755 -665 -586 -1153 99 -288 348 -510 642
-572 87 -19 279 -19 364 -1 85 18 228 77 298 124 67 44 184 158 233 227 111
156 163 325 161 525 -1 99 -6 145 -26 221 -80 305 -312 545 -608 628 -104 29
-380 29 -478 1z"/>
</g>
</svg>
