<svg width="50" height="41" viewBox="0 0 50 41" fill="none" xmlns="http://www.w3.org/2000/svg">
<path d="M49.7822 38.6051L38.4062 23.8343C40.008 22.0986 41.2966 20.0246 42.1386 17.6649C42.2484 17.3564 42.3364 17.0464 42.4234 16.7364L42.4814 16.5301C42.6396 15.9749 42.3197 15.3958 41.7663 15.2369C41.2154 15.0771 40.6361 15.3988 40.4784 15.955L40.4179 16.1695C40.3442 16.433 40.2709 16.6966 40.1773 16.9586C39.4745 18.9282 38.4135 20.6664 37.1068 22.1472L30.6827 13.806C31.2284 12.4318 31.2755 10.9323 30.7664 9.53367C30.3433 8.34087 29.5626 7.34337 28.5399 6.63033L30.695 2.03624C30.9402 1.51377 30.7169 0.890174 30.1966 0.644005C29.6778 0.398346 29.0552 0.621533 28.8101 1.14451L26.6533 5.74193C26.1368 5.59937 25.6074 5.51714 25.0685 5.51714C22.7247 5.51714 20.5685 6.88735 19.5685 9.01069C18.881 10.475 18.8081 12.1172 19.3602 13.6443C19.3793 13.698 19.4115 13.7438 19.432 13.7967L0.220737 38.4907C-0.133266 38.9463 -0.0529032 39.6036 0.400282 39.959C0.591017 40.1082 0.816846 40.1807 1.04115 40.1807C1.35039 40.1807 1.6571 40.0428 1.86258 39.7788L13.1913 25.2169C14.9073 26.7152 16.8406 27.8799 18.9809 28.6409C20.9843 29.3539 23.0316 29.692 25.0462 29.692C29.4143 29.692 33.6197 28.0924 36.8904 25.2858L48.1343 39.885C48.3397 40.1516 48.6475 40.291 48.9587 40.291C49.1815 40.291 49.4058 40.2195 49.5955 40.0724C50.0508 39.719 50.1342 39.0622 49.7822 38.6051ZM19.6767 26.6695C17.7507 25.9841 16.0128 24.9293 14.4741 23.568L20.5996 15.6943C21.1269 16.2644 21.7658 16.7344 22.4956 17.075C23.3081 17.462 24.1727 17.6504 25.0581 17.6504C26.7674 17.6504 28.3714 16.9154 29.5055 15.6972L35.6166 23.632C31.3825 27.3145 25.3345 28.6816 19.6767 26.6695Z" fill="#4F4F4F"/>
</svg>
