<svg width="4" height="5" viewBox="0 0 4 5" fill="none" xmlns="http://www.w3.org/2000/svg">
<path d="M2.04522 0.138451C1.77888 0.132428 1.51402 0.179676 1.26619 0.277422C1.01836 0.375168 0.792561 0.521441 0.602042 0.707654C0.411523 0.893867 0.260127 1.11627 0.156742 1.36179C0.053357 1.60732 6.6681e-05 1.87103 6.25376e-08 2.13744C-6.65559e-05 2.40385 0.0530916 2.66758 0.156354 2.91316C0.259616 3.15874 0.410902 3.38122 0.601328 3.56753C0.791754 3.75383 1.01748 3.90022 1.26526 3.99809C1.51304 4.09596 1.77787 4.14334 2.04422 4.13745C2.56678 4.1259 3.06405 3.91023 3.42959 3.53661C3.79512 3.163 3.99987 2.66113 4 2.13844C4.00013 1.61575 3.79563 1.11378 3.43029 0.739983C3.06494 0.366185 2.56777 0.150268 2.04522 0.138451Z" fill="black"/>
</svg>
