<?xml version="1.0" standalone="no"?>
<!DOCTYPE svg PUBLIC "-//W3C//DTD SVG 20010904//EN"
 "http://www.w3.org/TR/2001/REC-SVG-20010904/DTD/svg10.dtd">
<svg version="1.0" xmlns="http://www.w3.org/2000/svg"
 width="184.000000pt" height="215.000000pt" viewBox="0 0 184.000000 215.000000"
 preserveAspectRatio="xMidYMid meet">
<metadata>
Created by potrace 1.16, written by Peter Selinger 2001-2019
</metadata>
<g transform="translate(0.000000,215.000000) scale(0.100000,-0.100000)"
fill="#000000" stroke="none">
<path d="M836 2050 c10 -59 -13 -124 -60 -176 -35 -39 -56 -51 -147 -83 -294
-104 -495 -300 -592 -579 -28 -80 -31 -100 -35 -253 -5 -199 11 -280 82 -424
125 -251 342 -423 622 -492 107 -26 324 -24 438 5 97 24 227 82 303 133 70 47
178 154 229 226 61 85 120 214 145 319 18 77 20 109 16 234 -6 159 -19 222
-72 337 -99 215 -277 385 -492 469 -135 53 -154 66 -215 146 -31 42 -74 89
-95 105 -35 28 -114 73 -128 73 -3 0 -2 -18 1 -40z m172 -910 c102 -24 214
-105 266 -195 79 -135 67 -313 -30 -435 -193 -242 -565 -201 -697 78 -29 61
-32 76 -32 162 0 88 3 101 33 162 87 177 276 270 460 228z"/>
</g>
</svg>
