<svg width="161" height="26" viewBox="0 0 161 26" fill="none" xmlns="http://www.w3.org/2000/svg">
<mask id="path-1-inside-1_225:775" fill="white">
<path fill-rule="evenodd" clip-rule="evenodd" d="M7.15845 20.0162C4.41076 20.0162 2.53349 17.7304 2.53349 14.756C2.53349 11.7497 4.46124 9.45204 7.20347 9.45204C8.41223 9.45204 9.68648 9.89702 10.6633 10.6373L11.7629 8.94218C10.4887 7.86285 8.70419 7.2669 7.01247 7.2669C3.02464 7.2669 0 10.5181 0 14.8116C0 19.0229 2.92914 22.2318 6.92515 22.2318C8.63052 22.2318 10.5269 21.6411 11.782 20.5804L10.6633 18.8415C9.73287 19.5394 8.41223 20.0162 7.15708 20.0162H7.15845ZM25.6719 11.9934C25.6719 9.37258 23.8751 7.46555 20.785 7.46555H15.8626V22.0199H18.3184V16.5637H20.358L23.313 22.0252H26.2217L22.8656 16.2114C24.6323 15.54 25.6733 13.9773 25.6733 11.9934H25.6719ZM34.0623 7.46555L29.0826 22.0146H31.6448L32.8017 18.3595H38.0979L39.2685 22.0146H41.9643L36.9164 7.4682H34.0514L34.0623 7.46555ZM55.082 9.26664V7.47482H45.199V9.5911H51.9455L44.9548 20.2625V22.0265H55.187V19.8851H48.0654L55.1052 9.27061L55.082 9.26664ZM64.5843 13.5614L61.1735 7.4735H58.3222L63.2882 15.9664V22.0186H65.7576V15.9532L70.8205 7.46555H68.1519L64.5856 13.5575L64.5843 13.5614ZM81.7335 14.3216C82.8112 13.7389 83.4252 12.6834 83.4252 11.2492C83.4252 8.86537 81.7471 7.47482 78.9503 7.47482H74.3117V22.0225H79.7279C82.4702 22.0225 84.2983 20.3142 84.2983 17.9039C84.2983 16.0604 83.2069 14.748 81.7062 14.3216H81.7335ZM92.7719 7.47482L87.7923 22.0225H90.3517L91.5113 18.3674H96.8048L97.9781 22.0225H100.679L95.6411 7.47482H92.7856H92.7719ZM112.532 14.3216C113.613 13.7389 114.234 12.6834 114.234 11.2492C114.234 8.86537 112.569 7.47482 109.759 7.47482H105.12V22.0225H110.55C113.292 22.0225 115.134 20.3142 115.134 17.9039C115.134 16.0604 114.043 14.748 112.556 14.3216H112.532ZM124.17 13.5614L120.773 7.47482H117.908L122.874 15.9677V22.0239H125.35V15.9545L130.398 7.47482H127.737L124.163 13.5628L124.17 13.5614ZM107.577 9.60831H109.46C110.838 9.60831 111.775 10.1539 111.775 11.4915C111.775 12.8781 110.807 13.531 109.579 13.531H107.573V9.60831H107.577ZM110.19 19.8771H107.575V15.5731H110.013C111.577 15.5731 112.605 16.2617 112.605 17.7317C112.605 19.2017 111.577 19.8771 110.187 19.8771H110.19ZM92.158 16.3054L94.1499 10.0467L96.169 16.2975H92.158V16.3054ZM76.777 9.60831H78.6597C80.0376 9.60831 80.9735 10.1539 80.9735 11.4915C80.9735 12.8781 80.0049 13.531 78.7825 13.531H76.777V9.60831ZM79.3896 19.8771H76.7838V15.5731H79.2259C80.7948 15.5731 81.818 16.2617 81.818 17.7317C81.818 19.2017 80.7948 19.8771 79.4032 19.8771H79.3896ZM33.4538 16.3054L35.4457 10.0467L37.4649 16.2975H33.4538V16.3054ZM20.4644 14.4116H18.3225V9.61758H20.4644C22.1111 9.61758 23.1793 10.4294 23.1793 12.0279C23.1793 13.5548 22.2107 14.409 20.4644 14.409V14.4116ZM152.794 3.98125C151.791 3.65017 151.397 2.93503 150.827 2.15368C150.213 1.31466 149.346 0.680826 148.346 0.339355C148.818 1.8226 147.915 3.42504 146.391 3.86206C143.692 4.56688 141.346 6.19454 139.784 8.44542C138.223 10.6963 137.552 13.4189 137.894 16.112C138.237 18.8051 139.57 21.2874 141.649 23.102C143.727 24.9166 146.411 25.9414 149.206 25.9876C152.001 26.0339 154.719 25.0985 156.86 23.3537C159.001 21.6089 160.421 19.1721 160.857 16.4919C161.294 13.8117 160.719 11.0685 159.238 8.76725C157.756 6.46604 155.469 4.76171 152.795 3.96801L152.794 3.98125ZM149.413 22.0331C148.029 22.0331 146.702 21.4995 145.723 20.5495C144.745 19.5995 144.195 18.3111 144.195 16.9676C144.195 15.6241 144.745 14.3357 145.723 13.3857C146.702 12.4357 148.029 11.902 149.413 11.902C150.797 11.902 152.125 12.4357 153.103 13.3857C154.082 14.3357 154.632 15.6241 154.632 16.9676C154.632 18.3111 154.082 19.5995 153.103 20.5495C152.125 21.4995 150.797 22.0331 149.413 22.0331Z"/>
</mask>
<path fill-rule="evenodd" clip-rule="evenodd" d="M7.15845 20.0162C4.41076 20.0162 2.53349 17.7304 2.53349 14.756C2.53349 11.7497 4.46124 9.45204 7.20347 9.45204C8.41223 9.45204 9.68648 9.89702 10.6633 10.6373L11.7629 8.94218C10.4887 7.86285 8.70419 7.2669 7.01247 7.2669C3.02464 7.2669 0 10.5181 0 14.8116C0 19.0229 2.92914 22.2318 6.92515 22.2318C8.63052 22.2318 10.5269 21.6411 11.782 20.5804L10.6633 18.8415C9.73287 19.5394 8.41223 20.0162 7.15708 20.0162H7.15845ZM25.6719 11.9934C25.6719 9.37258 23.8751 7.46555 20.785 7.46555H15.8626V22.0199H18.3184V16.5637H20.358L23.313 22.0252H26.2217L22.8656 16.2114C24.6323 15.54 25.6733 13.9773 25.6733 11.9934H25.6719ZM34.0623 7.46555L29.0826 22.0146H31.6448L32.8017 18.3595H38.0979L39.2685 22.0146H41.9643L36.9164 7.4682H34.0514L34.0623 7.46555ZM55.082 9.26664V7.47482H45.199V9.5911H51.9455L44.9548 20.2625V22.0265H55.187V19.8851H48.0654L55.1052 9.27061L55.082 9.26664ZM64.5843 13.5614L61.1735 7.4735H58.3222L63.2882 15.9664V22.0186H65.7576V15.9532L70.8205 7.46555H68.1519L64.5856 13.5575L64.5843 13.5614ZM81.7335 14.3216C82.8112 13.7389 83.4252 12.6834 83.4252 11.2492C83.4252 8.86537 81.7471 7.47482 78.9503 7.47482H74.3117V22.0225H79.7279C82.4702 22.0225 84.2983 20.3142 84.2983 17.9039C84.2983 16.0604 83.2069 14.748 81.7062 14.3216H81.7335ZM92.7719 7.47482L87.7923 22.0225H90.3517L91.5113 18.3674H96.8048L97.9781 22.0225H100.679L95.6411 7.47482H92.7856H92.7719ZM112.532 14.3216C113.613 13.7389 114.234 12.6834 114.234 11.2492C114.234 8.86537 112.569 7.47482 109.759 7.47482H105.12V22.0225H110.55C113.292 22.0225 115.134 20.3142 115.134 17.9039C115.134 16.0604 114.043 14.748 112.556 14.3216H112.532ZM124.17 13.5614L120.773 7.47482H117.908L122.874 15.9677V22.0239H125.35V15.9545L130.398 7.47482H127.737L124.163 13.5628L124.17 13.5614ZM107.577 9.60831H109.46C110.838 9.60831 111.775 10.1539 111.775 11.4915C111.775 12.8781 110.807 13.531 109.579 13.531H107.573V9.60831H107.577ZM110.19 19.8771H107.575V15.5731H110.013C111.577 15.5731 112.605 16.2617 112.605 17.7317C112.605 19.2017 111.577 19.8771 110.187 19.8771H110.19ZM92.158 16.3054L94.1499 10.0467L96.169 16.2975H92.158V16.3054ZM76.777 9.60831H78.6597C80.0376 9.60831 80.9735 10.1539 80.9735 11.4915C80.9735 12.8781 80.0049 13.531 78.7825 13.531H76.777V9.60831ZM79.3896 19.8771H76.7838V15.5731H79.2259C80.7948 15.5731 81.818 16.2617 81.818 17.7317C81.818 19.2017 80.7948 19.8771 79.4032 19.8771H79.3896ZM33.4538 16.3054L35.4457 10.0467L37.4649 16.2975H33.4538V16.3054ZM20.4644 14.4116H18.3225V9.61758H20.4644C22.1111 9.61758 23.1793 10.4294 23.1793 12.0279C23.1793 13.5548 22.2107 14.409 20.4644 14.409V14.4116ZM152.794 3.98125C151.791 3.65017 151.397 2.93503 150.827 2.15368C150.213 1.31466 149.346 0.680826 148.346 0.339355C148.818 1.8226 147.915 3.42504 146.391 3.86206C143.692 4.56688 141.346 6.19454 139.784 8.44542C138.223 10.6963 137.552 13.4189 137.894 16.112C138.237 18.8051 139.57 21.2874 141.649 23.102C143.727 24.9166 146.411 25.9414 149.206 25.9876C152.001 26.0339 154.719 25.0985 156.86 23.3537C159.001 21.6089 160.421 19.1721 160.857 16.4919C161.294 13.8117 160.719 11.0685 159.238 8.76725C157.756 6.46604 155.469 4.76171 152.795 3.96801L152.794 3.98125ZM149.413 22.0331C148.029 22.0331 146.702 21.4995 145.723 20.5495C144.745 19.5995 144.195 18.3111 144.195 16.9676C144.195 15.6241 144.745 14.3357 145.723 13.3857C146.702 12.4357 148.029 11.902 149.413 11.902C150.797 11.902 152.125 12.4357 153.103 13.3857C154.082 14.3357 154.632 15.6241 154.632 16.9676C154.632 18.3111 154.082 19.5995 153.103 20.5495C152.125 21.4995 150.797 22.0331 149.413 22.0331Z" fill="black" stroke="black" stroke-width="2" mask="url(#path-1-inside-1_225:775)"/>
</svg>
