<svg width="50" height="43" viewBox="0 0 50 43" fill="none" xmlns="http://www.w3.org/2000/svg">
<path d="M49.7822 40.6553L38.4062 24.9561C40.008 23.1114 41.2966 20.907 42.1386 18.399C42.2484 18.0711 42.3364 17.7416 42.4234 17.4121L42.4814 17.1928C42.6396 16.6028 42.3197 15.9872 41.7663 15.8184C41.2154 15.6485 40.6361 15.9905 40.4784 16.5816L40.4179 16.8096C40.3442 17.0897 40.2709 17.3698 40.1773 17.6482C39.4745 19.7416 38.4135 21.5891 37.1068 23.1629L30.6827 14.2975C31.2284 12.8369 31.2755 11.2432 30.7664 9.75665C30.3433 8.48888 29.5626 7.42868 28.5399 6.67083L30.695 1.78798C30.9402 1.23267 30.7169 0.569879 30.1966 0.308237C29.6778 0.0471386 29.0552 0.284353 28.8101 0.840206L26.6533 5.72658C26.1368 5.57507 25.6074 5.48767 25.0685 5.48767C22.7247 5.48767 20.5685 6.944 19.5685 9.2008C18.881 10.7571 18.8081 12.5025 19.3602 14.1256C19.3793 14.1827 19.4115 14.2314 19.432 14.2876L0.220737 40.5337C-0.133266 41.0179 -0.0529032 41.7166 0.400282 42.0944C0.591017 42.2529 0.816846 42.33 1.04115 42.33C1.35039 42.33 1.6571 42.1834 1.86258 41.9028L13.1913 26.4256C14.9073 28.0181 16.8406 29.256 18.9809 30.0648C20.9843 30.8226 23.0316 31.182 25.0462 31.182C29.4143 31.182 33.6197 29.4818 36.8904 26.4989L48.1343 42.0157C48.3397 42.299 48.6475 42.4472 48.9587 42.4472C49.1815 42.4472 49.4058 42.3712 49.5955 42.2149C50.0508 41.8392 50.1342 41.1412 49.7822 40.6553ZM19.6767 27.9695C17.7507 27.241 16.0128 26.12 14.4741 24.6731L20.5996 16.3045C21.1269 16.9105 21.7658 17.41 22.4956 17.772C23.3081 18.1833 24.1727 18.3835 25.0581 18.3835C26.7674 18.3835 28.3714 17.6024 29.5055 16.3075L35.6166 24.7411C31.3825 28.6551 25.3345 30.1081 19.6767 27.9695Z" fill="#4F4F4F"/>
</svg>
