<svg width="356" height="213" viewBox="0 0 356 213" fill="none" xmlns="http://www.w3.org/2000/svg">
<path d="M35.584 10.416H15.808V18.416H32.704V28.4H15.808V46H4.608V0.431999H35.584V10.416ZM76.525 30C76.525 34.864 74.8397 38.8107 71.469 41.84C68.141 44.8693 64.045 46.384 59.181 46.384C54.317 46.384 50.221 44.8693 46.893 41.84C43.6077 38.8107 41.965 34.864 41.965 30V0.431999H53.165V29.744C53.165 31.8347 53.6983 33.4773 54.765 34.672C55.8317 35.824 57.3037 36.4 59.181 36.4C61.0583 36.4 62.5517 35.824 63.661 34.672C64.7703 33.4773 65.325 31.8347 65.325 29.744V0.431999H76.525V30ZM115.895 10.416H104.695V46H93.495V10.416H82.295V0.431999H115.895V10.416ZM156.213 30C156.213 34.864 154.527 38.8107 151.157 41.84C147.829 44.8693 143.733 46.384 138.869 46.384C134.005 46.384 129.909 44.8693 126.581 41.84C123.295 38.8107 121.653 34.864 121.653 30V0.431999H132.853V29.744C132.853 31.8347 133.386 33.4773 134.453 34.672C135.519 35.824 136.991 36.4 138.869 36.4C140.746 36.4 142.239 35.824 143.349 34.672C144.458 33.4773 145.013 31.8347 145.013 29.744V0.431999H156.213V30ZM200.703 46H187.711L179.647 29.04H175.871V46H164.671V0.431999H182.719C187.54 0.431999 191.337 1.88266 194.111 4.784C196.884 7.64266 198.271 11.0773 198.271 15.088C198.271 17.9467 197.545 20.4 196.095 22.448C194.644 24.4533 192.895 25.968 190.847 26.992L200.703 46ZM185.727 18.352C186.623 17.4133 187.071 16.3253 187.071 15.088C187.071 13.8507 186.623 12.784 185.727 11.888C184.831 10.9493 183.657 10.48 182.207 10.48H175.871V19.696H182.207C183.657 19.696 184.831 19.248 185.727 18.352ZM217.621 46H206.421V0.431999H217.621V46ZM257.45 32.048C257.45 36.528 255.765 40.048 252.394 42.608C249.066 45.1253 244.885 46.384 239.85 46.384C236.095 46.384 232.81 45.9573 229.994 45.104C227.221 44.208 224.746 42.6293 222.57 40.368L229.738 33.2C231.871 35.3333 235.263 36.4 239.914 36.4C244.266 36.4 246.442 35.0347 246.442 32.304C246.442 31.152 246.143 30.256 245.546 29.616C244.906 28.976 243.903 28.5707 242.538 28.4L237.034 27.632C232.981 27.0347 229.93 25.6907 227.882 23.6C225.791 21.4667 224.746 18.416 224.746 14.448C224.746 10.224 226.239 6.768 229.226 4.08C232.255 1.392 236.309 0.0479965 241.386 0.0479965C247.999 0.0479965 253.119 1.86133 256.746 5.488L249.706 12.528C248.597 11.4187 247.381 10.6933 246.058 10.352C244.778 10.0107 243.114 9.84 241.066 9.84C239.274 9.84 237.909 10.2667 236.97 11.12C236.031 11.9733 235.562 12.9547 235.562 14.064C235.562 14.8747 235.861 15.5787 236.458 16.176C237.183 16.9013 238.229 17.3493 239.594 17.52L245.098 18.288C249.109 18.8427 252.095 20.1013 254.058 22.064C256.319 24.2827 257.45 27.6107 257.45 32.048ZM295.708 10.416H284.508V46H273.308V10.416H262.108V0.431999H295.708V10.416ZM313.433 46H302.233V0.431999H313.433V46ZM355.759 31.536C354.948 36.4 352.985 40.0907 349.871 42.608C346.799 45.1253 343.023 46.384 338.543 46.384C333.423 46.384 329.199 44.72 325.871 41.392C324.761 40.2827 323.865 39.088 323.183 37.808C322.5 36.528 322.031 35.0133 321.775 33.264C321.519 31.5147 321.348 30.0213 321.263 28.784C321.22 27.5467 321.199 25.6907 321.199 23.216C321.199 20.7413 321.22 18.8853 321.263 17.648C321.348 16.4107 321.519 14.9173 321.775 13.168C322.031 11.4187 322.5 9.904 323.183 8.624C323.865 7.344 324.761 6.14933 325.871 5.04C329.199 1.712 333.423 0.0479965 338.543 0.0479965C343.023 0.0479965 346.799 1.30666 349.871 3.824C352.985 6.34133 354.948 10.032 355.759 14.896H344.367C343.471 11.6533 341.529 10.032 338.543 10.032C336.58 10.032 335.108 10.672 334.127 11.952C333.529 12.72 333.081 13.8507 332.783 15.344C332.527 16.7947 332.399 19.4187 332.399 23.216C332.399 27.0133 332.527 29.6587 332.783 31.152C333.081 32.6027 333.529 33.712 334.127 34.48C335.108 35.76 336.58 36.4 338.543 36.4C341.529 36.4 343.471 34.7787 344.367 31.536H355.759ZM57.984 83.432L45.504 129H36.352L28.992 106.536L21.632 129H12.544L0 83.432H11.712L17.664 107.496L25.024 83.432H32.96L40.32 107.496L46.272 83.432H57.984ZM73.808 129H62.608V83.432H73.808V129ZM119.078 129H106.086L98.0215 112.04H94.2455V129H83.0455V83.432H101.094C105.915 83.432 109.712 84.8827 112.486 87.784C115.259 90.6427 116.646 94.0773 116.646 98.088C116.646 100.947 115.92 103.4 114.47 105.448C113.019 107.453 111.27 108.968 109.222 109.992L119.078 129ZM104.102 101.352C104.998 100.413 105.446 99.3253 105.446 98.088C105.446 96.8507 104.998 95.784 104.102 94.888C103.206 93.9493 102.032 93.48 100.582 93.48H94.2455V102.696H100.582C102.032 102.696 103.206 102.248 104.102 101.352ZM155.772 129H124.796V83.432H155.772V93.416H135.996V101.032H152.892V111.016H135.996V119.016H155.772V129ZM194.069 129H163.733V83.432H174.933V119.016H194.069V129ZM231.584 129H200.608V83.432H231.584V93.416H211.808V101.032H228.704V111.016H211.808V119.016H231.584V129ZM270.138 115.048C270.138 119.528 268.452 123.048 265.082 125.608C261.754 128.125 257.572 129.384 252.538 129.384C248.783 129.384 245.498 128.957 242.682 128.104C239.908 127.208 237.434 125.629 235.258 123.368L242.426 116.2C244.559 118.333 247.951 119.4 252.602 119.4C256.954 119.4 259.13 118.035 259.13 115.304C259.13 114.152 258.831 113.256 258.234 112.616C257.594 111.976 256.591 111.571 255.226 111.4L249.722 110.632C245.668 110.035 242.618 108.691 240.57 106.6C238.479 104.467 237.434 101.416 237.434 97.448C237.434 93.224 238.927 89.768 241.914 87.08C244.943 84.392 248.996 83.048 254.074 83.048C260.687 83.048 265.807 84.8613 269.434 88.488L262.394 95.528C261.284 94.4187 260.068 93.6933 258.746 93.352C257.466 93.0107 255.802 92.84 253.753 92.84C251.962 92.84 250.596 93.2667 249.658 94.12C248.719 94.9733 248.25 95.9547 248.25 97.064C248.25 97.8747 248.548 98.5787 249.146 99.176C249.871 99.9013 250.916 100.349 252.282 100.52L257.786 101.288C261.796 101.843 264.783 103.101 266.746 105.064C269.007 107.283 270.138 110.611 270.138 115.048ZM307.763 115.048C307.763 119.528 306.077 123.048 302.707 125.608C299.379 128.125 295.197 129.384 290.163 129.384C286.408 129.384 283.123 128.957 280.307 128.104C277.533 127.208 275.059 125.629 272.883 123.368L280.051 116.2C282.184 118.333 285.576 119.4 290.227 119.4C294.579 119.4 296.755 118.035 296.755 115.304C296.755 114.152 296.456 113.256 295.859 112.616C295.219 111.976 294.216 111.571 292.851 111.4L287.347 110.632C283.293 110.035 280.243 108.691 278.195 106.6C276.104 104.467 275.059 101.416 275.059 97.448C275.059 93.224 276.552 89.768 279.539 87.08C282.568 84.392 286.621 83.048 291.699 83.048C298.312 83.048 303.432 84.8613 307.059 88.488L300.019 95.528C298.909 94.4187 297.693 93.6933 296.371 93.352C295.091 93.0107 293.427 92.84 291.378 92.84C289.587 92.84 288.221 93.2667 287.283 94.12C286.344 94.9733 285.875 95.9547 285.875 97.064C285.875 97.8747 286.173 98.5787 286.771 99.176C287.496 99.9013 288.541 100.349 289.907 100.52L295.411 101.288C299.421 101.843 302.408 103.101 304.371 105.064C306.632 107.283 307.763 110.611 307.763 115.048ZM35.2 198.048C35.2 202.528 33.5147 206.048 30.144 208.608C26.816 211.125 22.6347 212.384 17.6 212.384C13.8453 212.384 10.56 211.957 7.744 211.104C4.97067 210.208 2.496 208.629 0.32 206.368L7.488 199.2C9.62133 201.333 13.0133 202.4 17.664 202.4C22.016 202.4 24.192 201.035 24.192 198.304C24.192 197.152 23.8933 196.256 23.296 195.616C22.656 194.976 21.6533 194.571 20.288 194.4L14.784 193.632C10.7307 193.035 7.68 191.691 5.632 189.6C3.54133 187.467 2.496 184.416 2.496 180.448C2.496 176.224 3.98933 172.768 6.976 170.08C10.0053 167.392 14.0587 166.048 19.136 166.048C25.7493 166.048 30.8693 167.861 34.496 171.488L27.456 178.528C26.3467 177.419 25.1307 176.693 23.808 176.352C22.528 176.011 20.864 175.84 18.816 175.84C17.024 175.84 15.6587 176.267 14.72 177.12C13.7813 177.973 13.312 178.955 13.312 180.064C13.312 180.875 13.6107 181.579 14.208 182.176C14.9333 182.901 15.9787 183.349 17.344 183.52L22.848 184.288C26.8587 184.843 29.8453 186.101 31.808 188.064C34.0693 190.283 35.2 193.611 35.2 198.048ZM71.9855 170.784C74.7588 173.643 76.1455 177.077 76.1455 181.088C76.1455 185.099 74.7588 188.555 71.9855 191.456C69.2122 194.315 65.4148 195.744 60.5935 195.744H53.7455V212H42.5455V166.432H60.5935C65.4148 166.432 69.2122 167.883 71.9855 170.784ZM63.6015 184.352C64.4975 183.413 64.9455 182.325 64.9455 181.088C64.9455 179.851 64.4975 178.784 63.6015 177.888C62.7055 176.949 61.5322 176.48 60.0815 176.48H53.7455V185.696H60.0815C61.5322 185.696 62.7055 185.248 63.6015 184.352ZM113.647 212H82.6705V166.432H113.647V176.416H93.8705V184.032H110.767V194.016H93.8705V202.016H113.647V212ZM158.792 212H147.08L144.968 205.216H130.952L128.712 212H117L133.576 166.432H142.216L158.792 212ZM142.024 195.872L138.184 183.712L134.088 195.872H142.024ZM201.885 212H188.829L178.333 193.312L174.493 197.728V212H163.421V166.432H174.493V182.56L187.677 166.432H201.373L185.821 184.864L201.885 212ZM237.459 212H206.483V166.432H237.459V176.416H217.683V184.032H234.579V194.016H217.683V202.016H237.459V212ZM281.453 212H268.461L260.397 195.04H256.621V212H245.421V166.432H263.469C268.29 166.432 272.087 167.883 274.861 170.784C277.634 173.643 279.021 177.077 279.021 181.088C279.021 183.947 278.295 186.4 276.845 188.448C275.394 190.453 273.645 191.968 271.597 192.992L281.453 212ZM266.477 184.352C267.373 183.413 267.821 182.325 267.821 181.088C267.821 179.851 267.373 178.784 266.477 177.888C265.581 176.949 264.407 176.48 262.957 176.48H256.621V185.696H262.957C264.407 185.696 265.581 185.248 266.477 184.352Z" fill="#333333"/>
</svg>
