<svg version="1.1" xmlns="http://www.w3.org/2000/svg" xmlns:xlink="http://www.w3.org/1999/xlink" width="18" height="12" viewBox="0,0,256,170.65625"><g fill="#000000" fill-rule="nonzero" stroke="none" stroke-width="1" stroke-linecap="butt" stroke-linejoin="miter" stroke-miterlimit="10" stroke-dasharray="" stroke-dashoffset="0" font-family="none" font-weight="none" font-size="none" text-anchor="none" style="mix-blend-mode: normal"><g transform="translate(0,-0.00521) scale(14.22222,14.22222)"><path d="M0,11c0,0.5523 0.44772,1 1,1h7c0.55229,0 1,-0.4477 1,-1c0,-0.5523 -0.44771,-1 -1,-1h-7c-0.55228,0 -1,0.4477 -1,1zM0,6c0,0.55228 0.44772,1 1,1h16c0.5523,0 1,-0.44772 1,-1c0,-0.55228 -0.4477,-1 -1,-1h-16c-0.55228,0 -1,0.44772 -1,1zM1,0c-0.55228,0 -1,0.44772 -1,1c0,0.55228 0.44772,1 1,1h11c0.5523,0 1,-0.44772 1,-1c0,-0.55228 -0.4477,-1 -1,-1z"></path></g></g></svg>