<svg xmlns="http://www.w3.org/2000/svg" xmlns:xlink="http://www.w3.org/1999/xlink" viewBox="0,0,256,256" width="64px" height="64px" fill-rule="nonzero"><defs><radialGradient cx="32" cy="31.5" r="31.259" gradientUnits="userSpaceOnUse" id="color-1"><stop offset="0" stop-color="#9a7114"></stop><stop offset="0" stop-color="#f2e0bb"></stop><stop offset="0.011" stop-color="#f2e0bc"></stop><stop offset="0.362" stop-color="#f9edd2"></stop><stop offset="0.699" stop-color="#fef4df"></stop><stop offset="1" stop-color="#fff7e4"></stop></radialGradient><radialGradient cx="18.50893" cy="66.2956" r="69.64554" gradientUnits="userSpaceOnUse" id="color-2"><stop offset="0.073" stop-color="#eacc7b"></stop><stop offset="0.184" stop-color="#ecaa59"></stop><stop offset="0.307" stop-color="#ef802e"></stop><stop offset="0.358" stop-color="#ef6d3a"></stop><stop offset="0.46" stop-color="#f04b50"></stop><stop offset="0.516" stop-color="#f03e58"></stop><stop offset="0.689" stop-color="#db359e"></stop><stop offset="0.724" stop-color="#ce37a4"></stop><stop offset="0.789" stop-color="#ac3cb4"></stop><stop offset="0.877" stop-color="#7544cf"></stop><stop offset="0.98" stop-color="#2b4ff2"></stop></radialGradient></defs><g fill="none" fill-rule="nonzero" stroke="none" stroke-width="1" stroke-linecap="butt" stroke-linejoin="miter" stroke-miterlimit="10" stroke-dasharray="" stroke-dashoffset="0" font-family="none" font-weight="none" font-size="none" text-anchor="none" style="mix-blend-mode: normal"><g transform="translate(-0.54955,18.44246) scale(4,4)"><path d="M58,54c-1.1,0 -2,-0.9 -2,-2c0,-1.1 0.9,-2 2,-2h2.5c1.9,0 3.5,-1.6 3.5,-3.5c0,-1.9 -1.6,-3.5 -3.5,-3.5h-10.5c-1.4,0 -2.5,-1.1 -2.5,-2.5c0,-1.4 1.1,-2.5 2.5,-2.5h8c1.7,0 3,-1.3 3,-3c0,-1.7 -1.3,-3 -3,-3h-16v-6h18c2.3,0 4.2,-2 4,-4.4c-0.2,-2.1 -2.1,-3.6 -4.2,-3.6h-1.8c-1.1,0 -2,-0.9 -2,-2c0,-1.1 0.9,-2 2,-2h0.4c1.3,0 2.5,-0.9 2.6,-2.2c0.2,-1.5 -1,-2.8 -2.5,-2.8h-14c-0.8,0 -1.5,-0.7 -1.5,-1.5c0,-0.8 0.7,-1.5 1.5,-1.5h3.9c1.3,0 2.5,-0.9 2.6,-2.2c0.1,-1.5 -1,-2.8 -2.5,-2.8h-32.9c-1.3,0 -2.5,0.9 -2.6,2.2c-0.1,1.5 1,2.8 2.5,2.8h3.5c1.1,0 2,0.9 2,2c0,1.1 -0.9,2 -2,2h-12.8c-2.1,0 -4,1.5 -4.2,3.6c-0.2,2.4 1.7,4.4 4,4.4h2.5c1.9,0 3.5,1.6 3.5,3.5c0,1.9 -1.6,3.5 -3.5,3.5h-3.3c-2.1,0 -4,1.5 -4.2,3.6c-0.2,2.4 1.7,4.4 4,4.4h17v11h-16c-1.7,0 -3,1.3 -3,3c0,1.7 1.3,3 3,3v0c1.1,0 2,0.9 2,2c0,1.1 -0.9,2 -2,2h-1.8c-2.1,0 -4,1.5 -4.2,3.6c-0.2,2.4 1.7,4.4 4,4.4h53.8c2.1,0 4,-1.5 4.2,-3.6c0.2,-2.4 -1.7,-4.4 -4,-4.4z" fill="url(#color-1)"></path><path d="M45,57h-26c-5.5,0 -10,-4.5 -10,-10v-26c0,-5.5 4.5,-10 10,-10h26c5.5,0 10,4.5 10,10v26c0,5.5 -4.5,10 -10,10z" fill="url(#color-2)"></path><path d="M32,20c4.6,0 5.1,0 6.9,0.1c1.7,0.1 2.6,0.4 3.2,0.6c0.8,0.3 1.4,0.7 2,1.3c0.6,0.6 1,1.2 1.3,2c0.2,0.6 0.5,1.5 0.6,3.2c0,1.7 0,2.2 0,6.8c0,4.6 0,5.1 -0.1,6.9c-0.1,1.7 -0.4,2.6 -0.6,3.2c-0.3,0.8 -0.7,1.4 -1.3,2c-0.6,0.6 -1.2,1 -2,1.3c-0.6,0.2 -1.5,0.5 -3.2,0.6c-1.7,0 -2.2,0 -6.8,0c-4.6,0 -5.1,0 -6.9,-0.1c-1.7,-0.1 -2.6,-0.4 -3.2,-0.6c-0.8,-0.3 -1.4,-0.7 -2,-1.3c-0.6,-0.6 -1,-1.2 -1.3,-2c-0.2,-0.6 -0.5,-1.5 -0.6,-3.2c0,-1.7 0,-2.2 0,-6.8c0,-4.6 0,-5.1 0.1,-6.9c0.1,-1.7 0.4,-2.6 0.6,-3.2c0.3,-0.8 0.7,-1.4 1.3,-2c0.6,-0.6 1.2,-1 2,-1.3c0.6,-0.2 1.5,-0.5 3.2,-0.6c1.7,0 2.2,0 6.8,0M32,17c-4.6,0 -5.2,0 -7,0.1c-1.8,0.1 -3,0.4 -4.1,0.8c-1.1,0.4 -2.1,1 -3,2c-0.9,1 -1.5,1.9 -2,3c-0.4,1.1 -0.7,2.3 -0.8,4.1c-0.1,1.8 -0.1,2.4 -0.1,7c0,4.6 0,5.2 0.1,7c0.1,1.8 0.4,3 0.8,4.1c0.4,1.1 1,2.1 2,3c0.9,0.9 1.9,1.5 3,2c1.1,0.4 2.3,0.7 4.1,0.8c1.8,0.1 2.4,0.1 7,0.1c4.6,0 5.2,0 7,-0.1c1.8,-0.1 3,-0.4 4.1,-0.8c1.1,-0.4 2.1,-1 3,-2c0.9,-0.9 1.5,-1.9 2,-3c0.4,-1.1 0.7,-2.3 0.8,-4.1c0.1,-1.8 0.1,-2.4 0.1,-7c0,-4.6 0,-5.2 -0.1,-7c-0.1,-1.8 -0.4,-3 -0.8,-4.1c-0.4,-1.1 -1,-2.1 -2,-3c-1,-0.9 -1.9,-1.5 -3,-2c-1.1,-0.4 -2.3,-0.7 -4.1,-0.8c-1.8,-0.1 -2.4,-0.1 -7,-0.1z" fill="#ffffff"></path><path d="M32,25c-5,0 -9,4 -9,9c0,5 4,9 9,9c5,0 9,-4 9,-9c0,-5 -4,-9 -9,-9zM32,40c-3.3,0 -6,-2.7 -6,-6c0,-3.3 2.7,-6 6,-6c3.3,0 6,2.7 6,6c0,3.3 -2.7,6 -6,6z" fill="#ffffff"></path><circle cx="41" cy="25" r="2" fill="#ffffff"></circle></g></g></svg>