<svg width="32" height="32" viewBox="0 0 32 32" fill="none" xmlns="http://www.w3.org/2000/svg">
<path d="M25.5924 8.55619C26.1857 7.96288 26.1857 7.00093 25.5924 6.40762C24.9991 5.81431 24.0372 5.81431 23.4438 6.40762L16 13.8514L8.55623 6.40762C7.96292 5.8143 7.00097 5.81431 6.40766 6.40762C5.81435 7.00093 5.81435 7.96288 6.40766 8.55619L13.8515 16L6.40766 23.4438C5.81435 24.0371 5.81435 24.9991 6.40766 25.5924C7.00097 26.1857 7.96292 26.1857 8.55623 25.5924L16 18.1486L23.4439 25.5924C24.0372 26.1857 24.9991 26.1857 25.5924 25.5924C26.1857 24.9991 26.1857 24.0371 25.5924 23.4438L18.1486 16L25.5924 8.55619Z" fill="white"/>
</svg>
