<?xml version="1.0" encoding="UTF-8"?>
<svg
  xmlns="http://www.w3.org/2000/svg"
  viewBox="0 0 24 24">
  <title>Twitter</title>
  <path fill="#ffffff" d="M22.46 6c-.77.35-1.6.58-2.46.69a4.25 4.25 0 0 0 1.88-2.35 8.55 8.55 0 0 1-2.7 1.03 4.24 4.24 0 0 0-7.23 3.86A12.03 12.03 0 0 1 3.13 4.73a4.24 4.24 0 0 0 1.31 5.67 4.21 4.21 0 0 1-1.92-.53v.05a4.24 4.24 0 0 0 3.4 4.16 4.28 4.28 0 0 1-1.92.07 4.24 4.24 0 0 0 3.96 2.95A8.5 8.5 0 0 1 2 19.54a12 12 0 0 0 6.29 1.84c7.55 0 11.68-6.26 11.68-11.68l-.01-.53A8.3 8.3 0 0 0 24 4.56a8.36 8.36 0 0 1-2.54.7z"/>
</svg>
