<?xml version="1.0" encoding="UTF-8"?>
<svg
  xmlns="http://www.w3.org/2000/svg"
  viewBox="0 0 24 24">
  <title>LinkedIn</title>
  <path fill="#ffffff" d="M20.447 20.452H17.4v-5.569c0-1.327-.024-3.036-1.852-3.036-1.853 0-2.136 1.447-2.136 2.941v5.664H10.43V9h3.097v1.561h.044c.431-.816 1.484-1.672 3.053-1.672 3.27 0 3.874 2.152 3.874 4.951v6.612zM5.337 7.433a1.792 1.792 0 1 1 0-3.584 1.792 1.792 0 0 1 0 3.584zm1.746 13.019H3.592V9h3.491v11.452zM22.225 0H1.771C.792 0 0 .774 0 1.728v20.543C0 23.226.792 24 1.771 24h20.451C23.2 24 24 23.226 24 22.271V1.728C24 .774 23.2 0 22.225 0z"/>
</svg>
