<svg width="54" height="46" viewBox="0 0 54 46" fill="none" xmlns="http://www.w3.org/2000/svg">
<path d="M0 23C0 35.348 9.78 45.449 22 45.975V0.0250244C9.78 0.551024 0 10.653 0 23Z" fill="#333333"/>
<path d="M35 0H24V46H35C35.553 46 36 45.553 36 45V1C36 0.448 35.553 0 35 0Z" fill="#333333"/>
<path d="M53 22H43C42.447 22 42 22.448 42 23C42 23.552 42.447 24 43 24H53C53.553 24 54 23.552 54 23C54 22.448 53.553 22 53 22Z" fill="#333333"/>
<path d="M43.0003 16C43.2563 16 43.5123 15.902 43.7073 15.707L52.7073 6.70701C53.0983 6.31601 53.0983 5.68401 52.7073 5.29301C52.3163 4.90201 51.6842 4.90201 51.2933 5.29301L42.2932 14.293C41.9022 14.684 41.9022 15.316 42.2932 15.707C42.4882 15.902 42.7443 16 43.0003 16Z" fill="#333333"/>
<path d="M43.7073 30.293C43.3163 29.902 42.6842 29.902 42.2932 30.293C41.9022 30.684 41.9022 31.316 42.2932 31.707L51.2933 40.707C51.4882 40.902 51.7443 41 52.0003 41C52.2563 41 52.5123 40.902 52.7073 40.707C53.0983 40.316 53.0983 39.684 52.7073 39.293L43.7073 30.293Z" fill="#333333"/>
</svg>
