<?xml version="1.0" encoding="iso-8859-1"?>
<!-- Generator: Adobe Illustrator 21.0.0, SVG Export Plug-In . SVG Version: 6.00 Build 0)  -->
<svg version="1.1" id="Layer_1" xmlns="http://www.w3.org/2000/svg" xmlns:xlink="http://www.w3.org/1999/xlink" x="0px" y="0px"
	 viewBox="0 0 100.353 100.353" style="enable-background:new 0 0 100.353 100.353;" xml:space="preserve">
<g>
	<path style="fill:#231F20;" d="M21.235,71.238c-0.386,0-0.757-0.154-1.03-0.427L0.427,51.029c-0.569-0.568-0.569-1.491,0-2.059
		l19.774-19.774c0.569-0.569,1.49-0.569,2.059,0L42.042,48.97c0.273,0.273,0.427,0.644,0.427,1.03s-0.154,0.757-0.427,1.03
		L22.263,70.812C21.992,71.084,21.621,71.238,21.235,71.238z M3.517,50l17.718,17.722L38.954,50L21.231,32.285L3.517,50z"/>
	<path style="fill:#231F20;" d="M49.999,42.474c-0.373,0-0.745-0.142-1.03-0.426L29.187,22.266c-0.273-0.273-0.427-0.644-0.427-1.03
		s0.154-0.757,0.427-1.03L48.969,0.428c0.569-0.568,1.49-0.568,2.059,0L70.81,20.21c0.273,0.273,0.427,0.644,0.427,1.03
		s-0.154,0.756-0.427,1.03L51.028,42.048C50.745,42.332,50.372,42.474,49.999,42.474z M32.276,21.237l17.723,17.722L67.721,21.24
		L49.999,3.518L32.276,21.237z"/>
	<path style="fill:#231F20;" d="M49.999,99.998c-0.373,0-0.745-0.143-1.03-0.427L29.187,79.789c-0.273-0.273-0.427-0.644-0.427-1.03
		s0.154-0.757,0.427-1.03l19.779-19.778c0.569-0.569,1.49-0.569,2.059,0l19.782,19.782c0.569,0.569,0.569,1.491,0,2.06
		L51.029,99.571C50.745,99.855,50.372,99.998,49.999,99.998z M32.276,78.759l17.723,17.722l17.718-17.719L49.995,61.04
		L32.276,78.759z"/>
	<path style="fill:#231F20;" d="M78.763,71.238L78.763,71.238c-0.386,0-0.757-0.154-1.03-0.427L57.951,51.025
		c-0.273-0.273-0.427-0.644-0.427-1.03s0.154-0.757,0.427-1.03l19.782-19.774c0.569-0.568,1.49-0.568,2.059,0l19.783,19.778
		c0.273,0.273,0.427,0.643,0.427,1.03c0,0.386-0.154,0.756-0.427,1.03L79.792,70.811C79.519,71.084,79.148,71.238,78.763,71.238z
		 M61.04,49.996l17.722,17.726L96.485,50L78.762,32.28L61.04,49.996z"/>
</g>
</svg>
