<?xml version="1.0" encoding="UTF-8"?>
<svg
  xmlns="http://www.w3.org/2000/svg"
  viewBox="0 0 24 24">
  <title>GitHub</title>
  <path fill="#ffffff" d="M12 .5C5.648.5.5 5.648.5 12c0 5.087 3.293 9.388 7.864 10.91.575.107.787-.25.787-.556 0-.274-.01-1.001-.015-1.966-3.202.696-3.877-1.544-3.877-1.544-.523-1.332-1.277-1.688-1.277-1.688-1.044-.714.079-.699.079-.699 1.154.081 1.762 1.187 1.762 1.187 1.026 1.758 2.692 1.25 3.35.955.103-.743.402-1.249.732-1.535-2.556-.291-5.243-1.278-5.243-5.69 0-1.256.45-2.283 1.188-3.091-.119-.292-.516-1.467.113-3.06 0 0 .97-.312 3.174 1.182a11.033 11.033 0 0 1 2.895-.392 11.03 11.03 0 0 1 2.895.392c2.203-1.494 3.172-1.182 3.172-1.182.63 1.593.233 2.768.114 3.06.74.808 1.188 1.835 1.188 3.091 0 4.423-2.69 5.395-5.256 5.678.414.356.783 1.059.783 2.135 0 1.541-.014 2.783-.014 3.161 0 .307.21.67.792.556C20.71 21.388 24 17.087 24 12 24 5.648 18.352.5 12 .5z"/>
</svg>
