<svg xmlns="http://www.w3.org/2000/svg" width="24" height="24" fill="white" viewBox="0 0 24 24">
  <path d="M12 2.163c3.204 0 3.584.012 4.85.07 1.17.056 1.987.24 2.452.415.545.207.933.457 1.342.866.41.41.66.797.866 1.342.175.465.359 1.282.415 2.452.058 1.266.07 1.646.07 4.85s-.012 3.584-.07 4.85c-.056 1.17-.24 1.987-.415 2.452-.207.545-.457.933-.866 1.342-.41.41-.797.66-1.342.866-.465.175-1.282.359-2.452.415-1.266.058-1.646.07-4.85.07s-3.584-.012-4.85-.07c-1.17-.056-1.987-.24-2.452-.415-.545-.207-.933-.457-1.342-.866-.41-.41-.66-.797-.866-1.342-.175-.465-.359-1.282-.415-2.452C2.175 15.747 2.163 15.367 2.163 12s.012-3.584.07-4.85c.056-1.17.24-1.987.415-2.452.207-.545.457-.933.866-1.342.41-.41.797-.66 1.342-.866.465-.175 1.282-.359 2.452-.415C8.416 2.175 8.796 2.163 12 2.163zm0-2.163C8.741 0 8.332.013 7.052.07 5.77.127 4.675.308 3.8.611c-.936.322-1.73.747-2.525 1.542C.48 3.948.055 4.743-.267 5.678-.57 6.553-.751 7.648-.808 8.93-.865 10.21-.878 10.619-.878 14s.013 3.79.07 5.07c.057 1.282.238 2.377.541 3.252.322.935.747 1.73 1.542 2.525.795.795 1.59 1.22 2.525 1.542.875.303 1.97.484 3.252.541 1.28.057 1.689.07 5.07.07s3.79-.013 5.07-.07c1.282-.057 2.377-.238 3.252-.541.935-.322 1.73-.747 2.525-1.542.795-.795 1.22-1.59 1.542-2.525.303-.875.484-1.97.541-3.252.057-1.28.07-1.689.07-5.07s-.013-3.79-.07-5.07c-.057-1.282-.238-2.377-.541-3.252-.322-.935-.747-1.73-1.542-2.525C20.052.48 19.257.055 18.322-.267c-.875-.303-1.97-.484-3.252-.541C15.26.013 14.851 0 12 0zM12 5.838a6.162 6.162 0 100 12.324 6.162 6.162 0 000-12.324zm0 10.162a3.999 3.999 0 110-7.998 3.999 3.999 0 010 7.998zm6.406-11.845a1.44 1.44 0 11-2.88 0 1.44 1.44 0 012.88 0z"/>
</svg>