<svg width="81" height="76" viewBox="0 0 81 76" fill="none" xmlns="http://www.w3.org/2000/svg">
<path d="M44.6165 74.9998L41.6895 69.5589M15.6393 21.1351L22.9568 34.7373M22.9568 34.7373L26.3151 23.3114M22.9568 34.7373L11.5723 31.4727M22.9568 34.7373L29.3962 46.7072M29.3962 46.7072L33.9407 29.2964M29.3962 46.7072L14.1142 42.3545M29.3962 46.7072L37.0064 60.8535M37.0064 60.8535L43.0914 38.0018M37.0064 60.8535L15.6393 54.8685M37.0064 60.8535L41.6895 69.5589M41.6895 69.5589C63.7885 40.3042 67.4411 24.5607 5.98022 1.54791" stroke="#344F10"/>
<path d="M5.96631 1C-7.88296 67.0958 8.26651 70.6453 41.5665 69.5591M55.2924 47.7956L57.3258 44.6148M68.51 27.1203L61.9012 37.4579M61.9012 37.4579H70.5435M61.9012 37.4579L59.3593 29.2966M61.9012 37.4579L57.3258 44.6148M57.3258 44.6148H68.51M57.3258 44.6148L51.7337 54.8688L64.9514 55.9569" stroke="#344F10"/>
<path d="M44.1082 66.2944C74.969 65.8643 86.669 59.3002 76.3171 13.0591" stroke="#344F10"/>
<path d="M76.644 13.5181C65.4845 16.1017 59.6859 18.3178 52.2421 27.1203" stroke="#344F10"/>
</svg>
