<?xml version="1.0" encoding="utf-8"?>
<!-- Generator: Adobe Illustrator 18.1.1, SVG Export Plug-In . SVG Version: 6.00 Build 0)  -->
<!DOCTYPE svg PUBLIC "-//W3C//DTD SVG 1.1//EN" "http://www.w3.org/Graphics/SVG/1.1/DTD/svg11.dtd">
<svg version="1.1" id="Layer_1" xmlns="http://www.w3.org/2000/svg" xmlns:xlink="http://www.w3.org/1999/xlink" x="0px" y="0px"
	 viewBox="0 0 400 400" enable-background="new 0 0 400 400" xml:space="preserve">
<g>
	<path fill="#D6C9B5" d="M364.2,306.5c0,32.5-26.5,58.8-59.3,58.8H95.1c-32.7,0-59.3-26.3-59.3-58.8v-213
		c0-32.5,26.5-58.8,59.3-58.8h209.8c32.7,0,59.3,26.3,59.3,58.8V306.5z"/>
	<g>
		<defs>
			<path id="SVGID_1_" d="M304.9,34.7H95.1c-32.7,0-59.3,26.3-59.3,58.8v44.6h328.4V93.5C364.2,61,337.6,34.7,304.9,34.7z"/>
		</defs>
		<use xlink:href="#SVGID_1_"  overflow="visible" fill="#5D4D48"/>
		<clipPath id="SVGID_2_">
			<use xlink:href="#SVGID_1_"  overflow="visible"/>
		</clipPath>
		<rect x="58" y="27.9" clip-path="url(#SVGID_2_)" fill="#EE4741" width="15.7" height="107.1"/>
		<rect x="73.7" y="27.9" clip-path="url(#SVGID_2_)" fill="#FFD134" width="15.7" height="107.1"/>
		<rect x="89.3" y="27.9" clip-path="url(#SVGID_2_)" fill="#BBDB9B" width="15.7" height="107.1"/>
		<rect x="105" y="27.9" clip-path="url(#SVGID_2_)" fill="#4B8BC9" width="15.7" height="107.1"/>
	</g>
	<path fill="#3B241B" d="M339.9,107.3c0,8.1-6.5,14.6-14.6,14.6h-37.2c-8.1,0-14.6-6.5-14.6-14.6V70.1c0-8.1,6.5-14.6,14.6-14.6
		h37.2c8.1,0,14.6,6.5,14.6,14.6V107.3z"/>
	<radialGradient id="SVGID_3_" cx="306.735" cy="88.6825" r="20.6009" gradientUnits="userSpaceOnUse">
		<stop  offset="0" style="stop-color:#FFFFFF;stop-opacity:0.6"/>
		<stop  offset="0.5337" style="stop-color:#585565"/>
		<stop  offset="1" style="stop-color:#1D253E"/>
	</radialGradient>
	<circle fill="url(#SVGID_3_)" cx="306.7" cy="88.7" r="20.6"/>
	<path fill="none" d="M304.9,34.7H95.1c-32.7,0-59.3,26.3-59.3,58.8v44.6h328.4V93.5C364.2,61,337.6,34.7,304.9,34.7z"/>
	<path fill="#675851" d="M126.7,144.3c0,8.1-6.5,14.6-14.6,14.6H69c-8.1,0-14.6-6.5-14.6-14.6v-3.4c0-8.1,6.5-14.6,14.6-14.6h43.1
		c8.1,0,14.6,6.5,14.6,14.6V144.3z"/>
	<circle fill="#E4DFD6" cx="200.1" cy="199.6" r="86.4"/>
	<radialGradient id="SVGID_4_" cx="200.1328" cy="199.6128" r="73.3901" gradientUnits="userSpaceOnUse">
		<stop  offset="0" style="stop-color:#FFFFFF"/>
		<stop  offset="0.5337" style="stop-color:#6D9BB7"/>
		<stop  offset="1" style="stop-color:#1D253E"/>
	</radialGradient>
	<circle fill="url(#SVGID_4_)" stroke="#58595B" stroke-width="6" stroke-miterlimit="10" cx="200.1" cy="199.6" r="73.4"/>
	<circle fill="#546469" cx="200.1" cy="199.6" r="40.7"/>
	<radialGradient id="SVGID_5_" cx="200.1331" cy="199.6128" r="37.72" gradientUnits="userSpaceOnUse">
		<stop  offset="0" style="stop-color:#FFFFFF"/>
		<stop  offset="0.5337" style="stop-color:#585565"/>
		<stop  offset="1" style="stop-color:#1D253E"/>
	</radialGradient>
	<circle fill="url(#SVGID_5_)" cx="200.1" cy="199.6" r="37.7"/>
	
		<text transform="matrix(1 0 0 1 63.5552 149.7199)" fill="#FFFFFF" stroke="#FFFFFF" stroke-miterlimit="10" font-family="'TimesNewRomanPS-BoldMT'" font-size="23.5265">Insta</text>
	<path opacity="0.2" fill="#FFFFFF" d="M179.8,252.3c0,6.4,0.8,12.6,2.4,18.5c5.7,1.4,11.7,2.2,17.9,2.2c40.5,0,73.4-32.9,73.4-73.4
		c0-5.4-0.6-10.7-1.7-15.8c-6.5-2-13.4-3-20.6-3C211.8,180.8,179.8,212.8,179.8,252.3z"/>
	<path opacity="0.4" fill="#FFFFFF" d="M153.3,154.8l13.8,13.2c5.1-5.3,11.4-9.3,18.5-11.7l-6.1-18.1
		C169.5,141.5,160.5,147.3,153.3,154.8z"/>
	<path opacity="0.4" fill="#FFFFFF" d="M139.1,177.8l18,6.4c1.5-4.1,3.5-7.9,6-11.3l-15.5-11.2C144,166.6,141.2,172,139.1,177.8z"/>
	<path opacity="0.4" fill="#FFFFFF" d="M314.2,72.1l-4.9,8.6c1.9,1.1,3.7,2.5,5.2,4.1l7.1-6.9C319.5,75.6,317,73.6,314.2,72.1z"/>
</g>
</svg>
