<svg width="24" height="24" viewBox="0 0 24 24" fill="none" xmlns="http://www.w3.org/2000/svg">
<path d="M18 3.00049H6C4.3 3.00049 3 4.29227 3 5.98153V17.9057C3 19.5949 4.3 20.8867 6 20.8867H18C19.7 20.8867 21 19.5949 21 17.9057V5.98153C21 4.29227 19.7 3.00049 18 3.00049ZM12 8.96256C13.7 8.96256 15 10.2543 15 11.9436C15 13.6329 13.7 14.9246 12 14.9246C10.3 14.9246 9 13.6329 9 11.9436C9 10.2543 10.3 8.96256 12 8.96256ZM15.8 6.97521C15.8 6.27963 16.4 5.78279 17 5.78279C17.6 5.78279 18.2 6.379 18.2 6.97521C18.2 7.57141 17.7 8.16762 17 8.16762C16.3 8.16762 15.8 7.67078 15.8 6.97521ZM18 18.8994H6C5.4 18.8994 5 18.5019 5 17.9057V11.9436H7C7 14.7259 9.2 16.912 12 16.912C14.8 16.912 17 14.7259 17 11.9436H19V17.9057C19 18.5019 18.6 18.8994 18 18.8994Z" fill="#4F4F4F"/>
</svg>
