<svg width="24" height="24" viewBox="0 0 24 24" fill="none" xmlns="http://www.w3.org/2000/svg">
<g filter="url(#filter0_i_24223_3870)">
<g filter="url(#filter1_i_24223_3870)">
<path d="M18 3H6C4.3 3 3 4.29178 3 5.98104V17.9052C3 19.5944 4.3 20.8862 6 20.8862H18C19.7 20.8862 21 19.5944 21 17.9052V5.98104C21 4.29178 19.7 3 18 3ZM12 8.96208C13.7 8.96208 15 10.2539 15 11.9431C15 13.6324 13.7 14.9242 12 14.9242C10.3 14.9242 9 13.6324 9 11.9431C9 10.2539 10.3 8.96208 12 8.96208ZM15.8 6.97472C15.8 6.27914 16.4 5.7823 17 5.7823C17.6 5.7823 18.2 6.37851 18.2 6.97472C18.2 7.57093 17.7 8.16713 17 8.16713C16.3 8.16713 15.8 7.67029 15.8 6.97472V6.97472ZM18 18.8989H6C5.4 18.8989 5 18.5014 5 17.9052V11.9431H7C7 14.7254 9.2 16.9115 12 16.9115C14.8 16.9115 17 14.7254 17 11.9431H19V17.9052C19 18.5014 18.6 18.8989 18 18.8989Z" fill="#0C797A"/>
</g>
</g>
<defs>
<filter id="filter0_i_24223_3870" x="0" y="0" width="24" height="28" filterUnits="userSpaceOnUse" color-interpolation-filters="sRGB">
<feFlood flood-opacity="0" result="BackgroundImageFix"/>
<feBlend mode="normal" in="SourceGraphic" in2="BackgroundImageFix" result="shape"/>
<feColorMatrix in="SourceAlpha" type="matrix" values="0 0 0 0 0 0 0 0 0 0 0 0 0 0 0 0 0 0 127 0" result="hardAlpha"/>
<feOffset dy="4"/>
<feGaussianBlur stdDeviation="2"/>
<feComposite in2="hardAlpha" operator="arithmetic" k2="-1" k3="1"/>
<feColorMatrix type="matrix" values="0 0 0 0 0 0 0 0 0 0 0 0 0 0 0 0 0 0 0.25 0"/>
<feBlend mode="normal" in2="shape" result="effect1_innerShadow_24223_3870"/>
</filter>
<filter id="filter1_i_24223_3870" x="3" y="3" width="18" height="21.8862" filterUnits="userSpaceOnUse" color-interpolation-filters="sRGB">
<feFlood flood-opacity="0" result="BackgroundImageFix"/>
<feBlend mode="normal" in="SourceGraphic" in2="BackgroundImageFix" result="shape"/>
<feColorMatrix in="SourceAlpha" type="matrix" values="0 0 0 0 0 0 0 0 0 0 0 0 0 0 0 0 0 0 127 0" result="hardAlpha"/>
<feOffset dy="4"/>
<feGaussianBlur stdDeviation="2"/>
<feComposite in2="hardAlpha" operator="arithmetic" k2="-1" k3="1"/>
<feColorMatrix type="matrix" values="0 0 0 0 0 0 0 0 0 0 0 0 0 0 0 0 0 0 0.25 0"/>
<feBlend mode="normal" in2="shape" result="effect1_innerShadow_24223_3870"/>
</filter>
</defs>
</svg>
