<svg width="18" height="19" viewBox="0 0 18 19" fill="none" xmlns="http://www.w3.org/2000/svg">
<path d="M15 0.692871H3C1.3 0.692871 0 1.98465 0 3.67391V15.5981C0 17.2873 1.3 18.5791 3 18.5791H15C16.7 18.5791 18 17.2873 18 15.5981V3.67391C18 1.98465 16.7 0.692871 15 0.692871ZM9 6.65495C10.7 6.65495 12 7.94673 12 9.63599C12 11.3252 10.7 12.617 9 12.617C7.3 12.617 6 11.3252 6 9.63599C6 7.94673 7.3 6.65495 9 6.65495ZM12.8 4.66759C12.8 3.97201 13.4 3.47517 14 3.47517C14.6 3.47517 15.2 4.07138 15.2 4.66759C15.2 5.2638 14.7 5.86 14 5.86C13.3 5.86 12.8 5.36316 12.8 4.66759ZM15 16.5917H3C2.4 16.5917 2 16.1943 2 15.5981V9.63599H4C4 12.4183 6.2 14.6044 9 14.6044C11.8 14.6044 14 12.4183 14 9.63599H16V15.5981C16 16.1943 15.6 16.5917 15 16.5917Z" fill="#4F4F4F"/>
</svg>
