<svg width="18" height="18" viewBox="0 0 18 18" fill="none" xmlns="http://www.w3.org/2000/svg">
<path d="M15 0.000488281H3C1.3 0.000488281 0 1.29227 0 2.98153V14.9057C0 16.5949 1.3 17.8867 3 17.8867H15C16.7 17.8867 18 16.5949 18 14.9057V2.98153C18 1.29227 16.7 0.000488281 15 0.000488281ZM9 5.96257C10.7 5.96257 12 7.25435 12 8.9436C12 10.6329 10.7 11.9246 9 11.9246C7.3 11.9246 6 10.6329 6 8.9436C6 7.25435 7.3 5.96257 9 5.96257ZM12.8 3.97521C12.8 3.27963 13.4 2.78279 14 2.78279C14.6 2.78279 15.2 3.379 15.2 3.97521C15.2 4.57141 14.7 5.16762 14 5.16762C13.3 5.16762 12.8 4.67078 12.8 3.97521V3.97521ZM15 15.8994H3C2.4 15.8994 2 15.5019 2 14.9057V8.9436H4C4 11.7259 6.2 13.912 9 13.912C11.8 13.912 14 11.7259 14 8.9436H16V14.9057C16 15.5019 15.6 15.8994 15 15.8994Z" fill="#4F4F4F"/>
</svg>
