<svg width="18" height="18" viewBox="0 0 18 18" fill="none" xmlns="http://www.w3.org/2000/svg">
<path d="M15 -0.000976562H3C1.3 -0.000976562 0 1.29081 0 2.98006V14.9042C0 16.5935 1.3 17.8853 3 17.8853H15C16.7 17.8853 18 16.5935 18 14.9042V2.98006C18 1.29081 16.7 -0.000976562 15 -0.000976562ZM9 5.9611C10.7 5.9611 12 7.25288 12 8.94214C12 10.6314 10.7 11.9232 9 11.9232C7.3 11.9232 6 10.6314 6 8.94214C6 7.25288 7.3 5.9611 9 5.9611ZM12.8 3.97374C12.8 3.27817 13.4 2.78133 14 2.78133C14.6 2.78133 15.2 3.37753 15.2 3.97374C15.2 4.56995 14.7 5.16616 14 5.16616C13.3 5.16616 12.8 4.66932 12.8 3.97374ZM15 15.8979H3C2.4 15.8979 2 15.5004 2 14.9042V8.94214H4C4 11.7244 6.2 13.9105 9 13.9105C11.8 13.9105 14 11.7244 14 8.94214H16V14.9042C16 15.5004 15.6 15.8979 15 15.8979Z" fill="#4F4F4F"/>
</svg>
