<svg width="44" height="47" viewBox="0 0 44 47" fill="none" xmlns="http://www.w3.org/2000/svg">
<path d="M22 11.4582C15.7868 11.4582 10.7313 16.7744 10.7313 23.3082C10.7313 29.8419 15.7868 35.1574 22 35.1574C28.2132 35.1574 33.2687 29.8419 33.2687 23.3082C33.2687 16.7744 28.2132 11.4582 22 11.4582Z" fill="#4F4F4F"/>
<path d="M22.0002 9.47891C22.3899 9.47891 22.7061 9.14632 22.7061 8.73653V0.915482C22.7061 0.505685 22.3899 0.173096 22.0002 0.173096C21.6105 0.173096 21.2942 0.505685 21.2942 0.915482V8.73653C21.2942 9.14632 21.6105 9.47891 22.0002 9.47891Z" fill="#4F4F4F"/>
<path d="M22.0002 37.1358C21.6105 37.1358 21.2942 37.4684 21.2942 37.8782V45.6993C21.2942 46.1091 21.6105 46.4417 22.0002 46.4417C22.3899 46.4417 22.7061 46.1091 22.7061 45.6993V37.8782C22.7061 37.4684 22.3899 37.1358 22.0002 37.1358Z" fill="#4F4F4F"/>
<path d="M11.7038 13.5293C11.8415 13.6741 12.0222 13.7469 12.2029 13.7469C12.3837 13.7469 12.5644 13.6741 12.7021 13.5293C12.9781 13.2391 12.9781 12.7699 12.7021 12.4796L7.44259 6.94958C7.16656 6.6593 6.72038 6.6593 6.44435 6.94958C6.16832 7.23985 6.16832 7.70904 6.44435 7.99931L11.7038 13.5293Z" fill="#4F4F4F"/>
<path d="M32.2978 33.0861C32.0217 32.7958 31.5756 32.7958 31.2995 33.0861C31.0235 33.3763 31.0235 33.8455 31.2995 34.1358L36.559 39.6658C36.6967 39.8106 36.8774 39.8834 37.0581 39.8834C37.2388 39.8834 37.4196 39.8106 37.5572 39.6658C37.8333 39.3756 37.8333 38.9064 37.5572 38.6161L32.2978 33.0861Z" fill="#4F4F4F"/>
<path d="M31.798 13.7469C31.9787 13.7469 32.1594 13.6741 32.2971 13.5293L37.5565 7.99931C37.8326 7.70904 37.8326 7.23985 37.5565 6.94958C37.2805 6.6593 36.8343 6.6593 36.5583 6.94958L31.2988 12.4796C31.0228 12.7699 31.0228 13.2391 31.2988 13.5293C31.4372 13.6741 31.6179 13.7469 31.798 13.7469Z" fill="#4F4F4F"/>
<path d="M11.7038 33.0861L6.44435 38.6161C6.16832 38.9064 6.16832 39.3756 6.44435 39.6658C6.58201 39.8106 6.76274 39.8834 6.94347 39.8834C7.1242 39.8834 7.30493 39.8106 7.44259 39.6658L12.7021 34.1358C12.9781 33.8455 12.9781 33.3763 12.7021 33.0861C12.426 32.7958 11.9791 32.7958 11.7038 33.0861Z" fill="#4F4F4F"/>
<path d="M43.294 22.5649H35.8567C35.467 22.5649 35.1507 22.8975 35.1507 23.3073C35.1507 23.7171 35.467 24.0497 35.8567 24.0497H43.294C43.6837 24.0497 44 23.7171 44 23.3073C44 22.8975 43.6837 22.5649 43.294 22.5649Z" fill="#4F4F4F"/>
<path d="M8.85003 23.3073C8.85003 22.8975 8.53376 22.5649 8.14406 22.5649H0.705969C0.316274 22.5649 0 22.8975 0 23.3073C0 23.7171 0.316274 24.0497 0.705969 24.0497H8.14335C8.53376 24.0497 8.85003 23.7179 8.85003 23.3073Z" fill="#4F4F4F"/>
</svg>
