<svg width="53" height="20" viewBox="0 0 53 20" fill="none" xmlns="http://www.w3.org/2000/svg">
<path d="M1.23295 15V4.81818H7.37784V5.91193H2.46591V9.35227H7.05966V10.446H2.46591V13.9062H7.45739V15H1.23295ZM17.674 4.81818V15H16.4808L10.9325 7.00568H10.8331V15H9.60014V4.81818H10.7933L16.3615 12.8324H16.4609V4.81818H17.674Z" fill="#333333"/>
<path d="M38.9148 4.81818H40.1477V11.5597C40.1477 12.2557 39.9837 12.8771 39.6555 13.424C39.3307 13.9676 38.8717 14.3968 38.2784 14.7116C37.6851 15.0232 36.9891 15.179 36.1903 15.179C35.3916 15.179 34.6955 15.0232 34.1023 14.7116C33.509 14.3968 33.0483 13.9676 32.7202 13.424C32.3954 12.8771 32.233 12.2557 32.233 11.5597V4.81818H33.4659V11.4602C33.4659 11.9574 33.5753 12.3999 33.794 12.7876C34.0128 13.1721 34.3243 13.4754 34.7287 13.6974C35.1364 13.9162 35.6236 14.0256 36.1903 14.0256C36.7571 14.0256 37.2443 13.9162 37.652 13.6974C38.0597 13.4754 38.3712 13.1721 38.5866 12.7876C38.8054 12.3999 38.9148 11.9574 38.9148 11.4602V4.81818ZM43.0275 15H41.7349L45.4735 4.81818H46.7463L50.4849 15H49.1923L46.1497 6.42898H46.0701L43.0275 15ZM43.5048 11.0227H48.715V12.1165H43.5048V11.0227Z" fill="#BDBDBD"/>
<path d="M26.6733 4.34091L23.392 16.5312H22.3182L25.5994 4.34091H26.6733Z" fill="#333333"/>
</svg>
