<svg width="94" height="48" viewBox="0 0 94 48" fill="none" xmlns="http://www.w3.org/2000/svg">
<path d="M45.9485 13.8259H93.6192V12.8259H45.9485V13.8259Z" fill="#333333"/>
<path d="M75.7463 2.02126L93.508 13.8258L93.9485 12.6304L76.1868 0.825928L75.7463 2.02126Z" fill="#333333"/>
<path d="M48.9485 1.82593L1.27775 1.82593L1.27775 2.90285L48.9485 2.90285V1.82593Z" fill="#0C797A"/>
<path d="M19.1506 14.5386L1.389 1.82609L0.948486 3.11337L18.7101 15.8259L19.1506 14.5386Z" fill="#0C797A"/>
<path d="M49.6204 36.4509L47.0422 46.0291H46.1985L48.7766 36.4509H49.6204Z" fill="#0C797A"/>
<path d="M29.9485 41.985C29.0924 41.985 28.3633 41.7521 27.761 41.2862C27.1587 40.8165 26.6985 40.1365 26.3803 39.2464C26.0621 38.3524 25.903 37.2729 25.903 36.0077C25.903 34.7502 26.0621 33.6763 26.3803 32.7862C26.7023 31.8922 27.1644 31.2104 27.7667 30.7407C28.3727 30.2672 29.1 30.0305 29.9485 30.0305C30.797 30.0305 31.5224 30.2672 32.1246 30.7407C32.7307 31.2104 33.1928 31.8922 33.511 32.7862C33.833 33.6763 33.9939 34.7502 33.9939 36.0077C33.9939 37.2729 33.8349 38.3524 33.5167 39.2464C33.1985 40.1365 32.7383 40.8165 32.136 41.2862C31.5337 41.7521 30.8045 41.985 29.9485 41.985ZM29.9485 40.735C30.797 40.735 31.4561 40.3259 31.9258 39.5077C32.3955 38.6896 32.6303 37.5229 32.6303 36.0077C32.6303 35.0002 32.5224 34.1422 32.3064 33.4339C32.0943 32.7255 31.7875 32.1858 31.386 31.8146C30.9883 31.4434 30.5091 31.2577 29.9485 31.2577C29.1076 31.2577 28.4504 31.6725 27.9769 32.5021C27.5034 33.3278 27.2667 34.4964 27.2667 36.0077C27.2667 37.0153 27.3727 37.8714 27.5849 38.5759C27.797 39.2805 28.1019 39.8165 28.4996 40.1839C28.9011 40.5513 29.3841 40.735 29.9485 40.735ZM40.2439 30.1896V41.8259H38.8349V31.6668H38.7667L35.9258 33.5532V32.1214L38.8349 30.1896H40.2439Z" fill="#333333"/>
<path d="M57.386 45.9353C56.7974 45.9353 56.2961 45.7751 55.8821 45.4548C55.468 45.1319 55.1516 44.6645 54.9329 44.0525C54.7141 43.4379 54.6047 42.6957 54.6047 41.8259C54.6047 40.9613 54.7141 40.2231 54.9329 39.6111C55.1542 38.9965 55.4719 38.5278 55.886 38.2048C56.3027 37.8793 56.8027 37.7166 57.386 37.7166C57.9693 37.7166 58.468 37.8793 58.8821 38.2048C59.2987 38.5278 59.6165 38.9965 59.8352 39.6111C60.0566 40.2231 60.1672 40.9613 60.1672 41.8259C60.1672 42.6957 60.0579 43.4379 59.8391 44.0525C59.6204 44.6645 59.304 45.1319 58.8899 45.4548C58.4758 45.7751 57.9745 45.9353 57.386 45.9353ZM57.386 45.0759C57.9693 45.0759 58.4224 44.7947 58.7454 44.2322C59.0683 43.6697 59.2297 42.8676 59.2297 41.8259C59.2297 41.1332 59.1555 40.5434 59.0071 40.0564C58.8612 39.5694 58.6503 39.1983 58.3743 38.9431C58.1008 38.6879 57.7714 38.5603 57.386 38.5603C56.8079 38.5603 56.356 38.8455 56.0305 39.4158C55.705 39.9835 55.5422 40.7869 55.5422 41.8259C55.5422 42.5186 55.6152 43.1072 55.761 43.5916C55.9068 44.0759 56.1165 44.4444 56.3899 44.697C56.6659 44.9496 56.998 45.0759 57.386 45.0759ZM64.3547 45.9353C63.8391 45.9353 63.3795 45.8468 62.9758 45.6697C62.5748 45.4926 62.2558 45.2465 62.0188 44.9314C61.7844 44.6137 61.6568 44.2452 61.636 43.8259H62.6204C62.6412 44.0837 62.7297 44.3064 62.886 44.4939C63.0422 44.6788 63.2467 44.822 63.4993 44.9236C63.7519 45.0251 64.0318 45.0759 64.3391 45.0759C64.6829 45.0759 64.9875 45.016 65.2532 44.8962C65.5188 44.7764 65.7271 44.6098 65.8782 44.3962C66.0292 44.1827 66.1047 43.9353 66.1047 43.6541C66.1047 43.3598 66.0318 43.1007 65.886 42.8767C65.7402 42.6501 65.5266 42.4731 65.2454 42.3455C64.9641 42.2179 64.6204 42.1541 64.2141 42.1541H63.5735V41.2947H64.2141C64.5318 41.2947 64.8105 41.2374 65.05 41.1228C65.2922 41.0082 65.481 40.8468 65.6165 40.6384C65.7545 40.4301 65.8235 40.1853 65.8235 39.9041C65.8235 39.6332 65.7636 39.3975 65.6438 39.197C65.524 38.9965 65.3547 38.8403 65.136 38.7283C64.9198 38.6163 64.6646 38.5603 64.3704 38.5603C64.0943 38.5603 63.8339 38.6111 63.5891 38.7126C63.3469 38.8116 63.149 38.9561 62.9954 39.1462C62.8417 39.3337 62.7584 39.5603 62.7454 39.8259H61.8079C61.8235 39.4067 61.9498 39.0395 62.1868 38.7244C62.4237 38.4067 62.7336 38.1593 63.1165 37.9822C63.5019 37.8051 63.925 37.7166 64.386 37.7166C64.8808 37.7166 65.3053 37.8168 65.6594 38.0173C66.0136 38.2153 66.2857 38.477 66.4758 38.8025C66.6659 39.128 66.761 39.4796 66.761 39.8572C66.761 40.3077 66.6425 40.6918 66.4055 41.0095C66.1711 41.3272 65.8521 41.5473 65.4485 41.6697V41.7322C65.9537 41.8155 66.3482 42.0304 66.6321 42.3767C66.9159 42.7205 67.0579 43.1462 67.0579 43.6541C67.0579 44.0889 66.9394 44.4796 66.7024 44.8259C66.468 45.1697 66.1477 45.4405 65.7415 45.6384C65.3352 45.8363 64.873 45.9353 64.3547 45.9353Z" fill="#0C797A"/>
</svg>
