<svg width="4" height="4" viewBox="0 0 4 4" fill="none" xmlns="http://www.w3.org/2000/svg">
<path d="M2.04522 -0.000221203C1.77888 -0.0062441 1.51402 0.0410042 1.26619 0.13875C1.01836 0.236496 0.792561 0.382769 0.602042 0.568982C0.411523 0.755195 0.260127 0.977594 0.156742 1.22312C0.053357 1.46865 6.6681e-05 1.73236 6.25376e-08 1.99877C-6.65559e-05 2.26518 0.0530916 2.52891 0.156354 2.77449C0.259616 3.02007 0.410902 3.24255 0.601328 3.42885C0.791754 3.61516 1.01748 3.76155 1.26526 3.85942C1.51304 3.95729 1.77787 4.00467 2.04422 3.99878C2.56678 3.98722 3.06405 3.77155 3.42959 3.39794C3.79512 3.02433 3.99987 2.52246 4 1.99977C4.00013 1.47708 3.79563 0.975108 3.43029 0.601311C3.06494 0.227514 2.56777 0.0115957 2.04522 -0.000221203Z" fill="black"/>
</svg>
