<svg width="4" height="4" viewBox="0 0 4 4" fill="none" xmlns="http://www.w3.org/2000/svg">
<path d="M2.04522 0.000511219C1.77888 -0.00551168 1.51402 0.0417366 1.26619 0.139483C1.01836 0.237228 0.792561 0.383502 0.602042 0.569715C0.411523 0.755928 0.260127 0.978327 0.156742 1.22386C0.053357 1.46938 6.6681e-05 1.73309 6.25376e-08 1.9995C-6.65559e-05 2.26591 0.0530916 2.52964 0.156354 2.77522C0.259616 3.0208 0.410902 3.24328 0.601328 3.42959C0.791754 3.61589 1.01748 3.76228 1.26526 3.86015C1.51304 3.95802 1.77787 4.0054 2.04422 3.99951C2.56678 3.98796 3.06405 3.77229 3.42959 3.39867C3.79512 3.02506 3.99987 2.52319 4 2.0005C4.00013 1.47781 3.79563 0.975841 3.43029 0.602043C3.06494 0.228246 2.56777 0.0123281 2.04522 0.000511219Z" fill="black"/>
</svg>
