<svg width="161" height="26" viewBox="0 0 161 26" fill="none" xmlns="http://www.w3.org/2000/svg">
<mask id="path-1-inside-1_19655_1392" fill="white">
<path fill-rule="evenodd" clip-rule="evenodd" d="M7.15845 19.777C4.41076 19.777 2.53349 17.5045 2.53349 14.5473C2.53349 11.5585 4.46124 9.27416 7.20347 9.27416C8.41223 9.27416 9.68648 9.71655 10.6633 10.4526L11.7629 8.76726C10.4887 7.69419 8.70419 7.10171 7.01247 7.10171C3.02464 7.10171 0 10.3341 0 14.6026C0 18.7895 2.92914 21.9797 6.92515 21.9797C8.63052 21.9797 10.5269 21.3925 11.782 20.3379L10.6633 18.6091C9.73287 19.303 8.41223 19.777 7.15708 19.777H7.15845ZM25.6719 11.8008C25.6719 9.19516 23.8751 7.2992 20.785 7.2992H15.8626V21.7691H18.3184V16.3445H20.358L23.313 21.7744H26.2217L22.8656 15.9943C24.6323 15.3268 25.6733 13.7731 25.6733 11.8008H25.6719ZM34.0623 7.2992L29.0826 21.7638H31.6448L32.8017 18.1299H38.0979L39.2685 21.7638H41.9643L36.9164 7.30183H34.0514L34.0623 7.2992ZM55.082 9.08983V7.30842H45.199V9.41241H51.9455L44.9548 20.0219V21.7757H55.187V19.6467H48.0654L55.1052 9.09378L55.082 9.08983ZM64.5843 13.3597L61.1735 7.3071H58.3222L63.2882 15.7507V21.7678H65.7576V15.7376L70.8205 7.2992H68.1519L64.5856 13.3558L64.5843 13.3597ZM81.7335 14.1155C82.8112 13.5361 83.4252 12.4868 83.4252 11.0608C83.4252 8.69089 81.7471 7.30842 78.9503 7.30842H74.3117V21.7717H79.7279C82.4702 21.7717 84.2983 20.0733 84.2983 17.677C84.2983 15.8442 83.2069 14.5394 81.7062 14.1155H81.7335ZM92.7719 7.30842L87.7923 21.7717H90.3517L91.5113 18.1378H96.8048L97.9781 21.7717H100.679L95.6411 7.30842H92.7856H92.7719ZM112.532 14.1155C113.613 13.5361 114.234 12.4868 114.234 11.0608C114.234 8.69089 112.569 7.30842 109.759 7.30842H105.12V21.7717H110.55C113.292 21.7717 115.134 20.0733 115.134 17.677C115.134 15.8442 114.043 14.5394 112.556 14.1155H112.532ZM124.17 13.3597L120.773 7.30842H117.908L122.874 15.752V21.773H125.35V15.7389L130.398 7.30842H127.737L124.163 13.361L124.17 13.3597ZM107.577 9.42953H109.46C110.838 9.42953 111.775 9.97198 111.775 11.3018C111.775 12.6803 110.807 13.3294 109.579 13.3294H107.573V9.42953H107.577ZM110.19 19.6388H107.575V15.3597H110.013C111.577 15.3597 112.605 16.0443 112.605 17.5058C112.605 18.9673 111.577 19.6388 110.187 19.6388H110.19ZM92.158 16.0878L94.1499 9.86533L96.169 16.0799H92.158V16.0878ZM76.777 9.42953H78.6597C80.0376 9.42953 80.9735 9.97198 80.9735 11.3018C80.9735 12.6803 80.0049 13.3294 78.7825 13.3294H76.777V9.42953ZM79.3896 19.6388H76.7838V15.3597H79.2259C80.7948 15.3597 81.818 16.0443 81.818 17.5058C81.818 18.9673 80.7948 19.6388 79.4032 19.6388H79.3896ZM33.4538 16.0878L35.4457 9.86533L37.4649 16.0799H33.4538V16.0878ZM20.4644 14.205H18.3225V9.43874H20.4644C22.1111 9.43874 23.1793 10.2458 23.1793 11.835C23.1793 13.3531 22.2107 14.2023 20.4644 14.2023V14.205ZM152.794 3.83512C151.791 3.50596 151.397 2.79497 150.827 2.01815C150.213 1.184 149.346 0.553845 148.346 0.214355C148.818 1.68899 147.915 3.28213 146.391 3.71662C143.692 4.41735 141.346 6.03556 139.784 8.27338C138.223 10.5112 137.552 13.218 137.894 15.8954C138.237 18.5729 139.57 21.0408 141.649 22.8449C143.727 24.649 146.411 25.6678 149.206 25.7138C152.001 25.7598 154.719 24.8298 156.86 23.0951C159.001 21.3604 160.421 18.9378 160.857 16.2731C161.294 13.6085 160.719 10.8812 159.238 8.59334C157.756 6.30549 155.469 4.61105 152.795 3.82195L152.794 3.83512ZM149.413 21.7823C148.029 21.7823 146.702 21.2517 145.723 20.3072C144.745 19.3627 144.195 18.0818 144.195 16.7461C144.195 15.4104 144.745 14.1295 145.723 13.185C146.702 12.2405 148.029 11.7099 149.413 11.7099C150.797 11.7099 152.125 12.2405 153.103 13.185C154.082 14.1295 154.632 15.4104 154.632 16.7461C154.632 18.0818 154.082 19.3627 153.103 20.3072C152.125 21.2517 150.797 21.7823 149.413 21.7823Z"/>
</mask>
<path fill-rule="evenodd" clip-rule="evenodd" d="M7.15845 19.777C4.41076 19.777 2.53349 17.5045 2.53349 14.5473C2.53349 11.5585 4.46124 9.27416 7.20347 9.27416C8.41223 9.27416 9.68648 9.71655 10.6633 10.4526L11.7629 8.76726C10.4887 7.69419 8.70419 7.10171 7.01247 7.10171C3.02464 7.10171 0 10.3341 0 14.6026C0 18.7895 2.92914 21.9797 6.92515 21.9797C8.63052 21.9797 10.5269 21.3925 11.782 20.3379L10.6633 18.6091C9.73287 19.303 8.41223 19.777 7.15708 19.777H7.15845ZM25.6719 11.8008C25.6719 9.19516 23.8751 7.2992 20.785 7.2992H15.8626V21.7691H18.3184V16.3445H20.358L23.313 21.7744H26.2217L22.8656 15.9943C24.6323 15.3268 25.6733 13.7731 25.6733 11.8008H25.6719ZM34.0623 7.2992L29.0826 21.7638H31.6448L32.8017 18.1299H38.0979L39.2685 21.7638H41.9643L36.9164 7.30183H34.0514L34.0623 7.2992ZM55.082 9.08983V7.30842H45.199V9.41241H51.9455L44.9548 20.0219V21.7757H55.187V19.6467H48.0654L55.1052 9.09378L55.082 9.08983ZM64.5843 13.3597L61.1735 7.3071H58.3222L63.2882 15.7507V21.7678H65.7576V15.7376L70.8205 7.2992H68.1519L64.5856 13.3558L64.5843 13.3597ZM81.7335 14.1155C82.8112 13.5361 83.4252 12.4868 83.4252 11.0608C83.4252 8.69089 81.7471 7.30842 78.9503 7.30842H74.3117V21.7717H79.7279C82.4702 21.7717 84.2983 20.0733 84.2983 17.677C84.2983 15.8442 83.2069 14.5394 81.7062 14.1155H81.7335ZM92.7719 7.30842L87.7923 21.7717H90.3517L91.5113 18.1378H96.8048L97.9781 21.7717H100.679L95.6411 7.30842H92.7856H92.7719ZM112.532 14.1155C113.613 13.5361 114.234 12.4868 114.234 11.0608C114.234 8.69089 112.569 7.30842 109.759 7.30842H105.12V21.7717H110.55C113.292 21.7717 115.134 20.0733 115.134 17.677C115.134 15.8442 114.043 14.5394 112.556 14.1155H112.532ZM124.17 13.3597L120.773 7.30842H117.908L122.874 15.752V21.773H125.35V15.7389L130.398 7.30842H127.737L124.163 13.361L124.17 13.3597ZM107.577 9.42953H109.46C110.838 9.42953 111.775 9.97198 111.775 11.3018C111.775 12.6803 110.807 13.3294 109.579 13.3294H107.573V9.42953H107.577ZM110.19 19.6388H107.575V15.3597H110.013C111.577 15.3597 112.605 16.0443 112.605 17.5058C112.605 18.9673 111.577 19.6388 110.187 19.6388H110.19ZM92.158 16.0878L94.1499 9.86533L96.169 16.0799H92.158V16.0878ZM76.777 9.42953H78.6597C80.0376 9.42953 80.9735 9.97198 80.9735 11.3018C80.9735 12.6803 80.0049 13.3294 78.7825 13.3294H76.777V9.42953ZM79.3896 19.6388H76.7838V15.3597H79.2259C80.7948 15.3597 81.818 16.0443 81.818 17.5058C81.818 18.9673 80.7948 19.6388 79.4032 19.6388H79.3896ZM33.4538 16.0878L35.4457 9.86533L37.4649 16.0799H33.4538V16.0878ZM20.4644 14.205H18.3225V9.43874H20.4644C22.1111 9.43874 23.1793 10.2458 23.1793 11.835C23.1793 13.3531 22.2107 14.2023 20.4644 14.2023V14.205ZM152.794 3.83512C151.791 3.50596 151.397 2.79497 150.827 2.01815C150.213 1.184 149.346 0.553845 148.346 0.214355C148.818 1.68899 147.915 3.28213 146.391 3.71662C143.692 4.41735 141.346 6.03556 139.784 8.27338C138.223 10.5112 137.552 13.218 137.894 15.8954C138.237 18.5729 139.57 21.0408 141.649 22.8449C143.727 24.649 146.411 25.6678 149.206 25.7138C152.001 25.7598 154.719 24.8298 156.86 23.0951C159.001 21.3604 160.421 18.9378 160.857 16.2731C161.294 13.6085 160.719 10.8812 159.238 8.59334C157.756 6.30549 155.469 4.61105 152.795 3.82195L152.794 3.83512ZM149.413 21.7823C148.029 21.7823 146.702 21.2517 145.723 20.3072C144.745 19.3627 144.195 18.0818 144.195 16.7461C144.195 15.4104 144.745 14.1295 145.723 13.185C146.702 12.2405 148.029 11.7099 149.413 11.7099C150.797 11.7099 152.125 12.2405 153.103 13.185C154.082 14.1295 154.632 15.4104 154.632 16.7461C154.632 18.0818 154.082 19.3627 153.103 20.3072C152.125 21.2517 150.797 21.7823 149.413 21.7823Z" fill="black" stroke="black" stroke-width="2" mask="url(#path-1-inside-1_19655_1392)"/>
</svg>
