<svg id="Шар_1" data-name="Шар 1" xmlns="http://www.w3.org/2000/svg" xmlns:xlink="http://www.w3.org/1999/xlink" viewBox="0 0 163 28.43">
  <defs>
    <style>
      .cls-1 {
        fill: #fff;
      }

      .cls-2 {
        mask: url(#mask);
      }

      .cls-3 {
        stroke: #000;
        stroke-width: 2px;
      }
    </style>
    <mask id="mask" x="0" y="0" width="163" height="28.43" maskUnits="userSpaceOnUse">
      <g transform="translate(1 0.75)">
        <g id="path-1-inside-1">
          <path class="cls-1" d="M7.16,20.66c-2.75,0-4.63-2.3-4.63-5.3S4.46,10,7.2,10a5.88,5.88,0,0,1,3.46,1.19l1.1-1.7A7.47,7.47,0,0,0,7,7.82c-4,0-7,3.27-7,7.6s2.93,7.47,6.93,7.47a7.78,7.78,0,0,0,4.85-1.66l-1.12-1.75a6.08,6.08,0,0,1-3.5,1.18Zm18.51-8.08C25.67,9.94,23.88,8,20.78,8H15.86V22.68h2.46v-5.5h2l2.95,5.5h2.91l-3.35-5.85a4.34,4.34,0,0,0,2.8-4.25ZM34.06,8l-5,14.65h2.56L32.8,19h5.3l1.17,3.68H42L36.92,8H34.06Zm21,1.81V8H45.2v2.13H52L45,20.91v1.78H55.19V20.53H48.07l7-10.69Zm9.5,4.33L61.17,8H58.32l5,8.55v6.1h2.47V16.57L70.82,8H68.15l-3.56,6.14Zm17.15.77a3.31,3.31,0,0,0,1.7-3.1C83.43,9.43,81.75,8,79,8H74.31V22.68h5.42c2.74,0,4.57-1.72,4.57-4.15a3.57,3.57,0,0,0-2.59-3.6Zm11-6.9-5,14.65h2.56L91.51,19H96.8L98,22.68h2.7L95.64,8H92.77Zm19.76,6.9a3.31,3.31,0,0,0,1.7-3.1c0-2.4-1.66-3.8-4.47-3.8h-4.64V22.68h5.43c2.74,0,4.58-1.72,4.58-4.15a3.58,3.58,0,0,0-2.57-3.6Zm11.64-.77L120.77,8h-2.86l5,8.55v6.1h2.48V16.57L130.4,8h-2.66l-3.58,6.13Zm-16.59-4h1.88c1.38,0,2.32.55,2.32,1.89a2,2,0,0,1-2.2,2.06h-2v-4Zm2.61,10.34h-2.62V16.19H110c1.57,0,2.6.69,2.6,2.17s-1,2.16-2.42,2.16Zm-18-3.6,2-6.3,2,6.3ZM76.78,10.18h1.88c1.38,0,2.31.55,2.31,1.89a2,2,0,0,1-2.19,2.06h-2Zm2.61,10.34H76.78V16.19h2.45c1.56,0,2.59.69,2.59,2.17s-1,2.16-2.42,2.16Zm-45.94-3.6,2-6.3,2,6.3Zm-13-1.9H18.32V10.19h2.14c1.65,0,2.72.81,2.72,2.42s-1,2.4-2.72,2.4ZM152.79,4.51c-1-.33-1.39-1-2-1.84A5.16,5.16,0,0,0,148.35.84a2.85,2.85,0,0,1-2,3.55A11.62,11.62,0,0,0,139.78,9a11.15,11.15,0,0,0-1.89,7.72,11.31,11.31,0,0,0,3.76,7,11.78,11.78,0,0,0,15.21.25,11.16,11.16,0,0,0,2.38-14.69,11.54,11.54,0,0,0-6.45-4.83Zm-3.38,18.18a5.27,5.27,0,0,1-3.69-1.49,5,5,0,0,1,0-7.22,5.31,5.31,0,0,1,7.38,0,5,5,0,0,1,0,7.22A5.25,5.25,0,0,1,149.41,22.69Z"/>
        </g>
      </g>
    </mask>
  </defs>
  <title>Logo</title>
  <g class="cls-2">
    <path class="cls-3" d="M7.16,20.66c-2.75,0-4.63-2.3-4.63-5.3S4.46,10,7.2,10a5.88,5.88,0,0,1,3.46,1.19l1.1-1.7A7.47,7.47,0,0,0,7,7.82c-4,0-7,3.27-7,7.6s2.93,7.47,6.93,7.47a7.78,7.78,0,0,0,4.85-1.66l-1.12-1.75a6.08,6.08,0,0,1-3.5,1.18Zm18.51-8.08C25.67,9.94,23.88,8,20.78,8H15.86V22.68h2.46v-5.5h2l2.95,5.5h2.91l-3.35-5.85a4.34,4.34,0,0,0,2.8-4.25ZM34.06,8l-5,14.65h2.56L32.8,19h5.3l1.17,3.68H42L36.92,8H34.06Zm21,1.81V8H45.2v2.13H52L45,20.91v1.78H55.19V20.53H48.07l7-10.69Zm9.5,4.33L61.17,8H58.32l5,8.55v6.1h2.47V16.57L70.82,8H68.15l-3.56,6.14Zm17.15.77a3.31,3.31,0,0,0,1.7-3.1C83.43,9.43,81.75,8,79,8H74.31V22.68h5.42c2.74,0,4.57-1.72,4.57-4.15a3.57,3.57,0,0,0-2.59-3.6Zm11-6.9-5,14.65h2.56L91.51,19H96.8L98,22.68h2.7L95.64,8H92.77Zm19.76,6.9a3.31,3.31,0,0,0,1.7-3.1c0-2.4-1.66-3.8-4.47-3.8h-4.64V22.68h5.43c2.74,0,4.58-1.72,4.58-4.15a3.58,3.58,0,0,0-2.57-3.6Zm11.64-.77L120.77,8h-2.86l5,8.55v6.1h2.48V16.57L130.4,8h-2.66l-3.58,6.13Zm-16.59-4h1.88c1.38,0,2.32.55,2.32,1.89a2,2,0,0,1-2.2,2.06h-2v-4Zm2.61,10.34h-2.62V16.19H110c1.57,0,2.6.69,2.6,2.17s-1,2.16-2.42,2.16Zm-18-3.6,2-6.3,2,6.3ZM76.78,10.18h1.88c1.38,0,2.31.55,2.31,1.89a2,2,0,0,1-2.19,2.06h-2Zm2.61,10.34H76.78V16.19h2.45c1.56,0,2.59.69,2.59,2.17s-1,2.16-2.42,2.16Zm-45.94-3.6,2-6.3,2,6.3Zm-13-1.9H18.32V10.19h2.14c1.65,0,2.72.81,2.72,2.42s-1,2.4-2.72,2.4ZM152.79,4.51c-1-.33-1.39-1-2-1.84A5.16,5.16,0,0,0,148.35.84a2.85,2.85,0,0,1-2,3.55A11.62,11.62,0,0,0,139.78,9a11.15,11.15,0,0,0-1.89,7.72,11.31,11.31,0,0,0,3.76,7,11.78,11.78,0,0,0,15.21.25,11.16,11.16,0,0,0,2.38-14.69,11.54,11.54,0,0,0-6.45-4.83Zm-3.38,18.18a5.27,5.27,0,0,1-3.69-1.49,5,5,0,0,1,0-7.22,5.31,5.31,0,0,1,7.38,0,5,5,0,0,1,0,7.22A5.25,5.25,0,0,1,149.41,22.69Z" transform="translate(1 0.75)"/>
  </g>
</svg>
