<svg width="161" height="26" viewBox="0 0 161 26" fill="none" xmlns="http://www.w3.org/2000/svg">
<mask id="path-1-inside-1_88_200" fill="white">
<path fill-rule="evenodd" clip-rule="evenodd" d="M7.15845 19.8192C4.41076 19.8192 2.53349 17.5168 2.53349 14.5209C2.53349 11.4929 4.46124 9.1786 7.20347 9.1786C8.41223 9.1786 9.68648 9.6268 10.6633 10.3724L11.7629 8.66505C10.4887 7.57792 8.70419 6.97766 7.01247 6.97766C3.02464 6.97766 0 10.2524 0 14.5769C0 18.8187 2.92914 22.0508 6.92515 22.0508C8.63052 22.0508 10.5269 21.4559 11.782 20.3874L10.6633 18.636C9.73287 19.339 8.41223 19.8192 7.15708 19.8192H7.15845ZM25.6719 11.7384C25.6719 9.09857 23.8751 7.17775 20.785 7.17775H15.8626V21.8374H18.3184V16.3417H20.358L23.313 21.8427H26.2217L22.8656 15.9869C24.6323 15.3106 25.6733 13.7366 25.6733 11.7384H25.6719ZM34.0623 7.17775L29.0826 21.832H31.6448L32.8017 18.1505H38.0979L39.2685 21.832H41.9643L36.9164 7.18041H34.0514L34.0623 7.17775ZM55.082 8.99186V7.18708H45.199V9.31866H51.9455L44.9548 20.0673V21.844H55.187V19.6871H48.0654L55.1052 8.99586L55.082 8.99186ZM64.5843 13.3177L61.1735 7.18575H58.3222L63.2882 15.7401V21.836H65.7576V15.7267L70.8205 7.17775H68.1519L64.5856 13.3137L64.5843 13.3177ZM81.7335 14.0834C82.8112 13.4965 83.4252 12.4333 83.4252 10.9887C83.4252 8.58768 81.7471 7.18708 78.9503 7.18708H74.3117V21.84H79.7279C82.4702 21.84 84.2983 20.1193 84.2983 17.6916C84.2983 15.8348 83.2069 14.5129 81.7062 14.0834H81.7335ZM92.7719 7.18708L87.7923 21.84H90.3517L91.5113 18.1585H96.8048L97.9781 21.84H100.679L95.6411 7.18708H92.7856H92.7719ZM112.532 14.0834C113.613 13.4965 114.234 12.4333 114.234 10.9887C114.234 8.58768 112.569 7.18708 109.759 7.18708H105.12V21.84H110.55C113.292 21.84 115.134 20.1193 115.134 17.6916C115.134 15.8348 114.043 14.5129 112.556 14.0834H112.532ZM124.17 13.3177L120.773 7.18708H117.908L122.874 15.7414V21.8414H125.35V15.7281L130.398 7.18708H127.737L124.163 13.319L124.17 13.3177ZM107.577 9.336H109.46C110.838 9.336 111.775 9.88557 111.775 11.2328C111.775 12.6294 110.807 13.287 109.579 13.287H107.573V9.336H107.577ZM110.19 19.6791H107.575V15.3439H110.013C111.577 15.3439 112.605 16.0375 112.605 17.5182C112.605 18.9988 111.577 19.6791 110.187 19.6791H110.19ZM92.158 16.0816L94.1499 9.77753L96.169 16.0736H92.158V16.0816ZM76.777 9.336H78.6597C80.0376 9.336 80.9735 9.88557 80.9735 11.2328C80.9735 12.6294 80.0049 13.287 78.7825 13.287H76.777V9.336ZM79.3896 19.6791H76.7838V15.3439H79.2259C80.7948 15.3439 81.818 16.0375 81.818 17.5182C81.818 18.9988 80.7948 19.6791 79.4032 19.6791H79.3896ZM33.4538 16.0816L35.4457 9.77753L37.4649 16.0736H33.4538V16.0816ZM20.4644 14.1741H18.3225V9.34534H20.4644C22.1111 9.34534 23.1793 10.163 23.1793 11.773C23.1793 13.311 22.2107 14.1714 20.4644 14.1714V14.1741ZM152.794 3.66824C151.791 3.33476 151.397 2.61445 150.827 1.82745C150.213 0.982358 149.346 0.343941 148.346 0C148.818 1.49397 147.915 3.108 146.391 3.54819C143.692 4.2581 141.346 5.89754 139.784 8.16469C138.223 10.4319 137.552 13.1741 137.894 15.8867C138.237 18.5993 139.57 21.0996 141.649 22.9273C143.727 24.7551 146.411 25.7872 149.206 25.8338C152.001 25.8804 154.719 24.9382 156.86 23.1808C159.001 21.4234 160.421 18.9689 160.857 16.2693C161.294 13.5698 160.719 10.8067 159.238 8.48886C157.756 6.171 155.469 4.45434 152.795 3.6549L152.794 3.66824ZM149.413 21.8507C148.029 21.8507 146.702 21.3132 145.723 20.3563C144.745 19.3995 144.195 18.1017 144.195 16.7485C144.195 15.3953 144.745 14.0976 145.723 13.1407C146.702 12.1839 148.029 11.6463 149.413 11.6463C150.797 11.6463 152.125 12.1839 153.103 13.1407C154.082 14.0976 154.632 15.3953 154.632 16.7485C154.632 18.1017 154.082 19.3995 153.103 20.3563C152.125 21.3132 150.797 21.8507 149.413 21.8507Z"/>
</mask>
<path fill-rule="evenodd" clip-rule="evenodd" d="M7.15845 19.8192C4.41076 19.8192 2.53349 17.5168 2.53349 14.5209C2.53349 11.4929 4.46124 9.1786 7.20347 9.1786C8.41223 9.1786 9.68648 9.6268 10.6633 10.3724L11.7629 8.66505C10.4887 7.57792 8.70419 6.97766 7.01247 6.97766C3.02464 6.97766 0 10.2524 0 14.5769C0 18.8187 2.92914 22.0508 6.92515 22.0508C8.63052 22.0508 10.5269 21.4559 11.782 20.3874L10.6633 18.636C9.73287 19.339 8.41223 19.8192 7.15708 19.8192H7.15845ZM25.6719 11.7384C25.6719 9.09857 23.8751 7.17775 20.785 7.17775H15.8626V21.8374H18.3184V16.3417H20.358L23.313 21.8427H26.2217L22.8656 15.9869C24.6323 15.3106 25.6733 13.7366 25.6733 11.7384H25.6719ZM34.0623 7.17775L29.0826 21.832H31.6448L32.8017 18.1505H38.0979L39.2685 21.832H41.9643L36.9164 7.18041H34.0514L34.0623 7.17775ZM55.082 8.99186V7.18708H45.199V9.31866H51.9455L44.9548 20.0673V21.844H55.187V19.6871H48.0654L55.1052 8.99586L55.082 8.99186ZM64.5843 13.3177L61.1735 7.18575H58.3222L63.2882 15.7401V21.836H65.7576V15.7267L70.8205 7.17775H68.1519L64.5856 13.3137L64.5843 13.3177ZM81.7335 14.0834C82.8112 13.4965 83.4252 12.4333 83.4252 10.9887C83.4252 8.58768 81.7471 7.18708 78.9503 7.18708H74.3117V21.84H79.7279C82.4702 21.84 84.2983 20.1193 84.2983 17.6916C84.2983 15.8348 83.2069 14.5129 81.7062 14.0834H81.7335ZM92.7719 7.18708L87.7923 21.84H90.3517L91.5113 18.1585H96.8048L97.9781 21.84H100.679L95.6411 7.18708H92.7856H92.7719ZM112.532 14.0834C113.613 13.4965 114.234 12.4333 114.234 10.9887C114.234 8.58768 112.569 7.18708 109.759 7.18708H105.12V21.84H110.55C113.292 21.84 115.134 20.1193 115.134 17.6916C115.134 15.8348 114.043 14.5129 112.556 14.0834H112.532ZM124.17 13.3177L120.773 7.18708H117.908L122.874 15.7414V21.8414H125.35V15.7281L130.398 7.18708H127.737L124.163 13.319L124.17 13.3177ZM107.577 9.336H109.46C110.838 9.336 111.775 9.88557 111.775 11.2328C111.775 12.6294 110.807 13.287 109.579 13.287H107.573V9.336H107.577ZM110.19 19.6791H107.575V15.3439H110.013C111.577 15.3439 112.605 16.0375 112.605 17.5182C112.605 18.9988 111.577 19.6791 110.187 19.6791H110.19ZM92.158 16.0816L94.1499 9.77753L96.169 16.0736H92.158V16.0816ZM76.777 9.336H78.6597C80.0376 9.336 80.9735 9.88557 80.9735 11.2328C80.9735 12.6294 80.0049 13.287 78.7825 13.287H76.777V9.336ZM79.3896 19.6791H76.7838V15.3439H79.2259C80.7948 15.3439 81.818 16.0375 81.818 17.5182C81.818 18.9988 80.7948 19.6791 79.4032 19.6791H79.3896ZM33.4538 16.0816L35.4457 9.77753L37.4649 16.0736H33.4538V16.0816ZM20.4644 14.1741H18.3225V9.34534H20.4644C22.1111 9.34534 23.1793 10.163 23.1793 11.773C23.1793 13.311 22.2107 14.1714 20.4644 14.1714V14.1741ZM152.794 3.66824C151.791 3.33476 151.397 2.61445 150.827 1.82745C150.213 0.982358 149.346 0.343941 148.346 0C148.818 1.49397 147.915 3.108 146.391 3.54819C143.692 4.2581 141.346 5.89754 139.784 8.16469C138.223 10.4319 137.552 13.1741 137.894 15.8867C138.237 18.5993 139.57 21.0996 141.649 22.9273C143.727 24.7551 146.411 25.7872 149.206 25.8338C152.001 25.8804 154.719 24.9382 156.86 23.1808C159.001 21.4234 160.421 18.9689 160.857 16.2693C161.294 13.5698 160.719 10.8067 159.238 8.48886C157.756 6.171 155.469 4.45434 152.795 3.6549L152.794 3.66824ZM149.413 21.8507C148.029 21.8507 146.702 21.3132 145.723 20.3563C144.745 19.3995 144.195 18.1017 144.195 16.7485C144.195 15.3953 144.745 14.0976 145.723 13.1407C146.702 12.1839 148.029 11.6463 149.413 11.6463C150.797 11.6463 152.125 12.1839 153.103 13.1407C154.082 14.0976 154.632 15.3953 154.632 16.7485C154.632 18.1017 154.082 19.3995 153.103 20.3563C152.125 21.3132 150.797 21.8507 149.413 21.8507Z" fill="black" stroke="black" stroke-width="2" mask="url(#path-1-inside-1_88_200)"/>
</svg>
