<svg width="161" height="27" viewBox="0 0 161 27" fill="none" xmlns="http://www.w3.org/2000/svg">
<mask id="path-1-inside-1_24223_3381" fill="white">
<path fill-rule="evenodd" clip-rule="evenodd" d="M7.14824 20.4464C4.40447 20.4464 2.52988 18.1739 2.52988 15.2167C2.52988 12.228 4.45488 9.9436 7.19319 9.9436C8.40023 9.9436 9.67266 10.386 10.6481 11.122L11.7462 9.43669C10.4737 8.36363 8.69177 7.77114 7.00246 7.77114C3.02032 7.77114 0 11.0035 0 15.272C0 19.459 2.92496 22.6492 6.91527 22.6492C8.61821 22.6492 10.5119 22.062 11.7652 21.0073L10.6481 19.2786C9.71898 19.9725 8.40023 20.4464 7.14687 20.4464H7.14824ZM25.6353 12.4702C25.6353 9.8646 23.8411 7.96863 20.7554 7.96863H15.84V22.4385H18.2922V17.014H20.3289L23.2798 22.4438H26.1843L22.8329 16.6637C24.5972 15.9962 25.6366 14.4426 25.6366 12.4702H25.6353ZM34.0137 7.96863L29.0412 22.4333H31.5996L32.7549 18.7993H38.0435L39.2124 22.4333H41.9044L36.8637 7.97127H34.0028L34.0137 7.96863ZM55.0034 9.75927V7.97785H45.1346V10.0818H51.8714L44.8907 20.6913V22.4451H55.1083V20.3161H47.9968L55.0266 9.76322L55.0034 9.75927ZM64.4921 14.0291L61.0863 7.97653H58.239L63.1979 16.4202V22.4372H65.6638V16.407L70.7194 7.96863H68.0547L64.4935 14.0252L64.4921 14.0291ZM81.6169 14.7849C82.6931 14.2056 83.3062 13.1562 83.3062 11.7303C83.3062 9.36032 81.6305 7.97785 78.8377 7.97785H74.2057V22.4412H79.6142C82.3525 22.4412 84.1781 20.7427 84.1781 18.3464C84.1781 16.5136 83.0882 15.2088 81.5896 14.7849H81.6169ZM92.6396 7.97785L87.667 22.4412H90.2228L91.3808 18.8072H96.6667L97.8383 22.4412H100.536L95.5046 7.97785H92.6532H92.6396ZM112.372 14.7849C113.451 14.2056 114.071 13.1562 114.071 11.7303C114.071 9.36032 112.409 7.97785 109.602 7.97785H104.97V22.4412H110.392C113.131 22.4412 114.97 20.7427 114.97 18.3464C114.97 16.5136 113.88 15.2088 112.395 14.7849H112.372ZM123.993 14.0291L120.6 7.97785H117.739L122.698 16.4215V22.4425H125.171V16.4083L130.212 7.97785H127.555L123.986 14.0304L123.993 14.0291ZM107.424 10.099H109.304C110.68 10.099 111.616 10.6414 111.616 11.9712C111.616 13.3497 110.648 13.9988 109.422 13.9988H107.42V10.099H107.424ZM110.033 20.3082H107.421V16.0291H109.856C111.418 16.0291 112.444 16.7138 112.444 18.1752C112.444 19.6367 111.418 20.3082 110.03 20.3082H110.033ZM92.0266 16.7572L94.0156 10.5348L96.0318 16.7493H92.0266V16.7572ZM76.6674 10.099H78.5475C79.9234 10.099 80.858 10.6414 80.858 11.9712C80.858 13.3497 79.8908 13.9988 78.6701 13.9988H76.6674V10.099ZM79.2763 20.3082H76.6743V16.0291H79.1129C80.6796 16.0291 81.7013 16.7138 81.7013 18.1752C81.7013 19.6367 80.6796 20.3082 79.29 20.3082H79.2763ZM33.4061 16.7572L35.3951 10.5348L37.4114 16.7493H33.4061V16.7572ZM20.4352 14.8744H18.2963V10.1082H20.4352C22.0796 10.1082 23.1463 10.9153 23.1463 12.5045C23.1463 14.0225 22.179 14.8718 20.4352 14.8718V14.8744ZM152.576 4.50455C151.575 4.17539 151.181 3.46441 150.612 2.68759C149.999 1.85343 149.133 1.22328 148.135 0.883789C148.606 2.35843 147.704 3.95156 146.183 4.38605C143.487 5.08678 141.144 6.705 139.585 8.94281C138.026 11.1806 137.356 13.8874 137.698 16.5649C138.04 19.2423 139.371 21.7103 141.447 23.5144C143.522 25.3184 146.202 26.3373 148.993 26.3832C151.784 26.4292 154.498 25.4992 156.636 23.7646C158.774 22.0299 160.192 19.6072 160.628 16.9426C161.064 14.2779 160.49 11.5506 159.011 9.26278C157.531 6.97492 155.247 5.28048 152.577 4.49139L152.576 4.50455ZM149.2 22.4517C147.818 22.4517 146.493 21.9211 145.515 20.9766C144.538 20.0322 143.989 18.7512 143.989 17.4155C143.989 16.0799 144.538 14.7989 145.515 13.8544C146.493 12.91 147.818 12.3794 149.2 12.3794C150.582 12.3794 151.908 12.91 152.885 13.8544C153.862 14.7989 154.411 16.0799 154.411 17.4155C154.411 18.7512 153.862 20.0322 152.885 20.9766C151.908 21.9211 150.582 22.4517 149.2 22.4517Z"/>
</mask>
<path fill-rule="evenodd" clip-rule="evenodd" d="M7.14824 20.4464C4.40447 20.4464 2.52988 18.1739 2.52988 15.2167C2.52988 12.228 4.45488 9.9436 7.19319 9.9436C8.40023 9.9436 9.67266 10.386 10.6481 11.122L11.7462 9.43669C10.4737 8.36363 8.69177 7.77114 7.00246 7.77114C3.02032 7.77114 0 11.0035 0 15.272C0 19.459 2.92496 22.6492 6.91527 22.6492C8.61821 22.6492 10.5119 22.062 11.7652 21.0073L10.6481 19.2786C9.71898 19.9725 8.40023 20.4464 7.14687 20.4464H7.14824ZM25.6353 12.4702C25.6353 9.8646 23.8411 7.96863 20.7554 7.96863H15.84V22.4385H18.2922V17.014H20.3289L23.2798 22.4438H26.1843L22.8329 16.6637C24.5972 15.9962 25.6366 14.4426 25.6366 12.4702H25.6353ZM34.0137 7.96863L29.0412 22.4333H31.5996L32.7549 18.7993H38.0435L39.2124 22.4333H41.9044L36.8637 7.97127H34.0028L34.0137 7.96863ZM55.0034 9.75927V7.97785H45.1346V10.0818H51.8714L44.8907 20.6913V22.4451H55.1083V20.3161H47.9968L55.0266 9.76322L55.0034 9.75927ZM64.4921 14.0291L61.0863 7.97653H58.239L63.1979 16.4202V22.4372H65.6638V16.407L70.7194 7.96863H68.0547L64.4935 14.0252L64.4921 14.0291ZM81.6169 14.7849C82.6931 14.2056 83.3062 13.1562 83.3062 11.7303C83.3062 9.36032 81.6305 7.97785 78.8377 7.97785H74.2057V22.4412H79.6142C82.3525 22.4412 84.1781 20.7427 84.1781 18.3464C84.1781 16.5136 83.0882 15.2088 81.5896 14.7849H81.6169ZM92.6396 7.97785L87.667 22.4412H90.2228L91.3808 18.8072H96.6667L97.8383 22.4412H100.536L95.5046 7.97785H92.6532H92.6396ZM112.372 14.7849C113.451 14.2056 114.071 13.1562 114.071 11.7303C114.071 9.36032 112.409 7.97785 109.602 7.97785H104.97V22.4412H110.392C113.131 22.4412 114.97 20.7427 114.97 18.3464C114.97 16.5136 113.88 15.2088 112.395 14.7849H112.372ZM123.993 14.0291L120.6 7.97785H117.739L122.698 16.4215V22.4425H125.171V16.4083L130.212 7.97785H127.555L123.986 14.0304L123.993 14.0291ZM107.424 10.099H109.304C110.68 10.099 111.616 10.6414 111.616 11.9712C111.616 13.3497 110.648 13.9988 109.422 13.9988H107.42V10.099H107.424ZM110.033 20.3082H107.421V16.0291H109.856C111.418 16.0291 112.444 16.7138 112.444 18.1752C112.444 19.6367 111.418 20.3082 110.03 20.3082H110.033ZM92.0266 16.7572L94.0156 10.5348L96.0318 16.7493H92.0266V16.7572ZM76.6674 10.099H78.5475C79.9234 10.099 80.858 10.6414 80.858 11.9712C80.858 13.3497 79.8908 13.9988 78.6701 13.9988H76.6674V10.099ZM79.2763 20.3082H76.6743V16.0291H79.1129C80.6796 16.0291 81.7013 16.7138 81.7013 18.1752C81.7013 19.6367 80.6796 20.3082 79.29 20.3082H79.2763ZM33.4061 16.7572L35.3951 10.5348L37.4114 16.7493H33.4061V16.7572ZM20.4352 14.8744H18.2963V10.1082H20.4352C22.0796 10.1082 23.1463 10.9153 23.1463 12.5045C23.1463 14.0225 22.179 14.8718 20.4352 14.8718V14.8744ZM152.576 4.50455C151.575 4.17539 151.181 3.46441 150.612 2.68759C149.999 1.85343 149.133 1.22328 148.135 0.883789C148.606 2.35843 147.704 3.95156 146.183 4.38605C143.487 5.08678 141.144 6.705 139.585 8.94281C138.026 11.1806 137.356 13.8874 137.698 16.5649C138.04 19.2423 139.371 21.7103 141.447 23.5144C143.522 25.3184 146.202 26.3373 148.993 26.3832C151.784 26.4292 154.498 25.4992 156.636 23.7646C158.774 22.0299 160.192 19.6072 160.628 16.9426C161.064 14.2779 160.49 11.5506 159.011 9.26278C157.531 6.97492 155.247 5.28048 152.577 4.49139L152.576 4.50455ZM149.2 22.4517C147.818 22.4517 146.493 21.9211 145.515 20.9766C144.538 20.0322 143.989 18.7512 143.989 17.4155C143.989 16.0799 144.538 14.7989 145.515 13.8544C146.493 12.91 147.818 12.3794 149.2 12.3794C150.582 12.3794 151.908 12.91 152.885 13.8544C153.862 14.7989 154.411 16.0799 154.411 17.4155C154.411 18.7512 153.862 20.0322 152.885 20.9766C151.908 21.9211 150.582 22.4517 149.2 22.4517Z" fill="black" stroke="black" stroke-width="2" mask="url(#path-1-inside-1_24223_3381)"/>
</svg>
