<svg width="24" height="26" viewBox="0 0 24 26" fill="none" xmlns="http://www.w3.org/2000/svg">
<path d="M15.6353 4.16576L16.2285 4.36428L16.2301 4.34845C18.5401 5.18281 20.5074 6.75088 21.8157 8.81098C23.2319 11.0409 23.7812 13.698 23.3638 16.2936C22.9464 18.8892 21.5898 21.2509 19.5416 22.943C17.4931 24.6352 14.8911 25.5433 12.2143 25.4984C9.53745 25.4535 6.96846 24.4587 4.97998 22.6989C2.9917 20.9393 1.71778 18.5337 1.39049 15.9256C1.06321 13.3176 1.7042 10.6804 3.19688 8.49907C4.6897 6.31753 6.93448 4.73824 9.51933 4.05415L9.51936 4.05429L9.53097 4.05091C10.9875 3.6275 11.9675 2.28083 11.9725 0.830888C12.542 1.15638 13.0369 1.59908 13.4213 2.13169C13.4877 2.22396 13.5536 2.31886 13.6204 2.41507C14.085 3.08442 14.5937 3.81714 15.6353 4.16576ZM8.37264 20.8424C9.44565 21.8982 10.8993 22.4899 12.4133 22.4899C13.9273 22.4899 15.381 21.8982 16.454 20.8424C17.5273 19.7863 18.1317 18.3522 18.1317 16.8552C18.1317 15.3581 17.5273 13.9241 16.454 12.868C15.381 11.8122 13.9273 11.2205 12.4133 11.2205C10.8993 11.2205 9.44566 11.8122 8.37264 12.868C7.29936 13.9241 6.6949 15.3582 6.6949 16.8552C6.6949 18.3522 7.29936 19.7863 8.37264 20.8424Z" fill="black" stroke="black"/>
</svg>
