<svg width="161" height="27" viewBox="0 0 161 27" fill="none" xmlns="http://www.w3.org/2000/svg">
<mask id="path-1-inside-1" fill="white">
<path fill-rule="evenodd" clip-rule="evenodd" d="M7.15845 20.5518C4.41076 20.5518 2.53349 18.2496 2.53349 15.2537C2.53349 12.2259 4.46124 9.91166 7.20347 9.91166C8.41223 9.91166 9.68648 10.3598 10.6633 11.1055L11.7629 9.39812C10.4887 8.31103 8.70419 7.7108 7.01247 7.7108C3.02464 7.7108 0 10.9854 0 15.3098C0 19.5514 2.92914 22.7834 6.92515 22.7834C8.63052 22.7834 10.5269 22.1885 11.782 21.12L10.6633 19.3687C9.73287 20.0716 8.41223 20.5518 7.15708 20.5518H7.15845ZM25.6719 12.4713C25.6719 9.83163 23.8751 7.91087 20.785 7.91087H15.8626V22.5699H18.3184V17.0745H20.358L23.313 22.5753H26.2217L22.8656 16.7197C24.6323 16.0434 25.6733 14.4694 25.6733 12.4713H25.6719ZM34.0623 7.91087L29.0826 22.5646H31.6448L32.8017 18.8832H38.0979L39.2685 22.5646H41.9643L36.9164 7.91354H34.0514L34.0623 7.91087ZM55.082 9.72492V7.92021H45.199V10.0517H51.9455L44.9548 20.7999V22.5766H55.187V20.4198H48.0654L55.1052 9.72892L55.082 9.72492ZM64.5843 14.0506L61.1735 7.91888H58.3222L63.2882 16.4729V22.5686H65.7576V16.4596L70.8205 7.91087H68.1519L64.5856 14.0466L64.5843 14.0506ZM81.7335 14.8162C82.8112 14.2293 83.4252 13.1663 83.4252 11.7217C83.4252 9.32076 81.7471 7.92021 78.9503 7.92021H74.3117V22.5726H79.7279C82.4702 22.5726 84.2983 20.8519 84.2983 18.4243C84.2983 16.5676 83.2069 15.2457 81.7062 14.8162H81.7335ZM92.7719 7.92021L87.7923 22.5726H90.3517L91.5113 18.8912H96.8048L97.9781 22.5726H100.679L95.6411 7.92021H92.7856H92.7719ZM112.532 14.8162C113.613 14.2293 114.234 13.1663 114.234 11.7217C114.234 9.32076 112.569 7.92021 109.759 7.92021H105.12V22.5726H110.55C113.292 22.5726 115.134 20.8519 115.134 18.4243C115.134 16.5676 114.043 15.2457 112.556 14.8162H112.532ZM124.17 14.0506L120.773 7.92021H117.908L122.874 16.4742V22.5739H125.35V16.4609L130.398 7.92021H127.737L124.163 14.0519L124.17 14.0506ZM107.577 10.0691H109.46C110.838 10.0691 111.775 10.6186 111.775 11.9658C111.775 13.3623 110.807 14.0199 109.579 14.0199H107.573V10.0691H107.577ZM110.19 20.4118H107.575V16.0767H110.013C111.577 16.0767 112.605 16.7703 112.605 18.2509C112.605 19.7315 111.577 20.4118 110.187 20.4118H110.19ZM92.158 16.8144L94.1499 10.5106L96.169 16.8064H92.158V16.8144ZM76.777 10.0691H78.6597C80.0376 10.0691 80.9735 10.6186 80.9735 11.9658C80.9735 13.3623 80.0049 14.0199 78.7825 14.0199H76.777V10.0691ZM79.3896 20.4118H76.7838V16.0767H79.2259C80.7948 16.0767 81.818 16.7703 81.818 18.2509C81.818 19.7315 80.7948 20.4118 79.4032 20.4118H79.3896ZM33.4538 16.8144L35.4457 10.5106L37.4649 16.8064H33.4538V16.8144ZM20.4644 14.9069H18.3225V10.0784H20.4644C22.1111 10.0784 23.1793 10.896 23.1793 12.506C23.1793 14.0439 22.2107 14.9043 20.4644 14.9043V14.9069ZM152.794 4.4015C151.791 4.06804 151.397 3.34775 150.827 2.56078C150.213 1.71572 149.346 1.07733 148.346 0.733398C148.818 2.22732 147.915 3.84128 146.391 4.28145C143.692 4.99134 141.346 6.63072 139.784 8.89779C138.223 11.1649 137.552 13.907 137.894 16.6195C138.237 19.332 139.57 21.8322 141.649 23.6599C143.727 25.4875 146.411 26.5197 149.206 26.5662C152.001 26.6128 154.719 25.6707 156.86 23.9133C159.001 22.156 160.421 19.7016 160.857 17.0021C161.294 14.3026 160.719 11.5397 159.238 9.22194C157.756 6.90417 155.469 5.18757 152.795 4.38816L152.794 4.4015ZM149.413 22.5833C148.029 22.5833 146.702 22.0458 145.723 21.0889C144.745 20.1321 144.195 18.8344 144.195 17.4813C144.195 16.1282 144.745 14.8304 145.723 13.8736C146.702 12.9168 148.029 12.3793 149.413 12.3793C150.797 12.3793 152.125 12.9168 153.103 13.8736C154.082 14.8304 154.632 16.1282 154.632 17.4813C154.632 18.8344 154.082 20.1321 153.103 21.0889C152.125 22.0458 150.797 22.5833 149.413 22.5833Z"/>
</mask>
<path fill-rule="evenodd" clip-rule="evenodd" d="M7.15845 20.5518C4.41076 20.5518 2.53349 18.2496 2.53349 15.2537C2.53349 12.2259 4.46124 9.91166 7.20347 9.91166C8.41223 9.91166 9.68648 10.3598 10.6633 11.1055L11.7629 9.39812C10.4887 8.31103 8.70419 7.7108 7.01247 7.7108C3.02464 7.7108 0 10.9854 0 15.3098C0 19.5514 2.92914 22.7834 6.92515 22.7834C8.63052 22.7834 10.5269 22.1885 11.782 21.12L10.6633 19.3687C9.73287 20.0716 8.41223 20.5518 7.15708 20.5518H7.15845ZM25.6719 12.4713C25.6719 9.83163 23.8751 7.91087 20.785 7.91087H15.8626V22.5699H18.3184V17.0745H20.358L23.313 22.5753H26.2217L22.8656 16.7197C24.6323 16.0434 25.6733 14.4694 25.6733 12.4713H25.6719ZM34.0623 7.91087L29.0826 22.5646H31.6448L32.8017 18.8832H38.0979L39.2685 22.5646H41.9643L36.9164 7.91354H34.0514L34.0623 7.91087ZM55.082 9.72492V7.92021H45.199V10.0517H51.9455L44.9548 20.7999V22.5766H55.187V20.4198H48.0654L55.1052 9.72892L55.082 9.72492ZM64.5843 14.0506L61.1735 7.91888H58.3222L63.2882 16.4729V22.5686H65.7576V16.4596L70.8205 7.91087H68.1519L64.5856 14.0466L64.5843 14.0506ZM81.7335 14.8162C82.8112 14.2293 83.4252 13.1663 83.4252 11.7217C83.4252 9.32076 81.7471 7.92021 78.9503 7.92021H74.3117V22.5726H79.7279C82.4702 22.5726 84.2983 20.8519 84.2983 18.4243C84.2983 16.5676 83.2069 15.2457 81.7062 14.8162H81.7335ZM92.7719 7.92021L87.7923 22.5726H90.3517L91.5113 18.8912H96.8048L97.9781 22.5726H100.679L95.6411 7.92021H92.7856H92.7719ZM112.532 14.8162C113.613 14.2293 114.234 13.1663 114.234 11.7217C114.234 9.32076 112.569 7.92021 109.759 7.92021H105.12V22.5726H110.55C113.292 22.5726 115.134 20.8519 115.134 18.4243C115.134 16.5676 114.043 15.2457 112.556 14.8162H112.532ZM124.17 14.0506L120.773 7.92021H117.908L122.874 16.4742V22.5739H125.35V16.4609L130.398 7.92021H127.737L124.163 14.0519L124.17 14.0506ZM107.577 10.0691H109.46C110.838 10.0691 111.775 10.6186 111.775 11.9658C111.775 13.3623 110.807 14.0199 109.579 14.0199H107.573V10.0691H107.577ZM110.19 20.4118H107.575V16.0767H110.013C111.577 16.0767 112.605 16.7703 112.605 18.2509C112.605 19.7315 111.577 20.4118 110.187 20.4118H110.19ZM92.158 16.8144L94.1499 10.5106L96.169 16.8064H92.158V16.8144ZM76.777 10.0691H78.6597C80.0376 10.0691 80.9735 10.6186 80.9735 11.9658C80.9735 13.3623 80.0049 14.0199 78.7825 14.0199H76.777V10.0691ZM79.3896 20.4118H76.7838V16.0767H79.2259C80.7948 16.0767 81.818 16.7703 81.818 18.2509C81.818 19.7315 80.7948 20.4118 79.4032 20.4118H79.3896ZM33.4538 16.8144L35.4457 10.5106L37.4649 16.8064H33.4538V16.8144ZM20.4644 14.9069H18.3225V10.0784H20.4644C22.1111 10.0784 23.1793 10.896 23.1793 12.506C23.1793 14.0439 22.2107 14.9043 20.4644 14.9043V14.9069ZM152.794 4.4015C151.791 4.06804 151.397 3.34775 150.827 2.56078C150.213 1.71572 149.346 1.07733 148.346 0.733398C148.818 2.22732 147.915 3.84128 146.391 4.28145C143.692 4.99134 141.346 6.63072 139.784 8.89779C138.223 11.1649 137.552 13.907 137.894 16.6195C138.237 19.332 139.57 21.8322 141.649 23.6599C143.727 25.4875 146.411 26.5197 149.206 26.5662C152.001 26.6128 154.719 25.6707 156.86 23.9133C159.001 22.156 160.421 19.7016 160.857 17.0021C161.294 14.3026 160.719 11.5397 159.238 9.22194C157.756 6.90417 155.469 5.18757 152.795 4.38816L152.794 4.4015ZM149.413 22.5833C148.029 22.5833 146.702 22.0458 145.723 21.0889C144.745 20.1321 144.195 18.8344 144.195 17.4813C144.195 16.1282 144.745 14.8304 145.723 13.8736C146.702 12.9168 148.029 12.3793 149.413 12.3793C150.797 12.3793 152.125 12.9168 153.103 13.8736C154.082 14.8304 154.632 16.1282 154.632 17.4813C154.632 18.8344 154.082 20.1321 153.103 21.0889C152.125 22.0458 150.797 22.5833 149.413 22.5833Z" fill="black" stroke="black" stroke-width="2" mask="url(#path-1-inside-1)"/>
</svg>
