<svg width="161" height="27" viewBox="0 0 161 27" fill="none" xmlns="http://www.w3.org/2000/svg">
<mask id="path-1-inside-1" fill="white">
<path fill-rule="evenodd" clip-rule="evenodd" d="M7.15845 20.661C4.41076 20.661 2.53349 18.3586 2.53349 15.3627C2.53349 12.3347 4.46124 10.0204 7.20347 10.0204C8.41223 10.0204 9.68648 10.4686 10.6633 11.2142L11.7629 9.50685C10.4887 8.41971 8.70419 7.81946 7.01247 7.81946C3.02464 7.81946 0 11.0942 0 15.4187C0 19.6605 2.92914 22.8926 6.92515 22.8926C8.63052 22.8926 10.5269 22.2977 11.782 21.2292L10.6633 19.4778C9.73287 20.1808 8.41223 20.661 7.15708 20.661H7.15845ZM25.6719 12.5802C25.6719 9.94036 23.8751 8.01954 20.785 8.01954H15.8626V22.6792H18.3184V17.1835H20.358L23.313 22.6845H26.2217L22.8656 16.8287C24.6323 16.1524 25.6733 14.5784 25.6733 12.5802H25.6719ZM34.0623 8.01954L29.0826 22.6738H31.6448L32.8017 18.9922H38.0979L39.2685 22.6738H41.9643L36.9164 8.02221H34.0514L34.0623 8.01954ZM55.082 9.83365V8.02888H45.199V10.1605H51.9455L44.9548 20.9091V22.6858H55.187V20.5289H48.0654L55.1052 9.83766L55.082 9.83365ZM64.5843 14.1595L61.1735 8.02755H58.3222L63.2882 16.5819V22.6778H65.7576V16.5685L70.8205 8.01954H68.1519L64.5856 14.1555L64.5843 14.1595ZM81.7335 14.9252C82.8112 14.3383 83.4252 13.2751 83.4252 11.8305C83.4252 9.42948 81.7471 8.02888 78.9503 8.02888H74.3117V22.6818H79.7279C82.4702 22.6818 84.2983 20.9611 84.2983 18.5334C84.2983 16.6766 83.2069 15.3547 81.7062 14.9252H81.7335ZM92.7719 8.02888L87.7923 22.6818H90.3517L91.5113 19.0003H96.8048L97.9781 22.6818H100.679L95.6411 8.02888H92.7856H92.7719ZM112.532 14.9252C113.613 14.3383 114.234 13.2751 114.234 11.8305C114.234 9.42948 112.569 8.02888 109.759 8.02888H105.12V22.6818H110.55C113.292 22.6818 115.134 20.9611 115.134 18.5334C115.134 16.6766 114.043 15.3547 112.556 14.9252H112.532ZM124.17 14.1595L120.773 8.02888H117.908L122.874 16.5832V22.6832H125.35V16.5699L130.398 8.02888H127.737L124.163 14.1608L124.17 14.1595ZM107.577 10.1778H109.46C110.838 10.1778 111.775 10.7274 111.775 12.0746C111.775 13.4712 110.807 14.1288 109.579 14.1288H107.573V10.1778H107.577ZM110.19 20.5209H107.575V16.1857H110.013C111.577 16.1857 112.605 16.8793 112.605 18.36C112.605 19.8406 111.577 20.5209 110.187 20.5209H110.19ZM92.158 16.9234L94.1499 10.6193L96.169 16.9154H92.158V16.9234ZM76.777 10.1778H78.6597C80.0376 10.1778 80.9735 10.7274 80.9735 12.0746C80.9735 13.4712 80.0049 14.1288 78.7825 14.1288H76.777V10.1778ZM79.3896 20.5209H76.7838V16.1857H79.2259C80.7948 16.1857 81.818 16.8793 81.818 18.36C81.818 19.8406 80.7948 20.5209 79.4032 20.5209H79.3896ZM33.4538 16.9234L35.4457 10.6193L37.4649 16.9154H33.4538V16.9234ZM20.4644 15.0159H18.3225V10.1871H20.4644C22.1111 10.1871 23.1793 11.0048 23.1793 12.6148C23.1793 14.1528 22.2107 15.0132 20.4644 15.0132V15.0159ZM152.794 4.51004C151.791 4.17656 151.397 3.45625 150.827 2.66925C150.213 1.82415 149.346 1.18574 148.346 0.841797C148.818 2.33577 147.915 3.9498 146.391 4.38999C143.692 5.0999 141.346 6.73934 139.784 9.00649C138.223 11.2736 137.552 14.0159 137.894 16.7285C138.237 19.4411 139.57 21.9414 141.649 23.7691C143.727 25.5969 146.411 26.629 149.206 26.6756C152.001 26.7222 154.719 25.78 156.86 24.0226C159.001 22.2652 160.421 19.8107 160.857 17.1111C161.294 14.4116 160.719 11.6485 159.238 9.33065C157.756 7.0128 155.469 5.29614 152.795 4.4967L152.794 4.51004ZM149.413 22.6925C148.029 22.6925 146.702 22.155 145.723 21.1981C144.745 20.2413 144.195 18.9435 144.195 17.5903C144.195 16.2371 144.745 14.9394 145.723 13.9825C146.702 13.0257 148.029 12.4881 149.413 12.4881C150.797 12.4881 152.125 13.0257 153.103 13.9825C154.082 14.9394 154.632 16.2371 154.632 17.5903C154.632 18.9435 154.082 20.2413 153.103 21.1981C152.125 22.155 150.797 22.6925 149.413 22.6925Z"/>
</mask>
<path fill-rule="evenodd" clip-rule="evenodd" d="M7.15845 20.661C4.41076 20.661 2.53349 18.3586 2.53349 15.3627C2.53349 12.3347 4.46124 10.0204 7.20347 10.0204C8.41223 10.0204 9.68648 10.4686 10.6633 11.2142L11.7629 9.50685C10.4887 8.41971 8.70419 7.81946 7.01247 7.81946C3.02464 7.81946 0 11.0942 0 15.4187C0 19.6605 2.92914 22.8926 6.92515 22.8926C8.63052 22.8926 10.5269 22.2977 11.782 21.2292L10.6633 19.4778C9.73287 20.1808 8.41223 20.661 7.15708 20.661H7.15845ZM25.6719 12.5802C25.6719 9.94036 23.8751 8.01954 20.785 8.01954H15.8626V22.6792H18.3184V17.1835H20.358L23.313 22.6845H26.2217L22.8656 16.8287C24.6323 16.1524 25.6733 14.5784 25.6733 12.5802H25.6719ZM34.0623 8.01954L29.0826 22.6738H31.6448L32.8017 18.9922H38.0979L39.2685 22.6738H41.9643L36.9164 8.02221H34.0514L34.0623 8.01954ZM55.082 9.83365V8.02888H45.199V10.1605H51.9455L44.9548 20.9091V22.6858H55.187V20.5289H48.0654L55.1052 9.83766L55.082 9.83365ZM64.5843 14.1595L61.1735 8.02755H58.3222L63.2882 16.5819V22.6778H65.7576V16.5685L70.8205 8.01954H68.1519L64.5856 14.1555L64.5843 14.1595ZM81.7335 14.9252C82.8112 14.3383 83.4252 13.2751 83.4252 11.8305C83.4252 9.42948 81.7471 8.02888 78.9503 8.02888H74.3117V22.6818H79.7279C82.4702 22.6818 84.2983 20.9611 84.2983 18.5334C84.2983 16.6766 83.2069 15.3547 81.7062 14.9252H81.7335ZM92.7719 8.02888L87.7923 22.6818H90.3517L91.5113 19.0003H96.8048L97.9781 22.6818H100.679L95.6411 8.02888H92.7856H92.7719ZM112.532 14.9252C113.613 14.3383 114.234 13.2751 114.234 11.8305C114.234 9.42948 112.569 8.02888 109.759 8.02888H105.12V22.6818H110.55C113.292 22.6818 115.134 20.9611 115.134 18.5334C115.134 16.6766 114.043 15.3547 112.556 14.9252H112.532ZM124.17 14.1595L120.773 8.02888H117.908L122.874 16.5832V22.6832H125.35V16.5699L130.398 8.02888H127.737L124.163 14.1608L124.17 14.1595ZM107.577 10.1778H109.46C110.838 10.1778 111.775 10.7274 111.775 12.0746C111.775 13.4712 110.807 14.1288 109.579 14.1288H107.573V10.1778H107.577ZM110.19 20.5209H107.575V16.1857H110.013C111.577 16.1857 112.605 16.8793 112.605 18.36C112.605 19.8406 111.577 20.5209 110.187 20.5209H110.19ZM92.158 16.9234L94.1499 10.6193L96.169 16.9154H92.158V16.9234ZM76.777 10.1778H78.6597C80.0376 10.1778 80.9735 10.7274 80.9735 12.0746C80.9735 13.4712 80.0049 14.1288 78.7825 14.1288H76.777V10.1778ZM79.3896 20.5209H76.7838V16.1857H79.2259C80.7948 16.1857 81.818 16.8793 81.818 18.36C81.818 19.8406 80.7948 20.5209 79.4032 20.5209H79.3896ZM33.4538 16.9234L35.4457 10.6193L37.4649 16.9154H33.4538V16.9234ZM20.4644 15.0159H18.3225V10.1871H20.4644C22.1111 10.1871 23.1793 11.0048 23.1793 12.6148C23.1793 14.1528 22.2107 15.0132 20.4644 15.0132V15.0159ZM152.794 4.51004C151.791 4.17656 151.397 3.45625 150.827 2.66925C150.213 1.82415 149.346 1.18574 148.346 0.841797C148.818 2.33577 147.915 3.9498 146.391 4.38999C143.692 5.0999 141.346 6.73934 139.784 9.00649C138.223 11.2736 137.552 14.0159 137.894 16.7285C138.237 19.4411 139.57 21.9414 141.649 23.7691C143.727 25.5969 146.411 26.629 149.206 26.6756C152.001 26.7222 154.719 25.78 156.86 24.0226C159.001 22.2652 160.421 19.8107 160.857 17.1111C161.294 14.4116 160.719 11.6485 159.238 9.33065C157.756 7.0128 155.469 5.29614 152.795 4.4967L152.794 4.51004ZM149.413 22.6925C148.029 22.6925 146.702 22.155 145.723 21.1981C144.745 20.2413 144.195 18.9435 144.195 17.5903C144.195 16.2371 144.745 14.9394 145.723 13.9825C146.702 13.0257 148.029 12.4881 149.413 12.4881C150.797 12.4881 152.125 13.0257 153.103 13.9825C154.082 14.9394 154.632 16.2371 154.632 17.5903C154.632 18.9435 154.082 20.2413 153.103 21.1981C152.125 22.155 150.797 22.6925 149.413 22.6925Z" fill="black" stroke="black" stroke-width="2" mask="url(#path-1-inside-1)"/>
</svg>
