<svg width="184" height="26" viewBox="0 0 184 26" fill="none" xmlns="http://www.w3.org/2000/svg">
<mask id="path-1-inside-1_24223_3488" fill="white">
<path fill-rule="evenodd" clip-rule="evenodd" d="M8.18108 20.1678C5.04087 20.1678 2.89542 17.9399 2.89542 15.0408C2.89542 12.1108 5.09856 9.8713 8.23254 9.8713C9.61398 9.8713 11.0703 10.305 12.1866 11.0265L13.4434 9.37435C11.9871 8.32237 9.94765 7.74153 8.01425 7.74153C3.45673 7.74153 0 10.9104 0 15.095C0 19.1997 3.34759 22.3272 7.91446 22.3272C9.86345 22.3272 12.0307 21.7516 13.4652 20.7176L12.1866 19.0229C11.1233 19.7031 9.61398 20.1678 8.17952 20.1678H8.18108ZM29.3393 12.3483C29.3393 9.79385 27.2859 7.93514 23.7543 7.93514H18.1287V22.1207H20.9353V16.8027H23.2663L26.6435 22.1259H29.9677L26.1321 16.4594C28.1512 15.805 29.3409 14.2819 29.3409 12.3483H29.3393ZM38.9284 7.93514L33.2373 22.1156H36.1655L37.4877 18.553H43.5404L44.8782 22.1156H47.9592L42.1902 7.93772H38.9159L38.9284 7.93514ZM62.9508 9.69059V7.94418H51.656V10.0068H59.3663L51.3769 20.4079V22.1272H63.0709V20.04H54.9319L62.9773 9.69446L62.9508 9.69059ZM73.8106 13.8766L69.9126 7.94289H66.6539L72.3294 16.2206V22.1194H75.1515V16.2077L80.9377 7.93514H77.8879L73.8122 13.8727L73.8106 13.8766ZM93.4097 14.6175C94.6414 14.0495 95.3431 13.0208 95.3431 11.6229C95.3431 9.29949 93.4252 7.94418 90.2289 7.94418H84.9277V22.1233H91.1176C94.2516 22.1233 96.3409 20.4582 96.3409 18.109C96.3409 16.3122 95.0936 15.0331 93.3785 14.6175H93.4097ZM106.025 7.94418L100.334 22.1233H103.259L104.584 18.5608H110.634L111.975 22.1233H115.062L109.304 7.94418H106.041H106.025ZM128.608 14.6175C129.843 14.0495 130.553 13.0208 130.553 11.6229C130.553 9.29949 128.651 7.94418 125.439 7.94418H120.137V22.1233H126.343C129.477 22.1233 131.582 20.4582 131.582 18.109C131.582 16.3122 130.334 15.0331 128.635 14.6175H128.608ZM141.908 13.8766L138.026 7.94418H134.752L140.427 16.2219V22.1246H143.257V16.209L149.026 7.94418H145.986L141.901 13.8778L141.908 13.8766ZM122.945 10.0236H125.097C126.672 10.0236 127.743 10.5554 127.743 11.8591C127.743 13.2105 126.636 13.8469 125.233 13.8469H122.941V10.0236H122.945ZM125.931 20.0322H122.942V15.8372H125.729C127.517 15.8372 128.691 16.5084 128.691 17.9412C128.691 19.374 127.517 20.0322 125.928 20.0322H125.931ZM105.323 16.551L107.6 10.4509L109.907 16.5433H105.323V16.551ZM87.7451 10.0236H89.8968C91.4716 10.0236 92.5412 10.5554 92.5412 11.8591C92.5412 13.2105 91.4342 13.8469 90.0371 13.8469H87.7451V10.0236ZM90.731 20.0322H87.7529V15.8372H90.5439C92.3369 15.8372 93.5063 16.5084 93.5063 17.9412C93.5063 19.374 92.3369 20.0322 90.7466 20.0322H90.731ZM38.233 16.551L40.5094 10.4509L42.817 16.5433H38.233V16.551ZM23.3879 14.7052H20.94V10.0326H23.3879C25.2698 10.0326 26.4907 10.8239 26.4907 12.3818C26.4907 13.8701 25.3837 14.7027 23.3879 14.7027V14.7052ZM174.622 4.53912C173.476 4.21643 173.025 3.51941 172.373 2.75786C171.672 1.94009 170.682 1.32232 169.539 0.989502C170.078 2.43517 169.046 3.997 167.304 4.42295C164.219 5.10991 161.538 6.69633 159.753 8.89017C157.969 11.084 157.202 13.7376 157.594 16.3625C157.985 18.9873 159.509 21.4068 161.884 23.1754C164.26 24.9441 167.327 25.9428 170.521 25.9879C173.715 26.033 176.822 25.1213 179.269 23.4207C181.715 21.7201 183.338 19.345 183.837 16.7327C184.336 14.1205 183.679 11.4468 181.986 9.20386C180.293 6.96095 177.678 5.29981 174.623 4.52621L174.622 4.53912ZM170.758 22.1336C169.176 22.1336 167.659 21.6135 166.541 20.6875C165.423 19.7616 164.794 18.5058 164.794 17.1964C164.794 15.887 165.423 14.6312 166.541 13.7053C167.659 12.7794 169.176 12.2592 170.758 12.2592C172.34 12.2592 173.857 12.7794 174.975 13.7053C176.094 14.6312 176.722 15.887 176.722 17.1964C176.722 18.5058 176.094 19.7616 174.975 20.6875C173.857 21.6135 172.34 22.1336 170.758 22.1336Z"/>
</mask>
<path fill-rule="evenodd" clip-rule="evenodd" d="M8.18108 20.1678C5.04087 20.1678 2.89542 17.9399 2.89542 15.0408C2.89542 12.1108 5.09856 9.8713 8.23254 9.8713C9.61398 9.8713 11.0703 10.305 12.1866 11.0265L13.4434 9.37435C11.9871 8.32237 9.94765 7.74153 8.01425 7.74153C3.45673 7.74153 0 10.9104 0 15.095C0 19.1997 3.34759 22.3272 7.91446 22.3272C9.86345 22.3272 12.0307 21.7516 13.4652 20.7176L12.1866 19.0229C11.1233 19.7031 9.61398 20.1678 8.17952 20.1678H8.18108ZM29.3393 12.3483C29.3393 9.79385 27.2859 7.93514 23.7543 7.93514H18.1287V22.1207H20.9353V16.8027H23.2663L26.6435 22.1259H29.9677L26.1321 16.4594C28.1512 15.805 29.3409 14.2819 29.3409 12.3483H29.3393ZM38.9284 7.93514L33.2373 22.1156H36.1655L37.4877 18.553H43.5404L44.8782 22.1156H47.9592L42.1902 7.93772H38.9159L38.9284 7.93514ZM62.9508 9.69059V7.94418H51.656V10.0068H59.3663L51.3769 20.4079V22.1272H63.0709V20.04H54.9319L62.9773 9.69446L62.9508 9.69059ZM73.8106 13.8766L69.9126 7.94289H66.6539L72.3294 16.2206V22.1194H75.1515V16.2077L80.9377 7.93514H77.8879L73.8122 13.8727L73.8106 13.8766ZM93.4097 14.6175C94.6414 14.0495 95.3431 13.0208 95.3431 11.6229C95.3431 9.29949 93.4252 7.94418 90.2289 7.94418H84.9277V22.1233H91.1176C94.2516 22.1233 96.3409 20.4582 96.3409 18.109C96.3409 16.3122 95.0936 15.0331 93.3785 14.6175H93.4097ZM106.025 7.94418L100.334 22.1233H103.259L104.584 18.5608H110.634L111.975 22.1233H115.062L109.304 7.94418H106.041H106.025ZM128.608 14.6175C129.843 14.0495 130.553 13.0208 130.553 11.6229C130.553 9.29949 128.651 7.94418 125.439 7.94418H120.137V22.1233H126.343C129.477 22.1233 131.582 20.4582 131.582 18.109C131.582 16.3122 130.334 15.0331 128.635 14.6175H128.608ZM141.908 13.8766L138.026 7.94418H134.752L140.427 16.2219V22.1246H143.257V16.209L149.026 7.94418H145.986L141.901 13.8778L141.908 13.8766ZM122.945 10.0236H125.097C126.672 10.0236 127.743 10.5554 127.743 11.8591C127.743 13.2105 126.636 13.8469 125.233 13.8469H122.941V10.0236H122.945ZM125.931 20.0322H122.942V15.8372H125.729C127.517 15.8372 128.691 16.5084 128.691 17.9412C128.691 19.374 127.517 20.0322 125.928 20.0322H125.931ZM105.323 16.551L107.6 10.4509L109.907 16.5433H105.323V16.551ZM87.7451 10.0236H89.8968C91.4716 10.0236 92.5412 10.5554 92.5412 11.8591C92.5412 13.2105 91.4342 13.8469 90.0371 13.8469H87.7451V10.0236ZM90.731 20.0322H87.7529V15.8372H90.5439C92.3369 15.8372 93.5063 16.5084 93.5063 17.9412C93.5063 19.374 92.3369 20.0322 90.7466 20.0322H90.731ZM38.233 16.551L40.5094 10.4509L42.817 16.5433H38.233V16.551ZM23.3879 14.7052H20.94V10.0326H23.3879C25.2698 10.0326 26.4907 10.8239 26.4907 12.3818C26.4907 13.8701 25.3837 14.7027 23.3879 14.7027V14.7052ZM174.622 4.53912C173.476 4.21643 173.025 3.51941 172.373 2.75786C171.672 1.94009 170.682 1.32232 169.539 0.989502C170.078 2.43517 169.046 3.997 167.304 4.42295C164.219 5.10991 161.538 6.69633 159.753 8.89017C157.969 11.084 157.202 13.7376 157.594 16.3625C157.985 18.9873 159.509 21.4068 161.884 23.1754C164.26 24.9441 167.327 25.9428 170.521 25.9879C173.715 26.033 176.822 25.1213 179.269 23.4207C181.715 21.7201 183.338 19.345 183.837 16.7327C184.336 14.1205 183.679 11.4468 181.986 9.20386C180.293 6.96095 177.678 5.29981 174.623 4.52621L174.622 4.53912ZM170.758 22.1336C169.176 22.1336 167.659 21.6135 166.541 20.6875C165.423 19.7616 164.794 18.5058 164.794 17.1964C164.794 15.887 165.423 14.6312 166.541 13.7053C167.659 12.7794 169.176 12.2592 170.758 12.2592C172.34 12.2592 173.857 12.7794 174.975 13.7053C176.094 14.6312 176.722 15.887 176.722 17.1964C176.722 18.5058 176.094 19.7616 174.975 20.6875C173.857 21.6135 172.34 22.1336 170.758 22.1336Z" fill="black" stroke="black" stroke-width="2" mask="url(#path-1-inside-1_24223_3488)"/>
</svg>
