<svg width="4" height="5" viewBox="0 0 4 5" fill="none" xmlns="http://www.w3.org/2000/svg">
<path d="M2.04522 0.637718C1.77888 0.631695 1.51402 0.678944 1.26619 0.77669C1.01836 0.874436 0.792561 1.02071 0.602042 1.20692C0.411523 1.39313 0.260127 1.61553 0.156742 1.86106C0.053357 2.10659 6.6681e-05 2.3703 6.25376e-08 2.63671C-6.65559e-05 2.90311 0.0530916 3.16685 0.156354 3.41243C0.259616 3.65801 0.410902 3.88048 0.601328 4.06679C0.791754 4.2531 1.01748 4.39949 1.26526 4.49736C1.51304 4.59523 1.77787 4.64261 2.04422 4.63672C2.56678 4.62516 3.06405 4.40949 3.42959 4.03588C3.79512 3.66227 3.99987 3.1604 4 2.63771C4.00013 2.11502 3.79563 1.61305 3.43029 1.23925C3.06494 0.865453 2.56777 0.649535 2.04522 0.637718Z" fill="black"/>
</svg>
