<svg width="76" height="83" viewBox="0 0 76 83" fill="none" xmlns="http://www.w3.org/2000/svg">
<path d="M35.1825 32.1235L6.14593 64.0961C5.37645 64.9338 4.76577 65.93 4.34904 67.0274C3.93231 68.1247 3.71777 69.3016 3.71777 70.4902C3.71777 71.6788 3.93231 72.8557 4.34904 73.9531C4.76577 75.0504 5.37645 76.0466 6.14593 76.8843C7.70088 78.5793 9.80488 79.5308 11.9981 79.5308C14.1913 79.5308 16.2953 78.5793 17.8502 76.8843L46.9811 45.0539" stroke="#F29610" stroke-width="6" stroke-linecap="round" stroke-linejoin="round"/>
<path d="M61.5607 54.9371L71.7312 43.7911C72.4685 42.9828 72.8827 41.8867 72.8827 40.7438C72.8827 39.6009 72.4685 38.5048 71.7312 37.6965L41.8962 4.99983C41.1587 4.19181 40.1586 3.73788 39.1157 3.73788C38.0728 3.73788 37.0727 4.19181 36.3351 4.99983L26.1647 16.1459C25.4274 16.9541 25.0132 18.0502 25.0132 19.1931C25.0132 20.336 25.4274 21.4321 26.1647 22.2404L55.9996 54.9371C56.7371 55.7451 57.7373 56.199 58.7802 56.199C59.823 56.199 60.8232 55.7451 61.5607 54.9371Z" stroke="#F29610" stroke-width="6" stroke-linecap="round" stroke-linejoin="round"/>
</svg>
