<svg width="46" height="39" viewBox="0 0 46 39" fill="none" xmlns="http://www.w3.org/2000/svg">
<path d="M23 0.231323C14.4221 0.231323 6.55119 3.32913 0.411638 8.32883C0.190719 8.51051 0.0459588 8.77913 0.00920269 9.0756C-0.0275534 9.37207 0.0467058 9.6721 0.215644 9.90968C0.384582 10.1473 0.634361 10.303 0.910031 10.3425C1.1857 10.382 1.46468 10.3021 1.6856 10.1205C7.47142 5.40884 14.8902 2.47965 23 2.47965C31.1098 2.47965 38.5286 5.40884 44.3144 10.1205C44.5353 10.3021 44.8143 10.382 45.09 10.3425C45.3656 10.303 45.6154 10.1473 45.7844 9.90968C45.9533 9.6721 46.0275 9.37207 45.9908 9.0756C45.954 8.77913 45.8093 8.51051 45.5884 8.32883C39.4488 3.32913 31.5778 0.231323 23 0.231323ZM23 10.9109C16.8533 10.9109 11.1223 12.9118 6.66713 16.7776C6.54386 16.8631 6.4387 16.9756 6.35848 17.1077C6.27827 17.2397 6.2248 17.3885 6.20156 17.5443C6.17831 17.7 6.1858 17.8593 6.22355 18.0117C6.26129 18.1642 6.32844 18.3064 6.42064 18.4291C6.51284 18.5518 6.62801 18.6522 6.75868 18.7239C6.88934 18.7956 7.03257 18.8369 7.17906 18.8452C7.32555 18.8534 7.47201 18.8284 7.60892 18.7718C7.74584 18.7152 7.87014 18.6282 7.97376 18.5166C12.0217 15.0041 17.2751 13.1592 23 13.1592C28.7249 13.1592 33.9783 15.0041 38.0262 18.5166C38.1299 18.6282 38.2542 18.7152 38.3911 18.7718C38.528 18.8284 38.6744 18.8534 38.8209 18.8452C38.9674 18.8369 39.1107 18.7956 39.2413 18.7239C39.372 18.6522 39.4872 18.5518 39.5794 18.4291C39.6716 18.3064 39.7387 18.1642 39.7765 18.0117C39.8142 17.8593 39.8217 17.7 39.7984 17.5443C39.7752 17.3885 39.7217 17.2397 39.6415 17.1077C39.5613 16.9756 39.4561 16.8631 39.3329 16.7776C34.8777 12.9118 29.1467 10.9109 23 10.9109ZM23 21.0284C19.2465 21.0284 15.6812 22.2925 12.9389 24.6292C12.7216 24.8161 12.5819 25.0879 12.5504 25.3852C12.519 25.6826 12.5983 25.9812 12.7711 26.2158C12.9439 26.4503 13.196 26.6018 13.4723 26.6369C13.7487 26.6721 14.0267 26.5881 14.2456 26.4033C16.5865 24.4085 19.6893 23.2767 23 23.2767C26.3107 23.2767 29.4135 24.4085 31.7544 26.4033C31.9733 26.5881 32.2513 26.6721 32.5277 26.6369C32.804 26.6018 33.0561 26.4503 33.2289 26.2158C33.4017 25.9812 33.481 25.6826 33.4496 25.3852C33.4181 25.0879 33.2784 24.8161 33.061 24.6292C30.3188 22.2925 26.7535 21.0284 23 21.0284ZM23 31.708C21.2681 31.708 19.8641 33.2179 19.8641 35.0804C19.8641 36.943 21.2681 38.4529 23 38.4529C24.7319 38.4529 26.1359 36.943 26.1359 35.0804C26.1359 33.2179 24.7319 31.708 23 31.708Z" fill="#4F4F4F"/>
</svg>
