<svg width="232" height="232" viewBox="0 0 232 232" fill="none" xmlns="http://www.w3.org/2000/svg">
<circle cx="116" cy="116" r="115.5" stroke="#F3F4F5"/>
<path d="M91.7591 110.448C92.7831 111.472 93.2951 112.736 93.2951 114.24C93.2951 115.744 92.7831 117.008 91.7591 118.032C90.7511 119.056 89.3831 119.568 87.6551 119.568H84.3671V126H81.0311V108.912H87.6551C89.3831 108.912 90.7511 109.424 91.7591 110.448ZM89.2871 115.944C89.7351 115.512 89.9591 114.944 89.9591 114.24C89.9591 113.536 89.7351 112.968 89.2871 112.536C88.8391 112.104 88.2391 111.888 87.4871 111.888H84.3671V116.568H87.4871C88.2391 116.568 88.8391 116.36 89.2871 115.944ZM108.106 126H104.626L103.618 122.976H97.5461L96.5141 126H93.0341L99.2501 108.912H101.866L108.106 126ZM102.73 120.168L100.642 113.952L98.4821 120.168H102.73ZM122.523 120.144C122.523 121.92 121.923 123.368 120.723 124.488C119.523 125.592 118.027 126.144 116.235 126.144C114.443 126.144 112.947 125.592 111.747 124.488C110.547 123.368 109.947 121.92 109.947 120.144V108.912H113.283V120.024C113.283 121 113.547 121.768 114.075 122.328C114.603 122.888 115.323 123.168 116.235 123.168C117.147 123.168 117.867 122.888 118.395 122.328C118.939 121.768 119.211 121 119.211 120.024V108.912H122.523V120.144ZM137.282 120.96C137.282 122.576 136.69 123.848 135.506 124.776C134.322 125.688 132.802 126.144 130.946 126.144C129.586 126.144 128.41 125.976 127.418 125.64C126.426 125.288 125.522 124.704 124.706 123.888L126.866 121.728C127.826 122.688 129.194 123.168 130.97 123.168C131.962 123.168 132.714 122.984 133.226 122.616C133.754 122.248 134.018 121.72 134.018 121.032C134.018 120.44 133.842 119.968 133.49 119.616C133.186 119.328 132.674 119.136 131.954 119.04L129.914 118.728C128.474 118.52 127.37 118.048 126.602 117.312C125.786 116.512 125.378 115.392 125.378 113.952C125.378 112.4 125.914 111.152 126.986 110.208C128.058 109.248 129.506 108.768 131.33 108.768C133.634 108.768 135.474 109.432 136.85 110.76L134.738 112.848C133.938 112.064 132.77 111.672 131.234 111.672C130.386 111.672 129.738 111.88 129.29 112.296C128.842 112.696 128.618 113.208 128.618 113.832C128.618 114.344 128.778 114.752 129.098 115.056C129.466 115.392 129.986 115.608 130.658 115.704L132.698 116.016C134.154 116.224 135.242 116.672 135.962 117.36C136.842 118.176 137.282 119.376 137.282 120.96ZM151.678 126H140.422V108.912H151.678V111.888H143.758V115.896H150.502V118.872H143.758V123.024H151.678V126Z" fill="#F3F4F5"/>
</svg>
