<svg id="Layer_1" data-name="Layer 1" xmlns="http://www.w3.org/2000/svg" viewBox="0 0 512 512"><title>play</title><path d="M36.09,8s-8.73-2.76,6-2.61L53.82,4.29l8.63-2.78L71,2.34s2.46,7.29,7.36,88.35c0,0,4.9,32.4,4.9,76.16,0,0-2.52,317.16-7.71,341,0,0,7.41-198.86,5-211.4,0,0-6,190.17-10.72,204.77,0,0,6.92-184.45.93-200.86,0,0-6.36,169.78-12.32,190.33,0,0,2.39-32.57,1.65-41.29l-1.8,15.18.25-24.44L60,426s-4.11,38.26-6.18,40.93c0,0,2.47,17.45,1.55-51.62C55.35,415.31,69.79,251.94,36.09,8Z" fill="#231f20"/><path d="M53,32.7s-6.75,6.16.93-6.38L59.1,15.7,61.29,7l5.07-7s7.19,1.41,75.4,36.51c0,0,28.76,11.5,64.3,32.69,0-.17,256,156,272.43,172.37,0-.08-157.22-103.34-168.68-107.28.07-.12,151,97.67,160.37,108.91,0-.08-145.77-95.92-162.23-98.61.07-.1,134.35,88,147.81,103.21,0,0-25.13-17.93-32.55-21.54l11.36,8.94L414.9,223l-10.72-8s28.85,22.17,29.94,25.25c0,0,15.38,6.38-41-26.53C393.25,213.55,268.2,122,53,32.7Z" fill="#333333"/><path d="M68.05,509s1.65,9-4.9-4.17l-6.33-10-6.26-6.5-3.21-8s5-5.34,70.88-44.65c0,0,25-18.33,61.77-37.25-.12-.13,267.84-134.61,290.41-139.93,0-.1-170.89,78.7-180.28,86.33-.08-.12,162.81-76.46,177.26-78.42,0-.08-158.51,72.91-169.52,85.45-.05-.1,145.76-67.41,165.82-70.77,0,0-28.53,11.83-35.53,16.19l13.6-4.88-20.7,10.23-12.52,4.83s34.08-12.74,37.28-12c0,0,13.57-9.68-44.18,20.72C401.55,316,257.69,373.7,68.05,509Z" fill="#f3f4f5"/></svg>