<svg width="232" height="232" viewBox="0 0 232 232" fill="none" xmlns="http://www.w3.org/2000/svg">
<circle cx="116" cy="116" r="115.5" stroke="#F3F4F5"/>
<path d="M100.743 110.448C101.767 111.472 102.279 112.736 102.279 114.24C102.279 115.744 101.767 117.008 100.743 118.032C99.7354 119.056 98.3674 119.568 96.6394 119.568H93.3514V126H90.0154V108.912H96.6394C98.3674 108.912 99.7354 109.424 100.743 110.448ZM98.2714 115.944C98.7194 115.512 98.9434 114.944 98.9434 114.24C98.9434 113.536 98.7194 112.968 98.2714 112.536C97.8234 112.104 97.2234 111.888 96.4714 111.888H93.3514V116.568H96.4714C97.2234 116.568 97.8234 116.36 98.2714 115.944ZM116.174 126H105.086V108.912H108.422V123.024H116.174V126ZM132.09 126H128.61L127.602 122.976H121.53L120.498 126H117.018L123.234 108.912H125.85L132.09 126ZM126.714 120.168L124.626 113.952L122.466 120.168H126.714ZM144.898 108.912L139.762 118.992V126H136.45V118.992L131.314 108.912H134.938L138.13 115.8L141.274 108.912H144.898Z" fill="#F3F4F5"/>
</svg>
