<svg width="761" height="95" viewBox="0 0 761 95" fill="none" xmlns="http://www.w3.org/2000/svg">
<path d="M3.40222 18H0.0662189V0.912H3.40222V18ZM12.7547 18H11.0507C9.86672 18 8.96272 17.648 8.33872 16.944C7.73072 16.24 7.42672 15.4 7.42672 14.424V8.232H6.10672V5.856H7.42672V2.16H10.5467V5.856H12.7547V8.232H10.5467V14.232C10.5467 14.984 10.9067 15.36 11.6267 15.36H12.7547V18ZM30.2983 6.528L27.9463 8.904C27.4503 8.408 26.8983 8.16 26.2903 8.16C25.7623 8.16 25.2903 8.36 24.8743 8.76C24.4743 9.16 24.2743 9.728 24.2743 10.464V18H21.1543V5.496H24.2023V6.696C24.5223 6.312 24.9623 5.992 25.5223 5.736C26.0983 5.48 26.7063 5.352 27.3463 5.352C28.5303 5.352 29.5143 5.744 30.2983 6.528ZM41.6217 12.72H33.7977C33.7977 13.552 34.0377 14.224 34.5177 14.736C34.9977 15.248 35.6697 15.504 36.5337 15.504C37.1737 15.504 37.6937 15.416 38.0937 15.24C38.5097 15.048 38.9337 14.744 39.3657 14.328L41.2617 16.176C40.5897 16.864 39.8937 17.368 39.1737 17.688C38.4697 17.992 37.5817 18.144 36.5097 18.144C35.7097 18.144 34.9817 18.048 34.3257 17.856C33.6857 17.648 33.0857 17.312 32.5257 16.848C31.9657 16.384 31.5257 15.72 31.2057 14.856C30.8857 13.992 30.7257 12.952 30.7257 11.736C30.7257 9.736 31.2217 8.176 32.2137 7.056C33.2057 5.92 34.5257 5.352 36.1737 5.352C37.8857 5.352 39.2217 5.912 40.1817 7.032C41.1417 8.136 41.6217 9.592 41.6217 11.4V12.72ZM38.5497 10.584C38.5337 10.04 38.4377 9.592 38.2617 9.24C37.8777 8.376 37.1817 7.944 36.1737 7.944C35.1657 7.944 34.4697 8.376 34.0857 9.24C33.9097 9.592 33.8137 10.04 33.7977 10.584H38.5497ZM53.9541 18H50.9061V16.92C50.4741 17.352 50.0261 17.664 49.5621 17.856C49.1141 18.032 48.5381 18.12 47.8341 18.12C46.4421 18.12 45.3781 17.752 44.6421 17.016C43.9541 16.296 43.6101 15.36 43.6101 14.208C43.6101 13.152 43.9781 12.288 44.7141 11.616C45.4501 10.928 46.5221 10.584 47.9301 10.584H50.8341V9.96C50.8341 9.272 50.6501 8.776 50.2821 8.472C49.9141 8.152 49.3221 7.992 48.5061 7.992C47.5301 7.992 46.7301 8.352 46.1061 9.072L44.1381 7.128C44.7461 6.456 45.3781 5.992 46.0341 5.736C46.7061 5.48 47.5701 5.352 48.6261 5.352C52.1781 5.352 53.9541 6.824 53.9541 9.768V18ZM50.8341 13.392V12.72H48.4581C47.2261 12.72 46.6101 13.2 46.6101 14.16C46.6101 15.104 47.2421 15.576 48.5061 15.576C49.3221 15.576 49.9381 15.376 50.3541 14.976C50.6741 14.704 50.8341 14.176 50.8341 13.392ZM62.6224 18H60.8464C59.6464 18 58.7344 17.648 58.1104 16.944C57.5024 16.24 57.1984 15.4 57.1984 14.424V0.912H60.3184V14.232C60.3184 14.984 60.6864 15.36 61.4224 15.36H62.6224V18ZM70.4271 18H68.6511C67.4511 18 66.5391 17.648 65.9151 16.944C65.3071 16.24 65.0031 15.4 65.0031 14.424V0.912H68.1231V14.232C68.1231 14.984 68.4911 15.36 69.2271 15.36H70.4271V18ZM82.2092 5.496L76.8572 20.016C76.5852 20.736 76.2732 21.272 75.9212 21.624C75.2812 22.264 74.3852 22.584 73.2332 22.584H72.0092V19.776H72.7292C73.1772 19.776 73.5052 19.696 73.7132 19.536C73.9372 19.392 74.1292 19.096 74.2892 18.648L74.8172 17.112L70.5452 5.496H73.8332L76.4252 13.224L78.9212 5.496H82.2092ZM95.2547 18H93.5507C92.3667 18 91.4627 17.648 90.8387 16.944C90.2307 16.24 89.9267 15.4 89.9267 14.424V8.232H88.6067V5.856H89.9267V2.16H93.0467V5.856H95.2547V8.232H93.0467V14.232C93.0467 14.984 93.4067 15.36 94.1267 15.36H95.2547V18ZM108.015 11.736C108.015 12.936 107.911 13.912 107.703 14.664C107.511 15.4 107.143 16.048 106.599 16.608C105.607 17.632 104.311 18.144 102.711 18.144C101.127 18.144 99.839 17.632 98.847 16.608C98.303 16.032 97.927 15.376 97.719 14.64C97.527 13.888 97.431 12.92 97.431 11.736C97.431 10.552 97.527 9.592 97.719 8.856C97.927 8.12 98.303 7.464 98.847 6.888C99.839 5.864 101.127 5.352 102.711 5.352C104.343 5.352 105.639 5.864 106.599 6.888C107.143 7.464 107.511 8.12 107.703 8.856C107.911 9.592 108.015 10.552 108.015 11.736ZM104.895 11.736C104.895 10.184 104.655 9.176 104.175 8.712C103.807 8.344 103.319 8.16 102.711 8.16C102.119 8.16 101.639 8.344 101.271 8.712C100.791 9.176 100.551 10.184 100.551 11.736C100.551 13.304 100.791 14.32 101.271 14.784C101.639 15.152 102.119 15.336 102.711 15.336C103.319 15.336 103.807 15.152 104.175 14.784C104.655 14.32 104.895 13.304 104.895 11.736ZM121.046 11.736C121.046 12.936 120.942 13.912 120.734 14.664C120.542 15.4 120.174 16.048 119.63 16.608C118.638 17.632 117.342 18.144 115.742 18.144C114.158 18.144 112.87 17.632 111.878 16.608C111.334 16.032 110.958 15.376 110.75 14.64C110.558 13.888 110.462 12.92 110.462 11.736C110.462 10.552 110.558 9.592 110.75 8.856C110.958 8.12 111.334 7.464 111.878 6.888C112.87 5.864 114.158 5.352 115.742 5.352C117.374 5.352 118.67 5.864 119.63 6.888C120.174 7.464 120.542 8.12 120.734 8.856C120.942 9.592 121.046 10.552 121.046 11.736ZM117.926 11.736C117.926 10.184 117.686 9.176 117.206 8.712C116.838 8.344 116.35 8.16 115.742 8.16C115.15 8.16 114.67 8.344 114.302 8.712C113.822 9.176 113.582 10.184 113.582 11.736C113.582 13.304 113.822 14.32 114.302 14.784C114.67 15.152 115.15 15.336 115.742 15.336C116.35 15.336 116.838 15.152 117.206 14.784C117.686 14.32 117.926 13.304 117.926 11.736ZM135.398 18H131.534L128.462 12.792L127.142 14.28V18H124.022V0.912H127.142V10.608L131.294 5.496H135.062L130.598 10.536L135.398 18ZM160.67 18H157.55V10.44C157.55 9.656 157.342 9.08 156.926 8.712C156.526 8.344 156.046 8.16 155.486 8.16C154.926 8.16 154.438 8.344 154.022 8.712C153.606 9.064 153.398 9.616 153.398 10.368V18H150.278V10.44C150.278 9.656 150.07 9.08 149.654 8.712C149.254 8.344 148.774 8.16 148.214 8.16C147.638 8.16 147.142 8.344 146.726 8.712C146.326 9.08 146.126 9.656 146.126 10.44V18H143.006V5.496H146.054V6.648C146.886 5.784 147.926 5.352 149.174 5.352C150.614 5.352 151.718 5.88 152.486 6.936C153.494 5.88 154.742 5.352 156.23 5.352C157.542 5.352 158.566 5.72 159.302 6.456C160.214 7.368 160.67 8.552 160.67 10.008V18ZM174.301 12.72H166.477C166.477 13.552 166.717 14.224 167.197 14.736C167.677 15.248 168.349 15.504 169.213 15.504C169.853 15.504 170.373 15.416 170.773 15.24C171.189 15.048 171.613 14.744 172.045 14.328L173.941 16.176C173.269 16.864 172.573 17.368 171.853 17.688C171.149 17.992 170.261 18.144 169.189 18.144C168.389 18.144 167.661 18.048 167.005 17.856C166.365 17.648 165.765 17.312 165.205 16.848C164.645 16.384 164.205 15.72 163.885 14.856C163.565 13.992 163.405 12.952 163.405 11.736C163.405 9.736 163.901 8.176 164.893 7.056C165.885 5.92 167.205 5.352 168.853 5.352C170.565 5.352 171.901 5.912 172.861 7.032C173.821 8.136 174.301 9.592 174.301 11.4V12.72ZM171.229 10.584C171.213 10.04 171.117 9.592 170.941 9.24C170.557 8.376 169.861 7.944 168.853 7.944C167.845 7.944 167.149 8.376 166.765 9.24C166.589 9.592 166.493 10.04 166.477 10.584H171.229ZM193.22 11.736C193.22 13.032 193.14 14.096 192.98 14.928C192.82 15.76 192.468 16.456 191.924 17.016C191.204 17.768 190.196 18.144 188.9 18.144C187.604 18.144 186.564 17.704 185.78 16.824V18H182.756V0.912H185.876V6.6C186.596 5.768 187.604 5.352 188.9 5.352C190.196 5.352 191.204 5.728 191.924 6.48C192.468 7.04 192.82 7.736 192.98 8.568C193.14 9.4 193.22 10.456 193.22 11.736ZM190.028 13.176C190.076 12.792 190.1 12.312 190.1 11.736C190.1 11.16 190.076 10.688 190.028 10.32C189.98 9.936 189.884 9.568 189.74 9.216C189.612 8.864 189.396 8.6 189.092 8.424C188.804 8.248 188.436 8.16 187.988 8.16C187.54 8.16 187.164 8.248 186.86 8.424C186.572 8.6 186.356 8.864 186.212 9.216C186.084 9.568 185.996 9.936 185.948 10.32C185.9 10.688 185.876 11.16 185.876 11.736C185.876 12.312 185.9 12.792 185.948 13.176C185.996 13.544 186.084 13.912 186.212 14.28C186.356 14.632 186.572 14.896 186.86 15.072C187.164 15.248 187.54 15.336 187.988 15.336C188.436 15.336 188.804 15.248 189.092 15.072C189.396 14.896 189.612 14.632 189.74 14.28C189.884 13.912 189.98 13.544 190.028 13.176ZM206.194 5.496L200.842 20.016C200.57 20.736 200.258 21.272 199.906 21.624C199.266 22.264 198.37 22.584 197.218 22.584H195.994V19.776H196.714C197.162 19.776 197.49 19.696 197.698 19.536C197.922 19.392 198.114 19.096 198.274 18.648L198.802 17.112L194.53 5.496H197.818L200.41 13.224L202.906 5.496H206.194ZM223.031 14.064C223.031 15.392 222.535 16.408 221.543 17.112C220.551 17.8 219.279 18.144 217.727 18.144C216.575 18.144 215.583 18.024 214.751 17.784C213.919 17.544 213.135 17.064 212.399 16.344L214.439 14.304C215.207 15.088 216.319 15.48 217.775 15.48C218.383 15.48 218.903 15.376 219.335 15.168C219.767 14.944 219.983 14.616 219.983 14.184C219.983 13.496 219.543 13.112 218.663 13.032L216.647 12.84C214.247 12.6 213.047 11.432 213.047 9.336C213.047 8.088 213.511 7.112 214.439 6.408C215.383 5.704 216.527 5.352 217.871 5.352C219.999 5.352 221.591 5.84 222.647 6.816L220.727 8.76C220.103 8.2 219.135 7.92 217.823 7.92C217.231 7.92 216.783 8.04 216.479 8.28C216.191 8.504 216.047 8.784 216.047 9.12C216.047 9.744 216.479 10.104 217.343 10.2L219.311 10.392C221.791 10.632 223.031 11.856 223.031 14.064ZM235.895 18H232.847V16.848C232.031 17.712 230.991 18.144 229.727 18.144C228.495 18.144 227.511 17.776 226.775 17.04C225.927 16.192 225.503 15.008 225.503 13.488V5.496H228.623V13.056C228.623 13.84 228.823 14.416 229.223 14.784C229.639 15.152 230.127 15.336 230.687 15.336C231.263 15.336 231.751 15.152 232.151 14.784C232.567 14.416 232.775 13.84 232.775 13.056V5.496H235.895V18ZM248.548 6.528L246.196 8.904C245.7 8.408 245.148 8.16 244.54 8.16C244.012 8.16 243.54 8.36 243.124 8.76C242.724 9.16 242.524 9.728 242.524 10.464V18H239.404V5.496H242.452V6.696C242.772 6.312 243.212 5.992 243.772 5.736C244.348 5.48 244.956 5.352 245.596 5.352C246.78 5.352 247.764 5.744 248.548 6.528ZM260.79 11.736C260.79 13.032 260.71 14.096 260.55 14.928C260.39 15.76 260.038 16.456 259.494 17.016C258.774 17.768 257.766 18.144 256.47 18.144C255.174 18.144 254.166 17.728 253.446 16.896V22.584H250.326V5.496H253.35V6.672C254.134 5.792 255.174 5.352 256.47 5.352C257.766 5.352 258.774 5.728 259.494 6.48C260.038 7.04 260.39 7.736 260.55 8.568C260.71 9.4 260.79 10.456 260.79 11.736ZM257.598 13.176C257.646 12.792 257.67 12.312 257.67 11.736C257.67 11.16 257.646 10.688 257.598 10.32C257.55 9.936 257.454 9.568 257.31 9.216C257.182 8.864 256.966 8.6 256.662 8.424C256.374 8.248 256.006 8.16 255.558 8.16C255.11 8.16 254.734 8.248 254.43 8.424C254.142 8.6 253.926 8.864 253.782 9.216C253.654 9.568 253.566 9.936 253.518 10.32C253.47 10.688 253.446 11.16 253.446 11.736C253.446 12.312 253.47 12.792 253.518 13.176C253.566 13.544 253.654 13.912 253.782 14.28C253.926 14.632 254.142 14.896 254.43 15.072C254.734 15.248 255.11 15.336 255.558 15.336C256.006 15.336 256.374 15.248 256.662 15.072C256.966 14.896 257.182 14.632 257.31 14.28C257.454 13.912 257.55 13.544 257.598 13.176ZM272.9 6.528L270.548 8.904C270.052 8.408 269.5 8.16 268.892 8.16C268.364 8.16 267.892 8.36 267.476 8.76C267.076 9.16 266.876 9.728 266.876 10.464V18H263.756V5.496H266.804V6.696C267.124 6.312 267.564 5.992 268.124 5.736C268.7 5.48 269.308 5.352 269.948 5.352C271.132 5.352 272.116 5.744 272.9 6.528ZM277.798 18H274.678V5.856H277.798V18ZM277.822 3.36H274.63V0.816H277.822V3.36ZM290.695 14.064C290.695 15.392 290.199 16.408 289.207 17.112C288.215 17.8 286.943 18.144 285.391 18.144C284.239 18.144 283.247 18.024 282.415 17.784C281.583 17.544 280.799 17.064 280.063 16.344L282.103 14.304C282.871 15.088 283.983 15.48 285.439 15.48C286.047 15.48 286.567 15.376 286.999 15.168C287.431 14.944 287.647 14.616 287.647 14.184C287.647 13.496 287.207 13.112 286.327 13.032L284.311 12.84C281.911 12.6 280.711 11.432 280.711 9.336C280.711 8.088 281.175 7.112 282.103 6.408C283.047 5.704 284.191 5.352 285.535 5.352C287.663 5.352 289.255 5.84 290.311 6.816L288.391 8.76C287.767 8.2 286.799 7.92 285.487 7.92C284.895 7.92 284.447 8.04 284.143 8.28C283.855 8.504 283.711 8.784 283.711 9.12C283.711 9.744 284.143 10.104 285.007 10.2L286.975 10.392C289.455 10.632 290.695 11.856 290.695 14.064ZM303.583 12.72H295.759C295.759 13.552 295.999 14.224 296.479 14.736C296.959 15.248 297.631 15.504 298.495 15.504C299.135 15.504 299.655 15.416 300.055 15.24C300.471 15.048 300.895 14.744 301.327 14.328L303.223 16.176C302.551 16.864 301.855 17.368 301.135 17.688C300.431 17.992 299.543 18.144 298.471 18.144C297.671 18.144 296.943 18.048 296.287 17.856C295.647 17.648 295.047 17.312 294.487 16.848C293.927 16.384 293.487 15.72 293.167 14.856C292.847 13.992 292.687 12.952 292.687 11.736C292.687 9.736 293.183 8.176 294.175 7.056C295.167 5.92 296.487 5.352 298.135 5.352C299.847 5.352 301.183 5.912 302.143 7.032C303.103 8.136 303.583 9.592 303.583 11.4V12.72ZM300.511 10.584C300.495 10.04 300.399 9.592 300.223 9.24C299.839 8.376 299.143 7.944 298.135 7.944C297.127 7.944 296.431 8.376 296.047 9.24C295.871 9.592 295.775 10.04 295.759 10.584H300.511ZM322.429 18H319.309V10.44C319.309 9.656 319.101 9.08 318.685 8.712C318.285 8.344 317.805 8.16 317.245 8.16C316.669 8.16 316.173 8.344 315.757 8.712C315.357 9.08 315.157 9.656 315.157 10.44V18H312.037V0.912H315.157V6.648C315.941 5.784 316.957 5.352 318.205 5.352C319.437 5.352 320.421 5.72 321.157 6.456C322.005 7.304 322.429 8.488 322.429 10.008V18ZM335.851 11.736C335.851 12.936 335.747 13.912 335.539 14.664C335.347 15.4 334.979 16.048 334.435 16.608C333.443 17.632 332.147 18.144 330.547 18.144C328.963 18.144 327.675 17.632 326.683 16.608C326.139 16.032 325.763 15.376 325.555 14.64C325.363 13.888 325.267 12.92 325.267 11.736C325.267 10.552 325.363 9.592 325.555 8.856C325.763 8.12 326.139 7.464 326.683 6.888C327.675 5.864 328.963 5.352 330.547 5.352C332.179 5.352 333.475 5.864 334.435 6.888C334.979 7.464 335.347 8.12 335.539 8.856C335.747 9.592 335.851 10.552 335.851 11.736ZM332.731 11.736C332.731 10.184 332.491 9.176 332.011 8.712C331.643 8.344 331.155 8.16 330.547 8.16C329.955 8.16 329.475 8.344 329.107 8.712C328.627 9.176 328.387 10.184 328.387 11.736C328.387 13.304 328.627 14.32 329.107 14.784C329.475 15.152 329.955 15.336 330.547 15.336C331.155 15.336 331.643 15.152 332.011 14.784C332.491 14.32 332.731 13.304 332.731 11.736ZM349.218 18H346.098V10.44C346.098 9.656 345.89 9.08 345.474 8.712C345.074 8.344 344.594 8.16 344.034 8.16C343.458 8.16 342.962 8.344 342.546 8.712C342.146 9.08 341.946 9.656 341.946 10.44V18H338.826V5.496H341.874V6.648C342.69 5.784 343.73 5.352 344.994 5.352C346.226 5.352 347.21 5.72 347.946 6.456C348.794 7.304 349.218 8.488 349.218 10.008V18ZM362.856 12.72H355.032C355.032 13.552 355.272 14.224 355.752 14.736C356.232 15.248 356.904 15.504 357.768 15.504C358.408 15.504 358.928 15.416 359.328 15.24C359.744 15.048 360.168 14.744 360.6 14.328L362.496 16.176C361.824 16.864 361.128 17.368 360.408 17.688C359.704 17.992 358.816 18.144 357.744 18.144C356.944 18.144 356.216 18.048 355.56 17.856C354.92 17.648 354.32 17.312 353.76 16.848C353.2 16.384 352.76 15.72 352.44 14.856C352.12 13.992 351.96 12.952 351.96 11.736C351.96 9.736 352.456 8.176 353.448 7.056C354.44 5.92 355.76 5.352 357.408 5.352C359.12 5.352 360.456 5.912 361.416 7.032C362.376 8.136 362.856 9.592 362.856 11.4V12.72ZM359.784 10.584C359.768 10.04 359.672 9.592 359.496 9.24C359.112 8.376 358.416 7.944 357.408 7.944C356.4 7.944 355.704 8.376 355.32 9.24C355.144 9.592 355.048 10.04 355.032 10.584H359.784ZM375.14 14.064C375.14 15.392 374.644 16.408 373.652 17.112C372.66 17.8 371.388 18.144 369.836 18.144C368.684 18.144 367.692 18.024 366.86 17.784C366.028 17.544 365.244 17.064 364.508 16.344L366.548 14.304C367.316 15.088 368.428 15.48 369.884 15.48C370.492 15.48 371.012 15.376 371.444 15.168C371.876 14.944 372.092 14.616 372.092 14.184C372.092 13.496 371.652 13.112 370.772 13.032L368.756 12.84C366.356 12.6 365.156 11.432 365.156 9.336C365.156 8.088 365.62 7.112 366.548 6.408C367.492 5.704 368.636 5.352 369.98 5.352C372.108 5.352 373.7 5.84 374.756 6.816L372.836 8.76C372.212 8.2 371.244 7.92 369.932 7.92C369.34 7.92 368.892 8.04 368.588 8.28C368.3 8.504 368.156 8.784 368.156 9.12C368.156 9.744 368.588 10.104 369.452 10.2L371.42 10.392C373.9 10.632 375.14 11.856 375.14 14.064ZM383.138 18H381.434C380.25 18 379.346 17.648 378.722 16.944C378.114 16.24 377.81 15.4 377.81 14.424V8.232H376.49V5.856H377.81V2.16H380.93V5.856H383.138V8.232H380.93V14.232C380.93 14.984 381.29 15.36 382.01 15.36H383.138V18ZM391.263 18H389.487C388.287 18 387.375 17.648 386.751 16.944C386.143 16.24 385.839 15.4 385.839 14.424V0.912H388.959V14.232C388.959 14.984 389.327 15.36 390.063 15.36H391.263V18ZM403.045 5.496L397.693 20.016C397.421 20.736 397.109 21.272 396.757 21.624C396.117 22.264 395.221 22.584 394.069 22.584H392.845V19.776H393.565C394.013 19.776 394.341 19.696 394.549 19.536C394.773 19.392 394.965 19.096 395.125 18.648L395.653 17.112L391.381 5.496H394.669L397.261 13.224L399.757 5.496H403.045ZM416.091 18H414.387C413.203 18 412.299 17.648 411.675 16.944C411.067 16.24 410.763 15.4 410.763 14.424V8.232H409.443V5.856H410.763V2.16H413.883V5.856H416.091V8.232H413.883V14.232C413.883 14.984 414.243 15.36 414.963 15.36H416.091V18ZM428.851 11.736C428.851 12.936 428.747 13.912 428.539 14.664C428.347 15.4 427.979 16.048 427.435 16.608C426.443 17.632 425.147 18.144 423.547 18.144C421.963 18.144 420.675 17.632 419.683 16.608C419.139 16.032 418.763 15.376 418.555 14.64C418.363 13.888 418.267 12.92 418.267 11.736C418.267 10.552 418.363 9.592 418.555 8.856C418.763 8.12 419.139 7.464 419.683 6.888C420.675 5.864 421.963 5.352 423.547 5.352C425.179 5.352 426.475 5.864 427.435 6.888C427.979 7.464 428.347 8.12 428.539 8.856C428.747 9.592 428.851 10.552 428.851 11.736ZM425.731 11.736C425.731 10.184 425.491 9.176 425.011 8.712C424.643 8.344 424.155 8.16 423.547 8.16C422.955 8.16 422.475 8.344 422.107 8.712C421.627 9.176 421.387 10.184 421.387 11.736C421.387 13.304 421.627 14.32 422.107 14.784C422.475 15.152 422.955 15.336 423.547 15.336C424.155 15.336 424.643 15.152 425.011 14.784C425.491 14.32 425.731 13.304 425.731 11.736ZM447.796 18H444.676V10.44C444.676 9.656 444.468 9.08 444.052 8.712C443.652 8.344 443.172 8.16 442.612 8.16C442.036 8.16 441.54 8.344 441.124 8.712C440.724 9.08 440.524 9.656 440.524 10.44V18H437.404V0.912H440.524V6.648C441.308 5.784 442.324 5.352 443.572 5.352C444.804 5.352 445.788 5.72 446.524 6.456C447.372 7.304 447.796 8.488 447.796 10.008V18ZM460.618 18H457.57V16.92C457.138 17.352 456.69 17.664 456.226 17.856C455.778 18.032 455.202 18.12 454.498 18.12C453.106 18.12 452.042 17.752 451.306 17.016C450.618 16.296 450.274 15.36 450.274 14.208C450.274 13.152 450.642 12.288 451.378 11.616C452.114 10.928 453.186 10.584 454.594 10.584H457.498V9.96C457.498 9.272 457.314 8.776 456.946 8.472C456.578 8.152 455.986 7.992 455.17 7.992C454.194 7.992 453.394 8.352 452.77 9.072L450.802 7.128C451.41 6.456 452.042 5.992 452.698 5.736C453.37 5.48 454.234 5.352 455.29 5.352C458.842 5.352 460.618 6.824 460.618 9.768V18ZM457.498 13.392V12.72H455.122C453.89 12.72 453.274 13.2 453.274 14.16C453.274 15.104 453.906 15.576 455.17 15.576C455.986 15.576 456.602 15.376 457.018 14.976C457.338 14.704 457.498 14.176 457.498 13.392ZM473.966 5.496L469.382 18H466.934L462.326 5.496H465.614L468.158 13.224L470.678 5.496H473.966ZM485.856 12.72H478.032C478.032 13.552 478.272 14.224 478.752 14.736C479.232 15.248 479.904 15.504 480.768 15.504C481.408 15.504 481.928 15.416 482.328 15.24C482.744 15.048 483.168 14.744 483.6 14.328L485.496 16.176C484.824 16.864 484.128 17.368 483.408 17.688C482.704 17.992 481.816 18.144 480.744 18.144C479.944 18.144 479.216 18.048 478.56 17.856C477.92 17.648 477.32 17.312 476.76 16.848C476.2 16.384 475.76 15.72 475.44 14.856C475.12 13.992 474.96 12.952 474.96 11.736C474.96 9.736 475.456 8.176 476.448 7.056C477.44 5.92 478.76 5.352 480.408 5.352C482.12 5.352 483.456 5.912 484.416 7.032C485.376 8.136 485.856 9.592 485.856 11.4V12.72ZM482.784 10.584C482.768 10.04 482.672 9.592 482.496 9.24C482.112 8.376 481.416 7.944 480.408 7.944C479.4 7.944 478.704 8.376 478.32 9.24C478.144 9.592 478.048 10.04 478.032 10.584H482.784ZM503.719 14.064C503.719 15.392 503.223 16.408 502.231 17.112C501.239 17.8 499.967 18.144 498.415 18.144C497.263 18.144 496.271 18.024 495.439 17.784C494.607 17.544 493.823 17.064 493.087 16.344L495.127 14.304C495.895 15.088 497.007 15.48 498.463 15.48C499.071 15.48 499.591 15.376 500.023 15.168C500.455 14.944 500.671 14.616 500.671 14.184C500.671 13.496 500.231 13.112 499.351 13.032L497.335 12.84C494.935 12.6 493.735 11.432 493.735 9.336C493.735 8.088 494.199 7.112 495.127 6.408C496.071 5.704 497.215 5.352 498.559 5.352C500.687 5.352 502.279 5.84 503.335 6.816L501.415 8.76C500.791 8.2 499.823 7.92 498.511 7.92C497.919 7.92 497.471 8.04 497.167 8.28C496.879 8.504 496.735 8.784 496.735 9.12C496.735 9.744 497.167 10.104 498.031 10.2L499.999 10.392C502.479 10.632 503.719 11.856 503.719 14.064ZM516.582 18H513.534V16.848C512.718 17.712 511.678 18.144 510.414 18.144C509.182 18.144 508.198 17.776 507.462 17.04C506.614 16.192 506.19 15.008 506.19 13.488V5.496H509.31V13.056C509.31 13.84 509.51 14.416 509.91 14.784C510.326 15.152 510.814 15.336 511.374 15.336C511.95 15.336 512.438 15.152 512.838 14.784C513.254 14.416 513.462 13.84 513.462 13.056V5.496H516.582V18ZM529.188 16.44C528.1 17.576 526.724 18.144 525.06 18.144C524.532 18.144 524.02 18.088 523.524 17.976C523.028 17.848 522.524 17.64 522.012 17.352C521.516 17.048 521.084 16.664 520.716 16.2C520.348 15.72 520.044 15.104 519.804 14.352C519.58 13.584 519.468 12.712 519.468 11.736C519.468 10.76 519.58 9.896 519.804 9.144C520.044 8.376 520.348 7.76 520.716 7.296C521.084 6.832 521.516 6.448 522.012 6.144C522.524 5.84 523.028 5.632 523.524 5.52C524.02 5.408 524.532 5.352 525.06 5.352C526.74 5.352 528.116 5.912 529.188 7.032L527.076 9.144C526.468 8.488 525.796 8.16 525.06 8.16C524.324 8.16 523.732 8.432 523.284 8.976C522.82 9.552 522.588 10.472 522.588 11.736C522.588 13.016 522.82 13.944 523.284 14.52C523.732 15.064 524.324 15.336 525.06 15.336C525.796 15.336 526.468 15.008 527.076 14.352L529.188 16.44ZM542.015 18H538.895V10.44C538.895 9.656 538.687 9.08 538.271 8.712C537.871 8.344 537.391 8.16 536.831 8.16C536.255 8.16 535.759 8.344 535.343 8.712C534.943 9.08 534.743 9.656 534.743 10.44V18H531.623V0.912H534.743V6.648C535.527 5.784 536.543 5.352 537.791 5.352C539.023 5.352 540.007 5.72 540.743 6.456C541.591 7.304 542.015 8.488 542.015 10.008V18ZM556.767 8.232H554.463V18H551.343V8.232H550.047V5.856H551.343V4.296C551.343 3.32 551.655 2.48 552.279 1.776C552.903 1.072 553.807 0.719999 554.991 0.719999H556.767V3.36H555.543C554.823 3.36 554.463 3.736 554.463 4.488V5.856H556.767V8.232ZM569.41 18H566.362V16.848C565.546 17.712 564.506 18.144 563.242 18.144C562.01 18.144 561.026 17.776 560.29 17.04C559.442 16.192 559.018 15.008 559.018 13.488V5.496H562.138V13.056C562.138 13.84 562.338 14.416 562.738 14.784C563.154 15.152 563.642 15.336 564.202 15.336C564.778 15.336 565.266 15.152 565.666 14.784C566.082 14.416 566.29 13.84 566.29 13.056V5.496H569.41V18ZM578.224 18H576.448C575.248 18 574.336 17.648 573.712 16.944C573.104 16.24 572.8 15.4 572.8 14.424V0.912H575.92V14.232C575.92 14.984 576.288 15.36 577.024 15.36H578.224V18ZM586.029 18H584.253C583.053 18 582.141 17.648 581.517 16.944C580.909 16.24 580.605 15.4 580.605 14.424V0.912H583.725V14.232C583.725 14.984 584.093 15.36 584.829 15.36H586.029V18ZM604.571 11.736C604.571 13.032 604.491 14.096 604.331 14.928C604.171 15.76 603.819 16.456 603.275 17.016C602.555 17.768 601.547 18.144 600.251 18.144C598.955 18.144 597.915 17.704 597.131 16.824V18H594.107V0.912H597.227V6.6C597.947 5.768 598.955 5.352 600.251 5.352C601.547 5.352 602.555 5.728 603.275 6.48C603.819 7.04 604.171 7.736 604.331 8.568C604.491 9.4 604.571 10.456 604.571 11.736ZM601.379 13.176C601.427 12.792 601.451 12.312 601.451 11.736C601.451 11.16 601.427 10.688 601.379 10.32C601.331 9.936 601.235 9.568 601.091 9.216C600.963 8.864 600.747 8.6 600.443 8.424C600.155 8.248 599.787 8.16 599.339 8.16C598.891 8.16 598.515 8.248 598.211 8.424C597.923 8.6 597.707 8.864 597.563 9.216C597.435 9.568 597.347 9.936 597.299 10.32C597.251 10.688 597.227 11.16 597.227 11.736C597.227 12.312 597.251 12.792 597.299 13.176C597.347 13.544 597.435 13.912 597.563 14.28C597.707 14.632 597.923 14.896 598.211 15.072C598.515 15.248 598.891 15.336 599.339 15.336C599.787 15.336 600.155 15.248 600.443 15.072C600.747 14.896 600.963 14.632 601.091 14.28C601.235 13.912 601.331 13.544 601.379 13.176ZM617.809 12.72H609.985C609.985 13.552 610.225 14.224 610.705 14.736C611.185 15.248 611.857 15.504 612.721 15.504C613.361 15.504 613.881 15.416 614.281 15.24C614.697 15.048 615.121 14.744 615.553 14.328L617.449 16.176C616.777 16.864 616.081 17.368 615.361 17.688C614.657 17.992 613.769 18.144 612.697 18.144C611.897 18.144 611.169 18.048 610.513 17.856C609.873 17.648 609.273 17.312 608.713 16.848C608.153 16.384 607.713 15.72 607.393 14.856C607.073 13.992 606.913 12.952 606.913 11.736C606.913 9.736 607.409 8.176 608.401 7.056C609.393 5.92 610.713 5.352 612.361 5.352C614.073 5.352 615.409 5.912 616.369 7.032C617.329 8.136 617.809 9.592 617.809 11.4V12.72ZM614.737 10.584C614.721 10.04 614.625 9.592 614.449 9.24C614.065 8.376 613.369 7.944 612.361 7.944C611.353 7.944 610.657 8.376 610.273 9.24C610.097 9.592 610.001 10.04 609.985 10.584H614.737ZM630.142 18H627.094V16.92C626.662 17.352 626.214 17.664 625.75 17.856C625.302 18.032 624.726 18.12 624.022 18.12C622.63 18.12 621.566 17.752 620.83 17.016C620.142 16.296 619.798 15.36 619.798 14.208C619.798 13.152 620.166 12.288 620.902 11.616C621.638 10.928 622.71 10.584 624.118 10.584H627.022V9.96C627.022 9.272 626.838 8.776 626.47 8.472C626.102 8.152 625.51 7.992 624.694 7.992C623.718 7.992 622.918 8.352 622.294 9.072L620.326 7.128C620.934 6.456 621.566 5.992 622.222 5.736C622.894 5.48 623.758 5.352 624.814 5.352C628.366 5.352 630.142 6.824 630.142 9.768V18ZM627.022 13.392V12.72H624.646C623.414 12.72 622.798 13.2 622.798 14.16C622.798 15.104 623.43 15.576 624.694 15.576C625.51 15.576 626.126 15.376 626.542 14.976C626.862 14.704 627.022 14.176 627.022 13.392ZM643.754 18H640.706V16.848C639.89 17.712 638.85 18.144 637.586 18.144C636.354 18.144 635.37 17.776 634.634 17.04C633.786 16.192 633.362 15.008 633.362 13.488V5.496H636.482V13.056C636.482 13.84 636.682 14.416 637.082 14.784C637.498 15.152 637.986 15.336 638.546 15.336C639.122 15.336 639.61 15.152 640.01 14.784C640.426 14.416 640.634 13.84 640.634 13.056V5.496H643.754V18ZM652.88 18H651.176C649.992 18 649.088 17.648 648.464 16.944C647.856 16.24 647.552 15.4 647.552 14.424V8.232H646.232V5.856H647.552V2.16H650.672V5.856H652.88V8.232H650.672V14.232C650.672 14.984 651.032 15.36 651.752 15.36H652.88V18ZM658.821 18H655.701V5.856H658.821V18ZM658.845 3.36H655.653V0.816H658.845V3.36ZM668.119 8.232H665.815V18H662.695V8.232H661.399V5.856H662.695V4.296C662.695 3.32 663.007 2.48 663.631 1.776C664.255 1.072 665.159 0.719999 666.343 0.719999H668.119V3.36H666.895C666.175 3.36 665.815 3.736 665.815 4.488V5.856H668.119V8.232ZM680.762 18H677.714V16.848C676.898 17.712 675.858 18.144 674.594 18.144C673.362 18.144 672.378 17.776 671.642 17.04C670.794 16.192 670.37 15.008 670.37 13.488V5.496H673.49V13.056C673.49 13.84 673.69 14.416 674.09 14.784C674.506 15.152 674.994 15.336 675.554 15.336C676.13 15.336 676.618 15.152 677.018 14.784C677.434 14.416 677.642 13.84 677.642 13.056V5.496H680.762V18ZM689.576 18H687.8C686.6 18 685.688 17.648 685.064 16.944C684.456 16.24 684.152 15.4 684.152 14.424V0.912H687.272V14.232C687.272 14.984 687.64 15.36 688.376 15.36H689.576V18ZM707.062 14.064C707.062 15.392 706.566 16.408 705.574 17.112C704.582 17.8 703.31 18.144 701.758 18.144C700.606 18.144 699.614 18.024 698.782 17.784C697.95 17.544 697.166 17.064 696.43 16.344L698.47 14.304C699.238 15.088 700.35 15.48 701.806 15.48C702.414 15.48 702.934 15.376 703.366 15.168C703.798 14.944 704.014 14.616 704.014 14.184C704.014 13.496 703.574 13.112 702.694 13.032L700.678 12.84C698.278 12.6 697.078 11.432 697.078 9.336C697.078 8.088 697.542 7.112 698.47 6.408C699.414 5.704 700.558 5.352 701.902 5.352C704.03 5.352 705.622 5.84 706.678 6.816L704.758 8.76C704.134 8.2 703.166 7.92 701.854 7.92C701.262 7.92 700.814 8.04 700.51 8.28C700.222 8.504 700.078 8.784 700.078 9.12C700.078 9.744 700.51 10.104 701.374 10.2L703.342 10.392C705.822 10.632 707.062 11.856 707.062 14.064ZM719.734 11.736C719.734 12.936 719.63 13.912 719.422 14.664C719.23 15.4 718.862 16.048 718.318 16.608C717.326 17.632 716.03 18.144 714.43 18.144C712.846 18.144 711.558 17.632 710.566 16.608C710.022 16.032 709.646 15.376 709.438 14.64C709.246 13.888 709.15 12.92 709.15 11.736C709.15 10.552 709.246 9.592 709.438 8.856C709.646 8.12 710.022 7.464 710.566 6.888C711.558 5.864 712.846 5.352 714.43 5.352C716.062 5.352 717.358 5.864 718.318 6.888C718.862 7.464 719.23 8.12 719.422 8.856C719.63 9.592 719.734 10.552 719.734 11.736ZM716.614 11.736C716.614 10.184 716.374 9.176 715.894 8.712C715.526 8.344 715.038 8.16 714.43 8.16C713.838 8.16 713.358 8.344 712.99 8.712C712.51 9.176 712.27 10.184 712.27 11.736C712.27 13.304 712.51 14.32 712.99 14.784C713.358 15.152 713.838 15.336 714.43 15.336C715.038 15.336 715.526 15.152 715.894 14.784C716.374 14.32 716.614 13.304 716.614 11.736ZM732.957 18H729.909V16.848C729.093 17.712 728.053 18.144 726.789 18.144C725.557 18.144 724.573 17.776 723.837 17.04C722.989 16.192 722.565 15.008 722.565 13.488V5.496H725.685V13.056C725.685 13.84 725.885 14.416 726.285 14.784C726.701 15.152 727.189 15.336 727.749 15.336C728.325 15.336 728.813 15.152 729.213 14.784C729.629 14.416 729.837 13.84 729.837 13.056V5.496H732.957V18ZM746.859 18H743.739V10.44C743.739 9.656 743.531 9.08 743.115 8.712C742.715 8.344 742.235 8.16 741.675 8.16C741.099 8.16 740.603 8.344 740.187 8.712C739.787 9.08 739.587 9.656 739.587 10.44V18H736.467V5.496H739.515V6.648C740.331 5.784 741.371 5.352 742.635 5.352C743.867 5.352 744.851 5.72 745.587 6.456C746.435 7.304 746.859 8.488 746.859 10.008V18ZM760.185 18H757.137V16.824C756.353 17.704 755.321 18.144 754.041 18.144C752.729 18.144 751.713 17.768 750.993 17.016C750.449 16.456 750.097 15.76 749.937 14.928C749.777 14.096 749.697 13.032 749.697 11.736C749.697 10.456 749.777 9.4 749.937 8.568C750.097 7.736 750.449 7.04 750.993 6.48C751.713 5.728 752.721 5.352 754.017 5.352C755.297 5.352 756.313 5.768 757.065 6.6V0.912H760.185V18ZM757.065 11.736C757.065 10.568 756.921 9.68 756.633 9.072C756.361 8.464 755.793 8.16 754.929 8.16C754.481 8.16 754.105 8.248 753.801 8.424C753.513 8.6 753.297 8.864 753.153 9.216C753.025 9.568 752.937 9.936 752.889 10.32C752.841 10.688 752.817 11.16 752.817 11.736C752.817 12.312 752.841 12.792 752.889 13.176C752.937 13.544 753.025 13.912 753.153 14.28C753.297 14.632 753.513 14.896 753.801 15.072C754.105 15.248 754.481 15.336 754.929 15.336C755.377 15.336 755.745 15.248 756.033 15.072C756.337 14.896 756.561 14.632 756.705 14.28C756.849 13.928 756.945 13.56 756.993 13.176C757.041 12.776 757.065 12.296 757.065 11.736ZM38.0203 54H36.3163C35.1323 54 34.2283 53.648 33.6043 52.944C32.9963 52.24 32.6923 51.4 32.6923 50.424V44.232H31.3723V41.856H32.6923V38.16H35.8123V41.856H38.0203V44.232H35.8123V50.232C35.8123 50.984 36.1723 51.36 36.8923 51.36H38.0203V54ZM51.2338 54H48.1138V46.44C48.1138 45.656 47.9058 45.08 47.4898 44.712C47.0898 44.344 46.6098 44.16 46.0498 44.16C45.4738 44.16 44.9778 44.344 44.5618 44.712C44.1618 45.08 43.9618 45.656 43.9618 46.44V54H40.8418V36.912H43.9618V42.648C44.7458 41.784 45.7618 41.352 47.0098 41.352C48.2418 41.352 49.2258 41.72 49.9618 42.456C50.8098 43.304 51.2338 44.488 51.2338 46.008V54ZM64.0557 54H61.0077V52.92C60.5757 53.352 60.1277 53.664 59.6637 53.856C59.2157 54.032 58.6397 54.12 57.9357 54.12C56.5437 54.12 55.4797 53.752 54.7437 53.016C54.0557 52.296 53.7117 51.36 53.7117 50.208C53.7117 49.152 54.0797 48.288 54.8157 47.616C55.5517 46.928 56.6237 46.584 58.0317 46.584H60.9357V45.96C60.9357 45.272 60.7517 44.776 60.3837 44.472C60.0157 44.152 59.4237 43.992 58.6077 43.992C57.6317 43.992 56.8317 44.352 56.2077 45.072L54.2397 43.128C54.8477 42.456 55.4797 41.992 56.1357 41.736C56.8077 41.48 57.6717 41.352 58.7277 41.352C62.2797 41.352 64.0557 42.824 64.0557 45.768V54ZM60.9357 49.392V48.72H58.5597C57.3277 48.72 56.7117 49.2 56.7117 50.16C56.7117 51.104 57.3437 51.576 58.6077 51.576C59.4237 51.576 60.0397 51.376 60.4557 50.976C60.7757 50.704 60.9357 50.176 60.9357 49.392ZM73.036 54H71.332C70.148 54 69.244 53.648 68.62 52.944C68.012 52.24 67.708 51.4 67.708 50.424V44.232H66.388V41.856H67.708V38.16H70.828V41.856H73.036V44.232H70.828V50.232C70.828 50.984 71.188 51.36 71.908 51.36H73.036V54ZM90.5316 52.44C89.4436 53.576 88.0676 54.144 86.4036 54.144C85.8756 54.144 85.3636 54.088 84.8676 53.976C84.3716 53.848 83.8676 53.64 83.3556 53.352C82.8596 53.048 82.4276 52.664 82.0596 52.2C81.6916 51.72 81.3876 51.104 81.1476 50.352C80.9236 49.584 80.8116 48.712 80.8116 47.736C80.8116 46.76 80.9236 45.896 81.1476 45.144C81.3876 44.376 81.6916 43.76 82.0596 43.296C82.4276 42.832 82.8596 42.448 83.3556 42.144C83.8676 41.84 84.3716 41.632 84.8676 41.52C85.3636 41.408 85.8756 41.352 86.4036 41.352C88.0836 41.352 89.4596 41.912 90.5316 43.032L88.4196 45.144C87.8116 44.488 87.1396 44.16 86.4036 44.16C85.6676 44.16 85.0756 44.432 84.6276 44.976C84.1636 45.552 83.9316 46.472 83.9316 47.736C83.9316 49.016 84.1636 49.944 84.6276 50.52C85.0756 51.064 85.6676 51.336 86.4036 51.336C87.1396 51.336 87.8116 51.008 88.4196 50.352L90.5316 52.44ZM102.671 47.736C102.671 48.936 102.567 49.912 102.359 50.664C102.167 51.4 101.799 52.048 101.255 52.608C100.263 53.632 98.9673 54.144 97.3673 54.144C95.7833 54.144 94.4953 53.632 93.5033 52.608C92.9593 52.032 92.5833 51.376 92.3753 50.64C92.1833 49.888 92.0873 48.92 92.0873 47.736C92.0873 46.552 92.1833 45.592 92.3753 44.856C92.5833 44.12 92.9593 43.464 93.5033 42.888C94.4953 41.864 95.7833 41.352 97.3673 41.352C98.9993 41.352 100.295 41.864 101.255 42.888C101.799 43.464 102.167 44.12 102.359 44.856C102.567 45.592 102.671 46.552 102.671 47.736ZM99.5513 47.736C99.5513 46.184 99.3113 45.176 98.8313 44.712C98.4633 44.344 97.9753 44.16 97.3673 44.16C96.7753 44.16 96.2953 44.344 95.9273 44.712C95.4473 45.176 95.2073 46.184 95.2073 47.736C95.2073 49.304 95.4473 50.32 95.9273 50.784C96.2953 51.152 96.7753 51.336 97.3673 51.336C97.9753 51.336 98.4633 51.152 98.8313 50.784C99.3113 50.32 99.5513 49.304 99.5513 47.736ZM123.311 54H120.191V46.44C120.191 45.656 119.983 45.08 119.567 44.712C119.167 44.344 118.687 44.16 118.127 44.16C117.567 44.16 117.079 44.344 116.663 44.712C116.247 45.064 116.039 45.616 116.039 46.368V54H112.919V46.44C112.919 45.656 112.711 45.08 112.295 44.712C111.895 44.344 111.415 44.16 110.855 44.16C110.279 44.16 109.783 44.344 109.367 44.712C108.967 45.08 108.767 45.656 108.767 46.44V54H105.647V41.496H108.695V42.648C109.527 41.784 110.567 41.352 111.815 41.352C113.255 41.352 114.359 41.88 115.127 42.936C116.135 41.88 117.383 41.352 118.871 41.352C120.183 41.352 121.207 41.72 121.943 42.456C122.855 43.368 123.311 44.552 123.311 46.008V54ZM129.79 54H126.67V41.856H129.79V54ZM129.814 39.36H126.622V36.816H129.814V39.36ZM143.671 54H140.551V46.44C140.551 45.656 140.343 45.08 139.927 44.712C139.527 44.344 139.047 44.16 138.487 44.16C137.911 44.16 137.415 44.344 136.999 44.712C136.599 45.08 136.399 45.656 136.399 46.44V54H133.279V41.496H136.327V42.648C137.143 41.784 138.183 41.352 139.447 41.352C140.679 41.352 141.663 41.72 142.399 42.456C143.247 43.304 143.671 44.488 143.671 46.008V54ZM156.853 53.544C156.853 55.064 156.349 56.304 155.341 57.264C154.349 58.24 153.021 58.728 151.357 58.728C150.365 58.728 149.517 58.608 148.813 58.368C148.109 58.128 147.445 57.704 146.821 57.096L148.765 55.128C149.421 55.768 150.237 56.088 151.213 56.088C152.077 56.088 152.709 55.832 153.109 55.32C153.525 54.824 153.733 54.216 153.733 53.496V52.224C152.981 53.056 151.989 53.472 150.757 53.472C149.509 53.472 148.517 53.104 147.781 52.368C147.237 51.824 146.885 51.184 146.725 50.448C146.581 49.696 146.509 48.68 146.509 47.4C146.509 46.12 146.581 45.112 146.725 44.376C146.885 43.64 147.237 43 147.781 42.456C148.517 41.72 149.517 41.352 150.781 41.352C152.013 41.352 153.029 41.792 153.829 42.672V41.496H156.853V53.544ZM153.733 47.4C153.733 46.392 153.597 45.6 153.325 45.024C153.053 44.448 152.501 44.16 151.669 44.16C151.221 44.16 150.853 44.248 150.565 44.424C150.293 44.584 150.085 44.832 149.941 45.168C149.813 45.504 149.725 45.84 149.677 46.176C149.645 46.512 149.629 46.92 149.629 47.4C149.629 47.88 149.645 48.288 149.677 48.624C149.725 48.96 149.813 49.296 149.941 49.632C150.069 49.968 150.277 50.224 150.565 50.4C150.853 50.576 151.221 50.664 151.669 50.664C152.117 50.664 152.485 50.576 152.773 50.4C153.061 50.224 153.269 49.968 153.397 49.632C153.525 49.296 153.613 48.96 153.661 48.624C153.709 48.288 153.733 47.88 153.733 47.4ZM175.984 47.736C175.984 48.936 175.88 49.912 175.672 50.664C175.48 51.4 175.112 52.048 174.568 52.608C173.576 53.632 172.28 54.144 170.68 54.144C169.096 54.144 167.808 53.632 166.816 52.608C166.272 52.032 165.896 51.376 165.688 50.64C165.496 49.888 165.4 48.92 165.4 47.736C165.4 46.552 165.496 45.592 165.688 44.856C165.896 44.12 166.272 43.464 166.816 42.888C167.808 41.864 169.096 41.352 170.68 41.352C172.312 41.352 173.608 41.864 174.568 42.888C175.112 43.464 175.48 44.12 175.672 44.856C175.88 45.592 175.984 46.552 175.984 47.736ZM172.864 47.736C172.864 46.184 172.624 45.176 172.144 44.712C171.776 44.344 171.288 44.16 170.68 44.16C170.088 44.16 169.608 44.344 169.24 44.712C168.76 45.176 168.52 46.184 168.52 47.736C168.52 49.304 168.76 50.32 169.24 50.784C169.608 51.152 170.088 51.336 170.68 51.336C171.288 51.336 171.776 51.152 172.144 50.784C172.624 50.32 172.864 49.304 172.864 47.736ZM189.207 54H186.159V52.848C185.343 53.712 184.303 54.144 183.039 54.144C181.807 54.144 180.823 53.776 180.087 53.04C179.239 52.192 178.815 51.008 178.815 49.488V41.496H181.935V49.056C181.935 49.84 182.135 50.416 182.535 50.784C182.951 51.152 183.439 51.336 183.999 51.336C184.575 51.336 185.063 51.152 185.463 50.784C185.879 50.416 186.087 49.84 186.087 49.056V41.496H189.207V54ZM198.333 54H196.629C195.445 54 194.541 53.648 193.917 52.944C193.309 52.24 193.005 51.4 193.005 50.424V44.232H191.685V41.856H193.005V38.16H196.125V41.856H198.333V44.232H196.125V50.232C196.125 50.984 196.485 51.36 197.205 51.36H198.333V54ZM216.788 47.736C216.788 48.936 216.684 49.912 216.476 50.664C216.284 51.4 215.916 52.048 215.372 52.608C214.38 53.632 213.084 54.144 211.484 54.144C209.9 54.144 208.612 53.632 207.62 52.608C207.076 52.032 206.7 51.376 206.492 50.64C206.3 49.888 206.204 48.92 206.204 47.736C206.204 46.552 206.3 45.592 206.492 44.856C206.7 44.12 207.076 43.464 207.62 42.888C208.612 41.864 209.9 41.352 211.484 41.352C213.116 41.352 214.412 41.864 215.372 42.888C215.916 43.464 216.284 44.12 216.476 44.856C216.684 45.592 216.788 46.552 216.788 47.736ZM213.668 47.736C213.668 46.184 213.428 45.176 212.948 44.712C212.58 44.344 212.092 44.16 211.484 44.16C210.892 44.16 210.412 44.344 210.044 44.712C209.564 45.176 209.324 46.184 209.324 47.736C209.324 49.304 209.564 50.32 210.044 50.784C210.412 51.152 210.892 51.336 211.484 51.336C212.092 51.336 212.58 51.152 212.948 50.784C213.428 50.32 213.668 49.304 213.668 47.736ZM225.572 44.232H223.268V54H220.148V44.232H218.852V41.856H220.148V40.296C220.148 39.32 220.46 38.48 221.084 37.776C221.708 37.072 222.612 36.72 223.796 36.72H225.572V39.36H224.348C223.628 39.36 223.268 39.736 223.268 40.488V41.856H225.572V44.232ZM239.161 54H237.457C236.273 54 235.369 53.648 234.745 52.944C234.137 52.24 233.833 51.4 233.833 50.424V44.232H232.513V41.856H233.833V38.16H236.953V41.856H239.161V44.232H236.953V50.232C236.953 50.984 237.313 51.36 238.033 51.36H239.161V54ZM252.374 54H249.254V46.44C249.254 45.656 249.046 45.08 248.63 44.712C248.23 44.344 247.75 44.16 247.19 44.16C246.614 44.16 246.118 44.344 245.702 44.712C245.302 45.08 245.102 45.656 245.102 46.44V54H241.982V36.912H245.102V42.648C245.886 41.784 246.902 41.352 248.15 41.352C249.382 41.352 250.366 41.72 251.102 42.456C251.95 43.304 252.374 44.488 252.374 46.008V54ZM258.86 54H255.74V41.856H258.86V54ZM258.884 39.36H255.692V36.816H258.884V39.36ZM271.758 50.064C271.758 51.392 271.262 52.408 270.27 53.112C269.278 53.8 268.006 54.144 266.454 54.144C265.302 54.144 264.31 54.024 263.478 53.784C262.646 53.544 261.862 53.064 261.126 52.344L263.166 50.304C263.934 51.088 265.046 51.48 266.502 51.48C267.11 51.48 267.63 51.376 268.062 51.168C268.494 50.944 268.71 50.616 268.71 50.184C268.71 49.496 268.27 49.112 267.39 49.032L265.374 48.84C262.974 48.6 261.774 47.432 261.774 45.336C261.774 44.088 262.238 43.112 263.166 42.408C264.11 41.704 265.254 41.352 266.598 41.352C268.726 41.352 270.318 41.84 271.374 42.816L269.454 44.76C268.83 44.2 267.862 43.92 266.55 43.92C265.958 43.92 265.51 44.04 265.206 44.28C264.918 44.504 264.774 44.784 264.774 45.12C264.774 45.744 265.206 46.104 266.07 46.2L268.038 46.392C270.518 46.632 271.758 47.856 271.758 50.064ZM289.359 50.064C289.359 51.392 288.863 52.408 287.871 53.112C286.879 53.8 285.607 54.144 284.055 54.144C282.903 54.144 281.911 54.024 281.079 53.784C280.247 53.544 279.463 53.064 278.727 52.344L280.767 50.304C281.535 51.088 282.647 51.48 284.103 51.48C284.711 51.48 285.231 51.376 285.663 51.168C286.095 50.944 286.311 50.616 286.311 50.184C286.311 49.496 285.871 49.112 284.991 49.032L282.975 48.84C280.575 48.6 279.375 47.432 279.375 45.336C279.375 44.088 279.839 43.112 280.767 42.408C281.711 41.704 282.855 41.352 284.199 41.352C286.327 41.352 287.919 41.84 288.975 42.816L287.055 44.76C286.431 44.2 285.463 43.92 284.151 43.92C283.559 43.92 283.111 44.04 282.807 44.28C282.519 44.504 282.375 44.784 282.375 45.12C282.375 45.744 282.807 46.104 283.671 46.2L285.639 46.392C288.119 46.632 289.359 47.856 289.359 50.064ZM309.639 54H306.519V46.44C306.519 45.656 306.311 45.08 305.895 44.712C305.495 44.344 305.015 44.16 304.455 44.16C303.895 44.16 303.407 44.344 302.991 44.712C302.575 45.064 302.367 45.616 302.367 46.368V54H299.247V46.44C299.247 45.656 299.039 45.08 298.623 44.712C298.223 44.344 297.743 44.16 297.183 44.16C296.607 44.16 296.111 44.344 295.695 44.712C295.295 45.08 295.095 45.656 295.095 46.44V54H291.975V41.496H295.023V42.648C295.855 41.784 296.895 41.352 298.143 41.352C299.583 41.352 300.687 41.88 301.455 42.936C302.463 41.88 303.711 41.352 305.199 41.352C306.511 41.352 307.535 41.72 308.271 42.456C309.183 43.368 309.639 44.552 309.639 46.008V54ZM322.454 54H319.406V52.92C318.974 53.352 318.526 53.664 318.062 53.856C317.614 54.032 317.038 54.12 316.334 54.12C314.942 54.12 313.878 53.752 313.142 53.016C312.454 52.296 312.11 51.36 312.11 50.208C312.11 49.152 312.478 48.288 313.214 47.616C313.95 46.928 315.022 46.584 316.43 46.584H319.334V45.96C319.334 45.272 319.15 44.776 318.782 44.472C318.414 44.152 317.822 43.992 317.006 43.992C316.03 43.992 315.23 44.352 314.606 45.072L312.638 43.128C313.246 42.456 313.878 41.992 314.534 41.736C315.206 41.48 316.07 41.352 317.126 41.352C320.678 41.352 322.454 42.824 322.454 45.768V54ZM319.334 49.392V48.72H316.958C315.726 48.72 315.11 49.2 315.11 50.16C315.11 51.104 315.742 51.576 317.006 51.576C317.822 51.576 318.438 51.376 318.854 50.976C319.174 50.704 319.334 50.176 319.334 49.392ZM331.122 54H329.346C328.146 54 327.234 53.648 326.61 52.944C326.002 52.24 325.698 51.4 325.698 50.424V36.912H328.818V50.232C328.818 50.984 329.186 51.36 329.922 51.36H331.122V54ZM338.927 54H337.151C335.951 54 335.039 53.648 334.415 52.944C333.807 52.24 333.503 51.4 333.503 50.424V36.912H336.623V50.232C336.623 50.984 336.991 51.36 337.727 51.36H338.927V54ZM356.102 52.44C355.014 53.576 353.638 54.144 351.974 54.144C351.446 54.144 350.934 54.088 350.438 53.976C349.942 53.848 349.438 53.64 348.926 53.352C348.43 53.048 347.998 52.664 347.63 52.2C347.262 51.72 346.958 51.104 346.718 50.352C346.494 49.584 346.382 48.712 346.382 47.736C346.382 46.76 346.494 45.896 346.718 45.144C346.958 44.376 347.262 43.76 347.63 43.296C347.998 42.832 348.43 42.448 348.926 42.144C349.438 41.84 349.942 41.632 350.438 41.52C350.934 41.408 351.446 41.352 351.974 41.352C353.654 41.352 355.03 41.912 356.102 43.032L353.99 45.144C353.382 44.488 352.71 44.16 351.974 44.16C351.238 44.16 350.646 44.432 350.198 44.976C349.734 45.552 349.502 46.472 349.502 47.736C349.502 49.016 349.734 49.944 350.198 50.52C350.646 51.064 351.238 51.336 351.974 51.336C352.71 51.336 353.382 51.008 353.99 50.352L356.102 52.44ZM368.242 47.736C368.242 48.936 368.138 49.912 367.93 50.664C367.738 51.4 367.37 52.048 366.826 52.608C365.834 53.632 364.538 54.144 362.938 54.144C361.354 54.144 360.066 53.632 359.074 52.608C358.53 52.032 358.154 51.376 357.946 50.64C357.754 49.888 357.658 48.92 357.658 47.736C357.658 46.552 357.754 45.592 357.946 44.856C358.154 44.12 358.53 43.464 359.074 42.888C360.066 41.864 361.354 41.352 362.938 41.352C364.57 41.352 365.866 41.864 366.826 42.888C367.37 43.464 367.738 44.12 367.93 44.856C368.138 45.592 368.242 46.552 368.242 47.736ZM365.122 47.736C365.122 46.184 364.882 45.176 364.402 44.712C364.034 44.344 363.546 44.16 362.938 44.16C362.346 44.16 361.866 44.344 361.498 44.712C361.018 45.176 360.778 46.184 360.778 47.736C360.778 49.304 361.018 50.32 361.498 50.784C361.866 51.152 362.346 51.336 362.938 51.336C363.546 51.336 364.034 51.152 364.402 50.784C364.882 50.32 365.122 49.304 365.122 47.736ZM388.881 54H385.761V46.44C385.761 45.656 385.553 45.08 385.137 44.712C384.737 44.344 384.257 44.16 383.697 44.16C383.137 44.16 382.649 44.344 382.233 44.712C381.817 45.064 381.609 45.616 381.609 46.368V54H378.489V46.44C378.489 45.656 378.281 45.08 377.865 44.712C377.465 44.344 376.985 44.16 376.425 44.16C375.849 44.16 375.353 44.344 374.937 44.712C374.537 45.08 374.337 45.656 374.337 46.44V54H371.217V41.496H374.265V42.648C375.097 41.784 376.137 41.352 377.385 41.352C378.825 41.352 379.929 41.88 380.697 42.936C381.705 41.88 382.953 41.352 384.441 41.352C385.753 41.352 386.777 41.72 387.513 42.456C388.425 43.368 388.881 44.552 388.881 46.008V54ZM402.704 47.736C402.704 49.032 402.624 50.096 402.464 50.928C402.304 51.76 401.952 52.456 401.408 53.016C400.688 53.768 399.68 54.144 398.384 54.144C397.088 54.144 396.08 53.728 395.36 52.896V58.584H392.24V41.496H395.264V42.672C396.048 41.792 397.088 41.352 398.384 41.352C399.68 41.352 400.688 41.728 401.408 42.48C401.952 43.04 402.304 43.736 402.464 44.568C402.624 45.4 402.704 46.456 402.704 47.736ZM399.512 49.176C399.56 48.792 399.584 48.312 399.584 47.736C399.584 47.16 399.56 46.688 399.512 46.32C399.464 45.936 399.368 45.568 399.224 45.216C399.096 44.864 398.88 44.6 398.576 44.424C398.288 44.248 397.92 44.16 397.472 44.16C397.024 44.16 396.648 44.248 396.344 44.424C396.056 44.6 395.84 44.864 395.696 45.216C395.568 45.568 395.48 45.936 395.432 46.32C395.384 46.688 395.36 47.16 395.36 47.736C395.36 48.312 395.384 48.792 395.432 49.176C395.48 49.544 395.568 49.912 395.696 50.28C395.84 50.632 396.056 50.896 396.344 51.072C396.648 51.248 397.024 51.336 397.472 51.336C397.92 51.336 398.288 51.248 398.576 51.072C398.88 50.896 399.096 50.632 399.224 50.28C399.368 49.912 399.464 49.544 399.512 49.176ZM415.126 54H412.078V52.92C411.646 53.352 411.198 53.664 410.734 53.856C410.286 54.032 409.71 54.12 409.006 54.12C407.614 54.12 406.55 53.752 405.814 53.016C405.126 52.296 404.782 51.36 404.782 50.208C404.782 49.152 405.15 48.288 405.886 47.616C406.622 46.928 407.694 46.584 409.102 46.584H412.006V45.96C412.006 45.272 411.822 44.776 411.454 44.472C411.086 44.152 410.494 43.992 409.678 43.992C408.702 43.992 407.902 44.352 407.278 45.072L405.31 43.128C405.918 42.456 406.55 41.992 407.206 41.736C407.878 41.48 408.742 41.352 409.798 41.352C413.35 41.352 415.126 42.824 415.126 45.768V54ZM412.006 49.392V48.72H409.63C408.398 48.72 407.782 49.2 407.782 50.16C407.782 51.104 408.414 51.576 409.678 51.576C410.494 51.576 411.11 51.376 411.526 50.976C411.846 50.704 412.006 50.176 412.006 49.392ZM427.586 52.44C426.498 53.576 425.122 54.144 423.458 54.144C422.93 54.144 422.418 54.088 421.922 53.976C421.426 53.848 420.922 53.64 420.41 53.352C419.914 53.048 419.482 52.664 419.114 52.2C418.746 51.72 418.442 51.104 418.202 50.352C417.978 49.584 417.866 48.712 417.866 47.736C417.866 46.76 417.978 45.896 418.202 45.144C418.442 44.376 418.746 43.76 419.114 43.296C419.482 42.832 419.914 42.448 420.41 42.144C420.922 41.84 421.426 41.632 421.922 41.52C422.418 41.408 422.93 41.352 423.458 41.352C425.138 41.352 426.514 41.912 427.586 43.032L425.474 45.144C424.866 44.488 424.194 44.16 423.458 44.16C422.722 44.16 422.13 44.432 421.682 44.976C421.218 45.552 420.986 46.472 420.986 47.736C420.986 49.016 421.218 49.944 421.682 50.52C422.13 51.064 422.722 51.336 423.458 51.336C424.194 51.336 424.866 51.008 425.474 50.352L427.586 52.44ZM435.638 54H433.934C432.75 54 431.846 53.648 431.222 52.944C430.614 52.24 430.31 51.4 430.31 50.424V44.232H428.99V41.856H430.31V38.16H433.43V41.856H435.638V44.232H433.43V50.232C433.43 50.984 433.79 51.36 434.51 51.36H435.638V54ZM453.997 54H450.949V52.824C450.165 53.704 449.133 54.144 447.853 54.144C446.541 54.144 445.525 53.768 444.805 53.016C444.261 52.456 443.909 51.76 443.749 50.928C443.589 50.096 443.509 49.032 443.509 47.736C443.509 46.456 443.589 45.4 443.749 44.568C443.909 43.736 444.261 43.04 444.805 42.48C445.525 41.728 446.533 41.352 447.829 41.352C449.109 41.352 450.125 41.768 450.877 42.6V36.912H453.997V54ZM450.877 47.736C450.877 46.568 450.733 45.68 450.445 45.072C450.173 44.464 449.605 44.16 448.741 44.16C448.293 44.16 447.917 44.248 447.613 44.424C447.325 44.6 447.109 44.864 446.965 45.216C446.837 45.568 446.749 45.936 446.701 46.32C446.653 46.688 446.629 47.16 446.629 47.736C446.629 48.312 446.653 48.792 446.701 49.176C446.749 49.544 446.837 49.912 446.965 50.28C447.109 50.632 447.325 50.896 447.613 51.072C447.917 51.248 448.293 51.336 448.741 51.336C449.189 51.336 449.557 51.248 449.845 51.072C450.149 50.896 450.373 50.632 450.517 50.28C450.661 49.928 450.757 49.56 450.805 49.176C450.853 48.776 450.877 48.296 450.877 47.736ZM467.762 48.72H459.938C459.938 49.552 460.178 50.224 460.658 50.736C461.138 51.248 461.81 51.504 462.674 51.504C463.314 51.504 463.834 51.416 464.234 51.24C464.65 51.048 465.074 50.744 465.506 50.328L467.402 52.176C466.73 52.864 466.034 53.368 465.314 53.688C464.61 53.992 463.722 54.144 462.65 54.144C461.85 54.144 461.122 54.048 460.466 53.856C459.826 53.648 459.226 53.312 458.666 52.848C458.106 52.384 457.666 51.72 457.346 50.856C457.026 49.992 456.866 48.952 456.866 47.736C456.866 45.736 457.362 44.176 458.354 43.056C459.346 41.92 460.666 41.352 462.314 41.352C464.026 41.352 465.362 41.912 466.322 43.032C467.282 44.136 467.762 45.592 467.762 47.4V48.72ZM464.69 46.584C464.674 46.04 464.578 45.592 464.402 45.24C464.018 44.376 463.322 43.944 462.314 43.944C461.306 43.944 460.61 44.376 460.226 45.24C460.05 45.592 459.954 46.04 459.938 46.584H464.69ZM480.388 41.496L475.804 54H473.356L468.748 41.496H472.036L474.58 49.224L477.1 41.496H480.388ZM485.36 54H482.24V41.856H485.36V54ZM485.384 39.36H482.192V36.816H485.384V39.36ZM497.946 52.44C496.858 53.576 495.482 54.144 493.818 54.144C493.29 54.144 492.778 54.088 492.282 53.976C491.786 53.848 491.282 53.64 490.77 53.352C490.274 53.048 489.842 52.664 489.474 52.2C489.106 51.72 488.802 51.104 488.562 50.352C488.338 49.584 488.226 48.712 488.226 47.736C488.226 46.76 488.338 45.896 488.562 45.144C488.802 44.376 489.106 43.76 489.474 43.296C489.842 42.832 490.274 42.448 490.77 42.144C491.282 41.84 491.786 41.632 492.282 41.52C492.778 41.408 493.29 41.352 493.818 41.352C495.498 41.352 496.874 41.912 497.946 43.032L495.834 45.144C495.226 44.488 494.554 44.16 493.818 44.16C493.082 44.16 492.49 44.432 492.042 44.976C491.578 45.552 491.346 46.472 491.346 47.736C491.346 49.016 491.578 49.944 492.042 50.52C492.49 51.064 493.082 51.336 493.818 51.336C494.554 51.336 495.226 51.008 495.834 50.352L497.946 52.44ZM510.301 48.72H502.477C502.477 49.552 502.717 50.224 503.197 50.736C503.677 51.248 504.349 51.504 505.213 51.504C505.853 51.504 506.373 51.416 506.773 51.24C507.189 51.048 507.613 50.744 508.045 50.328L509.941 52.176C509.269 52.864 508.573 53.368 507.853 53.688C507.149 53.992 506.261 54.144 505.189 54.144C504.389 54.144 503.661 54.048 503.005 53.856C502.365 53.648 501.765 53.312 501.205 52.848C500.645 52.384 500.205 51.72 499.885 50.856C499.565 49.992 499.405 48.952 499.405 47.736C499.405 45.736 499.901 44.176 500.893 43.056C501.885 41.92 503.205 41.352 504.853 41.352C506.565 41.352 507.901 41.912 508.861 43.032C509.821 44.136 510.301 45.592 510.301 47.4V48.72ZM507.229 46.584C507.213 46.04 507.117 45.592 506.941 45.24C506.557 44.376 505.861 43.944 504.853 43.944C503.845 43.944 503.149 44.376 502.765 45.24C502.589 45.592 502.493 46.04 502.477 46.584H507.229ZM516.634 54H513.058V50.448H516.634V54ZM539.04 54H535.56L534.552 50.976H528.48L527.448 54H523.968L530.184 36.912H532.8L539.04 54ZM533.664 48.168L531.576 41.952L529.416 48.168H533.664ZM551.296 54H548.176V46.44C548.176 45.656 547.968 45.08 547.552 44.712C547.152 44.344 546.672 44.16 546.112 44.16C545.536 44.16 545.04 44.344 544.624 44.712C544.224 45.08 544.024 45.656 544.024 46.44V54H540.904V41.496H543.952V42.648C544.768 41.784 545.808 41.352 547.072 41.352C548.304 41.352 549.288 41.72 550.024 42.456C550.872 43.304 551.296 44.488 551.296 46.008V54ZM564.622 54H561.574V52.824C560.79 53.704 559.758 54.144 558.478 54.144C557.166 54.144 556.15 53.768 555.43 53.016C554.886 52.456 554.534 51.76 554.374 50.928C554.214 50.096 554.134 49.032 554.134 47.736C554.134 46.456 554.214 45.4 554.374 44.568C554.534 43.736 554.886 43.04 555.43 42.48C556.15 41.728 557.158 41.352 558.454 41.352C559.734 41.352 560.75 41.768 561.502 42.6V36.912H564.622V54ZM561.502 47.736C561.502 46.568 561.358 45.68 561.07 45.072C560.798 44.464 560.23 44.16 559.366 44.16C558.918 44.16 558.542 44.248 558.238 44.424C557.95 44.6 557.734 44.864 557.59 45.216C557.462 45.568 557.374 45.936 557.326 46.32C557.278 46.688 557.254 47.16 557.254 47.736C557.254 48.312 557.278 48.792 557.326 49.176C557.374 49.544 557.462 49.912 557.59 50.28C557.734 50.632 557.95 50.896 558.238 51.072C558.542 51.248 558.918 51.336 559.366 51.336C559.814 51.336 560.182 51.248 560.47 51.072C560.774 50.896 560.998 50.632 561.142 50.28C561.286 49.928 561.382 49.56 561.43 49.176C561.478 48.776 561.502 48.296 561.502 47.736ZM590.061 41.496L586.245 54H583.677L581.061 46.152L578.445 54H575.877L572.037 41.496H575.349L577.365 49.224L579.909 41.496H582.189L584.757 49.224L586.773 41.496H590.061ZM595.024 54H591.904V41.856H595.024V54ZM595.048 39.36H591.856V36.816H595.048V39.36ZM604.13 54H602.426C601.242 54 600.338 53.648 599.714 52.944C599.106 52.24 598.802 51.4 598.802 50.424V44.232H597.482V41.856H598.802V38.16H601.922V41.856H604.13V44.232H601.922V50.232C601.922 50.984 602.282 51.36 603.002 51.36H604.13V54ZM617.343 54H614.223V46.44C614.223 45.656 614.015 45.08 613.599 44.712C613.199 44.344 612.719 44.16 612.159 44.16C611.583 44.16 611.087 44.344 610.671 44.712C610.271 45.08 610.071 45.656 610.071 46.44V54H606.951V36.912H610.071V42.648C610.855 41.784 611.871 41.352 613.119 41.352C614.351 41.352 615.335 41.72 616.071 42.456C616.919 43.304 617.343 44.488 617.343 46.008V54ZM631.903 54H630.199C629.015 54 628.111 53.648 627.487 52.944C626.879 52.24 626.575 51.4 626.575 50.424V44.232H625.255V41.856H626.575V38.16H629.695V41.856H631.903V44.232H629.695V50.232C629.695 50.984 630.055 51.36 630.775 51.36H631.903V54ZM645.117 54H641.997V46.44C641.997 45.656 641.789 45.08 641.373 44.712C640.973 44.344 640.493 44.16 639.933 44.16C639.357 44.16 638.861 44.344 638.445 44.712C638.045 45.08 637.845 45.656 637.845 46.44V54H634.725V36.912H637.845V42.648C638.629 41.784 639.645 41.352 640.893 41.352C642.125 41.352 643.109 41.72 643.845 42.456C644.693 43.304 645.117 44.488 645.117 46.008V54ZM658.754 48.72H650.93C650.93 49.552 651.17 50.224 651.65 50.736C652.13 51.248 652.802 51.504 653.666 51.504C654.306 51.504 654.826 51.416 655.226 51.24C655.642 51.048 656.066 50.744 656.498 50.328L658.394 52.176C657.722 52.864 657.026 53.368 656.306 53.688C655.602 53.992 654.714 54.144 653.642 54.144C652.842 54.144 652.114 54.048 651.458 53.856C650.818 53.648 650.218 53.312 649.658 52.848C649.098 52.384 648.658 51.72 648.338 50.856C648.018 49.992 647.858 48.952 647.858 47.736C647.858 45.736 648.354 44.176 649.346 43.056C650.338 41.92 651.658 41.352 653.306 41.352C655.018 41.352 656.354 41.912 657.314 43.032C658.274 44.136 658.754 45.592 658.754 47.4V48.72ZM655.682 46.584C655.666 46.04 655.57 45.592 655.394 45.24C655.01 44.376 654.314 43.944 653.306 43.944C652.298 43.944 651.602 44.376 651.218 45.24C651.042 45.592 650.946 46.04 650.93 46.584H655.682ZM677.673 47.736C677.673 49.032 677.593 50.096 677.433 50.928C677.273 51.76 676.921 52.456 676.377 53.016C675.657 53.768 674.649 54.144 673.353 54.144C672.057 54.144 671.017 53.704 670.233 52.824V54H667.209V36.912H670.329V42.6C671.049 41.768 672.057 41.352 673.353 41.352C674.649 41.352 675.657 41.728 676.377 42.48C676.921 43.04 677.273 43.736 677.433 44.568C677.593 45.4 677.673 46.456 677.673 47.736ZM674.481 49.176C674.529 48.792 674.553 48.312 674.553 47.736C674.553 47.16 674.529 46.688 674.481 46.32C674.433 45.936 674.337 45.568 674.193 45.216C674.065 44.864 673.849 44.6 673.545 44.424C673.257 44.248 672.889 44.16 672.441 44.16C671.993 44.16 671.617 44.248 671.313 44.424C671.025 44.6 670.809 44.864 670.665 45.216C670.537 45.568 670.449 45.936 670.401 46.32C670.353 46.688 670.329 47.16 670.329 47.736C670.329 48.312 670.353 48.792 670.401 49.176C670.449 49.544 670.537 49.912 670.665 50.28C670.809 50.632 671.025 50.896 671.313 51.072C671.617 51.248 671.993 51.336 672.441 51.336C672.889 51.336 673.257 51.248 673.545 51.072C673.849 50.896 674.065 50.632 674.193 50.28C674.337 49.912 674.433 49.544 674.481 49.176ZM689.783 42.528L687.431 44.904C686.935 44.408 686.383 44.16 685.775 44.16C685.247 44.16 684.775 44.36 684.359 44.76C683.959 45.16 683.759 45.728 683.759 46.464V54H680.639V41.496H683.687V42.696C684.007 42.312 684.447 41.992 685.007 41.736C685.583 41.48 686.191 41.352 686.831 41.352C688.015 41.352 688.999 41.744 689.783 42.528ZM701.809 54H698.761V52.848C697.945 53.712 696.905 54.144 695.641 54.144C694.409 54.144 693.425 53.776 692.689 53.04C691.841 52.192 691.417 51.008 691.417 49.488V41.496H694.537V49.056C694.537 49.84 694.737 50.416 695.137 50.784C695.553 51.152 696.041 51.336 696.601 51.336C697.177 51.336 697.665 51.152 698.065 50.784C698.481 50.416 698.689 49.84 698.689 49.056V41.496H701.809V54ZM714.726 50.064C714.726 51.392 714.23 52.408 713.238 53.112C712.246 53.8 710.974 54.144 709.422 54.144C708.27 54.144 707.278 54.024 706.446 53.784C705.614 53.544 704.83 53.064 704.094 52.344L706.134 50.304C706.902 51.088 708.014 51.48 709.47 51.48C710.078 51.48 710.598 51.376 711.03 51.168C711.462 50.944 711.678 50.616 711.678 50.184C711.678 49.496 711.238 49.112 710.358 49.032L708.342 48.84C705.942 48.6 704.742 47.432 704.742 45.336C704.742 44.088 705.206 43.112 706.134 42.408C707.078 41.704 708.222 41.352 709.566 41.352C711.694 41.352 713.286 41.84 714.342 42.816L712.422 44.76C711.798 44.2 710.83 43.92 709.518 43.92C708.926 43.92 708.478 44.04 708.174 44.28C707.886 44.504 707.742 44.784 707.742 45.12C707.742 45.744 708.174 46.104 709.038 46.2L711.006 46.392C713.486 46.632 714.726 47.856 714.726 50.064ZM727.734 54H724.614V46.44C724.614 45.656 724.406 45.08 723.99 44.712C723.59 44.344 723.11 44.16 722.55 44.16C721.974 44.16 721.478 44.344 721.062 44.712C720.662 45.08 720.462 45.656 720.462 46.44V54H717.342V36.912H720.462V42.648C721.246 41.784 722.262 41.352 723.51 41.352C724.742 41.352 725.726 41.72 726.462 42.456C727.31 43.304 727.734 44.488 727.734 46.008V54ZM96.1299 90H93.0819V88.92C92.6499 89.352 92.2019 89.664 91.7379 89.856C91.2899 90.032 90.7139 90.12 90.0099 90.12C88.6179 90.12 87.5539 89.752 86.8179 89.016C86.1299 88.296 85.7859 87.36 85.7859 86.208C85.7859 85.152 86.1539 84.288 86.8899 83.616C87.6259 82.928 88.6979 82.584 90.1059 82.584H93.0099V81.96C93.0099 81.272 92.8259 80.776 92.4579 80.472C92.0899 80.152 91.4979 79.992 90.6819 79.992C89.7059 79.992 88.9059 80.352 88.2819 81.072L86.3139 79.128C86.9219 78.456 87.5539 77.992 88.2099 77.736C88.8819 77.48 89.7459 77.352 90.8019 77.352C94.3539 77.352 96.1299 78.824 96.1299 81.768V90ZM93.0099 85.392V84.72H90.6339C89.4019 84.72 88.7859 85.2 88.7859 86.16C88.7859 87.104 89.4179 87.576 90.6819 87.576C91.4979 87.576 92.1139 87.376 92.5299 86.976C92.8499 86.704 93.0099 86.176 93.0099 85.392ZM104.798 90H103.022C101.822 90 100.91 89.648 100.286 88.944C99.6782 88.24 99.3742 87.4 99.3742 86.424V72.912H102.494V86.232C102.494 86.984 102.862 87.36 103.598 87.36H104.798V90ZM117.547 90H114.499V88.848C113.683 89.712 112.643 90.144 111.379 90.144C110.147 90.144 109.163 89.776 108.427 89.04C107.579 88.192 107.155 87.008 107.155 85.488V77.496H110.275V85.056C110.275 85.84 110.475 86.416 110.875 86.784C111.291 87.152 111.779 87.336 112.339 87.336C112.915 87.336 113.403 87.152 113.803 86.784C114.219 86.416 114.427 85.84 114.427 85.056V77.496H117.547V90ZM138.721 90H135.601V82.44C135.601 81.656 135.393 81.08 134.977 80.712C134.577 80.344 134.097 80.16 133.537 80.16C132.977 80.16 132.489 80.344 132.073 80.712C131.657 81.064 131.449 81.616 131.449 82.368V90H128.329V82.44C128.329 81.656 128.121 81.08 127.705 80.712C127.305 80.344 126.825 80.16 126.265 80.16C125.689 80.16 125.193 80.344 124.777 80.712C124.377 81.08 124.177 81.656 124.177 82.44V90H121.057V77.496H124.105V78.648C124.937 77.784 125.977 77.352 127.225 77.352C128.665 77.352 129.769 77.88 130.537 78.936C131.545 77.88 132.793 77.352 134.281 77.352C135.593 77.352 136.617 77.72 137.353 78.456C138.265 79.368 138.721 80.552 138.721 82.008V90ZM145.2 90H142.08V77.856H145.2V90ZM145.224 75.36H142.032V72.816H145.224V75.36ZM159.082 90H155.962V82.44C155.962 81.656 155.754 81.08 155.338 80.712C154.938 80.344 154.458 80.16 153.898 80.16C153.322 80.16 152.826 80.344 152.41 80.712C152.01 81.08 151.81 81.656 151.81 82.44V90H148.69V77.496H151.738V78.648C152.554 77.784 153.594 77.352 154.858 77.352C156.09 77.352 157.074 77.72 157.81 78.456C158.658 79.304 159.082 80.488 159.082 82.008V90ZM172.695 90H169.647V88.848C168.831 89.712 167.791 90.144 166.527 90.144C165.295 90.144 164.311 89.776 163.575 89.04C162.727 88.192 162.303 87.008 162.303 85.488V77.496H165.423V85.056C165.423 85.84 165.623 86.416 166.023 86.784C166.439 87.152 166.927 87.336 167.487 87.336C168.063 87.336 168.551 87.152 168.951 86.784C169.367 86.416 169.575 85.84 169.575 85.056V77.496H172.695V90ZM193.869 90H190.749V82.44C190.749 81.656 190.541 81.08 190.125 80.712C189.725 80.344 189.245 80.16 188.685 80.16C188.125 80.16 187.637 80.344 187.221 80.712C186.805 81.064 186.597 81.616 186.597 82.368V90H183.477V82.44C183.477 81.656 183.269 81.08 182.853 80.712C182.453 80.344 181.973 80.16 181.413 80.16C180.837 80.16 180.341 80.344 179.925 80.712C179.525 81.08 179.325 81.656 179.325 82.44V90H176.205V77.496H179.253V78.648C180.085 77.784 181.125 77.352 182.373 77.352C183.813 77.352 184.917 77.88 185.685 78.936C186.693 77.88 187.941 77.352 189.429 77.352C190.741 77.352 191.765 77.72 192.501 78.456C193.413 79.368 193.869 80.552 193.869 82.008V90ZM212.215 86.064C212.215 87.392 211.719 88.408 210.727 89.112C209.735 89.8 208.463 90.144 206.911 90.144C205.759 90.144 204.767 90.024 203.935 89.784C203.103 89.544 202.319 89.064 201.583 88.344L203.623 86.304C204.391 87.088 205.503 87.48 206.959 87.48C207.567 87.48 208.087 87.376 208.519 87.168C208.951 86.944 209.167 86.616 209.167 86.184C209.167 85.496 208.727 85.112 207.847 85.032L205.831 84.84C203.431 84.6 202.231 83.432 202.231 81.336C202.231 80.088 202.695 79.112 203.623 78.408C204.567 77.704 205.711 77.352 207.055 77.352C209.183 77.352 210.775 77.84 211.831 78.816L209.911 80.76C209.287 80.2 208.319 79.92 207.007 79.92C206.415 79.92 205.967 80.04 205.663 80.28C205.375 80.504 205.231 80.784 205.231 81.12C205.231 81.744 205.663 82.104 206.527 82.2L208.495 82.392C210.975 82.632 212.215 83.856 212.215 86.064ZM225.078 90H222.03V88.848C221.214 89.712 220.174 90.144 218.91 90.144C217.678 90.144 216.694 89.776 215.958 89.04C215.11 88.192 214.686 87.008 214.686 85.488V77.496H217.806V85.056C217.806 85.84 218.006 86.416 218.406 86.784C218.822 87.152 219.31 87.336 219.87 87.336C220.446 87.336 220.934 87.152 221.334 86.784C221.75 86.416 221.958 85.84 221.958 85.056V77.496H225.078V90ZM237.732 78.528L235.38 80.904C234.884 80.408 234.332 80.16 233.724 80.16C233.196 80.16 232.724 80.36 232.308 80.76C231.908 81.16 231.708 81.728 231.708 82.464V90H228.588V77.496H231.636V78.696C231.956 78.312 232.396 77.992 232.956 77.736C233.532 77.48 234.14 77.352 234.78 77.352C235.964 77.352 236.948 77.744 237.732 78.528ZM245.318 80.232H243.014V90H239.894V80.232H238.598V77.856H239.894V76.296C239.894 75.32 240.206 74.48 240.83 73.776C241.454 73.072 242.358 72.72 243.542 72.72H245.318V75.36H244.094C243.374 75.36 243.014 75.736 243.014 76.488V77.856H245.318V80.232ZM256.817 90H253.769V88.92C253.337 89.352 252.889 89.664 252.425 89.856C251.977 90.032 251.401 90.12 250.697 90.12C249.305 90.12 248.241 89.752 247.505 89.016C246.817 88.296 246.473 87.36 246.473 86.208C246.473 85.152 246.841 84.288 247.577 83.616C248.313 82.928 249.385 82.584 250.793 82.584H253.697V81.96C253.697 81.272 253.513 80.776 253.145 80.472C252.777 80.152 252.185 79.992 251.369 79.992C250.393 79.992 249.593 80.352 248.969 81.072L247.001 79.128C247.609 78.456 248.241 77.992 248.897 77.736C249.569 77.48 250.433 77.352 251.489 77.352C255.041 77.352 256.817 78.824 256.817 81.768V90ZM253.697 85.392V84.72H251.321C250.089 84.72 249.473 85.2 249.473 86.16C249.473 87.104 250.105 87.576 251.369 87.576C252.185 87.576 252.801 87.376 253.217 86.976C253.537 86.704 253.697 86.176 253.697 85.392ZM269.278 88.44C268.19 89.576 266.814 90.144 265.15 90.144C264.622 90.144 264.11 90.088 263.614 89.976C263.118 89.848 262.614 89.64 262.102 89.352C261.606 89.048 261.174 88.664 260.806 88.2C260.438 87.72 260.134 87.104 259.894 86.352C259.67 85.584 259.558 84.712 259.558 83.736C259.558 82.76 259.67 81.896 259.894 81.144C260.134 80.376 260.438 79.76 260.806 79.296C261.174 78.832 261.606 78.448 262.102 78.144C262.614 77.84 263.118 77.632 263.614 77.52C264.11 77.408 264.622 77.352 265.15 77.352C266.83 77.352 268.206 77.912 269.278 79.032L267.166 81.144C266.558 80.488 265.886 80.16 265.15 80.16C264.414 80.16 263.822 80.432 263.374 80.976C262.91 81.552 262.678 82.472 262.678 83.736C262.678 85.016 262.91 85.944 263.374 86.52C263.822 87.064 264.414 87.336 265.15 87.336C265.886 87.336 266.558 87.008 267.166 86.352L269.278 88.44ZM281.633 84.72H273.809C273.809 85.552 274.049 86.224 274.529 86.736C275.009 87.248 275.681 87.504 276.545 87.504C277.185 87.504 277.705 87.416 278.105 87.24C278.521 87.048 278.945 86.744 279.377 86.328L281.273 88.176C280.601 88.864 279.905 89.368 279.185 89.688C278.481 89.992 277.593 90.144 276.521 90.144C275.721 90.144 274.993 90.048 274.337 89.856C273.697 89.648 273.097 89.312 272.537 88.848C271.977 88.384 271.537 87.72 271.217 86.856C270.897 85.992 270.737 84.952 270.737 83.736C270.737 81.736 271.233 80.176 272.225 79.056C273.217 77.92 274.537 77.352 276.185 77.352C277.897 77.352 279.233 77.912 280.193 79.032C281.153 80.136 281.633 81.592 281.633 83.4V84.72ZM278.561 82.584C278.545 82.04 278.449 81.592 278.273 81.24C277.889 80.376 277.193 79.944 276.185 79.944C275.177 79.944 274.481 80.376 274.097 81.24C273.921 81.592 273.825 82.04 273.809 82.584H278.561ZM287.822 91.32L284.39 93.96V86.592H287.822V91.32ZM299.911 90H296.791V77.856H299.911V90ZM299.935 75.36H296.743V72.816H299.935V75.36ZM309.016 90H307.312C306.128 90 305.224 89.648 304.6 88.944C303.992 88.24 303.688 87.4 303.688 86.424V80.232H302.368V77.856H303.688V74.16H306.808V77.856H309.016V80.232H306.808V86.232C306.808 86.984 307.168 87.36 307.888 87.36H309.016V90ZM323.224 80.232H320.92V90H317.8V80.232H316.504V77.856H317.8V76.296C317.8 75.32 318.112 74.48 318.736 73.776C319.36 73.072 320.264 72.72 321.448 72.72H323.224V75.36H322C321.28 75.36 320.92 75.736 320.92 76.488V77.856H323.224V80.232ZM335.54 84.72H327.716C327.716 85.552 327.956 86.224 328.436 86.736C328.916 87.248 329.588 87.504 330.452 87.504C331.092 87.504 331.612 87.416 332.012 87.24C332.428 87.048 332.852 86.744 333.284 86.328L335.18 88.176C334.508 88.864 333.812 89.368 333.092 89.688C332.388 89.992 331.5 90.144 330.428 90.144C329.628 90.144 328.9 90.048 328.244 89.856C327.604 89.648 327.004 89.312 326.444 88.848C325.884 88.384 325.444 87.72 325.124 86.856C324.804 85.992 324.644 84.952 324.644 83.736C324.644 81.736 325.14 80.176 326.132 79.056C327.124 77.92 328.444 77.352 330.092 77.352C331.804 77.352 333.14 77.912 334.1 79.032C335.06 80.136 335.54 81.592 335.54 83.4V84.72ZM332.468 82.584C332.452 82.04 332.356 81.592 332.18 81.24C331.796 80.376 331.1 79.944 330.092 79.944C329.084 79.944 328.388 80.376 328.004 81.24C327.828 81.592 327.732 82.04 327.716 82.584H332.468ZM348.688 84.72H340.864C340.864 85.552 341.104 86.224 341.584 86.736C342.064 87.248 342.736 87.504 343.6 87.504C344.24 87.504 344.76 87.416 345.16 87.24C345.576 87.048 346 86.744 346.432 86.328L348.328 88.176C347.656 88.864 346.96 89.368 346.24 89.688C345.536 89.992 344.648 90.144 343.576 90.144C342.776 90.144 342.048 90.048 341.392 89.856C340.752 89.648 340.152 89.312 339.592 88.848C339.032 88.384 338.592 87.72 338.272 86.856C337.952 85.992 337.792 84.952 337.792 83.736C337.792 81.736 338.288 80.176 339.28 79.056C340.272 77.92 341.592 77.352 343.24 77.352C344.952 77.352 346.288 77.912 347.248 79.032C348.208 80.136 348.688 81.592 348.688 83.4V84.72ZM345.616 82.584C345.6 82.04 345.504 81.592 345.328 81.24C344.944 80.376 344.248 79.944 343.24 79.944C342.232 79.944 341.536 80.376 341.152 81.24C340.976 81.592 340.88 82.04 340.864 82.584H345.616ZM356.868 90H355.093C353.893 90 352.981 89.648 352.357 88.944C351.749 88.24 351.445 87.4 351.445 86.424V72.912H354.565V86.232C354.565 86.984 354.933 87.36 355.669 87.36H356.868V90ZM368.777 86.064C368.777 87.392 368.281 88.408 367.289 89.112C366.297 89.8 365.025 90.144 363.473 90.144C362.321 90.144 361.329 90.024 360.497 89.784C359.665 89.544 358.881 89.064 358.145 88.344L360.185 86.304C360.953 87.088 362.065 87.48 363.521 87.48C364.129 87.48 364.649 87.376 365.081 87.168C365.513 86.944 365.729 86.616 365.729 86.184C365.729 85.496 365.289 85.112 364.409 85.032L362.393 84.84C359.993 84.6 358.793 83.432 358.793 81.336C358.793 80.088 359.257 79.112 360.185 78.408C361.129 77.704 362.273 77.352 363.617 77.352C365.745 77.352 367.337 77.84 368.393 78.816L366.473 80.76C365.849 80.2 364.881 79.92 363.569 79.92C362.977 79.92 362.529 80.04 362.225 80.28C361.937 80.504 361.793 80.784 361.793 81.12C361.793 81.744 362.225 82.104 363.089 82.2L365.057 82.392C367.537 82.632 368.777 83.856 368.777 86.064ZM386.379 86.064C386.379 87.392 385.883 88.408 384.891 89.112C383.899 89.8 382.627 90.144 381.075 90.144C379.923 90.144 378.931 90.024 378.099 89.784C377.267 89.544 376.483 89.064 375.747 88.344L377.787 86.304C378.555 87.088 379.667 87.48 381.123 87.48C381.731 87.48 382.251 87.376 382.683 87.168C383.115 86.944 383.331 86.616 383.331 86.184C383.331 85.496 382.891 85.112 382.011 85.032L379.995 84.84C377.595 84.6 376.395 83.432 376.395 81.336C376.395 80.088 376.859 79.112 377.787 78.408C378.731 77.704 379.875 77.352 381.219 77.352C383.347 77.352 384.939 77.84 385.995 78.816L384.075 80.76C383.451 80.2 382.483 79.92 381.171 79.92C380.579 79.92 380.131 80.04 379.827 80.28C379.539 80.504 379.395 80.784 379.395 81.12C379.395 81.744 379.827 82.104 380.691 82.2L382.659 82.392C385.139 82.632 386.379 83.856 386.379 86.064ZM399.05 83.736C399.05 84.936 398.946 85.912 398.738 86.664C398.546 87.4 398.178 88.048 397.634 88.608C396.642 89.632 395.346 90.144 393.746 90.144C392.162 90.144 390.874 89.632 389.882 88.608C389.338 88.032 388.962 87.376 388.754 86.64C388.562 85.888 388.466 84.92 388.466 83.736C388.466 82.552 388.562 81.592 388.754 80.856C388.962 80.12 389.338 79.464 389.882 78.888C390.874 77.864 392.162 77.352 393.746 77.352C395.378 77.352 396.674 77.864 397.634 78.888C398.178 79.464 398.546 80.12 398.738 80.856C398.946 81.592 399.05 82.552 399.05 83.736ZM395.93 83.736C395.93 82.184 395.69 81.176 395.21 80.712C394.842 80.344 394.354 80.16 393.746 80.16C393.154 80.16 392.674 80.344 392.306 80.712C391.826 81.176 391.586 82.184 391.586 83.736C391.586 85.304 391.826 86.32 392.306 86.784C392.674 87.152 393.154 87.336 393.746 87.336C394.354 87.336 394.842 87.152 395.21 86.784C395.69 86.32 395.93 85.304 395.93 83.736ZM413.412 80.232H411.108V90H407.988V80.232H406.692V77.856H407.988V76.296C407.988 75.32 408.3 74.48 408.924 73.776C409.548 73.072 410.452 72.72 411.636 72.72H413.412V75.36H412.188C411.468 75.36 411.108 75.736 411.108 76.488V77.856H413.412V80.232ZM424.911 90H421.863V88.92C421.431 89.352 420.983 89.664 420.519 89.856C420.071 90.032 419.495 90.12 418.791 90.12C417.399 90.12 416.335 89.752 415.599 89.016C414.911 88.296 414.567 87.36 414.567 86.208C414.567 85.152 414.935 84.288 415.671 83.616C416.407 82.928 417.479 82.584 418.887 82.584H421.791V81.96C421.791 81.272 421.607 80.776 421.239 80.472C420.871 80.152 420.279 79.992 419.463 79.992C418.487 79.992 417.687 80.352 417.063 81.072L415.095 79.128C415.703 78.456 416.335 77.992 416.991 77.736C417.663 77.48 418.527 77.352 419.583 77.352C423.135 77.352 424.911 78.824 424.911 81.768V90ZM421.791 85.392V84.72H419.415C418.183 84.72 417.567 85.2 417.567 86.16C417.567 87.104 418.199 87.576 419.463 87.576C420.279 87.576 420.895 87.376 421.311 86.976C421.631 86.704 421.791 86.176 421.791 85.392ZM445.939 90H442.819V82.44C442.819 81.656 442.611 81.08 442.195 80.712C441.795 80.344 441.315 80.16 440.755 80.16C440.195 80.16 439.707 80.344 439.291 80.712C438.875 81.064 438.667 81.616 438.667 82.368V90H435.547V82.44C435.547 81.656 435.339 81.08 434.923 80.712C434.523 80.344 434.043 80.16 433.483 80.16C432.907 80.16 432.411 80.344 431.995 80.712C431.595 81.08 431.395 81.656 431.395 82.44V90H428.275V77.496H431.323V78.648C432.155 77.784 433.195 77.352 434.443 77.352C435.883 77.352 436.987 77.88 437.755 78.936C438.763 77.88 440.011 77.352 441.499 77.352C442.811 77.352 443.835 77.72 444.571 78.456C445.483 79.368 445.939 80.552 445.939 82.008V90ZM452.419 90H449.299V77.856H452.419V90ZM452.443 75.36H449.251V72.816H452.443V75.36ZM461.212 90H459.436C458.236 90 457.324 89.648 456.7 88.944C456.092 88.24 455.788 87.4 455.788 86.424V72.912H458.908V86.232C458.908 86.984 459.276 87.36 460.012 87.36H461.212V90ZM466.833 90H463.713V77.856H466.833V90ZM466.857 75.36H463.665V72.816H466.857V75.36ZM479.778 90H476.73V88.92C476.298 89.352 475.85 89.664 475.386 89.856C474.938 90.032 474.362 90.12 473.658 90.12C472.266 90.12 471.202 89.752 470.466 89.016C469.778 88.296 469.434 87.36 469.434 86.208C469.434 85.152 469.802 84.288 470.538 83.616C471.274 82.928 472.346 82.584 473.754 82.584H476.658V81.96C476.658 81.272 476.474 80.776 476.106 80.472C475.738 80.152 475.146 79.992 474.33 79.992C473.354 79.992 472.554 80.352 471.93 81.072L469.962 79.128C470.57 78.456 471.202 77.992 471.858 77.736C472.53 77.48 473.394 77.352 474.45 77.352C478.002 77.352 479.778 78.824 479.778 81.768V90ZM476.658 85.392V84.72H474.282C473.05 84.72 472.434 85.2 472.434 86.16C472.434 87.104 473.066 87.576 474.33 87.576C475.146 87.576 475.762 87.376 476.178 86.976C476.498 86.704 476.658 86.176 476.658 85.392ZM492.287 78.528L489.935 80.904C489.439 80.408 488.887 80.16 488.279 80.16C487.751 80.16 487.279 80.36 486.863 80.76C486.463 81.16 486.263 81.728 486.263 82.464V90H483.143V77.496H486.191V78.696C486.511 78.312 486.951 77.992 487.511 77.736C488.087 77.48 488.695 77.352 489.335 77.352C490.519 77.352 491.503 77.744 492.287 78.528ZM495.599 90H492.023V86.448H495.599V90ZM515.893 90H504.805V72.912H508.141V87.024H515.893V90ZM521.489 90H518.369V77.856H521.489V90ZM521.513 75.36H518.321V72.816H521.513V75.36ZM536.355 90H532.491L529.419 84.792L528.099 86.28V90H524.979V72.912H528.099V82.608L532.251 77.496H536.019L531.555 82.536L536.355 90ZM547.696 84.72H539.872C539.872 85.552 540.112 86.224 540.592 86.736C541.072 87.248 541.744 87.504 542.608 87.504C543.248 87.504 543.768 87.416 544.168 87.24C544.584 87.048 545.008 86.744 545.44 86.328L547.336 88.176C546.664 88.864 545.968 89.368 545.248 89.688C544.544 89.992 543.656 90.144 542.584 90.144C541.784 90.144 541.056 90.048 540.4 89.856C539.76 89.648 539.16 89.312 538.6 88.848C538.04 88.384 537.6 87.72 537.28 86.856C536.96 85.992 536.8 84.952 536.8 83.736C536.8 81.736 537.296 80.176 538.288 79.056C539.28 77.92 540.6 77.352 542.248 77.352C543.96 77.352 545.296 77.912 546.256 79.032C547.216 80.136 547.696 81.592 547.696 83.4V84.72ZM544.624 82.584C544.608 82.04 544.512 81.592 544.336 81.24C543.952 80.376 543.256 79.944 542.248 79.944C541.24 79.944 540.544 80.376 540.16 81.24C539.984 81.592 539.888 82.04 539.872 82.584H544.624ZM573.814 90H570.694V82.44C570.694 81.656 570.486 81.08 570.07 80.712C569.67 80.344 569.19 80.16 568.63 80.16C568.07 80.16 567.582 80.344 567.166 80.712C566.75 81.064 566.542 81.616 566.542 82.368V90H563.422V82.44C563.422 81.656 563.214 81.08 562.798 80.712C562.398 80.344 561.918 80.16 561.358 80.16C560.782 80.16 560.286 80.344 559.87 80.712C559.47 81.08 559.27 81.656 559.27 82.44V90H556.15V77.496H559.198V78.648C560.03 77.784 561.07 77.352 562.318 77.352C563.758 77.352 564.862 77.88 565.63 78.936C566.638 77.88 567.886 77.352 569.374 77.352C570.686 77.352 571.71 77.72 572.446 78.456C573.358 79.368 573.814 80.552 573.814 82.008V90ZM587.182 77.496L581.83 92.016C581.558 92.736 581.246 93.272 580.894 93.624C580.254 94.264 579.358 94.584 578.206 94.584H576.982V91.776H577.702C578.15 91.776 578.478 91.696 578.686 91.536C578.91 91.392 579.102 91.096 579.262 90.648L579.79 89.112L575.518 77.496H578.806L581.398 85.224L583.894 77.496H587.182ZM597.731 90H594.611V77.856H597.731V90ZM597.755 75.36H594.563V72.816H597.755V75.36ZM612.189 74.448C613.213 75.472 613.725 76.736 613.725 78.24C613.725 79.744 613.213 81.008 612.189 82.032C611.181 83.056 609.813 83.568 608.085 83.568H604.797V90H601.461V72.912H608.085C609.813 72.912 611.181 73.424 612.189 74.448ZM609.717 79.944C610.165 79.512 610.389 78.944 610.389 78.24C610.389 77.536 610.165 76.968 609.717 76.536C609.269 76.104 608.669 75.888 607.917 75.888H604.797V80.568H607.917C608.669 80.568 609.269 80.36 609.717 79.944ZM626.683 90H623.563V82.44C623.563 81.656 623.355 81.08 622.939 80.712C622.539 80.344 622.059 80.16 621.499 80.16C620.923 80.16 620.427 80.344 620.011 80.712C619.611 81.08 619.411 81.656 619.411 82.44V90H616.291V72.912H619.411V78.648C620.195 77.784 621.211 77.352 622.459 77.352C623.691 77.352 624.675 77.72 625.411 78.456C626.259 79.304 626.683 80.488 626.683 82.008V90ZM640.105 83.736C640.105 84.936 640.001 85.912 639.793 86.664C639.601 87.4 639.233 88.048 638.689 88.608C637.697 89.632 636.401 90.144 634.801 90.144C633.217 90.144 631.929 89.632 630.937 88.608C630.393 88.032 630.017 87.376 629.809 86.64C629.617 85.888 629.521 84.92 629.521 83.736C629.521 82.552 629.617 81.592 629.809 80.856C630.017 80.12 630.393 79.464 630.937 78.888C631.929 77.864 633.217 77.352 634.801 77.352C636.433 77.352 637.729 77.864 638.689 78.888C639.233 79.464 639.601 80.12 639.793 80.856C640.001 81.592 640.105 82.552 640.105 83.736ZM636.985 83.736C636.985 82.184 636.745 81.176 636.265 80.712C635.897 80.344 635.409 80.16 634.801 80.16C634.209 80.16 633.729 80.344 633.361 80.712C632.881 81.176 632.641 82.184 632.641 83.736C632.641 85.304 632.881 86.32 633.361 86.784C633.729 87.152 634.209 87.336 634.801 87.336C635.409 87.336 635.897 87.152 636.265 86.784C636.745 86.32 636.985 85.304 636.985 83.736ZM653.472 90H650.352V82.44C650.352 81.656 650.144 81.08 649.728 80.712C649.328 80.344 648.848 80.16 648.288 80.16C647.712 80.16 647.216 80.344 646.8 80.712C646.4 81.08 646.2 81.656 646.2 82.44V90H643.08V77.496H646.128V78.648C646.944 77.784 647.984 77.352 649.248 77.352C650.48 77.352 651.464 77.72 652.2 78.456C653.048 79.304 653.472 80.488 653.472 82.008V90ZM667.11 84.72H659.286C659.286 85.552 659.526 86.224 660.006 86.736C660.486 87.248 661.158 87.504 662.022 87.504C662.662 87.504 663.182 87.416 663.582 87.24C663.998 87.048 664.422 86.744 664.854 86.328L666.75 88.176C666.078 88.864 665.382 89.368 664.662 89.688C663.958 89.992 663.07 90.144 661.998 90.144C661.198 90.144 660.47 90.048 659.814 89.856C659.174 89.648 658.574 89.312 658.014 88.848C657.454 88.384 657.014 87.72 656.694 86.856C656.374 85.992 656.214 84.952 656.214 83.736C656.214 81.736 656.71 80.176 657.702 79.056C658.694 77.92 660.014 77.352 661.662 77.352C663.374 77.352 664.71 77.912 665.67 79.032C666.63 80.136 667.11 81.592 667.11 83.4V84.72ZM664.038 82.584C664.022 82.04 663.926 81.592 663.75 81.24C663.366 80.376 662.67 79.944 661.662 79.944C660.654 79.944 659.958 80.376 659.574 81.24C659.398 81.592 659.302 82.04 659.286 82.584H664.038ZM673.442 90H669.866V86.448H673.442V90Z" fill="#333333"/>
</svg>
