<svg width="116" height="116" viewBox="0 0 116 116" fill="none" xmlns="http://www.w3.org/2000/svg">
<path d="M100 3V34" stroke="#1768A2" stroke-width="6"/>
<path d="M106 66H10V113H106V66Z" stroke="#F29610" stroke-width="6"/>
<path d="M30.5 95.5C32.9536 95.5 34.5 93.2176 34.5 91C34.5 88.7824 32.9536 86.5 30.5 86.5C28.0464 86.5 26.5 88.7824 26.5 91C26.5 93.2176 28.0464 95.5 30.5 95.5Z" fill="#1768A2" stroke="#1768A2" stroke-width="3"/>
<path d="M85.5 95.5C87.9536 95.5 89.5 93.2176 89.5 91C89.5 88.7824 87.9536 86.5 85.5 86.5C83.0464 86.5 81.5 88.7824 81.5 91C81.5 93.2176 83.0464 95.5 85.5 95.5Z" fill="#1768A2" stroke="#1768A2" stroke-width="3"/>
<path d="M113 50H3V66H113V50Z" stroke="#F29610" stroke-width="6"/>
<path d="M99 3H17V34H99V3Z" stroke="#F29610" stroke-width="6"/>
<path d="M30.5 23.5C32.9536 23.5 34.5 21.2176 34.5 19C34.5 16.7824 32.9536 14.5 30.5 14.5C28.0464 14.5 26.5 16.7824 26.5 19C26.5 21.2176 28.0464 23.5 30.5 23.5Z" fill="#1768A2" stroke="#1768A2" stroke-width="3"/>
<path d="M85.5 23.5C87.9536 23.5 89.5 21.2176 89.5 19C89.5 16.7824 87.9536 14.5 85.5 14.5C83.0464 14.5 81.5 16.7824 81.5 19C81.5 21.2176 83.0464 23.5 85.5 23.5Z" fill="#1768A2" stroke="#1768A2" stroke-width="3"/>
</svg>
