<svg width="114" height="110" viewBox="0 0 114 110" fill="none" xmlns="http://www.w3.org/2000/svg">
<path d="M88.6881 108.976L102.501 102.912L58.6415 35.7814C58.6415 35.7814 49.3145 43.868 40.3358 45.3645C31.3571 46.861 22.0318 42.6698 22.0318 42.6698C22.0318 42.6698 23.0661 49.2563 33.0826 50.1545L34.1186 59.1373C34.1186 59.1373 44.4792 59.4003 45.5152 60.4672C46.5512 61.5341 46.8972 70.5733 46.8972 70.5733L58.9845 72.3785L60.0205 83.0926L71.4172 84.2892L72.7991 95.9816H84.5423L85.2324 107.179L88.6881 108.976Z" fill="#F29610"/>
<path d="M88.6431 110L84.2277 107.704L83.5601 96.8804H71.8636L70.4693 85.0958L59.0584 83.8971L58.0177 73.1456L45.8872 71.3353L45.8576 70.6052C45.7039 66.5545 45.2154 61.7398 44.6974 61.0221C43.9636 60.5868 38.5931 60.1521 34.0837 60.0362L33.1736 60.0116L32.1335 50.9586C22.2063 49.705 21.0159 42.8602 21.0059 42.7894L20.7368 41.0781L22.5067 41.8702C22.5735 41.9009 29.1006 44.7879 36.2639 44.7879C37.6151 44.7879 38.9178 44.6833 40.1383 44.4808C48.6972 43.0545 57.8166 35.2237 57.9077 35.1452L58.8715 34.3121L103.938 103.287L88.6431 110ZM86.2394 106.654L88.7289 107.95L101.065 102.536L58.3943 37.2262C55.728 39.357 48.1023 44.9852 40.5327 46.247C39.1827 46.4715 37.7475 46.5848 36.2639 46.5848C31.1229 46.5848 26.4 45.2442 23.7561 44.3188C24.7886 46.127 27.2858 48.7299 33.1902 49.2595L34.0299 49.3349L35.06 58.2638C39.8119 58.4146 45.2734 58.8216 46.3094 59.8865C47.3377 60.9477 47.7439 66.2674 47.9048 69.8085L59.9507 71.6086L60.9826 82.2863L72.3656 83.4829L73.7352 95.0804H85.5233L86.2394 106.654Z" fill="#F29610"/>
<path d="M35.4479 43.4784C28.3123 43.4784 21.7025 39.3779 21.4251 39.2046L21.172 38.9775L3.50907 16.2455H11.0432L27.0345 8.0579C29.8734 6.58187 29.6387 3.24377 29.6345 3.21096C29.6328 1.17457 30.7953 0 32.7408 0C33.9861 0 35.1469 0.487052 35.2776 0.544473L35.5508 0.662904L35.7069 0.890537L57.926 33.6087L57.2117 34.0937C56.8817 34.3167 49.0596 39.5948 40.7373 42.6007C39.1236 43.1831 37.3437 43.4784 35.4479 43.4784ZM22.7816 37.8347C23.7597 38.4136 29.5352 41.6814 35.4455 41.6814C37.0675 41.6814 38.5778 41.4312 39.936 40.9411C46.5755 38.5428 53.0795 34.5238 55.2053 33.1529L34.0878 2.05382C33.7519 1.94052 33.2156 1.79492 32.739 1.79492C32.3263 1.79492 31.703 1.79492 31.703 3.14226C31.7154 3.25556 32.0471 7.54265 28.0912 9.60159L11.6097 18.0399H7.40237L22.7816 37.8347Z" fill="#F29610"/>
<path d="M24.8832 30.0933H24.7945C22.2577 30.0933 20.2685 29.4037 18.8783 28.043C16.3438 25.5642 16.8394 21.7908 16.8595 21.6314L16.9618 20.9044L17.8026 20.8449C20.6854 20.6403 28.877 15.9006 31.7899 14.0938L32.1157 13.8918L32.5113 13.9298C32.7118 13.9513 37.4631 14.4543 39.1567 17.1623C40.0372 18.5686 39.9337 20.2451 38.845 22.1405C35.1983 28.4927 25.3847 30.0199 24.9701 30.083L24.8832 30.0933ZM18.88 22.4937C18.8718 23.5119 19.0521 25.5124 20.4341 26.8582C21.3973 27.7959 22.8319 28.2809 24.7011 28.2968C25.6206 28.1404 33.9802 26.587 36.9936 21.3386C37.7594 20.0005 37.8782 18.8849 37.3395 18.021C36.4602 16.6137 33.937 15.9621 32.6515 15.7637C30.7161 16.9495 22.9578 21.5991 18.88 22.4937Z" fill="#F29610"/>
<path d="M37.9196 40.4633C35.9203 40.4633 34.293 39.0529 34.293 37.319C34.293 35.5856 35.9197 34.1752 37.9196 34.1752C39.9189 34.1752 41.5456 35.5856 41.5456 37.319C41.5456 39.0524 39.9189 40.4633 37.9196 40.4633ZM37.9196 35.9716C37.0634 35.9716 36.3656 36.5771 36.3656 37.319C36.3656 38.0613 37.064 38.6663 37.9196 38.6663C38.7753 38.6663 39.4736 38.0608 39.4736 37.319C39.4736 36.5771 38.7753 35.9716 37.9196 35.9716Z" fill="#F29610"/>
<path d="M46.7062 35.9717C44.7057 35.9717 43.0801 34.5613 43.0801 32.8274C43.0801 31.094 44.7063 29.6836 46.7062 29.6836C48.7054 29.6836 50.3322 31.094 50.3322 32.8274C50.3322 34.5613 48.7048 35.9717 46.7062 35.9717ZM46.7062 31.48C45.8499 31.48 45.1521 32.0855 45.1521 32.8274C45.1521 33.5698 45.8505 34.1747 46.7062 34.1747C47.5612 34.1747 48.2602 33.5692 48.2602 32.8274C48.2602 32.0855 47.5606 31.48 46.7062 31.48Z" fill="#F29610"/>
<path d="M112 85.4384H113V84.4384V75.1567V74.1567H112H2H1V75.1567V84.4384V85.4384H2H112ZM108.927 77.9542V81.642H5.07201V77.9542H108.927Z" fill="#1768A2" stroke="#1768A2" stroke-width="2"/>
</svg>
