<svg width="103" height="108" viewBox="0 0 103 108" fill="none" xmlns="http://www.w3.org/2000/svg">
<path d="M86.1428 48.5879H16.8571C9.20405 48.5879 3 56.6102 3 66.5063V75.4656C3 85.3616 9.20405 93.384 16.8571 93.384H86.1428C93.7958 93.384 99.9999 85.3616 99.9999 75.4656V66.5063C99.9999 56.6102 93.7958 48.5879 86.1428 48.5879Z" stroke="#F29610" stroke-width="6"/>
<path d="M16.8571 107.719C19.153 107.719 21.0142 105.312 21.0142 102.343C21.0142 99.3745 19.153 96.9678 16.8571 96.9678C14.5612 96.9678 12.7 99.3745 12.7 102.343C12.7 105.312 14.5612 107.719 16.8571 107.719Z" fill="#F29610"/>
<path d="M84.757 107.719C87.0529 107.719 88.9141 105.312 88.9141 102.343C88.9141 99.3745 87.0529 96.9678 84.757 96.9678C82.4611 96.9678 80.5999 99.3745 80.5999 102.343C80.5999 105.312 82.4611 107.719 84.757 107.719Z" fill="#F29610"/>
<path d="M39.0286 36.045C42.0898 36.045 44.5714 32.836 44.5714 28.8776C44.5714 24.9191 42.0898 21.7102 39.0286 21.7102C35.9673 21.7102 33.4857 24.9191 33.4857 28.8776C33.4857 32.836 35.9673 36.045 39.0286 36.045Z" stroke="#1768A2" stroke-width="4"/>
<path d="M52.8857 16.3348C55.1816 16.3348 57.0428 13.9281 57.0428 10.9593C57.0428 7.99045 55.1816 5.58374 52.8857 5.58374C50.5897 5.58374 48.7285 7.99045 48.7285 10.9593C48.7285 13.9281 50.5897 16.3348 52.8857 16.3348Z" stroke="#1768A2" stroke-width="4"/>
<path d="M66.7428 34.2532C70.5693 34.2532 73.6713 30.242 73.6713 25.2939C73.6713 20.3459 70.5693 16.3347 66.7428 16.3347C62.9162 16.3347 59.8142 20.3459 59.8142 25.2939C59.8142 30.242 62.9162 34.2532 66.7428 34.2532Z" stroke="#1768A2" stroke-width="4"/>
<path d="M80.5999 12.7511C82.8958 12.7511 84.757 10.3444 84.757 7.37553C84.757 4.40671 82.8958 2 80.5999 2C78.304 2 76.4427 4.40671 76.4427 7.37553C76.4427 10.3444 78.304 12.7511 80.5999 12.7511Z" stroke="#1768A2" stroke-width="4"/>
<path d="M94.4572 36.045C97.5184 36.045 100 32.836 100 28.8776C100 24.9191 97.5184 21.7102 94.4572 21.7102C91.3959 21.7102 88.9143 24.9191 88.9143 28.8776C88.9143 32.836 91.3959 36.045 94.4572 36.045Z" stroke="#1768A2" stroke-width="4"/>
</svg>
