<svg width="44" height="22" viewBox="0 0 44 22" fill="none" xmlns="http://www.w3.org/2000/svg">
<path d="M31.9172 5.65728V9.10208H37.2881L35.8351 5.65728H31.9172Z" fill="#4F4F4F"/>
<path d="M16.1549 14.3281C13.9467 14.3281 12.1559 16.0442 12.1559 18.1603C12.1559 20.2781 13.9467 21.9941 16.1549 21.9941C18.3631 21.9941 20.1531 20.2781 20.1531 18.1603C20.1531 16.045 18.3622 14.3281 16.1549 14.3281ZM16.1549 19.8721C15.1704 19.8721 14.3711 19.1058 14.3711 18.1611C14.3711 17.2181 15.1704 16.4518 16.1549 16.4518C17.1394 16.4518 17.9387 17.2181 17.9387 18.1611C17.9387 19.1058 17.1394 19.8721 16.1549 19.8721Z" fill="#4F4F4F"/>
<path d="M43.5915 10.2667L40.2691 8.95156L37.8863 3.30017C37.7849 3.06082 37.5423 2.90351 37.2732 2.90351H30.6946V1.47501C30.6946 0.660541 30.0056 0 29.1569 0H8.80265C7.95308 0 7.26408 0.660541 7.26408 1.47501V2.36222H3.08772C2.72249 2.36222 2.42607 2.64639 2.42607 2.99654C2.42607 3.34669 2.72249 3.63086 3.08772 3.63086H16.5281C16.8934 3.63086 17.1898 3.91504 17.1898 4.26519C17.1898 4.61533 16.8934 4.89951 16.5281 4.89951H7.26408V6.27387H0.661654C0.296421 6.27387 0 6.55805 0 6.9082C0 7.25834 0.296421 7.54252 0.661654 7.54252H14.874C15.2392 7.54252 15.5356 7.8267 15.5356 8.17684C15.5356 8.52699 15.2392 8.81116 14.874 8.81116H7.26408V10.1855H3.96992C3.60469 10.1855 3.30827 10.4697 3.30827 10.8199C3.30827 11.17 3.60469 11.4542 3.96992 11.4542H13.2199C13.5851 11.4542 13.8815 11.7384 13.8815 12.0885C13.8815 12.4386 13.5851 12.7228 13.2199 12.7228H7.26408V16.714C7.26408 17.5285 7.95308 18.189 8.80265 18.189H10.9561C10.9561 18.1805 10.9552 18.1738 10.9552 18.1662C10.9552 15.4436 13.2578 13.237 16.0985 13.237C18.9392 13.237 21.2409 15.4436 21.2409 18.1662C21.2409 18.1746 21.24 18.1814 21.24 18.189H33.2353C33.2477 20.2949 35.0315 22 37.2317 22C39.4319 22 41.2158 20.2949 41.2281 18.189H43.3383C43.7036 18.189 44 17.9048 44 17.5547V10.8528C44 10.5966 43.8394 10.3657 43.5915 10.2667ZM37.2326 19.8771C36.2481 19.8771 35.4488 19.1109 35.4488 18.1662C35.4488 17.2231 36.2481 16.4569 37.2326 16.4569C38.2171 16.4569 39.0164 17.2231 39.0164 18.1662C39.0164 19.1109 38.2171 19.8771 37.2326 19.8771ZM42.6767 16.9203H40.9961C40.4544 15.4191 38.982 14.3332 37.2317 14.3332C35.4814 14.3332 34.009 15.4191 33.4682 16.9203H30.6937V4.173H36.8259L39.147 9.67553C39.2132 9.83285 39.3437 9.95802 39.5069 10.024L42.6767 11.2774V16.9203Z" fill="#4F4F4F"/>
</svg>
