<svg width="46" height="41" viewBox="0 0 46 41" fill="none" xmlns="http://www.w3.org/2000/svg">
<path d="M27.2791 0.848145L11.7006 11.7522H0V29.4064H11.7006L27.2791 40.3105V0.848145ZM38.4281 6.02433C38.1964 6.03772 37.9756 6.12384 37.7987 6.26973C37.6219 6.41561 37.4988 6.61334 37.4478 6.8331C37.3969 7.05286 37.421 7.28274 37.5164 7.48808C37.6118 7.69342 37.7733 7.86308 37.9767 7.97149C41.2399 9.77496 43.8605 14.6833 43.8605 20.5793C43.8605 26.4753 41.24 31.3674 37.9767 33.1709C37.7321 33.3093 37.5539 33.5361 37.4811 33.8018C37.4083 34.0674 37.4468 34.3502 37.5882 34.5883C37.7297 34.8264 37.9625 35.0005 38.2358 35.0724C38.5091 35.1443 38.8006 35.1082 39.0465 34.972C43.2789 32.6329 46 27.0556 46 20.5793C46 14.103 43.2789 8.50949 39.0465 6.17037C38.8604 6.06191 38.6447 6.01098 38.4281 6.02433ZM32.8452 10.1783C32.6122 10.1885 32.3891 10.2723 32.2097 10.417C32.0304 10.5617 31.9046 10.7593 31.8516 10.9798C31.7986 11.2003 31.8213 11.4315 31.9162 11.6383C32.0111 11.8451 32.1729 12.0162 32.3772 12.1254C34.3866 13.2787 36.1381 16.576 36.1381 20.5793C36.1381 24.5827 34.3866 27.8637 32.3772 29.017C32.2547 29.0859 32.1474 29.1776 32.0615 29.2869C31.9756 29.3962 31.9128 29.5208 31.8766 29.6538C31.8405 29.7867 31.8318 29.9252 31.851 30.0614C31.8702 30.1976 31.9169 30.3287 31.9884 30.4474C32.06 30.566 32.155 30.6697 32.2679 30.7526C32.3809 30.8354 32.5096 30.8958 32.6467 30.9303C32.7838 30.9647 32.9265 30.9726 33.0667 30.9533C33.2069 30.9341 33.3418 30.8881 33.4637 30.8181C36.4513 29.1034 38.2776 25.1415 38.2776 20.5793C38.2776 16.0172 36.4513 12.039 33.4637 10.3243C33.2775 10.2158 33.0618 10.1649 32.8452 10.1783Z" fill="#4F4F4F"/>
</svg>
