<?xml version="1.0" encoding="iso-8859-1"?>
<!-- Generator: Adobe Illustrator 19.0.0, SVG Export Plug-In . SVG Version: 6.00 Build 0)  -->
<svg version="1.1" id="Layer_1" xmlns="http://www.w3.org/2000/svg" xmlns:xlink="http://www.w3.org/1999/xlink" x="0px" y="0px"
	 viewBox="0 0 472.614 472.614" style="enable-background:new 0 0 472.614 472.614;" xml:space="preserve">
<g>
	<g>
		<path d="M19.692,139.213C8.817,139.213,0,148.03,0,158.905v154.812c0,10.875,8.817,19.692,19.692,19.692h99.438V139.213H19.692z"
			/>
	</g>
</g>
<g>
	<g>
		<polygon points="138.822,124.864 138.822,347.75 293.396,460.359 293.396,12.256 		"/>
	</g>
</g>
<g>
	<g>
		<path d="M405.999,75.251l-13.922,13.922c39.235,39.241,60.845,91.49,60.845,147.135c0,55.645-21.61,107.894-60.845,147.134
			l13.922,13.923c42.957-42.952,66.615-100.154,66.615-161.057C472.614,175.404,448.956,118.203,405.999,75.251z"/>
	</g>
</g>
<g>
	<g>
		<path d="M350.321,129.934l-13.922,13.922c50.971,50.981,50.971,133.923,0,184.904l13.922,13.923
			C408.976,284.03,408.976,188.587,350.321,129.934z"/>
	</g>
</g>
<g>
</g>
<g>
</g>
<g>
</g>
<g>
</g>
<g>
</g>
<g>
</g>
<g>
</g>
<g>
</g>
<g>
</g>
<g>
</g>
<g>
</g>
<g>
</g>
<g>
</g>
<g>
</g>
<g>
</g>
</svg>
