<svg width="45" height="12" viewBox="0 0 45 12" fill="none" xmlns="http://www.w3.org/2000/svg">
<path d="M6.80114 3.36364C6.74148 2.85985 6.49953 2.46875 6.07528 2.19034C5.65104 1.91193 5.13068 1.77273 4.5142 1.77273C4.06345 1.77273 3.66903 1.84564 3.33097 1.99148C2.99621 2.13731 2.73438 2.33783 2.54545 2.59304C2.35985 2.84825 2.26705 3.13826 2.26705 3.46307C2.26705 3.73485 2.33168 3.96851 2.46094 4.16406C2.59351 4.3563 2.76255 4.51705 2.96804 4.64631C3.17353 4.77225 3.38897 4.87666 3.61435 4.95952C3.83973 5.03906 4.04688 5.10369 4.2358 5.15341L5.26989 5.43182C5.53504 5.50142 5.83002 5.59754 6.15483 5.72017C6.48295 5.8428 6.79616 6.01018 7.09446 6.2223C7.39607 6.43111 7.64465 6.69957 7.8402 7.0277C8.03575 7.35582 8.13352 7.75852 8.13352 8.2358C8.13352 8.78598 7.98935 9.28314 7.70099 9.72727C7.41596 10.1714 6.99834 10.5244 6.44815 10.7862C5.90128 11.0481 5.23674 11.179 4.45455 11.179C3.72538 11.179 3.09399 11.0613 2.56037 10.826C2.03007 10.5907 1.61245 10.2625 1.30753 9.84162C1.00592 9.42069 0.835227 8.93182 0.795455 8.375H2.06818C2.10133 8.75947 2.23059 9.07765 2.45597 9.32955C2.68466 9.57812 2.97301 9.76373 3.32102 9.88636C3.67235 10.0057 4.05019 10.0653 4.45455 10.0653C4.92519 10.0653 5.34777 9.98911 5.7223 9.83665C6.09683 9.68087 6.39347 9.46544 6.61222 9.19034C6.83097 8.91193 6.94034 8.58712 6.94034 8.21591C6.94034 7.87784 6.84588 7.60275 6.65696 7.39062C6.46804 7.1785 6.21946 7.00616 5.91122 6.87358C5.60298 6.741 5.26989 6.625 4.91193 6.52557L3.65909 6.16761C2.86364 5.93892 2.2339 5.61245 1.76989 5.18821C1.30587 4.76397 1.07386 4.20881 1.07386 3.52273C1.07386 2.95265 1.22798 2.45549 1.53622 2.03125C1.84777 1.60369 2.26539 1.27225 2.78906 1.03693C3.31605 0.798295 3.90436 0.678977 4.55398 0.678977C5.21023 0.678977 5.79356 0.796638 6.30398 1.03196C6.81439 1.26397 7.21875 1.58215 7.51705 1.98651C7.81866 2.39086 7.97775 2.8499 7.99432 3.36364H6.80114ZM10.1607 11V0.818182H13.601C14.3998 0.818182 15.0527 0.962358 15.5598 1.25071C16.0703 1.53575 16.4481 1.92188 16.6934 2.40909C16.9386 2.89631 17.0613 3.43987 17.0613 4.03977C17.0613 4.63968 16.9386 5.1849 16.6934 5.67543C16.4514 6.16596 16.0769 6.55705 15.5698 6.84872C15.0627 7.13707 14.4131 7.28125 13.6209 7.28125H11.155V6.1875H13.5811C14.128 6.1875 14.5672 6.09304 14.8986 5.90412C15.2301 5.7152 15.4703 5.45999 15.6195 5.13849C15.772 4.81368 15.8482 4.44744 15.8482 4.03977C15.8482 3.6321 15.772 3.26752 15.6195 2.94602C15.4703 2.62453 15.2284 2.37263 14.8936 2.19034C14.5589 2.00473 14.1148 1.91193 13.5613 1.91193H11.3936V11H10.1607ZM19.0474 11V0.818182H25.1923V1.91193H20.2804V5.35227H24.8741V6.44602H20.2804V9.90625H25.2718V11H19.0474ZM35.6078 4H34.3748C34.3019 3.64536 34.1743 3.33381 33.992 3.06534C33.813 2.79688 33.5943 2.5715 33.3358 2.3892C33.0806 2.2036 32.7972 2.06439 32.4856 1.97159C32.1741 1.87879 31.8493 1.83239 31.5112 1.83239C30.8947 1.83239 30.3362 1.98816 29.8358 2.29972C29.3386 2.61127 28.9425 3.07031 28.6475 3.67685C28.3559 4.28338 28.21 5.02746 28.21 5.90909C28.21 6.79072 28.3559 7.5348 28.6475 8.14134C28.9425 8.74787 29.3386 9.20691 29.8358 9.51847C30.3362 9.83002 30.8947 9.9858 31.5112 9.9858C31.8493 9.9858 32.1741 9.93939 32.4856 9.84659C32.7972 9.75379 33.0806 9.61624 33.3358 9.43395C33.5943 9.24834 33.813 9.02131 33.992 8.75284C34.1743 8.48106 34.3019 8.16951 34.3748 7.81818H35.6078C35.515 8.33854 35.3459 8.80421 35.1007 9.2152C34.8554 9.62618 34.5505 9.97585 34.1859 10.2642C33.8213 10.5492 33.412 10.7663 32.9579 10.9155C32.5072 11.0646 32.0249 11.1392 31.5112 11.1392C30.6428 11.1392 29.8706 10.9271 29.1944 10.5028C28.5183 10.0786 27.9863 9.47538 27.5985 8.69318C27.2108 7.91098 27.0169 6.98295 27.0169 5.90909C27.0169 4.83523 27.2108 3.9072 27.5985 3.125C27.9863 2.3428 28.5183 1.73958 29.1944 1.31534C29.8706 0.891098 30.6428 0.678977 31.5112 0.678977C32.0249 0.678977 32.5072 0.753551 32.9579 0.902699C33.412 1.05185 33.8213 1.2706 34.1859 1.55895C34.5505 1.84399 34.8554 2.192 35.1007 2.60298C35.3459 3.01065 35.515 3.47633 35.6078 4ZM43.1683 3.36364C43.1087 2.85985 42.8667 2.46875 42.4425 2.19034C42.0182 1.91193 41.4979 1.77273 40.8814 1.77273C40.4306 1.77273 40.0362 1.84564 39.6982 1.99148C39.3634 2.13731 39.1016 2.33783 38.9126 2.59304C38.727 2.84825 38.6342 3.13826 38.6342 3.46307C38.6342 3.73485 38.6989 3.96851 38.8281 4.16406C38.9607 4.3563 39.1297 4.51705 39.3352 4.64631C39.5407 4.77225 39.7562 4.87666 39.9815 4.95952C40.2069 5.03906 40.4141 5.10369 40.603 5.15341L41.6371 5.43182C41.9022 5.50142 42.1972 5.59754 42.522 5.72017C42.8501 5.8428 43.1634 6.01018 43.4616 6.2223C43.7633 6.43111 44.0118 6.69957 44.2074 7.0277C44.4029 7.35582 44.5007 7.75852 44.5007 8.2358C44.5007 8.78598 44.3565 9.28314 44.0682 9.72727C43.7831 10.1714 43.3655 10.5244 42.8153 10.7862C42.2685 11.0481 41.6039 11.179 40.8217 11.179C40.0926 11.179 39.4612 11.0613 38.9276 10.826C38.3973 10.5907 37.9796 10.2625 37.6747 9.84162C37.3731 9.42069 37.2024 8.93182 37.1626 8.375H38.4354C38.4685 8.75947 38.5978 9.07765 38.8232 9.32955C39.0518 9.57812 39.3402 9.76373 39.6882 9.88636C40.0395 10.0057 40.4174 10.0653 40.8217 10.0653C41.2924 10.0653 41.715 9.98911 42.0895 9.83665C42.464 9.68087 42.7607 9.46544 42.9794 9.19034C43.1982 8.91193 43.3075 8.58712 43.3075 8.21591C43.3075 7.87784 43.2131 7.60275 43.0241 7.39062C42.8352 7.1785 42.5866 7.00616 42.2784 6.87358C41.9702 6.741 41.6371 6.625 41.2791 6.52557L40.0263 6.16761C39.2308 5.93892 38.6011 5.61245 38.1371 5.18821C37.6731 4.76397 37.4411 4.20881 37.4411 3.52273C37.4411 2.95265 37.5952 2.45549 37.9034 2.03125C38.215 1.60369 38.6326 1.27225 39.1562 1.03693C39.6832 0.798295 40.2715 0.678977 40.9212 0.678977C41.5774 0.678977 42.1607 0.796638 42.6712 1.03196C43.1816 1.26397 43.5859 1.58215 43.8842 1.98651C44.1858 2.39086 44.3449 2.8499 44.3615 3.36364H43.1683Z" fill="#4F4F4F"/>
</svg>
