<svg width="99" height="48" viewBox="0 0 99 48" fill="none" xmlns="http://www.w3.org/2000/svg">
<path d="M31.8011 20.3636C31.7415 19.8598 31.4995 19.4688 31.0753 19.1903C30.651 18.9119 30.1307 18.7727 29.5142 18.7727C29.0634 18.7727 28.669 18.8456 28.331 18.9915C27.9962 19.1373 27.7344 19.3378 27.5455 19.593C27.3598 19.8482 27.267 20.1383 27.267 20.4631C27.267 20.7348 27.3317 20.9685 27.4609 21.1641C27.5935 21.3563 27.7625 21.517 27.968 21.6463C28.1735 21.7723 28.389 21.8767 28.6143 21.9595C28.8397 22.0391 29.0469 22.1037 29.2358 22.1534L30.2699 22.4318C30.535 22.5014 30.83 22.5975 31.1548 22.7202C31.483 22.8428 31.7962 23.0102 32.0945 23.2223C32.3961 23.4311 32.6446 23.6996 32.8402 24.0277C33.0357 24.3558 33.1335 24.7585 33.1335 25.2358C33.1335 25.786 32.9893 26.2831 32.701 26.7273C32.416 27.1714 31.9983 27.5244 31.4482 27.7862C30.9013 28.0481 30.2367 28.179 29.4545 28.179C28.7254 28.179 28.094 28.0613 27.5604 27.826C27.0301 27.5907 26.6125 27.2625 26.3075 26.8416C26.0059 26.4207 25.8352 25.9318 25.7955 25.375H27.0682C27.1013 25.7595 27.2306 26.0777 27.456 26.3295C27.6847 26.5781 27.973 26.7637 28.321 26.8864C28.6723 27.0057 29.0502 27.0653 29.4545 27.0653C29.9252 27.0653 30.3478 26.9891 30.7223 26.8366C31.0968 26.6809 31.3935 26.4654 31.6122 26.1903C31.831 25.9119 31.9403 25.5871 31.9403 25.2159C31.9403 24.8778 31.8459 24.6027 31.657 24.3906C31.468 24.1785 31.2195 24.0062 30.9112 23.8736C30.603 23.741 30.2699 23.625 29.9119 23.5256L28.6591 23.1676C27.8636 22.9389 27.2339 22.6125 26.7699 22.1882C26.3059 21.764 26.0739 21.2088 26.0739 20.5227C26.0739 19.9527 26.228 19.4555 26.5362 19.0312C26.8478 18.6037 27.2654 18.2723 27.7891 18.0369C28.3161 17.7983 28.9044 17.679 29.554 17.679C30.2102 17.679 30.7936 17.7966 31.304 18.032C31.8144 18.264 32.2188 18.5821 32.517 18.9865C32.8187 19.3909 32.9777 19.8499 32.9943 20.3636H31.8011ZM35.1607 28V17.8182H38.601C39.3998 17.8182 40.0527 17.9624 40.5598 18.2507C41.0703 18.5357 41.4481 18.9219 41.6934 19.4091C41.9386 19.8963 42.0613 20.4399 42.0613 21.0398C42.0613 21.6397 41.9386 22.1849 41.6934 22.6754C41.4514 23.166 41.0769 23.5571 40.5698 23.8487C40.0627 24.1371 39.4131 24.2812 38.6209 24.2812H36.155V23.1875H38.5811C39.128 23.1875 39.5672 23.093 39.8986 22.9041C40.2301 22.7152 40.4703 22.46 40.6195 22.1385C40.772 21.8137 40.8482 21.4474 40.8482 21.0398C40.8482 20.6321 40.772 20.2675 40.6195 19.946C40.4703 19.6245 40.2284 19.3726 39.8936 19.1903C39.5589 19.0047 39.1148 18.9119 38.5613 18.9119H36.3936V28H35.1607ZM44.0474 28V17.8182H50.1923V18.9119H45.2804V22.3523H49.8741V23.446H45.2804V26.9062H50.2718V28H44.0474ZM60.6078 21H59.3748C59.3019 20.6454 59.1743 20.3338 58.992 20.0653C58.813 19.7969 58.5943 19.5715 58.3358 19.3892C58.0806 19.2036 57.7972 19.0644 57.4856 18.9716C57.1741 18.8788 56.8493 18.8324 56.5112 18.8324C55.8947 18.8324 55.3362 18.9882 54.8358 19.2997C54.3386 19.6113 53.9425 20.0703 53.6475 20.6768C53.3559 21.2834 53.21 22.0275 53.21 22.9091C53.21 23.7907 53.3559 24.5348 53.6475 25.1413C53.9425 25.7479 54.3386 26.2069 54.8358 26.5185C55.3362 26.83 55.8947 26.9858 56.5112 26.9858C56.8493 26.9858 57.1741 26.9394 57.4856 26.8466C57.7972 26.7538 58.0806 26.6162 58.3358 26.4339C58.5943 26.2483 58.813 26.0213 58.992 25.7528C59.1743 25.4811 59.3019 25.1695 59.3748 24.8182H60.6078C60.515 25.3385 60.3459 25.8042 60.1007 26.2152C59.8554 26.6262 59.5505 26.9759 59.1859 27.2642C58.8213 27.5492 58.412 27.7663 57.9579 27.9155C57.5072 28.0646 57.0249 28.1392 56.5112 28.1392C55.6428 28.1392 54.8706 27.9271 54.1944 27.5028C53.5183 27.0786 52.9863 26.4754 52.5985 25.6932C52.2108 24.911 52.0169 23.983 52.0169 22.9091C52.0169 21.8352 52.2108 20.9072 52.5985 20.125C52.9863 19.3428 53.5183 18.7396 54.1944 18.3153C54.8706 17.8911 55.6428 17.679 56.5112 17.679C57.0249 17.679 57.5072 17.7536 57.9579 17.9027C58.412 18.0518 58.8213 18.2706 59.1859 18.5589C59.5505 18.844 59.8554 19.192 60.1007 19.603C60.3459 20.0107 60.515 20.4763 60.6078 21ZM68.1683 20.3636C68.1087 19.8598 67.8667 19.4688 67.4425 19.1903C67.0182 18.9119 66.4979 18.7727 65.8814 18.7727C65.4306 18.7727 65.0362 18.8456 64.6982 18.9915C64.3634 19.1373 64.1016 19.3378 63.9126 19.593C63.727 19.8482 63.6342 20.1383 63.6342 20.4631C63.6342 20.7348 63.6989 20.9685 63.8281 21.1641C63.9607 21.3563 64.1297 21.517 64.3352 21.6463C64.5407 21.7723 64.7562 21.8767 64.9815 21.9595C65.2069 22.0391 65.4141 22.1037 65.603 22.1534L66.6371 22.4318C66.9022 22.5014 67.1972 22.5975 67.522 22.7202C67.8501 22.8428 68.1634 23.0102 68.4616 23.2223C68.7633 23.4311 69.0118 23.6996 69.2074 24.0277C69.4029 24.3558 69.5007 24.7585 69.5007 25.2358C69.5007 25.786 69.3565 26.2831 69.0682 26.7273C68.7831 27.1714 68.3655 27.5244 67.8153 27.7862C67.2685 28.0481 66.6039 28.179 65.8217 28.179C65.0926 28.179 64.4612 28.0613 63.9276 27.826C63.3973 27.5907 62.9796 27.2625 62.6747 26.8416C62.3731 26.4207 62.2024 25.9318 62.1626 25.375H63.4354C63.4685 25.7595 63.5978 26.0777 63.8232 26.3295C64.0518 26.5781 64.3402 26.7637 64.6882 26.8864C65.0395 27.0057 65.4174 27.0653 65.8217 27.0653C66.2924 27.0653 66.715 26.9891 67.0895 26.8366C67.464 26.6809 67.7607 26.4654 67.9794 26.1903C68.1982 25.9119 68.3075 25.5871 68.3075 25.2159C68.3075 24.8778 68.2131 24.6027 68.0241 24.3906C67.8352 24.1785 67.5866 24.0062 67.2784 23.8736C66.9702 23.741 66.6371 23.625 66.2791 23.5256L65.0263 23.1676C64.2308 22.9389 63.6011 22.6125 63.1371 22.1882C62.6731 21.764 62.4411 21.2088 62.4411 20.5227C62.4411 19.9527 62.5952 19.4555 62.9034 19.0312C63.215 18.6037 63.6326 18.2723 64.1562 18.0369C64.6832 17.7983 65.2715 17.679 65.9212 17.679C66.5774 17.679 67.1607 17.7966 67.6712 18.032C68.1816 18.264 68.5859 18.5821 68.8842 18.9865C69.1858 19.3909 69.3449 19.8499 69.3615 20.3636H68.1683Z" fill="#4F4F4F"/>
</svg>
