<svg width="94" height="48" viewBox="0 0 94 48" fill="none" xmlns="http://www.w3.org/2000/svg">
<path d="M45.4741 13.8259H93.1449V12.8259H45.4741V13.8259Z" fill="#333333"/>
<path d="M75.272 2.02126L93.0336 13.8258L93.4741 12.6304L75.7125 0.825928L75.272 2.02126Z" fill="#333333"/>
<path d="M48.4741 1.82593L0.803382 1.82593L0.803382 2.90285L48.4741 2.90285V1.82593Z" fill="#0C797A"/>
<path d="M18.6763 14.5386L0.91463 1.82609L0.474121 3.11337L18.2358 15.8259L18.6763 14.5386Z" fill="#0C797A"/>
<path d="M49.146 36.4509L46.5679 46.0291H45.7241L48.3022 36.4509H49.146Z" fill="#0C797A"/>
<path d="M29.4741 41.985C28.6181 41.985 27.8889 41.7521 27.2866 41.2862C26.6843 40.8165 26.2241 40.1365 25.9059 39.2464C25.5878 38.3524 25.4287 37.2729 25.4287 36.0077C25.4287 34.7502 25.5878 33.6763 25.9059 32.7862C26.2279 31.8922 26.69 31.2104 27.2923 30.7407C27.8984 30.2672 28.6256 30.0305 29.4741 30.0305C30.3226 30.0305 31.048 30.2672 31.6503 30.7407C32.2563 31.2104 32.7184 31.8922 33.0366 32.7862C33.3586 33.6763 33.5196 34.7502 33.5196 36.0077C33.5196 37.2729 33.3605 38.3524 33.0423 39.2464C32.7241 40.1365 32.2639 40.8165 31.6616 41.2862C31.0593 41.7521 30.3302 41.985 29.4741 41.985ZM29.4741 40.735C30.3226 40.735 30.9817 40.3259 31.4514 39.5077C31.9211 38.6896 32.1559 37.5229 32.1559 36.0077C32.1559 35.0002 32.048 34.1422 31.8321 33.4339C31.62 32.7255 31.3131 32.1858 30.9116 31.8146C30.5139 31.4434 30.0347 31.2577 29.4741 31.2577C28.6332 31.2577 27.976 31.6725 27.5025 32.5021C27.029 33.3278 26.7923 34.4964 26.7923 36.0077C26.7923 37.0153 26.8984 37.8714 27.1105 38.5759C27.3226 39.2805 27.6275 39.8165 28.0253 40.1839C28.4268 40.5513 28.9097 40.735 29.4741 40.735ZM39.7696 30.1896V41.8259H38.3605V31.6668H38.2923L35.4514 33.5532V32.1214L38.3605 30.1896H39.7696Z" fill="#333333"/>
<path d="M56.9116 45.9353C56.3231 45.9353 55.8218 45.7751 55.4077 45.4548C54.9937 45.1319 54.6772 44.6645 54.4585 44.0525C54.2397 43.4379 54.1304 42.6957 54.1304 41.8259C54.1304 40.9613 54.2397 40.2231 54.4585 39.6111C54.6799 38.9965 54.9976 38.5278 55.4116 38.2048C55.8283 37.8793 56.3283 37.7166 56.9116 37.7166C57.495 37.7166 57.9937 37.8793 58.4077 38.2048C58.8244 38.5278 59.1421 38.9965 59.3608 39.6111C59.5822 40.2231 59.6929 40.9613 59.6929 41.8259C59.6929 42.6957 59.5835 43.4379 59.3647 44.0525C59.146 44.6645 58.8296 45.1319 58.4155 45.4548C58.0015 45.7751 57.5002 45.9353 56.9116 45.9353ZM56.9116 45.0759C57.495 45.0759 57.9481 44.7947 58.271 44.2322C58.5939 43.6697 58.7554 42.8676 58.7554 41.8259C58.7554 41.1332 58.6812 40.5434 58.5327 40.0564C58.3869 39.5694 58.1759 39.1983 57.8999 38.9431C57.6265 38.6879 57.297 38.5603 56.9116 38.5603C56.3335 38.5603 55.8817 38.8455 55.5562 39.4158C55.2306 39.9835 55.0679 40.7869 55.0679 41.8259C55.0679 42.5186 55.1408 43.1072 55.2866 43.5916C55.4325 44.0759 55.6421 44.4444 55.9155 44.697C56.1916 44.9496 56.5236 45.0759 56.9116 45.0759ZM63.8804 45.9353C63.3647 45.9353 62.9051 45.8468 62.5015 45.6697C62.1004 45.4926 61.7814 45.2465 61.5444 44.9314C61.3101 44.6137 61.1825 44.2452 61.1616 43.8259H62.146C62.1668 44.0837 62.2554 44.3064 62.4116 44.4939C62.5679 44.6788 62.7723 44.822 63.0249 44.9236C63.2775 45.0251 63.5575 45.0759 63.8647 45.0759C64.2085 45.0759 64.5132 45.016 64.7788 44.8962C65.0444 44.7764 65.2528 44.6098 65.4038 44.3962C65.5549 44.1827 65.6304 43.9353 65.6304 43.6541C65.6304 43.3598 65.5575 43.1007 65.4116 42.8767C65.2658 42.6501 65.0522 42.4731 64.771 42.3455C64.4897 42.2179 64.146 42.1541 63.7397 42.1541H63.0991V41.2947H63.7397C64.0575 41.2947 64.3361 41.2374 64.5757 41.1228C64.8179 41.0082 65.0067 40.8468 65.1421 40.6384C65.2801 40.4301 65.3491 40.1853 65.3491 39.9041C65.3491 39.6332 65.2892 39.3975 65.1694 39.197C65.0496 38.9965 64.8804 38.8403 64.6616 38.7283C64.4455 38.6163 64.1903 38.5603 63.896 38.5603C63.62 38.5603 63.3595 38.6111 63.1147 38.7126C62.8726 38.8116 62.6746 38.9561 62.521 39.1462C62.3674 39.3337 62.284 39.5603 62.271 39.8259H61.3335C61.3491 39.4067 61.4754 39.0395 61.7124 38.7244C61.9494 38.4067 62.2593 38.1593 62.6421 37.9822C63.0275 37.8051 63.4507 37.7166 63.9116 37.7166C64.4064 37.7166 64.8309 37.8168 65.1851 38.0173C65.5392 38.2153 65.8114 38.477 66.0015 38.8025C66.1916 39.128 66.2866 39.4796 66.2866 39.8572C66.2866 40.3077 66.1681 40.6918 65.9312 41.0095C65.6968 41.3272 65.3778 41.5473 64.9741 41.6697V41.7322C65.4793 41.8155 65.8739 42.0304 66.1577 42.3767C66.4416 42.7205 66.5835 43.1462 66.5835 43.6541C66.5835 44.0889 66.465 44.4796 66.228 44.8259C65.9937 45.1697 65.6733 45.4405 65.2671 45.6384C64.8608 45.8363 64.3986 45.9353 63.8804 45.9353Z" fill="#0C797A"/>
</svg>
