<svg xmlns="http://www.w3.org/2000/svg">
  <symbol id="facebook" viewBox="0 0 11 20">
    <path d="M7.33333 7.24969H11V10.7896H7.33333V19.0493H3.66667V10.7896H0V7.24969H3.66667V5.76884C3.66667 4.36587 4.12378 2.59356 5.03311 1.62481C5.94244 0.653706 7.07789 0.169922 8.43822 0.169922H11V3.70981H8.43333C7.82467 3.70981 7.33333 4.18415 7.33333 4.77059V7.24969Z"/>
  </symbol>

  <symbol id="twitter" viewBox="0 0 512 512">
    <path d="M512,97.248c-19.04,8.352-39.328,13.888-60.48,16.576c21.76-12.992,38.368-33.408,46.176-58.016
			c-20.288,12.096-42.688,20.64-66.56,25.408C411.872,60.704,384.416,48,354.464,48c-58.112,0-104.896,47.168-104.896,104.992
			c0,8.32,0.704,16.32,2.432,23.936c-87.264-4.256-164.48-46.08-216.352-109.792c-9.056,15.712-14.368,33.696-14.368,53.056
			c0,36.352,18.72,68.576,46.624,87.232c-16.864-0.32-33.408-5.216-47.424-12.928c0,0.32,0,0.736,0,1.152
			c0,51.008,36.384,93.376,84.096,103.136c-8.544,2.336-17.856,3.456-27.52,3.456c-6.72,0-13.504-0.384-19.872-1.792
			c13.6,41.568,52.192,72.128,98.08,73.12c-35.712,27.936-81.056,44.768-130.144,44.768c-8.608,0-16.864-0.384-25.12-1.44
			C46.496,446.88,101.6,464,161.024,464c193.152,0,298.752-160,298.752-298.688c0-4.64-0.16-9.12-0.384-13.568
			C480.224,136.96,497.728,118.496,512,97.248z"/>
  </symbol>

  <symbol id="instagram" viewBox="0 0 18 19">
    <path d="M15 0.163086H3C1.3 0.163086 0 1.45487 0 3.14412V15.0683C0 16.7575 1.3 18.0493 3 18.0493H15C16.7 18.0493 18 16.7575 18 15.0683V3.14412C18 1.45487 16.7 0.163086 15 0.163086ZM9 6.12516C10.7 6.12516 12 7.41695 12 9.1062C12 10.7955 10.7 12.0872 9 12.0872C7.3 12.0872 6 10.7955 6 9.1062C6 7.41695 7.3 6.12516 9 6.12516ZM12.8 4.1378C12.8 3.44223 13.4 2.94539 14 2.94539C14.6 2.94539 15.2 3.5416 15.2 4.1378C15.2 4.73401 14.7 5.33022 14 5.33022C13.3 5.33022 12.8 4.83338 12.8 4.1378ZM15 16.062H3C2.4 16.062 2 15.6645 2 15.0683V9.1062H4C4 11.8885 6.2 14.0746 9 14.0746C11.8 14.0746 14 11.8885 14 9.1062H16V15.0683C16 15.6645 15.6 16.062 15 16.062Z"/>
  </symbol>
</svg>
