<svg width="0" height="0" class="hidden">
  <linearGradient id="gradient" x1='1' x2='0' y2='1'>
  <stop offset='.088' stop-color='#75429D'/>
  <stop offset='.343' stop-color='#B63282'/>
  <stop offset='.525' stop-color='#E2102D'/>
  <stop offset='.731' stop-color='#F46802'/>
  <stop offset='.917' stop-color='#EFC300'/>
  </linearGradient>
  <symbol viewBox="0 0 18 18" xmlns="http://www.w3.org/2000/svg" id="instagram">
    <path d="M15 0H3C1.3 0 0 1.3 0 3v12c0 1.7 1.3 3 3 3h12c1.7 0 3-1.3 3-3V3c0-1.7-1.3-3-3-3zM9 6c1.7 0 3 1.3 3 3s-1.3 3-3 3-3-1.3-3-3 1.3-3 3-3zm3.8-2c0-.7.6-1.2 1.2-1.2s1.2.6 1.2 1.2-.5 1.2-1.2 1.2-1.2-.5-1.2-1.2zM15 16H3c-.6 0-1-.4-1-1V9h2c0 2.8 2.2 5 5 5s5-2.2 5-5h2v6c0 .6-.4 1-1 1z"></path>
  </symbol>
  <symbol viewBox="0 0 22 17" xmlns="http://www.w3.org/2000/svg" id="twitter">
    <path d="M19.421 2.693c.988-.577 1.642-1.366 1.962-2.368a10.95 10.95 0 0 1-2.873 1.002C17.65.447 16.563 0 15.258 0c-1.275 0-2.352.426-3.23 1.255-.425.394-.76.866-.987 1.387a3.975 3.975 0 0 0-.329 1.646c0 .36.048.681.143.954-3.759-.123-6.87-1.608-9.322-4.468-.416.7-.623 1.413-.623 2.15 0 1.514.67 2.715 2.01 3.596-.764-.062-1.437-.246-2.01-.547 0 1.082.333 1.985 1.002 2.78a4.468 4.468 0 0 0 2.585 1.503 5.047 5.047 0 0 1-1.197.138c-.381 0-.651-.03-.811-.097a4.12 4.12 0 0 0 1.577 2.144 4.607 4.607 0 0 0 2.63.865c-1.628 1.216-3.489 1.818-5.595 1.818-.515 0-.88-.007-1.102-.044C2.074 16.363 4.383 17 6.937 17c2.614 0 4.924-.631 6.934-1.893 2.01-1.255 3.495-2.804 4.448-4.627a12.06 12.06 0 0 0 1.432-5.696V4.24A9.277 9.277 0 0 0 22 2.003c-.823.34-1.69.572-2.579.69z"></path>
  </symbol>
  <symbol viewBox="0 0 11 19" xmlns="http://www.w3.org/2000/svg" id="facebook">
    <path d="M7.333 7.125H11v3.563H7.333V19H3.667v-8.313H0V7.126h3.667v-1.49c0-1.412.457-3.196 1.366-4.17C5.943.486 7.078 0 8.438 0H11v3.563H8.433c-.608 0-1.1.477-1.1 1.067v2.495z"></path>
  </symbol>
</svg>