<svg width="582" height="52" viewBox="0 0 582 52" fill="none" xmlns="http://www.w3.org/2000/svg">
<circle cx="87" cy="8" r="6" fill="#4F4F4F"/>
<circle cx="291" cy="8" r="6" fill="#4F4F4F"/>
<circle cx="495" cy="8" r="7.5" stroke="#4F4F4F"/>
<circle cx="495" cy="8" r="6" fill="#4F4F4F"/>
<path d="M74.5843 40.208C74.4989 39.8773 74.3816 39.5733 74.2323 39.296C74.0829 39.0187 73.8909 38.7787 73.6562 38.576C73.4216 38.3733 73.1443 38.2187 72.8243 38.112C72.5149 37.9947 72.1523 37.936 71.7363 37.936C71.1283 37.936 70.6003 38.0587 70.1523 38.304C69.7149 38.5493 69.3576 38.88 69.0803 39.296C68.8029 39.7013 68.5949 40.1653 68.4563 40.688C68.3283 41.2107 68.2643 41.744 68.2643 42.288C68.2643 42.832 68.3283 43.3653 68.4563 43.888C68.5949 44.4107 68.8029 44.88 69.0803 45.296C69.3576 45.7013 69.7149 46.0267 70.1523 46.272C70.6003 46.5173 71.1283 46.64 71.7363 46.64C72.1843 46.64 72.5789 46.5653 72.9203 46.416C73.2616 46.256 73.5549 46.0427 73.8003 45.776C74.0456 45.4987 74.2376 45.1787 74.3763 44.816C74.5149 44.4533 74.6056 44.064 74.6483 43.648H76.6003C76.5576 44.3307 76.4083 44.9547 76.1523 45.52C75.9069 46.0853 75.5709 46.576 75.1443 46.992C74.7176 47.3973 74.2163 47.712 73.6403 47.936C73.0643 48.16 72.4296 48.272 71.7363 48.272C70.8829 48.272 70.1149 48.1173 69.4323 47.808C68.7603 47.488 68.1896 47.056 67.7203 46.512C67.2509 45.968 66.8883 45.3333 66.6323 44.608C66.3869 43.8827 66.2643 43.1093 66.2643 42.288C66.2643 41.4773 66.3869 40.7093 66.6323 39.984C66.8883 39.2587 67.2509 38.624 67.7203 38.08C68.1896 37.536 68.7603 37.104 69.4323 36.784C70.1149 36.464 70.8829 36.304 71.7363 36.304C72.3763 36.304 72.9789 36.3947 73.5443 36.576C74.1096 36.7467 74.6056 37.0027 75.0323 37.344C75.4696 37.6747 75.8216 38.08 76.0883 38.56C76.3549 39.04 76.5203 39.5893 76.5843 40.208H74.5843ZM81.4751 36.576H83.6031L88.0031 48H85.8591L84.7871 44.976H80.2271L79.1551 48H77.0911L81.4751 36.576ZM80.7711 43.456H84.2591L82.5471 38.544H82.4991L80.7711 43.456ZM89.091 36.576H94.547C95.8057 36.576 96.7497 36.848 97.379 37.392C98.0083 37.936 98.323 38.6933 98.323 39.664C98.323 40.208 98.243 40.6613 98.083 41.024C97.923 41.376 97.7363 41.664 97.523 41.888C97.3097 42.1013 97.0963 42.256 96.883 42.352C96.6803 42.448 96.531 42.512 96.435 42.544V42.576C96.6057 42.5973 96.787 42.6507 96.979 42.736C97.1817 42.8213 97.3683 42.96 97.539 43.152C97.7097 43.3333 97.8483 43.5733 97.955 43.872C98.0723 44.1707 98.131 44.544 98.131 44.992C98.131 45.664 98.179 46.2773 98.275 46.832C98.3817 47.376 98.5417 47.7653 98.755 48H96.611C96.4617 47.7547 96.371 47.4827 96.339 47.184C96.3177 46.8853 96.307 46.5973 96.307 46.32C96.307 45.7973 96.275 45.3493 96.211 44.976C96.147 44.592 96.0297 44.2773 95.859 44.032C95.6883 43.776 95.4537 43.5893 95.155 43.472C94.867 43.3547 94.4937 43.296 94.035 43.296H91.091V48H89.091V36.576ZM91.091 41.776H94.371C95.011 41.776 95.4963 41.6267 95.827 41.328C96.1577 41.0187 96.323 40.56 96.323 39.952C96.323 39.5893 96.2697 39.296 96.163 39.072C96.0563 38.8373 95.907 38.656 95.715 38.528C95.5337 38.4 95.3203 38.3147 95.075 38.272C94.8403 38.2293 94.595 38.208 94.339 38.208H91.091V41.776ZM98.9874 36.576H108.235V38.304H104.603V48H102.603V38.304H98.9874V36.576Z" fill="#4F4F4F"/>
<path d="M255.598 44.192C255.598 44.6293 255.673 45.0027 255.822 45.312C255.972 45.6213 256.18 45.8773 256.446 46.08C256.713 46.272 257.017 46.416 257.358 46.512C257.71 46.5973 258.089 46.64 258.494 46.64C258.932 46.64 259.305 46.592 259.614 46.496C259.924 46.3893 260.174 46.256 260.366 46.096C260.558 45.936 260.697 45.7547 260.782 45.552C260.868 45.3387 260.91 45.1253 260.91 44.912C260.91 44.4747 260.809 44.1547 260.606 43.952C260.414 43.7387 260.201 43.5893 259.966 43.504C259.561 43.3547 259.086 43.216 258.542 43.088C258.009 42.9493 257.348 42.7733 256.558 42.56C256.068 42.432 255.657 42.2667 255.326 42.064C255.006 41.8507 254.75 41.616 254.558 41.36C254.366 41.104 254.228 40.832 254.142 40.544C254.068 40.256 254.03 39.9627 254.03 39.664C254.03 39.088 254.148 38.592 254.382 38.176C254.628 37.7493 254.948 37.3973 255.342 37.12C255.737 36.8427 256.185 36.64 256.686 36.512C257.188 36.3733 257.694 36.304 258.206 36.304C258.804 36.304 259.364 36.384 259.886 36.544C260.42 36.6933 260.884 36.9227 261.278 37.232C261.684 37.5413 262.004 37.9253 262.238 38.384C262.473 38.832 262.59 39.3547 262.59 39.952H260.59C260.537 39.216 260.286 38.6987 259.838 38.4C259.39 38.0907 258.82 37.936 258.126 37.936C257.892 37.936 257.652 37.9627 257.406 38.016C257.161 38.0587 256.937 38.1387 256.734 38.256C256.532 38.3627 256.361 38.512 256.222 38.704C256.094 38.896 256.03 39.136 256.03 39.424C256.03 39.8293 256.153 40.1493 256.398 40.384C256.654 40.608 256.985 40.7787 257.39 40.896C257.433 40.9067 257.598 40.9547 257.886 41.04C258.185 41.1147 258.516 41.2 258.878 41.296C259.241 41.392 259.593 41.488 259.934 41.584C260.286 41.6693 260.537 41.7333 260.686 41.776C261.06 41.8933 261.385 42.0533 261.662 42.256C261.94 42.4587 262.169 42.6933 262.35 42.96C262.542 43.216 262.681 43.4933 262.766 43.792C262.862 44.0907 262.91 44.3893 262.91 44.688C262.91 45.328 262.777 45.8773 262.51 46.336C262.254 46.784 261.913 47.152 261.486 47.44C261.06 47.728 260.574 47.936 260.03 48.064C259.486 48.2027 258.932 48.272 258.366 48.272C257.716 48.272 257.102 48.192 256.526 48.032C255.95 47.872 255.449 47.6267 255.022 47.296C254.596 46.9653 254.254 46.544 253.998 46.032C253.742 45.5093 253.609 44.896 253.598 44.192H255.598ZM264.613 36.576H266.613V41.12H271.813V36.576H273.813V48H271.813V42.848H266.613V48H264.613V36.576ZM276.208 36.576H278.208V48H276.208V36.576ZM280.661 36.576H285.701C286.512 36.576 287.173 36.6933 287.685 36.928C288.197 37.1627 288.592 37.456 288.869 37.808C289.147 38.16 289.333 38.544 289.429 38.96C289.536 39.376 289.589 39.76 289.589 40.112C289.589 40.464 289.536 40.848 289.429 41.264C289.333 41.6693 289.147 42.048 288.869 42.4C288.592 42.752 288.197 43.0453 287.685 43.28C287.173 43.504 286.512 43.616 285.701 43.616H282.661V48H280.661V36.576ZM282.661 41.984H285.589C285.813 41.984 286.043 41.952 286.277 41.888C286.512 41.824 286.725 41.7227 286.917 41.584C287.12 41.4347 287.28 41.2427 287.397 41.008C287.525 40.7627 287.589 40.4587 287.589 40.096C287.589 39.7227 287.536 39.4133 287.429 39.168C287.323 38.9227 287.179 38.7307 286.997 38.592C286.816 38.4427 286.608 38.3413 286.373 38.288C286.139 38.2347 285.888 38.208 285.621 38.208H282.661V41.984ZM291.333 36.576H296.373C297.184 36.576 297.845 36.6933 298.357 36.928C298.869 37.1627 299.264 37.456 299.541 37.808C299.819 38.16 300.005 38.544 300.101 38.96C300.208 39.376 300.261 39.76 300.261 40.112C300.261 40.464 300.208 40.848 300.101 41.264C300.005 41.6693 299.819 42.048 299.541 42.4C299.264 42.752 298.869 43.0453 298.357 43.28C297.845 43.504 297.184 43.616 296.373 43.616H293.333V48H291.333V36.576ZM293.333 41.984H296.261C296.485 41.984 296.715 41.952 296.949 41.888C297.184 41.824 297.397 41.7227 297.589 41.584C297.792 41.4347 297.952 41.2427 298.069 41.008C298.197 40.7627 298.261 40.4587 298.261 40.096C298.261 39.7227 298.208 39.4133 298.101 39.168C297.995 38.9227 297.851 38.7307 297.669 38.592C297.488 38.4427 297.28 38.3413 297.045 38.288C296.811 38.2347 296.56 38.208 296.293 38.208H293.333V41.984ZM302.005 36.576H304.005V48H302.005V36.576ZM306.378 36.576H308.49L313.706 44.992H313.738V36.576H315.642V48H313.53L308.33 39.6H308.282V48H306.378V36.576ZM327.973 48H326.693L326.389 46.656C325.856 47.264 325.322 47.6853 324.789 47.92C324.256 48.1547 323.642 48.272 322.949 48.272C322.096 48.272 321.328 48.1173 320.645 47.808C319.973 47.488 319.402 47.056 318.933 46.512C318.464 45.968 318.101 45.3333 317.845 44.608C317.6 43.8827 317.477 43.1093 317.477 42.288C317.477 41.4773 317.6 40.7093 317.845 39.984C318.101 39.2587 318.464 38.624 318.933 38.08C319.402 37.536 319.973 37.104 320.645 36.784C321.328 36.464 322.096 36.304 322.949 36.304C323.568 36.304 324.154 36.3893 324.709 36.56C325.274 36.72 325.776 36.9653 326.213 37.296C326.65 37.616 327.013 38.0213 327.301 38.512C327.589 39.0027 327.77 39.568 327.845 40.208H325.893C325.84 39.8347 325.722 39.5093 325.541 39.232C325.37 38.944 325.152 38.704 324.885 38.512C324.618 38.32 324.32 38.176 323.989 38.08C323.658 37.984 323.312 37.936 322.949 37.936C322.341 37.936 321.813 38.0587 321.365 38.304C320.928 38.5493 320.57 38.88 320.293 39.296C320.016 39.7013 319.808 40.1653 319.669 40.688C319.541 41.2107 319.477 41.744 319.477 42.288C319.477 42.832 319.541 43.3653 319.669 43.888C319.808 44.4107 320.016 44.88 320.293 45.296C320.57 45.7013 320.928 46.0267 321.365 46.272C321.813 46.5173 322.341 46.64 322.949 46.64C323.461 46.6507 323.914 46.5867 324.309 46.448C324.704 46.2987 325.034 46.0907 325.301 45.824C325.578 45.5467 325.786 45.2107 325.925 44.816C326.064 44.4213 326.138 43.984 326.149 43.504H323.109V41.984H327.973V48Z" fill="#4F4F4F"/>
<path d="M458.88 36.576H463.92C464.731 36.576 465.392 36.6933 465.904 36.928C466.416 37.1627 466.811 37.456 467.088 37.808C467.365 38.16 467.552 38.544 467.648 38.96C467.755 39.376 467.808 39.76 467.808 40.112C467.808 40.464 467.755 40.848 467.648 41.264C467.552 41.6693 467.365 42.048 467.088 42.4C466.811 42.752 466.416 43.0453 465.904 43.28C465.392 43.504 464.731 43.616 463.92 43.616H460.88V48H458.88V36.576ZM460.88 41.984H463.808C464.032 41.984 464.261 41.952 464.496 41.888C464.731 41.824 464.944 41.7227 465.136 41.584C465.339 41.4347 465.499 41.2427 465.616 41.008C465.744 40.7627 465.808 40.4587 465.808 40.096C465.808 39.7227 465.755 39.4133 465.648 39.168C465.541 38.9227 465.397 38.7307 465.216 38.592C465.035 38.4427 464.827 38.3413 464.592 38.288C464.357 38.2347 464.107 38.208 463.84 38.208H460.88V41.984ZM471.42 36.576H473.548L477.948 48H475.804L474.732 44.976H470.172L469.1 48H467.036L471.42 36.576ZM470.716 43.456H474.204L472.492 38.544H472.444L470.716 43.456ZM480.825 43.52L476.537 36.576H478.857L481.881 41.696L484.857 36.576H487.097L482.825 43.52V48H480.825V43.52ZM488.192 36.576H491.008L494.16 45.52H494.192L497.264 36.576H500.048V48H498.144V39.184H498.112L494.944 48H493.296L490.128 39.184H490.096V48H488.192V36.576ZM502.443 36.576H510.667V38.304H504.443V41.296H510.203V42.928H504.443V46.272H510.779V48H502.443V36.576ZM512.441 36.576H514.553L519.769 44.992H519.801V36.576H521.705V48H519.593L514.393 39.6H514.345V48H512.441V36.576ZM522.98 36.576H532.228V38.304H528.596V48H526.596V38.304H522.98V36.576Z" fill="#4F4F4F"/>
<line x1="95" y1="8.5" x2="283" y2="8.50002" stroke="#4F4F4F"/>
<line x1="299" y1="8.5" x2="488" y2="8.49998" stroke="#4F4F4F"/>
</svg>
