<svg width="44" height="25" viewBox="0 0 44 25" fill="none" xmlns="http://www.w3.org/2000/svg">
<path d="M25.146 13.4509L22.5679 23.0291H21.7241L24.3022 13.4509H25.146Z" fill="#0C797A"/>
<path d="M5.47412 18.985C4.61806 18.985 3.88889 18.7521 3.28662 18.2862C2.68435 17.8165 2.22412 17.1365 1.90594 16.2464C1.58776 15.3524 1.42867 14.2729 1.42867 13.0077C1.42867 11.7502 1.58776 10.6763 1.90594 9.78615C2.22791 8.89222 2.69003 8.2104 3.2923 7.7407C3.89836 7.26722 4.62564 7.03047 5.47412 7.03047C6.32261 7.03047 7.04798 7.26722 7.65026 7.7407C8.25632 8.2104 8.71844 8.89222 9.03662 9.78615C9.35859 10.6763 9.51958 11.7502 9.51958 13.0077C9.51958 14.2729 9.36049 15.3524 9.0423 16.2464C8.72412 17.1365 8.26389 17.8165 7.66162 18.2862C7.05935 18.7521 6.33018 18.985 5.47412 18.985ZM5.47412 17.735C6.32261 17.735 6.9817 17.3259 7.45139 16.5077C7.92109 15.6896 8.15594 14.5229 8.15594 13.0077C8.15594 12.0002 8.04799 11.1422 7.83208 10.4339C7.61995 9.72555 7.31314 9.18578 6.91162 8.81456C6.51389 8.44335 6.03473 8.25775 5.47412 8.25775C4.63321 8.25775 3.97602 8.67252 3.50253 9.50206C3.02905 10.3278 2.7923 11.4964 2.7923 13.0077C2.7923 14.0153 2.89836 14.8714 3.11048 15.5759C3.32261 16.2805 3.62753 16.8165 4.02526 17.1839C4.42677 17.5513 4.90973 17.735 5.47412 17.735ZM15.7696 7.18956V18.8259H14.3605V8.66684H14.2923L11.4514 10.5532V9.12138L14.3605 7.18956H15.7696Z" fill="#333333"/>
<path d="M32.9116 22.9353C32.3231 22.9353 31.8218 22.7751 31.4077 22.4548C30.9937 22.1319 30.6772 21.6645 30.4585 21.0525C30.2397 20.4379 30.1304 19.6957 30.1304 18.8259C30.1304 17.9613 30.2397 17.2231 30.4585 16.6111C30.6799 15.9965 30.9976 15.5278 31.4116 15.2048C31.8283 14.8793 32.3283 14.7166 32.9116 14.7166C33.495 14.7166 33.9937 14.8793 34.4077 15.2048C34.8244 15.5278 35.1421 15.9965 35.3608 16.6111C35.5822 17.2231 35.6929 17.9613 35.6929 18.8259C35.6929 19.6957 35.5835 20.4379 35.3647 21.0525C35.146 21.6645 34.8296 22.1319 34.4155 22.4548C34.0015 22.7751 33.5002 22.9353 32.9116 22.9353ZM32.9116 22.0759C33.495 22.0759 33.9481 21.7947 34.271 21.2322C34.5939 20.6697 34.7554 19.8676 34.7554 18.8259C34.7554 18.1332 34.6812 17.5434 34.5327 17.0564C34.3869 16.5694 34.1759 16.1983 33.8999 15.9431C33.6265 15.6879 33.297 15.5603 32.9116 15.5603C32.3335 15.5603 31.8817 15.8455 31.5562 16.4158C31.2306 16.9835 31.0679 17.7869 31.0679 18.8259C31.0679 19.5186 31.1408 20.1072 31.2866 20.5916C31.4325 21.0759 31.6421 21.4444 31.9155 21.697C32.1916 21.9496 32.5236 22.0759 32.9116 22.0759ZM39.8804 22.9353C39.3647 22.9353 38.9051 22.8468 38.5015 22.6697C38.1004 22.4926 37.7814 22.2465 37.5444 21.9314C37.3101 21.6137 37.1825 21.2452 37.1616 20.8259H38.146C38.1668 21.0837 38.2554 21.3064 38.4116 21.4939C38.5679 21.6788 38.7723 21.822 39.0249 21.9236C39.2775 22.0251 39.5575 22.0759 39.8647 22.0759C40.2085 22.0759 40.5132 22.016 40.7788 21.8962C41.0444 21.7764 41.2528 21.6098 41.4038 21.3962C41.5549 21.1827 41.6304 20.9353 41.6304 20.6541C41.6304 20.3598 41.5575 20.1007 41.4116 19.8767C41.2658 19.6501 41.0522 19.4731 40.771 19.3455C40.4897 19.2179 40.146 19.1541 39.7397 19.1541H39.0991V18.2947H39.7397C40.0575 18.2947 40.3361 18.2374 40.5757 18.1228C40.8179 18.0082 41.0067 17.8468 41.1421 17.6384C41.2801 17.4301 41.3491 17.1853 41.3491 16.9041C41.3491 16.6332 41.2892 16.3975 41.1694 16.197C41.0496 15.9965 40.8804 15.8403 40.6616 15.7283C40.4455 15.6163 40.1903 15.5603 39.896 15.5603C39.62 15.5603 39.3595 15.6111 39.1147 15.7126C38.8726 15.8116 38.6746 15.9561 38.521 16.1462C38.3674 16.3337 38.284 16.5603 38.271 16.8259H37.3335C37.3491 16.4067 37.4754 16.0395 37.7124 15.7244C37.9494 15.4067 38.2593 15.1593 38.6421 14.9822C39.0275 14.8051 39.4507 14.7166 39.9116 14.7166C40.4064 14.7166 40.8309 14.8168 41.1851 15.0173C41.5392 15.2153 41.8114 15.477 42.0015 15.8025C42.1916 16.128 42.2866 16.4796 42.2866 16.8572C42.2866 17.3077 42.1681 17.6918 41.9312 18.0095C41.6968 18.3272 41.3778 18.5473 40.9741 18.6697V18.7322C41.4793 18.8155 41.8739 19.0304 42.1577 19.3767C42.4416 19.7205 42.5835 20.1462 42.5835 20.6541C42.5835 21.0889 42.465 21.4796 42.228 21.8259C41.9937 22.1697 41.6733 22.4405 41.2671 22.6384C40.8608 22.8363 40.3986 22.9353 39.8804 22.9353Z" fill="#0C797A"/>
</svg>
