<svg width="93" height="43" viewBox="0 0 93 43" fill="none" xmlns="http://www.w3.org/2000/svg">
<path d="M45 13H92.6707V12H45V13Z" fill="#333333"/>
<path d="M74.7978 1.19533L92.5595 12.9999L93 11.8045L75.2384 0L74.7978 1.19533Z" fill="#333333"/>
<path d="M48 1L0.329261 1L0.329261 2.07692L48 2.07693V1Z" fill="#BDBDBD"/>
<path d="M18.2022 13.7127L0.440509 1.00016L0 2.28744L17.7616 15L18.2022 13.7127Z" fill="#BDBDBD"/>
<path d="M48.916 30.3541L45.781 39.8141H45L48.135 30.3541H48.916Z" fill="#BDBDBD"/>
<path d="M31.296 35.96C31.296 36.888 30.9973 37.6453 30.4 38.232C29.8133 38.808 29.072 39.096 28.176 39.096C27.2693 39.096 26.5227 38.808 25.936 38.232C25.3493 37.656 25.056 36.8987 25.056 35.96V30.648C25.056 29.7093 25.3493 28.952 25.936 28.376C26.5227 27.8 27.2693 27.512 28.176 27.512C29.072 27.512 29.8133 27.8053 30.4 28.392C30.9973 28.968 31.296 29.72 31.296 30.648V35.96ZM30.144 35.896V30.712C30.144 30.072 29.968 29.5493 29.616 29.144C29.2747 28.7387 28.7947 28.536 28.176 28.536C27.5573 28.536 27.072 28.7387 26.72 29.144C26.3787 29.5493 26.208 30.072 26.208 30.712V35.896C26.208 36.536 26.3787 37.0587 26.72 37.464C27.072 37.8693 27.5573 38.072 28.176 38.072C28.7947 38.072 29.2747 37.8693 29.616 37.464C29.968 37.0587 30.144 36.536 30.144 35.896ZM37.6394 39H36.4874V28.888L34.3594 30.76V29.448L36.4874 27.608H37.6394V39Z" fill="#333333"/>
<path d="M58.016 36.9101C58.016 37.5481 57.8107 38.0688 57.4 38.4721C56.9967 38.8681 56.487 39.0661 55.871 39.0661C55.2477 39.0661 54.7343 38.8681 54.331 38.4721C53.9277 38.0761 53.726 37.5555 53.726 36.9101V33.2581C53.726 32.6128 53.9277 32.0921 54.331 31.6961C54.7343 31.3001 55.2477 31.1021 55.871 31.1021C56.487 31.1021 56.9967 31.3038 57.4 31.7071C57.8107 32.1031 58.016 32.6201 58.016 33.2581V36.9101ZM57.224 36.8661V33.3021C57.224 32.8621 57.103 32.5028 56.861 32.2241C56.6263 31.9455 56.2963 31.8061 55.871 31.8061C55.4457 31.8061 55.112 31.9455 54.87 32.2241C54.6353 32.5028 54.518 32.8621 54.518 33.3021V36.8661C54.518 37.3061 54.6353 37.6655 54.87 37.9441C55.112 38.2228 55.4457 38.3621 55.871 38.3621C56.2963 38.3621 56.6263 38.2228 56.861 37.9441C57.103 37.6655 57.224 37.3061 57.224 36.8661ZM63.8071 36.8661C63.8071 37.5628 63.5907 38.1055 63.1581 38.4941C62.7254 38.8828 62.1754 39.0771 61.5081 39.0771C60.8554 39.0771 60.3164 38.9048 59.8911 38.5601C59.4657 38.2081 59.2384 37.6911 59.2091 37.0091H60.0011C60.0304 37.4711 60.1844 37.8158 60.4631 38.0431C60.7491 38.2631 61.0974 38.3731 61.5081 38.3731C61.9407 38.3731 62.3001 38.2375 62.5861 37.9661C62.8721 37.6948 63.0151 37.3245 63.0151 36.8551C63.0151 35.8431 62.5017 35.3371 61.4751 35.3371H61.3101V34.6441H61.4751C61.9444 34.6441 62.2927 34.5231 62.5201 34.2811C62.7547 34.0318 62.8721 33.6798 62.8721 33.2251C62.8721 32.7705 62.7437 32.4185 62.4871 32.1691C62.2304 31.9198 61.9041 31.7951 61.5081 31.7951C61.0974 31.7951 60.7674 31.9125 60.5181 32.1471C60.2761 32.3818 60.1367 32.7008 60.1001 33.1041H59.3081C59.3521 32.4808 59.5757 31.9895 59.9791 31.6301C60.3897 31.2708 60.8994 31.0911 61.5081 31.0911C62.1461 31.0911 62.6631 31.2855 63.0591 31.6741C63.4624 32.0628 63.6641 32.5761 63.6641 33.2141C63.6641 34.0501 63.3121 34.6295 62.6081 34.9521C63.4074 35.2528 63.8071 35.8908 63.8071 36.8661Z" fill="#BDBDBD"/>
</svg>
