<svg width="46" height="41" viewBox="0 0 46 41" fill="none" xmlns="http://www.w3.org/2000/svg">
<path d="M27.2791 0.544189L11.7006 11.5269H0V29.3083H11.7006L27.2791 40.291V0.544189ZM38.4281 5.75769C38.1964 5.77117 37.9756 5.85792 37.7987 6.00486C37.6219 6.15179 37.4988 6.35094 37.4478 6.57229C37.3969 6.79364 37.421 7.02517 37.5164 7.23199C37.6118 7.43881 37.7733 7.6097 37.9767 7.71888C41.2399 9.53536 43.8605 14.4791 43.8605 20.4176C43.8605 26.3561 41.24 31.2834 37.9767 33.1C37.7321 33.2394 37.5539 33.4678 37.4811 33.7354C37.4083 34.0029 37.4468 34.2878 37.5882 34.5276C37.7297 34.7674 37.9625 34.9427 38.2358 35.0152C38.5091 35.0876 38.8006 35.0513 39.0465 34.9141C43.2789 32.558 46 26.9406 46 20.4176C46 13.8946 43.2789 8.26076 39.0465 5.90478C38.8604 5.79554 38.6447 5.74424 38.4281 5.75769ZM32.8452 9.94157C32.6122 9.95187 32.3891 10.0363 32.2097 10.182C32.0304 10.3278 31.9046 10.5268 31.8516 10.7489C31.7986 10.9709 31.8213 11.2038 31.9162 11.4121C32.0111 11.6204 32.1729 11.7927 32.3772 11.9028C34.3866 13.0644 36.1381 16.3855 36.1381 20.4176C36.1381 24.4498 34.3866 27.7545 32.3772 28.9161C32.2547 28.9855 32.1474 29.0779 32.0615 29.188C31.9756 29.298 31.9128 29.4236 31.8766 29.5575C31.8405 29.6913 31.8318 29.8309 31.851 29.968C31.8702 30.1052 31.9169 30.2373 31.9884 30.3568C32.06 30.4762 32.155 30.5807 32.2679 30.6642C32.3809 30.7477 32.5096 30.8085 32.6467 30.8432C32.7838 30.8779 32.9265 30.8858 33.0667 30.8664C33.2069 30.847 33.3418 30.8007 33.4637 30.7302C36.4513 29.0032 38.2776 25.0126 38.2776 20.4176C38.2776 15.8226 36.4513 11.8157 33.4637 10.0887C33.2775 9.97942 33.0618 9.92812 32.8452 9.94157Z" fill="#4F4F4F"/>
</svg>
