<svg width="46" height="43" viewBox="0 0 46 43" fill="none" xmlns="http://www.w3.org/2000/svg">
<path d="M27.2791 0.202148L11.7006 11.8751H0V30.7742H11.7006L27.2791 42.4472V0.202148ZM38.4281 5.74334C38.1964 5.75767 37.9756 5.84987 37.7987 6.00604C37.6219 6.16221 37.4988 6.37388 37.4478 6.60914C37.3969 6.8444 37.421 7.09049 37.5164 7.3103C37.6118 7.53012 37.7733 7.71175 37.9767 7.8278C41.2399 9.75844 43.8605 15.0129 43.8605 21.3247C43.8605 27.6364 41.24 32.8735 37.9767 34.8042C37.7321 34.9523 37.5539 35.1952 37.4811 35.4795C37.4083 35.7639 37.4468 36.0666 37.5882 36.3215C37.7297 36.5764 37.9625 36.7628 38.2358 36.8397C38.5091 36.9167 38.8006 36.8781 39.0465 36.7323C43.2789 34.2282 46 28.2576 46 21.3247C46 14.3917 43.2789 8.40374 39.0465 5.89967C38.8604 5.78357 38.6447 5.72904 38.4281 5.74334ZM32.8452 10.1902C32.6122 10.2011 32.3891 10.2909 32.2097 10.4458C32.0304 10.6007 31.9046 10.8122 31.8516 11.0482C31.7986 11.2842 31.8213 11.5318 31.9162 11.7532C32.0111 11.9746 32.1729 12.1577 32.3772 12.2746C34.3866 13.5093 36.1381 17.0391 36.1381 21.3247C36.1381 25.6103 34.3866 29.1227 32.3772 30.3573C32.2547 30.4311 32.1474 30.5293 32.0615 30.6463C31.9756 30.7633 31.9128 30.8967 31.8766 31.039C31.8405 31.1813 31.8318 31.3296 31.851 31.4754C31.8702 31.6212 31.9169 31.7616 31.9884 31.8886C32.06 32.0155 32.155 32.1266 32.2679 32.2153C32.3809 32.304 32.5096 32.3687 32.6467 32.4056C32.7838 32.4424 32.9265 32.4508 33.0667 32.4302C33.2069 32.4096 33.3418 32.3604 33.4637 32.2855C36.4513 30.4499 38.2776 26.2085 38.2776 21.3247C38.2776 16.4409 36.4513 12.1821 33.4637 10.3465C33.2775 10.2304 33.0618 10.1759 32.8452 10.1902Z" fill="#4F4F4F"/>
</svg>
