<svg width="22" height="18" viewBox="0 0 22 18" fill="none" xmlns="http://www.w3.org/2000/svg">
<path d="M19.4213 2.83276C20.4088 2.25891 21.0626 1.47566 21.3828 0.479527C20.4809 0.941274 19.5131 1.27681 18.5095 1.47566C17.6504 0.601006 16.5626 0.156738 15.2586 0.156738C13.9839 0.156738 12.9072 0.580181 12.0284 1.40393C11.6041 1.7951 11.2686 2.26417 11.0424 2.78241C10.8163 3.30064 10.7044 3.85713 10.7134 4.41777C10.7134 4.77527 10.7611 5.09459 10.8564 5.36531C7.09705 5.24383 3.98545 3.76757 1.5338 0.926108C1.11827 1.62143 0.910505 2.32948 0.910505 3.06183C0.910505 4.56702 1.58147 5.75983 2.92095 6.63564C2.1571 6.57432 1.4837 6.39152 0.910505 6.09188C0.910505 7.16668 1.24415 8.06447 1.91267 8.85466C2.56207 9.62465 3.47725 10.1535 4.49753 10.3483C4.11622 10.4408 3.71413 10.4848 3.30104 10.4848C2.91973 10.4848 2.64963 10.4547 2.48953 10.3888C2.77062 11.2646 3.30104 11.9749 4.06733 12.5187C4.82487 13.0632 5.74635 13.3644 6.69741 13.3783C5.0695 14.5873 3.20816 15.1855 1.10238 15.1855C0.586634 15.1855 0.22121 15.1785 0 15.1415C2.074 16.4165 4.38265 17.0493 6.93695 17.0493C9.55114 17.0493 11.861 16.4223 13.8715 15.1681C15.8819 13.9209 17.3656 12.3822 18.3189 10.5704C19.2616 8.81731 19.7524 6.87781 19.7512 4.91063V4.36918C20.6299 3.75591 21.3906 3.00412 22 2.14669C21.177 2.48435 20.3096 2.71513 19.4213 2.83276Z" fill="#4F4F4F"/>
</svg>
