<svg width="24" height="24" viewBox="0 0 24 24" fill="none" xmlns="http://www.w3.org/2000/svg">
<path d="M20.4213 6.67651C21.4088 6.10266 22.0626 5.31941 22.3828 4.32328C21.4809 4.78502 20.5131 5.12056 19.5095 5.31941C18.6504 4.44476 17.5626 4.00049 16.2586 4.00049C14.9839 4.00049 13.9072 4.42393 13.0284 5.24768C12.6041 5.63885 12.2686 6.10792 12.0424 6.62616C11.8163 7.14439 11.7044 7.70088 11.7134 8.26152C11.7134 8.61902 11.7611 8.93834 11.8564 9.20906C8.09705 9.08758 4.98545 7.61132 2.5338 4.76986C2.11827 5.46518 1.9105 6.17323 1.9105 6.90558C1.9105 8.41077 2.58147 9.60358 3.92095 10.4794C3.1571 10.4181 2.4837 10.2353 1.9105 9.93563C1.9105 11.0104 2.24415 11.9082 2.91267 12.6984C3.56207 13.4684 4.47725 13.9972 5.49753 14.192C5.11622 14.2846 4.71413 14.3286 4.30104 14.3286C3.91973 14.3286 3.64963 14.2985 3.48953 14.2325C3.77062 15.1083 4.30104 15.8187 5.06733 16.3625C5.82487 16.907 6.74635 17.2082 7.69741 17.2221C6.0695 18.4311 4.20816 19.0292 2.10238 19.0292C1.58663 19.0292 1.22121 19.0223 1 18.9853C3.074 20.2602 5.38265 20.8931 7.93695 20.8931C10.5511 20.8931 12.861 20.266 14.8715 19.0119C16.8819 17.7647 18.3656 16.2259 19.3189 14.4142C20.2616 12.6611 20.7524 10.7216 20.7512 8.75438V8.21293C21.6299 7.59966 22.3906 6.84787 23 5.99044C22.177 6.3281 21.3096 6.55888 20.4213 6.67651Z" fill="#4F4F4F"/>
</svg>
