<svg width="22" height="18" viewBox="0 0 22 18" fill="none" xmlns="http://www.w3.org/2000/svg">
<path d="M19.4213 3.36889C20.4088 2.79504 21.0626 2.01179 21.3828 1.01566C20.4809 1.47741 19.5131 1.81294 18.5095 2.01179C17.6504 1.13714 16.5626 0.692871 15.2586 0.692871C13.9839 0.692871 12.9072 1.11631 12.0284 1.94006C11.6041 2.33123 11.2686 2.8003 11.0424 3.31854C10.8163 3.83678 10.7044 4.39326 10.7134 4.95391C10.7134 5.3114 10.7611 5.63072 10.8564 5.90144C7.09705 5.77997 3.98545 4.3037 1.5338 1.46224C1.11827 2.15757 0.910505 2.86562 0.910505 3.59796C0.910505 5.10315 1.58147 6.29596 2.92095 7.17177C2.1571 7.11045 1.4837 6.92766 0.910505 6.62801C0.910505 7.70281 1.24415 8.6006 1.91267 9.3908C2.56207 10.1608 3.47725 10.6896 4.49753 10.8844C4.11622 10.977 3.71413 11.0209 3.30104 11.0209C2.91973 11.0209 2.64963 10.9909 2.48953 10.9249C2.77062 11.8007 3.30104 12.5111 4.06733 13.0548C4.82487 13.5994 5.74635 13.9005 6.69741 13.9145C5.0695 15.1235 3.20816 15.7216 1.10238 15.7216C0.586634 15.7216 0.22121 15.7147 0 15.6776C2.074 16.9526 4.38265 17.5854 6.93695 17.5854C9.55114 17.5854 11.861 16.9584 13.8715 15.7043C15.8819 14.4571 17.3656 12.9183 18.3189 11.1065C19.2616 9.35344 19.7524 7.41394 19.7512 5.44676V4.90531C20.6299 4.29204 21.3906 3.54025 22 2.68282C21.177 3.02049 20.3096 3.25127 19.4213 3.36889Z" fill="#4F4F4F"/>
</svg>
