<svg width="22" height="17" viewBox="0 0 22 17" fill="none" xmlns="http://www.w3.org/2000/svg">
<path d="M19.4213 2.67651C20.4088 2.10266 21.0626 1.31941 21.3828 0.323277C20.4809 0.785024 19.5131 1.12056 18.5095 1.31941C17.6504 0.444756 16.5626 0.000488281 15.2586 0.000488281C13.9839 0.000488281 12.9072 0.423931 12.0284 1.24768C11.6041 1.63885 11.2686 2.10792 11.0424 2.62616C10.8163 3.14439 10.7044 3.70088 10.7134 4.26152C10.7134 4.61902 10.7611 4.93834 10.8564 5.20906C7.09705 5.08758 3.98545 3.61132 1.5338 0.769858C1.11827 1.46518 0.910505 2.17323 0.910505 2.90558C0.910505 4.41077 1.58147 5.60358 2.92095 6.47939C2.1571 6.41807 1.4837 6.23527 0.910505 5.93563C0.910505 7.01043 1.24415 7.90822 1.91267 8.69841C2.56207 9.4684 3.47725 9.99723 4.49753 10.192C4.11622 10.2846 3.71413 10.3286 3.30104 10.3286C2.91973 10.3286 2.64963 10.2985 2.48953 10.2325C2.77062 11.1083 3.30104 11.8187 4.06733 12.3625C4.82487 12.907 5.74635 13.2082 6.69741 13.2221C5.0695 14.4311 3.20816 15.0292 1.10238 15.0292C0.586634 15.0292 0.22121 15.0223 0 14.9853C2.074 16.2602 4.38265 16.8931 6.93695 16.8931C9.55114 16.8931 11.861 16.266 13.8715 15.0119C15.8819 13.7647 17.3656 12.2259 18.3189 10.4142C19.2616 8.66106 19.7524 6.72156 19.7512 4.75438V4.21293C20.6299 3.59966 21.3906 2.84787 22 1.99044C21.177 2.3281 20.3096 2.55888 19.4213 2.67651V2.67651Z" fill="#4F4F4F"/>
</svg>
