<svg width="24" height="24" viewBox="0 0 24 24" fill="none" xmlns="http://www.w3.org/2000/svg">
<path d="M20.4213 6.67602C21.4088 6.10217 22.0626 5.31892 22.3828 4.32279C21.4809 4.78454 20.5131 5.12007 19.5095 5.31892C18.6504 4.44427 17.5626 4 16.2586 4C14.9839 4 13.9072 4.42344 13.0284 5.24719C12.6041 5.63836 12.2686 6.10743 12.0424 6.62567C11.8163 7.14391 11.7044 7.70039 11.7134 8.26103C11.7134 8.61853 11.7611 8.93785 11.8564 9.20857C8.09705 9.08709 4.98545 7.61083 2.5338 4.76937C2.11827 5.46469 1.9105 6.17275 1.9105 6.90509C1.9105 8.41028 2.58147 9.60309 3.92095 10.4789C3.1571 10.4176 2.4837 10.2348 1.9105 9.93514C1.9105 11.0099 2.24415 11.9077 2.91267 12.6979C3.56207 13.4679 4.47725 13.9967 5.49753 14.1915C5.11622 14.2841 4.71413 14.3281 4.30104 14.3281C3.91973 14.3281 3.64963 14.298 3.48953 14.232C3.77062 15.1078 4.30104 15.8182 5.06733 16.362C5.82487 16.9065 6.74635 17.2077 7.69741 17.2216C6.0695 18.4306 4.20816 19.0287 2.10238 19.0287C1.58663 19.0287 1.22121 19.0218 1 18.9848C3.074 20.2597 5.38265 20.8926 7.93695 20.8926C10.5511 20.8926 12.861 20.2655 14.8715 19.0114C16.8819 17.7642 18.3656 16.2255 19.3189 14.4137C20.2616 12.6606 20.7524 10.7211 20.7512 8.75389V8.21244C21.6299 7.59917 22.3906 6.84738 23 5.98995C22.177 6.32762 21.3096 6.5584 20.4213 6.67602Z" fill="#4F4F4F"/>
</svg>
