<svg width="50" height="41" viewBox="0 0 50 41" fill="none" xmlns="http://www.w3.org/2000/svg">
<path d="M49.7822 38.6367L38.4062 23.9715C40.008 22.2483 41.2966 20.1892 42.1386 17.8463C42.2484 17.5401 42.3364 17.2323 42.4234 16.9245L42.4814 16.7196C42.6396 16.1684 42.3197 15.5934 41.7663 15.4357C41.2154 15.277 40.6361 15.5965 40.4784 16.1487L40.4179 16.3616C40.3442 16.6233 40.2709 16.8849 40.1773 17.1451C39.4745 19.1006 38.4135 20.8263 37.1068 22.2965L30.6827 14.015C31.2284 12.6506 31.2755 11.1619 30.7664 9.77328C30.3433 8.58902 29.5626 7.59866 28.5399 6.89072L30.695 2.32951C30.9402 1.81078 30.7169 1.19165 30.1966 0.947245C29.6778 0.703345 29.0552 0.924934 28.8101 1.44417L26.6533 6.00868C26.1368 5.86714 25.6074 5.7855 25.0685 5.7855C22.7247 5.7855 20.5685 7.14591 19.5685 9.25405C18.881 10.7079 18.8081 12.3383 19.3602 13.8545C19.3793 13.9078 19.4115 13.9532 19.432 14.0058L0.220737 38.5231C-0.133266 38.9754 -0.0529032 39.628 0.400282 39.9809C0.591017 40.129 0.816846 40.201 1.04115 40.201C1.35039 40.201 1.6571 40.064 1.86258 39.8019L13.1913 25.3442C14.9073 26.8318 16.8406 27.9882 18.9809 28.7437C20.9843 29.4516 23.0316 29.7873 25.0462 29.7873C29.4143 29.7873 33.6197 28.1991 36.8904 25.4127L48.1343 39.9074C48.3397 40.1721 48.6475 40.3105 48.9587 40.3105C49.1815 40.3105 49.4058 40.2395 49.5955 40.0935C50.0508 39.7426 50.1342 39.0905 49.7822 38.6367ZM19.6767 26.7865C17.7507 26.106 16.0128 25.0587 14.4741 23.7072L20.5996 15.8899C21.1269 16.4559 21.7658 16.9225 22.4956 17.2607C23.3081 17.6449 24.1727 17.8319 25.0581 17.8319C26.7674 17.8319 28.3714 17.1022 29.5055 15.8927L35.6166 23.7707C31.3825 27.4269 25.3345 28.7842 19.6767 26.7865Z" fill="#4F4F4F"/>
</svg>
