<?xml version="1.0" encoding="iso-8859-1"?>
<svg fill="#fff" height="800px" width="800px" version="1.1" id="Capa_1" xmlns="http://www.w3.org/2000/svg" xmlns:xlink="http://www.w3.org/1999/xlink"
	 viewBox="0 0 612 612" xml:space="preserve">
<g>
	<g>
		<g>
			<path d="M611.763,293.223c-2.981-46.142-43.708-63.228-64.827-65.817c-0.745-0.093-1.499-0.137-2.25-0.137H440.755
				c-0.55-0.08-1.069-0.16-1.553-0.241c1.082-2.691,2.429-5.776,3.628-8.529c9.247-21.207,24.724-56.7,22.067-110.508
				c0-0.003-0.002-0.006-0.002-0.009c-0.497-36.559-30.372-66.15-67.047-66.15c-36.983,0-67.072,30.089-67.072,67.072
				c0,0.089,0.012,0.174,0.014,0.264s-0.009,0.173-0.006,0.262c1.013,35.692-0.211,36.901-31.572,67.884
				c-3.283,3.244-6.834,6.752-10.675,10.592c-32.087,32.09-44.23,73.101-48.708,95.919h-91.464
				c-7.715-4.999-16.897-7.915-26.753-7.915H49.344C22.135,275.911,0,298.046,0,325.254v168.269
				c0,27.208,22.137,49.344,49.344,49.344h72.268c12.251,0,23.464-4.498,32.1-11.915h95.867c10.055,0.236,20.595,0.791,24.624,4.958
				c2.253,1.995,3.69,4.163,5.747,7.115c18.7,26.801,46.841,26.678,52.932,26.77c0.094,0.003,0.19,0,0.285,0
				c0,0,169.137,0.837,180.509,0c52.898-3.889,72.674-45.177,75.732-65.673C590.438,497.349,614.638,337.738,611.763,293.223z
				 M133.948,493.525c0,6.802-5.534,12.336-12.336,12.336H49.344c-6.802,0-12.336-5.534-12.336-12.336V325.256
				c0-6.802,5.534-12.336,12.336-12.336h72.268c6.802,0,12.336,5.534,12.336,12.336L133.948,493.525L133.948,493.525z
				 M170.747,320.835h0.085C170.807,321.117,170.779,321.188,170.747,320.835z M552.814,498.606
				c-0.012,0.069-1.451,7.482-6.706,14.977c-7.519,10.724-19.343,16.751-35.146,17.912c-11.341,0.834-177.646,1.294-177.646,1.294
				c-1.355-0.022-15.64,0.777-22.8-10.629c-2.555-4.076-6.085-8.913-11.775-13.953c-14.966-13.258-42.466-14.288-50.537-14.288
				h-77.26c0.002-0.14,0.011-173.085,0.011-173.085h84.834c9.719,0,17.781-7.52,18.459-17.215
				c0.037-0.527,4.106-53.189,40.46-89.543c3.783-3.784,7.281-7.24,10.513-10.433c35.503-35.077,43.914-45.341,42.565-94.8
				c0.032-16.549,13.505-30.004,30.061-30.004c16.578,0,30.064,13.488,30.064,30.064c0,0.154,0.022,0.304,0.023,0.458
				c0.005,0.153-0.008,0.301,0,0.455c2.23,45.142-10.563,74.479-19.028,93.893c-6.913,15.853-12.882,29.544-5.217,43.109
				c6.984,12.361,21.509,15.739,33.382,17.301c0.802,0.105,1.607,0.159,2.413,0.159h103.791c5.855,1.018,29.964,6.698,31.554,31.33
				C577.005,329.257,559.68,453.514,552.814,498.606z"/>
		</g>
	</g>
</g>
</svg>
