<svg width="6" height="7" viewBox="0 0 6 7" fill="none" xmlns="http://www.w3.org/2000/svg">
<path d="M3.04522 1.63772C2.77888 1.6317 2.51402 1.67894 2.26619 1.77669C2.01836 1.87444 1.79256 2.02071 1.60204 2.20692C1.41152 2.39313 1.26013 2.61553 1.15674 2.86106C1.05336 3.10659 1.00007 3.3703 1 3.63671C0.999933 3.90311 1.05309 4.16685 1.15635 4.41243C1.25962 4.65801 1.4109 4.88048 1.60133 5.06679C1.79175 5.2531 2.01748 5.39949 2.26526 5.49736C2.51304 5.59523 2.77787 5.64261 3.04422 5.63672C3.56678 5.62516 4.06405 5.40949 4.42959 5.03588C4.79512 4.66227 4.99987 4.1604 5 3.63771C5.00013 3.11502 4.79563 2.61305 4.43029 2.23925C4.06494 1.86545 3.56777 1.64954 3.04522 1.63772Z" fill="black"/>
</svg>
