<svg width="6" height="6" viewBox="0 0 6 6" fill="none" xmlns="http://www.w3.org/2000/svg">
<g clip-path="url(#clip0_24223_3284)">
<path d="M3.04522 1.1354C2.77888 1.12938 2.51402 1.17662 2.26619 1.27437C2.01836 1.37212 1.79256 1.51839 1.60204 1.7046C1.41152 1.89082 1.26013 2.11321 1.15674 2.35874C1.05336 2.60427 1.00007 2.86798 1 3.13439C0.999933 3.4008 1.05309 3.66453 1.15635 3.91011C1.25962 4.15569 1.4109 4.37817 1.60133 4.56447C1.79175 4.75078 2.01748 4.89717 2.26526 4.99504C2.51304 5.09291 2.77787 5.14029 3.04422 5.1344C3.56678 5.12284 4.06405 4.90717 4.42959 4.53356C4.79512 4.15995 4.99987 3.65808 5 3.13539C5.00013 2.6127 4.79563 2.11073 4.43029 1.73693C4.06494 1.36313 3.56777 1.14722 3.04522 1.1354Z" fill="black"/>
</g>
<defs>
<clipPath id="clip0_24223_3284">
<rect width="6" height="6" fill="white" transform="translate(0 -0.00305176)"/>
</clipPath>
</defs>
</svg>
