<svg width="5" height="5" viewBox="0 0 5 5" fill="none" xmlns="http://www.w3.org/2000/svg">
<path d="M2.9937 0.964378C2.72736 0.958356 2.4625 1.0056 2.21468 1.10335C1.96685 1.2011 1.74105 1.34737 1.55053 1.53358C1.36001 1.71979 1.20861 1.94219 1.10523 2.18772C1.00184 2.43325 0.948553 2.69696 0.948486 2.96337C0.94842 3.22977 1.00158 3.49351 1.10484 3.73909C1.2081 3.98467 1.35939 4.20714 1.54981 4.39345C1.74024 4.57976 1.96597 4.72615 2.21375 4.82402C2.46153 4.92189 2.72636 4.96927 2.9927 4.96338C3.51526 4.95182 4.01254 4.73615 4.37807 4.36254C4.74361 3.98893 4.94836 3.48706 4.94849 2.96437C4.94862 2.44168 4.74412 1.93971 4.37877 1.56591C4.01342 1.19211 3.51626 0.976195 2.9937 0.964378Z" fill="black"/>
</svg>
