<svg width="50" height="18" viewBox="0 0 50 18" fill="none" xmlns="http://www.w3.org/2000/svg">
<path d="M1.092 4.004V14H8.036V12.88H2.422V9.422H7.616V8.302H2.422V5.124H7.994V4.004H1.092ZM9.63659 4.004V14H10.8966V5.978H10.9246L16.1466 14H17.6026V4.004H16.3426V12.11H16.3146L11.0506 4.004H9.63659Z" fill="#333333"/>
<path d="M31.91 4.004V10.402C31.91 10.9153 31.98 11.4053 32.12 11.872C32.2693 12.3293 32.498 12.7307 32.806 13.076C33.1233 13.4213 33.5247 13.6967 34.01 13.902C34.5047 14.098 35.0973 14.196 35.788 14.196C36.488 14.196 37.0807 14.098 37.566 13.902C38.0607 13.6967 38.462 13.4213 38.77 13.076C39.0873 12.7307 39.316 12.3293 39.456 11.872C39.6053 11.4053 39.68 10.9153 39.68 10.402V4.004H38.728V10.192C38.728 10.7707 38.6627 11.2653 38.532 11.676C38.4013 12.0773 38.21 12.4087 37.958 12.67C37.706 12.922 37.398 13.1087 37.034 13.23C36.67 13.342 36.2547 13.398 35.788 13.398C35.3307 13.398 34.92 13.342 34.556 13.23C34.192 13.1087 33.884 12.922 33.632 12.67C33.38 12.4087 33.1887 12.0773 33.058 11.676C32.9273 11.2653 32.862 10.7707 32.862 10.192V4.004H31.91ZM43.006 10.08L45.008 4.956L46.94 10.08H43.006ZM44.518 4.004L40.5 14H41.508L42.712 10.892H47.262L48.48 14H49.502L45.582 4.004H44.518Z" fill="#BDBDBD"/>
<path d="M25.892 3.766L21.762 14.224H22.77L26.914 3.766H25.892Z" fill="#333333"/>
</svg>
