<?xml version="1.0" standalone="no"?>
<!DOCTYPE svg PUBLIC "-//W3C//DTD SVG 20010904//EN"
 "http://www.w3.org/TR/2001/REC-SVG-20010904/DTD/svg10.dtd">
<svg version="1.0" xmlns="http://www.w3.org/2000/svg"
 width="64.000000pt" height="64.000000pt" viewBox="0 0 64.000000 64.000000"
 preserveAspectRatio="xMidYMid meet">

<g transform="translate(0.000000,64.000000) scale(0.100000,-0.100000)"
fill="#000000" stroke="none">
<path d="M296 475 c-3 -9 -21 -22 -39 -30 -108 -45 -138 -176 -58 -256 111
-111 307 2 262 151 -13 43 -54 88 -94 102 -15 6 -32 19 -38 29 -12 23 -25 24
-33 4z m58 -156 c53 -41 21 -119 -48 -119 -64 0 -90 79 -40 119 15 12 34 21
44 21 10 0 29 -9 44 -21z"/>
</g>
</svg>
