<?xml version="1.0" standalone="no"?>
<!DOCTYPE svg PUBLIC "-//W3C//DTD SVG 20010904//EN"
  "http://www.w3.org/TR/2001/REC-SVG-20010904/DTD/svg10.dtd">
<svg version="1.0"
  xmlns="http://www.w3.org/2000/svg" width="64" height="64" viewBox="0 0 64 64" preserveAspectRatio="xMidYMid meet">

  <g transform="translate(0,64) scale(0.1,-0.1)" fill="#000000" stroke="none">
    <path d="M295 482 c-6 -12 -30 -32 -55 -45 -111 -58 -119 -195 -16 -271 39
-29 133 -29 172 0 45 33 67 70 71 121 5 61 -26 117 -81 147 -22 11 -49 32 -61
45 -21 23 -21 23 -30 3z m59 -163 c30 -24 34 -63 10 -97 -11 -16 -25 -22 -54
-22 -44 0 -70 26 -70 71 0 30 40 69 70 69 10 0 29 -9 44 -21z"/>
  </g>
</svg>
