<svg width="24" height="27" viewBox="0 0 24 27" fill="none" xmlns="http://www.w3.org/2000/svg">
<path d="M15.6341 4.19534L16.2288 4.39598L16.2304 4.38006C18.5391 5.22112 20.5061 6.80156 21.8147 8.87879C23.2315 11.1279 23.7814 13.8084 23.3636 16.4271C22.9459 19.0459 21.5884 21.4277 19.54 23.1336C17.4915 24.8397 14.8899 25.7547 12.2143 25.7095C9.53859 25.6643 6.97007 24.6618 4.98142 22.8876C2.99287 21.1135 1.71803 18.6872 1.39049 16.0559C1.06294 13.4247 1.70455 10.7642 3.19788 8.56422C4.69127 6.36413 6.93626 4.7723 9.52023 4.08288L9.52027 4.08302L9.53195 4.0796C10.9914 3.65192 11.9688 2.29338 11.9723 0.834061C12.541 1.16196 13.0354 1.60787 13.4198 2.14463C13.4863 2.23778 13.5523 2.3336 13.6192 2.43076C14.0837 3.10531 14.5922 3.84379 15.6341 4.19534ZM8.37115 21.0073C9.44386 22.0713 10.8979 22.6684 12.4133 22.6684C13.9286 22.6684 15.3826 22.0713 16.4553 21.0073C17.5282 19.9431 18.1317 18.4988 18.1317 16.992C18.1317 15.4853 17.5282 14.041 16.4553 12.9768C15.3826 11.9127 13.9286 11.3157 12.4133 11.3157C10.8979 11.3157 9.44386 11.9127 8.37115 12.9768C7.29829 14.041 6.69484 15.4853 6.69484 16.992C6.69484 18.4988 7.29829 19.9431 8.37115 21.0073Z" fill="black" stroke="black"/>
</svg>
