<?xml version="1.0" standalone="no"?>
<!DOCTYPE svg PUBLIC "-//W3C//DTD SVG 20010904//EN"
 "http://www.w3.org/TR/2001/REC-SVG-20010904/DTD/svg10.dtd">
<svg version="1.0" xmlns="http://www.w3.org/2000/svg"
 width="208.000000pt" height="179.000000pt" viewBox="0 0 208.000000 179.000000"
 preserveAspectRatio="xMidYMid meet">

<g transform="translate(0.000000,179.000000) scale(0.100000,-0.100000)"
fill="#000000" stroke="none">
<path d="M1196 1768 c-8 -13 -31 -62 -52 -110 l-37 -88 -64 0 c-76 0 -117 -15
-171 -64 -61 -55 -84 -119 -81 -224 l3 -87 -397 -542 c-404 -552 -419 -577
-385 -611 36 -36 50 -21 294 313 131 179 241 325 244 325 3 0 30 -19 60 -42
68 -51 179 -103 262 -123 91 -21 258 -19 350 4 88 23 194 74 263 127 l49 37
18 -24 c10 -13 116 -159 235 -324 214 -295 219 -300 253 -300 33 0 35 2 38 35
3 31 -18 63 -200 315 -112 154 -218 300 -236 325 l-32 46 54 82 c59 90 106
204 106 258 0 68 -81 69 -95 2 -9 -44 -78 -186 -108 -222 l-24 -29 -130 179
c-127 175 -130 180 -120 214 21 79 -7 185 -68 258 l-26 31 46 107 c39 90 45
111 36 131 -14 31 -65 32 -85 1z m-243 -723 c73 -31 172 -16 238 36 l36 28
123 -171 123 -171 -28 -21 c-122 -93 -233 -135 -372 -143 -149 -9 -285 34
-411 128 l-52 40 61 82 c33 45 88 121 122 168 l62 86 31 -23 c16 -13 47 -30
67 -39z"/>
</g>
</svg>
