<svg width="94" height="48" viewBox="0 0 94 48" fill="none" xmlns="http://www.w3.org/2000/svg">
<path d="M45.9485 13.3911H93.6192V12.3911H45.9485V13.3911Z" fill="#333333"/>
<path d="M75.7463 1.58645L93.508 13.391L93.9485 12.1956L76.1868 0.391113L75.7463 1.58645Z" fill="#333333"/>
<path d="M48.9485 1.39112L1.27775 1.39111L1.27775 2.46803L48.9485 2.46804V1.39112Z" fill="#0C797A"/>
<path d="M19.1506 14.1038L1.389 1.39127L0.948486 2.67856L18.7101 15.3911L19.1506 14.1038Z" fill="#0C797A"/>
<path d="M49.6204 36.0161L47.0422 45.5942H46.1985L48.7766 36.0161H49.6204Z" fill="#0C797A"/>
<path d="M29.9485 41.5502C29.0924 41.5502 28.3633 41.3172 27.761 40.8513C27.1587 40.3816 26.6985 39.7017 26.3803 38.8116C26.0621 37.9176 25.903 36.8381 25.903 35.5729C25.903 34.3154 26.0621 33.2415 26.3803 32.3513C26.7023 31.4574 27.1644 30.7756 27.7667 30.3059C28.3727 29.8324 29.1 29.5957 29.9485 29.5957C30.797 29.5957 31.5224 29.8324 32.1246 30.3059C32.7307 30.7756 33.1928 31.4574 33.511 32.3513C33.833 33.2415 33.9939 34.3154 33.9939 35.5729C33.9939 36.8381 33.8349 37.9176 33.5167 38.8116C33.1985 39.7017 32.7383 40.3816 32.136 40.8513C31.5337 41.3172 30.8045 41.5502 29.9485 41.5502ZM29.9485 40.3002C30.797 40.3002 31.4561 39.8911 31.9258 39.0729C32.3955 38.2547 32.6303 37.0881 32.6303 35.5729C32.6303 34.5654 32.5224 33.7074 32.3064 32.9991C32.0943 32.2907 31.7875 31.751 31.386 31.3797C30.9883 31.0085 30.5091 30.8229 29.9485 30.8229C29.1076 30.8229 28.4504 31.2377 27.9769 32.0672C27.5034 32.893 27.2667 34.0616 27.2667 35.5729C27.2667 36.5805 27.3727 37.4366 27.5849 38.1411C27.797 38.8457 28.1019 39.3816 28.4996 39.7491C28.9011 40.1165 29.3841 40.3002 29.9485 40.3002ZM40.2439 29.7547V41.3911H38.8349V31.232H38.7667L35.9258 33.1184V31.6866L38.8349 29.7547H40.2439Z" fill="#333333"/>
<path d="M57.386 45.5005C56.7974 45.5005 56.2961 45.3403 55.8821 45.02C55.468 44.6971 55.1516 44.2297 54.9329 43.6177C54.7141 43.0031 54.6047 42.2609 54.6047 41.3911C54.6047 40.5265 54.7141 39.7882 54.9329 39.1763C55.1542 38.5617 55.4719 38.0929 55.886 37.77C56.3027 37.4445 56.8027 37.2817 57.386 37.2817C57.9693 37.2817 58.468 37.4445 58.8821 37.77C59.2987 38.0929 59.6165 38.5617 59.8352 39.1763C60.0566 39.7882 60.1672 40.5265 60.1672 41.3911C60.1672 42.2609 60.0579 43.0031 59.8391 43.6177C59.6204 44.2297 59.304 44.6971 58.8899 45.02C58.4758 45.3403 57.9745 45.5005 57.386 45.5005ZM57.386 44.6411C57.9693 44.6411 58.4224 44.3599 58.7454 43.7974C59.0683 43.2349 59.2297 42.4328 59.2297 41.3911C59.2297 40.6984 59.1555 40.1086 59.0071 39.6216C58.8612 39.1346 58.6503 38.7635 58.3743 38.5083C58.1008 38.2531 57.7714 38.1255 57.386 38.1255C56.8079 38.1255 56.356 38.4106 56.0305 38.981C55.705 39.5487 55.5422 40.3521 55.5422 41.3911C55.5422 42.0838 55.6152 42.6724 55.761 43.1567C55.9068 43.6411 56.1165 44.0096 56.3899 44.2622C56.6659 44.5148 56.998 44.6411 57.386 44.6411ZM64.3547 45.5005C63.8391 45.5005 63.3795 45.4119 62.9758 45.2349C62.5748 45.0578 62.2558 44.8117 62.0188 44.4966C61.7844 44.1789 61.6568 43.8104 61.636 43.3911H62.6204C62.6412 43.6489 62.7297 43.8716 62.886 44.0591C63.0422 44.244 63.2467 44.3872 63.4993 44.4888C63.7519 44.5903 64.0318 44.6411 64.3391 44.6411C64.6829 44.6411 64.9875 44.5812 65.2532 44.4614C65.5188 44.3416 65.7271 44.175 65.8782 43.9614C66.0292 43.7479 66.1047 43.5005 66.1047 43.2192C66.1047 42.925 66.0318 42.6659 65.886 42.4419C65.7402 42.2153 65.5266 42.0382 65.2454 41.9106C64.9641 41.783 64.6204 41.7192 64.2141 41.7192H63.5735V40.8599H64.2141C64.5318 40.8599 64.8105 40.8026 65.05 40.688C65.2922 40.5734 65.481 40.4119 65.6165 40.2036C65.7545 39.9953 65.8235 39.7505 65.8235 39.4692C65.8235 39.1984 65.7636 38.9627 65.6438 38.7622C65.524 38.5617 65.3547 38.4054 65.136 38.2935C64.9198 38.1815 64.6646 38.1255 64.3704 38.1255C64.0943 38.1255 63.8339 38.1763 63.5891 38.2778C63.3469 38.3768 63.149 38.5213 62.9954 38.7114C62.8417 38.8989 62.7584 39.1255 62.7454 39.3911H61.8079C61.8235 38.9718 61.9498 38.6047 62.1868 38.2896C62.4237 37.9718 62.7336 37.7244 63.1165 37.5474C63.5019 37.3703 63.925 37.2817 64.386 37.2817C64.8808 37.2817 65.3053 37.382 65.6594 37.5825C66.0136 37.7804 66.2857 38.0422 66.4758 38.3677C66.6659 38.6932 66.761 39.0448 66.761 39.4224C66.761 39.8729 66.6425 40.257 66.4055 40.5747C66.1711 40.8924 65.8521 41.1125 65.4485 41.2349V41.2974C65.9537 41.3807 66.3482 41.5955 66.6321 41.9419C66.9159 42.2856 67.0579 42.7114 67.0579 43.2192C67.0579 43.6541 66.9394 44.0448 66.7024 44.3911C66.468 44.7349 66.1477 45.0057 65.7415 45.2036C65.3352 45.4015 64.873 45.5005 64.3547 45.5005Z" fill="#0C797A"/>
</svg>
