<svg width="18" height="18" viewBox="0 0 18 18" fill="none" xmlns="http://www.w3.org/2000/svg">
<path d="M15 0H3C1.3 0 0 1.29178 0 2.98104V14.9052C0 16.5944 1.3 17.8862 3 17.8862H15C16.7 17.8862 18 16.5944 18 14.9052V2.98104C18 1.29178 16.7 0 15 0ZM9 5.96208C10.7 5.96208 12 7.25386 12 8.94312C12 10.6324 10.7 11.9242 9 11.9242C7.3 11.9242 6 10.6324 6 8.94312C6 7.25386 7.3 5.96208 9 5.96208ZM12.8 3.97472C12.8 3.27914 13.4 2.7823 14 2.7823C14.6 2.7823 15.2 3.37851 15.2 3.97472C15.2 4.57093 14.7 5.16713 14 5.16713C13.3 5.16713 12.8 4.67029 12.8 3.97472ZM15 15.8989H3C2.4 15.8989 2 15.5014 2 14.9052V8.94312H4C4 11.7254 6.2 13.9115 9 13.9115C11.8 13.9115 14 11.7254 14 8.94312H16V14.9052C16 15.5014 15.6 15.8989 15 15.8989Z" fill="#4F4F4F"/>
</svg>
