<svg xmlns="http://www.w3.org/2000/svg" width="50" height="43" fill="none"><path fill="#4F4F4F" d="m49.782 40.453-11.376-15.7a19.4 19.4 0 0 0 3.733-6.556c.11-.328.197-.657.284-.987l.058-.22c.159-.59-.161-1.205-.715-1.374-.55-.17-1.13.172-1.288.763l-.06.228c-.074.28-.147.56-.24.84a17.2 17.2 0 0 1-3.071 5.514l-6.424-8.866a6.7 6.7 0 0 0 .083-4.54 6.3 6.3 0 0 0-2.226-3.086l2.155-4.883c.245-.555.022-1.218-.498-1.48-.52-.261-1.142-.024-1.387.532l-2.157 4.886a5.6 5.6 0 0 0-1.584-.238c-2.344 0-4.5 1.456-5.5 3.713a6.76 6.76 0 0 0-.209 4.925c.02.057.052.105.072.162L.221 40.332c-.354.484-.274 1.182.18 1.56.19.159.416.236.64.236.31 0 .616-.147.822-.427L13.19 26.223c1.716 1.593 3.65 2.83 5.79 3.64a17.1 17.1 0 0 0 6.065 1.117c4.368 0 8.574-1.7 11.844-4.683l11.244 15.516c.206.284.514.432.825.432a1 1 0 0 0 .636-.232c.456-.376.54-1.074.187-1.56M19.677 27.767c-1.926-.728-3.664-1.85-5.203-3.296l6.126-8.369a6.1 6.1 0 0 0 1.896 1.468 5.6 5.6 0 0 0 2.562.611c1.71 0 3.313-.78 4.448-2.076l6.11 8.434c-4.233 3.914-10.282 5.367-15.94 3.228"/></svg>