<svg xmlns="http://www.w3.org/2000/svg" width="44" height="48" fill="none"><path fill="#4F4F4F" d="M22 12.112c-6.213 0-11.269 5.316-11.269 11.85S15.787 35.812 22 35.812s11.269-5.316 11.269-11.85S28.213 12.112 22 12.112M22 10.133c.39 0 .706-.333.706-.743V1.57c0-.41-.316-.743-.706-.743s-.706.332-.706.742V9.39c0 .41.316.743.706.743M22 37.79c-.39 0-.706.332-.706.742v7.821c0 .41.316.742.706.742s.706-.332.706-.742v-7.821c0-.41-.316-.742-.706-.742M11.704 14.183a.69.69 0 0 0 .499.218c.18 0 .361-.073.5-.218a.77.77 0 0 0 0-1.05l-5.26-5.53a.68.68 0 0 0-.999 0 .77.77 0 0 0 0 1.05zM32.298 33.74a.68.68 0 0 0-.999 0 .77.77 0 0 0 0 1.05l5.26 5.53a.69.69 0 0 0 .5.217c.18 0 .36-.073.498-.217a.77.77 0 0 0 0-1.05zM31.798 14.4c.18 0 .361-.072.5-.217l5.258-5.53a.77.77 0 0 0 0-1.05.68.68 0 0 0-.998 0l-5.26 5.53a.77.77 0 0 0 0 1.05.7.7 0 0 0 .5.218M11.704 33.74l-5.26 5.53a.77.77 0 0 0 0 1.05.69.69 0 0 0 .5.217c.18 0 .36-.073.499-.217l5.26-5.53a.77.77 0 0 0 0-1.05.68.68 0 0 0-1 0M43.294 23.219h-7.437c-.39 0-.706.332-.706.742s.316.742.706.742h7.437c.39 0 .706-.332.706-.742s-.316-.742-.706-.742M8.85 23.961c0-.41-.316-.742-.706-.742H.706c-.39 0-.706.332-.706.742s.316.742.706.742h7.437c.39 0 .707-.331.707-.742"/></svg>