<svg xmlns="http://www.w3.org/2000/svg" width="70" height="50" fill="none"><path fill="#4F4F4F" d="M35 5.769c-8.578 0-16.449 3.097-22.588 8.097-.221.182-.366.45-.403.747-.037.296.038.596.207.834s.418.393.694.433.555-.04.776-.222C19.47 10.946 26.89 8.017 35 8.017s15.529 2.93 21.314 7.64c.221.182.5.262.776.223s.525-.196.694-.433c.17-.238.244-.538.207-.834a1.15 1.15 0 0 0-.403-.747c-6.14-5-14.01-8.097-22.588-8.097m0 10.68c-6.147 0-11.878 2-16.333 5.866a1.1 1.1 0 0 0-.309.33q-.12.2-.156.436c-.024.156-.016.316.021.468s.105.295.198.417q.14.186.338.295a.99.99 0 0 0 1.215-.207c4.048-3.513 9.301-5.357 15.026-5.357s10.978 1.844 15.026 5.357q.158.169.365.255a.98.98 0 0 0 .85-.048q.198-.11.338-.295c.093-.122.16-.265.197-.417a1.2 1.2 0 0 0-.135-.904 1.1 1.1 0 0 0-.308-.33C46.878 18.449 41.147 16.448 35 16.448m0 10.117c-3.753 0-7.319 1.264-10.061 3.6a1.193 1.193 0 0 0-.168 1.587 1 1 0 0 0 1.474.188c2.342-1.995 5.444-3.127 8.755-3.127 3.31 0 6.413 1.132 8.754 3.127a1 1 0 0 0 1.475-.188 1.193 1.193 0 0 0-.168-1.587c-2.742-2.336-6.307-3.6-10.061-3.6m0 10.68c-1.732 0-3.136 1.51-3.136 3.372S33.268 43.99 35 43.99s3.136-1.51 3.136-3.372c0-1.863-1.404-3.373-3.136-3.373"/></svg>