<svg width="46" height="39" viewBox="0 0 46 39" fill="none" xmlns="http://www.w3.org/2000/svg">
<path d="M23 0.768555C14.4221 0.768555 6.55119 3.86637 0.411638 8.86606C0.190719 9.04774 0.0459588 9.31636 0.00920269 9.61283C-0.0275534 9.9093 0.0467058 10.2093 0.215644 10.4469C0.384582 10.6845 0.634361 10.8402 0.910031 10.8797C1.1857 10.9192 1.46468 10.8394 1.6856 10.6577C7.47142 5.94607 14.8902 3.01689 23 3.01689C31.1098 3.01689 38.5286 5.94607 44.3144 10.6577C44.5353 10.8394 44.8143 10.9192 45.09 10.8797C45.3656 10.8402 45.6154 10.6845 45.7844 10.4469C45.9533 10.2093 46.0275 9.9093 45.9908 9.61283C45.954 9.31636 45.8093 9.04774 45.5884 8.86606C39.4488 3.86637 31.5778 0.768555 23 0.768555ZM23 11.4481C16.8533 11.4481 11.1223 13.4491 6.66713 17.3149C6.54386 17.4004 6.4387 17.5128 6.35848 17.6449C6.27827 17.777 6.2248 17.9257 6.20156 18.0815C6.17831 18.2372 6.1858 18.3965 6.22355 18.549C6.26129 18.7014 6.32844 18.8436 6.42064 18.9663C6.51284 19.089 6.62801 19.1895 6.75868 19.2612C6.88934 19.3328 7.03257 19.3742 7.17906 19.3824C7.32555 19.3907 7.47201 19.3657 7.60892 19.3091C7.74584 19.2524 7.87014 19.1655 7.97376 19.0538C12.0217 15.5414 17.2751 13.6965 23 13.6965C28.7249 13.6965 33.9783 15.5414 38.0262 19.0538C38.1299 19.1655 38.2542 19.2524 38.3911 19.3091C38.528 19.3657 38.6744 19.3907 38.8209 19.3824C38.9674 19.3742 39.1107 19.3328 39.2413 19.2612C39.372 19.1895 39.4872 19.089 39.5794 18.9663C39.6716 18.8436 39.7387 18.7014 39.7765 18.549C39.8142 18.3965 39.8217 18.2372 39.7984 18.0815C39.7752 17.9257 39.7217 17.777 39.6415 17.6449C39.5613 17.5128 39.4561 17.4004 39.3329 17.3149C34.8777 13.4491 29.1467 11.4481 23 11.4481ZM23 21.5656C19.2465 21.5656 15.6812 22.8298 12.9389 25.1665C12.7216 25.3533 12.5819 25.6251 12.5504 25.9225C12.519 26.2198 12.5983 26.5184 12.7711 26.753C12.9439 26.9876 13.196 27.139 13.4723 27.1742C13.7487 27.2093 14.0267 27.1253 14.2456 26.9405C16.5865 24.9458 19.6893 23.8139 23 23.8139C26.3107 23.8139 29.4135 24.9458 31.7544 26.9405C31.9733 27.1253 32.2513 27.2093 32.5277 27.1742C32.804 27.139 33.0561 26.9876 33.2289 26.753C33.4017 26.5184 33.481 26.2198 33.4496 25.9225C33.4181 25.6251 33.2784 25.3533 33.061 25.1665C30.3188 22.8298 26.7535 21.5656 23 21.5656ZM23 32.2452C21.2681 32.2452 19.8641 33.7551 19.8641 35.6177C19.8641 37.4803 21.2681 38.9902 23 38.9902C24.7319 38.9902 26.1359 37.4803 26.1359 35.6177C26.1359 33.7551 24.7319 32.2452 23 32.2452Z" fill="#4F4F4F"/>
</svg>
