<svg width="24" height="24" viewBox="0 0 24 24" fill="none" xmlns="http://www.w3.org/2000/svg">
<path d="M20.4213 6.67504C21.4088 6.1012 22.0626 5.31794 22.3828 4.32181C21.4809 4.78356 20.5131 5.11909 19.5095 5.31794C18.6504 4.44329 17.5626 3.99902 16.2586 3.99902C14.9839 3.99902 13.9072 4.42247 13.0284 5.24621C12.6041 5.63738 12.2686 6.10645 12.0424 6.62469C11.8163 7.14293 11.7044 7.69942 11.7134 8.26006C11.7134 8.61755 11.7611 8.93687 11.8564 9.2076C8.09705 9.08612 4.98545 7.60985 2.5338 4.76839C2.11827 5.46372 1.9105 6.17177 1.9105 6.90412C1.9105 8.4093 2.58147 9.60212 3.92095 10.4779C3.1571 10.4166 2.4837 10.2338 1.9105 9.93416C1.9105 11.009 2.24415 11.9068 2.91267 12.6969C3.56207 13.4669 4.47725 13.9958 5.49753 14.1906C5.11622 14.2831 4.71413 14.3271 4.30104 14.3271C3.91973 14.3271 3.64963 14.297 3.48953 14.2311C3.77062 15.1069 4.30104 15.8172 5.06733 16.361C5.82487 16.9055 6.74635 17.2067 7.69741 17.2206C6.0695 18.4296 4.20816 19.0278 2.10238 19.0278C1.58663 19.0278 1.22121 19.0208 1 18.9838C3.074 20.2588 5.38265 20.8916 7.93695 20.8916C10.5511 20.8916 12.861 20.2645 14.8715 19.0104C16.8819 17.7632 18.3656 16.2245 19.3189 14.4127C20.2616 12.6596 20.7524 10.7201 20.7512 8.75292V8.21147C21.6299 7.5982 22.3906 6.8464 23 5.98897C22.177 6.32664 21.3096 6.55742 20.4213 6.67504Z" fill="#4F4F4F"/>
</svg>
