<svg width="50" height="43" viewBox="0 0 50 43" fill="none" xmlns="http://www.w3.org/2000/svg">
<path d="M49.7822 40.4532L38.4062 24.7539C40.008 22.9092 41.2966 20.7049 42.1386 18.1968C42.2484 17.869 42.3364 17.5395 42.4234 17.21L42.4814 16.9907C42.6396 16.4006 42.3197 15.785 41.7663 15.6162C41.2154 15.4463 40.6361 15.7883 40.4784 16.3794L40.4179 16.6074C40.3442 16.8875 40.2709 17.1676 40.1773 17.4461C39.4745 19.5395 38.4135 21.3869 37.1068 22.9608L30.6827 14.0954C31.2284 12.6348 31.2755 11.041 30.7664 9.5545C30.3433 8.28673 29.5626 7.22653 28.5399 6.46868L30.695 1.58583C30.9402 1.03052 30.7169 0.367731 30.1966 0.106089C29.6778 -0.15501 29.0552 0.0822047 28.8101 0.638058L26.6533 5.52443C26.1368 5.37292 25.6074 5.28552 25.0685 5.28552C22.7247 5.28552 20.5685 6.74185 19.5685 8.99865C18.881 10.555 18.8081 12.3004 19.3602 13.9235C19.3793 13.9806 19.4115 14.0292 19.432 14.0855L0.220737 40.3316C-0.133266 40.8158 -0.0529032 41.5144 0.400282 41.8922C0.591017 42.0507 0.816846 42.1278 1.04115 42.1278C1.35039 42.1278 1.6571 41.9812 1.86258 41.7006L13.1913 26.2234C14.9073 27.816 16.8406 29.0539 18.9809 29.8627C20.9843 30.6205 23.0316 30.9798 25.0462 30.9798C29.4143 30.9798 33.6197 29.2797 36.8904 26.2967L48.1343 41.8135C48.3397 42.0969 48.6475 42.2451 48.9587 42.2451C49.1815 42.2451 49.4058 42.1691 49.5955 42.0127C50.0508 41.6371 50.1342 40.939 49.7822 40.4532ZM19.6767 27.7674C17.7507 27.0389 16.0128 25.9178 14.4741 24.4709L20.5996 16.1024C21.1269 16.7083 21.7658 17.2079 22.4956 17.5699C23.3081 17.9812 24.1727 18.1813 25.0581 18.1813C26.7674 18.1813 28.3714 17.4002 29.5055 16.1054L35.6166 24.5389C31.3825 28.453 25.3345 29.906 19.6767 27.7674Z" fill="#4F4F4F"/>
</svg>
