<svg xmlns="http://www.w3.org/2000/svg" width="18" height="18" fill="none"><path fill="#4F4F4F" d="M15 0H3C1.3 0 0 1.292 0 2.981v11.924c0 1.69 1.3 2.981 3 2.981h12c1.7 0 3-1.292 3-2.98V2.98C18 1.291 16.7 0 15 0M9 5.962c1.7 0 3 1.292 3 2.981 0 1.69-1.3 2.981-3 2.981s-3-1.292-3-2.98c0-1.69 1.3-2.982 3-2.982m3.8-1.987c0-.696.6-1.193 1.2-1.193s1.2.597 1.2 1.193-.5 1.192-1.2 1.192-1.2-.497-1.2-1.192M15 15.899H3c-.6 0-1-.398-1-.994V8.943h2c0 2.782 2.2 4.969 5 4.969s5-2.187 5-4.969h2v5.962c0 .596-.4.994-1 .994"/></svg>