<svg width="54" height="18" viewBox="0 0 54 18" fill="none" xmlns="http://www.w3.org/2000/svg">
<path d="M1.092 4.004V14H8.036V12.88H2.422V9.422H7.616V8.302H2.422V5.124H7.994V4.004H1.092ZM9.63659 4.004V14H10.8966V5.978H10.9246L16.1466 14H17.6026V4.004H16.3426V12.11H16.3146L11.0506 4.004H9.63659Z" fill="#E0E0E0"/>
<path d="M40.072 10.388V4.004H38.742V10.388C38.742 11.284 38.518 11.9653 38.07 12.432C37.6313 12.8893 36.9873 13.118 36.138 13.118C35.242 13.118 34.556 12.8893 34.08 12.432C33.604 11.9653 33.366 11.284 33.366 10.388V4.004H32.036V10.388C32.036 11.7227 32.3953 12.698 33.114 13.314C33.842 13.9207 34.85 14.224 36.138 14.224C37.398 14.224 38.3687 13.9067 39.05 13.272C39.7313 12.628 40.072 11.6667 40.072 10.388ZM43.9175 9.87L45.6115 5.208H45.6395L47.3055 9.87H43.9175ZM44.9115 4.004L41.0195 14H42.3775L43.4975 10.99H47.7255L48.8175 14H50.2875L46.3815 4.004H44.9115Z" fill="#333333"/>
<path d="M25.892 3.766L21.762 14.224H22.77L26.914 3.766H25.892Z" fill="#333333"/>
</svg>
