<svg width="55" height="18" viewBox="0 0 55 18" fill="none" xmlns="http://www.w3.org/2000/svg">
<path d="M10.7434 2.448C11.7674 3.472 12.2794 4.736 12.2794 6.24C12.2794 7.744 11.7674 9.008 10.7434 10.032C9.73544 11.056 8.36744 11.568 6.63944 11.568H3.35144V18H0.0154376V0.912H6.63944C8.36744 0.912 9.73544 1.424 10.7434 2.448ZM8.27144 7.944C8.71944 7.512 8.94344 6.944 8.94344 6.24C8.94344 5.536 8.71944 4.968 8.27144 4.536C7.82344 4.104 7.22344 3.888 6.47144 3.888H3.35144V8.568H6.47144C7.22344 8.568 7.82344 8.36 8.27144 7.944ZM26.1738 18H15.0858V0.912H18.4218V15.024H26.1738V18ZM42.0904 18H38.6104L37.6024 14.976H31.5304L30.4984 18H27.0184L33.2344 0.912H35.8504L42.0904 18ZM36.7144 12.168L34.6264 5.952L32.4664 12.168H36.7144ZM54.8982 0.912L49.7622 10.992V18H46.4502V10.992L41.3142 0.912H44.9382L48.1302 7.8L51.2742 0.912H54.8982Z" fill="#F3F4F5"/>
</svg>
