<svg width="61" height="50" viewBox="0 0 61 50" fill="none" xmlns="http://www.w3.org/2000/svg">
<path id="Repeat (Traced)" fill-rule="evenodd" clip-rule="evenodd" d="M13.8095 0.0485072C13.537 0.100356 13.1434 0.232017 12.9348 0.340994C11.9698 0.845436 3.49037 5.841 3.13823 6.1126C2.55695 6.56076 2.13559 7.49211 2.13559 8.32864C2.13559 9.18066 2.36948 9.75843 2.94684 10.3328C3.31193 10.696 11.5379 15.5971 13.1703 16.4241C14.0936 16.8918 15.508 16.6125 16.3072 15.8046C17.0347 15.0692 17.1367 14.6871 17.1913 12.4904L17.2413 10.4801H30.164C38.8382 10.4801 43.4885 10.524 44.3085 10.6136C47.8347 10.999 51.1598 12.8054 53.3286 15.5137C55.1942 17.8435 56.1117 20.085 56.4017 23.0221C56.5936 24.9652 56.6128 25.0601 56.901 25.488C57.2992 26.0794 57.7361 26.3499 58.3966 26.4141C59.1862 26.4908 59.5085 26.3959 60.0303 25.9327C60.6277 25.4025 60.7868 24.9474 60.7843 23.7761C60.7759 19.8582 59.1024 15.5623 56.3349 12.3546C54.091 9.75363 50.8173 7.68174 47.5604 6.80103C45.4103 6.21954 46.0357 6.2427 31.2075 6.19554L17.241 6.15101L17.1912 4.14489C17.1478 2.40317 17.1085 2.07527 16.8927 1.65713C16.2697 0.450092 15.0481 -0.187211 13.8095 0.0485072ZM1.12641 23.7798C0.64842 24.0892 0.278825 24.5102 0.125193 24.9202C-0.151321 25.6578 0.0508703 28.2835 0.528863 30.1633C2.1236 36.436 7.10025 41.5478 13.2245 43.2039C15.3746 43.7854 14.7492 43.7622 29.5774 43.8094L43.5439 43.8539L43.5938 45.86C43.6371 47.6017 43.6764 47.9296 43.8923 48.3478C44.6281 49.7735 46.2408 50.3807 47.6279 49.754C48.324 49.4396 57.1475 44.2773 57.6467 43.8923C58.228 43.4441 58.6493 42.5128 58.6493 41.6763C58.6493 40.8242 58.4155 40.2465 57.8381 39.672C57.473 39.3089 49.247 34.4078 47.6147 33.5808C46.6913 33.1131 45.277 33.3924 44.4777 34.2002C43.7503 34.9357 43.6483 35.3177 43.5937 37.5145L43.5437 39.5248H30.6209C21.9467 39.5248 17.2965 39.4809 16.4764 39.3913C12.9503 39.0059 9.62508 37.1995 7.45631 34.4912C5.59076 32.1614 4.67324 29.9199 4.3832 26.9828C4.19133 25.0397 4.1721 24.9448 3.88395 24.5168C3.44134 23.8595 3.04384 23.6379 2.22333 23.5913C1.64501 23.5584 1.40447 23.5998 1.12641 23.7798Z" fill="#F08178"/>
</svg>
