<svg width="70" height="50" viewBox="0 0 70 50" fill="none" xmlns="http://www.w3.org/2000/svg">
<path d="M39.2791 3.79785L23.7006 15.4708H12V34.3699H23.7006L39.2791 46.0429V3.79785ZM50.4281 9.33904C50.1964 9.35337 49.9756 9.44557 49.7987 9.60174C49.6219 9.75791 49.4988 9.96958 49.4478 10.2048C49.3969 10.4401 49.421 10.6862 49.5164 10.906C49.6118 11.1258 49.7733 11.3075 49.9767 11.4235C53.2399 13.3541 55.8605 18.6086 55.8605 24.9204C55.8605 31.2321 53.24 36.4692 49.9767 38.3999C49.7321 38.548 49.5539 38.7909 49.4811 39.0752C49.4083 39.3596 49.4468 39.6623 49.5882 39.9172C49.7297 40.1721 49.9625 40.3585 50.2358 40.4354C50.5091 40.5124 50.8006 40.4738 51.0465 40.328C55.2789 37.8239 58 31.8533 58 24.9204C58 17.9874 55.2789 11.9994 51.0465 9.49538C50.8604 9.37927 50.6447 9.32474 50.4281 9.33904ZM44.8452 13.7859C44.6122 13.7968 44.3891 13.8866 44.2097 14.0415C44.0304 14.1964 43.9046 14.4079 43.8516 14.6439C43.7986 14.88 43.8213 15.1275 43.9162 15.3489C44.0111 15.5703 44.1729 15.7534 44.3772 15.8703C46.3866 17.105 48.1381 20.6348 48.1381 24.9204C48.1381 29.206 46.3866 32.7184 44.3772 33.953C44.2547 34.0268 44.1474 34.125 44.0615 34.242C43.9756 34.359 43.9128 34.4924 43.8766 34.6347C43.8405 34.777 43.8318 34.9253 43.851 35.0711C43.8702 35.2169 43.9169 35.3573 43.9884 35.4843C44.06 35.6112 44.155 35.7223 44.2679 35.811C44.3809 35.8997 44.5096 35.9644 44.6467 36.0013C44.7838 36.0381 44.9265 36.0465 45.0667 36.0259C45.2069 36.0053 45.3418 35.9561 45.4637 35.8812C48.4513 34.0456 50.2776 29.8042 50.2776 24.9204C50.2776 20.0366 48.4513 15.7778 45.4637 13.9422C45.2775 13.8261 45.0618 13.7716 44.8452 13.7859Z" fill="#4F4F4F"/>
</svg>
