<svg width="45" height="12" viewBox="0 0 45 12" fill="none" xmlns="http://www.w3.org/2000/svg">
<path d="M1.456 7.71C1.44667 8.22333 1.526 8.65267 1.694 8.998C1.862 9.34333 2.09067 9.61867 2.38 9.824C2.67867 10.0293 3.02867 10.1787 3.43 10.272C3.83133 10.356 4.26067 10.398 4.718 10.398C4.97933 10.398 5.264 10.3607 5.572 10.286C5.88 10.2113 6.16467 10.0947 6.426 9.936C6.69667 9.768 6.92067 9.558 7.098 9.306C7.27533 9.04467 7.364 8.732 7.364 8.368C7.364 8.088 7.29867 7.84533 7.168 7.64C7.04667 7.43467 6.88333 7.262 6.678 7.122C6.482 6.982 6.26267 6.87 6.02 6.786C5.77733 6.69267 5.53933 6.618 5.306 6.562L3.08 6.016C2.79067 5.94133 2.506 5.848 2.226 5.736C1.95533 5.624 1.71733 5.47467 1.512 5.288C1.30667 5.10133 1.13867 4.87267 1.008 4.602C0.886667 4.33133 0.826 4 0.826 3.608C0.826 3.36533 0.872667 3.08067 0.966 2.754C1.05933 2.42733 1.232 2.11933 1.484 1.83C1.74533 1.54067 2.1 1.298 2.548 1.102C2.996 0.896666 3.57 0.794 4.27 0.794C4.76467 0.794 5.236 0.859333 5.684 0.99C6.132 1.12067 6.524 1.31667 6.86 1.578C7.196 1.83933 7.462 2.166 7.658 2.558C7.86333 2.94067 7.966 3.38867 7.966 3.902H7.014C6.99533 3.51933 6.90667 3.188 6.748 2.908C6.59867 2.61867 6.398 2.38067 6.146 2.194C5.90333 1.998 5.61867 1.85333 5.292 1.76C4.97467 1.65733 4.63867 1.606 4.284 1.606C3.95733 1.606 3.64 1.64333 3.332 1.718C3.03333 1.78333 2.76733 1.89533 2.534 2.054C2.31 2.20333 2.128 2.404 1.988 2.656C1.848 2.908 1.778 3.22067 1.778 3.594C1.778 3.82733 1.81533 4.03267 1.89 4.21C1.974 4.378 2.086 4.52267 2.226 4.644C2.366 4.76533 2.52467 4.86333 2.702 4.938C2.88867 5.01267 3.08467 5.07333 3.29 5.12L5.726 5.722C6.08067 5.81533 6.412 5.932 6.72 6.072C7.03733 6.20267 7.31267 6.37067 7.546 6.576C7.78867 6.772 7.97533 7.01467 8.106 7.304C8.246 7.59333 8.316 7.94333 8.316 8.354C8.316 8.466 8.302 8.61533 8.274 8.802C8.25533 8.98867 8.19933 9.18933 8.106 9.404C8.022 9.60933 7.896 9.81933 7.728 10.034C7.56933 10.2487 7.34533 10.4447 7.056 10.622C6.776 10.79 6.426 10.9253 6.006 11.028C5.586 11.14 5.082 11.196 4.494 11.196C3.906 11.196 3.36 11.1307 2.856 11C2.352 10.86 1.92267 10.65 1.568 10.37C1.21333 10.09 0.938 9.73067 0.742 9.292C0.555333 8.85333 0.476 8.326 0.504 7.71H1.456ZM10.7784 5.904H14.0544C14.717 5.904 15.2537 5.736 15.6644 5.4C16.075 5.064 16.2804 4.55067 16.2804 3.86C16.2804 3.16933 16.075 2.656 15.6644 2.32C15.2537 1.984 14.717 1.816 14.0544 1.816H10.7784V5.904ZM9.82636 1.004H14.2644C14.7124 1.004 15.1184 1.06933 15.4824 1.2C15.8464 1.32133 16.159 1.508 16.4204 1.76C16.6817 2.00267 16.8824 2.30133 17.0224 2.656C17.1624 3.01067 17.2324 3.412 17.2324 3.86C17.2324 4.308 17.1624 4.70933 17.0224 5.064C16.8824 5.41867 16.6817 5.722 16.4204 5.974C16.159 6.21667 15.8464 6.40333 15.4824 6.534C15.1184 6.65533 14.7124 6.716 14.2644 6.716H10.7784V11H9.82636V1.004ZM18.6447 1.004H25.5467V1.816H19.5967V5.428H25.1687V6.24H19.5967V10.188H25.6167V11H18.6447V1.004ZM34.2515 4.028C34.1675 3.64533 34.0275 3.30467 33.8315 3.006C33.6449 2.698 33.4115 2.44133 33.1315 2.236C32.8609 2.03067 32.5575 1.87667 32.2215 1.774C31.8949 1.662 31.5495 1.606 31.1855 1.606C30.5229 1.606 29.9535 1.732 29.4775 1.984C29.0015 2.236 28.6095 2.572 28.3015 2.992C28.0029 3.40267 27.7789 3.86933 27.6295 4.392C27.4895 4.91467 27.4195 5.45133 27.4195 6.002C27.4195 6.54333 27.4895 7.08 27.6295 7.612C27.7789 8.13467 28.0029 8.606 28.3015 9.026C28.6095 9.43667 29.0015 9.768 29.4775 10.02C29.9535 10.272 30.5229 10.398 31.1855 10.398C31.6522 10.398 32.0722 10.314 32.4455 10.146C32.8189 9.978 33.1409 9.74933 33.4115 9.46C33.6822 9.17067 33.9015 8.83467 34.0695 8.452C34.2375 8.06 34.3449 7.64 34.3915 7.192H35.3435C35.2782 7.808 35.1335 8.36333 34.9095 8.858C34.6855 9.35267 34.3962 9.77267 34.0415 10.118C33.6869 10.4633 33.2669 10.7293 32.7815 10.916C32.3055 11.1027 31.7735 11.196 31.1855 11.196C30.4015 11.196 29.7109 11.056 29.1135 10.776C28.5255 10.4867 28.0355 10.104 27.6435 9.628C27.2515 9.152 26.9575 8.60133 26.7615 7.976C26.5655 7.35067 26.4675 6.69267 26.4675 6.002C26.4675 5.31133 26.5655 4.65333 26.7615 4.028C26.9575 3.40267 27.2515 2.852 27.6435 2.376C28.0355 1.89067 28.5255 1.508 29.1135 1.228C29.7109 0.938666 30.4015 0.794 31.1855 0.794C31.6615 0.794 32.1235 0.863999 32.5715 1.004C33.0289 1.144 33.4395 1.354 33.8035 1.634C34.1769 1.90467 34.4849 2.24067 34.7275 2.642C34.9795 3.04333 35.1382 3.50533 35.2035 4.028H34.2515ZM37.249 7.71C37.2396 8.22333 37.319 8.65267 37.487 8.998C37.655 9.34333 37.8836 9.61867 38.173 9.824C38.4716 10.0293 38.8216 10.1787 39.223 10.272C39.6243 10.356 40.0536 10.398 40.511 10.398C40.7723 10.398 41.057 10.3607 41.365 10.286C41.673 10.2113 41.9576 10.0947 42.219 9.936C42.4896 9.768 42.7136 9.558 42.891 9.306C43.0683 9.04467 43.157 8.732 43.157 8.368C43.157 8.088 43.0916 7.84533 42.961 7.64C42.8396 7.43467 42.6763 7.262 42.471 7.122C42.275 6.982 42.0556 6.87 41.813 6.786C41.5703 6.69267 41.3323 6.618 41.099 6.562L38.873 6.016C38.5836 5.94133 38.299 5.848 38.019 5.736C37.7483 5.624 37.5103 5.47467 37.305 5.288C37.0996 5.10133 36.9316 4.87267 36.801 4.602C36.6796 4.33133 36.619 4 36.619 3.608C36.619 3.36533 36.6656 3.08067 36.759 2.754C36.8523 2.42733 37.025 2.11933 37.277 1.83C37.5383 1.54067 37.893 1.298 38.341 1.102C38.789 0.896666 39.363 0.794 40.063 0.794C40.5576 0.794 41.029 0.859333 41.477 0.99C41.925 1.12067 42.317 1.31667 42.653 1.578C42.989 1.83933 43.255 2.166 43.451 2.558C43.6563 2.94067 43.759 3.38867 43.759 3.902H42.807C42.7883 3.51933 42.6996 3.188 42.541 2.908C42.3916 2.61867 42.191 2.38067 41.939 2.194C41.6963 1.998 41.4116 1.85333 41.085 1.76C40.7676 1.65733 40.4316 1.606 40.077 1.606C39.7503 1.606 39.433 1.64333 39.125 1.718C38.8263 1.78333 38.5603 1.89533 38.327 2.054C38.103 2.20333 37.921 2.404 37.781 2.656C37.641 2.908 37.571 3.22067 37.571 3.594C37.571 3.82733 37.6083 4.03267 37.683 4.21C37.767 4.378 37.879 4.52267 38.019 4.644C38.159 4.76533 38.3176 4.86333 38.495 4.938C38.6816 5.01267 38.8776 5.07333 39.083 5.12L41.519 5.722C41.8736 5.81533 42.205 5.932 42.513 6.072C42.8303 6.20267 43.1056 6.37067 43.339 6.576C43.5816 6.772 43.7683 7.01467 43.899 7.304C44.039 7.59333 44.109 7.94333 44.109 8.354C44.109 8.466 44.095 8.61533 44.067 8.802C44.0483 8.98867 43.9923 9.18933 43.899 9.404C43.815 9.60933 43.689 9.81933 43.521 10.034C43.3623 10.2487 43.1383 10.4447 42.849 10.622C42.569 10.79 42.219 10.9253 41.799 11.028C41.379 11.14 40.875 11.196 40.287 11.196C39.699 11.196 39.153 11.1307 38.649 11C38.145 10.86 37.7156 10.65 37.361 10.37C37.0063 10.09 36.731 9.73067 36.535 9.292C36.3483 8.85333 36.269 8.326 36.297 7.71H37.249Z" fill="#4F4F4F"/>
</svg>
