<?xml version="1.0" encoding="UTF-8"?>
<svg xmlns="http://www.w3.org/2000/svg" xmlns:xlink="http://www.w3.org/1999/xlink" width="0" height="0">
<symbol id="arrow-next" width="48" height="13" viewBox="0 0 48 13" fill="none"><path d="M0 13H47.6707V12H0V13Z" fill="currentColor"/><path d="M29.7978 1.19533L47.5595 12.9999L48 11.8045L30.2384 0L29.7978 1.19533Z" fill="currentColor"/></symbol><symbol id="arrow-prev" width="48" height="13" viewBox="0 0 48 13" fill="none"><path fill="currentColor" d="M48 4.19628e-06L0.329261 0L0.329261 0.999998L48 1V4.19628e-06Z"/><path fill="currentColor" d="M18.2022 11.8047L0.440509 0.000149576L0 1.19548L17.7616 13L18.2022 11.8047Z"/></symbol><symbol id="top-arrow" width="24" height="24" viewBox="0 0 24 24" fill="none"><path d="M13.4286 24L10.5714 24L10.5714 6L4.85714 12L2 10.5L12 -4.36936e-07L22 10.5L19.1429 12L13.4286 6L13.4286 24Z" fill="currentColor"/></symbol><symbol id="icon-close" width="24" height="24" viewBox="0 0 24 24" fill="none"><path d="M19.1943 6.41714C19.6393 5.97216 19.6393 5.2507 19.1943 4.80571C18.7493 4.36073 18.0278 4.36073 17.5829 4.80571L12 10.3886L6.41714 4.80572C5.97216 4.36073 5.2507 4.36073 4.80571 4.80571C4.36073 5.2507 4.36073 5.97216 4.80571 6.41714L10.3886 12L4.80572 17.5829C4.36073 18.0278 4.36073 18.7493 4.80571 19.1943C5.2507 19.6393 5.97216 19.6393 6.41714 19.1943L12 13.6114L17.5829 19.1943C18.0278 19.6393 18.7493 19.6393 19.1943 19.1943C19.6393 18.7493 19.6393 18.0278 19.1943 17.5829L13.6114 12L19.1943 6.41714Z"/></symbol><symbol id="icon-facebook" width="24" height="24" viewBox="0 0 24 24" fill="none"><path fill="currentColor" d="M13.3333 10.0788H17V13.6187H13.3333V21.8784H9.66667V13.6187H6V10.0788H9.66667V8.59794C9.66667 7.19497 10.1238 5.42267 11.0331 4.45392C11.9424 3.48281 13.0779 2.99902 14.4382 2.99902H17V6.53891H14.4333C13.8247 6.53891 13.3333 7.01325 13.3333 7.5997V10.0788Z"/></symbol><symbol id="icon-instagram" width="24" height="24" viewBox="0 0 24 24" fill="none"><path fill="currentColor" d="M18 2.99902H6C4.3 2.99902 3 4.29081 3 5.98006V17.9042C3 19.5935 4.3 20.8853 6 20.8853H18C19.7 20.8853 21 19.5935 21 17.9042V5.98006C21 4.29081 19.7 2.99902 18 2.99902ZM12 8.9611C13.7 8.9611 15 10.2529 15 11.9421C15 13.6314 13.7 14.9232 12 14.9232C10.3 14.9232 9 13.6314 9 11.9421C9 10.2529 10.3 8.9611 12 8.9611ZM15.8 6.97374C15.8 6.27817 16.4 5.78133 17 5.78133C17.6 5.78133 18.2 6.37753 18.2 6.97374C18.2 7.56995 17.7 8.16616 17 8.16616C16.3 8.16616 15.8 7.66932 15.8 6.97374ZM18 18.8979H6C5.4 18.8979 5 18.5004 5 17.9042V11.9421H7C7 14.7244 9.2 16.9105 12 16.9105C14.8 16.9105 17 14.7244 17 11.9421H19V17.9042C19 18.5004 18.6 18.8979 18 18.8979Z"/></symbol><symbol id="icon-menu" width="32" height="32" viewBox="0 0 32 32" fill="none"><g clip-path="url(#clip0_41497_107)"><path d="M4 22.6667C4 23.403 4.59695 24 5.33333 24H26.6667C27.403 24 28 23.403 28 22.6667C28 21.9303 27.403 21.3333 26.6667 21.3333H5.33333C4.59695 21.3333 4 21.9303 4 22.6667ZM4 16C4 16.7364 4.59695 17.3333 5.33333 17.3333H26.6667C27.403 17.3333 28 16.7364 28 16C28 15.2636 27.403 14.6667 26.6667 14.6667H5.33333C4.59695 14.6667 4 15.2636 4 16ZM5.33333 8C4.59695 8 4 8.59695 4 9.33333C4 10.0697 4.59695 10.6667 5.33333 10.6667H26.6667C27.403 10.6667 28 10.0697 28 9.33333C28 8.59695 27.403 8 26.6667 8H5.33333Z"/></g><defs><clipPath><rect width="32" height="32"/></clipPath></defs></symbol><symbol id="icon-twitter" width="24" height="24" viewBox="0 0 24 24" fill="none"><path fill="currentColor" d="M20.4213 6.67504C21.4088 6.1012 22.0626 5.31794 22.3828 4.32181C21.4809 4.78356 20.5131 5.11909 19.5095 5.31794C18.6504 4.44329 17.5626 3.99902 16.2586 3.99902C14.9839 3.99902 13.9072 4.42247 13.0284 5.24621C12.6041 5.63738 12.2686 6.10645 12.0424 6.62469C11.8163 7.14293 11.7044 7.69942 11.7134 8.26006C11.7134 8.61755 11.7611 8.93687 11.8564 9.2076C8.09705 9.08612 4.98545 7.60985 2.5338 4.76839C2.11827 5.46372 1.9105 6.17177 1.9105 6.90412C1.9105 8.4093 2.58147 9.60212 3.92095 10.4779C3.1571 10.4166 2.4837 10.2338 1.9105 9.93416C1.9105 11.009 2.24415 11.9068 2.91267 12.6969C3.56207 13.4669 4.47725 13.9958 5.49753 14.1906C5.11622 14.2831 4.71413 14.3271 4.30104 14.3271C3.91973 14.3271 3.64963 14.297 3.48953 14.2311C3.77062 15.1069 4.30104 15.8172 5.06733 16.361C5.82487 16.9055 6.74635 17.2067 7.69741 17.2206C6.0695 18.4296 4.20816 19.0278 2.10238 19.0278C1.58663 19.0278 1.22121 19.0208 1 18.9838C3.074 20.2588 5.38265 20.8916 7.93695 20.8916C10.5511 20.8916 12.861 20.2645 14.8715 19.0104C16.8819 17.7632 18.3656 16.2245 19.3189 14.4127C20.2616 12.6596 20.7524 10.7201 20.7512 8.75292V8.21147C21.6299 7.5982 22.3906 6.8464 23 5.98897C22.177 6.32664 21.3096 6.55742 20.4213 6.67504Z"/></symbol></svg>
