<svg width="44" height="45" viewBox="0 0 44 45" fill="none" xmlns="http://www.w3.org/2000/svg">
<path d="M22 11.4012C15.7868 11.4012 10.7313 16.4568 10.7313 22.6702C10.7313 28.8836 15.7868 33.9384 22 33.9384C28.2132 33.9384 33.2687 28.8836 33.2687 22.6702C33.2687 16.4568 28.2132 11.4012 22 11.4012Z" fill="#4F4F4F"/>
<path d="M22.0002 9.51898C22.3899 9.51898 22.7061 9.2027 22.7061 8.813V1.37542C22.7061 0.985716 22.3899 0.669434 22.0002 0.669434C21.6105 0.669434 21.2942 0.985716 21.2942 1.37542V8.813C21.2942 9.2027 21.6105 9.51898 22.0002 9.51898Z" fill="#4F4F4F"/>
<path d="M22.0002 35.8199C21.6105 35.8199 21.2942 36.1362 21.2942 36.5259V43.9634C21.2942 44.3531 21.6105 44.6694 22.0002 44.6694C22.3899 44.6694 22.7061 44.3531 22.7061 43.9634V36.5259C22.7061 36.1362 22.3899 35.8199 22.0002 35.8199Z" fill="#4F4F4F"/>
<path d="M11.7038 13.3708C11.8415 13.5085 12.0222 13.5777 12.2029 13.5777C12.3837 13.5777 12.5644 13.5085 12.7021 13.3708C12.9781 13.0948 12.9781 12.6486 12.7021 12.3726L7.44259 7.11366C7.16656 6.83762 6.72038 6.83762 6.44435 7.11366C6.16832 7.3897 6.16832 7.83589 6.44435 8.11193L11.7038 13.3708Z" fill="#4F4F4F"/>
<path d="M32.2978 31.9687C32.0217 31.6926 31.5756 31.6926 31.2995 31.9687C31.0235 32.2447 31.0235 32.6909 31.2995 32.9669L36.559 38.2258C36.6967 38.3635 36.8774 38.4327 37.0581 38.4327C37.2388 38.4327 37.4196 38.3635 37.5572 38.2258C37.8333 37.9498 37.8333 37.5036 37.5572 37.2276L32.2978 31.9687Z" fill="#4F4F4F"/>
<path d="M31.798 13.5777C31.9787 13.5777 32.1594 13.5085 32.2971 13.3708L37.5565 8.11193C37.8326 7.83589 37.8326 7.3897 37.5565 7.11366C37.2805 6.83762 36.8343 6.83762 36.5583 7.11366L31.2988 12.3726C31.0228 12.6486 31.0228 13.0948 31.2988 13.3708C31.4372 13.5085 31.6179 13.5777 31.798 13.5777Z" fill="#4F4F4F"/>
<path d="M11.7038 31.9687L6.44435 37.2276C6.16832 37.5036 6.16832 37.9498 6.44435 38.2258C6.58201 38.3635 6.76274 38.4327 6.94347 38.4327C7.1242 38.4327 7.30493 38.3635 7.44259 38.2258L12.7021 32.9669C12.9781 32.6909 12.9781 32.2447 12.7021 31.9687C12.426 31.6926 11.9791 31.6926 11.7038 31.9687Z" fill="#4F4F4F"/>
<path d="M43.294 21.9634H35.8567C35.467 21.9634 35.1507 22.2797 35.1507 22.6694C35.1507 23.0591 35.467 23.3754 35.8567 23.3754H43.294C43.6837 23.3754 44 23.0591 44 22.6694C44 22.2797 43.6837 21.9634 43.294 21.9634Z" fill="#4F4F4F"/>
<path d="M8.85003 22.6694C8.85003 22.2797 8.53376 21.9634 8.14406 21.9634H0.705969C0.316274 21.9634 0 22.2797 0 22.6694C0 23.0591 0.316274 23.3754 0.705969 23.3754H8.14335C8.53376 23.3754 8.85003 23.0598 8.85003 22.6694Z" fill="#4F4F4F"/>
</svg>
