<svg width="205" height="251" xmlns="http://www.w3.org/2000/svg">

 <g>
  <title>background</title>
  <rect fill="none" id="canvas_background" height="402" width="582" y="-1" x="-1"/>
 </g>
 <g>
  <title>Layer 1</title>
  <line id="svg_1" stroke="#333333" y2="200" x2="204.5" x1="204.5"/>
  <line id="svg_2" stroke="#333333" y2="200" x2="205" y1="200" x1="5"/>
  <path id="svg_3" fill="#333333" d="m3,197l63,0l0,5l-63,0l0,-5z"/>
  <path id="svg_4" fill="#333333" d="m15.316,158.028l0.952,0c-0.06533,-0.523 -0.224,-0.985 -0.476,-1.386c-0.24267,-0.401 -0.55067,-0.737 -0.924,-1.008c-0.364,-0.28 -0.77467,-0.49 -1.232,-0.63c-0.448,-0.14 -0.91,-0.21 -1.386,-0.21c-0.784,0 -1.47467,0.145 -2.072,0.434c-0.588,0.28 -1.078,0.663 -1.47,1.148c-0.392,0.476 -0.686,1.027 -0.882,1.652c-0.196,0.625 -0.294,1.283 -0.294,1.974c0,0.691 0.098,1.349 0.294,1.974c0.196,0.625 0.49,1.176 0.882,1.652c0.392,0.476 0.882,0.859 1.47,1.148c0.59733,0.28 1.288,0.42 2.072,0.42c0.588,0 1.12,-0.093 1.596,-0.28c0.48533,-0.187 0.90533,-0.453 1.26,-0.798c0.35467,-0.345 0.644,-0.765 0.868,-1.26c0.224,-0.495 0.36867,-1.05 0.434,-1.666l-0.952,0c-0.04667,0.448 -0.154,0.868 -0.322,1.26c-0.168,0.383 -0.38733,0.719 -0.658,1.008c-0.27067,0.289 -0.59267,0.518 -0.966,0.686c-0.37333,0.168 -0.79333,0.252 -1.26,0.252c-0.66267,0 -1.232,-0.126 -1.708,-0.378c-0.476,-0.252 -0.868,-0.583 -1.176,-0.994c-0.29867,-0.42 -0.52267,-0.891 -0.672,-1.414c-0.14,-0.532 -0.21,-1.069 -0.21,-1.61c0,-0.551 0.07,-1.087 0.21,-1.61c0.14933,-0.523 0.37333,-0.989 0.672,-1.4c0.308,-0.42 0.7,-0.756 1.176,-1.008c0.476,-0.252 1.04533,-0.378 1.708,-0.378c0.364,0 0.70933,0.056 1.036,0.168c0.336,0.103 0.63933,0.257 0.91,0.462c0.28,0.205 0.51333,0.462 0.7,0.77c0.196,0.299 0.336,0.639 0.42,1.022zm5.4334,0.28c0.42,0 0.7887,0.089 1.106,0.266c0.3174,0.177 0.5787,0.411 0.784,0.7c0.2147,0.289 0.3734,0.621 0.476,0.994c0.112,0.364 0.168,0.737 0.168,1.12c0,0.383 -0.056,0.761 -0.168,1.134c-0.1026,0.364 -0.2613,0.691 -0.476,0.98c-0.2053,0.289 -0.4666,0.523 -0.784,0.7c-0.3173,0.177 -0.686,0.266 -1.106,0.266c-0.42,0 -0.7886,-0.089 -1.106,-0.266c-0.3173,-0.177 -0.5833,-0.411 -0.798,-0.7c-0.2053,-0.289 -0.364,-0.616 -0.476,-0.98c-0.1026,-0.373 -0.154,-0.751 -0.154,-1.134c0,-0.383 0.0514,-0.756 0.154,-1.12c0.112,-0.373 0.2707,-0.705 0.476,-0.994c0.2147,-0.289 0.4807,-0.523 0.798,-0.7c0.3174,-0.177 0.686,-0.266 1.106,-0.266zm0,-0.742c-0.5506,0 -1.0406,0.103 -1.47,0.308c-0.42,0.205 -0.7746,0.481 -1.064,0.826c-0.2893,0.345 -0.5086,0.751 -0.658,1.218c-0.1493,0.457 -0.224,0.947 -0.224,1.47c0,0.523 0.0747,1.017 0.224,1.484c0.1494,0.457 0.3687,0.859 0.658,1.204c0.2894,0.345 0.644,0.621 1.064,0.826c0.4294,0.196 0.9194,0.294 1.47,0.294c0.5507,0 1.036,-0.098 1.456,-0.294c0.4294,-0.205 0.7887,-0.481 1.078,-0.826c0.2894,-0.345 0.5087,-0.747 0.658,-1.204c0.1494,-0.467 0.224,-0.961 0.224,-1.484c0,-0.523 -0.0746,-1.013 -0.224,-1.47c-0.1493,-0.467 -0.3686,-0.873 -0.658,-1.218c-0.2893,-0.345 -0.6486,-0.621 -1.078,-0.826c-0.42,-0.205 -0.9053,-0.308 -1.456,-0.308zm4.7133,0.21l0,7.224l0.882,0l0,-4.214c0.0094,-0.355 0.0654,-0.681 0.168,-0.98c0.112,-0.308 0.2614,-0.569 0.448,-0.784c0.196,-0.224 0.4294,-0.397 0.7,-0.518c0.28,-0.131 0.5974,-0.196 0.952,-0.196c0.3547,0 0.6487,0.056 0.882,0.168c0.2427,0.112 0.434,0.266 0.574,0.462c0.14,0.196 0.238,0.429 0.294,0.7c0.056,0.261 0.084,0.546 0.084,0.854l0,4.508l0.882,0l0,-4.648c0,-0.429 -0.042,-0.817 -0.126,-1.162c-0.084,-0.345 -0.2286,-0.635 -0.434,-0.868c-0.2053,-0.243 -0.4806,-0.429 -0.826,-0.56c-0.336,-0.131 -0.756,-0.196 -1.26,-0.196c-0.5133,0 -0.9846,0.135 -1.414,0.406c-0.4293,0.261 -0.728,0.611 -0.896,1.05l-0.028,0l0,-1.246l-0.882,0zm8.9336,0l0,-2.17l-0.882,0l0,2.17l-1.26,0l0,0.742l1.26,0l0,4.942c-0.0094,0.616 0.1026,1.041 0.336,1.274c0.2333,0.224 0.644,0.336 1.232,0.336c0.1306,0 0.2613,-0.005 0.392,-0.014c0.1306,-0.009 0.2613,-0.014 0.392,-0.014l0,-0.742c-0.252,0.028 -0.504,0.042 -0.756,0.042c-0.3174,-0.019 -0.518,-0.107 -0.602,-0.266c-0.0747,-0.168 -0.112,-0.397 -0.112,-0.686l0,-4.872l1.47,0l0,-0.742l-1.47,0zm2.7425,0l0,7.224l0.882,0l0,-3.85c0,-0.383 0.0654,-0.733 0.196,-1.05c0.1307,-0.327 0.3127,-0.607 0.546,-0.84c0.2427,-0.233 0.5274,-0.411 0.854,-0.532c0.3267,-0.131 0.6907,-0.187 1.092,-0.168l0,-0.882c-0.6533,-0.028 -1.218,0.117 -1.694,0.434c-0.4666,0.317 -0.812,0.77 -1.036,1.358l-0.028,0l0,-1.694l-0.812,0zm7.222,0.532c0.42,0 0.7886,0.089 1.106,0.266c0.3173,0.177 0.5786,0.411 0.784,0.7c0.2146,0.289 0.3733,0.621 0.476,0.994c0.112,0.364 0.168,0.737 0.168,1.12c0,0.383 -0.056,0.761 -0.168,1.134c-0.1027,0.364 -0.2614,0.691 -0.476,0.98c-0.2054,0.289 -0.4667,0.523 -0.784,0.7c-0.3174,0.177 -0.686,0.266 -1.106,0.266c-0.42,0 -0.7887,-0.089 -1.106,-0.266c-0.3174,-0.177 -0.5834,-0.411 -0.798,-0.7c-0.2054,-0.289 -0.364,-0.616 -0.476,-0.98c-0.1027,-0.373 -0.154,-0.751 -0.154,-1.134c0,-0.383 0.0513,-0.756 0.154,-1.12c0.112,-0.373 0.2706,-0.705 0.476,-0.994c0.2146,-0.289 0.4806,-0.523 0.798,-0.7c0.3173,-0.177 0.686,-0.266 1.106,-0.266zm0,-0.742c-0.5507,0 -1.0407,0.103 -1.47,0.308c-0.42,0.205 -0.7747,0.481 -1.064,0.826c-0.2894,0.345 -0.5087,0.751 -0.658,1.218c-0.1494,0.457 -0.224,0.947 -0.224,1.47c0,0.523 0.0746,1.017 0.224,1.484c0.1493,0.457 0.3686,0.859 0.658,1.204c0.2893,0.345 0.644,0.621 1.064,0.826c0.4293,0.196 0.9193,0.294 1.47,0.294c0.5506,0 1.036,-0.098 1.456,-0.294c0.4293,-0.205 0.7886,-0.481 1.078,-0.826c0.2893,-0.345 0.5086,-0.747 0.658,-1.204c0.1493,-0.467 0.224,-0.961 0.224,-1.484c0,-0.523 -0.0747,-1.013 -0.224,-1.47c-0.1494,-0.467 -0.3687,-0.873 -0.658,-1.218c-0.2894,-0.345 -0.6487,-0.621 -1.078,-0.826c-0.42,-0.205 -0.9054,-0.308 -1.456,-0.308zm4.7412,-2.562l0,9.996l0.882,0l0,-9.996l-0.882,0zm6.4665,0l0,9.996l0.812,0l0,-1.372l0.028,0c0.2053,0.504 0.5367,0.891 0.994,1.162c0.4667,0.271 0.994,0.406 1.582,0.406c0.5507,0 1.0267,-0.098 1.428,-0.294c0.4107,-0.205 0.7513,-0.481 1.022,-0.826c0.2707,-0.355 0.4713,-0.761 0.602,-1.218c0.1307,-0.467 0.196,-0.957 0.196,-1.47c0,-0.513 -0.0653,-0.999 -0.196,-1.456c-0.1307,-0.467 -0.3313,-0.873 -0.602,-1.218c-0.2707,-0.355 -0.6113,-0.635 -1.022,-0.84c-0.4013,-0.205 -0.8773,-0.308 -1.428,-0.308c-0.2613,0 -0.5227,0.033 -0.784,0.098c-0.2613,0.065 -0.504,0.168 -0.728,0.308c-0.224,0.131 -0.4247,0.294 -0.602,0.49c-0.168,0.196 -0.2987,0.425 -0.392,0.686l-0.028,0l0,-4.144l-0.882,0zm5.782,6.384c0,0.373 -0.0467,0.747 -0.14,1.12c-0.084,0.364 -0.224,0.691 -0.42,0.98c-0.1867,0.289 -0.4293,0.527 -0.728,0.714c-0.2987,0.177 -0.658,0.266 -1.078,0.266c-0.4667,0 -0.8633,-0.089 -1.19,-0.266c-0.3173,-0.187 -0.5787,-0.425 -0.784,-0.714c-0.196,-0.289 -0.3407,-0.616 -0.434,-0.98c-0.084,-0.373 -0.126,-0.747 -0.126,-1.12c0,-0.373 0.042,-0.742 0.126,-1.106c0.0933,-0.373 0.238,-0.705 0.434,-0.994c0.2053,-0.289 0.4667,-0.523 0.784,-0.7c0.3267,-0.187 0.7233,-0.28 1.19,-0.28c0.42,0 0.7793,0.093 1.078,0.28c0.2987,0.177 0.5413,0.411 0.728,0.7c0.196,0.289 0.336,0.621 0.42,0.994c0.0933,0.364 0.14,0.733 0.14,1.106zm8.1091,3.612l0,-7.224l-0.882,0l0,3.794c0,0.364 -0.042,0.723 -0.126,1.078c-0.084,0.345 -0.2147,0.653 -0.392,0.924c-0.1774,0.271 -0.4014,0.49 -0.672,0.658c-0.2707,0.159 -0.5974,0.238 -0.98,0.238c-0.7,0 -1.1947,-0.168 -1.484,-0.504c-0.28,-0.336 -0.4294,-0.831 -0.448,-1.484l0,-4.704l-0.882,0l0,4.69c0,0.429 0.0466,0.812 0.14,1.148c0.0933,0.336 0.238,0.621 0.434,0.854c0.2053,0.233 0.4666,0.411 0.784,0.532c0.3266,0.131 0.7186,0.196 1.176,0.196c0.5413,0 1.0313,-0.126 1.47,-0.378c0.448,-0.261 0.7886,-0.635 1.022,-1.12l0.028,0l0,1.302l0.812,0zm3.0675,-7.224l0,-2.17l-0.882,0l0,2.17l-1.26,0l0,0.742l1.26,0l0,4.942c-0.0093,0.616 0.1027,1.041 0.336,1.274c0.2333,0.224 0.644,0.336 1.232,0.336c0.1307,0 0.2613,-0.005 0.392,-0.014c0.1307,-0.009 0.2613,-0.014 0.392,-0.014l0,-0.742c-0.252,0.028 -0.504,0.042 -0.756,0.042c-0.3173,-0.019 -0.518,-0.107 -0.602,-0.266c-0.0747,-0.168 -0.112,-0.397 -0.112,-0.686l0,-4.872l1.47,0l0,-0.742l-1.47,0zm4.1426,0l0,-2.17l-0.882,0l0,2.17l-1.26,0l0,0.742l1.26,0l0,4.942c-0.0093,0.616 0.1027,1.041 0.336,1.274c0.2333,0.224 0.644,0.336 1.232,0.336c0.1307,0 0.2613,-0.005 0.392,-0.014c0.1307,-0.009 0.2613,-0.014 0.392,-0.014l0,-0.742c-0.252,0.028 -0.504,0.042 -0.756,0.042c-0.3173,-0.019 -0.518,-0.107 -0.602,-0.266c-0.0747,-0.168 -0.112,-0.397 -0.112,-0.686l0,-4.872l1.47,0l0,-0.742l-1.47,0zm5.7946,0.532c0.42,0 0.7886,0.089 1.106,0.266c0.3173,0.177 0.5786,0.411 0.784,0.7c0.2146,0.289 0.3733,0.621 0.476,0.994c0.112,0.364 0.168,0.737 0.168,1.12c0,0.383 -0.056,0.761 -0.168,1.134c-0.1027,0.364 -0.2614,0.691 -0.476,0.98c-0.2054,0.289 -0.4667,0.523 -0.784,0.7c-0.3174,0.177 -0.686,0.266 -1.106,0.266c-0.42,0 -0.7887,-0.089 -1.106,-0.266c-0.3174,-0.177 -0.5834,-0.411 -0.798,-0.7c-0.2054,-0.289 -0.364,-0.616 -0.476,-0.98c-0.1027,-0.373 -0.154,-0.751 -0.154,-1.134c0,-0.383 0.0513,-0.756 0.154,-1.12c0.112,-0.373 0.2706,-0.705 0.476,-0.994c0.2146,-0.289 0.4806,-0.523 0.798,-0.7c0.3173,-0.177 0.686,-0.266 1.106,-0.266zm0,-0.742c-0.5507,0 -1.0407,0.103 -1.47,0.308c-0.42,0.205 -0.7747,0.481 -1.064,0.826c-0.2894,0.345 -0.5087,0.751 -0.658,1.218c-0.1494,0.457 -0.224,0.947 -0.224,1.47c0,0.523 0.0746,1.017 0.224,1.484c0.1493,0.457 0.3686,0.859 0.658,1.204c0.2893,0.345 0.644,0.621 1.064,0.826c0.4293,0.196 0.9193,0.294 1.47,0.294c0.5506,0 1.036,-0.098 1.456,-0.294c0.4293,-0.205 0.7886,-0.481 1.078,-0.826c0.2893,-0.345 0.5086,-0.747 0.658,-1.204c0.1493,-0.467 0.224,-0.961 0.224,-1.484c0,-0.523 -0.0747,-1.013 -0.224,-1.47c-0.1494,-0.467 -0.3687,-0.873 -0.658,-1.218c-0.2894,-0.345 -0.6487,-0.621 -1.078,-0.826c-0.42,-0.205 -0.9054,-0.308 -1.456,-0.308zm4.7133,0.21l0,7.224l0.882,0l0,-4.214c0.0093,-0.355 0.0653,-0.681 0.168,-0.98c0.112,-0.308 0.2613,-0.569 0.448,-0.784c0.196,-0.224 0.4293,-0.397 0.7,-0.518c0.28,-0.131 0.5973,-0.196 0.952,-0.196c0.3546,0 0.6486,0.056 0.882,0.168c0.2426,0.112 0.434,0.266 0.574,0.462c0.14,0.196 0.238,0.429 0.294,0.7c0.056,0.261 0.084,0.546 0.084,0.854l0,4.508l0.882,0l0,-4.648c0,-0.429 -0.042,-0.817 -0.126,-1.162c-0.084,-0.345 -0.2287,-0.635 -0.434,-0.868c-0.2054,-0.243 -0.4807,-0.429 -0.826,-0.56c-0.336,-0.131 -0.756,-0.196 -1.26,-0.196c-0.5134,0 -0.9847,0.135 -1.414,0.406c-0.4294,0.261 -0.728,0.611 -0.896,1.05l-0.028,0l0,-1.246l-0.882,0zm11.43,0l0,7.224l0.882,0l0,-3.85c0,-0.383 0.0653,-0.733 0.196,-1.05c0.1306,-0.327 0.3126,-0.607 0.546,-0.84c0.2426,-0.233 0.5273,-0.411 0.854,-0.532c0.3266,-0.131 0.6906,-0.187 1.092,-0.168l0,-0.882c-0.6534,-0.028 -1.218,0.117 -1.694,0.434c-0.4667,0.317 -0.812,0.77 -1.036,1.358l-0.028,0l0,-1.694l-0.812,0zm4.43,-2.772l0,1.414l0.882,0l0,-1.414l-0.882,0zm0,2.772l0,7.224l0.882,0l0,-7.224l-0.882,0zm2.556,0l0,7.224l0.882,0l0,-4.214c0.0093,-0.355 0.0653,-0.681 0.168,-0.98c0.112,-0.308 0.2613,-0.569 0.4484,-0.784c0.196,-0.224 0.429,-0.397 0.7,-0.518c0.28,-0.131 0.597,-0.196 0.952,-0.196c0.354,0 0.648,0.056 0.882,0.168c0.242,0.112 0.434,0.266 0.574,0.462c0.14,0.196 0.238,0.429 0.294,0.7c0.056,0.261 0.084,0.546 0.084,0.854l0,4.508l0.882,0l0,-4.648c0,-0.429 -0.042,-0.817 -0.126,-1.162c-0.084,-0.345 -0.229,-0.635 -0.434,-0.868c-0.206,-0.243 -0.481,-0.429 -0.826,-0.56c-0.336,-0.131 -0.756,-0.196 -1.26,-0.196c-0.514,0 -0.985,0.135 -1.414,0.406c-0.4298,0.261 -0.7284,0.611 -0.8964,1.05l-0.028,0l0,-1.246l-0.882,0zm13.6374,6.636l0,-6.636l-0.882,0l0,1.246l-0.028,0c-0.084,-0.196 -0.205,-0.383 -0.364,-0.56c-0.149,-0.177 -0.322,-0.331 -0.518,-0.462c-0.196,-0.14 -0.415,-0.247 -0.658,-0.322c-0.233,-0.075 -0.485,-0.112 -0.756,-0.112c-0.523,0 -0.989,0.098 -1.4,0.294c-0.401,0.187 -0.742,0.448 -1.022,0.784c-0.271,0.327 -0.481,0.714 -0.63,1.162c-0.14,0.439 -0.21,0.905 -0.21,1.4c0,0.513 0.061,0.999 0.182,1.456c0.121,0.448 0.313,0.84 0.574,1.176c0.271,0.336 0.611,0.602 1.022,0.798c0.411,0.187 0.905,0.28 1.484,0.28c0.532,0 0.994,-0.135 1.386,-0.406c0.401,-0.271 0.705,-0.63 0.91,-1.078l0.028,0l0,0.98c0,0.877 -0.182,1.549 -0.546,2.016c-0.364,0.467 -0.957,0.7 -1.778,0.7c-0.243,0 -0.481,-0.028 -0.714,-0.084c-0.233,-0.047 -0.448,-0.126 -0.644,-0.238c-0.187,-0.112 -0.35,-0.261 -0.49,-0.448c-0.131,-0.177 -0.219,-0.401 -0.266,-0.672l-0.882,0c0.028,0.383 0.131,0.709 0.308,0.98c0.187,0.28 0.415,0.509 0.686,0.686c0.28,0.177 0.593,0.308 0.938,0.392c0.345,0.084 0.7,0.126 1.064,0.126c0.588,0 1.083,-0.079 1.484,-0.238c0.411,-0.159 0.742,-0.387 0.994,-0.686c0.252,-0.299 0.434,-0.663 0.546,-1.092c0.121,-0.429 0.182,-0.91 0.182,-1.442zm-3.206,-0.238c-0.411,0 -0.765,-0.079 -1.064,-0.238c-0.299,-0.168 -0.546,-0.383 -0.742,-0.644c-0.196,-0.271 -0.341,-0.579 -0.434,-0.924c-0.093,-0.345 -0.14,-0.7 -0.14,-1.064c0,-0.373 0.042,-0.737 0.126,-1.092c0.093,-0.364 0.238,-0.686 0.434,-0.966c0.196,-0.28 0.443,-0.504 0.742,-0.672c0.299,-0.177 0.658,-0.266 1.078,-0.266c0.42,0 0.775,0.089 1.064,0.266c0.299,0.177 0.541,0.411 0.728,0.7c0.187,0.289 0.322,0.611 0.406,0.966c0.084,0.355 0.126,0.709 0.126,1.064c0,0.364 -0.051,0.719 -0.154,1.064c-0.093,0.345 -0.238,0.653 -0.434,0.924c-0.196,0.261 -0.439,0.476 -0.728,0.644c-0.289,0.159 -0.625,0.238 -1.008,0.238zm-105.133,15.134c0.42,0 0.78867,0.089 1.106,0.266c0.31733,0.177 0.57867,0.411 0.784,0.7c0.21467,0.289 0.37333,0.621 0.476,0.994c0.112,0.364 0.168,0.737 0.168,1.12c0,0.383 -0.056,0.761 -0.168,1.134c-0.10267,0.364 -0.26133,0.691 -0.476,0.98c-0.20533,0.289 -0.46667,0.523 -0.784,0.7c-0.31733,0.177 -0.686,0.266 -1.106,0.266c-0.42,0 -0.78867,-0.089 -1.106,-0.266c-0.31733,-0.177 -0.58333,-0.411 -0.798,-0.7c-0.20533,-0.289 -0.364,-0.616 -0.476,-0.98c-0.10267,-0.373 -0.154,-0.751 -0.154,-1.134c0,-0.383 0.05133,-0.756 0.154,-1.12c0.112,-0.373 0.27067,-0.705 0.476,-0.994c0.21467,-0.289 0.48067,-0.523 0.798,-0.7c0.31733,-0.177 0.686,-0.266 1.106,-0.266zm0,-0.742c-0.55067,0 -1.04067,0.103 -1.47,0.308c-0.42,0.205 -0.77467,0.481 -1.064,0.826c-0.28933,0.345 -0.508667,0.751 -0.658,1.218c-0.149333,0.457 -0.224,0.947 -0.224,1.47c0,0.523 0.074667,1.017 0.224,1.484c0.149333,0.457 0.36867,0.859 0.658,1.204c0.28933,0.345 0.644,0.621 1.064,0.826c0.42933,0.196 0.91933,0.294 1.47,0.294c0.55067,0 1.036,-0.098 1.456,-0.294c0.42933,-0.205 0.78867,-0.481 1.078,-0.826c0.28933,-0.345 0.50867,-0.747 0.658,-1.204c0.14933,-0.467 0.224,-0.961 0.224,-1.484c0,-0.523 -0.07467,-1.013 -0.224,-1.47c-0.14933,-0.467 -0.36867,-0.873 -0.658,-1.218c-0.28933,-0.345 -0.64867,-0.621 -1.078,-0.826c-0.42,-0.205 -0.90533,-0.308 -1.456,-0.308zm4.7273,0.21l0,7.224l0.882,0l0,-3.85c0,-0.383 0.06533,-0.733 0.196,-1.05c0.13066,-0.327 0.3127,-0.607 0.546,-0.84c0.2427,-0.233 0.5273,-0.411 0.854,-0.532c0.3267,-0.131 0.6907,-0.187 1.092,-0.168l0,-0.882c-0.6533,-0.028 -1.218,0.117 -1.694,0.434c-0.4667,0.317 -0.812,0.77 -1.036,1.358l-0.028,0l0,-1.694l-0.812,0zm4.6481,0l0,7.224l0.882,0l0,-4.214c0.0093,-0.355 0.0653,-0.681 0.168,-0.98c0.112,-0.308 0.2613,-0.569 0.448,-0.784c0.196,-0.224 0.4293,-0.397 0.7,-0.518c0.28,-0.131 0.5973,-0.196 0.952,-0.196c0.3547,0 0.6487,0.056 0.882,0.168c0.2427,0.112 0.434,0.266 0.574,0.462c0.14,0.196 0.238,0.429 0.294,0.7c0.056,0.261 0.084,0.546 0.084,0.854l0,4.508l0.882,0l0,-4.648c0,-0.429 -0.042,-0.817 -0.126,-1.162c-0.084,-0.345 -0.2287,-0.635 -0.434,-0.868c-0.2053,-0.243 -0.4807,-0.429 -0.826,-0.56c-0.336,-0.131 -0.756,-0.196 -1.26,-0.196c-0.5133,0 -0.9847,0.135 -1.414,0.406c-0.4293,0.261 -0.728,0.611 -0.896,1.05l-0.028,0l0,-1.246l-0.882,0zm7.4495,2.212l0.882,0c0.0187,-0.588 0.2054,-1.013 0.56,-1.274c0.3547,-0.271 0.812,-0.406 1.372,-0.406c0.2614,0 0.504,0.023 0.728,0.07c0.2334,0.037 0.434,0.112 0.602,0.224c0.1774,0.112 0.3127,0.266 0.406,0.462c0.1027,0.187 0.154,0.429 0.154,0.728c0,0.196 -0.028,0.355 -0.084,0.476c-0.0466,0.121 -0.1166,0.219 -0.21,0.294c-0.0933,0.065 -0.21,0.112 -0.35,0.14c-0.14,0.028 -0.3033,0.051 -0.49,0.07c-0.476,0.056 -0.9473,0.117 -1.414,0.182c-0.4573,0.056 -0.8726,0.159 -1.246,0.308c-0.364,0.149 -0.658,0.369 -0.882,0.658c-0.224,0.28 -0.336,0.672 -0.336,1.176c0,0.364 0.0607,0.681 0.182,0.952c0.1307,0.261 0.3034,0.481 0.518,0.658c0.224,0.168 0.4807,0.289 0.77,0.364c0.2987,0.084 0.616,0.126 0.952,0.126c0.3547,0 0.658,-0.033 0.91,-0.098c0.2614,-0.065 0.49,-0.159 0.686,-0.28c0.2054,-0.121 0.3874,-0.271 0.546,-0.448c0.168,-0.187 0.3314,-0.397 0.49,-0.63l0.028,0c0,0.187 0.0094,0.359 0.028,0.518c0.028,0.149 0.0794,0.28 0.154,0.392c0.0747,0.112 0.1774,0.201 0.308,0.266c0.14,0.056 0.322,0.084 0.546,0.084c0.1214,0 0.2194,-0.005 0.294,-0.014c0.084,-0.009 0.1774,-0.023 0.28,-0.042l0,-0.742c-0.084,0.037 -0.1773,0.056 -0.28,0.056c-0.3453,0 -0.518,-0.177 -0.518,-0.532l0,-3.836c0,-0.485 -0.0793,-0.877 -0.238,-1.176c-0.1586,-0.308 -0.364,-0.546 -0.616,-0.714c-0.252,-0.168 -0.5366,-0.28 -0.854,-0.336c-0.3173,-0.065 -0.6346,-0.098 -0.952,-0.098c-0.42,0 -0.8026,0.047 -1.148,0.14c-0.3453,0.093 -0.6486,0.238 -0.91,0.434c-0.252,0.196 -0.4526,0.448 -0.602,0.756c-0.1493,0.308 -0.238,0.672 -0.266,1.092zm4.704,1.064l0,1.148c0,0.355 -0.07,0.672 -0.21,0.952c-0.1306,0.28 -0.3126,0.518 -0.546,0.714c-0.224,0.196 -0.49,0.345 -0.798,0.448c-0.308,0.103 -0.63,0.154 -0.966,0.154c-0.2053,0 -0.406,-0.033 -0.602,-0.098c-0.196,-0.065 -0.3686,-0.159 -0.518,-0.28c-0.1493,-0.131 -0.2706,-0.28 -0.364,-0.448c-0.084,-0.177 -0.126,-0.378 -0.126,-0.602c0,-0.355 0.1027,-0.625 0.308,-0.812c0.2147,-0.196 0.4854,-0.345 0.812,-0.448c0.3267,-0.103 0.686,-0.177 1.078,-0.224c0.4014,-0.056 0.7887,-0.117 1.162,-0.182c0.1214,-0.019 0.2614,-0.051 0.42,-0.098c0.1587,-0.047 0.266,-0.121 0.322,-0.224l0.028,0zm2.6398,-3.276l0,7.224l0.882,0l0,-4.032c0,-0.383 0.042,-0.733 0.126,-1.05c0.084,-0.327 0.21,-0.607 0.378,-0.84c0.1773,-0.243 0.4013,-0.429 0.672,-0.56c0.28,-0.14 0.6067,-0.21 0.98,-0.21c0.28,0 0.518,0.047 0.714,0.14c0.196,0.093 0.35,0.224 0.462,0.392c0.1213,0.159 0.2053,0.35 0.252,0.574c0.056,0.215 0.084,0.443 0.084,0.686l0,4.9l0.882,0l0,-4.088c0,-0.336 0.028,-0.658 0.084,-0.966c0.0653,-0.317 0.1727,-0.597 0.322,-0.84c0.1493,-0.243 0.35,-0.434 0.602,-0.574c0.252,-0.149 0.5693,-0.224 0.952,-0.224c0.6347,0 1.078,0.159 1.33,0.476c0.252,0.308 0.378,0.761 0.378,1.358l0,4.858l0.882,0l0,-4.9c0,-1.689 -0.798,-2.534 -2.394,-2.534c-0.476,0 -0.924,0.117 -1.344,0.35c-0.42,0.233 -0.7373,0.588 -0.952,1.064c-0.1307,-0.476 -0.392,-0.831 -0.784,-1.064c-0.3827,-0.233 -0.812,-0.35 -1.288,-0.35c-0.588,0 -1.0733,0.126 -1.456,0.378c-0.3733,0.252 -0.6767,0.602 -0.91,1.05l-0.042,0l0,-1.218l-0.812,0zm16.8561,3.108l-4.676,0c0.0373,-0.327 0.112,-0.644 0.224,-0.952c0.1213,-0.317 0.28,-0.593 0.476,-0.826c0.196,-0.243 0.434,-0.434 0.714,-0.574c0.28,-0.149 0.602,-0.224 0.966,-0.224c0.3547,0 0.672,0.075 0.952,0.224c0.28,0.14 0.518,0.331 0.714,0.574c0.196,0.233 0.3453,0.504 0.448,0.812c0.112,0.308 0.1727,0.63 0.182,0.966zm-4.676,0.742l5.558,0c0.0187,-0.504 -0.028,-0.999 -0.14,-1.484c-0.112,-0.495 -0.2987,-0.929 -0.56,-1.302c-0.252,-0.383 -0.5833,-0.691 -0.994,-0.924c-0.4107,-0.233 -0.9053,-0.35 -1.484,-0.35c-0.5693,0 -1.064,0.112 -1.484,0.336c-0.4107,0.215 -0.7467,0.504 -1.008,0.868c-0.2613,0.355 -0.4573,0.761 -0.588,1.218c-0.1213,0.457 -0.182,0.924 -0.182,1.4c0,0.513 0.0607,1.003 0.182,1.47c0.1307,0.457 0.3267,0.863 0.588,1.218c0.2613,0.345 0.5973,0.621 1.008,0.826c0.42,0.196 0.9147,0.294 1.484,0.294c0.9147,0 1.6193,-0.224 2.114,-0.672c0.504,-0.448 0.8493,-1.083 1.036,-1.904l-0.882,0c-0.14,0.56 -0.392,1.008 -0.756,1.344c-0.364,0.336 -0.868,0.504 -1.512,0.504c-0.42,0 -0.7793,-0.089 -1.078,-0.266c-0.2987,-0.177 -0.546,-0.401 -0.742,-0.672c-0.196,-0.271 -0.3407,-0.574 -0.434,-0.91c-0.084,-0.345 -0.126,-0.677 -0.126,-0.994zm6.7278,-3.85l0,7.224l0.882,0l0,-4.214c0.0093,-0.355 0.0653,-0.681 0.168,-0.98c0.112,-0.308 0.2613,-0.569 0.448,-0.784c0.196,-0.224 0.4293,-0.397 0.7,-0.518c0.28,-0.131 0.5973,-0.196 0.952,-0.196c0.3546,0 0.6486,0.056 0.882,0.168c0.2426,0.112 0.434,0.266 0.574,0.462c0.14,0.196 0.238,0.429 0.294,0.7c0.056,0.261 0.084,0.546 0.084,0.854l0,4.508l0.882,0l0,-4.648c0,-0.429 -0.042,-0.817 -0.126,-1.162c-0.084,-0.345 -0.2287,-0.635 -0.434,-0.868c-0.2054,-0.243 -0.4807,-0.429 -0.826,-0.56c-0.336,-0.131 -0.756,-0.196 -1.26,-0.196c-0.5134,0 -0.9847,0.135 -1.414,0.406c-0.4294,0.261 -0.728,0.611 -0.896,1.05l-0.028,0l0,-1.246l-0.882,0zm8.9335,0l0,-2.17l-0.882,0l0,2.17l-1.26,0l0,0.742l1.26,0l0,4.942c-0.0093,0.616 0.1027,1.041 0.336,1.274c0.2333,0.224 0.644,0.336 1.232,0.336c0.1307,0 0.2613,-0.005 0.392,-0.014c0.1307,-0.009 0.2613,-0.014 0.392,-0.014l0,-0.742c-0.252,0.028 -0.504,0.042 -0.756,0.042c-0.3173,-0.019 -0.518,-0.107 -0.602,-0.266c-0.0747,-0.168 -0.112,-0.397 -0.112,-0.686l0,-4.872l1.47,0l0,-0.742l-1.47,0z"/>
 </g>
</svg>