<svg width="205" height="251" viewBox="0 0 205 251" fill="none" xmlns="http://www.w3.org/2000/svg">
<line x1="204.5" x2="204.5" y2="249" stroke="#333333"/>
<line x1="5" y1="248.5" x2="205" y2="248.5" stroke="#333333"/>
<path d="M0 246H63V251H0V246Z" fill="#333333"/>
<path d="M8.316 203.028H9.268C9.20267 202.505 9.044 202.043 8.792 201.642C8.54933 201.241 8.24133 200.905 7.868 200.634C7.504 200.354 7.09333 200.144 6.636 200.004C6.188 199.864 5.726 199.794 5.25 199.794C4.466 199.794 3.77533 199.939 3.178 200.228C2.59 200.508 2.1 200.891 1.708 201.376C1.316 201.852 1.022 202.403 0.826 203.028C0.63 203.653 0.532 204.311 0.532 205.002C0.532 205.693 0.63 206.351 0.826 206.976C1.022 207.601 1.316 208.152 1.708 208.628C2.1 209.104 2.59 209.487 3.178 209.776C3.77533 210.056 4.466 210.196 5.25 210.196C5.838 210.196 6.37 210.103 6.846 209.916C7.33133 209.729 7.75133 209.463 8.106 209.118C8.46067 208.773 8.75 208.353 8.974 207.858C9.198 207.363 9.34267 206.808 9.408 206.192H8.456C8.40933 206.64 8.302 207.06 8.134 207.452C7.966 207.835 7.74667 208.171 7.476 208.46C7.20533 208.749 6.88333 208.978 6.51 209.146C6.13667 209.314 5.71667 209.398 5.25 209.398C4.58733 209.398 4.018 209.272 3.542 209.02C3.066 208.768 2.674 208.437 2.366 208.026C2.06733 207.606 1.84333 207.135 1.694 206.612C1.554 206.08 1.484 205.543 1.484 205.002C1.484 204.451 1.554 203.915 1.694 203.392C1.84333 202.869 2.06733 202.403 2.366 201.992C2.674 201.572 3.066 201.236 3.542 200.984C4.018 200.732 4.58733 200.606 5.25 200.606C5.614 200.606 5.95933 200.662 6.286 200.774C6.622 200.877 6.92533 201.031 7.196 201.236C7.476 201.441 7.70933 201.698 7.896 202.006C8.092 202.305 8.232 202.645 8.316 203.028ZM13.7494 203.308C14.1694 203.308 14.5381 203.397 14.8554 203.574C15.1728 203.751 15.4341 203.985 15.6394 204.274C15.8541 204.563 16.0128 204.895 16.1154 205.268C16.2274 205.632 16.2834 206.005 16.2834 206.388C16.2834 206.771 16.2274 207.149 16.1154 207.522C16.0128 207.886 15.8541 208.213 15.6394 208.502C15.4341 208.791 15.1728 209.025 14.8554 209.202C14.5381 209.379 14.1694 209.468 13.7494 209.468C13.3294 209.468 12.9608 209.379 12.6434 209.202C12.3261 209.025 12.0601 208.791 11.8454 208.502C11.6401 208.213 11.4814 207.886 11.3694 207.522C11.2668 207.149 11.2154 206.771 11.2154 206.388C11.2154 206.005 11.2668 205.632 11.3694 205.268C11.4814 204.895 11.6401 204.563 11.8454 204.274C12.0601 203.985 12.3261 203.751 12.6434 203.574C12.9608 203.397 13.3294 203.308 13.7494 203.308ZM13.7494 202.566C13.1988 202.566 12.7088 202.669 12.2794 202.874C11.8594 203.079 11.5048 203.355 11.2154 203.7C10.9261 204.045 10.7068 204.451 10.5574 204.918C10.4081 205.375 10.3334 205.865 10.3334 206.388C10.3334 206.911 10.4081 207.405 10.5574 207.872C10.7068 208.329 10.9261 208.731 11.2154 209.076C11.5048 209.421 11.8594 209.697 12.2794 209.902C12.7088 210.098 13.1988 210.196 13.7494 210.196C14.3001 210.196 14.7854 210.098 15.2054 209.902C15.6348 209.697 15.9941 209.421 16.2834 209.076C16.5728 208.731 16.7921 208.329 16.9414 207.872C17.0908 207.405 17.1654 206.911 17.1654 206.388C17.1654 205.865 17.0908 205.375 16.9414 204.918C16.7921 204.451 16.5728 204.045 16.2834 203.7C15.9941 203.355 15.6348 203.079 15.2054 202.874C14.7854 202.669 14.3001 202.566 13.7494 202.566ZM18.4627 202.776V210H19.3447V205.786C19.3541 205.431 19.4101 205.105 19.5127 204.806C19.6247 204.498 19.7741 204.237 19.9607 204.022C20.1567 203.798 20.3901 203.625 20.6607 203.504C20.9407 203.373 21.2581 203.308 21.6127 203.308C21.9674 203.308 22.2614 203.364 22.4947 203.476C22.7374 203.588 22.9287 203.742 23.0687 203.938C23.2087 204.134 23.3067 204.367 23.3627 204.638C23.4187 204.899 23.4467 205.184 23.4467 205.492V210H24.3287V205.352C24.3287 204.923 24.2867 204.535 24.2027 204.19C24.1187 203.845 23.9741 203.555 23.7687 203.322C23.5634 203.079 23.2881 202.893 22.9427 202.762C22.6067 202.631 22.1867 202.566 21.6827 202.566C21.1694 202.566 20.6981 202.701 20.2687 202.972C19.8394 203.233 19.5407 203.583 19.3727 204.022H19.3447V202.776H18.4627ZM27.3963 202.776V200.606H26.5143V202.776H25.2543V203.518H26.5143V208.46C26.5049 209.076 26.6169 209.501 26.8503 209.734C27.0836 209.958 27.4943 210.07 28.0823 210.07C28.2129 210.07 28.3436 210.065 28.4743 210.056C28.6049 210.047 28.7356 210.042 28.8663 210.042V209.3C28.6143 209.328 28.3623 209.342 28.1103 209.342C27.7929 209.323 27.5923 209.235 27.5083 209.076C27.4336 208.908 27.3963 208.679 27.3963 208.39V203.518H28.8663V202.776H27.3963ZM30.1388 202.776V210H31.0208V206.15C31.0208 205.767 31.0862 205.417 31.2168 205.1C31.3475 204.773 31.5295 204.493 31.7628 204.26C32.0055 204.027 32.2902 203.849 32.6168 203.728C32.9435 203.597 33.3075 203.541 33.7088 203.56V202.678C33.0555 202.65 32.4908 202.795 32.0148 203.112C31.5482 203.429 31.2028 203.882 30.9788 204.47H30.9508V202.776H30.1388ZM37.3608 203.308C37.7808 203.308 38.1494 203.397 38.4668 203.574C38.7841 203.751 39.0454 203.985 39.2508 204.274C39.4654 204.563 39.6241 204.895 39.7268 205.268C39.8388 205.632 39.8948 206.005 39.8948 206.388C39.8948 206.771 39.8388 207.149 39.7268 207.522C39.6241 207.886 39.4654 208.213 39.2508 208.502C39.0454 208.791 38.7841 209.025 38.4668 209.202C38.1494 209.379 37.7808 209.468 37.3608 209.468C36.9408 209.468 36.5721 209.379 36.2548 209.202C35.9374 209.025 35.6714 208.791 35.4568 208.502C35.2514 208.213 35.0928 207.886 34.9808 207.522C34.8781 207.149 34.8268 206.771 34.8268 206.388C34.8268 206.005 34.8781 205.632 34.9808 205.268C35.0928 204.895 35.2514 204.563 35.4568 204.274C35.6714 203.985 35.9374 203.751 36.2548 203.574C36.5721 203.397 36.9408 203.308 37.3608 203.308ZM37.3608 202.566C36.8101 202.566 36.3201 202.669 35.8908 202.874C35.4708 203.079 35.1161 203.355 34.8268 203.7C34.5374 204.045 34.3181 204.451 34.1688 204.918C34.0194 205.375 33.9448 205.865 33.9448 206.388C33.9448 206.911 34.0194 207.405 34.1688 207.872C34.3181 208.329 34.5374 208.731 34.8268 209.076C35.1161 209.421 35.4708 209.697 35.8908 209.902C36.3201 210.098 36.8101 210.196 37.3608 210.196C37.9114 210.196 38.3968 210.098 38.8168 209.902C39.2461 209.697 39.6054 209.421 39.8948 209.076C40.1841 208.731 40.4034 208.329 40.5528 207.872C40.7021 207.405 40.7768 206.911 40.7768 206.388C40.7768 205.865 40.7021 205.375 40.5528 204.918C40.4034 204.451 40.1841 204.045 39.8948 203.7C39.6054 203.355 39.2461 203.079 38.8168 202.874C38.3968 202.669 37.9114 202.566 37.3608 202.566ZM42.102 200.004V210H42.984V200.004H42.102ZM48.5685 200.004V210H49.3805V208.628H49.4085C49.6138 209.132 49.9452 209.519 50.4025 209.79C50.8692 210.061 51.3965 210.196 51.9845 210.196C52.5352 210.196 53.0112 210.098 53.4125 209.902C53.8232 209.697 54.1638 209.421 54.4345 209.076C54.7052 208.721 54.9058 208.315 55.0365 207.858C55.1672 207.391 55.2325 206.901 55.2325 206.388C55.2325 205.875 55.1672 205.389 55.0365 204.932C54.9058 204.465 54.7052 204.059 54.4345 203.714C54.1638 203.359 53.8232 203.079 53.4125 202.874C53.0112 202.669 52.5352 202.566 51.9845 202.566C51.7232 202.566 51.4618 202.599 51.2005 202.664C50.9392 202.729 50.6965 202.832 50.4725 202.972C50.2485 203.103 50.0478 203.266 49.8705 203.462C49.7025 203.658 49.5718 203.887 49.4785 204.148H49.4505V200.004H48.5685ZM54.3505 206.388C54.3505 206.761 54.3038 207.135 54.2105 207.508C54.1265 207.872 53.9865 208.199 53.7905 208.488C53.6038 208.777 53.3612 209.015 53.0625 209.202C52.7638 209.379 52.4045 209.468 51.9845 209.468C51.5178 209.468 51.1212 209.379 50.7945 209.202C50.4772 209.015 50.2158 208.777 50.0105 208.488C49.8145 208.199 49.6698 207.872 49.5765 207.508C49.4925 207.135 49.4505 206.761 49.4505 206.388C49.4505 206.015 49.4925 205.646 49.5765 205.282C49.6698 204.909 49.8145 204.577 50.0105 204.288C50.2158 203.999 50.4772 203.765 50.7945 203.588C51.1212 203.401 51.5178 203.308 51.9845 203.308C52.4045 203.308 52.7638 203.401 53.0625 203.588C53.3612 203.765 53.6038 203.999 53.7905 204.288C53.9865 204.577 54.1265 204.909 54.2105 205.282C54.3038 205.646 54.3505 206.015 54.3505 206.388ZM62.4596 210V202.776H61.5776V206.57C61.5776 206.934 61.5356 207.293 61.4516 207.648C61.3676 207.993 61.2369 208.301 61.0596 208.572C60.8822 208.843 60.6582 209.062 60.3876 209.23C60.1169 209.389 59.7902 209.468 59.4076 209.468C58.7076 209.468 58.2129 209.3 57.9236 208.964C57.6436 208.628 57.4942 208.133 57.4756 207.48V202.776H56.5936V207.466C56.5936 207.895 56.6402 208.278 56.7336 208.614C56.8269 208.95 56.9716 209.235 57.1676 209.468C57.3729 209.701 57.6342 209.879 57.9516 210C58.2782 210.131 58.6702 210.196 59.1276 210.196C59.6689 210.196 60.1589 210.07 60.5976 209.818C61.0456 209.557 61.3862 209.183 61.6196 208.698H61.6476V210H62.4596ZM65.5271 202.776V200.606H64.6451V202.776H63.3851V203.518H64.6451V208.46C64.6358 209.076 64.7478 209.501 64.9811 209.734C65.2144 209.958 65.6251 210.07 66.2131 210.07C66.3438 210.07 66.4744 210.065 66.6051 210.056C66.7358 210.047 66.8664 210.042 66.9971 210.042V209.3C66.7451 209.328 66.4931 209.342 66.2411 209.342C65.9238 209.323 65.7231 209.235 65.6391 209.076C65.5644 208.908 65.5271 208.679 65.5271 208.39V203.518H66.9971V202.776H65.5271ZM69.6697 202.776V200.606H68.7877V202.776H67.5277V203.518H68.7877V208.46C68.7784 209.076 68.8904 209.501 69.1237 209.734C69.357 209.958 69.7677 210.07 70.3557 210.07C70.4864 210.07 70.617 210.065 70.7477 210.056C70.8784 210.047 71.009 210.042 71.1397 210.042V209.3C70.8877 209.328 70.6357 209.342 70.3837 209.342C70.0664 209.323 69.8657 209.235 69.7817 209.076C69.707 208.908 69.6697 208.679 69.6697 208.39V203.518H71.1397V202.776H69.6697ZM75.4643 203.308C75.8843 203.308 76.2529 203.397 76.5703 203.574C76.8876 203.751 77.1489 203.985 77.3543 204.274C77.5689 204.563 77.7276 204.895 77.8303 205.268C77.9423 205.632 77.9983 206.005 77.9983 206.388C77.9983 206.771 77.9423 207.149 77.8303 207.522C77.7276 207.886 77.5689 208.213 77.3543 208.502C77.1489 208.791 76.8876 209.025 76.5703 209.202C76.2529 209.379 75.8843 209.468 75.4643 209.468C75.0443 209.468 74.6756 209.379 74.3583 209.202C74.0409 209.025 73.7749 208.791 73.5603 208.502C73.3549 208.213 73.1963 207.886 73.0843 207.522C72.9816 207.149 72.9303 206.771 72.9303 206.388C72.9303 206.005 72.9816 205.632 73.0843 205.268C73.1963 204.895 73.3549 204.563 73.5603 204.274C73.7749 203.985 74.0409 203.751 74.3583 203.574C74.6756 203.397 75.0443 203.308 75.4643 203.308ZM75.4643 202.566C74.9136 202.566 74.4236 202.669 73.9943 202.874C73.5743 203.079 73.2196 203.355 72.9303 203.7C72.6409 204.045 72.4216 204.451 72.2723 204.918C72.1229 205.375 72.0483 205.865 72.0483 206.388C72.0483 206.911 72.1229 207.405 72.2723 207.872C72.4216 208.329 72.6409 208.731 72.9303 209.076C73.2196 209.421 73.5743 209.697 73.9943 209.902C74.4236 210.098 74.9136 210.196 75.4643 210.196C76.0149 210.196 76.5003 210.098 76.9203 209.902C77.3496 209.697 77.7089 209.421 77.9983 209.076C78.2876 208.731 78.5069 208.329 78.6563 207.872C78.8056 207.405 78.8803 206.911 78.8803 206.388C78.8803 205.865 78.8056 205.375 78.6563 204.918C78.5069 204.451 78.2876 204.045 77.9983 203.7C77.7089 203.355 77.3496 203.079 76.9203 202.874C76.5003 202.669 76.0149 202.566 75.4643 202.566ZM80.1776 202.776V210H81.0596V205.786C81.0689 205.431 81.1249 205.105 81.2276 204.806C81.3396 204.498 81.4889 204.237 81.6756 204.022C81.8716 203.798 82.1049 203.625 82.3756 203.504C82.6556 203.373 82.9729 203.308 83.3276 203.308C83.6822 203.308 83.9762 203.364 84.2096 203.476C84.4522 203.588 84.6436 203.742 84.7836 203.938C84.9236 204.134 85.0216 204.367 85.0776 204.638C85.1336 204.899 85.1616 205.184 85.1616 205.492V210H86.0436V205.352C86.0436 204.923 86.0016 204.535 85.9176 204.19C85.8336 203.845 85.6889 203.555 85.4836 203.322C85.2782 203.079 85.0029 202.893 84.6576 202.762C84.3216 202.631 83.9016 202.566 83.3976 202.566C82.8842 202.566 82.4129 202.701 81.9836 202.972C81.5542 203.233 81.2556 203.583 81.0876 204.022H81.0596V202.776H80.1776ZM91.6076 202.776V210H92.4896V206.15C92.4896 205.767 92.5549 205.417 92.6856 205.1C92.8162 204.773 92.9982 204.493 93.2316 204.26C93.4742 204.027 93.7589 203.849 94.0856 203.728C94.4122 203.597 94.7762 203.541 95.1776 203.56V202.678C94.5242 202.65 93.9596 202.795 93.4836 203.112C93.0169 203.429 92.6716 203.882 92.4476 204.47H92.4196V202.776H91.6076ZM96.0376 200.004V201.418H96.9196V200.004H96.0376ZM96.0376 202.776V210H96.9196V202.776H96.0376ZM98.5936 202.776V210H99.4756V205.786C99.4849 205.431 99.5409 205.105 99.6436 204.806C99.7556 204.498 99.9049 204.237 100.092 204.022C100.288 203.798 100.521 203.625 100.792 203.504C101.072 203.373 101.389 203.308 101.744 203.308C102.098 203.308 102.392 203.364 102.626 203.476C102.868 203.588 103.06 203.742 103.2 203.938C103.34 204.134 103.438 204.367 103.494 204.638C103.55 204.899 103.578 205.184 103.578 205.492V210H104.46V205.352C104.46 204.923 104.418 204.535 104.334 204.19C104.25 203.845 104.105 203.555 103.9 203.322C103.694 203.079 103.419 202.893 103.074 202.762C102.738 202.631 102.318 202.566 101.814 202.566C101.3 202.566 100.829 202.701 100.4 202.972C99.9702 203.233 99.6716 203.583 99.5036 204.022H99.4756V202.776H98.5936ZM112.231 209.412V202.776H111.349V204.022H111.321C111.237 203.826 111.116 203.639 110.957 203.462C110.808 203.285 110.635 203.131 110.439 203C110.243 202.86 110.024 202.753 109.781 202.678C109.548 202.603 109.296 202.566 109.025 202.566C108.502 202.566 108.036 202.664 107.625 202.86C107.224 203.047 106.883 203.308 106.603 203.644C106.332 203.971 106.122 204.358 105.973 204.806C105.833 205.245 105.763 205.711 105.763 206.206C105.763 206.719 105.824 207.205 105.945 207.662C106.066 208.11 106.258 208.502 106.519 208.838C106.79 209.174 107.13 209.44 107.541 209.636C107.952 209.823 108.446 209.916 109.025 209.916C109.557 209.916 110.019 209.781 110.411 209.51C110.812 209.239 111.116 208.88 111.321 208.432H111.349V209.412C111.349 210.289 111.167 210.961 110.803 211.428C110.439 211.895 109.846 212.128 109.025 212.128C108.782 212.128 108.544 212.1 108.311 212.044C108.078 211.997 107.863 211.918 107.667 211.806C107.48 211.694 107.317 211.545 107.177 211.358C107.046 211.181 106.958 210.957 106.911 210.686H106.029C106.057 211.069 106.16 211.395 106.337 211.666C106.524 211.946 106.752 212.175 107.023 212.352C107.303 212.529 107.616 212.66 107.961 212.744C108.306 212.828 108.661 212.87 109.025 212.87C109.613 212.87 110.108 212.791 110.509 212.632C110.92 212.473 111.251 212.245 111.503 211.946C111.755 211.647 111.937 211.283 112.049 210.854C112.17 210.425 112.231 209.944 112.231 209.412ZM109.025 209.174C108.614 209.174 108.26 209.095 107.961 208.936C107.662 208.768 107.415 208.553 107.219 208.292C107.023 208.021 106.878 207.713 106.785 207.368C106.692 207.023 106.645 206.668 106.645 206.304C106.645 205.931 106.687 205.567 106.771 205.212C106.864 204.848 107.009 204.526 107.205 204.246C107.401 203.966 107.648 203.742 107.947 203.574C108.246 203.397 108.605 203.308 109.025 203.308C109.445 203.308 109.8 203.397 110.089 203.574C110.388 203.751 110.63 203.985 110.817 204.274C111.004 204.563 111.139 204.885 111.223 205.24C111.307 205.595 111.349 205.949 111.349 206.304C111.349 206.668 111.298 207.023 111.195 207.368C111.102 207.713 110.957 208.021 110.761 208.292C110.565 208.553 110.322 208.768 110.033 208.936C109.744 209.095 109.408 209.174 109.025 209.174ZM3.892 224.308C4.312 224.308 4.68067 224.397 4.998 224.574C5.31533 224.751 5.57667 224.985 5.782 225.274C5.99667 225.563 6.15533 225.895 6.258 226.268C6.37 226.632 6.426 227.005 6.426 227.388C6.426 227.771 6.37 228.149 6.258 228.522C6.15533 228.886 5.99667 229.213 5.782 229.502C5.57667 229.791 5.31533 230.025 4.998 230.202C4.68067 230.379 4.312 230.468 3.892 230.468C3.472 230.468 3.10333 230.379 2.786 230.202C2.46867 230.025 2.20267 229.791 1.988 229.502C1.78267 229.213 1.624 228.886 1.512 228.522C1.40933 228.149 1.358 227.771 1.358 227.388C1.358 227.005 1.40933 226.632 1.512 226.268C1.624 225.895 1.78267 225.563 1.988 225.274C2.20267 224.985 2.46867 224.751 2.786 224.574C3.10333 224.397 3.472 224.308 3.892 224.308ZM3.892 223.566C3.34133 223.566 2.85133 223.669 2.422 223.874C2.002 224.079 1.64733 224.355 1.358 224.7C1.06867 225.045 0.849333 225.451 0.7 225.918C0.550667 226.375 0.476 226.865 0.476 227.388C0.476 227.911 0.550667 228.405 0.7 228.872C0.849333 229.329 1.06867 229.731 1.358 230.076C1.64733 230.421 2.002 230.697 2.422 230.902C2.85133 231.098 3.34133 231.196 3.892 231.196C4.44267 231.196 4.928 231.098 5.348 230.902C5.77733 230.697 6.13667 230.421 6.426 230.076C6.71533 229.731 6.93467 229.329 7.084 228.872C7.23333 228.405 7.308 227.911 7.308 227.388C7.308 226.865 7.23333 226.375 7.084 225.918C6.93467 225.451 6.71533 225.045 6.426 224.7C6.13667 224.355 5.77733 224.079 5.348 223.874C4.928 223.669 4.44267 223.566 3.892 223.566ZM8.6193 223.776V231H9.5013V227.15C9.5013 226.767 9.56663 226.417 9.6973 226.1C9.82796 225.773 10.01 225.493 10.2433 225.26C10.486 225.027 10.7706 224.849 11.0973 224.728C11.424 224.597 11.788 224.541 12.1893 224.56V223.678C11.536 223.65 10.9713 223.795 10.4953 224.112C10.0286 224.429 9.6833 224.882 9.4593 225.47H9.4313V223.776H8.6193ZM13.2674 223.776V231H14.1494V226.786C14.1587 226.431 14.2147 226.105 14.3174 225.806C14.4294 225.498 14.5787 225.237 14.7654 225.022C14.9614 224.798 15.1947 224.625 15.4654 224.504C15.7454 224.373 16.0627 224.308 16.4174 224.308C16.7721 224.308 17.0661 224.364 17.2994 224.476C17.5421 224.588 17.7334 224.742 17.8734 224.938C18.0134 225.134 18.1114 225.367 18.1674 225.638C18.2234 225.899 18.2514 226.184 18.2514 226.492V231H19.1334V226.352C19.1334 225.923 19.0914 225.535 19.0074 225.19C18.9234 224.845 18.7787 224.555 18.5734 224.322C18.3681 224.079 18.0927 223.893 17.7474 223.762C17.4114 223.631 16.9914 223.566 16.4874 223.566C15.9741 223.566 15.5027 223.701 15.0734 223.972C14.6441 224.233 14.3454 224.583 14.1774 225.022H14.1494V223.776H13.2674ZM20.7169 225.988H21.5989C21.6176 225.4 21.8043 224.975 22.1589 224.714C22.5136 224.443 22.9709 224.308 23.5309 224.308C23.7923 224.308 24.0349 224.331 24.2589 224.378C24.4923 224.415 24.6929 224.49 24.8609 224.602C25.0383 224.714 25.1736 224.868 25.2669 225.064C25.3696 225.251 25.4209 225.493 25.4209 225.792C25.4209 225.988 25.3929 226.147 25.3369 226.268C25.2903 226.389 25.2203 226.487 25.1269 226.562C25.0336 226.627 24.9169 226.674 24.7769 226.702C24.6369 226.73 24.4736 226.753 24.2869 226.772C23.8109 226.828 23.3396 226.889 22.8729 226.954C22.4156 227.01 22.0003 227.113 21.6269 227.262C21.2629 227.411 20.9689 227.631 20.7449 227.92C20.5209 228.2 20.4089 228.592 20.4089 229.096C20.4089 229.46 20.4696 229.777 20.5909 230.048C20.7216 230.309 20.8943 230.529 21.1089 230.706C21.3329 230.874 21.5896 230.995 21.8789 231.07C22.1776 231.154 22.4949 231.196 22.8309 231.196C23.1856 231.196 23.4889 231.163 23.7409 231.098C24.0023 231.033 24.2309 230.939 24.4269 230.818C24.6323 230.697 24.8143 230.547 24.9729 230.37C25.1409 230.183 25.3043 229.973 25.4629 229.74H25.4909C25.4909 229.927 25.5003 230.099 25.5189 230.258C25.5469 230.407 25.5983 230.538 25.6729 230.65C25.7476 230.762 25.8503 230.851 25.9809 230.916C26.1209 230.972 26.3029 231 26.5269 231C26.6483 231 26.7463 230.995 26.8209 230.986C26.9049 230.977 26.9983 230.963 27.1009 230.944V230.202C27.0169 230.239 26.9236 230.258 26.8209 230.258C26.4756 230.258 26.3029 230.081 26.3029 229.726V225.89C26.3029 225.405 26.2236 225.013 26.0649 224.714C25.9063 224.406 25.7009 224.168 25.4489 224C25.1969 223.832 24.9123 223.72 24.5949 223.664C24.2776 223.599 23.9603 223.566 23.6429 223.566C23.2229 223.566 22.8403 223.613 22.4949 223.706C22.1496 223.799 21.8463 223.944 21.5849 224.14C21.3329 224.336 21.1323 224.588 20.9829 224.896C20.8336 225.204 20.7449 225.568 20.7169 225.988ZM25.4209 227.052V228.2C25.4209 228.555 25.3509 228.872 25.2109 229.152C25.0803 229.432 24.8983 229.67 24.6649 229.866C24.4409 230.062 24.1749 230.211 23.8669 230.314C23.5589 230.417 23.2369 230.468 22.9009 230.468C22.6956 230.468 22.4949 230.435 22.2989 230.37C22.1029 230.305 21.9303 230.211 21.7809 230.09C21.6316 229.959 21.5103 229.81 21.4169 229.642C21.3329 229.465 21.2909 229.264 21.2909 229.04C21.2909 228.685 21.3936 228.415 21.5989 228.228C21.8136 228.032 22.0843 227.883 22.4109 227.78C22.7376 227.677 23.0969 227.603 23.4889 227.556C23.8903 227.5 24.2776 227.439 24.6509 227.374C24.7723 227.355 24.9123 227.323 25.0709 227.276C25.2296 227.229 25.3369 227.155 25.3929 227.052H25.4209ZM28.0607 223.776V231H28.9427V226.968C28.9427 226.585 28.9847 226.235 29.0687 225.918C29.1527 225.591 29.2787 225.311 29.4467 225.078C29.624 224.835 29.848 224.649 30.1187 224.518C30.3987 224.378 30.7254 224.308 31.0987 224.308C31.3787 224.308 31.6167 224.355 31.8127 224.448C32.0087 224.541 32.1627 224.672 32.2747 224.84C32.396 224.999 32.48 225.19 32.5267 225.414C32.5827 225.629 32.6107 225.857 32.6107 226.1V231H33.4927V226.912C33.4927 226.576 33.5207 226.254 33.5767 225.946C33.642 225.629 33.7494 225.349 33.8987 225.106C34.048 224.863 34.2487 224.672 34.5007 224.532C34.7527 224.383 35.07 224.308 35.4527 224.308C36.0874 224.308 36.5307 224.467 36.7827 224.784C37.0347 225.092 37.1607 225.545 37.1607 226.142V231H38.0427V226.1C38.0427 224.411 37.2447 223.566 35.6487 223.566C35.1727 223.566 34.7247 223.683 34.3047 223.916C33.8847 224.149 33.5674 224.504 33.3527 224.98C33.222 224.504 32.9607 224.149 32.5687 223.916C32.186 223.683 31.7567 223.566 31.2807 223.566C30.6927 223.566 30.2074 223.692 29.8247 223.944C29.4514 224.196 29.148 224.546 28.9147 224.994H28.8727V223.776H28.0607ZM44.9168 226.884H40.2408C40.2781 226.557 40.3528 226.24 40.4648 225.932C40.5861 225.615 40.7448 225.339 40.9408 225.106C41.1368 224.863 41.3748 224.672 41.6548 224.532C41.9348 224.383 42.2568 224.308 42.6208 224.308C42.9755 224.308 43.2928 224.383 43.5728 224.532C43.8528 224.672 44.0908 224.863 44.2868 225.106C44.4828 225.339 44.6321 225.61 44.7348 225.918C44.8468 226.226 44.9075 226.548 44.9168 226.884ZM40.2408 227.626H45.7988C45.8175 227.122 45.7708 226.627 45.6588 226.142C45.5468 225.647 45.3601 225.213 45.0988 224.84C44.8468 224.457 44.5155 224.149 44.1048 223.916C43.6941 223.683 43.1995 223.566 42.6208 223.566C42.0515 223.566 41.5568 223.678 41.1368 223.902C40.7261 224.117 40.3901 224.406 40.1288 224.77C39.8675 225.125 39.6715 225.531 39.5408 225.988C39.4195 226.445 39.3588 226.912 39.3588 227.388C39.3588 227.901 39.4195 228.391 39.5408 228.858C39.6715 229.315 39.8675 229.721 40.1288 230.076C40.3901 230.421 40.7261 230.697 41.1368 230.902C41.5568 231.098 42.0515 231.196 42.6208 231.196C43.5355 231.196 44.2401 230.972 44.7348 230.524C45.2388 230.076 45.5841 229.441 45.7708 228.62H44.8888C44.7488 229.18 44.4968 229.628 44.1328 229.964C43.7688 230.3 43.2648 230.468 42.6208 230.468C42.2008 230.468 41.8415 230.379 41.5428 230.202C41.2441 230.025 40.9968 229.801 40.8008 229.53C40.6048 229.259 40.4601 228.956 40.3668 228.62C40.2828 228.275 40.2408 227.943 40.2408 227.626ZM46.9686 223.776V231H47.8506V226.786C47.8599 226.431 47.9159 226.105 48.0186 225.806C48.1306 225.498 48.2799 225.237 48.4666 225.022C48.6626 224.798 48.8959 224.625 49.1666 224.504C49.4466 224.373 49.7639 224.308 50.1186 224.308C50.4732 224.308 50.7672 224.364 51.0006 224.476C51.2432 224.588 51.4346 224.742 51.5746 224.938C51.7146 225.134 51.8126 225.367 51.8686 225.638C51.9246 225.899 51.9526 226.184 51.9526 226.492V231H52.8346V226.352C52.8346 225.923 52.7926 225.535 52.7086 225.19C52.6246 224.845 52.4799 224.555 52.2746 224.322C52.0692 224.079 51.7939 223.893 51.4486 223.762C51.1126 223.631 50.6926 223.566 50.1886 223.566C49.6752 223.566 49.2039 223.701 48.7746 223.972C48.3452 224.233 48.0466 224.583 47.8786 225.022H47.8506V223.776H46.9686ZM55.9021 223.776V221.606H55.0201V223.776H53.7601V224.518H55.0201V229.46C55.0108 230.076 55.1228 230.501 55.3561 230.734C55.5894 230.958 56.0001 231.07 56.5881 231.07C56.7188 231.07 56.8494 231.065 56.9801 231.056C57.1108 231.047 57.2414 231.042 57.3721 231.042V230.3C57.1201 230.328 56.8681 230.342 56.6161 230.342C56.2988 230.323 56.0981 230.235 56.0141 230.076C55.9394 229.908 55.9021 229.679 55.9021 229.39V224.518H57.3721V223.776H55.9021Z" fill="#333333"/>
</svg>
