<svg width="205" height="251" xmlns="http://www.w3.org/2000/svg">

 <g>
  <title>background</title>
  <rect fill="none" id="canvas_background" height="402" width="582" y="-1" x="-1"/>
 </g>
 <g>
  <title>Layer 1</title>
  <line y1="0" id="svg_1" stroke="#333333" y2="249" x2="5.500092" x1="5.500092"/>
  <line id="svg_2" stroke="#333333" y2="248.5" x2="205" y1="248.5" x1="5"/>
  <path id="svg_3" fill="#333333" d="m143,245l63,0l0,5l-63,0l0,-5z"/>
  <path stroke="null" id="svg_4" fill="#333333" d="m93.710729,210.527997l0.939222,0c-0.064453,-0.523 -0.220993,-0.985 -0.469611,-1.386c-0.239413,-0.401 -0.543279,-0.737 -0.911598,-1.008c-0.359114,-0.28 -0.764272,-0.49 -1.215464,-0.63c-0.441987,-0.14 -0.897786,-0.21 -1.367397,-0.21c-0.773477,0 -1.454877,0.145 -2.044189,0.434c-0.580108,0.28 -1.063531,0.663 -1.450269,1.148c-0.386738,0.476 -0.676792,1.027 -0.870162,1.652c-0.193369,0.625 -0.290054,1.283 -0.290054,1.974c0,0.691 0.096685,1.349 0.290054,1.974c0.193369,0.625 0.483423,1.176 0.870162,1.652c0.386738,0.476 0.870162,0.859 1.450269,1.148c0.589312,0.28 1.270712,0.42 2.044189,0.42c0.580108,0 1.104967,-0.093 1.574578,-0.28c0.478816,-0.187 0.893178,-0.453 1.243088,-0.798c0.34991,-0.345 0.635356,-0.765 0.85635,-1.26c0.220993,-0.495 0.363722,-1.05 0.428175,-1.666l-0.939222,0c-0.046044,0.448 -0.151933,0.868 -0.317678,1.26c-0.165745,0.383 -0.382131,0.719 -0.649168,1.008c-0.267037,0.289 -0.584715,0.518 -0.953034,0.686c-0.368319,0.168 -0.782682,0.252 -1.243088,0.252c-0.653775,0 -1.215464,-0.126 -1.685075,-0.378c-0.469611,-0.252 -0.85635,-0.583 -1.160215,-0.994c-0.294661,-0.42 -0.515655,-0.891 -0.66298,-1.414c-0.138121,-0.532 -0.207181,-1.069 -0.207181,-1.61c0,-0.551 0.06906,-1.087 0.207181,-1.61c0.147326,-0.523 0.368319,-0.989 0.66298,-1.4c0.303866,-0.42 0.690604,-0.756 1.160215,-1.008c0.469611,-0.252 1.031299,-0.378 1.685075,-0.378c0.359114,0 0.699809,0.056 1.022095,0.168c0.33149,0.103 0.630749,0.257 0.897786,0.462c0.276242,0.205 0.50644,0.462 0.690604,0.77c0.193369,0.299 0.33149,0.639 0.414363,1.022zm5.360472,0.28c0.414363,0 0.778114,0.089 1.091155,0.266c0.31314,0.177 0.570933,0.411 0.773477,0.7c0.211818,0.289 0.368388,0.621 0.469611,0.994c0.110497,0.364 0.165745,0.737 0.165745,1.12c0,0.383 -0.055248,0.761 -0.165745,1.134c-0.101223,0.364 -0.257793,0.691 -0.469611,0.98c-0.202544,0.289 -0.460337,0.523 -0.773477,0.7c-0.313041,0.177 -0.676792,0.266 -1.091155,0.266c-0.414363,0 -0.778015,-0.089 -1.091155,-0.266c-0.313041,-0.177 -0.575471,-0.411 -0.787289,-0.7c-0.202544,-0.289 -0.359114,-0.616 -0.469611,-0.98c-0.101223,-0.373 -0.151933,-0.751 -0.151933,-1.134c0,-0.383 0.05071,-0.756 0.151933,-1.12c0.110497,-0.373 0.267067,-0.705 0.469611,-0.994c0.211818,-0.289 0.474248,-0.523 0.787289,-0.7c0.31314,-0.177 0.676792,-0.266 1.091155,-0.266zm0,-0.742c-0.54321,0 -1.026633,0.103 -1.450269,0.308c-0.414363,0.205 -0.764203,0.481 -1.049719,0.826c-0.285417,0.345 -0.501773,0.751 -0.649168,1.218c-0.147296,0.457 -0.220993,0.947 -0.220993,1.47c0,0.523 0.073697,1.017 0.220993,1.484c0.147395,0.457 0.363751,0.859 0.649168,1.204c0.285516,0.345 0.635356,0.621 1.049719,0.826c0.423636,0.196 0.90706,0.294 1.450269,0.294c0.543308,0 1.022095,-0.098 1.436457,-0.294c0.423636,-0.205 0.778114,-0.481 1.063531,-0.826c0.285516,-0.345 0.501872,-0.747 0.649168,-1.204c0.147395,-0.467 0.220993,-0.961 0.220993,-1.484c0,-0.523 -0.073599,-1.013 -0.220993,-1.47c-0.147296,-0.467 -0.363653,-0.873 -0.649168,-1.218c-0.285417,-0.345 -0.639894,-0.621 -1.063531,-0.826c-0.414363,-0.205 -0.893149,-0.308 -1.436457,-0.308zm4.650037,0.21l0,7.224l0.870162,0l0,-4.214c0.009274,-0.355 0.064522,-0.681 0.165745,-0.98c0.110497,-0.308 0.257891,-0.569 0.441987,-0.784c0.193369,-0.224 0.423636,-0.397 0.690604,-0.518c0.276242,-0.131 0.589382,-0.196 0.939222,-0.196c0.349939,0 0.639993,0.056 0.870162,0.168c0.239442,0.112 0.428175,0.266 0.566296,0.462c0.138121,0.196 0.234806,0.429 0.290054,0.7c0.055248,0.261 0.082873,0.546 0.082873,0.854l0,4.508l0.870162,0l0,-4.648c0,-0.429 -0.041436,-0.817 -0.124309,-1.162c-0.082873,-0.345 -0.225532,-0.635 -0.428175,-0.868c-0.202544,-0.243 -0.474149,-0.429 -0.814913,-0.56c-0.33149,-0.131 -0.745853,-0.196 -1.243088,-0.196c-0.50641,0 -0.971384,0.135 -1.395021,0.406c-0.423538,0.261 -0.718229,0.611 -0.883974,1.05l-0.027624,0l0,-1.246l-0.870162,0zm8.813691,0l0,-2.17l-0.870162,0l0,2.17l-1.243088,0l0,0.742l1.243088,0l0,4.942c-0.009274,0.616 0.101223,1.041 0.33149,1.274c0.230169,0.224 0.635356,0.336 1.215464,0.336c0.128847,0 0.257793,-0.005 0.386738,-0.014c0.128847,-0.009 0.257793,-0.014 0.386738,-0.014l0,-0.742c-0.248618,0.028 -0.497235,0.042 -0.745853,0.042c-0.31314,-0.019 -0.511047,-0.107 -0.59392,-0.266c-0.073697,-0.168 -0.110497,-0.397 -0.110497,-0.686l0,-4.872l1.450269,0l0,-0.742l-1.450269,0zm2.70569,0l0,7.224l0.870162,0l0,-3.85c0,-0.383 0.064522,-0.733 0.193369,-1.05c0.128946,-0.327 0.308503,-0.607 0.538671,-0.84c0.239442,-0.233 0.520321,-0.411 0.842537,-0.532c0.322315,-0.131 0.681429,-0.187 1.077343,-0.168l0,-0.882c-0.644531,-0.028 -1.201652,0.117 -1.671263,0.434c-0.460337,0.317 -0.801101,0.77 -1.022095,1.358l-0.027624,0l0,-1.694l-0.801101,0zm7.125065,0.532c0.414363,0 0.778015,0.089 1.091155,0.266c0.313041,0.177 0.570834,0.411 0.773477,0.7c0.21172,0.289 0.368289,0.621 0.469611,0.994c0.110497,0.364 0.165745,0.737 0.165745,1.12c0,0.383 -0.055248,0.761 -0.165745,1.134c-0.101322,0.364 -0.257891,0.691 -0.469611,0.98c-0.202643,0.289 -0.460436,0.523 -0.773477,0.7c-0.31314,0.177 -0.676792,0.266 -1.091155,0.266c-0.414363,0 -0.778114,-0.089 -1.091155,-0.266c-0.31314,-0.177 -0.575569,-0.411 -0.787289,-0.7c-0.202643,-0.289 -0.359114,-0.616 -0.469611,-0.98c-0.101322,-0.373 -0.151933,-0.751 -0.151933,-1.134c0,-0.383 0.050611,-0.756 0.151933,-1.12c0.110497,-0.373 0.266968,-0.705 0.469611,-0.994c0.21172,-0.289 0.474149,-0.523 0.787289,-0.7c0.313041,-0.177 0.676792,-0.266 1.091155,-0.266zm0,-0.742c-0.543308,0 -1.026731,0.103 -1.450269,0.308c-0.414363,0.205 -0.764302,0.481 -1.049719,0.826c-0.285516,0.345 -0.501872,0.751 -0.649168,1.218c-0.147395,0.457 -0.220993,0.947 -0.220993,1.47c0,0.523 0.073599,1.017 0.220993,1.484c0.147296,0.457 0.363653,0.859 0.649168,1.204c0.285417,0.345 0.635356,0.621 1.049719,0.826c0.423538,0.196 0.906961,0.294 1.450269,0.294c0.54321,0 1.022095,-0.098 1.436457,-0.294c0.423538,-0.205 0.778015,-0.481 1.063531,-0.826c0.285417,-0.345 0.501773,-0.747 0.649168,-1.204c0.147296,-0.467 0.220993,-0.961 0.220993,-1.484c0,-0.523 -0.073697,-1.013 -0.220993,-1.47c-0.147395,-0.467 -0.363751,-0.873 -0.649168,-1.218c-0.285516,-0.345 -0.639993,-0.621 -1.063531,-0.826c-0.414363,-0.205 -0.893248,-0.308 -1.436457,-0.308zm4.677563,-2.562l0,9.996l0.870162,0l0,-9.996l-0.870162,0zm6.379705,0l0,9.996l0.801101,0l0,-1.372l0.027624,0c0.202544,0.504 0.529496,0.891 0.980658,1.162c0.460436,0.271 0.980658,0.406 1.560766,0.406c0.543308,0 1.012919,-0.098 1.408833,-0.294c0.405187,-0.205 0.741216,-0.481 1.008282,-0.826c0.267067,-0.355 0.464974,-0.761 0.59392,-1.218c0.128946,-0.467 0.193369,-0.957 0.193369,-1.47c0,-0.513 -0.064424,-0.999 -0.193369,-1.456c-0.128946,-0.467 -0.326853,-0.873 -0.59392,-1.218c-0.267067,-0.355 -0.603095,-0.635 -1.008282,-0.84c-0.395914,-0.205 -0.865525,-0.308 -1.408833,-0.308c-0.257793,0 -0.515684,0.033 -0.773477,0.098c-0.257793,0.065 -0.497235,0.168 -0.718229,0.308c-0.220993,0.131 -0.419,0.294 -0.59392,0.49c-0.165745,0.196 -0.294691,0.425 -0.386738,0.686l-0.027624,0l0,-4.144l-0.870162,0zm5.704393,6.384c0,0.373 -0.046073,0.747 -0.138121,1.12c-0.082873,0.364 -0.220993,0.691 -0.414363,0.98c-0.184194,0.289 -0.423538,0.527 -0.718229,0.714c-0.294691,0.177 -0.649168,0.266 -1.063531,0.266c-0.460436,0 -0.851713,-0.089 -1.174028,-0.266c-0.313041,-0.187 -0.570933,-0.425 -0.773477,-0.714c-0.193369,-0.289 -0.336127,-0.616 -0.428175,-0.98c-0.082873,-0.373 -0.124309,-0.747 -0.124309,-1.12c0,-0.373 0.041436,-0.742 0.124309,-1.106c0.092048,-0.373 0.234806,-0.705 0.428175,-0.994c0.202544,-0.289 0.460436,-0.523 0.773477,-0.7c0.322315,-0.187 0.713592,-0.28 1.174028,-0.28c0.414363,0 0.76884,0.093 1.063531,0.28c0.294691,0.177 0.534035,0.411 0.718229,0.7c0.193369,0.289 0.33149,0.621 0.414363,0.994c0.092048,0.364 0.138121,0.733 0.138121,1.106zm8.000258,3.612l0,-7.224l-0.870162,0l0,3.794c0,0.364 -0.041436,0.723 -0.124309,1.078c-0.082873,0.345 -0.211818,0.653 -0.386738,0.924c-0.175019,0.271 -0.396012,0.49 -0.66298,0.658c-0.267067,0.159 -0.589382,0.238 -0.966846,0.238c-0.690604,0 -1.178664,-0.168 -1.464081,-0.504c-0.276242,-0.336 -0.423636,-0.831 -0.441987,-1.484l0,-4.704l-0.870162,0l0,4.69c0,0.429 0.045975,0.812 0.138121,1.148c0.092048,0.336 0.234806,0.621 0.428175,0.854c0.202544,0.233 0.460337,0.411 0.773477,0.532c0.322216,0.131 0.708955,0.196 1.160215,0.196c0.534035,0 1.017458,-0.126 1.450269,-0.378c0.441987,-0.261 0.778015,-0.635 1.008282,-1.12l0.027624,0l0,1.302l0.801101,0zm3.026327,-7.224l0,-2.17l-0.870162,0l0,2.17l-1.243088,0l0,0.742l1.243088,0l0,4.942c-0.009175,0.616 0.101322,1.041 0.33149,1.274c0.230169,0.224 0.635356,0.336 1.215464,0.336c0.128946,0 0.257793,-0.005 0.386738,-0.014c0.128946,-0.009 0.257793,-0.014 0.386738,-0.014l0,-0.742c-0.248618,0.028 -0.497235,0.042 -0.745853,0.042c-0.313041,-0.019 -0.511047,-0.107 -0.59392,-0.266c-0.073697,-0.168 -0.110497,-0.397 -0.110497,-0.686l0,-4.872l1.450269,0l0,-0.742l-1.450269,0zm4.086997,0l0,-2.17l-0.870162,0l0,2.17l-1.243088,0l0,0.742l1.243088,0l0,4.942c-0.009175,0.616 0.101322,1.041 0.33149,1.274c0.230169,0.224 0.635356,0.336 1.215464,0.336c0.128946,0 0.257793,-0.005 0.386738,-0.014c0.128946,-0.009 0.257793,-0.014 0.386738,-0.014l0,-0.742c-0.248618,0.028 -0.497235,0.042 -0.745853,0.042c-0.313041,-0.019 -0.511047,-0.107 -0.59392,-0.266c-0.073697,-0.168 -0.110497,-0.397 -0.110497,-0.686l0,-4.872l1.450269,0l0,-0.742l-1.450269,0zm5.716824,0.532c0.414363,0 0.778015,0.089 1.091155,0.266c0.313041,0.177 0.570834,0.411 0.773477,0.7c0.21172,0.289 0.368289,0.621 0.469611,0.994c0.110497,0.364 0.165745,0.737 0.165745,1.12c0,0.383 -0.055248,0.761 -0.165745,1.134c-0.101322,0.364 -0.257891,0.691 -0.469611,0.98c-0.202643,0.289 -0.460436,0.523 -0.773477,0.7c-0.31314,0.177 -0.676792,0.266 -1.091155,0.266c-0.414363,0 -0.778114,-0.089 -1.091155,-0.266c-0.31314,-0.177 -0.575569,-0.411 -0.787289,-0.7c-0.202643,-0.289 -0.359114,-0.616 -0.469611,-0.98c-0.101322,-0.373 -0.151933,-0.751 -0.151933,-1.134c0,-0.383 0.050611,-0.756 0.151933,-1.12c0.110497,-0.373 0.266968,-0.705 0.469611,-0.994c0.21172,-0.289 0.474149,-0.523 0.787289,-0.7c0.313041,-0.177 0.676792,-0.266 1.091155,-0.266zm0,-0.742c-0.543308,0 -1.026731,0.103 -1.450269,0.308c-0.414363,0.205 -0.764302,0.481 -1.049719,0.826c-0.285516,0.345 -0.501872,0.751 -0.649168,1.218c-0.147395,0.457 -0.220993,0.947 -0.220993,1.47c0,0.523 0.073599,1.017 0.220993,1.484c0.147296,0.457 0.363653,0.859 0.649168,1.204c0.285417,0.345 0.635356,0.621 1.049719,0.826c0.423538,0.196 0.906961,0.294 1.450269,0.294c0.54321,0 1.022095,-0.098 1.436457,-0.294c0.423538,-0.205 0.778015,-0.481 1.063531,-0.826c0.285417,-0.345 0.501773,-0.747 0.649168,-1.204c0.147296,-0.467 0.220993,-0.961 0.220993,-1.484c0,-0.523 -0.073697,-1.013 -0.220993,-1.47c-0.147395,-0.467 -0.363751,-0.873 -0.649168,-1.218c-0.285516,-0.345 -0.639993,-0.621 -1.063531,-0.826c-0.414363,-0.205 -0.893248,-0.308 -1.436457,-0.308zm4.650037,0.21l0,7.224l0.870162,0l0,-4.214c0.009175,-0.355 0.064424,-0.681 0.165745,-0.98c0.110497,-0.308 0.257793,-0.569 0.441987,-0.784c0.193369,-0.224 0.423538,-0.397 0.690604,-0.518c0.276242,-0.131 0.589283,-0.196 0.939222,-0.196c0.34984,0 0.639894,0.056 0.870162,0.168c0.239344,0.112 0.428175,0.266 0.566296,0.462c0.138121,0.196 0.234806,0.429 0.290054,0.7c0.055248,0.261 0.082873,0.546 0.082873,0.854l0,4.508l0.870162,0l0,-4.648c0,-0.429 -0.041436,-0.817 -0.124309,-1.162c-0.082873,-0.345 -0.22563,-0.635 -0.428175,-0.868c-0.202643,-0.243 -0.474248,-0.429 -0.814913,-0.56c-0.33149,-0.131 -0.745853,-0.196 -1.243088,-0.196c-0.506509,0 -0.971483,0.135 -1.395021,0.406c-0.423636,0.261 -0.718229,0.611 -0.883974,1.05l-0.027624,0l0,-1.246l-0.870162,0zm11.276584,0l0,7.224l0.870162,0l0,-3.85c0,-0.383 0.064424,-0.733 0.193369,-1.05c0.128847,-0.327 0.308404,-0.607 0.538671,-0.84c0.239344,-0.233 0.520222,-0.411 0.842537,-0.532c0.322216,-0.131 0.681331,-0.187 1.077343,-0.168l0,-0.882c-0.64463,-0.028 -1.201652,0.117 -1.671263,0.434c-0.460436,0.317 -0.801101,0.77 -1.022095,1.358l-0.027624,0l0,-1.694l-0.801101,0zm4.37054,-2.772l0,1.414l0.870162,0l0,-1.414l-0.870162,0zm0,2.772l0,7.224l0.870162,0l0,-7.224l-0.870162,0zm2.521693,0l0,7.224l0.870162,0l0,-4.214c0.009175,-0.355 0.064424,-0.681 0.165745,-0.98c0.110497,-0.308 0.257793,-0.569 0.442381,-0.784c0.193369,-0.224 0.423242,-0.397 0.690604,-0.518c0.276242,-0.131 0.588987,-0.196 0.939222,-0.196c0.349249,0 0.639302,0.056 0.870162,0.168c0.238752,0.112 0.428175,0.266 0.566296,0.462c0.138121,0.196 0.234806,0.429 0.290054,0.7c0.055248,0.261 0.082873,0.546 0.082873,0.854l0,4.508l0.870162,0l0,-4.648c0,-0.429 -0.041436,-0.817 -0.124309,-1.162c-0.082873,-0.345 -0.225926,-0.635 -0.428175,-0.868c-0.203235,-0.243 -0.474544,-0.429 -0.814913,-0.56c-0.33149,-0.131 -0.745853,-0.196 -1.243088,-0.196c-0.507101,0 -0.971779,0.135 -1.395021,0.406c-0.424031,0.261 -0.718623,0.611 -0.884368,1.05l-0.027624,0l0,-1.246l-0.870162,0zm13.454356,6.636l0,-6.636l-0.870162,0l0,1.246l-0.027624,0c-0.082873,-0.196 -0.202248,-0.383 -0.359114,-0.56c-0.147,-0.177 -0.317678,-0.331 -0.511047,-0.462c-0.193369,-0.14 -0.40943,-0.247 -0.649168,-0.322c-0.229873,-0.075 -0.47849,-0.112 -0.745853,-0.112c-0.51598,0 -0.975725,0.098 -1.381209,0.294c-0.395618,0.187 -0.732041,0.448 -1.008282,0.784c-0.267363,0.327 -0.474544,0.714 -0.621544,1.162c-0.138121,0.439 -0.207181,0.905 -0.207181,1.4c0,0.513 0.060181,0.999 0.179557,1.456c0.119376,0.448 0.308799,0.84 0.566296,1.176c0.267363,0.336 0.602799,0.602 1.008282,0.798c0.405483,0.187 0.892853,0.28 1.464081,0.28c0.524859,0 0.980658,-0.135 1.367397,-0.406c0.395618,-0.271 0.695537,-0.63 0.897786,-1.078l0.027624,0l0,0.98c0,0.877 -0.179557,1.549 -0.538671,2.016c-0.359114,0.467 -0.944155,0.7 -1.754135,0.7c-0.239738,0 -0.474544,-0.028 -0.704417,-0.084c-0.229873,-0.047 -0.441987,-0.126 -0.635356,-0.238c-0.18449,-0.112 -0.345302,-0.261 -0.483423,-0.448c-0.129242,-0.177 -0.216061,-0.401 -0.26243,-0.672l-0.870162,0c0.027624,0.383 0.129242,0.709 0.303866,0.98c0.18449,0.28 0.40943,0.509 0.676792,0.686c0.276242,0.177 0.585041,0.308 0.92541,0.392c0.340369,0.084 0.690604,0.126 1.049719,0.126c0.580108,0 1.068464,-0.079 1.464081,-0.238c0.405483,-0.159 0.732041,-0.387 0.980658,-0.686c0.248618,-0.299 0.428175,-0.663 0.538671,-1.092c0.119376,-0.429 0.179557,-0.91 0.179557,-1.442zm-3.162968,-0.238c-0.405483,0 -0.754732,-0.079 -1.049719,-0.238c-0.294987,-0.168 -0.538671,-0.383 -0.732041,-0.644c-0.193369,-0.271 -0.336423,-0.579 -0.428175,-0.924c-0.091752,-0.345 -0.138121,-0.7 -0.138121,-1.064c0,-0.373 0.041436,-0.737 0.124309,-1.092c0.091752,-0.364 0.234806,-0.686 0.428175,-0.966c0.193369,-0.28 0.437054,-0.504 0.732041,-0.672c0.294987,-0.177 0.649168,-0.266 1.063531,-0.266c0.414363,0 0.764598,0.089 1.049719,0.266c0.294987,0.177 0.533739,0.411 0.718229,0.7c0.18449,0.289 0.317678,0.611 0.400551,0.966c0.082873,0.355 0.124309,0.709 0.124309,1.064c0,0.364 -0.050315,0.719 -0.151933,1.064c-0.091752,0.345 -0.234806,0.653 -0.428175,0.924c-0.193369,0.261 -0.433108,0.476 -0.718229,0.644c-0.285121,0.159 -0.616611,0.238 -0.99447,0.238zm-103.721881,15.134c0.414363,0 0.778084,0.089 1.091155,0.266c0.313071,0.177 0.570903,0.411 0.773477,0.7c0.211789,0.289 0.368319,0.621 0.469611,0.994c0.110497,0.364 0.165745,0.737 0.165745,1.12c0,0.383 -0.055248,0.761 -0.165745,1.134c-0.101292,0.364 -0.257822,0.691 -0.469611,0.98c-0.202574,0.289 -0.460406,0.523 -0.773477,0.7c-0.313071,0.177 -0.676792,0.266 -1.091155,0.266c-0.414363,0 -0.778084,-0.089 -1.091155,-0.266c-0.313071,-0.177 -0.5755,-0.411 -0.787289,-0.7c-0.202574,-0.289 -0.359114,-0.616 -0.469611,-0.98c-0.101292,-0.373 -0.151933,-0.751 -0.151933,-1.134c0,-0.383 0.050641,-0.756 0.151933,-1.12c0.110497,-0.373 0.267037,-0.705 0.469611,-0.994c0.211789,-0.289 0.474218,-0.523 0.787289,-0.7c0.313071,-0.177 0.676792,-0.266 1.091155,-0.266zm0,-0.742c-0.543279,0 -1.026702,0.103 -1.450269,0.308c-0.414363,0.205 -0.764272,0.481 -1.049719,0.826c-0.285447,0.345 -0.501843,0.751 -0.649168,1.218c-0.147326,0.457 -0.220993,0.947 -0.220993,1.47c0,0.523 0.073668,1.017 0.220993,1.484c0.147326,0.457 0.363722,0.859 0.649168,1.204c0.285447,0.345 0.635356,0.621 1.049719,0.826c0.423567,0.196 0.906991,0.294 1.450269,0.294c0.543279,0 1.022095,-0.098 1.436457,-0.294c0.423567,-0.205 0.778084,-0.481 1.063531,-0.826c0.285447,-0.345 0.501843,-0.747 0.649168,-1.204c0.147326,-0.467 0.220993,-0.961 0.220993,-1.484c0,-0.523 -0.073668,-1.013 -0.220993,-1.47c-0.147326,-0.467 -0.363722,-0.873 -0.649168,-1.218c-0.285447,-0.345 -0.639963,-0.621 -1.063531,-0.826c-0.414363,-0.205 -0.893178,-0.308 -1.436457,-0.308zm4.663849,0.21l0,7.224l0.870162,0l0,-3.85c0,-0.383 0.064453,-0.733 0.193369,-1.05c0.128906,-0.327 0.308503,-0.607 0.538671,-0.84c0.239442,-0.233 0.520222,-0.411 0.842537,-0.532c0.322315,-0.131 0.681429,-0.187 1.077343,-0.168l0,-0.882c-0.644531,-0.028 -1.201652,0.117 -1.671263,0.434c-0.460436,0.317 -0.801101,0.77 -1.022095,1.358l-0.027624,0l0,-1.694l-0.801101,0zm4.585712,0l0,7.224l0.870162,0l0,-4.214c0.009175,-0.355 0.064424,-0.681 0.165745,-0.98c0.110497,-0.308 0.257793,-0.569 0.441987,-0.784c0.193369,-0.224 0.423538,-0.397 0.690604,-0.518c0.276242,-0.131 0.589283,-0.196 0.939222,-0.196c0.349939,0 0.639993,0.056 0.870162,0.168c0.239442,0.112 0.428175,0.266 0.566296,0.462c0.138121,0.196 0.234806,0.429 0.290054,0.7c0.055248,0.261 0.082873,0.546 0.082873,0.854l0,4.508l0.870162,0l0,-4.648c0,-0.429 -0.041436,-0.817 -0.124309,-1.162c-0.082873,-0.345 -0.22563,-0.635 -0.428175,-0.868c-0.202544,-0.243 -0.474248,-0.429 -0.814913,-0.56c-0.33149,-0.131 -0.745853,-0.196 -1.243088,-0.196c-0.50641,0 -0.971483,0.135 -1.395021,0.406c-0.423538,0.261 -0.718229,0.611 -0.883974,1.05l-0.027624,0l0,-1.246l-0.870162,0zm7.349511,2.212l0.870162,0c0.018449,-0.588 0.202643,-1.013 0.552484,-1.274c0.349939,-0.271 0.801101,-0.406 1.353585,-0.406c0.257891,0 0.497235,0.023 0.718229,0.07c0.230267,0.037 0.428175,0.112 0.59392,0.224c0.175019,0.112 0.308503,0.266 0.400551,0.462c0.101322,0.187 0.151933,0.429 0.151933,0.728c0,0.196 -0.027624,0.355 -0.082873,0.476c-0.045975,0.121 -0.115035,0.219 -0.207181,0.294c-0.092048,0.065 -0.207181,0.112 -0.345302,0.14c-0.138121,0.028 -0.299229,0.051 -0.483423,0.07c-0.469611,0.056 -0.934585,0.117 -1.395021,0.182c-0.451162,0.056 -0.860888,0.159 -1.229276,0.308c-0.359114,0.149 -0.649168,0.369 -0.870162,0.658c-0.220993,0.28 -0.33149,0.672 -0.33149,1.176c0,0.364 0.059885,0.681 0.179557,0.952c0.128946,0.261 0.299328,0.481 0.511047,0.658c0.220993,0.168 0.474248,0.289 0.759665,0.364c0.294691,0.084 0.607732,0.126 0.939222,0.126c0.349939,0 0.649168,-0.033 0.897786,-0.098c0.257891,-0.065 0.483423,-0.159 0.676792,-0.28c0.202643,-0.121 0.3822,-0.271 0.538671,-0.448c0.165745,-0.187 0.326952,-0.397 0.483423,-0.63l0.027624,0c0,0.187 0.009274,0.359 0.027624,0.518c0.027624,0.149 0.078334,0.28 0.151933,0.392c0.073697,0.112 0.175019,0.201 0.303866,0.266c0.138121,0.056 0.317678,0.084 0.538671,0.084c0.119771,0 0.216455,-0.005 0.290054,-0.014c0.082873,-0.009 0.175019,-0.023 0.276242,-0.042l0,-0.742c-0.082873,0.037 -0.17492,0.056 -0.276242,0.056c-0.340665,0 -0.511047,-0.177 -0.511047,-0.532l0,-3.836c0,-0.485 -0.078236,-0.877 -0.234806,-1.176c-0.156471,-0.308 -0.359114,-0.546 -0.607732,-0.714c-0.248618,-0.168 -0.529398,-0.28 -0.842537,-0.336c-0.313041,-0.065 -0.626082,-0.098 -0.939222,-0.098c-0.414363,0 -0.791827,0.047 -1.132591,0.14c-0.340665,0.093 -0.639894,0.238 -0.897786,0.434c-0.248618,0.196 -0.446525,0.448 -0.59392,0.756c-0.147296,0.308 -0.234806,0.672 -0.26243,1.092zm4.640862,1.064l0,1.148c0,0.355 -0.06906,0.672 -0.207181,0.952c-0.128847,0.28 -0.308404,0.518 -0.538671,0.714c-0.220993,0.196 -0.483423,0.345 -0.787289,0.448c-0.303866,0.103 -0.621544,0.154 -0.953034,0.154c-0.202544,0 -0.400551,-0.033 -0.59392,-0.098c-0.193369,-0.065 -0.363653,-0.159 -0.511047,-0.28c-0.147296,-0.131 -0.266968,-0.28 -0.359114,-0.448c-0.082873,-0.177 -0.124309,-0.378 -0.124309,-0.602c0,-0.355 0.101322,-0.625 0.303866,-0.812c0.211818,-0.196 0.478885,-0.345 0.801101,-0.448c0.322315,-0.103 0.676792,-0.177 1.063531,-0.224c0.396012,-0.056 0.778114,-0.117 1.146403,-0.182c0.119771,-0.019 0.257891,-0.051 0.414363,-0.098c0.15657,-0.047 0.26243,-0.121 0.317678,-0.224l0.027624,0zm2.604368,-3.276l0,7.224l0.870162,0l0,-4.032c0,-0.383 0.041436,-0.733 0.124309,-1.05c0.082873,-0.327 0.207181,-0.607 0.372926,-0.84c0.17492,-0.243 0.395914,-0.429 0.66298,-0.56c0.276242,-0.14 0.598557,-0.21 0.966846,-0.21c0.276242,0 0.511047,0.047 0.704417,0.14c0.193369,0.093 0.345302,0.224 0.455799,0.392c0.119672,0.159 0.202544,0.35 0.248618,0.574c0.055248,0.215 0.082873,0.443 0.082873,0.686l0,4.9l0.870162,0l0,-4.088c0,-0.336 0.027624,-0.658 0.082873,-0.966c0.064424,-0.317 0.170382,-0.597 0.317678,-0.84c0.147296,-0.243 0.345302,-0.434 0.59392,-0.574c0.248618,-0.149 0.561659,-0.224 0.939222,-0.224c0.626181,0 1.063531,0.159 1.312148,0.476c0.248618,0.308 0.372926,0.761 0.372926,1.358l0,4.858l0.870162,0l0,-4.9c0,-1.689 -0.787289,-2.534 -2.361867,-2.534c-0.469611,0 -0.911598,0.117 -1.325961,0.35c-0.414363,0.233 -0.727404,0.588 -0.939222,1.064c-0.128946,-0.476 -0.386738,-0.831 -0.773477,-1.064c-0.377563,-0.233 -0.801101,-0.35 -1.270712,-0.35c-0.580108,0 -1.058894,0.126 -1.436457,0.378c-0.368289,0.252 -0.667617,0.602 -0.897786,1.05l-0.041436,0l0,-1.218l-0.801101,0zm16.629854,3.108l-4.613238,0c0.036799,-0.327 0.110497,-0.644 0.220993,-0.952c0.119672,-0.317 0.276242,-0.593 0.469611,-0.826c0.193369,-0.243 0.428175,-0.434 0.704417,-0.574c0.276242,-0.149 0.59392,-0.224 0.953034,-0.224c0.349939,0 0.66298,0.075 0.939222,0.224c0.276242,0.14 0.511047,0.331 0.704417,0.574c0.193369,0.233 0.340665,0.504 0.441987,0.812c0.110497,0.308 0.170382,0.63 0.179557,0.966zm-4.613238,0.742l5.483399,0c0.018449,-0.504 -0.027624,-0.999 -0.138121,-1.484c-0.110497,-0.495 -0.294691,-0.929 -0.552484,-1.302c-0.248618,-0.383 -0.575471,-0.691 -0.980658,-0.924c-0.405187,-0.233 -0.893149,-0.35 -1.464081,-0.35c-0.561659,0 -1.049719,0.112 -1.464081,0.336c-0.405187,0.215 -0.736678,0.504 -0.99447,0.868c-0.257793,0.355 -0.451162,0.761 -0.580108,1.218c-0.119672,0.457 -0.179557,0.924 -0.179557,1.4c0,0.513 0.059885,1.003 0.179557,1.47c0.128946,0.457 0.322315,0.863 0.580108,1.218c0.257793,0.345 0.589283,0.621 0.99447,0.826c0.414363,0.196 0.902423,0.294 1.464081,0.294c0.902423,0 1.597565,-0.224 2.085625,-0.672c0.497235,-0.448 0.837901,-1.083 1.022095,-1.904l-0.870162,0c-0.138121,0.56 -0.386738,1.008 -0.745853,1.344c-0.359114,0.336 -0.85635,0.504 -1.491706,0.504c-0.414363,0 -0.76884,-0.089 -1.063531,-0.266c-0.294691,-0.177 -0.538671,-0.401 -0.732041,-0.672c-0.193369,-0.271 -0.336127,-0.574 -0.428175,-0.91c-0.082873,-0.345 -0.124309,-0.677 -0.124309,-0.994zm6.637498,-3.85l0,7.224l0.870162,0l0,-4.214c0.009175,-0.355 0.064424,-0.681 0.165745,-0.98c0.110497,-0.308 0.257793,-0.569 0.441987,-0.784c0.193369,-0.224 0.423538,-0.397 0.690604,-0.518c0.276242,-0.131 0.589283,-0.196 0.939222,-0.196c0.34984,0 0.639894,0.056 0.870162,0.168c0.239344,0.112 0.428175,0.266 0.566296,0.462c0.138121,0.196 0.234806,0.429 0.290054,0.7c0.055248,0.261 0.082873,0.546 0.082873,0.854l0,4.508l0.870162,0l0,-4.648c0,-0.429 -0.041436,-0.817 -0.124309,-1.162c-0.082873,-0.345 -0.22563,-0.635 -0.428175,-0.868c-0.202643,-0.243 -0.474248,-0.429 -0.814913,-0.56c-0.33149,-0.131 -0.745853,-0.196 -1.243088,-0.196c-0.506509,0 -0.971483,0.135 -1.395021,0.406c-0.423636,0.261 -0.718229,0.611 -0.883974,1.05l-0.027624,0l0,-1.246l-0.870162,0zm8.813593,0l0,-2.17l-0.870162,0l0,2.17l-1.243088,0l0,0.742l1.243088,0l0,4.942c-0.009175,0.616 0.101322,1.041 0.33149,1.274c0.230169,0.224 0.635356,0.336 1.215464,0.336c0.128946,0 0.257793,-0.005 0.386738,-0.014c0.128946,-0.009 0.257793,-0.014 0.386738,-0.014l0,-0.742c-0.248618,0.028 -0.497235,0.042 -0.745853,0.042c-0.313041,-0.019 -0.511047,-0.107 -0.59392,-0.266c-0.073697,-0.168 -0.110497,-0.397 -0.110497,-0.686l0,-4.872l1.450269,0l0,-0.742l-1.450269,0z"/>
 </g>
</svg>