<svg width="30" height="29" viewBox="0 0 30 29" fill="none" xmlns="http://www.w3.org/2000/svg">
<g filter="url(#filter0_d_24223_3872)">
<path d="M23.4213 6.67602C24.4088 6.10217 25.0626 5.31892 25.3828 4.32279C24.4809 4.78454 23.5131 5.12007 22.5095 5.31892C21.6504 4.44427 20.5626 4 19.2586 4C17.9839 4 16.9072 4.42344 16.0284 5.24719C15.6041 5.63836 15.2686 6.10743 15.0424 6.62567C14.8163 7.14391 14.7044 7.70039 14.7134 8.26103C14.7134 8.61853 14.7611 8.93785 14.8564 9.20857C11.097 9.08709 7.98545 7.61083 5.5338 4.76937C5.11827 5.46469 4.9105 6.17275 4.9105 6.90509C4.9105 8.41028 5.58147 9.60309 6.92095 10.4789C6.1571 10.4176 5.4837 10.2348 4.9105 9.93514C4.9105 11.0099 5.24415 11.9077 5.91267 12.6979C6.56207 13.4679 7.47725 13.9967 8.49753 14.1915C8.11622 14.2841 7.71413 14.3281 7.30104 14.3281C6.91973 14.3281 6.64963 14.298 6.48953 14.232C6.77062 15.1078 7.30104 15.8182 8.06733 16.362C8.82487 16.9065 9.74635 17.2077 10.6974 17.2216C9.0695 18.4306 7.20816 19.0287 5.10238 19.0287C4.58663 19.0287 4.22121 19.0218 4 18.9848C6.074 20.2597 8.38265 20.8926 10.9369 20.8926C13.5511 20.8926 15.861 20.2655 17.8715 19.0114C19.8819 17.7642 21.3656 16.2255 22.3189 14.4137C23.2616 12.6606 23.7524 10.7211 23.7512 8.75389V8.21244C24.6299 7.59917 25.3906 6.84738 26 5.98995C25.177 6.32762 24.3096 6.5584 23.4213 6.67602Z" fill="#4F4F4F"/>
</g>
<defs>
<filter id="filter0_d_24223_3872" x="-1" y="0" width="32" height="32" filterUnits="userSpaceOnUse" color-interpolation-filters="sRGB">
<feFlood flood-opacity="0" result="BackgroundImageFix"/>
<feColorMatrix in="SourceAlpha" type="matrix" values="0 0 0 0 0 0 0 0 0 0 0 0 0 0 0 0 0 0 127 0" result="hardAlpha"/>
<feOffset dy="4"/>
<feGaussianBlur stdDeviation="2"/>
<feComposite in2="hardAlpha" operator="out"/>
<feColorMatrix type="matrix" values="0 0 0 0 0 0 0 0 0 0 0 0 0 0 0 0 0 0 0.25 0"/>
<feBlend mode="normal" in2="BackgroundImageFix" result="effect1_dropShadow_24223_3872"/>
<feBlend mode="normal" in="SourceGraphic" in2="effect1_dropShadow_24223_3872" result="shape"/>
</filter>
</defs>
</svg>
