<svg width="22" height="17" viewBox="0 0 22 17" fill="none" xmlns="http://www.w3.org/2000/svg">
<path d="M19.4213 2.67602C20.4088 2.10217 21.0626 1.31892 21.3828 0.322788C20.4809 0.784535 19.5131 1.12007 18.5095 1.31892C17.6504 0.444268 16.5626 0 15.2586 0C13.9839 0 12.9072 0.423443 12.0284 1.24719C11.6041 1.63836 11.2686 2.10743 11.0424 2.62567C10.8163 3.14391 10.7044 3.70039 10.7134 4.26103C10.7134 4.61853 10.7611 4.93785 10.8564 5.20857C7.09705 5.08709 3.98545 3.61083 1.5338 0.769369C1.11827 1.46469 0.910505 2.17275 0.910505 2.90509C0.910505 4.41028 1.58147 5.60309 2.92095 6.4789C2.1571 6.41758 1.4837 6.23479 0.910505 5.93514C0.910505 7.00994 1.24415 7.90773 1.91267 8.69792C2.56207 9.46792 3.47725 9.99674 4.49753 10.1915C4.11622 10.2841 3.71413 10.3281 3.30104 10.3281C2.91973 10.3281 2.64963 10.298 2.48953 10.232C2.77062 11.1078 3.30104 11.8182 4.06733 12.362C4.82487 12.9065 5.74635 13.2077 6.69741 13.2216C5.0695 14.4306 3.20816 15.0287 1.10238 15.0287C0.586634 15.0287 0.22121 15.0218 0 14.9848C2.074 16.2597 4.38265 16.8926 6.93695 16.8926C9.55114 16.8926 11.861 16.2655 13.8715 15.0114C15.8819 13.7642 17.3656 12.2255 18.3189 10.4137C19.2616 8.66057 19.7524 6.72107 19.7512 4.75389V4.21244C20.6299 3.59917 21.3906 2.84738 22 1.98995C21.177 2.32762 20.3096 2.5584 19.4213 2.67602Z" fill="#4F4F4F"/>
</svg>
