<svg width="22" height="17" viewBox="0 0 22 17" fill="none" xmlns="http://www.w3.org/2000/svg">
<path d="M19.4213 2.67504C20.4088 2.1012 21.0626 1.31794 21.3828 0.321812C20.4809 0.783559 19.5131 1.11909 18.5095 1.31794C17.6504 0.443291 16.5626 -0.000976562 15.2586 -0.000976562C13.9839 -0.000976562 12.9072 0.422466 12.0284 1.24621C11.6041 1.63738 11.2686 2.10645 11.0424 2.62469C10.8163 3.14293 10.7044 3.69942 10.7134 4.26006C10.7134 4.61755 10.7611 4.93687 10.8564 5.2076C7.09705 5.08612 3.98545 3.60985 1.5338 0.768393C1.11827 1.46372 0.910505 2.17177 0.910505 2.90412C0.910505 4.4093 1.58147 5.60212 2.92095 6.47792C2.1571 6.41661 1.4837 6.23381 0.910505 5.93416C0.910505 7.00896 1.24415 7.90675 1.91267 8.69695C2.56207 9.46694 3.47725 9.99576 4.49753 10.1906C4.11622 10.2831 3.71413 10.3271 3.30104 10.3271C2.91973 10.3271 2.64963 10.297 2.48953 10.2311C2.77062 11.1069 3.30104 11.8172 4.06733 12.361C4.82487 12.9055 5.74635 13.2067 6.69741 13.2206C5.0695 14.4296 3.20816 15.0278 1.10238 15.0278C0.586634 15.0278 0.22121 15.0208 0 14.9838C2.074 16.2588 4.38265 16.8916 6.93695 16.8916C9.55114 16.8916 11.861 16.2645 13.8715 15.0104C15.8819 13.7632 17.3656 12.2245 18.3189 10.4127C19.2616 8.65959 19.7524 6.7201 19.7512 4.75292V4.21147C20.6299 3.5982 21.3906 2.8464 22 1.98897C21.177 2.32664 20.3096 2.55742 19.4213 2.67504Z" fill="#4F4F4F"/>
</svg>
