<svg width="19" height="11" viewBox="0 0 19 11" fill="none" xmlns="http://www.w3.org/2000/svg">
<path d="M0.91 0.00399935V6.402C0.91 6.91533 0.98 7.40533 1.12 7.872C1.26933 8.32933 1.498 8.73067 1.806 9.076C2.12333 9.42133 2.52467 9.69667 3.01 9.902C3.50467 10.098 4.09733 10.196 4.788 10.196C5.488 10.196 6.08067 10.098 6.566 9.902C7.06067 9.69667 7.462 9.42133 7.77 9.076C8.08733 8.73067 8.316 8.32933 8.456 7.872C8.60533 7.40533 8.68 6.91533 8.68 6.402V0.00399935H7.728V6.192C7.728 6.77067 7.66267 7.26533 7.532 7.676C7.40133 8.07733 7.21 8.40867 6.958 8.67C6.706 8.922 6.398 9.10867 6.034 9.23C5.67 9.342 5.25467 9.398 4.788 9.398C4.33067 9.398 3.92 9.342 3.556 9.23C3.192 9.10867 2.884 8.922 2.632 8.67C2.38 8.40867 2.18867 8.07733 2.058 7.676C1.92733 7.26533 1.862 6.77067 1.862 6.192V0.00399935H0.91ZM12.006 6.08L14.008 0.956L15.94 6.08H12.006ZM13.518 0.00399935L9.49998 10H10.508L11.712 6.892H16.262L17.48 10H18.502L14.582 0.00399935H13.518Z" fill="#BDBDBD"/>
</svg>
