<svg width="46" height="37" viewBox="0 0 46 37" fill="none" xmlns="http://www.w3.org/2000/svg">
<path d="M23 0.695435C14.4222 0.695435 6.55119 3.57398 0.411638 8.21978C0.190719 8.38861 0.0459588 8.63822 0.00920269 8.9137C-0.0275534 9.18918 0.0467058 9.46798 0.215644 9.68875C0.384582 9.90952 0.634361 10.0542 0.910032 10.0909C1.1857 10.1276 1.46468 10.0534 1.6856 9.88461C7.47142 5.50648 14.8902 2.78463 23 2.78463C31.1098 2.78463 38.5286 5.50648 44.3144 9.88461C44.5353 10.0534 44.8143 10.1276 45.09 10.0909C45.3656 10.0542 45.6154 9.90952 45.7844 9.68875C45.9533 9.46798 46.0276 9.18918 45.9908 8.9137C45.954 8.63822 45.8093 8.38861 45.5884 8.21978C39.4488 3.57398 31.5778 0.695435 23 0.695435ZM23 10.6191C16.8533 10.6191 11.1223 12.4784 6.66713 16.0706C6.54386 16.15 6.4387 16.2545 6.35848 16.3772C6.27827 16.5 6.22481 16.6382 6.20156 16.7829C6.17831 16.9277 6.1858 17.0757 6.22355 17.2173C6.26129 17.359 6.32844 17.4911 6.42064 17.6051C6.51284 17.7191 6.62801 17.8125 6.75868 17.8791C6.88934 17.9457 7.03257 17.9841 7.17906 17.9918C7.32555 17.9994 7.47201 17.9762 7.60893 17.9236C7.74584 17.871 7.87015 17.7902 7.97376 17.6864C12.0217 14.4226 17.2751 12.7083 23 12.7083C28.7249 12.7083 33.9783 14.4226 38.0262 17.6864C38.1299 17.7902 38.2542 17.871 38.3911 17.9236C38.528 17.9762 38.6745 17.9994 38.8209 17.9918C38.9674 17.9841 39.1107 17.9457 39.2413 17.8791C39.372 17.8125 39.4872 17.7191 39.5794 17.6051C39.6716 17.4911 39.7387 17.359 39.7765 17.2173C39.8142 17.0757 39.8217 16.9277 39.7984 16.7829C39.7752 16.6382 39.7217 16.5 39.6415 16.3772C39.5613 16.2545 39.4561 16.15 39.3329 16.0706C34.8777 12.4784 29.1467 10.6191 23 10.6191ZM23 20.0204C19.2465 20.0204 15.6812 21.1951 12.939 23.3664C12.7216 23.54 12.5819 23.7926 12.5504 24.0689C12.519 24.3452 12.5983 24.6227 12.7711 24.8407C12.9439 25.0586 13.196 25.1993 13.4723 25.232C13.7487 25.2647 14.0267 25.1866 14.2456 25.0149C16.5865 23.1613 19.6893 22.1096 23 22.1096C26.3107 22.1096 29.4135 23.1613 31.7544 25.0149C31.9733 25.1866 32.2513 25.2647 32.5277 25.232C32.804 25.1993 33.0561 25.0586 33.2289 24.8407C33.4017 24.6227 33.481 24.3452 33.4496 24.0689C33.4181 23.7926 33.2784 23.54 33.0611 23.3664C30.3188 21.1951 26.7535 20.0204 23 20.0204ZM23 29.9441C21.2681 29.9441 19.8641 31.3471 19.8641 33.0779C19.8641 34.8086 21.2681 36.2117 23 36.2117C24.7319 36.2117 26.1359 34.8086 26.1359 33.0779C26.1359 31.3471 24.7319 29.9441 23 29.9441Z" fill="#4F4F4F"/>
</svg>
