<svg width="44" height="45" viewBox="0 0 44 45" fill="none" xmlns="http://www.w3.org/2000/svg">
<path d="M22 11.2205C15.7868 11.2205 10.7313 16.2441 10.7313 22.4182C10.7313 28.5923 15.7868 33.6152 22 33.6152C28.2132 33.6152 33.2687 28.5923 33.2687 22.4182C33.2687 16.2441 28.2132 11.2205 22 11.2205Z" fill="#4F4F4F"/>
<path d="M22.0002 9.35021C22.3899 9.35021 22.7061 9.03593 22.7061 8.64869V1.25816C22.7061 0.870922 22.3899 0.556641 22.0002 0.556641C21.6105 0.556641 21.2942 0.870922 21.2942 1.25816V8.64869C21.2942 9.03593 21.6105 9.35021 22.0002 9.35021Z" fill="#4F4F4F"/>
<path d="M22.0002 35.4847C21.6105 35.4847 21.2942 35.799 21.2942 36.1863V43.5768C21.2942 43.964 21.6105 44.2783 22.0002 44.2783C22.3899 44.2783 22.7061 43.964 22.7061 43.5768V36.1863C22.7061 35.799 22.3899 35.4847 22.0002 35.4847Z" fill="#4F4F4F"/>
<path d="M11.7038 13.1777C11.8415 13.3145 12.0222 13.3832 12.2029 13.3832C12.3837 13.3832 12.5644 13.3145 12.7021 13.1777C12.9781 12.9034 12.9781 12.46 12.7021 12.1857L7.44259 6.96011C7.16656 6.68581 6.72038 6.68581 6.44435 6.96011C6.16832 7.2344 6.16832 7.67776 6.44435 7.95206L11.7038 13.1777Z" fill="#4F4F4F"/>
<path d="M32.2978 31.6579C32.0217 31.3836 31.5756 31.3836 31.2995 31.6579C31.0235 31.9322 31.0235 32.3756 31.2995 32.6498L36.559 37.8755C36.6967 38.0123 36.8774 38.081 37.0581 38.081C37.2388 38.081 37.4196 38.0123 37.5572 37.8755C37.8333 37.6012 37.8333 37.1578 37.5572 36.8835L32.2978 31.6579Z" fill="#4F4F4F"/>
<path d="M31.798 13.3832C31.9787 13.3832 32.1594 13.3145 32.2971 13.1777L37.5565 7.95206C37.8326 7.67776 37.8326 7.2344 37.5565 6.96011C37.2805 6.68581 36.8343 6.68581 36.5583 6.96011L31.2988 12.1857C31.0228 12.46 31.0228 12.9034 31.2988 13.1777C31.4372 13.3145 31.6179 13.3832 31.798 13.3832Z" fill="#4F4F4F"/>
<path d="M11.7038 31.6579L6.44435 36.8835C6.16832 37.1578 6.16832 37.6012 6.44435 37.8755C6.58201 38.0123 6.76274 38.081 6.94347 38.081C7.1242 38.081 7.30493 38.0123 7.44259 37.8755L12.7021 32.6498C12.9781 32.3756 12.9781 31.9322 12.7021 31.6579C12.426 31.3836 11.9791 31.3836 11.7038 31.6579Z" fill="#4F4F4F"/>
<path d="M43.294 21.7159H35.8567C35.467 21.7159 35.1507 22.0302 35.1507 22.4174C35.1507 22.8047 35.467 23.119 35.8567 23.119H43.294C43.6837 23.119 44 22.8047 44 22.4174C44 22.0302 43.6837 21.7159 43.294 21.7159Z" fill="#4F4F4F"/>
<path d="M8.85003 22.4174C8.85003 22.0302 8.53376 21.7159 8.14406 21.7159H0.705969C0.316274 21.7159 0 22.0302 0 22.4174C0 22.8047 0.316274 23.119 0.705969 23.119H8.14335C8.53376 23.119 8.85003 22.8054 8.85003 22.4174Z" fill="#4F4F4F"/>
</svg>
