<svg width="32" height="32" fill="none" xmlns="http://www.w3.org/2000/svg"><g clip-path="url('#clip0_41497_113')"><path d="M4 22.667C4 23.403 4.597 24 5.333 24h21.334a1.333 1.333 0 0 0 0-2.667H5.333c-.736 0-1.333.597-1.333 1.334ZM4 16c0 .736.597 1.333 1.333 1.333h21.334a1.333 1.333 0 0 0 0-2.666H5.333C4.597 14.667 4 15.264 4 16Zm1.333-8a1.333 1.333 0 1 0 0 2.667h21.334a1.333 1.333 0 0 0 0-2.667H5.333Z" fill="#292929"/></g><defs><clipPath id="clip0_41497_113"><path fill="#fff" d="M0 0h32v32H0z"/></clipPath></defs></svg>