<svg version="1.1" xmlns="http://www.w3.org/2000/svg" xmlns:xlink="http://www.w3.org/1999/xlink" width="24" height="16" viewBox="0,0,256,170.65625"><g fill="#000000" fill-rule="nonzero" stroke="none" stroke-width="1" stroke-linecap="butt" stroke-linejoin="miter" stroke-miterlimit="10" stroke-dasharray="" stroke-dashoffset="0" font-family="none" font-weight="none" font-size="none" text-anchor="none" style="mix-blend-mode: normal"><g transform="translate(0,-0.00521) scale(10.66667,10.66667)"><path d="M0,14.6667c0,0.7363 0.59695,1.3333 1.33333,1.3333h21.33337c0.7363,0 1.3333,-0.597 1.3333,-1.3333c0,-0.7364 -0.597,-1.3334 -1.3333,-1.3334h-21.33337c-0.73638,0 -1.33333,0.597 -1.33333,1.3334zM0,8c0,0.73638 0.59695,1.33333 1.33333,1.33333h21.33337c0.7363,0 1.3333,-0.59695 1.3333,-1.33333c0,-0.73638 -0.597,-1.33333 -1.3333,-1.33333h-21.33337c-0.73638,0 -1.33333,0.59695 -1.33333,1.33333zM1.33333,0c-0.73638,0 -1.33333,0.59695 -1.33333,1.33333c0,0.73638 0.59695,1.33334 1.33333,1.33334h21.33337c0.7363,0 1.3333,-0.59696 1.3333,-1.33334c0,-0.73638 -0.597,-1.33333 -1.3333,-1.33333z"></path></g></g></svg>