<svg width="46" height="41" fill="none" xmlns="http://www.w3.org/2000/svg"><path d="M27.28.235 11.7 11.287H0v17.895h11.7l15.58 11.053v-40ZM38.427 5.48a1.08 1.08 0 0 0-.63.25 1.038 1.038 0 0 0-.282 1.235c.096.207.257.38.46.489 3.264 1.828 5.885 6.803 5.885 12.78 0 5.976-2.621 10.935-5.884 12.763-.245.14-.423.37-.496.64a1.04 1.04 0 0 0 .107.797 1.086 1.086 0 0 0 1.458.389C43.28 32.451 46 26.798 46 20.233 46 13.67 43.279 8 39.047 5.63a1.084 1.084 0 0 0-.619-.148Zm-5.583 4.21a1.08 1.08 0 0 0-.635.243 1.037 1.037 0 0 0-.293 1.238c.094.21.256.383.46.494 2.01 1.169 3.761 4.51 3.761 8.569 0 4.058-1.751 7.383-3.76 8.552a1.07 1.07 0 0 0-.501.646 1.042 1.042 0 0 0 .111.804 1.066 1.066 0 0 0 .659.49 1.093 1.093 0 0 0 .817-.114c2.987-1.738 4.814-5.754 4.814-10.378 0-4.625-1.827-8.657-4.814-10.395a1.084 1.084 0 0 0-.619-.148Z" fill="#4F4F4F"/></svg>