<svg width="46" height="41" viewBox="0 0 46 41" fill="none" xmlns="http://www.w3.org/2000/svg">
<path d="M27.2791 0.234619L11.7006 11.2873H0V29.182H11.7006L27.2791 40.2346V0.234619ZM38.4281 5.48133C38.1964 5.4949 37.9756 5.5822 37.7987 5.73007C37.6219 5.87794 37.4988 6.07836 37.4478 6.30112C37.3969 6.52387 37.421 6.75689 37.5164 6.96502C37.6118 7.17316 37.7733 7.34513 37.9767 7.45501C41.2399 9.28306 43.8605 14.2583 43.8605 20.2346C43.8605 26.2109 41.24 31.1697 37.9767 32.9978C37.7321 33.1381 37.5539 33.368 37.4811 33.6372C37.4083 33.9065 37.4468 34.1931 37.5882 34.4345C37.7297 34.6758 37.9625 34.8523 38.2358 34.9252C38.5091 34.9981 38.8006 34.9615 39.0465 34.8234C43.2789 32.4524 46 26.7991 46 20.2346C46 13.6701 43.2789 8.00035 39.0465 5.62936C38.8604 5.51942 38.6447 5.46779 38.4281 5.48133ZM32.8452 9.69186C32.6122 9.70222 32.3891 9.7872 32.2097 9.93386C32.0304 10.0805 31.9046 10.2808 31.8516 10.5043C31.7986 10.7278 31.8213 10.9622 31.9162 11.1718C32.0111 11.3814 32.1729 11.5548 32.3772 11.6655C34.3866 12.8346 36.1381 16.1768 36.1381 20.2346C36.1381 24.2925 34.3866 27.6183 32.3772 28.7873C32.2547 28.8571 32.1474 28.9501 32.0615 29.0608C31.9756 29.1716 31.9128 29.298 31.8766 29.4327C31.8405 29.5674 31.8318 29.7078 31.851 29.8459C31.8702 29.9839 31.9169 30.1169 31.9884 30.2371C32.06 30.3573 32.155 30.4625 32.2679 30.5465C32.3809 30.6305 32.5096 30.6917 32.6467 30.7266C32.7838 30.7615 32.9265 30.7695 33.0667 30.75C33.2069 30.7304 33.3418 30.6839 33.4637 30.6129C36.4513 28.8749 38.2776 24.8589 38.2776 20.2346C38.2776 15.6103 36.4513 11.578 33.4637 9.83988C33.2775 9.72995 33.0618 9.67832 32.8452 9.69186Z" fill="#4F4F4F"/>
</svg>
