<svg width="46" height="38" fill="none" xmlns="http://www.w3.org/2000/svg"><path d="M23 .048A36.465 36.465 0 0 0 .412 7.886a1.125 1.125 0 0 0-.196 1.53 1.018 1.018 0 0 0 1.47.204A34.394 34.394 0 0 1 23 2.225c8.11 0 15.529 2.836 21.314 7.397a1.018 1.018 0 0 0 1.47-.204 1.125 1.125 0 0 0-.196-1.53A36.465 36.465 0 0 0 23 .046Zm0 10.338c-6.147 0-11.878 1.937-16.333 5.68a1.066 1.066 0 0 0-.309.319 1.115 1.115 0 0 0-.134.875c.037.147.104.285.197.404.092.118.207.216.338.285a1.013 1.013 0 0 0 1.215-.2c4.048-3.4 9.301-5.187 15.026-5.187s10.978 1.786 15.026 5.186c.104.108.228.193.365.247a1.008 1.008 0 0 0 .85-.046c.131-.07.246-.167.338-.285a1.106 1.106 0 0 0 .22-.857 1.114 1.114 0 0 0-.157-.422 1.067 1.067 0 0 0-.31-.32c-4.454-3.742-10.185-5.68-16.332-5.68Zm0 9.794c-3.753 0-7.319 1.224-10.061 3.486a1.128 1.128 0 0 0-.168 1.536 1.023 1.023 0 0 0 1.474.181c2.342-1.93 5.444-3.027 8.755-3.027 3.31 0 6.413 1.096 8.754 3.027a1.023 1.023 0 0 0 1.475-.181 1.128 1.128 0 0 0-.168-1.536C30.32 21.404 26.753 20.18 23 20.18Zm0 10.338c-1.732 0-3.136 1.462-3.136 3.265 0 1.803 1.404 3.265 3.136 3.265 1.732 0 3.136-1.462 3.136-3.265 0-1.803-1.404-3.265-3.136-3.265Z" fill="#4F4F4F"/></svg>