<svg width="50" height="41" fill="none" xmlns="http://www.w3.org/2000/svg"><path d="M49.782 38.538 38.406 23.673a18.122 18.122 0 0 0 3.733-6.209c.11-.31.197-.622.284-.934l.058-.208a1.054 1.054 0 0 0-.715-1.301 1.04 1.04 0 0 0-1.288.723l-.06.216c-.074.265-.147.53-.24.794a16.027 16.027 0 0 1-3.071 5.221l-6.424-8.394c.545-1.383.593-2.892.083-4.3A5.99 5.99 0 0 0 28.54 6.36l2.155-4.624a1.058 1.058 0 0 0-.498-1.4 1.038 1.038 0 0 0-1.387.503l-2.157 4.626a5.911 5.911 0 0 0-1.584-.226 6.1 6.1 0 0 0-5.709 8.18c.02.053.052.1.072.152L.221 38.424A1.06 1.06 0 0 0 .4 39.9a1.033 1.033 0 0 0 1.462-.18L13.19 25.063c1.716 1.508 3.65 2.68 5.79 3.446a17.957 17.957 0 0 0 6.065 1.058c4.368 0 8.574-1.61 11.844-4.434l11.244 14.692a1.036 1.036 0 0 0 1.462.189 1.06 1.06 0 0 0 .186-1.477ZM19.677 26.526c-1.926-.69-3.664-1.75-5.203-3.12L20.6 15.48a6.077 6.077 0 0 0 1.896 1.39c.812.39 1.677.579 2.562.579 1.71 0 3.313-.74 4.448-1.966l6.11 7.985c-4.233 3.706-10.282 5.082-15.94 3.057Z" fill="#4F4F4F"/></svg>