<svg width="161" height="26" fill="none" xmlns="http://www.w3.org/2000/svg"><mask id="path-1-inside-1_24223_3511" fill="#fff"><path fill-rule="evenodd" clip-rule="evenodd" d="M7.158 19.945c-2.747 0-4.625-2.317-4.625-5.332 0-3.047 1.928-5.376 4.67-5.376 1.21 0 2.483.451 3.46 1.201l1.1-1.718c-1.274-1.094-3.059-1.698-4.75-1.698C3.024 7.022 0 10.318 0 14.67c0 4.269 2.93 7.521 6.925 7.521 1.706 0 3.602-.598 4.857-1.674l-1.119-1.762c-.93.707-2.25 1.19-3.506 1.19h.001Zm18.514-8.132c0-2.656-1.797-4.59-4.887-4.59h-4.922v14.754h2.455v-5.531h2.04l2.955 5.536h2.909l-3.356-5.893c1.766-.68 2.807-2.265 2.807-4.276h-.001Zm8.39-4.59-4.98 14.748h2.563l1.157-3.705h5.296l1.17 3.705h2.696L36.916 7.226h-2.865l.011-.003Zm21.02 1.826V7.233h-9.883v2.145h6.747l-6.991 10.817v1.788h10.232v-2.17h-7.122l7.04-10.76-.023-.004Zm9.502 4.354-3.41-6.171h-2.852l4.966 8.608v6.135h2.47v-6.148l5.063-8.604h-2.67L64.587 13.4l-.002.004Zm17.15.77c1.077-.59 1.691-1.66 1.691-3.114 0-2.417-1.678-3.826-4.475-3.826h-4.638v14.746h5.416c2.742 0 4.57-1.732 4.57-4.175 0-1.868-1.091-3.199-2.592-3.63h.028Zm11.038-6.94-4.98 14.746h2.56l1.16-3.705h5.293l1.173 3.705h2.701L95.641 7.233H92.772Zm19.76 6.94c1.081-.59 1.702-1.66 1.702-3.114 0-2.417-1.665-3.826-4.475-3.826h-4.639v14.746h5.43c2.742 0 4.584-1.732 4.584-4.175 0-1.868-1.091-3.199-2.578-3.63h-.024Zm11.638-.77-3.397-6.17h-2.865l4.966 8.609v6.138h2.476v-6.152l5.048-8.595h-2.661l-3.574 6.17h.007Zm-16.593-4.008h1.883c1.378 0 2.315.554 2.315 1.91 0 1.405-.968 2.067-2.196 2.067h-2.006V9.395h.004Zm2.613 10.41h-2.615v-4.363h2.438c1.564 0 2.592.698 2.592 2.188 0 1.49-1.028 2.175-2.418 2.175h.003Zm-18.032-3.621L94.15 9.84l2.019 6.336h-4.011v.008ZM76.777 9.395h1.883c1.378 0 2.314.554 2.314 1.91 0 1.405-.97 2.067-2.192 2.067h-2.005V9.395Zm2.613 10.41h-2.606v-4.363h2.442c1.569 0 2.592.698 2.592 2.188 0 1.49-1.023 2.175-2.415 2.175h-.013Zm-45.936-3.621 1.992-6.344 2.019 6.336h-4.011v.008Zm-12.99-1.92h-2.141v-4.86h2.141c1.647 0 2.715.824 2.715 2.444 0 1.548-.968 2.414-2.715 2.414v.002Zm132.33-10.572c-1.003-.336-1.397-1.06-1.967-1.853A5.125 5.125 0 0 0 148.346 0c.472 1.503-.431 3.128-1.955 3.57a11.595 11.595 0 0 0-6.607 4.647 11.272 11.272 0 0 0-1.89 7.77 11.353 11.353 0 0 0 3.755 7.086 11.7 11.7 0 0 0 7.557 2.925 11.713 11.713 0 0 0 7.654-2.67 11.362 11.362 0 0 0 3.997-6.955 11.261 11.261 0 0 0-1.619-7.83 11.575 11.575 0 0 0-6.443-4.865l-.001.014Zm-3.381 18.298a5.263 5.263 0 0 1-3.69-1.504 5.096 5.096 0 0 1-1.528-3.63c0-1.363.55-2.669 1.528-3.632a5.263 5.263 0 0 1 3.69-1.504c1.384 0 2.712.541 3.69 1.504a5.093 5.093 0 0 1 1.529 3.631c0 1.362-.55 2.668-1.529 3.631a5.261 5.261 0 0 1-3.69 1.504Z"/></mask><path fill-rule="evenodd" clip-rule="evenodd" d="M7.158 19.945c-2.747 0-4.625-2.317-4.625-5.332 0-3.047 1.928-5.376 4.67-5.376 1.21 0 2.483.451 3.46 1.201l1.1-1.718c-1.274-1.094-3.059-1.698-4.75-1.698C3.024 7.022 0 10.318 0 14.67c0 4.269 2.93 7.521 6.925 7.521 1.706 0 3.602-.598 4.857-1.674l-1.119-1.762c-.93.707-2.25 1.19-3.506 1.19h.001Zm18.514-8.132c0-2.656-1.797-4.59-4.887-4.59h-4.922v14.754h2.455v-5.531h2.04l2.955 5.536h2.909l-3.356-5.893c1.766-.68 2.807-2.265 2.807-4.276h-.001Zm8.39-4.59-4.98 14.748h2.563l1.157-3.705h5.296l1.17 3.705h2.696L36.916 7.226h-2.865l.011-.003Zm21.02 1.826V7.233h-9.883v2.145h6.747l-6.991 10.817v1.788h10.232v-2.17h-7.122l7.04-10.76-.023-.004Zm9.502 4.354-3.41-6.171h-2.852l4.966 8.608v6.135h2.47v-6.148l5.063-8.604h-2.67L64.587 13.4l-.002.004Zm17.15.77c1.077-.59 1.691-1.66 1.691-3.114 0-2.417-1.678-3.826-4.475-3.826h-4.638v14.746h5.416c2.742 0 4.57-1.732 4.57-4.175 0-1.868-1.091-3.199-2.592-3.63h.028Zm11.038-6.94-4.98 14.746h2.56l1.16-3.705h5.293l1.173 3.705h2.701L95.641 7.233H92.772Zm19.76 6.94c1.081-.59 1.702-1.66 1.702-3.114 0-2.417-1.665-3.826-4.475-3.826h-4.639v14.746h5.43c2.742 0 4.584-1.732 4.584-4.175 0-1.868-1.091-3.199-2.578-3.63h-.024Zm11.638-.77-3.397-6.17h-2.865l4.966 8.609v6.138h2.476v-6.152l5.048-8.595h-2.661l-3.574 6.17h.007Zm-16.593-4.008h1.883c1.378 0 2.315.554 2.315 1.91 0 1.405-.968 2.067-2.196 2.067h-2.006V9.395h.004Zm2.613 10.41h-2.615v-4.363h2.438c1.564 0 2.592.698 2.592 2.188 0 1.49-1.028 2.175-2.418 2.175h.003Zm-18.032-3.621L94.15 9.84l2.019 6.336h-4.011v.008ZM76.777 9.395h1.883c1.378 0 2.314.554 2.314 1.91 0 1.405-.97 2.067-2.192 2.067h-2.005V9.395Zm2.613 10.41h-2.606v-4.363h2.442c1.569 0 2.592.698 2.592 2.188 0 1.49-1.023 2.175-2.415 2.175h-.013Zm-45.936-3.621 1.992-6.344 2.019 6.336h-4.011v.008Zm-12.99-1.92h-2.141v-4.86h2.141c1.647 0 2.715.824 2.715 2.444 0 1.548-.968 2.414-2.715 2.414v.002Zm132.33-10.572c-1.003-.336-1.397-1.06-1.967-1.853A5.125 5.125 0 0 0 148.346 0c.472 1.503-.431 3.128-1.955 3.57a11.595 11.595 0 0 0-6.607 4.647 11.272 11.272 0 0 0-1.89 7.77 11.353 11.353 0 0 0 3.755 7.086 11.7 11.7 0 0 0 7.557 2.925 11.713 11.713 0 0 0 7.654-2.67 11.362 11.362 0 0 0 3.997-6.955 11.261 11.261 0 0 0-1.619-7.83 11.575 11.575 0 0 0-6.443-4.865l-.001.014Zm-3.381 18.298a5.263 5.263 0 0 1-3.69-1.504 5.096 5.096 0 0 1-1.528-3.63c0-1.363.55-2.669 1.528-3.632a5.263 5.263 0 0 1 3.69-1.504c1.384 0 2.712.541 3.69 1.504a5.093 5.093 0 0 1 1.529 3.631c0 1.362-.55 2.668-1.529 3.631a5.261 5.261 0 0 1-3.69 1.504Z" fill="#000" stroke="#000" stroke-width="2" mask="url('#path-1-inside-1_24223_3511')"/></svg>