<svg width="44" height="48" viewBox="0 0 44 48" fill="none" xmlns="http://www.w3.org/2000/svg">
<path d="M22 12.112C15.7868 12.112 10.7313 17.4282 10.7313 23.962C10.7313 30.4957 15.7868 35.8112 22 35.8112C28.2132 35.8112 33.2687 30.4957 33.2687 23.962C33.2687 17.4282 28.2132 12.112 22 12.112Z" fill="#4F4F4F"/>
<path d="M22.0002 10.1327C22.3899 10.1327 22.7061 9.80013 22.7061 9.39033V1.56929C22.7061 1.15949 22.3899 0.826904 22.0002 0.826904C21.6105 0.826904 21.2942 1.15949 21.2942 1.56929V9.39033C21.2942 9.80013 21.6105 10.1327 22.0002 10.1327Z" fill="#4F4F4F"/>
<path d="M22.0002 37.7896C21.6105 37.7896 21.2942 38.1222 21.2942 38.532V46.3531C21.2942 46.7629 21.6105 47.0955 22.0002 47.0955C22.3899 47.0955 22.7061 46.7629 22.7061 46.3531V38.532C22.7061 38.1222 22.3899 37.7896 22.0002 37.7896Z" fill="#4F4F4F"/>
<path d="M11.7038 14.1832C11.8415 14.3279 12.0222 14.4007 12.2029 14.4007C12.3837 14.4007 12.5644 14.3279 12.7021 14.1832C12.9781 13.8929 12.9781 13.4237 12.7021 13.1334L7.44259 7.60338C7.16656 7.31311 6.72038 7.31311 6.44435 7.60338C6.16832 7.89366 6.16832 8.36285 6.44435 8.65312L11.7038 14.1832Z" fill="#4F4F4F"/>
<path d="M32.2978 33.7399C32.0217 33.4496 31.5756 33.4496 31.2995 33.7399C31.0235 34.0301 31.0235 34.4993 31.2995 34.7896L36.559 40.3196C36.6967 40.4644 36.8774 40.5372 37.0581 40.5372C37.2388 40.5372 37.4196 40.4644 37.5572 40.3196C37.8333 40.0294 37.8333 39.5602 37.5572 39.2699L32.2978 33.7399Z" fill="#4F4F4F"/>
<path d="M31.798 14.4007C31.9787 14.4007 32.1594 14.3279 32.2971 14.1832L37.5565 8.65312C37.8326 8.36285 37.8326 7.89366 37.5565 7.60338C37.2805 7.31311 36.8343 7.31311 36.5583 7.60338L31.2988 13.1334C31.0228 13.4237 31.0228 13.8929 31.2988 14.1832C31.4372 14.3279 31.6179 14.4007 31.798 14.4007Z" fill="#4F4F4F"/>
<path d="M11.7038 33.7399L6.44435 39.2699C6.16832 39.5602 6.16832 40.0294 6.44435 40.3196C6.58201 40.4644 6.76274 40.5372 6.94347 40.5372C7.1242 40.5372 7.30493 40.4644 7.44259 40.3196L12.7021 34.7896C12.9781 34.4993 12.9781 34.0301 12.7021 33.7399C12.426 33.4496 11.9791 33.4496 11.7038 33.7399Z" fill="#4F4F4F"/>
<path d="M43.294 23.2188H35.8567C35.467 23.2188 35.1507 23.5513 35.1507 23.9611C35.1507 24.3709 35.467 24.7035 35.8567 24.7035H43.294C43.6837 24.7035 44 24.3709 44 23.9611C44 23.5513 43.6837 23.2188 43.294 23.2188Z" fill="#4F4F4F"/>
<path d="M8.85003 23.9611C8.85003 23.5513 8.53376 23.2188 8.14406 23.2188H0.705969C0.316274 23.2188 0 23.5513 0 23.9611C0 24.3709 0.316274 24.7035 0.705969 24.7035H8.14335C8.53376 24.7035 8.85003 24.3717 8.85003 23.9611Z" fill="#4F4F4F"/>
</svg>
