<svg width="24" height="25" viewBox="0 0 24 25" fill="none" xmlns="http://www.w3.org/2000/svg">
<path d="M20.4213 6.93383C21.4088 6.35998 22.0626 5.57673 22.3828 4.5806C21.4809 5.04235 20.5131 5.37788 19.5095 5.57673C18.6504 4.70208 17.5626 4.25781 16.2586 4.25781C14.9839 4.25781 13.9072 4.68126 13.0284 5.505C12.6041 5.89617 12.2686 6.36524 12.0424 6.88348C11.8163 7.40172 11.7044 7.95821 11.7134 8.51885C11.7134 8.87634 11.7611 9.19566 11.8564 9.46639C8.09705 9.34491 4.98545 7.86864 2.5338 5.02718C2.11827 5.72251 1.9105 6.43056 1.9105 7.16291C1.9105 8.66809 2.58147 9.8609 3.92095 10.7367C3.1571 10.6754 2.4837 10.4926 1.9105 10.1929C1.9105 11.2678 2.24415 12.1655 2.91267 12.9557C3.56207 13.7257 4.47725 14.2545 5.49753 14.4494C5.11622 14.5419 4.71413 14.5859 4.30104 14.5859C3.91973 14.5859 3.64963 14.5558 3.48953 14.4898C3.77062 15.3657 4.30104 16.076 5.06733 16.6198C5.82487 17.1643 6.74635 17.4655 7.69741 17.4794C6.0695 18.6884 4.20816 19.2865 2.10238 19.2865C1.58663 19.2865 1.22121 19.2796 1 19.2426C3.074 20.5175 5.38265 21.1504 7.93695 21.1504C10.5511 21.1504 12.861 20.5233 14.8715 19.2692C16.8819 18.022 18.3656 16.4833 19.3189 14.6715C20.2616 12.9184 20.7524 10.9789 20.7512 9.01171V8.47026C21.6299 7.85699 22.3906 7.10519 23 6.24776C22.177 6.58543 21.3096 6.81621 20.4213 6.93383Z" fill="#4F4F4F"></path>
</svg>
