<svg width="24" height="25" fill="none" xmlns="http://www.w3.org/2000/svg"><path d="M20.421 6.934c.988-.574 1.642-1.357 1.962-2.353-.902.461-1.87.797-2.873.996-.86-.875-1.947-1.32-3.251-1.32-1.275 0-2.352.424-3.23 1.248-.425.391-.76.86-.987 1.378a3.928 3.928 0 0 0-.329 1.636c0 .357.048.677.143.947-3.759-.121-6.87-1.597-9.322-4.439-.416.696-.623 1.404-.623 2.136 0 1.505.67 2.698 2.01 3.574-.764-.062-1.437-.244-2.01-.544 0 1.075.333 1.973 1.002 2.763a4.474 4.474 0 0 0 2.585 1.493 5.079 5.079 0 0 1-1.197.137c-.381 0-.651-.03-.811-.096.28.876.811 1.586 1.577 2.13a4.627 4.627 0 0 0 2.63.86c-1.628 1.208-3.489 1.806-5.595 1.806-.515 0-.88-.006-1.102-.043 2.074 1.274 4.383 1.907 6.937 1.907 2.614 0 4.924-.627 6.934-1.88 2.01-1.248 3.495-2.787 4.448-4.598a11.924 11.924 0 0 0 1.432-5.66V8.47A9.248 9.248 0 0 0 23 6.248c-.823.337-1.69.568-2.579.686Z" fill="#4F4F4F"/></svg>