<svg width="24" height="25" viewBox="0 0 24 25" fill="none" xmlns="http://www.w3.org/2000/svg">
<path d="M20.4213 7.36889C21.4088 6.79504 22.0626 6.01179 22.3828 5.01566C21.4809 5.47741 20.5131 5.81294 19.5095 6.01179C18.6504 5.13714 17.5626 4.69287 16.2586 4.69287C14.9839 4.69287 13.9072 5.11631 13.0284 5.94006C12.6041 6.33123 12.2686 6.8003 12.0424 7.31854C11.8163 7.83678 11.7044 8.39326 11.7134 8.95391C11.7134 9.3114 11.7611 9.63072 11.8564 9.90144C8.09705 9.77997 4.98545 8.3037 2.5338 5.46224C2.11827 6.15757 1.9105 6.86562 1.9105 7.59796C1.9105 9.10315 2.58147 10.296 3.92095 11.1718C3.1571 11.1105 2.4837 10.9277 1.9105 10.628C1.9105 11.7028 2.24415 12.6006 2.91267 13.3908C3.56207 14.1608 4.47725 14.6896 5.49753 14.8844C5.11622 14.977 4.71413 15.0209 4.30104 15.0209C3.91973 15.0209 3.64963 14.9909 3.48953 14.9249C3.77062 15.8007 4.30104 16.5111 5.06733 17.0548C5.82487 17.5994 6.74635 17.9005 7.69741 17.9145C6.0695 19.1235 4.20816 19.7216 2.10238 19.7216C1.58663 19.7216 1.22121 19.7147 1 19.6776C3.074 20.9526 5.38265 21.5854 7.93695 21.5854C10.5511 21.5854 12.861 20.9584 14.8715 19.7043C16.8819 18.4571 18.3656 16.9183 19.3189 15.1065C20.2616 13.3534 20.7524 11.4139 20.7512 9.44676V8.90531C21.6299 8.29204 22.3906 7.54025 23 6.68282C22.177 7.02049 21.3096 7.25127 20.4213 7.36889Z" fill="#4F4F4F"/>
</svg>
