<svg width="18" height="19" viewBox="0 0 18 19" fill="none" xmlns="http://www.w3.org/2000/svg">
<path d="M15 0.914062H3C1.3 0.914062 0 2.19661 0 3.87378V15.7126C0 17.3898 1.3 18.6724 3 18.6724H15C16.7 18.6724 18 17.3898 18 15.7126V3.87378C18 2.19661 16.7 0.914062 15 0.914062ZM9 6.8335C10.7 6.8335 12 8.11604 12 9.79321C12 11.4704 10.7 12.7529 9 12.7529C7.3 12.7529 6 11.4704 6 9.79321C6 8.11604 7.3 6.8335 9 6.8335ZM12.8 4.86035C12.8 4.16975 13.4 3.67647 14 3.67647C14.6 3.67647 15.2 4.26841 15.2 4.86035C15.2 5.45229 14.7 6.04424 14 6.04424C13.3 6.04424 12.8 5.55095 12.8 4.86035ZM15 16.6992H3C2.4 16.6992 2 16.3046 2 15.7126V9.79321H4C4 12.5556 6.2 14.7261 9 14.7261C11.8 14.7261 14 12.5556 14 9.79321H16V15.7126C16 16.3046 15.6 16.6992 15 16.6992Z" fill="#4F4F4F"/>
</svg>
