<?xml version="1.0" standalone="no"?>
<!DOCTYPE svg PUBLIC "-//W3C//DTD SVG 20010904//EN"
 "http://www.w3.org/TR/2001/REC-SVG-20010904/DTD/svg10.dtd">
<svg version="1.0" xmlns="http://www.w3.org/2000/svg"
 width="225.000000pt" height="225.000000pt" viewBox="0 0 225.000000 225.000000"
 preserveAspectRatio="xMidYMid meet">
<metadata>
Created by potrace 1.14, written by Peter Selinger 2001-2017
</metadata>
<g transform="translate(0.000000,225.000000) scale(0.100000,-0.100000)"
fill="#000000" stroke="none">
<path d="M1080 1795 c0 -73 -35 -113 -131 -148 -96 -34 -156 -72 -224 -141
-106 -108 -159 -238 -159 -391 0 -253 164 -469 409 -541 80 -23 220 -23 300 0
188 55 336 203 390 391 23 79 23 221 0 300 -44 154 -153 285 -291 349 -43 21
-90 43 -104 49 -13 7 -42 36 -65 65 -34 45 -101 102 -119 102 -4 0 -6 -16 -6
-35z m157 -567 c89 -42 153 -158 139 -256 -13 -97 -91 -189 -181 -213 -51 -14
-142 -6 -184 15 -90 47 -148 153 -138 251 8 81 42 135 120 195 55 41 167 45
244 8z"/>
</g>
</svg>
