<svg width="46" height="38" viewBox="0 0 46 38" fill="none" xmlns="http://www.w3.org/2000/svg">
<path d="M23 0.482422C14.4222 0.482422 6.55119 3.48122 0.411638 8.32112C0.190719 8.49699 0.0459588 8.75703 0.00920269 9.04402C-0.0275534 9.33102 0.0467058 9.62146 0.215644 9.85145C0.384582 10.0814 0.634361 10.2321 0.910032 10.2704C1.1857 10.3087 1.46468 10.2314 1.6856 10.0555C7.47142 5.49446 14.8902 2.65889 23 2.65889C31.1098 2.65889 38.5286 5.49446 44.3144 10.0555C44.5353 10.2314 44.8143 10.3087 45.09 10.2704C45.3656 10.2321 45.6154 10.0814 45.7844 9.85145C45.9533 9.62146 46.0276 9.33102 45.9908 9.04402C45.954 8.75703 45.8093 8.49699 45.5884 8.32112C39.4488 3.48122 31.5778 0.482422 23 0.482422ZM23 10.8207C16.8533 10.8207 11.1223 12.7577 6.66713 16.4999C6.54386 16.5827 6.4387 16.6915 6.35848 16.8194C6.27827 16.9472 6.22481 17.0912 6.20156 17.242C6.17831 17.3928 6.1858 17.547 6.22355 17.6945C6.26129 17.8421 6.32844 17.9798 6.42064 18.0985C6.51284 18.2173 6.62801 18.3146 6.75868 18.384C6.88934 18.4534 7.03257 18.4934 7.17906 18.5014C7.32555 18.5093 7.47201 18.4851 7.60893 18.4303C7.74584 18.3755 7.87015 18.2913 7.97376 18.1833C12.0217 14.7831 17.2751 12.9971 23 12.9971C28.7249 12.9971 33.9783 14.7831 38.0262 18.1833C38.1299 18.2913 38.2542 18.3755 38.3911 18.4303C38.528 18.4851 38.6745 18.5093 38.8209 18.5014C38.9674 18.4934 39.1107 18.4534 39.2413 18.384C39.372 18.3146 39.4872 18.2173 39.5794 18.0985C39.6716 17.9798 39.7387 17.8421 39.7765 17.6945C39.8142 17.547 39.8217 17.3928 39.7984 17.242C39.7752 17.0912 39.7217 16.9472 39.6415 16.8194C39.5613 16.6915 39.4561 16.5827 39.3329 16.4999C34.8777 12.7577 29.1467 10.8207 23 10.8207ZM23 20.6148C19.2465 20.6148 15.6812 21.8385 12.939 24.1005C12.7216 24.2814 12.5819 24.5445 12.5504 24.8324C12.519 25.1202 12.5983 25.4093 12.7711 25.6364C12.9439 25.8634 13.196 26.01 13.4723 26.0441C13.7487 26.0781 14.0267 25.9968 14.2456 25.8179C16.5865 23.8869 19.6893 22.7912 23 22.7912C26.3107 22.7912 29.4135 23.8869 31.7544 25.8179C31.9733 25.9968 32.2513 26.0781 32.5277 26.0441C32.804 26.01 33.0561 25.8634 33.2289 25.6364C33.4017 25.4093 33.481 25.1202 33.4496 24.8324C33.4181 24.5445 33.2784 24.2814 33.0611 24.1005C30.3188 21.8385 26.7535 20.6148 23 20.6148ZM23 30.953C21.2681 30.953 19.8641 32.4147 19.8641 34.2177C19.8641 36.0208 21.2681 37.4824 23 37.4824C24.7319 37.4824 26.1359 36.0208 26.1359 34.2177C26.1359 32.4147 24.7319 30.953 23 30.953Z" fill="#4F4F4F"/>
</svg>
