<?xml version="1.0" standalone="no"?>
<!DOCTYPE svg PUBLIC "-//W3C//DTD SVG 20010904//EN"
 "http://www.w3.org/TR/2001/REC-SVG-20010904/DTD/svg10.dtd">
<svg version="1.0" xmlns="http://www.w3.org/2000/svg"
 width="700.000000pt" height="700.000000pt" viewBox="0 0 700.000000 700.000000"
 preserveAspectRatio="xMidYMid meet">
<metadata>
Created by potrace 1.14, written by Peter Selinger 2001-2017
</metadata>
<g transform="translate(0.000000,700.000000) scale(0.100000,-0.100000)"
fill="#000000" stroke="none">
<path d="M3210 6749 c74 -259 -37 -583 -259 -753 -105 -81 -151 -101 -416
-182 -190 -58 -521 -209 -645 -294 -14 -9 -30 -19 -35 -21 -24 -9 -198 -134
-300 -216 -127 -102 -323 -295 -410 -403 -33 -41 -68 -84 -78 -95 -26 -28
-187 -270 -187 -280 0 -5 -6 -16 -14 -24 -45 -53 -204 -405 -259 -576 -30 -91
-83 -306 -92 -368 -3 -23 -8 -55 -11 -72 -24 -141 -32 -263 -29 -475 1 -129 5
-253 9 -275 3 -22 11 -71 16 -110 6 -38 13 -86 16 -105 7 -45 60 -260 80 -325
60 -192 181 -465 275 -621 203 -337 437 -598 779 -867 135 -106 431 -277 625
-359 189 -81 465 -163 645 -193 19 -3 58 -10 85 -15 109 -20 303 -34 475 -34
124 0 338 12 350 19 3 1 34 6 69 9 36 4 67 8 70 10 3 2 28 7 55 10 27 4 79 14
115 22 36 9 73 17 81 19 135 27 511 167 632 235 10 6 46 25 80 43 144 77 331
201 473 316 76 61 345 326 385 379 14 18 33 43 44 55 70 83 226 308 226 326 0
5 3 11 8 13 11 5 46 70 121 223 150 305 243 635 279 980 12 116 8 512 -7 619
-64 480 -214 882 -476 1274 -177 266 -428 531 -679 716 -94 70 -250 174 -278
186 -13 6 -39 20 -58 32 -41 25 -227 118 -285 143 -79 33 -281 106 -308 111
-39 6 -143 55 -195 91 -77 53 -157 140 -270 296 -141 195 -219 279 -346 374
-88 65 -276 169 -343 188 -20 6 -21 4 -13 -26z m375 -2993 c392 -23 778 -242
1011 -573 81 -117 174 -323 200 -443 26 -125 32 -199 29 -330 -4 -154 -4 -159
-36 -288 -114 -461 -487 -835 -957 -957 -50 -14 -113 -27 -140 -30 -26 -4 -58
-8 -72 -11 -37 -7 -259 -6 -305 1 -59 9 -77 12 -105 19 -14 3 -36 8 -50 10
-49 9 -166 49 -245 84 -379 171 -650 492 -751 891 -42 164 -50 383 -19 531 33
160 72 274 133 391 71 138 227 323 352 419 171 132 388 232 575 265 17 2 41 7
55 10 14 3 66 8 115 11 50 4 92 8 93 10 2 1 9 1 15 -1 7 -2 53 -6 102 -9z"/>
</g>
</svg>
