<?xml version="1.0" standalone="no"?>
<!DOCTYPE svg PUBLIC "-//W3C//DTD SVG 20010904//EN"
 "http://www.w3.org/TR/2001/REC-SVG-20010904/DTD/svg10.dtd">
<svg version="1.0" xmlns="http://www.w3.org/2000/svg"
 width="74.000000pt" height="74.000000pt" viewBox="0 0 74.000000 74.000000"
 preserveAspectRatio="xMidYMid meet">
<metadata>
Created by potrace 1.14, written by Peter Selinger 2001-2017
</metadata>
<g transform="translate(0.000000,74.000000) scale(0.100000,-0.100000)"
fill="#000000" stroke="none">
<path d="M355 532 c-6 -12 -30 -32 -55 -45 -111 -58 -119 -195 -16 -271 39
-29 133 -29 172 0 52 38 69 71 69 132 0 68 -24 108 -81 138 -21 10 -47 30 -59
43 -21 23 -21 23 -30 3z m59 -163 c30 -24 34 -63 10 -97 -21 -31 -87 -31 -108
0 -24 34 -20 73 10 97 15 12 34 21 44 21 10 0 29 -9 44 -21z"/>
</g>
</svg>
