<?xml version="1.0" standalone="no"?>
<!DOCTYPE svg PUBLIC "-//W3C//DTD SVG 20010904//EN"
 "http://www.w3.org/TR/2001/REC-SVG-20010904/DTD/svg10.dtd">
<svg version="1.0" xmlns="http://www.w3.org/2000/svg"
 width="700.000000pt" height="700.000000pt" viewBox="0 0 700.000000 700.000000"
 preserveAspectRatio="xMidYMid meet">
<metadata>
Created by potrace 1.14, written by Peter Selinger 2001-2017
</metadata>
<g transform="translate(0.000000,700.000000) scale(0.100000,-0.100000)"
fill="#000000" stroke="none">
<path d="M3308 5418 c-9 -7 -38 -56 -64 -108 -41 -81 -62 -109 -144 -190 -119
-117 -254 -214 -469 -337 -253 -144 -327 -199 -487 -358 -282 -281 -440 -609
-479 -1000 -11 -109 -5 -336 10 -395 3 -8 7 -31 10 -50 3 -19 11 -53 16 -75 6
-22 12 -47 14 -56 2 -9 17 -58 34 -109 96 -284 274 -548 532 -785 175 -162
316 -243 518 -300 102 -28 228 -52 314 -61 34 -3 78 -8 97 -10 44 -6 311 -5
365 1 22 2 66 7 98 10 33 3 96 13 140 21 45 9 91 18 102 20 52 9 208 65 279
99 124 60 303 201 447 351 279 290 414 587 464 1019 7 53 7 293 1 335 -2 14
-7 50 -11 80 -50 391 -277 782 -605 1047 -67 54 -242 173 -255 173 -11 0 -207
118 -280 168 -161 111 -253 189 -390 326 -197 199 -218 214 -257 184z m197
-1721 c159 -59 354 -182 446 -280 140 -151 201 -311 195 -517 -3 -97 -8 -130
-34 -210 -60 -182 -182 -354 -296 -420 -53 -30 -159 -62 -246 -74 -86 -12
-287 -7 -375 8 -126 23 -276 99 -366 186 -99 96 -174 261 -195 430 -25 196 7
325 122 490 130 187 345 349 524 394 66 16 170 13 225 -7z"/>
</g>
</svg>
