<svg width="6" height="7" viewBox="0 0 6 7" fill="none" xmlns="http://www.w3.org/2000/svg">
<g id="bullet">
<path id="Vector" d="M3.04522 1.63845C2.77888 1.63243 2.51402 1.67968 2.26619 1.77742C2.01836 1.87517 1.79256 2.02144 1.60204 2.20765C1.41152 2.39387 1.26013 2.61627 1.15674 2.86179C1.05336 3.10732 1.00007 3.37103 1 3.63744C0.999933 3.90385 1.05309 4.16758 1.15635 4.41316C1.25962 4.65874 1.4109 4.88122 1.60133 5.06753C1.79175 5.25383 2.01748 5.40022 2.26526 5.49809C2.51304 5.59596 2.77787 5.64334 3.04422 5.63745C3.56678 5.6259 4.06405 5.41023 4.42959 5.03661C4.79512 4.663 4.99987 4.16113 5 3.63844C5.00013 3.11575 4.79563 2.61378 4.43029 2.23998C4.06494 1.86619 3.56777 1.65027 3.04522 1.63845Z" fill="black"/>
</g>
</svg>
