<svg width="4" height="5" viewBox="0 0 4 5" fill="none" xmlns="http://www.w3.org/2000/svg">
<path d="M2.04522 0.638451C1.77888 0.632428 1.51402 0.679676 1.26619 0.777422C1.01836 0.875168 0.792561 1.02144 0.602042 1.20765C0.411523 1.39387 0.260127 1.61627 0.156742 1.86179C0.053357 2.10732 6.6681e-05 2.37103 6.25376e-08 2.63744C-6.65559e-05 2.90385 0.0530916 3.16758 0.156354 3.41316C0.259616 3.65874 0.410902 3.88122 0.601328 4.06753C0.791754 4.25383 1.01748 4.40022 1.26526 4.49809C1.51304 4.59596 1.77787 4.64334 2.04422 4.63745C2.56678 4.6259 3.06405 4.41023 3.42959 4.03661C3.79512 3.663 3.99987 3.16113 4 2.63844C4.00013 2.11575 3.79563 1.61378 3.43029 1.23998C3.06494 0.866185 2.56777 0.650268 2.04522 0.638451Z" fill="black"/>
</svg>
