<svg width="800" height="270" viewBox="0 0 800 270" fill="none" xmlns="http://www.w3.org/2000/svg">
<rect width="800" height="270" fill="white"/>
<path d="M147.782 132.453L136.406 116.754C138.008 114.909 139.297 112.705 140.139 110.197C140.248 109.869 140.336 109.539 140.423 109.21L140.481 108.991C140.64 108.401 140.32 107.785 139.766 107.616C139.215 107.446 138.636 107.788 138.478 108.379L138.418 108.607C138.344 108.888 138.271 109.168 138.177 109.446C137.474 111.539 136.414 113.387 135.107 114.961L128.683 106.095C129.228 104.635 129.275 103.041 128.766 101.555C128.343 100.287 127.563 99.2265 126.54 98.4687L128.695 93.5858C128.94 93.0305 128.717 92.3677 128.197 92.1061C127.678 91.845 127.055 92.0822 126.81 92.6381L124.653 97.5244C124.137 97.3729 123.607 97.2855 123.068 97.2855C120.725 97.2855 118.568 98.7419 117.569 100.999C116.881 102.555 116.808 104.3 117.36 105.923C117.379 105.981 117.411 106.029 117.432 106.085L98.2207 132.332C97.8667 132.816 97.9471 133.514 98.4003 133.892C98.591 134.051 98.8168 134.128 99.0411 134.128C99.3504 134.128 99.6571 133.981 99.8626 133.701L111.191 118.223C112.907 119.816 114.841 121.054 116.981 121.863C118.984 122.62 121.032 122.98 123.046 122.98C127.414 122.98 131.62 121.28 134.89 118.297L146.134 133.814C146.34 134.097 146.647 134.245 146.959 134.245C147.182 134.245 147.406 134.169 147.596 134.013C148.051 133.637 148.134 132.939 147.782 132.453ZM117.677 119.767C115.751 119.039 114.013 117.918 112.474 116.471L118.6 108.102C119.127 108.708 119.766 109.208 120.496 109.57C121.308 109.981 122.173 110.181 123.058 110.181C124.767 110.181 126.371 109.4 127.505 108.105L133.617 116.539C129.382 120.453 123.334 121.906 117.677 119.767Z" fill="#4F4F4F"/>
<path d="M245.279 91.7979L229.701 103.471H218V122.37H229.701L245.279 134.043V91.7979ZM256.428 97.339C256.196 97.3534 255.976 97.4456 255.799 97.6017C255.622 97.7579 255.499 97.9696 255.448 98.2048C255.397 98.4401 255.421 98.6862 255.516 98.906C255.612 99.1258 255.773 99.3075 255.977 99.4235C259.24 101.354 261.86 106.609 261.86 112.92C261.86 119.232 259.24 124.469 255.977 126.4C255.732 126.548 255.554 126.791 255.481 127.075C255.408 127.36 255.447 127.662 255.588 127.917C255.73 128.172 255.962 128.358 256.236 128.435C256.509 128.512 256.801 128.474 257.047 128.328C261.279 125.824 264 119.853 264 112.92C264 105.987 261.279 99.9994 257.047 97.4954C256.86 97.3793 256.645 97.3247 256.428 97.339ZM250.845 101.786C250.612 101.797 250.389 101.887 250.21 102.041C250.03 102.196 249.905 102.408 249.852 102.644C249.799 102.88 249.821 103.127 249.916 103.349C250.011 103.57 250.173 103.753 250.377 103.87C252.387 105.105 254.138 108.635 254.138 112.92C254.138 117.206 252.387 120.718 250.377 121.953C250.255 122.027 250.147 122.125 250.061 122.242C249.976 122.359 249.913 122.492 249.877 122.635C249.841 122.777 249.832 122.925 249.851 123.071C249.87 123.217 249.917 123.357 249.988 123.484C250.06 123.611 250.155 123.722 250.268 123.811C250.381 123.9 250.51 123.964 250.647 124.001C250.784 124.038 250.927 124.047 251.067 124.026C251.207 124.005 251.342 123.956 251.464 123.881C254.451 122.046 256.278 117.804 256.278 112.92C256.278 108.037 254.451 103.778 251.464 101.942C251.278 101.826 251.062 101.772 250.845 101.786Z" fill="#4F4F4F"/>
<path d="M359 93.7686C350.422 93.7686 342.551 96.8664 336.412 101.866C336.191 102.048 336.046 102.316 336.009 102.613C335.972 102.909 336.047 103.209 336.216 103.447C336.385 103.685 336.634 103.84 336.91 103.88C337.186 103.919 337.465 103.839 337.686 103.658C343.471 98.9461 350.89 96.0169 359 96.0169C367.11 96.0169 374.529 98.9461 380.314 103.658C380.535 103.839 380.814 103.919 381.09 103.88C381.366 103.84 381.615 103.685 381.784 103.447C381.953 103.209 382.028 102.909 381.991 102.613C381.954 102.316 381.809 102.048 381.588 101.866C375.449 96.8664 367.578 93.7686 359 93.7686ZM359 104.448C352.853 104.448 347.122 106.449 342.667 110.315C342.544 110.4 342.439 110.513 342.358 110.645C342.278 110.777 342.225 110.926 342.202 111.081C342.178 111.237 342.186 111.397 342.224 111.549C342.261 111.701 342.328 111.844 342.421 111.966C342.513 112.089 342.628 112.189 342.759 112.261C342.889 112.333 343.033 112.374 343.179 112.382C343.326 112.391 343.472 112.366 343.609 112.309C343.746 112.252 343.87 112.165 343.974 112.054C348.022 108.541 353.275 106.696 359 106.696C364.725 106.696 369.978 108.541 374.026 112.054C374.13 112.165 374.254 112.252 374.391 112.309C374.528 112.366 374.674 112.391 374.821 112.382C374.967 112.374 375.111 112.333 375.241 112.261C375.372 112.189 375.487 112.089 375.579 111.966C375.672 111.844 375.739 111.701 375.776 111.549C375.814 111.397 375.822 111.237 375.798 111.081C375.775 110.926 375.722 110.777 375.642 110.645C375.561 110.513 375.456 110.4 375.333 110.315C370.878 106.449 365.147 104.448 359 104.448ZM359 114.566C355.247 114.566 351.681 115.83 348.939 118.166C348.722 118.353 348.582 118.625 348.55 118.922C348.519 119.22 348.598 119.518 348.771 119.753C348.944 119.988 349.196 120.139 349.472 120.174C349.749 120.209 350.027 120.125 350.246 119.941C352.587 117.946 355.689 116.814 359 116.814C362.311 116.814 365.413 117.946 367.754 119.941C367.973 120.125 368.251 120.209 368.528 120.174C368.804 120.139 369.056 119.988 369.229 119.753C369.402 119.518 369.481 119.22 369.45 118.922C369.418 118.625 369.278 118.353 369.061 118.166C366.319 115.83 362.753 114.566 359 114.566ZM359 125.245C357.268 125.245 355.864 126.755 355.864 128.618C355.864 130.48 357.268 131.99 359 131.99C360.732 131.99 362.136 130.48 362.136 128.618C362.136 126.755 360.732 125.245 359 125.245Z" fill="#4F4F4F"/>
<path d="M477 101.112C470.787 101.112 465.731 106.428 465.731 112.962C465.731 119.496 470.787 124.811 477 124.811C483.213 124.811 488.269 119.496 488.269 112.962C488.269 106.428 483.213 101.112 477 101.112Z" fill="#4F4F4F"/>
<path d="M477 99.1327C477.39 99.1327 477.706 98.8001 477.706 98.3903V90.5693C477.706 90.1595 477.39 89.8269 477 89.8269C476.61 89.8269 476.294 90.1595 476.294 90.5693V98.3903C476.294 98.8001 476.61 99.1327 477 99.1327Z" fill="#4F4F4F"/>
<path d="M477 126.79C476.61 126.79 476.294 127.122 476.294 127.532V135.353C476.294 135.763 476.61 136.095 477 136.095C477.39 136.095 477.706 135.763 477.706 135.353V127.532C477.706 127.122 477.39 126.79 477 126.79Z" fill="#4F4F4F"/>
<path d="M466.704 103.183C466.841 103.328 467.022 103.401 467.203 103.401C467.384 103.401 467.564 103.328 467.702 103.183C467.978 102.893 467.978 102.424 467.702 102.133L462.443 96.6034C462.167 96.3131 461.72 96.3131 461.444 96.6034C461.168 96.8937 461.168 97.3628 461.444 97.6531L466.704 103.183Z" fill="#4F4F4F"/>
<path d="M487.298 122.74C487.022 122.45 486.576 122.45 486.3 122.74C486.023 123.03 486.023 123.499 486.3 123.79L491.559 129.32C491.697 129.464 491.877 129.537 492.058 129.537C492.239 129.537 492.42 129.464 492.557 129.32C492.833 129.029 492.833 128.56 492.557 128.27L487.298 122.74Z" fill="#4F4F4F"/>
<path d="M486.798 103.401C486.979 103.401 487.159 103.328 487.297 103.183L492.557 97.6531C492.833 97.3628 492.833 96.8937 492.557 96.6034C492.281 96.3131 491.834 96.3131 491.558 96.6034L486.299 102.133C486.023 102.424 486.023 102.893 486.299 103.183C486.437 103.328 486.618 103.401 486.798 103.401Z" fill="#4F4F4F"/>
<path d="M466.704 122.74L461.444 128.27C461.168 128.56 461.168 129.029 461.444 129.32C461.582 129.464 461.763 129.537 461.943 129.537C462.124 129.537 462.305 129.464 462.443 129.32L467.702 123.79C467.978 123.499 467.978 123.03 467.702 122.74C467.426 122.45 466.979 122.45 466.704 122.74Z" fill="#4F4F4F"/>
<path d="M498.294 112.219H490.857C490.467 112.219 490.151 112.551 490.151 112.961C490.151 113.371 490.467 113.704 490.857 113.704H498.294C498.684 113.704 499 113.371 499 112.961C499 112.551 498.684 112.219 498.294 112.219Z" fill="#4F4F4F"/>
<path d="M463.85 112.961C463.85 112.551 463.534 112.219 463.144 112.219H455.706C455.316 112.219 455 112.551 455 112.961C455 113.371 455.316 113.704 455.706 113.704H463.143C463.534 113.704 463.85 113.372 463.85 112.961Z" fill="#4F4F4F"/>
<path d="M706 91H694C692.3 91 691 92.2918 691 93.981V105.905C691 107.594 692.3 108.886 694 108.886H706C707.7 108.886 709 107.594 709 105.905V93.981C709 92.2918 707.7 91 706 91ZM700 96.9621C701.7 96.9621 703 98.2539 703 99.9431C703 101.632 701.7 102.924 700 102.924C698.3 102.924 697 101.632 697 99.9431C697 98.2539 698.3 96.9621 700 96.9621ZM703.8 94.9747C703.8 94.2791 704.4 93.7823 705 93.7823C705.6 93.7823 706.2 94.3785 706.2 94.9747C706.2 95.5709 705.7 96.1671 705 96.1671C704.3 96.1671 703.8 95.6703 703.8 94.9747ZM706 106.899H694C693.4 106.899 693 106.501 693 105.905V99.9431H695C695 102.725 697.2 104.912 700 104.912C702.8 104.912 705 102.725 705 99.9431H707V105.905C707 106.501 706.6 106.899 706 106.899Z" fill="#4F4F4F"/>
<path d="M644.421 94.676C645.409 94.1022 646.063 93.3189 646.383 92.3228C645.481 92.7845 644.513 93.1201 643.51 93.3189C642.65 92.4443 641.563 92 640.259 92C638.984 92 637.907 92.4234 637.028 93.2472C636.604 93.6384 636.269 94.1074 636.042 94.6257C635.816 95.1439 635.704 95.7004 635.713 96.261C635.713 96.6185 635.761 96.9378 635.856 97.2086C632.097 97.0871 628.985 95.6108 626.534 92.7694C626.118 93.4647 625.911 94.1727 625.911 94.9051C625.911 96.4103 626.581 97.6031 627.921 98.4789C627.157 98.4176 626.484 98.2348 625.911 97.9351C625.911 99.0099 626.244 99.9077 626.913 100.698C627.562 101.468 628.477 101.997 629.498 102.192C629.116 102.284 628.714 102.328 628.301 102.328C627.92 102.328 627.65 102.298 627.49 102.232C627.771 103.108 628.301 103.818 629.067 104.362C629.825 104.906 630.746 105.208 631.697 105.222C630.069 106.431 628.208 107.029 626.102 107.029C625.587 107.029 625.221 107.022 625 106.985C627.074 108.26 629.383 108.893 631.937 108.893C634.551 108.893 636.861 108.266 638.871 107.011C640.882 105.764 642.366 104.225 643.319 102.414C644.262 100.661 644.752 98.7211 644.751 96.7539V96.2124C645.63 95.5992 646.391 94.8474 647 93.9899C646.177 94.3276 645.31 94.5584 644.421 94.676Z" fill="#4F4F4F"/>
<path d="M573.333 98.0798H577V101.62H573.333V109.879H569.667V101.62H566V98.0798H569.667V96.5989C569.667 95.1959 570.124 93.4236 571.033 92.4549C571.942 91.4838 573.078 91 574.438 91H577V94.5399H574.433C573.825 94.5399 573.333 95.0142 573.333 95.6007V98.0798Z" fill="#4F4F4F"/>
</svg>
