<svg width="18" height="11" viewBox="0 0 18 11" fill="none" xmlns="http://www.w3.org/2000/svg">
<path d="M0.123867 0.673433V7.07143C0.123867 7.58477 0.193867 8.07477 0.333867 8.54143C0.483201 8.99877 0.711867 9.4001 1.01987 9.74543C1.3372 10.0908 1.73853 10.3661 2.22387 10.5714C2.71853 10.7674 3.3112 10.8654 4.00187 10.8654C4.70187 10.8654 5.29453 10.7674 5.77987 10.5714C6.27453 10.3661 6.67587 10.0908 6.98387 9.74543C7.3012 9.4001 7.52987 8.99877 7.66987 8.54143C7.8192 8.07477 7.89387 7.58477 7.89387 7.07143V0.673433H6.94187V6.86143C6.94187 7.4401 6.87653 7.93477 6.74587 8.34543C6.6152 8.74677 6.42387 9.0781 6.17187 9.33943C5.91987 9.59143 5.61187 9.7781 5.24787 9.89943C4.88387 10.0114 4.46853 10.0674 4.00187 10.0674C3.54453 10.0674 3.13387 10.0114 2.76987 9.89943C2.40587 9.7781 2.09787 9.59143 1.84587 9.33943C1.59387 9.0781 1.40253 8.74677 1.27187 8.34543C1.1412 7.93477 1.07587 7.4401 1.07587 6.86143V0.673433H0.123867ZM11.2199 6.74943L13.2219 1.62543L15.1539 6.74943H11.2199ZM12.7319 0.673433L8.71385 10.6694H9.72185L10.9259 7.56143H15.4759L16.6939 10.6694H17.7159L13.7959 0.673433H12.7319Z" fill="#828282"/>
</svg>
