<svg width="46" height="44" viewBox="0 0 46 44" fill="none" xmlns="http://www.w3.org/2000/svg">
<path d="M27.2791 0.797852L11.7006 12.4708H0V31.3699H11.7006L27.2791 43.0429V0.797852ZM38.4281 6.33904C38.1964 6.35337 37.9756 6.44557 37.7987 6.60174C37.6219 6.75791 37.4988 6.96958 37.4478 7.20484C37.3969 7.4401 37.421 7.68619 37.5164 7.90601C37.6118 8.12582 37.7733 8.30745 37.9767 8.4235C41.2399 10.3541 43.8605 15.6086 43.8605 21.9204C43.8605 28.2321 41.24 33.4692 37.9767 35.3999C37.7321 35.548 37.5539 35.7909 37.4811 36.0752C37.4083 36.3596 37.4468 36.6623 37.5882 36.9172C37.7297 37.1721 37.9625 37.3585 38.2358 37.4354C38.5091 37.5124 38.8006 37.4738 39.0465 37.328C43.2789 34.8239 46 28.8533 46 21.9204C46 14.9874 43.2789 8.99944 39.0465 6.49538C38.8604 6.37927 38.6447 6.32474 38.4281 6.33904ZM32.8452 10.7859C32.6122 10.7968 32.3891 10.8866 32.2097 11.0415C32.0304 11.1964 31.9046 11.4079 31.8516 11.6439C31.7986 11.88 31.8213 12.1275 31.9162 12.3489C32.0111 12.5703 32.1729 12.7534 32.3772 12.8703C34.3866 14.105 36.1381 17.6348 36.1381 21.9204C36.1381 26.206 34.3866 29.7184 32.3772 30.953C32.2547 31.0268 32.1474 31.125 32.0615 31.242C31.9756 31.359 31.9128 31.4924 31.8766 31.6347C31.8405 31.777 31.8318 31.9253 31.851 32.0711C31.8702 32.2169 31.9169 32.3573 31.9884 32.4843C32.06 32.6112 32.155 32.7223 32.2679 32.811C32.3809 32.8997 32.5096 32.9644 32.6467 33.0013C32.7838 33.0381 32.9265 33.0465 33.0667 33.0259C33.2069 33.0053 33.3418 32.9561 33.4637 32.8812C36.4513 31.0456 38.2776 26.8042 38.2776 21.9204C38.2776 17.0366 36.4513 12.7778 33.4637 10.9422C33.2775 10.8261 33.0618 10.7716 32.8452 10.7859Z" fill="#4F4F4F"/>
</svg>
