<svg width="93" height="43" viewBox="0 0 93 43" fill="none" xmlns="http://www.w3.org/2000/svg">
<path d="M45 13H92.6707V12H45V13Z" fill="#333333"/>
<path d="M74.7978 1.19533L92.5595 12.9999L93 11.8045L75.2384 0L74.7978 1.19533Z" fill="#333333"/>
<path d="M48 2L0.329261 2L0.329261 3L48 3V2Z" fill="#BDBDBD"/>
<path d="M18.2022 13.8047L0.440509 2.00015L0 3.19548L17.7616 15L18.2022 13.8047Z" fill="#BDBDBD"/>
<path d="M48.916 30.3539L45.781 39.8139H45L48.135 30.3539H48.916Z" fill="#BDBDBD"/>
<path d="M31.296 35.96C31.296 36.888 30.9973 37.6453 30.4 38.232C29.8133 38.808 29.072 39.096 28.176 39.096C27.2693 39.096 26.5227 38.808 25.936 38.232C25.3493 37.656 25.056 36.8987 25.056 35.96V30.648C25.056 29.7093 25.3493 28.952 25.936 28.376C26.5227 27.8 27.2693 27.512 28.176 27.512C29.072 27.512 29.8133 27.8053 30.4 28.392C30.9973 28.968 31.296 29.72 31.296 30.648V35.96ZM30.144 35.896V30.712C30.144 30.072 29.968 29.5493 29.616 29.144C29.2747 28.7387 28.7947 28.536 28.176 28.536C27.5573 28.536 27.072 28.7387 26.72 29.144C26.3787 29.5493 26.208 30.072 26.208 30.712V35.896C26.208 36.536 26.3787 37.0587 26.72 37.464C27.072 37.8693 27.5573 38.072 28.176 38.072C28.7947 38.072 29.2747 37.8693 29.616 37.464C29.968 37.0587 30.144 36.536 30.144 35.896ZM37.6394 39H36.4874V28.888L34.3594 30.76V29.448L36.4874 27.608H37.6394V39Z" fill="#333333"/>
<path d="M58.016 36.9099C58.016 37.5479 57.8107 38.0685 57.4 38.4719C56.9967 38.8679 56.487 39.0659 55.871 39.0659C55.2477 39.0659 54.7343 38.8679 54.331 38.4719C53.9277 38.0759 53.726 37.5552 53.726 36.9099V33.2579C53.726 32.6125 53.9277 32.0919 54.331 31.6959C54.7343 31.2999 55.2477 31.1019 55.871 31.1019C56.487 31.1019 56.9967 31.3035 57.4 31.7069C57.8107 32.1029 58.016 32.6199 58.016 33.2579V36.9099ZM57.224 36.8659V33.3019C57.224 32.8619 57.103 32.5025 56.861 32.2239C56.6263 31.9452 56.2963 31.8059 55.871 31.8059C55.4457 31.8059 55.112 31.9452 54.87 32.2239C54.6353 32.5025 54.518 32.8619 54.518 33.3019V36.8659C54.518 37.3059 54.6353 37.6652 54.87 37.9439C55.112 38.2225 55.4457 38.3619 55.871 38.3619C56.2963 38.3619 56.6263 38.2225 56.861 37.9439C57.103 37.6652 57.224 37.3059 57.224 36.8659ZM63.8181 38.9999H59.4951V38.2959L62.5861 34.3689C62.8794 33.9875 63.0261 33.6025 63.0261 33.2139C63.0261 32.7885 62.9051 32.4475 62.6631 32.1909C62.4211 31.9342 62.0874 31.8059 61.6621 31.8059C61.2661 31.8059 60.9397 31.9232 60.6831 32.1579C60.4264 32.3925 60.2981 32.7482 60.2981 33.2249H59.5061C59.5061 32.6015 59.7041 32.0919 60.1001 31.6959C60.4961 31.2999 61.0167 31.1019 61.6621 31.1019C62.3074 31.1019 62.8281 31.2962 63.2241 31.6849C63.6201 32.0662 63.8181 32.5759 63.8181 33.2139C63.8181 33.5145 63.7704 33.7822 63.6751 34.0169C63.5797 34.2515 63.4184 34.5119 63.1911 34.7979L60.4521 38.2959H63.8181V38.9999Z" fill="#BDBDBD"/>
</svg>
