<svg width="19" height="11" viewBox="0 0 19 11" fill="none" xmlns="http://www.w3.org/2000/svg">
<path d="M8.072 6.388V0.00399935H6.742V6.388C6.742 7.284 6.518 7.96533 6.07 8.432C5.63133 8.88933 4.98733 9.118 4.138 9.118C3.242 9.118 2.556 8.88933 2.08 8.432C1.604 7.96533 1.366 7.284 1.366 6.388V0.00399935H0.036V6.388C0.036 7.72267 0.395333 8.698 1.114 9.314C1.842 9.92067 2.85 10.224 4.138 10.224C5.398 10.224 6.36867 9.90667 7.05 9.272C7.73133 8.628 8.072 7.66667 8.072 6.388ZM11.9175 5.87L13.6115 1.208H13.6395L15.3055 5.87H11.9175ZM12.9115 0.00399935L9.01952 10H10.3775L11.4975 6.99H15.7255L16.8175 10H18.2875L14.3815 0.00399935H12.9115Z" fill="#333333"/>
</svg>
