<svg width="184" height="26" viewBox="0 0 184 26" fill="none" xmlns="http://www.w3.org/2000/svg">
<mask id="path-1-inside-1_41498_205" fill="white">
<path fill-rule="evenodd" clip-rule="evenodd" d="M8.18108 19.7327C5.04087 19.7327 2.89542 17.5048 2.89542 14.6058C2.89542 11.6757 5.09856 9.43624 8.23254 9.43624C9.61398 9.43624 11.0703 9.86994 12.1866 10.5915L13.4434 8.93929C11.9871 7.88731 9.94765 7.30647 8.01425 7.30647C3.45673 7.30647 0 10.4753 0 14.66C0 18.7646 3.34759 21.8922 7.91446 21.8922C9.86345 21.8922 12.0307 21.3165 13.4652 20.2826L12.1866 18.5878C11.1233 19.268 9.61398 19.7327 8.17952 19.7327H8.18108ZM29.3393 11.9132C29.3393 9.35879 27.2859 7.50008 23.7543 7.50008H18.1287V21.6857H20.9353V16.3677H23.2663L26.6435 21.6908H29.9677L26.1321 16.0243C28.1512 15.3699 29.3409 13.8468 29.3409 11.9132H29.3393ZM38.9284 7.50008L33.2373 21.6805H36.1655L37.4877 18.118H43.5404L44.8782 21.6805H47.9592L42.1902 7.50266H38.9159L38.9284 7.50008ZM62.9508 9.25553V7.50912H51.656V9.57177H59.3663L51.3769 19.9728V21.6921H63.0709V19.6049H54.9319L62.9773 9.2594L62.9508 9.25553ZM73.8106 13.4415L69.9126 7.50783H66.6539L72.3294 15.7855V21.6844H75.1515V15.7726L80.9377 7.50008H77.8879L73.8122 13.4376L73.8106 13.4415ZM93.4097 14.1824C94.6414 13.6145 95.3431 12.5857 95.3431 11.1878C95.3431 8.86443 93.4252 7.50912 90.2289 7.50912H84.9277V21.6882H91.1176C94.2516 21.6882 96.3409 20.0231 96.3409 17.6739C96.3409 15.8772 95.0936 14.598 93.3785 14.1824H93.4097ZM106.025 7.50912L100.334 21.6882H103.259L104.584 18.1257H110.634L111.975 21.6882H115.062L109.304 7.50912H106.041H106.025ZM128.608 14.1824C129.843 13.6145 130.553 12.5857 130.553 11.1878C130.553 8.86443 128.651 7.50912 125.439 7.50912H120.137V21.6882H126.343C129.477 21.6882 131.582 20.0231 131.582 17.6739C131.582 15.8772 130.334 14.598 128.635 14.1824H128.608ZM141.908 13.4415L138.026 7.50912H134.752L140.427 15.7868V21.6895H143.257V15.7739L149.026 7.50912H145.986L141.901 13.4428L141.908 13.4415ZM122.945 9.58855H125.097C126.672 9.58855 127.743 10.1203 127.743 11.424C127.743 12.7755 126.636 13.4118 125.233 13.4118H122.941V9.58855H122.945ZM125.931 19.5972H122.942V15.4022H125.729C127.517 15.4022 128.691 16.0734 128.691 17.5061C128.691 18.9389 127.517 19.5972 125.928 19.5972H125.931ZM105.323 16.116L107.6 10.0158L109.907 16.1082H105.323V16.116ZM87.7451 9.58855H89.8968C91.4716 9.58855 92.5412 10.1203 92.5412 11.424C92.5412 12.7755 91.4342 13.4118 90.0371 13.4118H87.7451V9.58855ZM90.731 19.5972H87.7529V15.4022H90.5439C92.3369 15.4022 93.5063 16.0734 93.5063 17.5061C93.5063 18.9389 92.3369 19.5972 90.7466 19.5972H90.731ZM38.233 16.116L40.5094 10.0158L42.817 16.1082H38.233V16.116ZM23.3879 14.2702H20.94V9.59758H23.3879C25.2698 9.59758 26.4907 10.3888 26.4907 11.9468C26.4907 13.435 25.3837 14.2676 23.3879 14.2676V14.2702ZM174.622 4.10406C173.476 3.78137 173.025 3.08435 172.373 2.3228C171.672 1.50503 170.682 0.887262 169.539 0.554443C170.078 2.00011 169.046 3.56194 167.304 3.98789C164.219 4.67485 161.538 6.26127 159.753 8.45512C157.969 10.649 157.202 13.3026 157.594 15.9274C157.985 18.5523 159.509 20.9717 161.884 22.7404C164.26 24.509 167.327 25.5078 170.521 25.5529C173.715 25.5979 176.822 24.6862 179.269 22.9856C181.715 21.285 183.338 18.91 183.837 16.2977C184.336 13.6854 183.679 11.0117 181.986 8.7688C180.293 6.52589 177.678 4.86475 174.623 4.09116L174.622 4.10406ZM170.758 21.6986C169.176 21.6986 167.659 21.1784 166.541 20.2525C165.423 19.3266 164.794 18.0708 164.794 16.7614C164.794 15.4519 165.423 14.1961 166.541 13.2702C167.659 12.3443 169.176 11.8242 170.758 11.8242C172.34 11.8242 173.857 12.3443 174.975 13.2702C176.094 14.1961 176.722 15.4519 176.722 16.7614C176.722 18.0708 176.094 19.3266 174.975 20.2525C173.857 21.1784 172.34 21.6986 170.758 21.6986Z"/>
</mask>
<path fill-rule="evenodd" clip-rule="evenodd" d="M8.18108 19.7327C5.04087 19.7327 2.89542 17.5048 2.89542 14.6058C2.89542 11.6757 5.09856 9.43624 8.23254 9.43624C9.61398 9.43624 11.0703 9.86994 12.1866 10.5915L13.4434 8.93929C11.9871 7.88731 9.94765 7.30647 8.01425 7.30647C3.45673 7.30647 0 10.4753 0 14.66C0 18.7646 3.34759 21.8922 7.91446 21.8922C9.86345 21.8922 12.0307 21.3165 13.4652 20.2826L12.1866 18.5878C11.1233 19.268 9.61398 19.7327 8.17952 19.7327H8.18108ZM29.3393 11.9132C29.3393 9.35879 27.2859 7.50008 23.7543 7.50008H18.1287V21.6857H20.9353V16.3677H23.2663L26.6435 21.6908H29.9677L26.1321 16.0243C28.1512 15.3699 29.3409 13.8468 29.3409 11.9132H29.3393ZM38.9284 7.50008L33.2373 21.6805H36.1655L37.4877 18.118H43.5404L44.8782 21.6805H47.9592L42.1902 7.50266H38.9159L38.9284 7.50008ZM62.9508 9.25553V7.50912H51.656V9.57177H59.3663L51.3769 19.9728V21.6921H63.0709V19.6049H54.9319L62.9773 9.2594L62.9508 9.25553ZM73.8106 13.4415L69.9126 7.50783H66.6539L72.3294 15.7855V21.6844H75.1515V15.7726L80.9377 7.50008H77.8879L73.8122 13.4376L73.8106 13.4415ZM93.4097 14.1824C94.6414 13.6145 95.3431 12.5857 95.3431 11.1878C95.3431 8.86443 93.4252 7.50912 90.2289 7.50912H84.9277V21.6882H91.1176C94.2516 21.6882 96.3409 20.0231 96.3409 17.6739C96.3409 15.8772 95.0936 14.598 93.3785 14.1824H93.4097ZM106.025 7.50912L100.334 21.6882H103.259L104.584 18.1257H110.634L111.975 21.6882H115.062L109.304 7.50912H106.041H106.025ZM128.608 14.1824C129.843 13.6145 130.553 12.5857 130.553 11.1878C130.553 8.86443 128.651 7.50912 125.439 7.50912H120.137V21.6882H126.343C129.477 21.6882 131.582 20.0231 131.582 17.6739C131.582 15.8772 130.334 14.598 128.635 14.1824H128.608ZM141.908 13.4415L138.026 7.50912H134.752L140.427 15.7868V21.6895H143.257V15.7739L149.026 7.50912H145.986L141.901 13.4428L141.908 13.4415ZM122.945 9.58855H125.097C126.672 9.58855 127.743 10.1203 127.743 11.424C127.743 12.7755 126.636 13.4118 125.233 13.4118H122.941V9.58855H122.945ZM125.931 19.5972H122.942V15.4022H125.729C127.517 15.4022 128.691 16.0734 128.691 17.5061C128.691 18.9389 127.517 19.5972 125.928 19.5972H125.931ZM105.323 16.116L107.6 10.0158L109.907 16.1082H105.323V16.116ZM87.7451 9.58855H89.8968C91.4716 9.58855 92.5412 10.1203 92.5412 11.424C92.5412 12.7755 91.4342 13.4118 90.0371 13.4118H87.7451V9.58855ZM90.731 19.5972H87.7529V15.4022H90.5439C92.3369 15.4022 93.5063 16.0734 93.5063 17.5061C93.5063 18.9389 92.3369 19.5972 90.7466 19.5972H90.731ZM38.233 16.116L40.5094 10.0158L42.817 16.1082H38.233V16.116ZM23.3879 14.2702H20.94V9.59758H23.3879C25.2698 9.59758 26.4907 10.3888 26.4907 11.9468C26.4907 13.435 25.3837 14.2676 23.3879 14.2676V14.2702ZM174.622 4.10406C173.476 3.78137 173.025 3.08435 172.373 2.3228C171.672 1.50503 170.682 0.887262 169.539 0.554443C170.078 2.00011 169.046 3.56194 167.304 3.98789C164.219 4.67485 161.538 6.26127 159.753 8.45512C157.969 10.649 157.202 13.3026 157.594 15.9274C157.985 18.5523 159.509 20.9717 161.884 22.7404C164.26 24.509 167.327 25.5078 170.521 25.5529C173.715 25.5979 176.822 24.6862 179.269 22.9856C181.715 21.285 183.338 18.91 183.837 16.2977C184.336 13.6854 183.679 11.0117 181.986 8.7688C180.293 6.52589 177.678 4.86475 174.623 4.09116L174.622 4.10406ZM170.758 21.6986C169.176 21.6986 167.659 21.1784 166.541 20.2525C165.423 19.3266 164.794 18.0708 164.794 16.7614C164.794 15.4519 165.423 14.1961 166.541 13.2702C167.659 12.3443 169.176 11.8242 170.758 11.8242C172.34 11.8242 173.857 12.3443 174.975 13.2702C176.094 14.1961 176.722 15.4519 176.722 16.7614C176.722 18.0708 176.094 19.3266 174.975 20.2525C173.857 21.1784 172.34 21.6986 170.758 21.6986Z" fill="black" stroke="black" stroke-width="2" mask="url(#path-1-inside-1_41498_205)"/>
</svg>
