<svg width="24.000000" height="24.000000" viewBox="0 0 24 24" fill="none" xmlns="http://www.w3.org/2000/svg" xmlns:xlink="http://www.w3.org/1999/xlink">
	<desc>
			Created with Pixso.
	</desc>
	<defs>
		<clipPath id="clip24223_3360">
			<rect id="Frame 2" width="24.000000" height="24.000000" fill="white" fill-opacity="0"/>
		</clipPath>
	</defs>
	<g clip-path="url(#clip24223_3360)">
		<path id="Vector" d="M18 3L6 3C4.2998 3 3 4.29175 3 5.98096L3 17.9053C3 19.5945 4.2998 20.8862 6 20.8862L18 20.8862C19.7002 20.8862 21 19.5945 21 17.9053L21 5.98096C21 4.29175 19.7002 3 18 3ZM12 8.96216C13.7002 8.96216 15 10.2539 15 11.9431C15 13.6323 13.7002 14.9241 12 14.9241C10.2998 14.9241 9 13.6323 9 11.9431C9 10.2539 10.2998 8.96216 12 8.96216ZM15.7998 6.97461C15.7998 6.27905 16.3999 5.78223 17 5.78223C17.6001 5.78223 18.2002 6.37842 18.2002 6.97461C18.2002 7.57104 17.7002 8.16724 17 8.16724C16.2998 8.16724 15.7998 7.67041 15.7998 6.97461ZM18 18.8989L6 18.8989C5.3999 18.8989 5 18.5015 5 17.9053L5 11.9431L7 11.9431C7 14.7253 9.2002 16.9116 12 16.9116C14.7998 16.9116 17 14.7253 17 11.9431L19 11.9431L19 17.9053C19 18.5015 18.6001 18.8989 18 18.8989Z" fill="#4F4F4F" fill-opacity="1.000000" fill-rule="nonzero"/>
	</g>
</svg>
