<svg width="24" height="25" viewBox="0 0 24 25" fill="none" xmlns="http://www.w3.org/2000/svg">
<path d="M18 3.69287H6C4.3 3.69287 3 4.98465 3 6.67391V18.5981C3 20.2873 4.3 21.5791 6 21.5791H18C19.7 21.5791 21 20.2873 21 18.5981V6.67391C21 4.98465 19.7 3.69287 18 3.69287ZM12 9.65495C13.7 9.65495 15 10.9467 15 12.636C15 14.3252 13.7 15.617 12 15.617C10.3 15.617 9 14.3252 9 12.636C9 10.9467 10.3 9.65495 12 9.65495ZM15.8 7.66759C15.8 6.97201 16.4 6.47517 17 6.47517C17.6 6.47517 18.2 7.07138 18.2 7.66759C18.2 8.2638 17.7 8.86 17 8.86C16.3 8.86 15.8 8.36316 15.8 7.66759ZM18 19.5917H6C5.4 19.5917 5 19.1943 5 18.5981V12.636H7C7 15.4183 9.2 17.6044 12 17.6044C14.8 17.6044 17 15.4183 17 12.636H19V18.5981C19 19.1943 18.6 19.5917 18 19.5917Z" fill="#4F4F4F"/>
</svg>
