<svg width="24.000000" height="24.000000" viewBox="0 0 24 24" fill="none" xmlns="http://www.w3.org/2000/svg" xmlns:xlink="http://www.w3.org/1999/xlink">
	<desc>
			Created with Pixso.
	</desc>
	<defs>
		<clipPath id="clip24223_3362">
			<rect id="Frame" width="24.000000" height="24.000000" fill="white" fill-opacity="0"/>
		</clipPath>
	</defs>
	<g clip-path="url(#clip24223_3362)">
		<path id="twitter" d="M20.4214 6.67603C21.4087 6.10205 22.0625 5.31885 22.3828 4.32275C21.481 4.78442 20.5132 5.12012 19.5098 5.31885C18.6504 4.44434 17.5625 4 16.2588 4C14.9839 4 13.9072 4.42334 13.0283 5.24707C12.604 5.63843 12.2686 6.10742 12.0425 6.62573C11.8164 7.1438 11.7046 7.70044 11.7134 8.26099C11.7134 8.61865 11.7612 8.93774 11.8564 9.2085C8.09717 9.08716 4.98535 7.61084 2.53369 4.76929C2.11816 5.4646 1.91064 6.17285 1.91064 6.90503C1.91064 8.4104 2.58154 9.60303 3.9209 10.479C3.15723 10.4175 2.48389 10.2349 1.91064 9.93506C1.91064 11.01 2.24414 11.9077 2.9126 12.698C3.56201 13.468 4.47705 13.9968 5.49756 14.1917C5.11621 14.2842 4.71436 14.3281 4.30127 14.3281C3.91992 14.3281 3.64941 14.2981 3.48975 14.2319C3.77051 15.1079 4.30127 15.8181 5.06738 16.3621C5.82471 16.9065 6.74658 17.2078 7.69727 17.2217C6.06934 18.4307 4.20801 19.0288 2.10254 19.0288C1.58643 19.0288 1.22119 19.0217 1 18.9849C3.07422 20.2598 5.38281 20.8926 7.93701 20.8926C10.5513 20.8926 12.8608 20.2656 14.8716 19.0115C16.8818 17.7642 18.3657 16.2253 19.3188 14.4136C20.2617 12.6606 20.7524 10.7212 20.7515 8.75391L20.7515 8.2124C21.6299 7.59912 22.3906 6.84741 23 5.98999C22.1772 6.32764 21.3096 6.55835 20.4214 6.67603Z" fill="#4F4F4F" fill-opacity="1.000000" fill-rule="nonzero"/>
	</g>
</svg>
