<svg width="22" height="18" viewBox="0 0 22 18" fill="none" xmlns="http://www.w3.org/2000/svg">
<path d="M19.4213 3.55771C20.4088 2.98798 21.0626 2.21034 21.3828 1.22135C20.4809 1.67979 19.5131 2.01292 18.5095 2.21034C17.6504 1.34196 16.5626 0.900879 15.2586 0.900879C13.9839 0.900879 12.9072 1.32129 12.0284 2.13913C11.6041 2.52749 11.2686 2.9932 11.0424 3.50773C10.8163 4.02225 10.7044 4.57475 10.7134 5.13137C10.7134 5.4863 10.7611 5.80333 10.8564 6.07212C7.09705 5.95151 3.98545 4.48583 1.5338 1.66473C1.11827 2.35507 0.910505 3.05805 0.910505 3.78515C0.910505 5.27954 1.58147 6.46381 2.92095 7.33334C2.1571 7.27246 1.4837 7.09097 0.910505 6.79347C0.910505 7.86057 1.24415 8.75192 1.91267 9.53645C2.56207 10.3009 3.47725 10.826 4.49753 11.0194C4.11622 11.1113 3.71413 11.1549 3.30104 11.1549C2.91973 11.1549 2.64963 11.125 2.48953 11.0596C2.77062 11.9291 3.30104 12.6344 4.06733 13.1742C4.82487 13.7148 5.74635 14.0139 6.69741 14.0277C5.0695 15.228 3.20816 15.8219 1.10238 15.8219C0.586634 15.8219 0.22121 15.815 0 15.7782C2.074 17.0441 4.38265 17.6724 6.93695 17.6724C9.55114 17.6724 11.861 17.0498 13.8715 15.8047C15.8819 14.5664 17.3656 13.0387 18.3189 11.2399C19.2616 9.49936 19.7524 7.57377 19.7512 5.62069V5.08313C20.6299 4.47425 21.3906 3.72785 22 2.87656C21.177 3.21181 20.3096 3.44094 19.4213 3.55771Z" fill="#4F4F4F"/>
</svg>
