<svg width="50" height="41" viewBox="0 0 50 41" fill="none" xmlns="http://www.w3.org/2000/svg">
<path d="M49.7822 38.9728L38.4062 24.1079C40.008 22.3612 41.2966 20.274 42.1386 17.8992C42.2484 17.5888 42.3364 17.2768 42.4234 16.9648L42.4814 16.7572C42.6396 16.1985 42.3197 15.6156 41.7663 15.4558C41.2154 15.2949 40.6361 15.6187 40.4784 16.1784L40.4179 16.3943C40.3442 16.6595 40.2709 16.9247 40.1773 17.1884C39.4745 19.1705 38.4135 20.9198 37.1068 22.41L30.6827 14.0157C31.2284 12.6327 31.2755 11.1237 30.7664 9.71617C30.3433 8.51578 29.5626 7.51192 28.5399 6.79434L30.695 2.17099C30.9402 1.64519 30.7169 1.01762 30.1966 0.769885C29.6778 0.522662 29.0552 0.74727 28.8101 1.27358L26.6533 5.90028C26.1368 5.75681 25.6074 5.67406 25.0685 5.67406C22.7247 5.67406 20.5685 7.053 19.5685 9.18986C18.881 10.6635 18.8081 12.3161 19.3602 13.853C19.3793 13.907 19.4115 13.9531 19.432 14.0063L0.220737 38.8577C-0.133266 39.3161 -0.0529032 39.9776 0.400282 40.3353C0.591017 40.4854 0.816846 40.5584 1.04115 40.5584C1.35039 40.5584 1.6571 40.4196 1.86258 40.1539L13.1913 25.4993C14.9073 27.0071 16.8406 28.1793 18.9809 28.9451C20.9843 29.6626 23.0316 30.0029 25.0462 30.0029C29.4143 30.0029 33.6197 28.3931 36.8904 25.5686L48.1343 40.2608C48.3397 40.5291 48.6475 40.6694 48.9587 40.6694C49.1815 40.6694 49.4058 40.5975 49.5955 40.4495C50.0508 40.0938 50.1342 39.4328 49.7822 38.9728ZM19.6767 26.9611C17.7507 26.2714 16.0128 25.2099 14.4741 23.8399L20.5996 15.9161C21.1269 16.4898 21.7658 16.9628 22.4956 17.3056C23.3081 17.695 24.1727 17.8846 25.0581 17.8846C26.7674 17.8846 28.3714 17.1449 29.5055 15.9189L35.6166 23.9043C31.3825 27.6103 25.3345 28.9861 19.6767 26.9611Z" fill="#4F4F4F"/>
</svg>
