<svg width="12" height="12" viewBox="0 0 12 12" fill="none" xmlns="http://www.w3.org/2000/svg">
<path d="M11.0719 0.467121C11.2429 0.295968 11.5202 0.295971 11.6912 0.467128C11.8618 0.637978 11.8618 0.914747 11.6912 1.08559L0.927872 11.862C0.757033 12.0331 0.47984 12.0331 0.308946 11.8621C0.138274 11.6913 0.138228 11.4146 0.308843 11.2437L11.0719 0.467121Z" fill="#828282"/>
<path d="M0.30873 0.467453C0.479707 0.296133 0.757263 0.296079 0.928307 0.467332L11.6911 11.2433C11.8618 11.4142 11.8619 11.691 11.6913 11.8619C11.5203 12.0332 11.2427 12.0333 11.0717 11.862L0.308852 1.08603C0.138197 0.915169 0.138143 0.638383 0.30873 0.467453Z" fill="#828282"/>
</svg>
