<svg width="0" height="0" class="hidden">
  <symbol xmlns="http://www.w3.org/2000/svg" id="arrow-top">
    <path d="M11.9879 25.6249L9.01174 25.6249L9.01174 6.93962L3.05936 13.1681L0.0831714 11.611L10.4998 0.711181L20.9165 11.611L17.9403 13.1681L11.9879 6.93962L11.9879 25.6249Z"></path>
  </symbol>
  <symbol xmlns="http://www.w3.org/2000/svg" viewBox="0 0 46 44" id="image-2">
    <path d="M27.2791 0.797852L11.7006 12.4708H0V31.3699H11.7006L27.2791 43.0429V0.797852ZM38.4281 6.33904C38.1964 6.35337 37.9756 6.44557 37.7987 6.60174C37.6219 6.75791 37.4988 6.96958 37.4478 7.20484C37.3969 7.4401 37.421 7.68619 37.5164 7.90601C37.6118 8.12582 37.7733 8.30745 37.9767 8.4235C41.2399 10.3541 43.8605 15.6086 43.8605 21.9204C43.8605 28.2321 41.24 33.4692 37.9767 35.3999C37.7321 35.548 37.5539 35.7909 37.4811 36.0752C37.4083 36.3596 37.4468 36.6623 37.5882 36.9172C37.7297 37.1721 37.9625 37.3585 38.2358 37.4354C38.5091 37.5124 38.8006 37.4738 39.0465 37.328C43.2789 34.8239 46 28.8533 46 21.9204C46 14.9874 43.2789 8.99944 39.0465 6.49538C38.8604 6.37927 38.6447 6.32474 38.4281 6.33904ZM32.8452 10.7859C32.6122 10.7968 32.3891 10.8866 32.2097 11.0415C32.0304 11.1964 31.9046 11.4079 31.8516 11.6439C31.7986 11.88 31.8213 12.1275 31.9162 12.3489C32.0111 12.5703 32.1729 12.7534 32.3772 12.8703C34.3866 14.105 36.1381 17.6348 36.1381 21.9204C36.1381 26.206 34.3866 29.7184 32.3772 30.953C32.2547 31.0268 32.1474 31.125 32.0615 31.242C31.9756 31.359 31.9128 31.4924 31.8766 31.6347C31.8405 31.777 31.8318 31.9253 31.851 32.0711C31.8702 32.2169 31.9169 32.3573 31.9884 32.4843C32.06 32.6112 32.155 32.7223 32.2679 32.811C32.3809 32.8997 32.5096 32.9644 32.6467 33.0013C32.7838 33.0381 32.9265 33.0465 33.0667 33.0259C33.2069 33.0053 33.3418 32.9561 33.4637 32.8812C36.4513 31.0456 38.2776 26.8042 38.2776 21.9204C38.2776 17.0366 36.4513 12.7778 33.4637 10.9422C33.2775 10.8261 33.0618 10.7716 32.8452 10.7859Z"></path>
  </symbol>
  <symbol xmlns="http://www.w3.org/2000/svg" viewBox="0 0 11 19" id="facebook">
    <path d="M7.33333 7.07977H11V10.6197H7.33333V18.8794H3.66667V10.6197H0V7.07977H3.66667V5.59892C3.66667 4.19595 4.12378 2.42364 5.03311 1.45489C5.94244 0.483784 7.07789 0 8.43822 0H11V3.53989H8.43333C7.82467 3.53989 7.33333 4.01423 7.33333 4.60067V7.07977Z"></path>
  </symbol>
  <symbol xmlns="http://www.w3.org/2000/svg" viewBox="0 0 48 13" id="slide-1">
    <path d="M48 4.19628e-06L0.329261 0L0.329261 0.999998L48 1V4.19628e-06Z"></path>
    <path d="M18.2022 11.8047L0.440509 0.000149576L0 1.19548L17.7616 13L18.2022 11.8047Z"></path>
  </symbol>
  <symbol xmlns="http://www.w3.org/2000/svg" viewBox="0 0 48 13" id="slide-2">
    <path d="M0 13H47.6707V12H0V13Z"></path>
    <path d="M29.7978 1.19533L47.5595 12.9999L48 11.8045L30.2384 0L29.7978 1.19533Z"></path>
  </symbol>
  <symbol xmlns="http://www.w3.org/2000/svg" viewBox="0 0 22 17" id="twitter">
    <path d="M19.4213 2.67602C20.4088 2.10217 21.0626 1.31892 21.3828 0.322788C20.4809 0.784535 19.5131 1.12007 18.5095 1.31892C17.6504 0.444268 16.5626 0 15.2586 0C13.9839 0 12.9072 0.423443 12.0284 1.24719C11.6041 1.63836 11.2686 2.10743 11.0424 2.62567C10.8163 3.14391 10.7044 3.70039 10.7134 4.26103C10.7134 4.61853 10.7611 4.93785 10.8564 5.20857C7.09705 5.08709 3.98545 3.61083 1.5338 0.769369C1.11827 1.46469 0.910505 2.17275 0.910505 2.90509C0.910505 4.41028 1.58147 5.60309 2.92095 6.4789C2.1571 6.41758 1.4837 6.23479 0.910505 5.93514C0.910505 7.00994 1.24415 7.90773 1.91267 8.69792C2.56207 9.46792 3.47725 9.99674 4.49753 10.1915C4.11622 10.2841 3.71413 10.3281 3.30104 10.3281C2.91973 10.3281 2.64963 10.298 2.48953 10.232C2.77062 11.1078 3.30104 11.8182 4.06733 12.362C4.82487 12.9065 5.74635 13.2077 6.69741 13.2216C5.0695 14.4306 3.20816 15.0287 1.10238 15.0287C0.586634 15.0287 0.22121 15.0218 0 14.9848C2.074 16.2597 4.38265 16.8926 6.93695 16.8926C9.55114 16.8926 11.861 16.2655 13.8715 15.0114C15.8819 13.7642 17.3656 12.2255 18.3189 10.4137C19.2616 8.66057 19.7524 6.72107 19.7512 4.75389V4.21244C20.6299 3.59917 21.3906 2.84738 22 1.98995C21.177 2.32762 20.3096 2.5584 19.4213 2.67602Z"></path>
  </symbol>
  <symbol xmlns="http://www.w3.org/2000/svg" viewBox="0 0 50 43" id="image-1">
    <path d="M49.7822 40.4532L38.4062 24.7539C40.008 22.9092 41.2966 20.7049 42.1386 18.1968C42.2484 17.869 42.3364 17.5395 42.4234 17.21L42.4814 16.9907C42.6396 16.4006 42.3197 15.785 41.7663 15.6162C41.2154 15.4463 40.6361 15.7883 40.4784 16.3794L40.4179 16.6074C40.3442 16.8875 40.2709 17.1676 40.1773 17.4461C39.4745 19.5395 38.4135 21.3869 37.1068 22.9608L30.6827 14.0954C31.2284 12.6348 31.2755 11.041 30.7664 9.5545C30.3433 8.28673 29.5626 7.22653 28.5398 6.46868L30.695 1.58583C30.9402 1.03052 30.7169 0.367731 30.1966 0.106089C29.6778 -0.15501 29.0552 0.0822047 28.8101 0.638058L26.6533 5.52443C26.1368 5.37292 25.6074 5.28552 25.0685 5.28552C22.7247 5.28552 20.5685 6.74185 19.5685 8.99865C18.881 10.555 18.8081 12.3004 19.3602 13.9235C19.3793 13.9806 19.4115 14.0292 19.432 14.0855L0.220737 40.3316C-0.133266 40.8158 -0.0529032 41.5144 0.400282 41.8922C0.591017 42.0507 0.816846 42.1278 1.04115 42.1278C1.35039 42.1278 1.6571 41.9812 1.86258 41.7006L13.1913 26.2234C14.9073 27.816 16.8406 29.0539 18.9809 29.8627C20.9843 30.6205 23.0316 30.9798 25.0462 30.9798C29.4143 30.9798 33.6197 29.2797 36.8904 26.2967L48.1343 41.8135C48.3397 42.0969 48.6475 42.2451 48.9587 42.2451C49.1815 42.2451 49.4058 42.1691 49.5955 42.0127C50.0508 41.6371 50.1342 40.939 49.7822 40.4532ZM19.6767 27.7674C17.7507 27.0389 16.0128 25.9178 14.4741 24.4709L20.5996 16.1024C21.1269 16.7083 21.7658 17.2079 22.4956 17.5699C23.3081 17.9812 24.1727 18.1813 25.0581 18.1813C26.7674 18.1813 28.3714 17.4002 29.5055 16.1054L35.6166 24.5389C31.3825 28.453 25.3345 29.906 19.6767 27.7674Z"></path>
  </symbol>
  <symbol xmlns="http://www.w3.org/2000/svg" viewBox="0 0 46 39" id="image-3">
    <path d="M23 0.768555C14.4221 0.768555 6.55119 3.86637 0.411638 8.86606C0.190719 9.04774 0.0459588 9.31636 0.00920269 9.61283C-0.0275534 9.9093 0.0467058 10.2093 0.215644 10.4469C0.384582 10.6845 0.634361 10.8402 0.910031 10.8797C1.1857 10.9192 1.46468 10.8394 1.6856 10.6577C7.47142 5.94607 14.8902 3.01689 23 3.01689C31.1098 3.01689 38.5286 5.94607 44.3144 10.6577C44.5353 10.8394 44.8143 10.9192 45.09 10.8797C45.3656 10.8402 45.6154 10.6845 45.7844 10.4469C45.9533 10.2093 46.0275 9.9093 45.9908 9.61283C45.954 9.31636 45.8093 9.04774 45.5884 8.86606C39.4488 3.86637 31.5778 0.768555 23 0.768555ZM23 11.4481C16.8533 11.4481 11.1223 13.4491 6.66713 17.3149C6.54386 17.4004 6.4387 17.5128 6.35848 17.6449C6.27827 17.777 6.2248 17.9257 6.20156 18.0815C6.17831 18.2372 6.1858 18.3965 6.22355 18.549C6.26129 18.7014 6.32844 18.8436 6.42064 18.9663C6.51284 19.089 6.62801 19.1895 6.75868 19.2612C6.88934 19.3328 7.03257 19.3742 7.17906 19.3824C7.32555 19.3907 7.47201 19.3657 7.60892 19.3091C7.74584 19.2524 7.87014 19.1655 7.97376 19.0538C12.0217 15.5414 17.2751 13.6965 23 13.6965C28.7249 13.6965 33.9783 15.5414 38.0262 19.0538C38.1299 19.1655 38.2542 19.2524 38.3911 19.3091C38.528 19.3657 38.6744 19.3907 38.8209 19.3824C38.9674 19.3742 39.1107 19.3328 39.2413 19.2612C39.372 19.1895 39.4872 19.089 39.5794 18.9663C39.6716 18.8436 39.7387 18.7014 39.7765 18.549C39.8142 18.3965 39.8217 18.2372 39.7984 18.0815C39.7752 17.9257 39.7217 17.777 39.6415 17.6449C39.5613 17.5128 39.4561 17.4004 39.3329 17.3149C34.8777 13.4491 29.1467 11.4481 23 11.4481ZM23 21.5656C19.2465 21.5656 15.6812 22.8298 12.9389 25.1665C12.7216 25.3533 12.5819 25.6251 12.5504 25.9225C12.519 26.2198 12.5983 26.5184 12.7711 26.753C12.9439 26.9876 13.196 27.139 13.4723 27.1742C13.7487 27.2093 14.0267 27.1253 14.2456 26.9405C16.5865 24.9458 19.6893 23.8139 23 23.8139C26.3107 23.8139 29.4135 24.9458 31.7544 26.9405C31.9733 27.1253 32.2513 27.2093 32.5277 27.1742C32.804 27.139 33.0561 26.9876 33.2289 26.753C33.4017 26.5184 33.481 26.2198 33.4496 25.9225C33.4181 25.6251 33.2784 25.3533 33.061 25.1665C30.3188 22.8298 26.7535 21.5656 23 21.5656ZM23 32.2452C21.2681 32.2452 19.8641 33.7551 19.8641 35.6177C19.8641 37.4803 21.2681 38.9902 23 38.9902C24.7319 38.9902 26.1359 37.4803 26.1359 35.6177C26.1359 33.7551 24.7319 32.2452 23 32.2452Z"></path>
  </symbol>
  <symbol xmlns="http://www.w3.org/2000/svg" viewBox="0 0 44 48" id="image-4">
    <path d="M22 12.112C15.7868 12.112 10.7313 17.4282 10.7313 23.962C10.7313 30.4957 15.7868 35.8112 22 35.8112C28.2132 35.8112 33.2687 30.4957 33.2687 23.962C33.2687 17.4282 28.2132 12.112 22 12.112Z"></path>
    <path d="M22.0002 10.1327C22.3899 10.1327 22.7061 9.80013 22.7061 9.39033V1.56929C22.7061 1.15949 22.3899 0.826904 22.0002 0.826904C21.6105 0.826904 21.2942 1.15949 21.2942 1.56929V9.39033C21.2942 9.80013 21.6105 10.1327 22.0002 10.1327Z"></path>
    <path d="M22.0002 37.7896C21.6105 37.7896 21.2942 38.1222 21.2942 38.532V46.3531C21.2942 46.7629 21.6105 47.0955 22.0002 47.0955C22.3899 47.0955 22.7061 46.7629 22.7061 46.3531V38.532C22.7061 38.1222 22.3899 37.7896 22.0002 37.7896Z"></path>
    <path d="M11.7038 14.1832C11.8415 14.3279 12.0222 14.4007 12.2029 14.4007C12.3837 14.4007 12.5644 14.3279 12.7021 14.1832C12.9781 13.8929 12.9781 13.4237 12.7021 13.1334L7.44259 7.60338C7.16656 7.31311 6.72038 7.31311 6.44435 7.60338C6.16832 7.89366 6.16832 8.36285 6.44435 8.65312L11.7038 14.1832Z"></path>
    <path d="M32.2978 33.7399C32.0217 33.4496 31.5756 33.4496 31.2995 33.7399C31.0235 34.0301 31.0235 34.4993 31.2995 34.7896L36.559 40.3196C36.6967 40.4644 36.8774 40.5372 37.0581 40.5372C37.2388 40.5372 37.4196 40.4644 37.5572 40.3196C37.8333 40.0294 37.8333 39.5602 37.5572 39.2699L32.2978 33.7399Z"></path>
    <path d="M31.798 14.4007C31.9787 14.4007 32.1594 14.3279 32.2971 14.1832L37.5565 8.65312C37.8326 8.36285 37.8326 7.89366 37.5565 7.60338C37.2805 7.31311 36.8343 7.31311 36.5583 7.60338L31.2988 13.1334C31.0228 13.4237 31.0228 13.8929 31.2988 14.1832C31.4372 14.3279 31.6179 14.4007 31.798 14.4007Z"></path>
    <path d="M11.7038 33.7399L6.44435 39.2699C6.16832 39.5602 6.16832 40.0294 6.44435 40.3196C6.58201 40.4644 6.76274 40.5372 6.94347 40.5372C7.1242 40.5372 7.30493 40.4644 7.44259 40.3196L12.7021 34.7896C12.9781 34.4993 12.9781 34.0301 12.7021 33.7399C12.426 33.4496 11.9791 33.4496 11.7038 33.7399Z"></path>
    <path d="M43.294 23.2188H35.8567C35.467 23.2188 35.1507 23.5513 35.1507 23.9611C35.1507 24.3709 35.467 24.7035 35.8567 24.7035H43.294C43.6837 24.7035 44 24.3709 44 23.9611C44 23.5513 43.6837 23.2188 43.294 23.2188Z"></path>
    <path d="M8.85003 23.9611C8.85003 23.5513 8.53376 23.2188 8.14406 23.2188H0.705969C0.316274 23.2188 0 23.5513 0 23.9611C0 24.3709 0.316274 24.7035 0.705969 24.7035H8.14335C8.53376 24.7035 8.85003 24.3717 8.85003 23.9611Z"></path>
  </symbol>
  <symbol xmlns="http://www.w3.org/2000/svg" viewBox="0 0 18 18" id="instagram">
    <path d="M15 0H3C1.3 0 0 1.29178 0 2.98104V14.9052C0 16.5944 1.3 17.8862 3 17.8862H15C16.7 17.8862 18 16.5944 18 14.9052V2.98104C18 1.29178 16.7 0 15 0ZM9 5.96208C10.7 5.96208 12 7.25386 12 8.94312C12 10.6324 10.7 11.9242 9 11.9242C7.3 11.9242 6 10.6324 6 8.94312C6 7.25386 7.3 5.96208 9 5.96208ZM12.8 3.97472C12.8 3.27914 13.4 2.7823 14 2.7823C14.6 2.7823 15.2 3.37851 15.2 3.97472C15.2 4.57093 14.7 5.16713 14 5.16713C13.3 5.16713 12.8 4.67029 12.8 3.97472ZM15 15.8989H3C2.4 15.8989 2 15.5014 2 14.9052V8.94312H4C4 11.7254 6.2 13.9115 9 13.9115C11.8 13.9115 14 11.7254 14 8.94312H16V14.9052C16 15.5014 15.6 15.8989 15 15.8989Z"></path>
  </symbol>
</svg>
